<svg width="200" height="109" viewBox="0 0 200 109" fill="none" xmlns="http://www.w3.org/2000/svg">
<path d="M200 0H0V109H200V0Z" fill="white"/>
<path fill-rule="evenodd" clip-rule="evenodd" d="M83.945 64.3404H89.6507V63.4398H85.7703L87.2165 61.9388H85.6951L83.945 64.1152V64.3404ZM92.3897 61.9388H93.4548C93.4548 62.4641 93.4548 62.9894 93.4548 63.4398H94.5199V62.5391H95.2801V63.4398H96.0413V64.3404H93.4548C93.4548 64.8657 93.4548 65.3911 93.4548 65.9164H96.0413V66.8171H93.3786C93.3786 67.7176 93.3786 68.6933 93.3786 69.669C93.3786 69.8191 93.3786 69.9692 93.4548 70.1193L95.3563 68.9935L95.9651 69.8942L94.1388 71.02C95.0524 71.9956 96.5739 72.9713 97.4104 73.2715V74.2472C96.4215 73.9469 94.4437 72.8212 93.3023 71.4702L91.3246 72.7461L90.7158 71.7704L92.846 70.5696C92.5421 70.1944 92.4659 69.8191 92.4659 69.5189V66.8171H90.4119V65.9164H92.4659V64.3404H90.4119V63.4398H92.4659V61.9388H92.3897ZM83.945 68.168H86.0752V66.8171H83.945V65.9164H89.6507V66.8171H86.9879V68.168H89.6507V69.0686H86.9879V73.2715H87.7491L88.2817 72.6711L88.3579 72.596H88.5093H88.8904V72.7461V73.1214L87.9006 74.1721H85.999V69.0686H83.8688V68.168H83.945Z" fill="#02983B"/>
<path fill-rule="evenodd" clip-rule="evenodd" d="M99.0081 63.3641H101.747V64.2647H99.0081V63.3641ZM106.388 74.0964H104.714C104.334 74.0964 104.257 74.0214 103.954 73.7212C103.573 73.421 103.192 72.8956 103.116 72.5203C103.116 72.2201 103.116 71.0944 103.116 69.8935H101.976V68.7677H103.192C103.192 68.0173 103.192 67.3418 103.192 67.0416C103.269 66.2911 104.03 65.3154 104.866 65.3154H109.659C110.344 65.3154 111.333 66.2911 111.333 66.8915V68.7677H112.093V69.8935H111.333V72.6704C111.333 73.0457 111.028 73.421 110.801 73.6461C110.419 73.9463 110.192 74.1715 109.659 74.1715H108.29C107.833 74.1715 107.529 74.0214 107.3 73.7212C107.149 73.5711 106.996 73.421 106.844 73.1958C106.692 72.9706 106.692 72.8956 106.692 72.6704V69.8935H104.105C104.105 70.9443 104.105 71.995 104.105 72.3702C104.105 72.5203 104.181 72.5954 104.257 72.7455C104.41 72.8956 104.562 73.1207 104.638 73.1207C104.79 73.1207 106.008 73.1207 106.008 73.1207V73.1958L106.388 74.0964ZM106.692 68.8429V67.642L107.758 68.0173V68.8429H110.496C110.496 68.0923 110.496 67.3418 110.496 67.0416C110.496 66.5162 110.116 66.216 109.659 66.216H105.019C104.714 66.216 104.181 66.6663 104.181 66.9665C104.181 67.1166 104.181 67.8672 104.181 68.8429H106.692ZM107.758 69.9686V72.7455C107.758 72.8956 107.833 72.9706 107.833 73.0457C107.909 73.1958 108.062 73.1958 108.214 73.1958C108.594 73.1958 109.659 73.1958 110.039 73.1958C110.116 73.1958 110.268 73.1207 110.344 72.9706C110.419 72.8956 110.496 72.8205 110.496 72.6704C110.496 72.4453 110.496 71.1694 110.496 69.8935H107.758V69.9686ZM101.062 67.8672C100.453 68.4675 99.4644 70.6441 99.0843 74.0964H100.149C100.149 74.0964 100.226 69.7434 102.203 67.8672H101.062ZM102.66 64.2647H112.17V63.3641H104.714L106.008 61.8631H104.562L102.66 64.2647ZM99.0081 65.8408H101.747V66.7414H99.0081V65.8408Z" fill="#02983B"/>
<path fill-rule="evenodd" clip-rule="evenodd" d="M122.06 38.2551C123.201 37.3545 124.266 36.2287 125.559 35.4031C126.32 34.8778 127.233 34.2774 128.146 33.9771C128.602 33.827 128.907 33.752 128.907 33.6769C128.907 33.5269 128.374 33.4518 127.689 33.4518C125.94 33.6019 123.049 35.8535 121.831 36.9041C121.071 37.5797 120.31 38.18 119.701 38.6303C119.549 38.7053 118.637 39.2308 118.028 39.3058C117.876 39.3058 117.799 39.4559 118.028 39.4559C118.408 39.531 119.017 39.4559 119.473 39.4559C120.615 39.3809 121.147 39.0056 122.06 38.2551Z" fill="#02983B"/>
<path fill-rule="evenodd" clip-rule="evenodd" d="M123.201 39.906C124.342 39.0053 125.407 37.8795 126.7 37.054C127.461 36.5286 128.374 35.9282 129.287 35.6281C129.743 35.478 130.048 35.4029 130.048 35.3279C130.048 35.1778 129.515 35.1027 128.83 35.1027C127.08 35.2528 124.19 37.5043 122.972 38.5551C122.212 39.2305 121.451 39.8309 120.842 40.2812C120.691 40.3563 119.777 40.8816 119.169 40.9566C119.017 40.9566 118.94 41.1067 119.169 41.1067C119.549 41.1819 120.158 41.1067 120.614 41.1067C121.831 40.9566 122.288 40.6565 123.201 39.906Z" fill="#02983B"/>
<path d="M44.6133 53.6407C40.9615 53.7908 39.2118 50.6386 39.3639 44.1842C39.2118 37.5798 40.9615 34.3526 44.6133 34.5777C48.2649 34.3526 50.0147 37.5047 49.8625 44.1842C50.0147 50.6386 48.2649 53.7908 44.6133 53.6407ZM44.6133 54.091C47.5802 54.091 49.8625 52.8152 51.6123 50.1883C52.8296 48.162 53.4382 46.0605 53.4382 44.0341C53.362 41.2572 52.3731 38.7806 50.5472 36.604C48.8735 34.8028 46.8955 33.9022 44.6133 33.9022C42.3309 33.9022 40.2768 34.8779 38.5271 36.7541C36.8534 38.7806 36.0166 41.2572 35.9404 44.0341C35.9404 46.5859 36.6251 48.9124 38.0707 50.8638C39.7443 53.0403 41.9505 54.091 44.6133 54.091Z" fill="#02983B"/>
<path d="M55.4922 46.586C55.6443 49.3628 57.0137 50.7888 59.5243 50.8638C60.9698 50.8638 61.7305 50.5637 61.8827 49.8882C61.8827 49.4379 61.7305 49.2878 61.3501 49.2878C61.198 49.2878 61.0458 49.3628 60.7415 49.5129C60.2851 49.7382 59.9047 49.8132 59.5243 49.8132C57.9267 49.7381 57.0899 48.6874 56.9377 46.661C57.0899 44.6346 57.9267 43.584 59.5243 43.5089C59.9047 43.5089 60.2851 43.584 60.7415 43.734C60.9698 43.8841 61.198 43.9592 61.4262 43.9592C61.8066 43.8841 61.9588 43.734 62.0348 43.3587C61.8827 42.6833 61.1219 42.3081 59.6004 42.3081C57.0137 42.3081 55.6443 43.8091 55.4922 46.586ZM70.7077 47.1864C71.3162 47.2614 71.5445 46.9612 71.4684 46.4358C71.2401 43.8091 69.9468 42.3831 67.6646 42.233C65.2301 42.3831 63.8606 43.8841 63.6325 46.661C63.7846 49.5129 65.154 50.9389 67.7406 50.9389C69.7186 50.7888 70.9358 50.2635 71.3923 49.2878C71.3923 48.8375 71.1641 48.6874 70.7837 48.6874C70.6315 48.6874 70.4794 48.7624 70.1751 48.9876C69.4143 49.5129 68.6536 49.8132 67.7406 49.8132C66.0669 49.7381 65.23 48.8375 65.0779 47.2614H70.7077V47.1864ZM65.0779 46.1356C65.23 44.3344 66.0669 43.5089 67.6646 43.5089C69.11 43.584 69.8708 44.4845 70.023 46.1356H65.0779ZM81.1301 42.9084C81.1301 42.4582 80.902 42.233 80.4455 42.233C79.989 42.3081 79.6847 42.5332 79.6847 42.9084V43.3587C78.924 42.6083 78.0871 42.233 77.2503 42.233C74.8158 42.3831 73.4464 43.8841 73.2942 46.661C73.4464 49.4379 74.8158 50.8638 77.2503 50.9389C78.2393 51.0139 79 50.5637 79.6847 49.7382V50.3385C79.6847 50.7138 79.913 50.9389 80.4455 50.9389C80.8258 50.9389 81.0541 50.7138 81.1301 50.3385V42.9084ZM74.8158 46.586C74.8919 44.5596 75.7287 43.5089 77.3263 43.4338C78.8478 43.5089 79.6847 44.5596 79.7608 46.586C79.6847 48.6124 78.8478 49.6631 77.3263 49.7382C75.7287 49.6631 74.8919 48.6124 74.8158 46.586ZM83.945 50.2635C83.945 50.7138 84.1732 50.8638 84.6297 50.8638C85.0862 50.8638 85.3905 50.6387 85.3905 50.2635V45.5353C85.4666 44.2594 86.1513 43.5089 87.5206 43.4338C88.814 43.5089 89.4987 44.1843 89.5747 45.5353V50.2635C89.5747 50.7138 89.803 50.8638 90.3355 50.8638C90.792 50.8638 91.0962 50.6387 91.0962 50.2635V45.4602C91.0202 43.4338 89.9551 42.3831 87.9771 42.158C86.912 42.158 86.0752 42.5332 85.4666 43.2837H85.3905V42.9084C85.3905 42.3831 85.1622 42.158 84.6297 42.158C84.1732 42.158 83.945 42.3831 83.945 42.9084V50.2635ZM127.765 50.2635C127.765 50.7138 127.994 50.8638 128.526 50.8638C128.983 50.8638 129.287 50.6387 129.287 50.2635V45.3852C129.363 44.1093 129.972 43.5089 131.189 43.4338C132.406 43.5089 133.091 44.1093 133.091 45.3852V50.2635C133.091 50.7138 133.319 50.8638 133.852 50.8638C134.385 50.8638 134.612 50.6387 134.612 50.2635V45.4602C134.536 43.4338 133.471 42.3831 131.417 42.158C130.352 42.158 129.439 42.6083 128.678 43.584C127.994 42.6083 127.156 42.158 126.168 42.158C125.179 42.158 124.418 42.5332 123.961 43.2086L123.886 43.1336V42.9084C123.886 42.3831 123.657 42.158 123.125 42.158C122.668 42.158 122.44 42.3831 122.44 42.9084V50.1884C122.44 50.6387 122.668 50.7888 123.125 50.7888C123.581 50.7888 123.886 50.5637 123.886 50.1884V45.3852C123.961 44.1093 124.57 43.5089 125.787 43.4338C127.005 43.5089 127.689 44.1093 127.689 45.3852V50.2635H127.765ZM143.893 47.1864C144.426 47.2614 144.731 46.9612 144.655 46.4358C144.426 43.8091 143.133 42.3831 140.85 42.233C138.416 42.3831 137.046 43.8841 136.819 46.661C136.971 49.5129 138.34 50.9389 140.927 50.9389C142.904 50.7888 144.122 50.2635 144.578 49.2878C144.578 48.8375 144.35 48.6874 143.97 48.6874C143.818 48.6874 143.666 48.7624 143.361 48.9876C142.601 49.5129 141.839 49.8132 140.927 49.8132C139.253 49.7381 138.416 48.8375 138.264 47.2614H143.893V47.1864ZM138.34 46.1356C138.493 44.3344 139.329 43.5089 140.927 43.5089C142.372 43.584 143.133 44.4845 143.286 46.1356H138.34ZM147.012 50.2635C147.012 50.7138 147.241 50.8638 147.697 50.8638C148.154 50.8638 148.459 50.6387 148.459 50.2635V45.5353C148.534 44.2594 149.219 43.5089 150.589 43.4338C151.882 43.5089 152.567 44.1843 152.643 45.5353V50.2635C152.643 50.7138 152.871 50.8638 153.403 50.8638C153.859 50.8638 154.164 50.6387 154.164 50.2635V45.4602C154.088 43.4338 153.023 42.3831 151.045 42.158C149.98 42.158 149.143 42.5332 148.534 43.2837H148.459V42.9084C148.459 42.3831 148.23 42.158 147.697 42.158C147.241 42.158 147.012 42.3831 147.012 42.9084V50.2635ZM157.36 42.3081H156.751C156.295 42.3081 155.99 42.5332 155.99 42.9084C155.99 43.2837 156.218 43.5089 156.751 43.5089H157.36V50.2635C157.36 50.7138 157.587 50.8638 158.044 50.8638C158.576 50.8638 158.805 50.6387 158.805 50.2635V43.5089H159.414C159.87 43.5089 160.098 43.2837 160.098 42.9084C160.098 42.4582 159.87 42.3081 159.414 42.3081H158.805V40.4317C158.729 39.9814 158.5 39.7563 158.044 39.6812C157.587 39.6812 157.36 39.9064 157.36 40.4317V42.3081Z" fill="#9E9E9F"/>
<path d="M95.2045 46.5861C95.2807 44.5597 96.1175 43.509 97.6391 43.4339C99.2366 43.509 100.073 44.5597 100.15 46.5861C100.073 48.6125 99.2366 49.6632 97.6391 49.7382C96.1175 49.6632 95.2807 48.6125 95.2045 46.5861ZM93.9113 53.4908C93.9113 54.0161 94.1395 54.2413 94.6721 54.2413C95.1285 54.2413 95.4328 54.0161 95.4328 53.4908V49.8133H95.5089C96.0414 50.4887 96.8782 50.8639 97.8673 50.8639C100.226 50.7139 101.519 49.2879 101.671 46.5861C101.519 43.8092 100.226 42.3082 97.8673 42.1581C96.6501 42.1581 95.8892 42.5333 95.5089 43.3588H95.4328V42.9085C95.4328 42.3832 95.2045 42.1581 94.6721 42.1581C94.2155 42.1581 93.9113 42.3832 93.9113 42.9085V53.4908ZM111.409 42.9085C111.409 42.4583 111.181 42.2331 110.724 42.2331C110.268 42.3082 109.963 42.5333 109.963 42.9085V43.3588C109.203 42.6083 108.366 42.2331 107.529 42.2331C105.095 42.3832 103.725 43.8842 103.573 46.6612C103.725 49.438 105.095 50.8639 107.529 50.939C108.518 51.014 109.279 50.5638 109.963 49.7382V50.3386C109.963 50.7139 110.192 50.939 110.724 50.939C111.105 50.939 111.333 50.7139 111.409 50.3386V42.9085ZM105.095 46.5861C105.171 44.5597 106.008 43.509 107.605 43.4339C109.127 43.509 109.963 44.5597 110.04 46.5861C109.963 48.6125 109.127 49.6632 107.605 49.7382C106.008 49.6632 105.171 48.6125 105.095 46.5861ZM116.278 50.5638L115.289 52.8153C115.213 52.9654 115.213 53.0405 115.136 53.1906C115.06 53.4157 115.06 53.5658 115.06 53.6409C115.136 53.941 115.289 54.1662 115.745 54.2413C116.125 54.2413 116.354 54.0911 116.43 53.7159L120.158 43.584C120.31 43.2838 120.386 43.0586 120.386 42.8335C120.31 42.4583 120.158 42.2331 119.702 42.2331C119.321 42.2331 119.093 42.4583 119.017 42.8335L117.039 48.6875H116.963L114.909 42.8335C114.756 42.4583 114.528 42.2331 114.224 42.2331C113.767 42.3082 113.539 42.4583 113.463 42.8335C113.463 42.9085 113.539 43.0586 113.615 43.4339C113.615 43.3588 113.615 43.434 113.691 43.6591L116.278 50.5638Z" fill="#02983B"/>
</svg>
