<svg width="200" height="109" viewBox="0 0 200 109" fill="none" xmlns="http://www.w3.org/2000/svg">
<g clip-path="url(#clip0_2_8)">
<path d="M201 0H1V109H201V0Z" fill="white"/>
<path d="M87.8889 52.576C87.6039 54.7137 85.8937 54.7137 84.326 54.7137H83.471L84.1835 50.5808C84.1835 50.2958 84.4685 50.1532 84.7536 50.1532H85.1812C86.3213 50.1532 87.3188 50.1532 87.8889 50.7233C87.8889 51.2934 87.8889 51.8634 87.8889 52.576ZM87.1763 46.8754H81.0482C80.6207 46.8754 80.3356 47.1604 80.1931 47.588L77.7704 63.2645C77.7704 63.5496 77.9129 63.8346 78.3405 63.8346H81.1908C81.6183 63.8346 81.9033 63.5496 82.0458 63.122L82.7584 58.8466C82.7584 58.4191 83.1859 58.134 83.6135 58.134H85.6086C89.599 58.134 91.8793 56.1388 92.5918 52.2909C92.8768 50.5808 92.5918 49.2982 91.8793 48.3005C90.7391 47.4455 89.1715 46.8754 87.1763 46.8754Z" fill="#263577"/>
<path d="M101.285 58.2764C101 59.9865 99.7176 61.1267 98.0074 61.1267C97.1523 61.1267 96.4398 60.8416 96.0122 60.2715C95.5846 59.7015 95.4421 58.989 95.5846 58.2764C95.8697 56.5662 97.1523 55.4261 98.8625 55.4261C99.7176 55.4261 100.43 55.7111 100.858 56.2811C101.143 56.7087 101.428 57.4213 101.285 58.2764ZM105.276 52.5758H102.425C102.14 52.5758 101.998 52.7183 101.856 53.0033L101.713 53.8584L101.57 53.5734C101 52.7183 99.575 52.2907 98.1499 52.2907C94.8721 52.2907 92.1643 54.7135 91.5942 58.1338C91.3093 59.844 91.7367 61.4116 92.7343 62.5518C93.5895 63.5494 94.8721 63.9769 96.4397 63.9769C99.005 63.9769 100.43 62.2668 100.43 62.2668L100.288 63.1218C100.288 63.4069 100.43 63.6919 100.858 63.6919H103.423C103.85 63.6919 104.136 63.4069 104.278 62.9794L105.845 53.0033C105.845 52.8608 105.703 52.5758 105.276 52.5758Z" fill="#263577"/>
<path d="M120.809 52.5762H117.817C117.532 52.5762 117.247 52.7187 117.104 53.0037L113.114 58.9893L111.403 53.2888C111.261 52.8612 110.976 52.7187 110.548 52.7187H107.699C107.413 52.7187 107.128 53.0037 107.271 53.4312L110.548 62.8372L107.556 67.1126C107.271 67.3976 107.556 67.9677 107.983 67.9677H110.976C111.261 67.9677 111.546 67.8251 111.689 67.5402L121.38 53.4312C121.522 53.0037 121.237 52.5762 120.809 52.5762Z" fill="#263577"/>
<path d="M131.213 52.576C130.928 54.7137 129.218 54.7137 127.65 54.7137H126.795L127.508 50.5808C127.508 50.2958 127.793 50.1532 128.078 50.1532H128.505C129.645 50.1532 130.643 50.1532 131.213 50.7233C131.356 51.2934 131.356 51.8634 131.213 52.576ZM130.501 46.8754H124.373C123.945 46.8754 123.66 47.1604 123.518 47.588L121.095 63.2645C121.095 63.5496 121.237 63.8346 121.664 63.8346H124.8C125.085 63.8346 125.37 63.6921 125.37 63.2645L126.083 58.8466C126.083 58.4191 126.51 58.134 126.938 58.134H128.933C132.923 58.134 135.204 56.1388 135.916 52.2909C136.201 50.5808 135.916 49.2982 135.203 48.3005C134.206 47.4455 132.639 46.8754 130.501 46.8754Z" fill="#2199D6"/>
<path d="M144.752 58.2764C144.467 59.9865 143.184 61.1267 141.474 61.1267C140.619 61.1267 139.906 60.8416 139.479 60.2715C139.051 59.7015 138.909 58.989 139.051 58.2764C139.337 56.5662 140.619 55.4261 142.329 55.4261C143.184 55.4261 143.897 55.7111 144.324 56.2811C144.609 56.7087 144.894 57.4213 144.752 58.2764ZM148.743 52.5758H145.892C145.607 52.5758 145.465 52.7183 145.322 53.0033L145.18 53.8584L145.037 53.5734C144.467 52.7183 143.042 52.2907 141.617 52.2907C138.339 52.2907 135.631 54.7135 135.061 58.1338C134.776 59.844 135.204 61.4116 136.201 62.5518C137.056 63.5494 138.339 63.9769 139.906 63.9769C142.472 63.9769 143.897 62.2668 143.897 62.2668L143.754 63.1218C143.754 63.4069 143.897 63.6919 144.324 63.6919H146.889C147.317 63.6919 147.603 63.4069 147.745 62.9794L149.312 53.0033C149.312 52.8608 149.027 52.5758 148.743 52.5758Z" fill="#2199D6"/>
<path d="M152.163 47.303L149.598 63.2645C149.598 63.5496 149.74 63.8346 150.167 63.8346H152.733C153.161 63.8346 153.445 63.5496 153.588 63.122L156.01 47.4455C156.01 47.1604 155.868 46.8754 155.441 46.8754H152.59C152.447 46.8754 152.305 47.1604 152.163 47.303Z" fill="#2199D6"/>
<path d="M52.4028 66.8278L52.8304 63.835H51.8328H46.8448L50.2652 42.0303C50.2652 42.0303 50.2651 41.8878 50.4077 41.8878H50.5501H58.9585C61.6663 41.8878 63.6614 42.4579 64.6591 43.598C65.0866 44.1681 65.3716 44.7381 65.5141 45.3082C65.6567 46.0207 65.6567 46.7333 65.5141 47.7309V48.301L65.9417 48.586C66.3692 48.7285 66.6542 49.0136 66.9393 49.2986C67.3668 49.7262 67.6518 50.2962 67.6518 51.0087C67.7944 51.7213 67.7943 52.5764 67.5094 53.574C67.2243 54.7141 66.9393 55.5692 66.5117 56.4243C66.0842 57.1369 65.5141 57.7069 64.9441 58.277C64.374 58.7045 63.519 58.9895 62.8064 59.2746C61.9513 59.4171 61.0962 59.5596 60.0986 59.5596H59.386C58.9585 59.5596 58.5309 59.7021 58.1034 59.9872C57.8184 60.2721 57.5333 60.6997 57.3908 61.1273V61.4123L56.5358 66.6853V66.8278V66.9703C56.5358 66.9703 56.5357 66.9703 56.3932 66.9703H52.4028V66.8278Z" fill="#263577"/>
<path d="M66.5118 47.731C66.5118 47.8735 66.5118 48.016 66.3693 48.1585C65.2291 53.859 61.5238 55.7117 56.6783 55.7117H54.2555C53.6855 55.7117 53.1154 56.1393 53.1154 56.7093L51.8328 64.6901L51.5478 66.9703C51.5478 67.3979 51.8328 67.6829 52.1178 67.6829H56.5358C57.1058 67.6829 57.5334 67.2554 57.5334 66.8279V66.5428L58.3885 61.4123V61.1273C58.531 60.5572 58.9585 60.2722 59.3861 60.2722H60.0987C64.374 60.2722 67.6519 58.562 68.5069 53.5741C68.9345 51.4364 68.6495 49.7262 67.6519 48.5861C67.3669 48.301 66.9393 48.016 66.5118 47.731Z" fill="#2199D6"/>
<path d="M65.3716 47.303C65.2292 47.303 65.0866 47.1604 64.8016 47.1604C64.6591 47.1604 64.374 47.018 64.2315 47.018C63.519 46.8754 62.8064 46.8754 62.0938 46.8754H55.5382C55.3957 46.8754 55.2531 46.8754 55.1106 47.018C54.8256 47.1604 54.5406 47.4455 54.5406 47.7305L53.1155 56.5664V56.8514C53.258 56.2813 53.6855 55.8538 54.2556 55.8538H56.6783C61.5238 55.8538 65.2292 53.8586 66.3693 48.3005C66.3693 48.1581 66.3693 48.0156 66.5118 47.873C66.2268 47.7305 65.9417 47.588 65.6567 47.4455C65.5141 47.303 65.3716 47.303 65.3716 47.303Z" fill="#252C5E"/>
<path d="M54.5406 47.7305C54.5406 47.4455 54.8256 47.1604 55.1106 47.0179C55.2531 47.0179 55.3957 46.8754 55.5382 46.8754H62.0938C62.8064 46.8754 63.6615 46.8754 64.2315 47.0179C64.374 47.0179 64.6591 47.0179 64.8016 47.1604C64.9441 47.1604 65.0866 47.3029 65.3717 47.3029C65.5141 47.3029 65.5141 47.3029 65.6567 47.4455C65.9417 47.588 66.2267 47.7305 66.5118 47.873C66.7968 45.7353 66.5118 44.3101 65.3717 43.0275C64.089 41.6024 61.8088 41.0323 58.9585 41.0323H50.5502C49.9801 41.0323 49.4101 41.4598 49.4101 42.0299L45.9897 63.9771C45.9897 64.4046 46.2748 64.8321 46.7023 64.8321H51.8328L53.1155 56.5664L54.5406 47.7305Z" fill="#263577"/>
</g>
<defs>
<clipPath id="clip0_2_8">
<rect width="200" height="109" fill="white"/>
</clipPath>
</defs>
</svg>
