<svg width="200" height="109" viewBox="0 0 200 109" fill="none" xmlns="http://www.w3.org/2000/svg">
<path d="M200 0H0V109H200V0Z" fill="white"/>
<path fill-rule="evenodd" clip-rule="evenodd" d="M102.905 39.6367L96.3271 41.0821V35.6216L102.905 34.2029V39.6367ZM116.584 42.6609C114.015 42.6609 112.364 43.8923 111.447 44.7488L111.107 43.0892H105.342V74.2998L111.892 72.8811L111.919 65.306C112.862 66.002 114.251 66.9923 116.558 66.9923C121.248 66.9923 125.52 63.1378 125.52 54.6526C125.493 46.8902 121.17 42.6609 116.584 42.6609ZM115.011 61.1038C113.465 61.1038 112.548 60.5418 111.919 59.8457L111.892 49.9152C112.575 49.1389 113.518 48.6036 115.011 48.6036C117.396 48.6036 119.047 51.3339 119.047 54.8404C119.047 58.4271 117.422 61.1038 115.011 61.1038ZM146.17 54.9203C146.17 48.0679 142.921 42.6609 136.709 42.6609C130.473 42.6609 126.699 48.0679 126.699 54.8668C126.699 62.9237 131.154 66.9922 137.548 66.9922C140.667 66.9922 143.025 66.2696 144.808 65.2524V59.8989C143.025 60.809 140.981 61.3712 138.387 61.3712C135.845 61.3712 133.591 60.4611 133.303 57.3025H146.117C146.117 57.1559 146.126 56.8238 146.138 56.4404V56.4345V56.433V56.4315V56.4294C146.153 55.9057 146.17 55.2893 146.17 54.9203ZM133.225 52.378C133.225 49.3533 135.032 48.0953 136.683 48.0953C138.282 48.0953 139.985 49.3533 139.985 52.378H133.225ZM96.3266 43.1163H102.905V66.5375H96.3266V43.1163ZM88.8587 43.1167L89.278 45.0974C90.8241 42.2066 93.8902 42.7956 94.7287 43.1167V49.2732C93.9163 48.9788 91.2958 48.6039 89.7497 50.6651V66.538H83.1983V43.1167H88.8587ZM76.1748 37.3076L69.7807 38.6995L69.7545 60.14C69.7545 64.1015 72.6633 67.0191 76.5417 67.0191C78.6906 67.0191 80.2629 66.6176 81.1278 66.1358V60.7021C80.2892 61.0501 76.1487 62.2814 76.1487 58.3198V48.8174H81.1278V43.116H76.1487L76.1748 37.3076ZM60.6877 48.4702C59.2988 48.4702 58.4602 48.8717 58.4602 49.9155C58.4602 51.0554 59.9034 51.5568 61.6939 52.1788C64.6128 53.1928 68.4546 54.5275 68.4708 59.4715C68.4708 64.2628 64.7233 67.0198 59.2726 67.0198C57.0189 67.0198 54.5556 66.5648 52.1185 65.494V59.1235C54.3198 60.3548 57.0976 61.2649 59.2726 61.2649C60.7401 61.2649 61.7883 60.8634 61.7883 59.632C61.7883 58.3695 60.2239 57.7924 58.3351 57.0957C55.4587 56.0347 51.8302 54.6963 51.8302 50.2368C51.8302 45.4989 55.368 42.6617 60.6877 42.6617C62.8628 42.6617 65.0116 43.0096 67.1867 43.8929V50.1832C65.195 49.0857 62.6794 48.4702 60.6877 48.4702Z" fill="#6461FC"/>
</svg>
