<svg width="120" height="121" viewBox="0 0 120 121" fill="none" xmlns="http://www.w3.org/2000/svg">
<g clipPath="url(#clip0_1101_4900)">
<path d="M114.375 0.5H43.125C40.0184 0.5 37.5 3.0184 37.5 6.125V114.875C37.5 117.982 40.0184 120.5 43.125 120.5H114.375C117.482 120.5 120 117.982 120 114.875V6.125C120 3.0184 117.482 0.5 114.375 0.5Z" fill="#8EAAF1"/>
<path d="M110.625 15.0312H46.875C45.5806 15.0312 44.5312 16.0806 44.5312 17.375V103.625C44.5312 104.919 45.5806 105.969 46.875 105.969H110.625C111.919 105.969 112.969 104.919 112.969 103.625V17.375C112.969 16.0806 111.919 15.0312 110.625 15.0312Z" fill="#EBF3FD"/>
<path d="M110.625 13.625H46.875C45.8804 13.625 44.9266 14.0201 44.2234 14.7233C43.5201 15.4266 43.125 16.3804 43.125 17.375V103.625C43.125 104.62 43.5201 105.573 44.2234 106.277C44.9266 106.98 45.8804 107.375 46.875 107.375H110.625C111.62 107.375 112.573 106.98 113.277 106.277C113.98 105.573 114.375 104.62 114.375 103.625V17.375C114.375 16.3804 113.98 15.4266 113.277 14.7233C112.573 14.0201 111.62 13.625 110.625 13.625ZM111.562 103.625C111.562 103.874 111.464 104.112 111.288 104.288C111.112 104.464 110.874 104.562 110.625 104.562H46.875C46.6264 104.562 46.3879 104.464 46.2121 104.288C46.0363 104.112 45.9375 103.874 45.9375 103.625V17.375C45.9375 17.1264 46.0363 16.8879 46.2121 16.7121C46.3879 16.5363 46.6264 16.4375 46.875 16.4375H110.625C110.874 16.4375 111.112 16.5363 111.288 16.7121C111.464 16.8879 111.562 17.1264 111.562 17.375V103.625Z" fill="#B1CDFC"/>
<path d="M88.125 8.46875H69.375C69.002 8.46875 68.6444 8.32059 68.3806 8.05687C68.1169 7.79315 67.9688 7.43546 67.9688 7.0625C67.9688 6.68954 68.1169 6.33185 68.3806 6.06813C68.6444 5.80441 69.002 5.65625 69.375 5.65625H88.125C88.498 5.65625 88.8556 5.80441 89.1194 6.06813C89.3831 6.33185 89.5312 6.68954 89.5312 7.0625C89.5312 7.43546 89.3831 7.79315 89.1194 8.05687C88.8556 8.32059 88.498 8.46875 88.125 8.46875Z" fill="#EBF3FD"/>
<path d="M60.0002 116.281C59.6927 116.282 59.3881 116.222 59.1045 116.102C58.821 115.983 58.5645 115.808 58.3502 115.587C58.1302 115.373 57.9554 115.116 57.8361 114.833C57.7168 114.549 57.6553 114.245 57.6553 113.937C57.6553 113.63 57.7168 113.326 57.8361 113.042C57.9554 112.759 58.1302 112.502 58.3502 112.287C58.7981 111.87 59.3877 111.637 60.0002 111.637C60.6127 111.637 61.2024 111.87 61.6502 112.287C61.8708 112.502 62.046 112.758 62.1652 113.042C62.2844 113.325 62.3452 113.63 62.344 113.937C62.3391 114.557 62.0906 115.151 61.6521 115.589C61.2136 116.028 60.6203 116.276 60.0002 116.281Z" fill="#EBF3FD"/>
<path d="M76.4063 113.938C76.4038 113.629 76.4627 113.323 76.5796 113.038C76.6965 112.752 76.8691 112.493 77.0872 112.275C77.3054 112.057 77.5647 111.884 77.8502 111.767C78.1357 111.65 78.4416 111.591 78.7501 111.594C79.3717 111.594 79.9678 111.841 80.4074 112.28C80.8469 112.72 81.0938 113.316 81.0938 113.938C81.0889 114.558 80.8404 115.151 80.4019 115.589C79.9635 116.028 79.3702 116.276 78.7501 116.281C78.1285 116.281 77.5323 116.034 77.0928 115.595C76.6533 115.155 76.4063 114.559 76.4063 113.938Z" fill="#EBF3FD"/>
<path d="M97.5 116.281C97.1922 116.285 96.8869 116.225 96.6031 116.105C96.3193 115.986 96.0629 115.81 95.85 115.587C95.6303 115.372 95.4557 115.116 95.3365 114.832C95.2174 114.549 95.1561 114.245 95.1563 113.937C95.155 113.63 95.2159 113.325 95.3351 113.042C95.4543 112.758 95.6294 112.502 95.85 112.287C96.2913 111.857 96.8834 111.616 97.5 111.616C98.1166 111.616 98.7087 111.857 99.15 112.287C99.3724 112.5 99.5487 112.757 99.668 113.04C99.7874 113.324 99.8472 113.63 99.8438 113.937C99.8389 114.557 99.5904 115.151 99.1519 115.589C98.7134 116.028 98.1201 116.276 97.5 116.281Z" fill="#EBF3FD"/>
<path d="M95.625 9.40625C96.9194 9.40625 97.9688 8.35692 97.9688 7.0625C97.9688 5.76808 96.9194 4.71875 95.625 4.71875C94.3306 4.71875 93.2812 5.76808 93.2812 7.0625C93.2812 8.35692 94.3306 9.40625 95.625 9.40625Z" fill="#EBF3FD"/>
<path d="M33.7501 1.85C33.7501 1.49196 33.6079 1.14858 33.3547 0.895406C33.1015 0.642232 32.7581 0.5 32.4001 0.5C27.2896 0.504964 22.3898 2.53731 18.7761 6.151C15.1624 9.76469 13.1301 14.6645 13.1251 19.775C13.1027 19.9644 13.1206 20.1563 13.1777 20.3383C13.2349 20.5202 13.3299 20.688 13.4565 20.8305C13.5832 20.9731 13.7386 21.0872 13.9126 21.1653C14.0865 21.2434 14.275 21.2838 14.4657 21.2838C14.6564 21.2838 14.8449 21.2434 15.0189 21.1653C15.1928 21.0872 15.3482 20.9731 15.4749 20.8305C15.6016 20.688 15.6966 20.5202 15.7537 20.3383C15.8108 20.1563 15.8288 19.9644 15.8063 19.775C15.8113 15.3756 17.5612 11.1578 20.672 8.04693C23.7829 4.93607 28.0007 3.18621 32.4001 3.18125C32.5765 3.18373 32.7516 3.15114 32.9153 3.08535C33.079 3.01956 33.228 2.92189 33.3536 2.79803C33.4792 2.67416 33.5789 2.52656 33.647 2.36382C33.7151 2.20107 33.7501 2.02641 33.7501 1.85Z" fill="#5071E7"/>
<path d="M33.75 10.8124C33.75 10.4544 33.6078 10.111 33.3546 9.85781C33.1014 9.60463 32.758 9.4624 32.4 9.4624C29.6665 9.46736 27.0463 10.5554 25.1134 12.4883C23.1805 14.4212 22.0925 17.0414 22.0875 19.7749C22.0651 19.9643 22.083 20.1562 22.1401 20.3382C22.1973 20.5201 22.2923 20.6879 22.4189 20.8304C22.5456 20.973 22.701 21.0871 22.875 21.1652C23.0489 21.2433 23.2374 21.2837 23.4281 21.2837C23.6188 21.2837 23.8073 21.2433 23.9813 21.1652C24.1552 21.0871 24.3107 20.973 24.4373 20.8304C24.564 20.6879 24.659 20.5201 24.7161 20.3382C24.7732 20.1562 24.7912 19.9643 24.7688 19.7749C24.7737 17.7542 25.5799 15.818 27.0105 14.3909C28.4411 12.9638 30.3793 12.1624 32.4 12.1624C32.5773 12.1624 32.7528 12.1275 32.9166 12.0596C33.0804 11.9918 33.2292 11.8924 33.3546 11.767C33.48 11.6416 33.5794 11.4928 33.6472 11.329C33.7151 11.1652 33.75 10.9897 33.75 10.8124Z" fill="#5071E7"/>
<path d="M31.875 21.125C32.9105 21.125 33.75 20.2855 33.75 19.25C33.75 18.2145 32.9105 17.375 31.875 17.375C30.8395 17.375 30 18.2145 30 19.25C30 20.2855 30.8395 21.125 31.875 21.125Z" fill="#5071E7"/>
<path d="M14.475 99.875C14.117 99.875 13.7736 100.017 13.5204 100.27C13.2672 100.524 13.125 100.867 13.125 101.225C13.13 106.336 15.1623 111.235 18.776 114.849C22.3897 118.463 27.2895 120.495 32.4 120.5C32.5894 120.522 32.7813 120.504 32.9633 120.447C33.1452 120.39 33.313 120.295 33.4555 120.169C33.5981 120.042 33.7122 119.886 33.7903 119.713C33.8684 119.539 33.9088 119.35 33.9088 119.159C33.9088 118.969 33.8684 118.78 33.7903 118.606C33.7122 118.432 33.5981 118.277 33.4555 118.15C33.313 118.024 33.1452 117.929 32.9633 117.871C32.7813 117.814 32.5894 117.796 32.4 117.819C28.0006 117.814 23.7828 116.064 20.6719 112.953C17.5611 109.842 15.8112 105.624 15.8063 101.225C15.8087 101.049 15.7761 100.873 15.7103 100.71C15.6446 100.546 15.5469 100.397 15.423 100.272C15.2992 100.146 15.1516 100.046 14.9888 99.9781C14.8261 99.91 14.6514 99.875 14.475 99.875Z" fill="#5071E7"/>
<path d="M23.4374 99.875C23.0794 99.875 22.736 100.017 22.4828 100.27C22.2296 100.524 22.0874 100.867 22.0874 101.225C22.0924 103.959 23.1804 106.579 25.1133 108.512C27.0462 110.444 29.6664 111.533 32.3999 111.538C32.7579 111.538 33.1013 111.395 33.3545 111.142C33.6077 110.889 33.7499 110.546 33.7499 110.188C33.7499 109.829 33.6077 109.486 33.3545 109.233C33.1013 108.98 32.7579 108.838 32.3999 108.838C30.3792 108.838 28.441 108.036 27.0104 106.609C25.5798 105.182 24.7736 103.246 24.7687 101.225C24.7711 101.049 24.7385 100.873 24.6727 100.71C24.607 100.546 24.5093 100.397 24.3854 100.272C24.2616 100.146 24.114 100.046 23.9512 99.9781C23.7885 99.91 23.6138 99.875 23.4374 99.875Z" fill="#5071E7"/>
<path d="M31.875 103.625C32.9105 103.625 33.75 102.786 33.75 101.75C33.75 100.714 32.9105 99.875 31.875 99.875C30.8395 99.875 30 100.714 30 101.75C30 102.786 30.8395 103.625 31.875 103.625Z" fill="#5071E7"/>
<path d="M99.375 24.875H3.75C1.67893 24.875 0 26.5539 0 28.625V92.375C0 94.4461 1.67893 96.125 3.75 96.125H99.375C101.446 96.125 103.125 94.4461 103.125 92.375V28.625C103.125 26.5539 101.446 24.875 99.375 24.875Z" fill="#5071E7"/>
<path d="M31.875 38H13.125C12.0895 38 11.25 38.8395 11.25 39.875V51.125C11.25 52.1605 12.0895 53 13.125 53H31.875C32.9105 53 33.75 52.1605 33.75 51.125V39.875C33.75 38.8395 32.9105 38 31.875 38Z" fill="#D8E6FF"/>
<path d="M19.9688 38H17.5312V53H19.9688V38Z" fill="#8EAAF1"/>
<path d="M11.25 41.4688V43.9062H17.5313V41.4688H11.25Z" fill="#8EAAF1"/>
<path d="M27.4688 41.45V43.8875H33.75V41.45H27.4688Z" fill="#8EAAF1"/>
<path d="M27.4688 47.075V49.5125H33.75V47.075H27.4688Z" fill="#8EAAF1"/>
<path d="M11.25 47.0938V49.5312H17.5313V47.0938H11.25Z" fill="#8EAAF1"/>
<path d="M27.4688 38H25.0312V53H27.4688V38Z" fill="#8EAAF1"/>
<path d="M70.3125 79.25H42.1875C41.8145 79.25 41.4569 79.1018 41.1931 78.8381C40.9294 78.5744 40.7812 78.2167 40.7812 77.8438C40.7812 77.4708 40.9294 77.1131 41.1931 76.8494C41.4569 76.5857 41.8145 76.4375 42.1875 76.4375H70.3125C70.6855 76.4375 71.0431 76.5857 71.3069 76.8494C71.5706 77.1131 71.7188 77.4708 71.7188 77.8438C71.7188 78.2167 71.5706 78.5744 71.3069 78.8381C71.0431 79.1018 70.6855 79.25 70.3125 79.25Z" fill="#B1CDFC"/>
<path d="M34.6875 79.25H12.1875C11.8145 79.25 11.4569 79.1018 11.1931 78.8381C10.9294 78.5744 10.7813 78.2167 10.7812 77.8438C10.7812 77.4708 10.9294 77.1131 11.1931 76.8494C11.4569 76.5857 11.8145 76.4375 12.1875 76.4375H34.6875C35.0605 76.4375 35.4181 76.5857 35.6819 76.8494C35.9456 77.1131 36.0938 77.4708 36.0938 77.8438C36.0938 78.2167 35.9456 78.5744 35.6819 78.8381C35.4181 79.1018 35.0605 79.25 34.6875 79.25Z" fill="#B1CDFC"/>
<path d="M51.5625 87.6875H12.1875C11.8145 87.6875 11.4569 87.5393 11.1931 87.2756C10.9294 87.0119 10.7813 86.6542 10.7812 86.2812C10.7812 85.9083 10.9294 85.5506 11.1931 85.2869C11.4569 85.0232 11.8145 84.875 12.1875 84.875H51.5625C51.9355 84.875 52.2931 85.0232 52.5569 85.2869C52.8206 85.5506 52.9688 85.9083 52.9688 86.2812C52.9688 86.6542 52.8206 87.0119 52.5569 87.2756C52.2931 87.5393 51.9355 87.6875 51.5625 87.6875Z" fill="#B1CDFC"/>
<path d="M12.1875 68C11.816 67.9951 11.4612 67.8454 11.1985 67.5827C10.9358 67.3201 10.7861 66.9652 10.7812 66.5938V61.9062C10.7812 61.5333 10.9294 61.1756 11.1931 60.9119C11.4569 60.6482 11.8145 60.5 12.1875 60.5C12.5605 60.5 12.9181 60.6482 13.1819 60.9119C13.4456 61.1756 13.5938 61.5333 13.5938 61.9062V66.5938C13.5889 66.9652 13.4392 67.3201 13.1765 67.5827C12.9138 67.8454 12.559 67.9951 12.1875 68Z" fill="#EBF3FD"/>
<path d="M18.6001 68C18.2271 68 17.8695 67.8518 17.6057 67.5881C17.342 67.3244 17.1938 66.9667 17.1938 66.5938V61.9062C17.1938 61.5333 17.342 61.1756 17.6057 60.9119C17.8695 60.6482 18.2271 60.5 18.6001 60.5C18.9731 60.5 19.3307 60.6482 19.5945 60.9119C19.8582 61.1756 20.0063 61.5333 20.0063 61.9062V66.5938C20.0015 66.9652 19.8518 67.3201 19.5891 67.5827C19.3264 67.8454 18.9715 67.9951 18.6001 68Z" fill="#EBF3FD"/>
<path d="M25.0127 68C24.6397 68 24.282 67.8518 24.0183 67.5881C23.7546 67.3244 23.6064 66.9667 23.6064 66.5938V61.9062C23.6064 61.5333 23.7546 61.1756 24.0183 60.9119C24.282 60.6482 24.6397 60.5 25.0127 60.5C25.3857 60.5 25.7433 60.6482 26.0071 60.9119C26.2708 61.1756 26.4189 61.5333 26.4189 61.9062V66.5938C26.4141 66.9652 26.2644 67.3201 26.0017 67.5827C25.739 67.8454 25.3841 67.9951 25.0127 68Z" fill="#EBF3FD"/>
<path d="M34.1626 68C33.7911 67.9951 33.4363 67.8454 33.1736 67.5827C32.9109 67.3201 32.7612 66.9652 32.7563 66.5938V61.9062C32.7563 61.5333 32.9045 61.1756 33.1682 60.9119C33.432 60.6482 33.7896 60.5 34.1626 60.5C34.5356 60.5 34.8932 60.6482 35.157 60.9119C35.4207 61.1756 35.5688 61.5333 35.5688 61.9062V66.5938C35.564 66.9652 35.4143 67.3201 35.1516 67.5827C34.8889 67.8454 34.534 67.9951 34.1626 68Z" fill="#EBF3FD"/>
<path d="M40.5752 68C40.2037 67.9951 39.8489 67.8454 39.5862 67.5827C39.3235 67.3201 39.1738 66.9652 39.1689 66.5938V61.9062C39.1689 61.5333 39.3171 61.1756 39.5808 60.9119C39.8446 60.6482 40.2022 60.5 40.5752 60.5C40.9482 60.5 41.3058 60.6482 41.5696 60.9119C41.8333 61.1756 41.9814 61.5333 41.9814 61.9062V66.5938C41.9766 66.9652 41.8269 67.3201 41.5642 67.5827C41.3015 67.8454 40.9466 67.9951 40.5752 68Z" fill="#EBF3FD"/>
<path d="M46.9873 68C46.6143 68 46.2567 67.8518 45.9929 67.5881C45.7292 67.3244 45.5811 66.9667 45.5811 66.5938V61.9062C45.5811 61.5333 45.7292 61.1756 45.9929 60.9119C46.2567 60.6482 46.6143 60.5 46.9873 60.5C47.3603 60.5 47.718 60.6482 47.9817 60.9119C48.2454 61.1756 48.3936 61.5333 48.3936 61.9062V66.5938C48.3887 66.9652 48.239 67.3201 47.9763 67.5827C47.7136 67.8454 47.3588 67.9951 46.9873 68Z" fill="#EBF3FD"/>
<path d="M56.1377 68C55.7662 67.9951 55.4114 67.8454 55.1487 67.5827C54.886 67.3201 54.7363 66.9652 54.7314 66.5938V61.9062C54.7314 61.5333 54.8796 61.1756 55.1433 60.9119C55.407 60.6482 55.7647 60.5 56.1377 60.5C56.5107 60.5 56.8683 60.6482 57.1321 60.9119C57.3958 61.1756 57.5439 61.5333 57.5439 61.9062V66.5938C57.5439 66.9667 57.3958 67.3244 57.1321 67.5881C56.8683 67.8518 56.5107 68 56.1377 68Z" fill="#EBF3FD"/>
<path d="M62.5498 68C62.1784 67.9951 61.8235 67.8454 61.5608 67.5827C61.2981 67.3201 61.1484 66.9652 61.1436 66.5938V61.9062C61.1436 61.5333 61.2917 61.1756 61.5554 60.9119C61.8192 60.6482 62.1768 60.5 62.5498 60.5C62.9228 60.5 63.2805 60.6482 63.5442 60.9119C63.8079 61.1756 63.9561 61.5333 63.9561 61.9062V66.5938C63.9512 66.9652 63.8015 67.3201 63.5388 67.5827C63.2761 67.8454 62.9213 67.9951 62.5498 68Z" fill="#EBF3FD"/>
<path d="M68.9624 68C68.591 67.9951 68.2361 67.8454 67.9734 67.5827C67.7107 67.3201 67.561 66.9652 67.5562 66.5938V61.9062C67.5562 61.5333 67.7043 61.1756 67.968 60.9119C68.2318 60.6482 68.5894 60.5 68.9624 60.5C69.3354 60.5 69.693 60.6482 69.9568 60.9119C70.2205 61.1756 70.3687 61.5333 70.3687 61.9062V66.5938C70.3638 66.9652 70.2141 67.3201 69.9514 67.5827C69.6887 67.8454 69.3339 67.9951 68.9624 68Z" fill="#EBF3FD"/>
<path d="M78.1123 68C77.7409 67.9951 77.386 67.8454 77.1233 67.5827C76.8606 67.3201 76.7109 66.9652 76.7061 66.5938V61.9062C76.7061 61.5333 76.8542 61.1756 77.1179 60.9119C77.3817 60.6482 77.7393 60.5 78.1123 60.5C78.4853 60.5 78.843 60.6482 79.1067 60.9119C79.3704 61.1756 79.5186 61.5333 79.5186 61.9062V66.5938C79.5186 66.9667 79.3704 67.3244 79.1067 67.5881C78.843 67.8518 78.4853 68 78.1123 68Z" fill="#EBF3FD"/>
<path d="M84.5249 68C84.1535 67.9951 83.7986 67.8454 83.5359 67.5827C83.2732 67.3201 83.1235 66.9652 83.1187 66.5938V61.9062C83.1187 61.5333 83.2668 61.1756 83.5305 60.9119C83.7943 60.6482 84.1519 60.5 84.5249 60.5C84.8979 60.5 85.2555 60.6482 85.5193 60.9119C85.783 61.1756 85.9312 61.5333 85.9312 61.9062V66.5938C85.9312 66.9667 85.783 67.3244 85.5193 67.5881C85.2555 67.8518 84.8979 68 84.5249 68Z" fill="#EBF3FD"/>
<path d="M90.9375 68C90.566 67.9951 90.2112 67.8454 89.9485 67.5827C89.6858 67.3201 89.5361 66.9652 89.5312 66.5938V61.9062C89.5313 61.5333 89.6794 61.1756 89.9431 60.9119C90.2069 60.6482 90.5645 60.5 90.9375 60.5C91.3105 60.5 91.6681 60.6482 91.9319 60.9119C92.1956 61.1756 92.3438 61.5333 92.3438 61.9062V66.5938C92.3389 66.9652 92.1892 67.3201 91.9265 67.5827C91.6638 67.8454 91.309 67.9951 90.9375 68Z" fill="#EBF3FD"/>
</g>
<defs>
<clipPath id="clip0_1101_4900">
<rect width="120" height="120" fill="white" transform="translate(0 0.5)"/>
</clipPath>
</defs>
</svg>
