<svg width="120" height="121" viewBox="0 0 120 121" fill="none" xmlns="http://www.w3.org/2000/svg">
<path d="M0 15.5H97.5V118.625C97.5 119.656 96.6562 120.5 95.625 120.5H1.875C0.84375 120.5 0 119.656 0 118.625V15.5Z" fill="#D8E6FF"/>
<path d="M95.625 0.5H1.875C0.84375 0.5 0 1.34375 0 2.375V15.5H97.5V2.375C97.5 1.34375 96.6562 0.5 95.625 0.5Z" fill="#5071E7"/>
<path d="M67.5 9.875C67.0125 9.875 66.525 9.6875 66.1875 9.33125C65.8312 8.975 65.625 8.50625 65.625 8C65.625 7.49375 65.8312 7.00625 66.1875 6.66875C66.8812 5.975 68.1375 5.975 68.8312 6.66875C69.1875 7.00625 69.375 7.49375 69.375 8C69.375 8.4875 69.1875 8.975 68.8312 9.3125C68.4937 9.66875 68.0062 9.875 67.5 9.875Z" fill="#EBF3FD"/>
<path d="M75.9375 8C75.9375 6.95 76.7812 6.125 77.8125 6.125C78.8625 6.125 79.6875 6.95 79.6875 8C79.6875 9.03125 78.8625 9.875 77.8125 9.875C76.7812 9.875 75.9375 9.03125 75.9375 8Z" fill="#EBF3FD"/>
<path d="M88.125 9.875C87.6375 9.875 87.15 9.6875 86.8125 9.33125C86.4562 8.99375 86.25 8.50625 86.25 8C86.25 7.49375 86.4562 7.00625 86.8125 6.66875C87.5062 5.975 88.7625 5.975 89.4562 6.66875C89.8125 7.00625 90 7.49375 90 8C90 8.4875 89.8125 8.975 89.4562 9.3125C89.1 9.66875 88.6312 9.875 88.125 9.875Z" fill="#EBF3FD"/>
<path d="M96.2599 83.0182L93.1973 86.0808L101.391 94.2743L104.453 91.2117L96.2599 83.0182Z" fill="#83A1EC"/>
<path d="M93.1979 86.0571L86.9277 92.3291L95.1224 100.521L101.393 94.2495L93.1979 86.0571Z" fill="#8EAAF1"/>
<path d="M117.807 100.55L106.238 89C105.863 88.625 105.282 88.625 104.907 89L100.52 93.3875L118.051 110.919C120.732 107.975 120.657 103.4 117.807 100.55Z" fill="#3254CD"/>
<path d="M100.519 93.3875L92.9063 101C92.5312 101.375 92.5312 101.975 92.9063 102.331L104.475 113.881C107.419 116.825 112.2 116.825 115.144 113.881L117.806 111.219C117.9 111.125 117.956 111.012 118.05 110.919L100.519 93.3875Z" fill="#5071E7"/>
<path d="M70.0508 99.875C88.6904 99.875 103.801 84.7646 103.801 66.125C103.801 47.4854 88.6904 32.375 70.0508 32.375C51.4112 32.375 36.3008 47.4854 36.3008 66.125C36.3008 84.7646 51.4112 99.875 70.0508 99.875Z" fill="#5071E7"/>
<path d="M45.6758 66.125C45.6758 73.6812 49.107 80.4125 54.4883 84.8937L70.0508 66.125V41.75C56.5883 41.75 45.6758 52.6625 45.6758 66.125Z" fill="#C9D8FF"/>
<path d="M70.0508 41.75V66.125L81.057 44.375C77.7383 42.7062 74.007 41.75 70.0508 41.75Z" fill="#AFC4F9"/>
<path d="M81.0383 44.3938L70.0508 66.125L93.432 59.2063C91.5195 52.7375 86.9633 47.3938 81.0383 44.3938Z" fill="#8EAAF1"/>
<path d="M54.4883 84.8937C58.707 88.4 64.1258 90.5 70.0508 90.5C77.157 90.5 83.532 87.4625 87.9945 82.625L70.0508 66.125L54.4883 84.8937Z" fill="#AFC4F9"/>
<path d="M93.432 59.2251L70.0508 66.1251L87.9945 82.6251C91.9883 78.2751 94.4258 72.5001 94.4258 66.1251C94.4258 63.7251 94.0695 61.4001 93.432 59.2251Z" fill="#83A3F4"/>
<path d="M70.0508 75.5C75.2285 75.5 79.4258 71.3027 79.4258 66.125C79.4258 60.9473 75.2285 56.75 70.0508 56.75C64.8731 56.75 60.6758 60.9473 60.6758 66.125C60.6758 71.3027 64.8731 75.5 70.0508 75.5Z" fill="#5071E7"/>
<path d="M46.6875 37.25H28.125C27.5063 37.25 27 36.7437 27 36.125C27 35.5063 27.5063 35 28.125 35H46.6875C47.3062 35 47.8125 35.5063 47.8125 36.125C47.8125 36.7437 47.3062 37.25 46.6875 37.25Z" fill="#5071E7"/>
<path d="M65.625 29.75H46.875C46.2563 29.75 45.75 29.2437 45.75 28.625C45.75 28.0063 46.2563 27.5 46.875 27.5H65.625C66.2438 27.5 66.75 28.0063 66.75 28.625C66.75 29.2437 66.2438 29.75 65.625 29.75Z" fill="#5071E7"/>
<path d="M41.25 29.75H28.125C27.5063 29.75 27 29.2437 27 28.625C27 28.0063 27.5063 27.5 28.125 27.5H41.25C41.8687 27.5 42.375 28.0063 42.375 28.625C42.375 29.2437 41.8687 29.75 41.25 29.75Z" fill="#5071E7"/>
<path d="M33.5625 58.8875H28.125C27.5063 58.8875 27 58.3812 27 57.7625C27 57.1437 27.5063 56.6375 28.125 56.6375H33.5625C34.1812 56.6375 34.6875 57.1437 34.6875 57.7625C34.6875 58.3812 34.1812 58.8875 33.5625 58.8875Z" fill="#5071E7"/>
<path d="M35.4375 51.3874H28.125C27.5063 51.3874 27 50.8812 27 50.2625C27 49.6437 27.5063 49.1375 28.125 49.1375H35.4375C36.0562 49.1375 36.5625 49.6437 36.5625 50.2625C36.5625 50.8812 36.0562 51.3874 35.4375 51.3874Z" fill="#5071E7"/>
<path d="M35.4375 82.25H28.125C27.5063 82.25 27 81.7438 27 81.125C27 80.5062 27.5063 80 28.125 80H35.4375C36.0562 80 36.5625 80.5062 36.5625 81.125C36.5625 81.7438 36.0562 82.25 35.4375 82.25Z" fill="#5071E7"/>
<path d="M33.5625 74.75H28.125C27.5063 74.75 27 74.2438 27 73.625C27 73.0062 27.5063 72.5 28.125 72.5H33.5625C34.1812 72.5 34.6875 73.0062 34.6875 73.625C34.6875 74.2438 34.1812 74.75 33.5625 74.75Z" fill="#5071E7"/>
<path d="M54.375 103.887H41.0625C40.4438 103.887 39.9375 103.381 39.9375 102.762C39.9375 102.144 40.4438 101.637 41.0625 101.637H54.375C54.9937 101.637 55.5 102.144 55.5 102.762C55.5 103.381 54.9937 103.887 54.375 103.887Z" fill="#3353B6"/>
<path d="M35.4375 103.887H28.125C27.5063 103.887 27 103.381 27 102.762C27 102.144 27.5063 101.637 28.125 101.637H35.4375C36.0562 101.637 36.5625 102.144 36.5625 102.762C36.5625 103.381 36.0562 103.887 35.4375 103.887Z" fill="#3353B6"/>
<path d="M45 96.3875H28.125C27.5063 96.3875 27 95.8812 27 95.2625C27 94.6437 27.5063 94.1375 28.125 94.1375H45C45.6187 94.1375 46.125 94.6437 46.125 95.2625C46.125 95.8812 45.6187 96.3875 45 96.3875Z" fill="#3353B6"/>
<path d="M15.9375 38.9375H10.3125C8.25 38.9375 6.5625 37.2688 6.5625 35.1875V29.5625C6.5625 27.5 8.25 25.8125 10.3125 25.8125H15.9375C18 25.8125 19.6875 27.5 19.6875 29.5625V35.1875C19.6875 37.2688 18.0188 38.9375 15.9375 38.9375Z" fill="#EBF3FD"/>
<path d="M13.4996 37.2499C13.2184 37.2499 12.9184 37.1374 12.7121 36.9124L8.58711 32.7874C8.15586 32.3561 8.15586 31.6437 8.58711 31.1937C9.01836 30.7624 9.73086 30.7624 10.1809 31.1937L13.4996 34.5124L20.0621 27.9499C20.4934 27.5187 21.2059 27.5187 21.6559 27.9499C22.0871 28.3812 22.0871 29.1124 21.6559 29.5437L14.3059 36.8937C14.0621 37.1374 13.7809 37.2499 13.4996 37.2499Z" fill="#5071E7"/>
<path d="M15.9375 61.4375H10.3125C8.25 61.4375 6.5625 59.75 6.5625 57.6875V52.0625C6.5625 49.9812 8.25 48.3125 10.3125 48.3125H15.9375C18 48.3125 19.6875 49.9812 19.6875 52.0625V57.6875C19.6875 59.7688 18.0188 61.4375 15.9375 61.4375Z" fill="#EBF3FD"/>
<path d="M15.9375 83.9375H10.3125C8.25 83.9375 6.5625 82.25 6.5625 80.1875V74.5625C6.5625 72.5 8.25 70.8125 10.3125 70.8125H15.9375C18 70.8125 19.6875 72.5 19.6875 74.5625V80.1875C19.6875 82.2688 18.0188 83.9375 15.9375 83.9375Z" fill="#EBF3FD"/>
<path d="M13.4996 82.2499C13.2184 82.2499 12.9184 82.1374 12.7121 81.9124L8.58711 77.7874C8.15586 77.3562 8.15586 76.6249 8.58711 76.1937C9.01836 75.7624 9.73086 75.7624 10.1809 76.1937L13.4996 79.5124L20.0621 72.9499C20.4934 72.5187 21.2059 72.5187 21.6559 72.9499C22.0871 73.3812 22.0871 74.0937 21.6559 74.5437L14.3059 81.8937C14.0621 82.1374 13.7809 82.2499 13.4996 82.2499Z" fill="#5071E7"/>
<path d="M15.9375 106.438H10.3125C8.25 106.438 6.5625 104.769 6.5625 102.688V97.0625C6.5625 95 8.25 93.3125 10.3125 93.3125H15.9375C18 93.3125 19.6875 95 19.6875 97.0625V102.688C19.6875 104.769 18.0188 106.438 15.9375 106.438Z" fill="#EBF3FD"/>
<path d="M13.4996 104.75C13.2184 104.75 12.9184 104.637 12.7121 104.412L8.58711 100.287C8.15586 99.8562 8.15586 99.1437 8.58711 98.6937C9.01836 98.2624 9.73086 98.2624 10.1809 98.6937L13.4996 102.012L20.0621 95.4499C20.4934 95.0187 21.2059 95.0187 21.6559 95.4499C22.0871 95.8812 22.0871 96.5937 21.6559 97.0437L14.3059 104.394C14.0621 104.637 13.7809 104.75 13.4996 104.75Z" fill="#3353B6"/>
</svg>
