<svg width="59" height="41" viewBox="0 0 59 41" fill="none" xmlns="http://www.w3.org/2000/svg">
<path fill-rule="evenodd" clip-rule="evenodd" d="M7.04293 0L7.06267 0.0147962C7.44438 0.303851 13.2336 4.81947 13.2336 12.8047C13.2336 16.9722 12.051 20.5395 9.68568 23.5066C5.00082 22.5418 1.26805 18.8797 0.0939279 14.1676C0.0312386 13.7055 0 13.2512 0 12.8047C0 4.20845 7.04293 0 7.04293 0Z" fill="#FF793A"/>
<path fill-rule="evenodd" clip-rule="evenodd" d="M59.0003 18.871L58.9995 18.8792C58.7722 21.1064 58.012 23.1853 56.8418 24.9993C48.6586 39.3363 34.2143 42.1433 24.8125 40.6376C28.2594 39.9594 31.8529 37.3919 35.5934 32.9351C43.4795 23.539 50.3459 15.3587 59.0003 18.871Z" fill="#FF793A"/>
<path fill-rule="evenodd" clip-rule="evenodd" d="M43.8688 1.64001C52.2255 1.64001 59 8.34109 59 16.6073C59 17.009 58.984 17.407 58.9526 17.8008C50.3324 14.2797 43.4702 22.1385 35.6158 31.5534C30.3651 37.8474 25.5814 40.5846 21.2646 39.7651L21.3622 39.7827C14.3543 37.5512 9.88895 34.603 5.89887 29.2265C2.7439 24.9753 0.777126 20.2899 -0.00146484 15.1703C1.25239 20.7931 6.32058 24.9993 12.382 24.9993C17.1246 24.9993 21.2593 22.4242 23.4348 18.6104C24.1301 17.7004 24.7753 16.7478 25.411 15.7739L25.7241 15.2916C25.8284 15.1302 25.9326 14.9685 26.0369 14.8063L26.3503 14.3187L26.6326 13.8799C28.5851 10.8526 30.6917 7.7517 34.1026 5.17439C35.1962 4.25971 36.4224 3.49572 37.7489 2.91478C37.9202 2.82779 38.0947 2.74235 38.2719 2.65807C38.4526 2.5721 38.6434 2.51484 38.8433 2.4845C40.4157 1.93783 42.1071 1.64001 43.8688 1.64001Z" fill="#FFBC9D"/>
</svg>
