<svg width="158" height="33" viewBox="0 0 158 33" fill="none" xmlns="http://www.w3.org/2000/svg">
<path d="M40.0646 9.00308C42.0767 6.81831 44.4911 5.72593 47.308 5.72593C50.1249 5.72593 52.498 6.70791 54.4272 8.67188C56.3564 10.6358 57.321 13.0007 57.321 15.7666C57.321 18.5324 56.3386 20.9031 54.3739 22.8787C52.4092 24.8542 50.0361 25.842 47.2548 25.842C44.4734 25.842 42.0767 24.6567 40.0646 22.286V25.842H37.1885V3.41335C37.2366 2.53573 37.5487 1.82839 38.1248 1.29133C38.7009 0.754277 39.3475 0.437846 40.0646 0.342041V9.00308ZM47.2374 23.292C49.2055 23.292 50.8784 22.5501 52.256 21.0661C53.6337 19.5821 54.3225 17.8449 54.3225 15.8545C54.3225 13.8641 53.6511 12.127 52.3081 10.643C50.9652 9.15902 49.2865 8.41704 47.2721 8.41704C45.2577 8.41704 43.5733 9.11191 42.2188 10.5017C40.8643 11.8914 40.187 13.6404 40.187 15.7485C40.187 17.8567 40.87 19.641 42.2361 21.1014C43.6022 22.5618 45.2693 23.292 47.2374 23.292Z" fill="white"/>
<path d="M34.9516 8.43188L33.0405 10.3508C31.6222 9.07153 30.3241 8.43188 29.1462 8.43188C28.401 8.43188 27.776 8.65866 27.2712 9.11223C26.7664 9.5658 26.5139 10.124 26.5139 10.787C26.5139 11.4499 26.7964 12.0314 27.3613 12.5315C27.9262 13.0316 28.9298 13.6479 30.3722 14.3806C31.8145 15.1133 32.9263 15.9216 33.7076 16.8055C34.4888 17.6894 34.8795 18.771 34.8795 20.0503C34.8795 21.6785 34.2965 23.0508 33.1306 24.1673C31.9647 25.2838 30.5284 25.842 28.8217 25.842C26.4418 25.842 24.4586 24.8651 22.8721 22.9113L24.7471 20.8876C26.0452 22.353 27.3673 23.0857 28.7135 23.0857C29.627 23.0857 30.4082 22.795 31.0573 22.2135C31.7063 21.632 32.0309 20.9516 32.0309 20.1724C32.0309 19.3932 31.7364 18.7419 31.1474 18.2185C30.5585 17.6952 29.5488 17.0846 28.1185 16.3868C26.6882 15.689 25.6065 14.9156 24.8733 14.0666C24.1401 13.2176 23.7735 12.1011 23.7735 10.7172C23.7735 9.3332 24.2964 8.15276 25.3421 7.17583C26.3877 6.19891 27.77 5.71045 29.4887 5.71045C31.2075 5.71045 33.0285 6.61759 34.9516 8.43188Z" fill="#DEE9FB"/>
<path d="M20.1877 25.842H17.3116V22.4228C15.2049 24.7023 12.7785 25.842 10.0327 25.842C7.28678 25.842 4.9374 24.8477 2.98451 22.8589C1.03162 20.8702 0.0551758 18.4977 0.0551758 15.7413C0.0551758 12.985 1.03754 10.6241 3.00226 8.65866C4.96699 6.69319 7.36371 5.71045 10.1924 5.71045C13.0212 5.71045 15.3942 6.83856 17.3116 9.09479C17.4664 8.15029 17.7825 7.42405 18.2599 6.91608C18.8833 6.25275 19.5259 5.85087 20.1877 5.71045V25.842ZM9.92975 23.272C11.9256 23.272 13.6448 22.5785 15.0876 21.1916C16.5303 19.8046 17.2517 18.0766 17.2517 16.0077C17.2517 13.9388 16.5423 12.2051 15.1236 10.8066C13.7049 9.40804 11.9676 8.70877 9.91172 8.70877C7.8558 8.70877 6.11849 9.43115 4.69979 10.8759C3.28109 12.3207 2.57174 14.0255 2.57174 15.9904C2.57174 17.9553 3.29311 19.6601 4.73586 21.1049C6.17861 22.5497 7.9099 23.272 9.92975 23.272Z" fill="#DEE9FB"/>
<path d="M150.378 25.842H147.502V22.4228C145.395 24.7023 142.969 25.842 140.223 25.842C137.477 25.842 135.128 24.8477 133.175 22.8589C131.222 20.8702 130.246 18.4977 130.246 15.7413C130.246 12.985 131.228 10.6241 133.193 8.65866C135.157 6.69319 137.554 5.71045 140.383 5.71045C143.212 5.71045 145.585 6.83856 147.502 9.09479C147.657 8.15029 147.973 7.42405 148.45 6.91608C149.074 6.25275 149.716 5.85087 150.378 5.71045V25.842ZM140.12 23.272C142.116 23.272 143.835 22.5785 145.278 21.1916C146.721 19.8046 147.442 18.0766 147.442 16.0077C147.442 13.9388 146.733 12.2051 145.314 10.8066C143.895 9.40804 142.158 8.70877 140.102 8.70877C138.046 8.70877 136.309 9.43115 134.89 10.8759C133.472 12.3207 132.762 14.0255 132.762 15.9904C132.762 17.9553 133.484 19.6601 134.926 21.1049C136.369 22.5497 138.1 23.272 140.12 23.272Z" fill="white"/>
<path d="M79.2429 16.2124H62.1195C62.2389 18.3058 62.9613 19.9863 64.2868 21.254C65.6122 22.5217 67.1944 23.1555 69.0333 23.1555C71.7526 23.1555 73.2003 22.891 74.8492 20.6591C75.1609 20.2372 75.5858 19.8202 76.6434 19.5673C77.3484 19.3987 78.0751 19.4426 78.8234 19.6989C77.701 21.7226 76.2576 23.4288 74.7292 24.3941C73.2007 25.3594 71.3738 25.842 69.2483 25.842C66.3108 25.842 63.8868 24.8593 61.9762 22.8938C60.0656 20.9283 59.1104 18.5616 59.1104 15.7937C59.1104 13.0257 60.0716 10.6532 61.9941 8.67611C63.9166 6.699 66.2988 5.71045 69.1408 5.71045C71.9827 5.71045 74.359 6.64667 76.2696 8.5191C78.1801 10.3915 79.1712 12.956 79.2429 16.2124ZM75.8161 13.8487C75.4629 12.228 74.6624 10.9662 73.4146 10.0632C72.1667 9.16025 70.7305 8.70877 69.106 8.70877C65.8098 8.70877 63.6202 10.4221 62.5372 13.8487H75.8161Z" fill="white"/>
<path d="M85.5068 25.842H81.9277V3.3285C82.1019 2.35052 82.5279 1.62775 83.206 1.16019C83.884 0.692634 84.651 0.419917 85.5068 0.342041V25.842Z" fill="white"/>
<path d="M105.639 25.7511H102.609V22.6728C100.638 24.9777 98.3021 25.842 95.601 25.842C94.1652 25.842 92.8633 25.4759 91.6953 24.7436C90.5272 24.0113 89.6511 23.003 89.0671 21.7185C88.4831 20.434 88.1909 18.4592 88.1909 15.7942V8.59161C88.2297 7.75516 88.5218 7.06585 89.0671 6.52369C89.6124 5.98153 90.3181 5.71045 91.1842 5.71045V15.074C91.1842 17.2348 91.2876 18.7053 91.4945 19.4856C91.7013 20.2659 92.0055 20.9262 92.407 21.4664C92.8086 22.0066 93.3196 22.4087 93.9401 22.6728C94.5607 22.9369 95.3151 23.069 96.2033 23.069C97.0915 23.069 97.9615 22.8529 98.8132 22.4207C99.6649 21.9886 100.395 21.3883 101.003 20.6201C101.612 19.8518 102.031 19.0355 102.263 18.1711C102.494 17.3068 102.609 15.5782 102.609 12.9852V8.59161C102.817 7.65578 103.192 6.96648 103.733 6.52369C104.275 6.0809 104.91 5.80982 105.639 5.71045V25.7511Z" fill="white"/>
<path d="M128.456 21.2855C128.456 23.8127 128.227 25.6847 127.77 26.9014C127.313 28.1182 126.62 29.1478 125.693 29.9902C124.766 30.8326 123.654 31.4702 122.356 31.9031C121.058 32.336 119.63 32.5524 118.072 32.5524C112.806 32.5524 109.296 30.4465 107.54 26.2346C109.121 26.1186 110.348 26.462 111.22 27.2645C112.529 28.4683 114.624 29.8849 117.961 29.8849C119.494 29.8849 120.866 29.6041 122.077 29.0425C123.289 28.4809 124.142 27.7321 124.636 26.7962C125.131 25.8602 125.378 24.4211 125.378 22.4789V22.3034C124.414 23.333 123.252 24.1169 121.892 24.6551C120.532 25.1933 119.123 25.4624 117.664 25.4624C114.747 25.4624 112.306 24.5147 110.34 22.6193C108.375 20.724 107.404 18.4893 107.429 15.9153C107.404 13.2244 108.43 10.9254 110.507 9.01831C112.584 7.11125 115.05 6.15771 117.905 6.15771C120.761 6.15771 123.252 7.2575 125.378 9.45706C125.462 8.71791 125.757 8.0606 126.262 7.48513C126.767 6.90966 127.499 6.46719 128.456 6.15771V21.2855ZM125.452 16.0188C125.452 14.0263 124.741 12.3814 123.32 11.0839C121.898 9.78648 120.161 9.13777 118.109 9.13777C115.934 9.13777 114.11 9.83861 112.639 11.2403C111.168 12.642 110.433 14.2696 110.433 16.1231C110.433 17.9766 111.137 19.5462 112.546 20.8321C113.956 22.1179 115.76 22.7609 117.961 22.7609C120.161 22.7609 121.96 22.1295 123.357 20.8668C124.754 19.6041 125.452 17.9881 125.452 16.0188Z" fill="white"/>
<path d="M154.628 25.3947C155.987 25.3947 157.089 24.2931 157.089 22.9342C157.089 21.5752 155.987 20.4736 154.628 20.4736C153.269 20.4736 152.167 21.5752 152.167 22.9342C152.167 24.2931 153.269 25.3947 154.628 25.3947Z" fill="#DEE9FB"/>
</svg>
