<svg width="49" height="34" viewBox="0 0 49 34" fill="none" xmlns="http://www.w3.org/2000/svg">
<path fill-rule="evenodd" clip-rule="evenodd" d="M6.16117 0C6.16117 0 6.16365 0.00179492 6.1685 0.00537741L6.19006 0.0214803C6.59773 0.328943 11.1841 3.92805 11.1841 10.235C11.1841 13.566 10.2246 16.4173 8.30572 18.789C4.50527 18.0184 1.47719 15.0925 0.523551 11.3275C0.472262 10.9571 0.446777 10.5929 0.446777 10.235C0.446777 3.3639 6.16117 0 6.16117 0Z" fill="#DEE9FB"/>
<path fill-rule="evenodd" clip-rule="evenodd" d="M48.3176 15.443L48.3132 15.4909C48.1267 17.2988 47.5216 18.9863 46.5938 20.4602C40.0613 32.1913 28.5317 34.4882 21.0269 33.2561C23.7784 32.701 26.647 30.5998 29.6329 26.9526C35.928 19.2635 41.4092 12.5691 48.3176 15.443Z" fill="#DEE9FB"/>
<path fill-rule="evenodd" clip-rule="evenodd" d="M35.9259 1.34204C42.7697 1.34204 48.3176 6.82591 48.3176 13.5906C48.3176 13.9195 48.3045 14.2453 48.2788 14.5676C41.2196 11.6855 35.5996 18.1169 29.1671 25.8219C24.867 30.9726 20.9493 33.2126 17.4141 32.5419L17.4941 32.5564C11.7549 30.7302 8.09796 28.3175 4.83025 23.9176C2.24767 20.4403 0.637257 16.6079 -0.000976562 12.4205C1.02849 17.019 5.17771 20.4583 10.1396 20.4583C14.0227 20.4583 17.4081 18.3519 19.1901 15.2321C19.7413 14.5108 20.2541 13.7573 20.7586 12.9868L21.0127 12.5967L21.2662 12.204L21.52 11.8095C23.204 9.19057 24.9656 6.47043 27.93 4.23282C28.8251 3.48479 29.8288 2.86008 30.9145 2.38501C31.0546 2.3139 31.1973 2.24407 31.3423 2.17517C31.4901 2.1049 31.6461 2.05807 31.8097 2.03322C33.0977 1.5858 34.483 1.34204 35.9259 1.34204Z" fill="white"/>
</svg>
