<svg width="48" height="48" viewBox="0 0 48 48" fill="none" xmlns="http://www.w3.org/2000/svg">
<path opacity="0.4" d="M29.5801 8H18.4201C9.58008 8 9.58008 12.7 9.58008 16.84V24.42C9.58008 24.86 9.78008 25.26 10.1201 25.52C10.4601 25.78 10.9201 25.88 11.3401 25.76C12.2401 25.52 13.3601 25.4 14.7001 25.4C16.0401 25.4 16.3201 25.56 17.1201 26.16L18.9401 28.08C20.2401 29.48 22.1001 30.28 24.0201 30.28C25.9401 30.28 27.7801 29.48 29.1001 28.08L30.9201 26.16C31.7201 25.56 32.0001 25.4 33.3401 25.4C34.6801 25.4 35.8001 25.52 36.7001 25.76C37.1201 25.88 37.5601 25.78 37.9201 25.52C38.2601 25.26 38.4601 24.84 38.4601 24.42V16.84C38.4201 12.7 38.4201 8 29.5801 8Z" fill="white"/>
<path d="M28.5505 13.6C28.0305 13.08 27.1705 13.08 26.6505 13.6L25.3505 14.9V5.34C25.3505 4.6 24.7305 4 23.9905 4C23.2505 4 22.6305 4.6 22.6305 5.34V14.88L21.3505 13.6C20.8305 13.08 19.9705 13.08 19.4505 13.6C18.9305 14.12 18.9305 14.98 19.4505 15.5L23.0505 19.1C23.0705 19.12 23.0705 19.12 23.0905 19.12C23.2105 19.22 23.3305 19.32 23.4905 19.38C23.6505 19.44 23.8305 19.48 24.0105 19.48C24.1905 19.48 24.3505 19.44 24.5305 19.38C24.6905 19.32 24.8505 19.22 24.9705 19.08L28.5705 15.48C29.0705 14.98 29.0705 14.12 28.5505 13.6Z" fill="#FF793A"/>
<path d="M37.3794 23.0601C36.2394 22.7601 34.8994 22.6001 33.2994 22.6001C31.0794 22.6001 30.2594 23.1401 29.1194 24.0001C29.0594 24.0401 28.9994 24.1001 28.9394 24.1601L27.0394 26.1801C25.4394 27.8601 22.5594 27.8801 20.9594 26.1601L19.0594 24.1601C18.9994 24.1001 18.9394 24.0401 18.8794 24.0001C17.7394 23.1401 16.9194 22.6001 14.6994 22.6001C13.0994 22.6001 11.7594 22.7601 10.6194 23.0601C5.85937 24.3401 5.85938 28.1201 5.85938 31.4401V33.3001C5.85938 38.3201 5.85937 44.0001 16.5594 44.0001H31.4394C38.5394 44.0001 42.1394 40.4001 42.1394 33.3001V31.4401C42.1394 28.1201 42.1394 24.3401 37.3794 23.0601ZM28.6594 36.8001H19.3394C18.5794 36.8001 17.9594 36.1801 17.9594 35.4001C17.9594 34.6201 18.5794 34.0001 19.3394 34.0001H28.6594C29.4194 34.0001 30.0394 34.6201 30.0394 35.4001C30.0394 36.1801 29.4194 36.8001 28.6594 36.8001Z" fill="white"/>
<path d="M30.0409 35.4C30.0409 36.18 29.4209 36.8 28.6609 36.8H19.3409C18.5809 36.8 17.9609 36.18 17.9609 35.4C17.9609 34.62 18.5809 34 19.3409 34H28.6609C29.4209 34 30.0409 34.62 30.0409 35.4Z" fill="#FF793A"/>
</svg>
