<svg width="49" height="48" viewBox="0 0 49 48" fill="none" xmlns="http://www.w3.org/2000/svg">
<path opacity="0.4" d="M30.0801 8H18.9201C10.0801 8 10.0801 12.7 10.0801 16.84V24.42C10.0801 24.86 10.2801 25.26 10.6201 25.52C10.9601 25.78 11.4201 25.88 11.8401 25.76C12.7401 25.52 13.8601 25.4 15.2001 25.4C16.5401 25.4 16.8201 25.56 17.6201 26.16L19.4401 28.08C20.7401 29.48 22.6001 30.28 24.5201 30.28C26.4401 30.28 28.2801 29.48 29.6001 28.08L31.4201 26.16C32.2201 25.56 32.5001 25.4 33.8401 25.4C35.1801 25.4 36.3001 25.52 37.2001 25.76C37.6201 25.88 38.0601 25.78 38.4201 25.52C38.7601 25.26 38.9601 24.84 38.9601 24.42V16.84C38.9201 12.7 38.9201 8 30.0801 8Z" fill="#719FEC"/>
<path d="M29.0505 13.6C28.5305 13.08 27.6705 13.08 27.1505 13.6L25.8505 14.9V5.34C25.8505 4.6 25.2305 4 24.4905 4C23.7505 4 23.1305 4.6 23.1305 5.34V14.88L21.8505 13.6C21.3305 13.08 20.4705 13.08 19.9505 13.6C19.4305 14.12 19.4305 14.98 19.9505 15.5L23.5505 19.1C23.5705 19.12 23.5705 19.12 23.5905 19.12C23.7105 19.22 23.8305 19.32 23.9905 19.38C24.1505 19.44 24.3305 19.48 24.5105 19.48C24.6905 19.48 24.8505 19.44 25.0305 19.38C25.1905 19.32 25.3505 19.22 25.4705 19.08L29.0705 15.48C29.5705 14.98 29.5705 14.12 29.0505 13.6Z" fill="#FF793A"/>
<path d="M37.8794 23.0601C36.7394 22.7601 35.3994 22.6001 33.7994 22.6001C31.5794 22.6001 30.7594 23.1401 29.6194 24.0001C29.5594 24.0401 29.4994 24.1001 29.4394 24.1601L27.5394 26.1801C25.9394 27.8601 23.0594 27.8801 21.4594 26.1601L19.5594 24.1601C19.4994 24.1001 19.4394 24.0401 19.3794 24.0001C18.2394 23.1401 17.4194 22.6001 15.1994 22.6001C13.5994 22.6001 12.2594 22.7601 11.1194 23.0601C6.35937 24.3401 6.35938 28.1201 6.35938 31.4401V33.3001C6.35938 38.3201 6.35937 44.0001 17.0594 44.0001H31.9394C39.0394 44.0001 42.6394 40.4001 42.6394 33.3001V31.4401C42.6394 28.1201 42.6394 24.3401 37.8794 23.0601ZM29.1594 36.8001H19.8394C19.0794 36.8001 18.4594 36.1801 18.4594 35.4001C18.4594 34.6201 19.0794 34.0001 19.8394 34.0001H29.1594C29.9194 34.0001 30.5394 34.6201 30.5394 35.4001C30.5394 36.1801 29.9194 36.8001 29.1594 36.8001Z" fill="#004ED1"/>
<path d="M30.5409 35.4C30.5409 36.18 29.9209 36.8 29.1609 36.8H19.8409C19.0809 36.8 18.4609 36.18 18.4609 35.4C18.4609 34.62 19.0809 34 19.8409 34H29.1609C29.9209 34 30.5409 34.62 30.5409 35.4Z" fill="#FF793A"/>
</svg>
