<svg width="49" height="48" viewBox="0 0 49 48" fill="none" xmlns="http://www.w3.org/2000/svg">
<path opacity="0.4" d="M44.5 33V39C44.5 42 42.5 44 39.5 44H12.5C13.32 44 14.16 43.88 14.94 43.62C15.16 43.54 15.38 43.46 15.6 43.36C16.3 43.08 16.98 42.68 17.58 42.16C17.76 42.02 17.96 41.84 18.14 41.66L18.22 41.58L31.82 28H39.5C42.5 28 44.5 30 44.5 33Z" fill="#719FEC"/>
<path opacity="0.6" d="M37.2407 22.5799L31.8207 27.9999L18.2207 41.5799C19.6207 40.1399 20.5007 38.1599 20.5007 35.9999V16.6799L25.9207 11.2599C28.0407 9.13992 30.8807 9.13992 33.0007 11.2599L37.2407 15.4999C39.3607 17.6199 39.3607 20.4599 37.2407 22.5799Z" fill="#004ED1"/>
<path d="M15.5 4H9.5C6.5 4 4.5 6 4.5 9V36C4.5 36.54 4.55997 37.08 4.65997 37.6C4.71997 37.86 4.77999 38.12 4.85999 38.38C4.95999 38.68 5.05999 38.98 5.17999 39.26C5.19999 39.28 5.20001 39.3 5.20001 39.3C5.22001 39.3 5.22001 39.3 5.20001 39.32C5.48001 39.88 5.79999 40.42 6.17999 40.92C6.39999 41.18 6.62003 41.42 6.84003 41.66C7.06003 41.9 7.3 42.1 7.56 42.3L7.58002 42.32C8.08002 42.7 8.61999 43.02 9.17999 43.3C9.19999 43.28 9.20001 43.28 9.20001 43.3C9.50001 43.44 9.79999 43.54 10.12 43.64C10.38 43.72 10.64 43.78 10.9 43.84C11.42 43.94 11.96 44 12.5 44C13.32 44 14.16 43.88 14.94 43.62C15.16 43.54 15.38 43.46 15.6 43.36C16.3 43.08 16.98 42.68 17.58 42.16C17.76 42.02 17.96 41.84 18.14 41.66L18.22 41.58C19.62 40.14 20.5 38.16 20.5 36V9C20.5 6 18.5 4 15.5 4ZM12.5 39C10.84 39 9.5 37.66 9.5 36C9.5 34.34 10.84 33 12.5 33C14.16 33 15.5 34.34 15.5 36C15.5 37.66 14.16 39 12.5 39Z" fill="#004ED1"/>
<circle cx="12.5" cy="36" r="3" fill="#FF793A"/>
</svg>
