<svg width="48" height="48" viewBox="0 0 48 48" fill="none" xmlns="http://www.w3.org/2000/svg">
<path opacity="0.4" d="M44 33V39C44 42 42 44 39 44H12C12.82 44 13.66 43.88 14.44 43.62C14.66 43.54 14.88 43.46 15.1 43.36C15.8 43.08 16.48 42.68 17.08 42.16C17.26 42.02 17.46 41.84 17.64 41.66L17.72 41.58L31.32 28H39C42 28 44 30 44 33Z" fill="#719FEC"/>
<path opacity="0.6" d="M36.7407 22.5799L31.3207 27.9999L17.7207 41.5799C19.1207 40.1399 20.0007 38.1599 20.0007 35.9999V16.6799L25.4207 11.2599C27.5407 9.13992 30.3807 9.13992 32.5007 11.2599L36.7407 15.4999C38.8607 17.6199 38.8607 20.4599 36.7407 22.5799Z" fill="white"/>
<path d="M15 4H9C6 4 4 6 4 9V36C4 36.54 4.05997 37.08 4.15997 37.6C4.21997 37.86 4.27999 38.12 4.35999 38.38C4.45999 38.68 4.55999 38.98 4.67999 39.26C4.69999 39.28 4.70001 39.3 4.70001 39.3C4.72001 39.3 4.72001 39.3 4.70001 39.32C4.98001 39.88 5.29999 40.42 5.67999 40.92C5.89999 41.18 6.12003 41.42 6.34003 41.66C6.56003 41.9 6.8 42.1 7.06 42.3L7.08002 42.32C7.58002 42.7 8.11999 43.02 8.67999 43.3C8.69999 43.28 8.70001 43.28 8.70001 43.3C9.00001 43.44 9.29999 43.54 9.62 43.64C9.88 43.72 10.14 43.78 10.4 43.84C10.92 43.94 11.46 44 12 44C12.82 44 13.66 43.88 14.44 43.62C14.66 43.54 14.88 43.46 15.1 43.36C15.8 43.08 16.48 42.68 17.08 42.16C17.26 42.02 17.46 41.84 17.64 41.66L17.72 41.58C19.12 40.14 20 38.16 20 36V9C20 6 18 4 15 4ZM12 39C10.34 39 9 37.66 9 36C9 34.34 10.34 33 12 33C13.66 33 15 34.34 15 36C15 37.66 13.66 39 12 39Z" fill="white"/>
<circle cx="12" cy="36" r="3" fill="#FF793A"/>
</svg>
