<svg width="200" height="109" viewBox="0 0 200 109" fill="none" xmlns="http://www.w3.org/2000/svg">
<path d="M200 0H0V109H200V0Z" fill="white"/>
<path fill-rule="evenodd" clip-rule="evenodd" d="M130.761 44.8135C132.222 43.6903 133.586 42.2863 135.242 41.2567C136.217 40.6016 137.386 39.8529 138.555 39.4783C139.139 39.2912 139.53 39.1976 139.53 39.104C139.53 38.9169 138.847 38.8232 137.97 38.8232C135.73 39.0104 132.027 41.8184 130.467 43.1286C129.494 43.9712 128.519 44.7198 127.74 45.2814C127.545 45.3749 126.377 46.0303 125.597 46.1238C125.402 46.1238 125.304 46.311 125.597 46.311C126.084 46.4047 126.864 46.311 127.448 46.311C128.91 46.2175 129.591 45.7495 130.761 44.8135Z" fill="#02983B"/>
<path fill-rule="evenodd" clip-rule="evenodd" d="M132.644 46.6964C134.105 45.5731 135.469 44.1691 137.125 43.1396C138.099 42.4843 139.269 41.7356 140.438 41.3613C141.022 41.1741 141.413 41.0804 141.413 40.9869C141.413 40.7997 140.73 40.7061 139.853 40.7061C137.611 40.8932 133.91 43.7011 132.35 45.0116C131.377 45.8539 130.402 46.6027 129.622 47.1643C129.429 47.2579 128.258 47.9131 127.48 48.0066C127.285 48.0066 127.186 48.1938 127.48 48.1938C127.966 48.2876 128.746 48.1938 129.33 48.1938C130.889 48.0066 131.474 47.6323 132.644 46.6964Z" fill="#02983B"/>
<path d="M31.196 64.5884C26.4818 64.7843 24.2231 60.6697 24.4195 52.2446C24.2231 43.6237 26.4818 39.4112 31.196 39.705C35.9099 39.4112 38.1688 43.5257 37.9723 52.2446C38.1688 60.6697 35.9099 64.7843 31.196 64.5884ZM31.196 65.1762C35.026 65.1762 37.9723 63.5109 40.2311 60.0819C41.8026 57.4369 42.5882 54.6938 42.5882 52.0487C42.4899 48.4239 41.2133 45.1911 38.8562 42.35C36.6956 39.9988 34.1421 38.8232 31.196 38.8232C28.2496 38.8232 25.5979 40.0969 23.3392 42.5459C21.1786 45.1911 20.0984 48.4239 20 52.0487C20 55.3796 20.8839 58.4164 22.75 60.9636C24.9105 63.8047 27.7586 65.1762 31.196 65.1762Z" fill="#02983B"/>
<path d="M45.4121 55.5821C45.6078 59.2938 47.3697 61.1999 50.5999 61.3002C52.4597 61.3002 53.4385 60.899 53.6343 59.9961C53.6343 59.3942 53.4385 59.1935 52.949 59.1935C52.7533 59.1935 52.5575 59.2938 52.166 59.4944C51.5788 59.7956 51.0893 59.8958 50.5999 59.8958C48.5444 59.7955 47.4677 58.391 47.2719 55.6823C47.4677 52.9737 48.5444 51.5694 50.5999 51.469C51.0893 51.469 51.5788 51.5694 52.166 51.7699C52.4597 51.9705 52.7533 52.0709 53.0469 52.0709C53.5364 51.9705 53.7322 51.7699 53.83 51.2682C53.6343 50.3654 52.6554 49.8639 50.6978 49.8639C47.3697 49.8639 45.6078 51.8702 45.4121 55.5821ZM64.9887 56.3846C65.7716 56.4849 66.0654 56.0836 65.9675 55.3813C65.6737 51.8702 64.0097 49.9641 61.0734 49.7635C57.9411 49.9641 56.1791 51.9705 55.8856 55.6823C56.0813 59.4944 57.8432 61.4006 61.1712 61.4006C63.7161 61.1999 65.2822 60.4978 65.8696 59.1935C65.8696 58.5916 65.5759 58.391 65.0865 58.391C64.8907 58.391 64.695 58.4913 64.3035 58.7923C63.3246 59.4944 62.3459 59.8958 61.1712 59.8958C59.0178 59.7955 57.941 58.5916 57.7453 56.4849H64.9887V56.3846ZM57.7453 54.98C57.941 52.5724 59.0178 51.469 61.0734 51.469C62.9331 51.5694 63.912 52.773 64.1078 54.98H57.7453ZM78.3984 50.6663C78.3984 50.0645 78.105 49.7635 77.5176 49.7635C76.9303 49.8639 76.5387 50.1648 76.5387 50.6663V51.2682C75.56 50.2652 74.4832 49.7635 73.4066 49.7635C70.2743 49.9641 68.5124 51.9705 68.3166 55.6823C68.5124 59.3942 70.2743 61.3002 73.4066 61.4006C74.6791 61.5008 75.6578 60.899 76.5387 59.7956V60.598C76.5387 61.0997 76.8325 61.4006 77.5176 61.4006C78.0069 61.4006 78.3006 61.0997 78.3984 60.598V50.6663ZM70.2743 55.5821C70.3722 52.8734 71.4489 51.469 73.5044 51.3686C75.462 51.469 76.5387 52.8734 76.6367 55.5821C76.5387 58.2907 75.462 59.6952 73.5044 59.7956C71.4489 59.6952 70.3722 58.2907 70.2743 55.5821ZM82.0201 60.4978C82.0201 61.0997 82.3137 61.3002 82.9011 61.3002C83.4884 61.3002 83.88 60.9993 83.88 60.4978V54.1776C83.9779 52.4722 84.8588 51.469 86.6206 51.3686C88.2847 51.469 89.1657 52.3718 89.2634 54.1776V60.4978C89.2634 61.0997 89.5572 61.3002 90.2423 61.3002C90.8297 61.3002 91.221 60.9993 91.221 60.4978V54.0773C91.1233 51.3686 89.7529 49.9641 87.2079 49.6632C85.8375 49.6632 84.7609 50.1648 83.9779 51.168H83.88V50.6663C83.88 49.9641 83.5862 49.6632 82.9011 49.6632C82.3137 49.6632 82.0201 49.9641 82.0201 50.6663V60.4978ZM138.4 60.4978C138.4 61.0997 138.695 61.3002 139.379 61.3002C139.967 61.3002 140.358 60.9993 140.358 60.4978V53.977C140.456 52.2715 141.24 51.469 142.805 51.3686C144.371 51.469 145.253 52.2715 145.253 53.977V60.4978C145.253 61.0997 145.546 61.3002 146.232 61.3002C146.917 61.3002 147.209 60.9993 147.209 60.4978V54.0773C147.112 51.3686 145.741 49.9641 143.099 49.6632C141.728 49.6632 140.554 50.2652 139.575 51.5694C138.695 50.2652 137.616 49.6632 136.345 49.6632C135.073 49.6632 134.094 50.1648 133.506 51.0676L133.409 50.9673V50.6663C133.409 49.9641 133.115 49.6632 132.43 49.6632C131.842 49.6632 131.549 49.9641 131.549 50.6663V60.3974C131.549 60.9993 131.842 61.1999 132.43 61.1999C133.017 61.1999 133.409 60.899 133.409 60.3974V53.977C133.506 52.2715 134.289 51.469 135.855 51.3686C137.422 51.469 138.302 52.2715 138.302 53.977V60.4978H138.4ZM159.151 56.3846C159.836 56.4849 160.229 56.0836 160.131 55.3813C159.836 51.8702 158.173 49.9641 155.235 49.7635C152.104 49.9641 150.341 51.9705 150.049 55.6823C150.245 59.4944 152.006 61.4006 155.334 61.4006C157.878 61.1999 159.445 60.4978 160.032 59.1935C160.032 58.5916 159.739 58.391 159.25 58.391C159.054 58.391 158.859 58.4913 158.466 58.7923C157.488 59.4944 156.508 59.8958 155.334 59.8958C153.181 59.7955 152.104 58.5916 151.908 56.4849H159.151V56.3846ZM152.006 54.98C152.203 52.5724 153.278 51.469 155.334 51.469C157.194 51.5694 158.173 52.773 158.37 54.98H152.006ZM163.164 60.4978C163.164 61.0997 163.458 61.3002 164.045 61.3002C164.633 61.3002 165.025 60.9993 165.025 60.4978V54.1776C165.122 52.4722 166.003 51.469 167.766 51.3686C169.429 51.469 170.311 52.3718 170.409 54.1776V60.4978C170.409 61.0997 170.702 61.3002 171.386 61.3002C171.973 61.3002 172.366 60.9993 172.366 60.4978V54.0773C172.268 51.3686 170.897 49.9641 168.353 49.6632C166.982 49.6632 165.905 50.1648 165.122 51.168H165.025V50.6663C165.025 49.9641 164.731 49.6632 164.045 49.6632C163.458 49.6632 163.164 49.9641 163.164 50.6663V60.4978ZM176.478 49.8639H175.694C175.107 49.8639 174.715 50.1648 174.715 50.6663C174.715 51.168 175.008 51.469 175.694 51.469H176.478V60.4978C176.478 61.0997 176.77 61.3002 177.358 61.3002C178.042 61.3002 178.337 60.9993 178.337 60.4978V51.469H179.12C179.707 51.469 180 51.168 180 50.6663C180 50.0645 179.707 49.8639 179.12 49.8639H178.337V47.3557C178.239 46.7538 177.944 46.4529 177.358 46.3525C176.77 46.3525 176.478 46.6536 176.478 47.3557V49.8639Z" fill="#9E9E9F"/>
<path d="M96.0086 55.6356C96.1061 53.1102 97.177 51.8008 99.1244 51.7072C101.169 51.8008 102.239 53.1102 102.338 55.6356C102.239 58.1611 101.169 59.4705 99.1244 59.564C97.177 59.4705 96.1061 58.1611 96.0086 55.6356ZM94.3535 64.2407C94.3535 64.8954 94.6456 65.176 95.3272 65.176C95.9113 65.176 96.3007 64.8954 96.3007 64.2407V59.6576H96.3981C97.0796 60.4993 98.1506 60.9669 99.4164 60.9669C102.435 60.7799 104.09 59.0028 104.284 55.6356C104.09 52.1749 102.435 50.3043 99.4164 50.1172C97.8586 50.1172 96.8848 50.5848 96.3981 51.6136H96.3007V51.0524C96.3007 50.3977 96.0085 50.1172 95.3272 50.1172C94.7428 50.1172 94.3535 50.3977 94.3535 51.0524V64.2407ZM116.747 51.0524C116.747 50.4913 116.455 50.2107 115.87 50.2107C115.287 50.3043 114.896 50.5848 114.896 51.0524V51.6136C113.924 50.6783 112.853 50.2107 111.781 50.2107C108.666 50.3977 106.913 52.2684 106.719 55.7292C106.913 59.1898 108.666 60.9669 111.781 61.0605C113.047 61.154 114.021 60.5929 114.896 59.564V60.3122C114.896 60.78 115.19 61.0605 115.87 61.0605C116.358 61.0605 116.65 60.78 116.747 60.3122V51.0524ZM108.666 55.6356C108.764 53.1102 109.835 51.8008 111.879 51.7072C113.827 51.8008 114.897 53.1102 114.995 55.6356C114.897 58.1611 113.827 59.4705 111.879 59.564C109.835 59.4705 108.764 58.1611 108.666 55.6356ZM122.978 60.5929L121.713 63.3988C121.615 63.5859 121.615 63.6795 121.517 63.8666C121.42 64.1471 121.42 64.3342 121.42 64.4278C121.517 64.8018 121.713 65.0824 122.296 65.176C122.783 65.176 123.076 64.9888 123.173 64.5212L127.944 51.8942C128.139 51.5201 128.236 51.2394 128.236 50.9589C128.139 50.4913 127.944 50.2107 127.36 50.2107C126.873 50.2107 126.581 50.4913 126.484 50.9589L123.952 58.2545H123.855L121.226 50.9589C121.031 50.4913 120.739 50.2107 120.35 50.2107C119.765 50.3043 119.473 50.4913 119.376 50.9589C119.376 51.0524 119.473 51.2394 119.57 51.7072C119.57 51.6136 119.57 51.7073 119.668 51.9878L122.978 60.5929Z" fill="#02983B"/>
</svg>
