<svg width="198" height="35" viewBox="0 0 198 35" fill="none" xmlns="http://www.w3.org/2000/svg">
<path d="M60.8695 26.2351V12.8671H63.3783C65.4872 12.8671 66.5416 14.2982 66.5416 17.1605V26.2351H71.6266V15.5889C71.6266 11.8043 68.5586 8.73635 64.7741 8.73635H63.9558H60.8695V2.95358H55.452V26.2351H60.8695Z" fill="#004ED1"/>
<path d="M44.967 26.5123C47.5843 26.5123 49.6085 26.0787 51.0394 25.2115C52.4704 24.3443 53.1858 23.0653 53.1858 21.3743C53.1858 20.6589 53.0941 20.0302 52.9107 19.4882C52.7272 18.9462 52.4092 18.453 51.9567 18.0086C51.5042 17.5642 50.8865 17.1522 50.1038 16.7729C49.321 16.3935 48.3304 16.0087 47.1318 15.6184C46.5448 15.4233 46.0617 15.2445 45.6825 15.0819C45.3034 14.9193 45.0037 14.7675 44.7836 14.6266C44.5634 14.4857 44.4167 14.3394 44.3433 14.1876C44.2699 14.0359 44.2332 13.8624 44.2332 13.6673C44.2332 12.8218 45.0893 12.3991 46.8016 12.3991C47.4213 12.3991 48.259 12.3991 49.3149 12.3991H52.3419V8.4968H49.7736C48.3059 8.4968 47.1807 8.4968 46.398 8.4968C44.0498 8.4968 42.203 8.9629 40.8577 9.89511C39.5123 10.8273 38.8396 12.0956 38.8396 13.6998C38.8396 14.5236 38.9742 15.2282 39.2432 15.8136C39.5123 16.3989 39.8915 16.9029 40.3807 17.3257C40.8699 17.7484 41.4631 18.1116 42.1602 18.4151C42.8573 18.7186 43.6339 19.0112 44.4901 19.2931C45.5908 19.6616 46.4102 19.9922 46.9484 20.2849C47.4865 20.5776 47.7556 20.919 47.7556 21.3092C47.7556 21.8079 47.5476 22.1439 47.1318 22.3173C46.716 22.4908 46.0066 22.5775 45.0037 22.5775C44.3678 22.5775 43.4016 22.5775 42.1051 22.5775H39.2432V26.5123H40.6925C42.4007 26.5123 43.8255 26.5123 44.967 26.5123Z" fill="#004ED1"/>
<path d="M141.953 26.5123C144.57 26.5123 146.594 26.0787 148.025 25.2115C149.456 24.3443 150.172 23.0653 150.172 21.3743C150.172 20.6589 150.08 20.0302 149.897 19.4882C149.713 18.9462 149.395 18.453 148.943 18.0086C148.49 17.5642 147.872 17.1522 147.09 16.7729C146.307 16.3935 145.316 16.0087 144.118 15.6184C143.531 15.4233 143.048 15.2445 142.668 15.0819C142.289 14.9193 141.99 14.7675 141.77 14.6266C141.549 14.4857 141.403 14.3394 141.329 14.1876C141.256 14.0359 141.219 13.8624 141.219 13.6673C141.219 12.8218 142.075 12.3991 143.788 12.3991C144.407 12.3991 145.245 12.3991 146.301 12.3991H149.328V8.4968H146.759C145.292 8.4968 144.167 8.4968 143.384 8.4968C141.036 8.4968 139.189 8.9629 137.844 9.89511C136.498 10.8273 135.826 12.0956 135.826 13.6998C135.826 14.5236 135.96 15.2282 136.229 15.8136C136.498 16.3989 136.877 16.9029 137.367 17.3257C137.856 17.7484 138.449 18.1116 139.146 18.4151C139.843 18.7186 140.62 19.0112 141.476 19.2931C142.577 19.6616 143.396 19.9922 143.934 20.2849C144.472 20.5776 144.741 20.919 144.741 21.3092C144.741 21.8079 144.534 22.1439 144.118 22.3173C143.702 22.4908 142.993 22.5775 141.99 22.5775C141.354 22.5775 140.387 22.5775 139.091 22.5775H136.229V26.5123H137.678C139.387 26.5123 140.811 26.5123 141.953 26.5123Z" fill="#004ED1"/>
<path d="M172.221 26.6509C172.221 22.2808 172.221 18.7706 172.221 16.1205C172.221 13.7326 172.423 13.0499 174.215 13.0131C175.865 12.9793 177.972 12.976 178.333 13.0569V8.82838C178.188 8.77409 176 8.76042 171.768 8.78736C169.019 8.80486 166.8 11.0383 166.8 13.7873V26.6509H172.221Z" fill="#004ED1"/>
<path fill-rule="evenodd" clip-rule="evenodd" d="M83.0349 8.4968C88.084 8.4968 92.1771 12.5607 92.1771 17.5738C92.1771 22.5869 88.084 26.6509 83.0349 26.6509C77.9858 26.6509 73.8927 22.5869 73.8927 17.5738C73.8927 12.5607 77.9858 8.4968 83.0349 8.4968ZM83.0843 13.207C80.628 13.207 78.6368 15.1841 78.6368 17.6229C78.6368 20.0617 80.628 22.0387 83.0843 22.0387C85.5407 22.0387 87.5319 20.0617 87.5319 17.6229C87.5319 15.1841 85.5407 13.207 83.0843 13.207Z" fill="#004ED1"/>
<path d="M103.677 8.4968C108.753 8.4968 112.868 12.5579 112.868 17.5676C112.868 22.5772 108.753 26.6383 103.677 26.6383C102.057 26.6383 100.535 26.2245 99.2128 25.4982L99.2126 32.1941H94.4433V17.5828L94.4863 17.5826C94.4863 17.5776 94.4863 17.5726 94.4863 17.5676C94.4863 12.5579 98.6012 8.4968 103.677 8.4968ZM103.727 13.2038C101.258 13.2038 99.2557 15.1795 99.2557 17.6166C99.2557 20.0537 101.258 22.0294 103.727 22.0294C106.196 22.0294 108.198 20.0537 108.198 17.6166C108.198 15.1795 106.196 13.2038 103.727 13.2038Z" fill="#004ED1"/>
<path fill-rule="evenodd" clip-rule="evenodd" d="M188.6 8.4968C193.65 8.4968 197.743 12.5607 197.743 17.5738C197.743 22.5869 193.65 26.6509 188.6 26.6509C183.551 26.6509 179.458 22.5869 179.458 17.5738C179.458 12.5607 183.551 8.4968 188.6 8.4968ZM188.65 13.207C186.194 13.207 184.202 15.1841 184.202 17.6229C184.202 20.0617 186.194 22.0387 188.65 22.0387C191.106 22.0387 193.097 20.0617 193.097 17.6229C193.097 15.1841 191.106 13.207 188.65 13.207Z" fill="#004ED1"/>
<path d="M160.108 26.7894C160.895 26.7894 161.891 26.7894 163.095 26.7894H164.534V22.6656H162.819C161.995 22.6656 161.387 22.6656 160.993 22.6656C159.764 22.6656 158.947 22.3601 158.541 21.7492C158.135 21.1382 157.933 20.32 157.933 19.2945V13.2396H164.534V9.18121H157.933V4.89371H152.438V19.3599C152.438 20.4727 152.555 21.4873 152.788 22.4037C153.022 23.3202 153.434 24.1002 154.024 24.7439C154.614 25.3875 155.4 25.8894 156.384 26.2494C157.367 26.6094 158.609 26.7894 160.108 26.7894Z" fill="#004ED1"/>
<path d="M124.347 8.4968C129.222 8.4968 133.213 12.2281 133.538 16.9505L133.559 16.9502V26.6509H129.34L129.341 25.2029C127.902 26.1191 126.187 26.6509 124.347 26.6509C119.259 26.6509 115.134 22.5869 115.134 17.5738C115.134 12.5607 119.259 8.4968 124.347 8.4968ZM124.398 13.2085C121.923 13.2085 119.916 15.1856 119.916 17.6244C119.916 20.0632 121.923 22.0402 124.398 22.0402C126.873 22.0402 128.88 20.0632 128.88 17.6244C128.88 15.1856 126.873 13.2085 124.398 13.2085Z" fill="#004ED1"/>
<path d="M124.347 19.8604C125.629 19.8604 126.668 18.8367 126.668 17.5738C126.668 16.311 125.629 15.2873 124.347 15.2873C123.065 15.2873 122.026 16.311 122.026 17.5738C122.026 18.8367 123.065 19.8604 124.347 19.8604Z" fill="#FF793A"/>
<path d="M20.5119 23.4718C22.1711 23.4718 23.5162 22.1466 23.5162 20.5119C23.5162 18.8772 22.1711 17.5519 20.5119 17.5519C18.8527 17.5519 17.5076 18.8772 17.5076 20.5119C17.5076 22.1466 18.8527 23.4718 20.5119 23.4718Z" fill="white"/>
<path fill-rule="evenodd" clip-rule="evenodd" d="M22.2121 31.7804C29.3875 31.7804 34.7046 24.3148 34.7046 17.1789C34.7046 10.043 29.3875 4.25815 22.2121 4.25815C15.0367 4.25815 9.21986 10.043 9.21986 17.1789C9.21986 24.3148 15.0367 31.7804 22.2121 31.7804Z" fill="#FF793A"/>
<path fill-rule="evenodd" clip-rule="evenodd" d="M17.936 0C22.5799 0 26.8018 1.80431 29.9373 4.7493L17.9496 16.7972L18.5759 22.0114L30.871 29.3051C27.6671 32.8048 23.0583 35 17.936 35C8.25897 35 0.414154 27.165 0.414154 17.5C0.414154 7.83502 8.25897 0 17.936 0Z" fill="#FF793A"/>
<path fill-rule="evenodd" clip-rule="evenodd" d="M1.28188 11.753L17.937 21.7771L18.0731 21.8502L18.0766 21.852L31.0784 29.1211C27.8536 32.7278 23.1514 35 17.9154 35C8.19252 35 0.310562 27.165 0.310562 17.5C0.310562 15.4868 0.652534 13.5531 1.28188 11.753ZM17.9154 0C22.8938 0 27.3896 2.05416 30.5918 5.35634L17.8105 15.2582C16.7917 15.9703 16.1273 17.1388 16.1273 18.4596L16.13 18.5891L1.97229 10.0683C4.78363 4.11911 10.8656 0 17.9154 0Z" fill="#004ED1"/>
<path fill-rule="evenodd" clip-rule="evenodd" d="M0.0997382 9.92373C0.354232 9.50097 1.01617 9.43152 1.57822 9.7686L16.065 18.456L16.0627 18.3284C16.0627 16.2433 17.7374 14.5407 19.8433 14.4363L20.0484 14.4312C22.2497 14.4312 24.0342 16.176 24.0342 18.3284C24.0342 20.4807 22.2497 22.2255 20.0484 22.2255C19.3548 22.2255 18.7025 22.0522 18.1344 21.7476C18.0432 21.7156 17.9527 21.6728 17.8646 21.62L0.656615 11.2996C0.0945672 10.9625 -0.154755 10.3465 0.0997382 9.92373Z" fill="white"/>
<path d="M20.1493 20.4599C21.3794 20.4599 22.3766 19.5067 22.3766 18.3309C22.3766 17.155 21.3794 16.2018 20.1493 16.2018C18.9192 16.2018 17.922 17.155 17.922 18.3309C17.922 19.5067 18.9192 20.4599 20.1493 20.4599Z" fill="#004ED1"/>
</svg>
