<svg width="36" height="36" viewBox="0 0 36 36" fill="none" xmlns="http://www.w3.org/2000/svg">
<circle cx="18" cy="18" r="18" fill="white"/>
<g clipPath="url(#clip0_602_5243)">
<path fill-rule="evenodd" clip-rule="evenodd" d="M7.34364 9L7.35411 9.00761C7.53467 9.14187 10.2823 11.2344 10.2823 14.9356C10.2823 16.866 9.72233 18.5203 8.59971 19.8959C6.37541 19.45 4.60382 17.7527 4.04644 15.5689C4.01765 15.3536 4.00195 15.1433 4.00195 14.9381C4.00195 10.9507 7.34364 9 7.34364 9Z" fill="#FF793A"/>
<path fill-rule="evenodd" clip-rule="evenodd" d="M32.002 17.7451V17.7476C31.8947 18.7787 31.5336 19.7439 30.9788 20.585C27.0955 27.2299 20.2394 28.5295 15.7777 27.8328C17.4132 27.5187 19.1194 26.328 20.8936 24.2634C24.6357 19.9086 27.8936 16.1187 32.002 17.7451Z" fill="#FF793A"/>
<path fill-rule="evenodd" clip-rule="evenodd" d="M24.8188 9.76001C28.7859 9.76001 31.9994 12.8659 31.9994 16.6963C31.9994 16.8812 31.9915 17.0661 31.9758 17.2485C27.8857 15.6171 24.6278 19.2575 20.9014 23.6224C18.4102 26.5383 16.1388 27.8075 14.0899 27.4275L14.137 27.4351C10.811 26.4015 8.69135 25.0335 6.79939 22.5432C5.30257 20.5723 4.36836 18.4012 3.99939 16.03C4.59341 18.6368 7.00089 20.5849 9.87677 20.5849C12.1272 20.5849 14.0899 19.3917 15.1235 17.6235C15.4532 17.2029 15.7594 16.7596 16.0603 16.3087L16.2095 16.0857C16.2592 16.0097 16.3089 15.9363 16.3586 15.8603L16.5078 15.6348L16.6413 15.4321C17.5676 14.0287 18.5672 12.5923 20.1871 11.3991C20.7052 10.976 21.2887 10.6213 21.9168 10.3528C21.9979 10.3123 22.0816 10.2717 22.1654 10.2337C22.2517 10.1932 22.3407 10.1679 22.4375 10.1527C23.1807 9.89681 23.9841 9.76001 24.8188 9.76001Z" fill="#FFBC9D"/>
</g>
<defs>
<clipPath id="clip0_602_5243">
<rect width="28" height="19" fill="white" transform="translate(4 9)"/>
</clipPath>
</defs>
</svg>
