<svg width="36" height="36" viewBox="0 0 36 36" fill="none" xmlns="http://www.w3.org/2000/svg">
<circle cx="18" cy="18" r="18" fill="white"/>
<path d="M27 27H9C8.73478 27 8.48043 26.8946 8.29289 26.7071C8.10536 26.5196 8 26.2652 8 26V18.487C7.99998 18.3441 8.03059 18.2029 8.08976 18.0728C8.14892 17.9428 8.23528 17.8269 8.343 17.733L12 14.544V10C12 9.73478 12.1054 9.48043 12.2929 9.29289C12.4804 9.10536 12.7348 9 13 9H27C27.2652 9 27.5196 9.10536 27.7071 9.29289C27.8946 9.48043 28 9.73478 28 10V26C28 26.2652 27.8946 26.5196 27.7071 26.7071C27.5196 26.8946 27.2652 27 27 27ZM15 25H18V18.942L14 15.454L10 18.942V25H13V21H15V25ZM20 25H26V11H14V13.127C14.234 13.127 14.469 13.209 14.657 13.374L19.657 17.733C19.7647 17.8269 19.8511 17.9428 19.9102 18.0728C19.9694 18.2029 20 18.3441 20 18.487V25ZM22 17H24V19H22V17ZM22 21H24V23H22V21ZM22 13H24V15H22V13ZM18 13H20V15H18V13Z" fill="#004ED1"/>
</svg>
