<svg width="640" height="446" viewBox="0 0 640 446" fill="none" xmlns="http://www.w3.org/2000/svg">
<path fill-rule="evenodd" clip-rule="evenodd" d="M372 437.822H0C17.5852 351.19 94.1779 285.985 186 285.985C277.822 285.985 354.415 351.19 372 437.822Z" fill="#FFB000"/>
<path d="M181.282 167.152C181.282 167.152 238.858 189.332 246.44 203.163C254.023 217.001 272.708 304.448 272.708 304.448C272.708 304.448 300.733 321.583 302.527 328.132C304.322 334.681 305.215 338.101 295.8 341.947C286.377 345.794 244.173 353.236 235.009 345.321C225.846 337.406 203.152 243.326 198.226 239.38C193.301 235.434 142.231 222.198 142.231 222.198C128.815 216.253 171.057 156.817 181.282 167.152Z" fill="#F7FAFF"/>
<path d="M242.134 289.932C250.877 288.245 260.262 284.528 266.905 278.254C270.326 293.259 272.716 304.457 272.716 304.457C272.716 304.457 300.733 321.584 302.527 328.133C304.322 334.682 305.215 338.101 295.8 341.948C286.377 345.795 244.173 353.237 235.009 345.322C230.489 341.422 222.692 316.593 215.346 291.939C216.438 291.725 217.53 291.496 218.622 291.252C226.457 291.893 234.345 291.435 242.134 289.932Z" fill="#5071E7"/>
<path d="M14.7626 91.7415C15.5339 100.122 18.8479 128.348 30.5005 157.474C42.4281 187.287 67.3063 220.68 74.217 229.664C75.3242 231.106 77.1721 231.801 78.9818 231.442C85.503 230.137 92.5817 228.16 99.7977 225.68C118.666 219.177 138.444 209.246 151.723 199.11L80.9901 58.9592L79.2338 55.4863C58.6012 61.2948 33.6848 74.1024 16.5418 87.6428C15.2895 88.635 14.6176 90.1768 14.7626 91.7415Z" fill="#5071E7"/>
<path d="M44.192 173.998C48.934 167.693 53.1949 161.053 57.1504 154.237C70.8876 130.53 81.4483 104.991 91.3064 79.3987L151.723 199.109C138.444 209.246 118.666 219.183 99.7977 225.679C92.5893 228.159 85.5107 230.136 78.9818 231.441C77.1721 231.8 75.3242 231.106 74.2169 229.663C68.9404 222.794 53.172 201.682 40.7023 178.807C42.0539 177.395 43.2222 175.799 44.192 173.998Z" fill="#5071E7"/>
<path d="M39.3202 86.7724C40.0914 95.1607 43.4055 123.379 55.0581 152.505C66.9856 182.311 91.8639 215.704 98.7669 224.695C99.057 225.084 99.4083 225.412 99.7977 225.679C118.666 219.176 138.444 209.246 151.723 199.11L80.9901 58.959C66.6191 65.4086 52.2175 73.8809 41.0994 82.6661C39.8394 83.6659 39.1675 85.2001 39.3202 86.7724Z" fill="#3B5BCB"/>
<path d="M48.0416 67.7741C48.0874 93.0688 69.1171 113.524 94.9575 113.417C120.752 113.311 141.507 92.7482 141.362 67.5375C141.224 42.3802 120.309 22.0391 94.6139 22.062C68.8651 22.0773 47.9882 42.5252 48.0416 67.7741Z" fill="#F7FAFF"/>
<path d="M187.153 248.219C190.749 253.905 192.987 258.805 192.849 262.065C192.238 277.254 163.702 358.251 163.702 358.251C163.702 358.251 178.799 384.89 177.027 391.019C175.256 397.14 174.286 400.315 164.413 399.315C154.47 398.308 114.175 385.599 110.158 374.86C106.119 364.052 134.609 274.262 132.295 268.491C129.974 262.698 86.2576 223.741 86.2576 223.741C60.3561 198.538 131.7 189.264 142.069 195.462C142.077 195.447 173.889 227.237 187.153 248.219C190.749 253.913 187.153 248.219 187.153 248.219Z" fill="#F7FAFF"/>
<path d="M134.849 327.69C139.858 330.926 145.746 333.788 151.61 334.933C158.07 336.193 164.225 335.918 170.723 335.842C170.96 335.842 171.189 335.834 171.418 335.819C167.02 348.832 163.706 358.243 163.706 358.243C163.706 358.243 178.802 384.881 177.03 391.011C175.259 397.132 174.289 400.307 164.416 399.307C154.474 398.3 114.178 385.591 110.162 374.852C108.062 369.235 114.759 342.245 121.348 316.829C125.556 320.828 130 324.56 134.849 327.69Z" fill="#5071E7"/>
<path d="M182.383 179.548C182.383 179.548 170.081 126.112 163.674 114.044C159.093 105.427 153.48 97.0006 146.653 89.9404C139.224 82.2543 132.282 79.6897 121.622 82.5138C105.029 86.9102 88.818 93.3369 74.3706 102.641C60.9082 111.32 45.3383 123.746 44.8191 140.988C44.4907 151.864 52.2413 161.527 57.4033 170.564C65.7419 185.166 74.6608 199.469 83.7782 213.635C84.3662 214.551 84.9618 215.475 85.5574 216.391C85.5574 216.391 140.422 211.972 147.081 209.766C153.732 207.56 182.383 179.548 182.383 179.548Z" fill="#F7FAFF"/>
<path d="M95.3603 155.512C95.3908 155.947 95.4137 156.367 95.4137 156.787C95.4672 171.922 74.9873 178.906 62.6398 178.99C57.3862 179.028 40.7396 176.456 40.732 171.396L46.039 161.382C47.2913 159.176 49.9334 160.504 51.0483 159.229C57.6611 151.604 65.2971 150.841 65.5033 150.65C69.2297 147.162 74.0098 142.934 80.386 142.903C87.7624 142.865 94.8257 148.513 95.3603 155.512Z" fill="#5071E7"/>
<path d="M104.593 151.253C104.684 151.871 104.73 152.505 104.738 153.146C104.761 159.603 100.339 166.793 93.7572 166.839C88.412 166.869 84.1663 162.694 84.1434 155.649C84.1281 150.146 91.9704 132.37 101.813 132.316C107.174 132.286 110.297 135.858 110.312 140.262C110.335 146.101 104.524 147.383 104.539 150.505C104.532 150.749 104.555 151.001 104.593 151.253Z" fill="#5071E7"/>
<path d="M169.552 148.307C169.537 146.208 172.981 127.187 172.981 127.187C172.981 127.187 181.144 119.768 184.687 116.944C188.23 114.12 237.842 81.0552 237.842 81.0552L254.641 71.6747L259.696 48.4179L241.957 36.717L232.206 40.9074L210.879 51.4023L164.062 74.2392L128.738 82.4062L169.552 148.307Z" fill="#F7FAFF"/>
<path d="M267.908 15.0486C267.908 15.0486 290.258 14.2167 291.961 17.7659C293.664 21.315 293.038 24.3681 290.892 26.1923C288.746 28.0165 277.338 26.2076 277.338 26.2076L264.754 28.3142L267.908 15.0486Z" fill="#5071E7"/>
<path d="M266.44 21.9097C266.44 21.9097 288.401 26.4129 289.188 30.2598C289.974 34.1067 288.615 36.9155 286.08 38.1749C283.545 39.4343 272.877 34.9692 272.877 34.9692L260.11 34.0227L266.44 21.9097Z" fill="#5071E7"/>
<path d="M262.902 26.2302C262.902 26.2302 284.275 33.0157 284.642 36.916C285.008 40.8239 283.344 43.4724 280.679 44.4494C278.014 45.434 267.881 39.8698 267.881 39.8698L255.266 37.5876L262.902 26.2302Z" fill="#5071E7"/>
<path d="M250.052 70.8204C244.157 66.0195 239.705 41.3201 241.95 36.7176C246.776 26.8257 255.336 13.1861 257.719 11.7741C261.178 9.72089 283.964 -2.01815 286.904 0.302177C289.844 2.62251 292.241 5.89692 289.363 8.89656C286.484 11.9038 275.564 16.4147 275.564 16.4147L266.577 33.9317C266.577 33.9317 264.53 50.7846 256.741 52.3112C253.672 52.9065 252.564 72.866 250.052 70.8204Z" fill="#5071E7"/>
<path d="M254.642 71.6751C256.803 71.2935 258.941 70.1028 260.628 68.9884C263.095 67.3703 265.508 65.2789 266.63 62.5006C269.097 56.3945 268.494 47.6856 269.104 45.5714C269.715 43.4571 273.999 31.3975 271.953 28.291C269.899 25.1921 264.446 22.9558 261.094 28.3063C257.734 33.6568 258.544 37.9998 257.039 39.8698C254.52 43.0068 251.381 45.4187 249.38 49.0061C246.761 53.6925 246.334 59.9513 247.227 65.1797C247.678 67.8359 248.8 70.866 251.755 71.614C252.695 71.8583 253.672 71.8506 254.642 71.6751Z" fill="#5071E7"/>
<path d="M85.8191 145.384C85.7046 145.384 85.6206 145.414 85.5289 145.414C82.337 145.43 82.2989 129.294 72.288 129.34C68.7831 129.355 65.3927 131.706 65.4003 135.4C65.4079 138.644 67.8362 141.957 67.8438 145.3C67.8515 147.063 67.2482 149.086 65.3545 149.101C61.9412 149.124 60.8034 136.98 52.5564 137.026C48.8224 137.049 46.6614 139.774 46.6691 143.132C46.6767 146.819 52.9306 153.07 52.9306 155.222C52.9306 156.001 52.4648 156.703 51.7394 156.703C48.769 156.718 43.5077 150.834 39.2926 150.856C36.3375 150.872 33.7107 153.673 33.7107 156.26C33.7183 160.55 42.9732 162.748 42.9808 165.13C42.9808 165.656 42.4692 165.847 41.9271 165.855C40.438 165.862 37.8341 164.626 35.6197 164.633C32.6951 164.649 29.8163 166.793 29.8239 169.595C29.8315 175.281 41.1558 176.586 45.0273 176.563C70.1423 176.395 44.8898 158.558 80.3669 149.139C82.5814 148.544 84.4141 147.124 85.8191 145.384Z" fill="#5071E7"/>
<path d="M95.215 103.762C99.2316 104.426 103.615 103.93 108.021 102.754C123.568 98.6099 139.29 85.9855 139.29 85.9855C139.29 85.9855 145.812 76.9255 141.306 56.1494C138.725 44.2577 130.944 36.5487 124.767 32.137C120.17 28.8397 116.459 27.3818 116.459 27.3818C116.459 27.3818 105.783 32.2209 94.9783 40.6093C84.1504 49.0052 75.8882 60.1642 72.7879 73.2542C69.6724 86.3747 76.9954 100.755 95.215 103.762Z" fill="#92AFE4"/>
<path d="M108.012 102.756C123.559 98.6111 139.282 85.9867 139.282 85.9867C139.282 85.9867 145.803 76.9267 141.297 56.1506C138.716 44.2589 130.935 36.5499 124.758 32.1382C121.085 34.3059 116.648 37.1528 112.189 40.6181C101.361 49.014 93.0911 60.173 89.9985 73.263C87.1579 85.2539 93.0376 98.3134 108.012 102.756Z" fill="#A7C4FA"/>
<path d="M156.724 113.143L137.374 122.982L153.723 166.251L171.958 156.344L156.724 113.143Z" fill="#A7C4FA"/>
<path d="M135.376 125.317L115.972 135.186L132.321 178.525L150.602 168.587L135.376 125.317Z" fill="#A7C4FA"/>
<path d="M254.873 345.237C255.193 345.237 255.507 345.237 255.827 345.23C269.694 345.047 284.768 341.055 300.643 333.369C301.216 333.094 301.453 332.407 301.178 331.842C300.903 331.27 300.216 331.033 299.651 331.308C284.088 338.849 269.335 342.764 255.804 342.94C249.627 343.024 243.717 342.299 238.226 340.788C237.615 340.62 236.989 340.978 236.821 341.589C236.653 342.2 237.012 342.825 237.623 342.993C243.029 344.489 248.833 345.237 254.873 345.237Z" fill="#3D7CB3"/>
<path d="M170.34 395.941C170.882 395.941 171.363 395.552 171.463 395.002C171.577 394.376 171.165 393.781 170.546 393.666C159.344 391.613 135.581 384.263 116.01 372.44C115.467 372.112 114.765 372.287 114.437 372.829C114.108 373.371 114.284 374.073 114.826 374.401C134.657 386.377 158.764 393.827 170.126 395.918C170.195 395.933 170.271 395.941 170.34 395.941Z" fill="#3D7CB3"/>
<path d="M136.168 267.484C136.236 267.484 136.297 267.476 136.366 267.469L136.939 267.37C138.176 267.148 139.245 266.957 140.474 266.942C141.108 266.934 141.612 266.415 141.612 265.782C141.604 265.148 141.1 264.652 140.459 264.652C139.039 264.668 137.825 264.881 136.542 265.11L135.977 265.21C135.351 265.316 134.938 265.912 135.045 266.538C135.137 267.087 135.625 267.484 136.168 267.484Z" fill="#3D7CB3"/>
<path d="M134.641 265.498C134.977 265.498 135.313 265.353 135.535 265.07C135.779 264.765 136.169 264.299 136.627 263.758C138.536 261.491 140.292 259.369 140.872 258.209C141.155 257.644 140.926 256.957 140.361 256.674C139.796 256.392 139.108 256.621 138.826 257.186C138.322 258.193 136.169 260.758 134.878 262.284C134.405 262.849 134 263.33 133.748 263.643C133.351 264.139 133.435 264.857 133.931 265.254C134.145 265.414 134.397 265.498 134.641 265.498Z" fill="#3D7CB3"/>
<path d="M202.985 238.701C203.191 238.701 203.389 238.647 203.58 238.533C204.054 238.243 204.481 237.907 204.886 237.586C205.596 237.022 206.207 236.541 206.925 236.411C207.551 236.304 207.963 235.709 207.856 235.083C207.75 234.457 207.154 234.037 206.535 234.152C205.245 234.373 204.298 235.121 203.466 235.785C203.099 236.075 202.748 236.357 202.389 236.571C201.847 236.899 201.679 237.602 202 238.144C202.213 238.502 202.595 238.701 202.985 238.701Z" fill="#3D7CB3"/>
<path d="M201.447 236.228C201.737 236.228 202.035 236.114 202.257 235.892C202.921 235.221 203.486 234.305 203.776 233.442C203.975 232.839 203.647 232.198 203.043 232C202.44 231.801 201.799 232.129 201.6 232.732C201.424 233.259 201.05 233.862 200.638 234.282C200.195 234.732 200.195 235.457 200.646 235.9C200.867 236.114 201.157 236.228 201.447 236.228Z" fill="#3D7CB3"/>
<path d="M178.631 236.678C178.883 236.678 179.143 236.594 179.357 236.419C179.845 236.022 179.922 235.297 179.525 234.808C169.987 223.115 154.517 205.758 142.276 195.347C141.795 194.935 141.069 194.996 140.657 195.477C140.245 195.958 140.306 196.683 140.787 197.088C152.905 207.399 168.269 224.626 177.745 236.251C177.967 236.533 178.295 236.678 178.631 236.678Z" fill="#002954"/>
<path d="M92.6957 129.653C92.856 129.653 93.0087 129.623 93.1614 129.554C93.7418 129.294 93.9938 128.615 93.7342 128.043C89.687 119.021 81.5546 111.884 71.9867 108.953C71.3834 108.77 70.742 109.106 70.5587 109.709C70.3755 110.312 70.7115 110.953 71.3223 111.136C80.2718 113.876 87.8697 120.547 91.6571 128.974C91.8404 129.401 92.2604 129.653 92.6957 129.653Z" fill="#002954"/>
<path d="M157.128 105.709C157.258 105.709 157.387 105.686 157.51 105.64C158.105 105.427 158.418 104.778 158.204 104.175C155.31 96.0232 151.561 86.8411 143.62 80.9868C143.108 80.6128 142.39 80.7197 142.016 81.231C141.642 81.7424 141.749 82.4599 142.26 82.8339C149.683 88.3065 153.272 97.1146 156.051 104.946C156.219 105.411 156.662 105.709 157.128 105.709Z" fill="#002954"/>
<path d="M149.135 95.7169C149.242 95.7169 149.341 95.7017 149.448 95.6711C150.059 95.4956 150.41 94.8621 150.234 94.2591C149.471 91.5571 147.753 89.6566 146.096 87.8095C145.668 87.3363 144.95 87.2981 144.477 87.7255C144.003 88.1453 143.965 88.8704 144.393 89.3437C145.943 91.0686 147.409 92.6944 148.027 94.885C148.18 95.3887 148.638 95.7169 149.135 95.7169Z" fill="#002954"/>
<path d="M91.5622 109.495C91.6691 109.495 91.7761 109.495 91.883 109.495C111.584 109.411 129.689 101.999 141.555 89.1458C141.983 88.6803 141.953 87.9551 141.487 87.5277C141.021 87.1003 140.296 87.1308 139.868 87.5888C128.429 99.9766 110.935 107.121 91.8677 107.197C85.1403 107.228 78.5351 106.38 72.159 104.678C71.5558 104.51 70.922 104.877 70.7616 105.487C70.6013 106.098 70.9602 106.724 71.5711 106.892C78.0464 108.624 84.7662 109.495 91.5622 109.495Z" fill="#002954"/>
<path d="M95.1391 113.99C95.2155 113.99 95.2995 113.983 95.3758 113.967L97.4376 113.532C113.259 110.204 129.624 106.762 140.894 94.7178C141.33 94.2522 141.299 93.5347 140.841 93.0997C140.383 92.6646 139.657 92.6951 139.222 93.1531C128.448 104.663 112.442 108.029 96.9718 111.288L94.9024 111.723C94.2839 111.853 93.8868 112.464 94.0166 113.082C94.1388 113.624 94.6122 113.99 95.1391 113.99Z" fill="#002954"/>
<path d="M65.7188 92.7187C68.6205 92.7111 70.8731 90.2075 70.8655 87.0247C70.8578 83.2313 67.6507 78.8883 64.497 76.5527C63.5043 75.8199 62.1298 75.4001 60.7324 75.4001C57.3878 75.4078 55.4101 77.5831 55.4177 81.2162C55.4253 83.9793 56.8915 87.0858 59.3503 89.5206C61.3967 91.5509 63.7181 92.7187 65.7188 92.7187ZM60.7324 77.6823C61.6335 77.6823 62.5345 77.9495 63.1301 78.3922C65.7646 80.3385 68.5594 84.0251 68.567 87.0247C68.5747 88.6581 67.4827 90.4212 65.7264 90.4289C64.3519 90.4289 62.5345 89.4595 60.9615 87.8948C58.9608 85.9027 57.7162 83.3458 57.7085 81.2086C57.7009 77.6976 59.9688 77.6899 60.7171 77.6899C60.7248 77.6823 60.7248 77.6823 60.7324 77.6823Z" fill="#002954"/>
<path d="M66.8272 180.22C66.8883 180.22 66.9417 180.22 67.0028 180.22C78.0445 180.143 86.994 173.083 92.7745 167.778C93.5152 167.099 94.8057 166.649 96.1725 166.16C98.7841 165.237 102.029 164.092 102.846 160.588C102.992 159.97 102.61 159.36 101.991 159.215C101.373 159.07 100.762 159.451 100.617 160.069C100.082 162.352 97.8143 163.153 95.4166 164C93.8206 164.565 92.3163 165.092 91.232 166.092C82.3742 174.228 74.8985 177.876 66.9952 177.93C66.2774 177.938 65.5596 177.907 64.8418 177.854C64.2157 177.8 63.6582 178.273 63.6048 178.907C63.5513 179.54 64.0248 180.09 64.6586 180.136C65.3763 180.189 66.1018 180.22 66.8272 180.22Z" fill="#002954"/>
<path d="M79.8958 121.883C80.1555 121.883 80.4227 121.791 80.6365 121.608C81.1176 121.196 81.1711 120.471 80.7587 119.99C78.2388 117.044 74.7491 114.968 71.1907 114.281C70.5645 114.159 69.9689 114.571 69.8467 115.189C69.7246 115.807 70.1369 116.41 70.7554 116.532C73.8099 117.12 76.8261 118.921 79.0177 121.478C79.2544 121.745 79.5751 121.883 79.8958 121.883Z" fill="#002954"/>
<path d="M99.797 148.216C99.8199 148.216 99.8351 148.216 99.858 148.216C102.103 148.2 104.157 147.437 105.631 146.063C106.089 145.628 106.12 144.911 105.684 144.445C105.249 143.979 104.531 143.957 104.066 144.392C103.012 145.376 101.515 145.918 99.8504 145.926C97.9261 145.926 94.3219 145.147 93.9325 142.186C93.8485 141.56 93.2605 141.117 92.6496 141.201C92.0235 141.285 91.5806 141.858 91.6646 142.483C92.1762 146.43 96.2309 148.216 99.797 148.216Z" fill="#002954"/>
<path d="M73.7825 141.91C73.7978 141.91 73.8131 141.91 73.8283 141.91C76.2871 141.895 78.1351 140.987 79.1736 139.269C79.5019 138.727 79.3263 138.025 78.7841 137.697C78.242 137.369 77.5395 137.537 77.2111 138.086C76.6002 139.094 75.4548 139.613 73.8131 139.62C73.08 139.628 72.2782 139.521 71.4917 139.315C70.8808 139.163 70.2547 139.529 70.0943 140.139C69.9339 140.75 70.3081 141.376 70.919 141.536C71.8888 141.781 72.8738 141.91 73.7825 141.91Z" fill="#002954"/>
<path d="M159.634 203.285C160.191 203.285 160.68 202.873 160.764 202.308C163.757 181.906 180.274 170.686 183.535 169.137C183.832 169.373 184.237 169.457 184.626 169.327C185.222 169.121 185.543 168.473 185.337 167.87C185.092 167.152 184.466 166.709 183.71 166.709C181.557 166.725 161.863 179.036 158.496 201.98C158.404 202.606 158.839 203.186 159.466 203.278C159.519 203.278 159.58 203.285 159.634 203.285Z" fill="#002954"/>
<path d="M153.237 195.257C153.619 195.257 153.993 195.066 154.214 194.715C160.552 184.449 168.44 171.679 181.2 166.191C181.78 165.94 182.048 165.268 181.803 164.688C181.551 164.108 180.879 163.841 180.299 164.085C166.875 169.855 158.781 182.968 152.275 193.509C151.939 194.051 152.107 194.753 152.649 195.081C152.825 195.203 153.031 195.257 153.237 195.257Z" fill="#002954"/>
<path d="M98.4779 238.656C98.5161 238.656 98.5466 238.656 98.5848 238.648C99.2186 238.587 99.6768 238.03 99.6157 237.404C99.5546 236.755 99.5241 236.091 99.5164 235.435C99.4477 216.849 124.54 202.507 137.124 202.416C137.628 202.416 138.147 202.423 138.651 202.454C139.293 202.484 139.827 202.011 139.865 201.378C139.903 200.744 139.422 200.202 138.789 200.164C138.239 200.133 137.674 200.118 137.109 200.118C129.893 200.172 120.05 204.171 112.024 210.3C102.441 217.62 97.1874 226.55 97.2256 235.435C97.2256 236.16 97.2638 236.892 97.3325 237.61C97.3936 238.213 97.8899 238.656 98.4779 238.656Z" fill="#002954"/>
<path d="M97.3998 220.627C97.8427 220.627 98.2627 220.375 98.446 219.948C104.143 207.056 118.063 198.324 133.091 198.21H133.511C134.145 198.21 134.656 197.699 134.664 197.073C134.664 196.439 134.16 195.928 133.526 195.92H133.076C117.162 196.042 102.409 205.324 96.3537 219.017C96.1017 219.597 96.3614 220.268 96.9417 220.528C97.0868 220.589 97.2471 220.627 97.3998 220.627Z" fill="#002954"/>
<path d="M87.2447 199.873C87.3058 199.873 87.3745 199.866 87.4356 199.858C102.647 197.309 116.636 190.119 128.319 183.425C128.869 183.112 129.06 182.41 128.747 181.86C128.434 181.311 127.731 181.12 127.181 181.433C115.674 188.027 101.914 195.103 87.0538 197.591C86.4277 197.698 86.0077 198.286 86.1146 198.911C86.2138 199.476 86.6949 199.873 87.2447 199.873Z" fill="#002954"/>
<path d="M117.263 181.273C119.958 180.257 122.738 179.212 125.342 177.479C125.869 177.128 126.014 176.418 125.662 175.891C125.311 175.365 124.601 175.22 124.074 175.571C121.684 177.159 119.141 178.12 116.461 179.128L117.263 181.273Z" fill="#002954"/>
<path d="M170.589 126.08C171.185 126.08 171.689 125.614 171.727 125.011C171.887 122.698 171.956 120.393 171.948 118.165C171.849 103.113 167.848 90.9999 160.059 82.1689C159.639 81.6957 158.914 81.6499 158.44 82.0697C157.967 82.4895 157.921 83.2146 158.341 83.6878C165.756 92.0914 169.558 103.701 169.658 118.188C169.673 120.363 169.604 122.607 169.444 124.866C169.398 125.5 169.879 126.042 170.505 126.087C170.543 126.08 170.566 126.08 170.589 126.08Z" fill="#002954"/>
<path d="M213.322 92.6113C213.375 92.6113 213.421 92.6113 213.475 92.6036C214.101 92.5197 214.544 91.9396 214.46 91.3137C214.101 88.6423 213.398 86.4517 212.322 84.6275C212.001 84.0856 211.291 83.9024 210.756 84.223C210.214 84.5435 210.031 85.2457 210.352 85.7877C211.268 87.3447 211.871 89.2453 212.192 91.619C212.268 92.1915 212.757 92.6113 213.322 92.6113Z" fill="#002954"/>
<path d="M208.628 93.4443C208.735 93.4443 208.85 93.429 208.957 93.3985C209.56 93.2153 209.911 92.5818 209.728 91.9712C209.201 90.208 208.285 88.9181 207.323 87.5519C207.139 87.2924 206.956 87.0329 206.765 86.7581C206.406 86.2391 205.696 86.1093 205.169 86.4604C204.65 86.8191 204.513 87.529 204.871 88.0556C205.062 88.338 205.253 88.6052 205.444 88.8723C206.338 90.1317 207.109 91.2232 207.529 92.6276C207.682 93.1237 208.132 93.4443 208.628 93.4443Z" fill="#002954"/>
<path d="M233.237 213.399C233.535 213.399 233.825 213.284 234.047 213.063C235.895 211.208 238.239 210.17 240.728 209.071C242.393 208.33 244.119 207.575 245.722 206.537C246.249 206.193 246.402 205.483 246.058 204.957C245.714 204.423 245.004 204.278 244.47 204.621C243.019 205.56 241.454 206.254 239.797 206.987C237.223 208.124 234.558 209.3 232.412 211.46C231.97 211.91 231.97 212.635 232.42 213.078C232.649 213.284 232.939 213.399 233.237 213.399Z" fill="#002954"/>
<path d="M232.36 208.459C232.696 208.459 233.032 208.314 233.261 208.024C234.536 206.421 236.422 205.505 238.43 204.528C239.553 203.986 240.706 203.421 241.813 202.712C242.348 202.368 242.5 201.658 242.157 201.132C241.813 200.597 241.103 200.445 240.576 200.788C239.583 201.422 238.491 201.956 237.43 202.467C235.284 203.505 233.07 204.582 231.474 206.597C231.084 207.093 231.161 207.81 231.657 208.207C231.856 208.375 232.108 208.459 232.36 208.459Z" fill="#002954"/>
<path d="M187.526 263.4C187.595 263.4 187.664 263.4 187.725 263.4C188.359 263.393 188.863 262.874 188.863 262.24C188.855 261.614 188.343 261.111 187.717 261.111C187.656 261.111 187.587 261.111 187.519 261.111C185.587 261.111 183.723 260.813 181.746 260.492C179.707 260.164 177.607 259.813 175.408 259.851C174.774 259.859 174.27 260.378 174.27 261.004C174.278 261.637 174.789 262.141 175.423 262.141C177.408 262.118 179.34 262.431 181.379 262.759C183.365 263.072 185.403 263.4 187.526 263.4Z" fill="#002954"/>
<path d="M186.554 256.233C186.951 256.233 187.333 256.027 187.547 255.661C187.867 255.111 187.677 254.417 187.134 254.096C185.294 253.028 183.431 252.89 181.644 252.913C181.239 252.921 180.827 252.928 180.415 252.944C180.018 252.959 179.613 252.967 179.208 252.974C178.628 252.982 178.147 252.967 177.704 252.928C177.085 252.867 176.52 253.348 176.474 253.982C176.421 254.615 176.894 255.165 177.528 255.211C178.04 255.249 178.582 255.264 179.239 255.264C179.659 255.256 180.071 255.249 180.491 255.233C180.888 255.218 181.278 255.211 181.675 255.203C183.332 255.188 184.706 255.333 185.989 256.073C186.157 256.18 186.356 256.233 186.554 256.233Z" fill="#002954"/>
<path d="M168.642 336.246C169.276 336.246 169.788 335.735 169.788 335.109C169.788 334.475 169.284 333.964 168.65 333.956C149.109 333.865 133.937 329.285 123.552 320.34C123.071 319.928 122.353 319.981 121.933 320.462C121.52 320.943 121.574 321.66 122.055 322.08C132.868 331.377 148.537 336.147 168.642 336.246Z" fill="#002954"/>
<path d="M217.808 293.779C217.831 293.779 217.854 293.779 217.877 293.779C234.859 292.734 251.605 288.505 266.32 281.544C266.892 281.277 267.137 280.59 266.862 280.018C266.595 279.445 265.907 279.201 265.335 279.476C250.88 286.307 234.424 290.467 217.732 291.497C217.098 291.535 216.617 292.077 216.655 292.711C216.708 293.306 217.212 293.779 217.808 293.779Z" fill="#002954"/>
<path d="M57.2958 165.977C57.479 165.977 57.6699 165.931 57.8456 165.84C60.4953 164.389 62.3814 162.229 64.1988 160.138C64.7104 159.55 65.222 158.963 65.7489 158.39C67.299 156.703 69.9182 156.215 72.6901 155.703C76.6837 154.955 81.2119 154.116 82.2046 149.01C82.3267 148.391 81.922 147.788 81.2959 147.666C80.6774 147.544 80.0741 147.949 79.9519 148.575C79.3029 151.91 76.615 152.643 72.2701 153.452C69.2538 154.017 66.1383 154.597 64.069 156.841C63.5192 157.436 62.9923 158.039 62.473 158.634C60.7091 160.665 59.0368 162.58 56.746 163.832C56.1885 164.138 55.99 164.832 56.2878 165.389C56.5016 165.763 56.8911 165.977 57.2958 165.977Z" fill="#002954"/>
<path d="M54.0839 148.559C54.1832 148.559 54.2825 148.544 54.3894 148.521C57.8714 147.567 58.6045 145.735 58.5969 144.369C58.5969 144.178 58.5816 143.972 58.5434 143.758C58.4441 143.132 57.8485 142.705 57.23 142.804C56.6038 142.903 56.1762 143.491 56.2755 144.117C56.2908 144.208 56.2984 144.292 56.2984 144.369C56.2984 145.407 54.9316 145.994 53.7785 146.307C53.1676 146.475 52.8087 147.101 52.9767 147.712C53.1142 148.223 53.58 148.559 54.0839 148.559Z" fill="#002954"/>
<path d="M41.0539 160.146C41.1608 160.146 41.2753 160.13 41.3822 160.1C42.5123 159.756 45.5286 158.856 45.9944 156.047C46.1013 155.421 45.6813 154.833 45.0551 154.726C44.4366 154.619 43.841 155.039 43.7341 155.665C43.5661 156.65 42.6651 157.314 40.7179 157.902C40.1146 158.085 39.771 158.718 39.9543 159.329C40.107 159.825 40.5575 160.146 41.0539 160.146Z" fill="#002954"/>
<path d="M35.9755 172.357C36.0977 172.357 36.2198 172.342 36.3344 172.296C38.6863 171.51 39.9844 170.006 39.9768 168.068C39.9768 167.434 39.4652 166.923 38.8314 166.923C38.1976 166.923 37.686 167.434 37.686 168.068C37.686 168.968 36.9911 169.663 35.6089 170.121C35.0057 170.319 34.685 170.968 34.8835 171.571C35.0439 172.052 35.4944 172.357 35.9755 172.357Z" fill="#002954"/>
<path d="M48.1829 174.321C48.3891 174.321 48.5953 174.267 48.7862 174.145C50.5349 173.061 50.9549 171.176 51.1152 169.855C51.1916 169.23 50.7487 168.657 50.1225 168.581C49.4964 168.504 48.9236 168.947 48.8473 169.573C48.6716 170.955 48.2822 171.764 47.5797 172.199C47.0451 172.535 46.8771 173.237 47.2131 173.779C47.427 174.13 47.8011 174.321 48.1829 174.321Z" fill="#002954"/>
<path d="M248.072 72.812C248.477 72.812 248.874 72.5983 249.08 72.209C249.378 71.6519 249.172 70.9573 248.614 70.6596C245.086 68.7514 243.796 63.3857 243.75 59.3709C243.697 53.7685 247.056 49.2347 250.691 45.1741C251.111 44.7009 251.073 43.9758 250.6 43.556C250.126 43.1362 249.408 43.1744 248.981 43.6476C245.033 48.0516 241.39 53.0129 241.452 59.3938C241.497 64.0344 243.109 70.2932 247.515 72.6746C247.698 72.7662 247.889 72.812 248.072 72.812Z" fill="#002954"/>
<path d="M270.066 46.212C270.639 46.212 271.135 45.7846 271.204 45.1969C271.525 42.472 272.12 40.2509 272.647 38.2893C273.235 36.1216 273.739 34.244 273.716 32.2824C273.663 27.1532 269.547 24.0925 265.607 24.0925C259.284 24.1002 258.452 28.4737 257.65 32.7098C257.009 36.1064 256.276 39.9609 252.9 42.8994C252.427 43.3116 252.374 44.0367 252.786 44.5176C253.198 44.9908 253.924 45.0442 254.405 44.632C258.383 41.1668 259.223 36.717 259.903 33.1372C260.766 28.5805 261.369 26.39 265.607 26.3823C268.402 26.3823 271.387 28.4584 271.433 32.3053C271.448 33.9463 270.983 35.6789 270.44 37.6863C269.891 39.7242 269.272 42.0293 268.936 44.9221C268.86 45.548 269.31 46.1204 269.944 46.1891C269.982 46.212 270.028 46.212 270.066 46.212Z" fill="#002954"/>
<path d="M272.565 19.2389C272.679 19.2389 272.786 19.2236 272.901 19.1855C275.085 18.5214 277.177 17.6437 279.2 16.7888C281.613 15.7737 284.11 14.728 286.691 14.0792C287.302 13.9266 287.676 13.3007 287.524 12.6901C287.371 12.0794 286.745 11.7054 286.134 11.8581C283.385 12.5527 280.804 13.6365 278.315 14.6822C276.345 15.5065 274.306 16.369 272.229 17.0025C271.625 17.1857 271.282 17.8268 271.465 18.4298C271.625 18.9183 272.076 19.2389 272.565 19.2389Z" fill="#002954"/>
<path d="M288.842 28.9015C289.407 28.9015 289.895 28.4817 289.972 27.9092C290.056 27.2833 289.621 26.7033 288.987 26.6193L278.35 25.1844C277.731 25.0928 277.143 25.5355 277.059 26.169C276.975 26.7949 277.411 27.3749 278.044 27.4589L288.689 28.8938C288.735 28.9015 288.788 28.9015 288.842 28.9015Z" fill="#002954"/>
<path d="M286.592 40.1516C287.034 40.1516 287.462 39.8921 287.645 39.457C287.897 38.8769 287.622 38.2053 287.042 37.9534L275.565 33.0685C274.977 32.8166 274.313 33.0914 274.061 33.6715C273.809 34.2515 274.084 34.9232 274.664 35.1751L286.141 40.06C286.294 40.1211 286.446 40.1516 286.592 40.1516Z" fill="#002954"/>
<path d="M112.245 32.1825C113.437 32.7091 116.399 34.1365 119.874 36.6247C125.952 40.9753 133.619 48.5698 136.162 60.2784C138.475 70.9488 137.842 78.4823 136.704 83.2527C136.772 83.1993 136.811 83.1687 136.811 83.1687C136.811 83.1687 142.706 74.9789 138.628 56.2025C136.291 45.4557 129.259 38.4871 123.684 34.4952C119.53 31.5185 116.178 30.198 116.178 30.198C116.178 30.198 114.666 30.8849 112.245 32.1825Z" fill="white"/>
<g clipPath="url(#clip0_1158_4177)">
<path d="M408 21.6851L413.496 22.8631C415.412 23.2742 416.911 24.7711 417.322 26.6892L418.5 32.1851L419.678 26.6892C420.089 24.7728 421.586 23.2742 423.504 22.8631L429 21.6851L423.504 20.507C421.587 20.0959 420.089 18.599 419.678 16.6809L418.5 11.1851L417.322 16.6809C416.911 18.5973 415.414 20.0959 413.496 20.507L408 21.6851Z" fill="#93B4EF"/>
</g>
<path d="M322.5 106.185C325.537 106.185 328 103.723 328 100.685C328 97.6475 325.537 95.1851 322.5 95.1851C319.462 95.1851 317 97.6475 317 100.685C317 103.723 319.462 106.185 322.5 106.185Z" fill="#D8E6FF"/>
<g clipPath="url(#clip1_1158_4177)">
<path d="M433.054 240.328L444.053 242.685C447.889 243.508 450.888 246.504 451.711 250.343L454.069 261.342L456.426 250.343C457.249 246.507 460.245 243.508 464.084 242.685L475.083 240.328L464.084 237.97C460.248 237.147 457.249 234.151 456.426 230.312L454.069 219.313L451.711 230.312C450.888 234.148 447.892 237.147 444.053 237.97L433.054 240.328Z" fill="#93B4EF"/>
</g>
<rect x="639.283" y="41.1362" width="192.134" height="8.00556" transform="rotate(138.024 639.283 41.1362)" fill="url(#paint0_linear_1158_4177)" fill-opacity="0.5"/>
<rect x="556.19" y="317.136" width="192.134" height="8.00556" transform="rotate(138.024 556.19 317.136)" fill="url(#paint1_linear_1158_4177)" fill-opacity="0.5"/>
<path d="M384.008 207.017C390.64 207.017 396.017 201.64 396.017 195.008C396.017 188.376 390.64 183 384.008 183C377.376 183 372 188.376 372 195.008C372 201.64 377.376 207.017 384.008 207.017Z" fill="#D8E6FF"/>
<defs>
<linearGradient id="paint0_linear_1158_4177" x1="639.283" y1="45.139" x2="831.416" y2="45.1391" gradientUnits="userSpaceOnUse">
<stop stop-color="#F8FAFF"/>
<stop offset="1" stop-color="#C9E6FF"/>
</linearGradient>
<linearGradient id="paint1_linear_1158_4177" x1="556.19" y1="321.139" x2="748.324" y2="321.139" gradientUnits="userSpaceOnUse">
<stop stop-color="#F8FAFF"/>
<stop offset="1" stop-color="#C9E6FF"/>
</linearGradient>
<clipPath id="clip0_1158_4177">
<rect width="21" height="21" fill="white" transform="translate(408 11.1851)"/>
</clipPath>
<clipPath id="clip1_1158_4177">
<rect width="42.0292" height="42.0292" fill="white" transform="translate(433.054 219.313)"/>
</clipPath>
</defs>
</svg>
