<svg width="640" height="447" viewBox="0 0 640 447" fill="none" xmlns="http://www.w3.org/2000/svg">
<path fill-rule="evenodd" clip-rule="evenodd" d="M372 438.637H0.000244141C17.5855 352.005 94.1781 286.8 186 286.8C277.822 286.8 354.415 352.005 372 438.637Z" fill="#FFB000"/>
<path d="M181.282 167.967C181.282 167.967 238.858 190.147 246.441 203.977C254.023 217.816 272.709 305.263 272.709 305.263C272.709 305.263 300.733 322.398 302.528 328.947C304.322 335.496 305.215 338.916 295.8 342.762C286.377 346.609 244.173 354.051 235.01 346.136C225.846 338.221 203.152 244.141 198.227 240.195C193.301 236.248 142.232 223.013 142.232 223.013C128.815 217.068 171.058 157.632 181.282 167.967Z" fill="#F7FAFF"/>
<path d="M242.134 290.747C250.877 289.06 260.262 285.343 266.905 279.069C270.326 294.074 272.716 305.272 272.716 305.272C272.716 305.272 300.733 322.399 302.528 328.948C304.322 335.497 305.215 338.916 295.8 342.763C286.377 346.61 244.173 354.052 235.01 346.137C230.489 342.237 222.693 317.407 215.347 292.754C216.439 292.54 217.531 292.311 218.623 292.067C226.457 292.708 234.345 292.25 242.134 290.747Z" fill="#5071E7"/>
<path d="M14.7629 92.5564C15.5341 100.937 18.8482 129.163 30.5008 158.289C42.4283 188.102 67.3066 221.495 74.2172 230.479C75.3244 231.921 77.1723 232.616 78.9821 232.257C85.5033 230.952 92.5819 228.975 99.798 226.495C118.667 219.991 138.444 210.061 151.723 199.925L80.9904 59.7741L79.2341 56.3013C58.6015 62.1097 33.685 74.9174 16.5421 88.4577C15.2898 89.45 14.6178 90.9918 14.7629 92.5564Z" fill="#5071E7"/>
<path d="M44.1922 174.813C48.9342 168.508 53.1951 161.868 57.1506 155.052C70.8879 131.345 81.4485 105.806 91.3067 80.2136L151.723 199.924C138.444 210.061 118.667 219.998 99.798 226.494C92.5895 228.974 85.5109 230.951 78.9821 232.256C77.1723 232.615 75.3244 231.921 74.2172 230.478C68.9407 223.609 53.1722 202.497 40.7025 179.622C42.0541 178.209 43.2224 176.614 44.1922 174.813Z" fill="#5071E7"/>
<path d="M39.3204 87.5874C40.0917 95.9757 43.4057 124.194 55.0583 153.32C66.9859 183.126 91.8641 216.518 98.7671 225.51C99.0573 225.899 99.4085 226.227 99.798 226.494C118.667 219.991 138.444 210.061 151.723 199.925L80.9904 59.7739C66.6193 66.2235 52.2177 74.6958 41.0996 83.481C39.8397 84.4809 39.1677 86.015 39.3204 87.5874Z" fill="#3B5BCB"/>
<path d="M48.0418 68.589C48.0877 93.8837 69.1174 114.339 94.9578 114.232C120.752 114.126 141.507 93.5631 141.362 68.3524C141.225 43.1951 120.309 22.8541 94.6141 22.877C68.8653 22.8922 47.9884 43.3402 48.0418 68.589Z" fill="#F7FAFF"/>
<path d="M187.153 249.034C190.75 254.72 192.987 259.62 192.849 262.88C192.239 278.069 163.703 359.066 163.703 359.066C163.703 359.066 178.799 385.704 177.028 391.833C175.256 397.955 174.286 401.13 164.413 400.13C154.471 399.123 114.175 386.414 110.159 375.675C106.119 364.867 134.609 275.077 132.296 269.306C129.974 263.513 86.2578 224.556 86.2578 224.556C60.3563 199.353 131.7 190.079 142.07 196.277C142.077 196.262 173.889 228.052 187.153 249.034C190.75 254.728 187.153 249.034 187.153 249.034Z" fill="#F7FAFF"/>
<path d="M134.849 328.505C139.858 331.741 145.746 334.603 151.61 335.748C158.07 337.008 164.225 336.733 170.723 336.657C170.96 336.657 171.189 336.649 171.418 336.634C167.02 349.647 163.706 359.058 163.706 359.058C163.706 359.058 178.802 385.696 177.031 391.825C175.259 397.947 174.289 401.122 164.416 400.122C154.474 399.115 114.178 386.406 110.162 375.667C108.062 370.049 114.759 343.06 121.349 317.644C125.556 321.643 130 325.375 134.849 328.505Z" fill="#5071E7"/>
<path d="M182.383 180.363C182.383 180.363 170.081 126.927 163.674 114.859C159.093 106.242 153.48 97.8156 146.654 90.7553C139.224 83.0692 132.283 80.5047 121.623 83.3288C105.03 87.7252 88.8183 94.1519 74.3708 103.456C60.9085 112.134 45.3385 124.56 44.8193 141.803C44.491 152.679 52.2416 162.342 57.4035 171.379C65.7421 185.981 74.661 200.284 83.7784 214.45C84.3664 215.366 84.962 216.29 85.5577 217.206C85.5577 217.206 140.423 212.786 147.081 210.581C153.732 208.375 182.383 180.363 182.383 180.363Z" fill="#F7FAFF"/>
<path d="M95.3605 156.327C95.391 156.762 95.414 157.182 95.414 157.602C95.4674 172.737 74.9875 179.721 62.64 179.805C57.3864 179.843 40.7398 177.271 40.7322 172.211L46.0393 162.197C47.2916 159.991 49.9336 161.319 51.0485 160.044C57.6613 152.419 65.2974 151.656 65.5035 151.465C69.2299 147.977 74.0101 143.748 80.3862 143.718C87.7626 143.68 94.826 149.328 95.3605 156.327Z" fill="#5071E7"/>
<path d="M104.593 152.068C104.685 152.686 104.73 153.319 104.738 153.961C104.761 160.418 100.34 167.608 93.7575 167.654C88.4122 167.684 84.1666 163.509 84.1437 156.464C84.1284 150.961 91.9706 133.184 101.814 133.131C107.174 133.101 110.297 136.673 110.312 141.077C110.335 146.916 104.524 148.198 104.54 151.32C104.532 151.564 104.555 151.816 104.593 152.068Z" fill="#5071E7"/>
<path d="M169.553 149.122C169.537 147.023 172.981 128.002 172.981 128.002C172.981 128.002 181.144 120.583 184.687 117.759C188.23 114.935 237.842 81.8702 237.842 81.8702L254.641 72.4896L259.696 49.2329L241.958 37.532L232.207 41.7223L210.879 52.2172L164.062 75.0542L128.738 83.2211L169.553 149.122Z" fill="#F7FAFF"/>
<path d="M267.908 15.8636C267.908 15.8636 290.258 15.0316 291.961 18.5808C293.664 22.13 293.038 25.1831 290.892 27.0073C288.747 28.8315 277.338 27.0225 277.338 27.0225L264.754 29.1291L267.908 15.8636Z" fill="#5071E7"/>
<path d="M266.44 22.7246C266.44 22.7246 288.402 27.2279 289.188 31.0748C289.975 34.9216 288.615 37.7304 286.08 38.9898C283.545 40.2492 272.877 35.7841 272.877 35.7841L260.11 34.8377L266.44 22.7246Z" fill="#5071E7"/>
<path d="M262.902 27.0452C262.902 27.0452 284.275 33.8306 284.642 37.7309C285.009 41.6388 283.344 44.2874 280.679 45.2644C278.014 46.249 267.881 40.6847 267.881 40.6847L255.266 38.4026L262.902 27.0452Z" fill="#5071E7"/>
<path d="M250.052 71.6353C244.157 66.8344 239.706 42.1351 241.951 37.5326C246.777 27.6406 255.337 14.0011 257.719 12.589C261.178 10.5358 283.964 -1.20321 286.904 1.11712C289.844 3.43745 292.242 6.71186 289.363 9.7115C286.484 12.7188 275.564 17.2297 275.564 17.2297L266.577 34.7467C266.577 34.7467 264.53 51.5996 256.742 53.1261C253.672 53.7215 252.565 73.6809 250.052 71.6353Z" fill="#5071E7"/>
<path d="M254.642 72.49C256.803 72.1084 258.941 70.9177 260.629 69.8033C263.095 68.1852 265.508 66.0939 266.631 63.3156C269.097 57.2094 268.494 48.5005 269.105 46.3863C269.716 44.272 273.999 32.2124 271.953 29.1059C269.899 26.0071 264.447 23.7707 261.094 29.1212C257.735 34.4717 258.544 38.8147 257.04 40.6847C254.52 43.8217 251.381 46.2336 249.381 49.821C246.762 54.5075 246.334 60.7663 247.227 65.9946C247.678 68.6508 248.8 71.681 251.756 72.429C252.695 72.6732 253.672 72.6656 254.642 72.49Z" fill="#5071E7"/>
<path d="M85.8193 146.199C85.7048 146.199 85.6208 146.229 85.5292 146.229C82.3373 146.245 82.2991 130.109 72.2882 130.155C68.7833 130.17 65.3929 132.521 65.4005 136.215C65.4082 139.459 67.8364 142.772 67.8441 146.115C67.8517 147.878 67.2485 149.901 65.3547 149.916C61.9414 149.939 60.8036 137.795 52.5567 137.841C48.8227 137.864 46.6617 140.589 46.6693 143.947C46.6769 147.634 52.9309 153.885 52.9309 156.037C52.9309 156.816 52.4651 157.518 51.7396 157.518C48.7692 157.533 43.508 151.648 39.2929 151.671C36.3377 151.687 33.7109 154.488 33.7109 157.075C33.7186 161.365 42.9734 163.563 42.9811 165.944C42.9811 166.471 42.4695 166.662 41.9273 166.67C40.4383 166.677 37.8344 165.441 35.6199 165.448C32.6953 165.464 29.8165 167.608 29.8242 170.41C29.8318 176.096 41.1561 177.401 45.0275 177.378C70.1425 177.21 44.8901 159.373 80.3672 149.954C82.5816 149.359 84.4143 147.939 85.8193 146.199Z" fill="#5071E7"/>
<path d="M95.2153 104.577C99.2318 105.241 103.615 104.745 108.021 103.569C123.568 99.4249 139.291 86.8004 139.291 86.8004C139.291 86.8004 145.812 77.7404 141.306 56.9643C138.726 45.0726 130.944 37.3636 124.767 32.9519C120.17 29.6546 116.459 28.1968 116.459 28.1968C116.459 28.1968 105.784 33.0359 94.9786 41.4242C84.1506 49.8201 75.8884 60.9791 72.7882 74.0691C69.6727 87.1897 76.9957 101.57 95.2153 104.577Z" fill="#92AFE4"/>
<path d="M108.012 103.571C123.559 99.426 139.282 86.8016 139.282 86.8016C139.282 86.8016 145.803 77.7416 141.298 56.9655C138.717 45.0738 130.936 37.3648 124.758 32.9531C121.085 35.1208 116.649 37.9678 112.189 41.433C101.361 49.829 93.0913 60.9879 89.9987 74.0779C87.1581 86.0689 93.0379 99.1284 108.012 103.571Z" fill="#A7C4FA"/>
<path d="M156.724 113.958L137.374 123.797L153.723 167.066L171.958 157.159L156.724 113.958Z" fill="#A7C4FA"/>
<path d="M135.376 126.132L115.973 136.001L132.321 179.34L150.602 169.402L135.376 126.132Z" fill="#A7C4FA"/>
<path d="M254.873 346.052C255.194 346.052 255.507 346.052 255.828 346.045C269.695 345.862 284.768 341.87 300.644 334.184C301.216 333.909 301.453 333.222 301.178 332.657C300.903 332.085 300.216 331.848 299.651 332.123C284.089 339.664 269.336 343.579 255.805 343.755C249.627 343.839 243.717 343.114 238.226 341.602C237.616 341.435 236.989 341.793 236.821 342.404C236.653 343.015 237.012 343.64 237.623 343.808C243.03 345.304 248.833 346.052 254.873 346.052Z" fill="#3D7CB3"/>
<path d="M170.34 396.756C170.882 396.756 171.364 396.367 171.463 395.817C171.577 395.191 171.165 394.596 170.546 394.481C159.344 392.428 135.581 385.078 116.01 373.255C115.468 372.927 114.765 373.102 114.437 373.644C114.108 374.186 114.284 374.888 114.826 375.216C134.657 387.192 158.764 394.642 170.127 396.733C170.195 396.748 170.272 396.756 170.34 396.756Z" fill="#3D7CB3"/>
<path d="M136.168 268.299C136.237 268.299 136.298 268.291 136.366 268.284L136.939 268.184C138.176 267.963 139.245 267.772 140.475 267.757C141.108 267.749 141.612 267.23 141.612 266.597C141.605 265.963 141.101 265.467 140.459 265.467C139.039 265.483 137.825 265.696 136.542 265.925L135.977 266.024C135.351 266.131 134.938 266.727 135.045 267.353C135.137 267.902 135.626 268.299 136.168 268.299Z" fill="#3D7CB3"/>
<path d="M134.642 266.313C134.978 266.313 135.314 266.168 135.535 265.885C135.779 265.58 136.169 265.114 136.627 264.572C138.536 262.306 140.292 260.184 140.873 259.024C141.155 258.459 140.926 257.772 140.361 257.489C139.796 257.207 139.109 257.436 138.826 258.001C138.322 259.008 136.169 261.573 134.878 263.099C134.405 263.664 134 264.145 133.748 264.458C133.351 264.954 133.435 265.672 133.931 266.068C134.145 266.229 134.397 266.313 134.642 266.313Z" fill="#3D7CB3"/>
<path d="M202.985 239.516C203.191 239.516 203.39 239.462 203.58 239.348C204.054 239.058 204.482 238.722 204.886 238.401C205.596 237.836 206.207 237.356 206.925 237.226C207.551 237.119 207.964 236.524 207.857 235.898C207.75 235.272 207.154 234.852 206.536 234.967C205.245 235.188 204.298 235.936 203.466 236.6C203.099 236.89 202.748 237.172 202.389 237.386C201.847 237.714 201.679 238.417 202 238.958C202.214 239.317 202.595 239.516 202.985 239.516Z" fill="#3D7CB3"/>
<path d="M201.448 237.043C201.738 237.043 202.036 236.928 202.257 236.707C202.921 236.035 203.486 235.12 203.777 234.257C203.975 233.654 203.647 233.013 203.043 232.814C202.44 232.616 201.799 232.944 201.6 233.547C201.425 234.074 201.05 234.677 200.638 235.097C200.195 235.547 200.195 236.272 200.646 236.715C200.867 236.928 201.157 237.043 201.448 237.043Z" fill="#3D7CB3"/>
<path d="M178.631 237.493C178.883 237.493 179.143 237.409 179.357 237.234C179.846 236.837 179.922 236.112 179.525 235.623C169.987 223.93 154.517 206.573 142.276 196.162C141.795 195.75 141.07 195.811 140.657 196.292C140.245 196.773 140.306 197.498 140.787 197.903C152.906 208.214 168.269 225.441 177.746 237.066C177.967 237.348 178.295 237.493 178.631 237.493Z" fill="#002954"/>
<path d="M92.6959 130.468C92.8563 130.468 93.009 130.438 93.1617 130.369C93.742 130.109 93.994 129.43 93.7344 128.858C89.6873 119.836 81.5549 112.699 71.9869 109.768C71.3837 109.585 70.7422 109.921 70.559 110.524C70.3757 111.127 70.7117 111.768 71.3226 111.951C80.272 114.691 87.8699 121.362 91.6574 129.789C91.8407 130.216 92.2606 130.468 92.6959 130.468Z" fill="#002954"/>
<path d="M157.128 106.524C157.258 106.524 157.388 106.501 157.51 106.455C158.105 106.242 158.419 105.593 158.205 104.99C155.311 96.8381 151.561 87.656 143.62 81.8017C143.108 81.4277 142.39 81.5346 142.016 82.046C141.642 82.5574 141.749 83.2748 142.261 83.6488C149.683 89.1215 153.272 97.9296 156.051 105.761C156.219 106.226 156.662 106.524 157.128 106.524Z" fill="#002954"/>
<path d="M149.135 96.5319C149.242 96.5319 149.341 96.5166 149.448 96.4861C150.059 96.3105 150.41 95.677 150.235 95.074C149.471 92.3721 147.753 90.4715 146.096 88.6244C145.668 88.1512 144.95 88.1131 144.477 88.5405C144.004 88.9603 143.965 89.6854 144.393 90.1586C145.943 91.8836 147.409 93.5093 148.028 95.6999C148.18 96.2037 148.639 96.5319 149.135 96.5319Z" fill="#002954"/>
<path d="M91.5625 110.309C91.6694 110.309 91.7763 110.309 91.8832 110.309C111.584 110.226 129.689 102.814 141.556 89.9608C141.983 89.4952 141.953 88.7701 141.487 88.3427C141.021 87.9152 140.296 87.9458 139.868 88.4037C128.429 100.792 110.935 107.936 91.8679 108.012C85.1406 108.043 78.5354 107.195 72.1593 105.493C71.556 105.325 70.9222 105.692 70.7619 106.302C70.6015 106.913 70.9604 107.539 71.5713 107.707C78.0467 109.439 84.7664 110.309 91.5625 110.309Z" fill="#002954"/>
<path d="M95.1393 114.805C95.2157 114.805 95.2997 114.798 95.3761 114.782L97.4378 114.347C113.26 111.019 129.624 107.577 140.895 95.5327C141.33 95.0672 141.299 94.3497 140.841 93.9146C140.383 93.4796 139.658 93.5101 139.222 93.968C128.448 105.478 112.443 108.844 96.972 112.103L94.9026 112.538C94.2841 112.668 93.887 113.279 94.0168 113.897C94.139 114.439 94.6125 114.805 95.1393 114.805Z" fill="#002954"/>
<path d="M65.719 93.5336C68.6207 93.526 70.8733 91.0225 70.8657 87.8396C70.8581 84.0462 67.6509 79.7032 64.4972 77.3676C63.5045 76.6349 62.13 76.2151 60.7326 76.2151C57.388 76.2227 55.4103 78.398 55.4179 82.0312C55.4256 84.7942 56.8917 87.9007 59.3505 90.3355C61.397 92.3658 63.7183 93.5336 65.719 93.5336ZM60.7326 78.4973C61.6337 78.4973 62.5348 78.7644 63.1304 79.2071C65.7648 81.1534 68.5596 84.84 68.5673 87.8396C68.5749 89.473 67.4829 91.2362 65.7266 91.2438C64.3521 91.2438 62.5348 90.2745 60.9617 88.7098C58.9611 86.7176 57.7164 84.1607 57.7088 82.0236C57.7011 78.5125 59.969 78.5049 60.7174 78.5049C60.725 78.4973 60.725 78.4973 60.7326 78.4973Z" fill="#002954"/>
<path d="M66.8274 181.035C66.8885 181.035 66.942 181.035 67.003 181.035C78.0448 180.958 86.9942 173.898 92.7747 168.593C93.5154 167.914 94.8059 167.464 96.1728 166.975C98.7843 166.052 102.03 164.907 102.847 161.403C102.992 160.785 102.61 160.175 101.991 160.03C101.373 159.885 100.762 160.266 100.617 160.884C100.082 163.167 97.8145 163.968 95.4168 164.815C93.8209 165.38 92.3166 165.907 91.2322 166.907C82.3744 175.043 74.8987 178.691 66.9954 178.745C66.2776 178.752 65.5598 178.722 64.8421 178.669C64.2159 178.615 63.6585 179.088 63.605 179.722C63.5516 180.355 64.025 180.905 64.6588 180.951C65.3766 181.004 66.102 181.035 66.8274 181.035Z" fill="#002954"/>
<path d="M79.8961 122.698C80.1557 122.698 80.423 122.606 80.6368 122.423C81.1179 122.011 81.1713 121.286 80.759 120.805C78.239 117.859 74.7494 115.783 71.1909 115.096C70.5648 114.974 69.9692 115.386 69.847 116.004C69.7248 116.622 70.1372 117.225 70.7557 117.347C73.8101 117.935 76.8264 119.736 79.0179 122.293C79.2546 122.56 79.5754 122.698 79.8961 122.698Z" fill="#002954"/>
<path d="M99.7972 149.031C99.8201 149.031 99.8354 149.031 99.8583 149.031C102.103 149.015 104.157 148.252 105.631 146.878C106.089 146.443 106.12 145.726 105.685 145.26C105.249 144.794 104.532 144.771 104.066 145.207C103.012 146.191 101.515 146.733 99.8507 146.741C97.9264 146.741 94.3222 145.962 93.9327 143.001C93.8487 142.375 93.2608 141.932 92.6499 142.016C92.0237 142.1 91.5808 142.672 91.6648 143.298C92.1764 147.244 96.2312 149.031 99.7972 149.031Z" fill="#002954"/>
<path d="M73.7828 142.725C73.798 142.725 73.8133 142.725 73.8286 142.725C76.2874 142.71 78.1353 141.802 79.1738 140.084C79.5022 139.542 79.3265 138.84 78.7844 138.512C78.2422 138.184 77.5397 138.352 77.2114 138.901C76.6005 139.909 75.4551 140.428 73.8133 140.435C73.0802 140.443 72.2785 140.336 71.4919 140.13C70.8811 139.977 70.2549 140.344 70.0945 140.954C69.9342 141.565 70.3083 142.191 70.9192 142.351C71.889 142.595 72.8741 142.725 73.7828 142.725Z" fill="#002954"/>
<path d="M159.634 204.1C160.191 204.1 160.68 203.688 160.764 203.123C163.757 182.721 180.274 171.501 183.535 169.952C183.833 170.188 184.237 170.272 184.627 170.142C185.222 169.936 185.543 169.288 185.337 168.685C185.093 167.967 184.466 167.524 183.71 167.524C181.557 167.54 161.864 179.851 158.496 202.795C158.404 203.421 158.84 204.001 159.466 204.093C159.519 204.093 159.58 204.1 159.634 204.1Z" fill="#002954"/>
<path d="M153.237 196.072C153.619 196.072 153.993 195.881 154.215 195.53C160.552 185.264 168.441 172.494 181.2 167.006C181.781 166.754 182.048 166.083 181.804 165.503C181.552 164.923 180.88 164.655 180.299 164.9C166.875 170.67 158.781 183.783 152.275 194.324C151.939 194.866 152.107 195.568 152.649 195.896C152.825 196.018 153.031 196.072 153.237 196.072Z" fill="#002954"/>
<path d="M98.4781 239.47C98.5163 239.47 98.5469 239.47 98.5851 239.463C99.2189 239.402 99.677 238.845 99.6159 238.219C99.5548 237.57 99.5243 236.906 99.5167 236.249C99.4479 217.664 124.54 203.322 137.124 203.231C137.628 203.231 138.147 203.238 138.651 203.269C139.293 203.299 139.827 202.826 139.866 202.192C139.904 201.559 139.423 201.017 138.789 200.979C138.239 200.948 137.674 200.933 137.109 200.933C129.893 200.987 120.05 204.986 112.025 211.115C102.441 218.435 97.1877 227.365 97.2258 236.249C97.2258 236.975 97.264 237.707 97.3327 238.425C97.3938 239.028 97.8902 239.47 98.4781 239.47Z" fill="#002954"/>
<path d="M97.4001 221.442C97.843 221.442 98.263 221.19 98.4463 220.763C104.143 207.871 118.063 199.139 133.091 199.025H133.511C134.145 199.025 134.656 198.514 134.664 197.888C134.664 197.254 134.16 196.743 133.526 196.735H133.076C117.162 196.857 102.409 206.139 96.354 219.832C96.102 220.412 96.3616 221.083 96.9419 221.343C97.087 221.404 97.2474 221.442 97.4001 221.442Z" fill="#002954"/>
<path d="M87.245 200.688C87.306 200.688 87.3748 200.681 87.4359 200.673C102.647 198.124 116.636 190.934 128.319 184.24C128.869 183.927 129.06 183.225 128.747 182.675C128.434 182.126 127.731 181.935 127.182 182.248C115.674 188.842 101.914 195.918 87.0541 198.406C86.4279 198.513 86.0079 199.101 86.1148 199.726C86.2141 200.291 86.6952 200.688 87.245 200.688Z" fill="#002954"/>
<path d="M117.263 182.087C119.958 181.072 122.738 180.027 125.342 178.294C125.869 177.943 126.014 177.233 125.663 176.706C125.311 176.18 124.601 176.035 124.074 176.386C121.684 177.973 119.141 178.935 116.461 179.943L117.263 182.087Z" fill="#002954"/>
<path d="M170.589 126.895C171.185 126.895 171.689 126.429 171.727 125.826C171.888 123.513 171.956 121.208 171.949 118.98C171.849 103.928 167.848 91.8149 160.059 82.9839C159.639 82.5106 158.914 82.4648 158.44 82.8846C157.967 83.3044 157.921 84.0295 158.341 84.5028C165.756 92.9063 169.559 104.516 169.658 119.002C169.673 121.178 169.604 123.422 169.444 125.681C169.398 126.315 169.879 126.856 170.505 126.902C170.544 126.895 170.567 126.895 170.589 126.895Z" fill="#002954"/>
<path d="M213.322 93.4262C213.376 93.4262 213.421 93.4262 213.475 93.4186C214.101 93.3346 214.544 92.7545 214.46 92.1287C214.101 89.4572 213.399 87.2666 212.322 85.4424C212.001 84.9005 211.291 84.7173 210.757 85.0379C210.214 85.3585 210.031 86.0607 210.352 86.6026C211.268 88.1597 211.871 90.0602 212.192 92.434C212.268 93.0064 212.757 93.4262 213.322 93.4262Z" fill="#002954"/>
<path d="M208.629 94.2592C208.736 94.2592 208.85 94.244 208.957 94.2134C209.56 94.0303 209.911 93.3968 209.728 92.7861C209.201 91.023 208.285 89.7331 207.323 88.3668C207.14 88.1073 206.956 87.8478 206.765 87.573C206.407 87.054 205.696 86.9242 205.169 87.2753C204.65 87.6341 204.513 88.3439 204.872 88.8706C205.063 89.153 205.253 89.4201 205.444 89.6873C206.338 90.9467 207.109 92.0381 207.529 93.4425C207.682 93.9387 208.132 94.2592 208.629 94.2592Z" fill="#002954"/>
<path d="M233.237 214.213C233.535 214.213 233.825 214.099 234.047 213.878C235.895 212.023 238.239 210.985 240.728 209.886C242.393 209.145 244.119 208.39 245.722 207.352C246.249 207.008 246.402 206.298 246.058 205.772C245.715 205.237 245.005 205.092 244.47 205.436C243.019 206.375 241.454 207.069 239.797 207.802C237.223 208.939 234.558 210.115 232.413 212.275C231.97 212.725 231.97 213.45 232.42 213.893C232.649 214.099 232.94 214.213 233.237 214.213Z" fill="#002954"/>
<path d="M232.36 209.274C232.696 209.274 233.032 209.129 233.261 208.839C234.536 207.236 236.422 206.32 238.43 205.343C239.553 204.801 240.706 204.236 241.813 203.527C242.348 203.183 242.5 202.473 242.157 201.947C241.813 201.412 241.103 201.26 240.576 201.603C239.584 202.237 238.492 202.771 237.43 203.282C235.284 204.32 233.07 205.397 231.474 207.412C231.085 207.908 231.161 208.625 231.657 209.022C231.856 209.19 232.108 209.274 232.36 209.274Z" fill="#002954"/>
<path d="M187.526 264.215C187.595 264.215 187.664 264.215 187.725 264.215C188.359 264.208 188.863 263.689 188.863 263.055C188.855 262.429 188.344 261.926 187.717 261.926C187.656 261.926 187.588 261.926 187.519 261.926C185.587 261.926 183.724 261.628 181.746 261.307C179.707 260.979 177.607 260.628 175.408 260.666C174.774 260.674 174.27 261.193 174.27 261.819C174.278 262.452 174.79 262.956 175.423 262.956C177.409 262.933 179.341 263.246 181.379 263.574C183.365 263.887 185.404 264.215 187.526 264.215Z" fill="#002954"/>
<path d="M186.554 257.048C186.951 257.048 187.333 256.842 187.547 256.476C187.868 255.926 187.677 255.232 187.135 254.911C185.294 253.843 183.431 253.705 181.644 253.728C181.24 253.736 180.827 253.743 180.415 253.759C180.018 253.774 179.613 253.781 179.208 253.789C178.628 253.797 178.147 253.781 177.704 253.743C177.086 253.682 176.521 254.163 176.475 254.797C176.421 255.43 176.895 255.98 177.528 256.025C178.04 256.064 178.582 256.079 179.239 256.079C179.659 256.071 180.071 256.064 180.491 256.048C180.888 256.033 181.278 256.025 181.675 256.018C183.332 256.003 184.706 256.148 185.989 256.888C186.157 256.995 186.356 257.048 186.554 257.048Z" fill="#002954"/>
<path d="M168.643 337.061C169.276 337.061 169.788 336.55 169.788 335.924C169.788 335.29 169.284 334.779 168.65 334.771C149.11 334.68 133.937 330.1 123.552 321.155C123.071 320.743 122.353 320.796 121.933 321.277C121.521 321.758 121.574 322.475 122.055 322.895C132.868 332.192 148.537 336.962 168.643 337.061Z" fill="#002954"/>
<path d="M217.808 294.594C217.831 294.594 217.854 294.594 217.877 294.594C234.859 293.549 251.605 289.32 266.32 282.359C266.893 282.092 267.137 281.405 266.862 280.833C266.595 280.26 265.908 280.016 265.335 280.291C250.88 287.122 234.424 291.282 217.732 292.312C217.098 292.35 216.617 292.892 216.655 293.526C216.709 294.121 217.213 294.594 217.808 294.594Z" fill="#002954"/>
<path d="M57.296 166.792C57.4793 166.792 57.6702 166.746 57.8458 166.655C60.4955 165.204 62.3816 163.044 64.199 160.953C64.7106 160.365 65.2222 159.778 65.7491 159.205C67.2993 157.518 69.9184 157.03 72.6903 156.518C76.684 155.77 81.2121 154.931 82.2048 149.825C82.327 149.206 81.9223 148.603 81.2961 148.481C80.6776 148.359 80.0744 148.764 79.9522 149.39C79.3031 152.725 76.6152 153.458 72.2703 154.267C69.2541 154.832 66.1386 155.412 64.0692 157.656C63.5194 158.251 62.9925 158.854 62.4733 159.449C60.7093 161.48 59.037 163.395 56.7462 164.647C56.1888 164.952 55.9902 165.647 56.2881 166.204C56.5019 166.578 56.8913 166.792 57.296 166.792Z" fill="#002954"/>
<path d="M54.0842 149.374C54.1835 149.374 54.2827 149.359 54.3896 149.336C57.8717 148.382 58.6047 146.55 58.5971 145.183C58.5971 144.993 58.5818 144.787 58.5437 144.573C58.4444 143.947 57.8488 143.52 57.2302 143.619C56.6041 143.718 56.1765 144.306 56.2757 144.932C56.291 145.023 56.2986 145.107 56.2986 145.183C56.2986 146.222 54.9318 146.809 53.7788 147.122C53.1679 147.29 52.809 147.916 52.977 148.527C53.1144 149.038 53.5802 149.374 54.0842 149.374Z" fill="#002954"/>
<path d="M41.0541 160.96C41.161 160.96 41.2755 160.945 41.3824 160.915C42.5126 160.571 45.5288 159.671 45.9946 156.862C46.1015 156.236 45.6815 155.648 45.0554 155.541C44.4369 155.434 43.8412 155.854 43.7343 156.48C43.5663 157.465 42.6653 158.129 40.7181 158.716C40.1149 158.9 39.7713 159.533 39.9545 160.144C40.1072 160.64 40.5578 160.96 41.0541 160.96Z" fill="#002954"/>
<path d="M35.9757 173.172C36.0979 173.172 36.2201 173.157 36.3346 173.111C38.6865 172.325 39.9847 170.821 39.977 168.883C39.977 168.249 39.4654 167.738 38.8316 167.738C38.1978 167.738 37.6862 168.249 37.6862 168.883C37.6862 169.783 36.9913 170.478 35.6092 170.936C35.0059 171.134 34.6852 171.783 34.8838 172.386C35.0441 172.867 35.4947 173.172 35.9757 173.172Z" fill="#002954"/>
<path d="M48.1832 175.135C48.3893 175.135 48.5955 175.082 48.7864 174.96C50.5351 173.876 50.9551 171.991 51.1155 170.67C51.1918 170.045 50.7489 169.472 50.1228 169.396C49.4966 169.319 48.9239 169.762 48.8475 170.388C48.6719 171.77 48.2824 172.579 47.5799 173.014C47.0454 173.349 46.8774 174.052 47.2134 174.594C47.4272 174.945 47.8014 175.135 48.1832 175.135Z" fill="#002954"/>
<path d="M248.072 73.627C248.477 73.627 248.874 73.4132 249.08 73.024C249.378 72.4668 249.172 71.7722 248.614 71.4745C245.087 69.5664 243.796 64.2006 243.75 60.1858C243.697 54.5834 247.057 50.0496 250.691 45.9891C251.111 45.5158 251.073 44.7907 250.6 44.3709C250.126 43.9511 249.409 43.9893 248.981 44.4625C245.033 48.8666 241.391 53.8278 241.452 60.2087C241.498 64.8494 243.109 71.1082 247.515 73.4896C247.698 73.5812 247.889 73.627 248.072 73.627Z" fill="#002954"/>
<path d="M270.067 47.0269C270.639 47.0269 271.136 46.5995 271.204 46.0118C271.525 43.2869 272.121 41.0658 272.647 39.1042C273.235 36.9366 273.739 35.0589 273.717 33.0973C273.663 27.9682 269.547 24.9075 265.607 24.9075C259.284 24.9151 258.452 29.2886 257.65 33.5248C257.009 36.9213 256.276 40.7758 252.901 43.7144C252.427 44.1265 252.374 44.8516 252.786 45.3325C253.198 45.8057 253.924 45.8591 254.405 45.447C258.383 41.9818 259.223 37.5319 259.903 33.9522C260.766 29.3955 261.369 27.2049 265.607 27.1973C268.402 27.1973 271.388 29.2734 271.433 33.1202C271.449 34.7612 270.983 36.4939 270.441 38.5013C269.891 40.5392 269.272 42.8442 268.936 45.737C268.86 46.3629 269.311 46.9354 269.944 47.0041C269.983 47.027 270.028 47.0269 270.067 47.0269Z" fill="#002954"/>
<path d="M272.565 20.0538C272.679 20.0538 272.786 20.0386 272.901 20.0004C275.085 19.3364 277.177 18.4586 279.201 17.6037C281.614 16.5886 284.111 15.5429 286.692 14.8941C287.303 14.7415 287.677 14.1156 287.524 13.505C287.371 12.8944 286.745 12.5204 286.134 12.673C283.385 13.3676 280.804 14.4515 278.315 15.4971C276.345 16.3215 274.306 17.184 272.229 17.8175C271.626 18.0006 271.282 18.6418 271.465 19.2448C271.626 19.7333 272.076 20.0538 272.565 20.0538Z" fill="#002954"/>
<path d="M288.842 29.7164C289.407 29.7164 289.896 29.2966 289.972 28.7242C290.056 28.0983 289.621 27.5182 288.987 27.4342L278.35 25.9993C277.731 25.9077 277.143 26.3504 277.059 26.9839C276.975 27.6098 277.411 28.1899 278.045 28.2738L288.689 29.7088C288.735 29.7164 288.788 29.7164 288.842 29.7164Z" fill="#002954"/>
<path d="M286.592 40.9665C287.035 40.9665 287.462 40.707 287.646 40.272C287.898 39.6919 287.623 39.0202 287.042 38.7683L275.565 33.8834C274.977 33.6315 274.313 33.9063 274.061 34.4864C273.809 35.0665 274.084 35.7382 274.664 35.99L286.141 40.8749C286.294 40.936 286.447 40.9665 286.592 40.9665Z" fill="#002954"/>
<path d="M112.246 32.9974C113.437 33.5241 116.4 34.9514 119.874 37.4396C125.952 41.7903 133.619 49.3848 136.162 61.0933C138.476 71.7638 137.842 79.2972 136.704 84.0676C136.773 84.0142 136.811 83.9837 136.811 83.9837C136.811 83.9837 142.706 75.7938 138.628 57.0174C136.292 46.2706 129.259 39.302 123.685 35.3101C119.53 32.3334 116.178 31.0129 116.178 31.0129C116.178 31.0129 114.666 31.6999 112.246 32.9974Z" fill="white"/>
<path d="M408 22.5L413.496 23.678C415.412 24.0892 416.911 25.5861 417.322 27.5042L418.5 33L419.678 27.5042C420.089 25.5877 421.586 24.0892 423.504 23.678L429 22.5L423.504 21.322C421.588 20.9108 420.089 19.4139 419.678 17.4958L418.5 12L417.322 17.4958C416.911 19.4123 415.414 20.9108 413.496 21.322L408 22.5Z" fill="#93B4EF"/>
<path d="M322.5 107C325.538 107 328 104.538 328 101.5C328 98.4624 325.538 96 322.5 96C319.462 96 317 98.4624 317 101.5C317 104.538 319.462 107 322.5 107Z" fill="#D8E6FF"/>
<g clip-path="url(#clip0_1158_4177)">
<path d="M433.054 241.143L444.054 243.5C447.889 244.323 450.888 247.319 451.711 251.158L454.069 262.157L456.427 251.158C457.249 247.322 460.245 244.323 464.084 243.5L475.083 241.143L464.084 238.785C460.249 237.962 457.249 234.966 456.427 231.127L454.069 220.128L451.711 231.127C450.888 234.963 447.892 237.962 444.054 238.785L433.054 241.143Z" fill="#93B4EF"/>
</g>
<rect x="639.283" y="41.9512" width="192.134" height="8.00556" transform="rotate(138.024 639.283 41.9512)" fill="url(#paint0_linear_1158_4177)" fill-opacity="0.5"/>
<rect x="556.19" y="317.951" width="192.134" height="8.00556" transform="rotate(138.024 556.19 317.951)" fill="url(#paint1_linear_1158_4177)" fill-opacity="0.5"/>
<defs>
<linearGradient id="paint0_linear_1158_4177" x1="639.283" y1="45.954" x2="831.417" y2="45.954" gradientUnits="userSpaceOnUse">
<stop stop-color="#F8FAFF"/>
<stop offset="1" stop-color="#C9E6FF"/>
</linearGradient>
<linearGradient id="paint1_linear_1158_4177" x1="556.19" y1="321.954" x2="748.324" y2="321.954" gradientUnits="userSpaceOnUse">
<stop stop-color="#F8FAFF"/>
<stop offset="1" stop-color="#C9E6FF"/>
</linearGradient>
<clipPath id="clip0_1158_4177">
<rect width="42.0292" height="42.0292" fill="white" transform="translate(433.054 220.128)"/>
</clipPath>
</defs>
</svg>
