<svg width="81" height="80" viewBox="0 0 81 80" fill="none" xmlns="http://www.w3.org/2000/svg">
<path d="M32.3216 62.591C31.2435 62.5911 30.2063 62.1779 29.4235 61.4364C28.6408 60.6949 28.1721 59.6816 28.1139 58.605C27.8965 54.5793 26.9203 50.9466 25.2126 47.809C24.0123 45.6035 22.8484 44.4237 22.698 44.2761C22.5855 44.1777 22.4782 44.0734 22.3768 43.9636C17.6088 39.3325 14.8818 32.9017 14.8818 26.2562C14.8818 12.646 25.9545 1.57324 39.5648 1.57324C53.175 1.57324 64.2477 12.646 64.2477 26.2562C64.2477 32.9607 61.4719 39.4471 56.6244 44.0873C56.6095 44.1028 56.5947 44.1184 56.5792 44.1335C53.32 47.4187 53.6392 52.2686 53.6645 52.5854C53.9166 54.6079 52.6755 56.4534 50.7275 57.0595L33.5742 62.4005C33.164 62.5279 32.7416 62.591 32.3216 62.591ZM28.6033 38.2646C29.2047 38.8565 30.7788 40.5379 32.3597 43.3215C33.9844 46.183 35.1673 49.4186 35.8613 52.8625L45.3272 49.9151C45.6363 46.7823 46.7634 42.1626 50.4373 38.3617C50.5188 38.2704 50.6048 38.1821 50.6955 38.0968C54.0009 34.9879 55.8211 30.7828 55.8211 26.2562C55.8211 17.2926 48.5287 10.0002 39.5651 10.0002C30.6015 10.0002 23.3091 17.2926 23.3091 26.2562C23.3091 30.7832 25.1294 34.9882 28.4348 38.0964C28.4924 38.151 28.5487 38.2073 28.6033 38.2646Z" fill="#004ED1"/>
<path d="M32.3207 77.6669C30.5251 77.6669 28.8609 76.5097 28.299 74.705C27.6073 72.4833 28.8474 70.1211 31.0695 69.4297L48.2231 64.0887C50.4441 63.3967 52.807 64.6371 53.4984 66.8592C54.1904 69.0808 52.9499 71.4431 50.7279 72.1344L33.5746 77.4755C33.1687 77.6022 32.7459 77.6667 32.3207 77.6669ZM48.127 30.0373C45.8002 30.0373 43.9135 28.151 43.9135 25.8238C43.9135 23.4181 41.9561 21.4607 39.5504 21.4607C37.2235 21.4607 35.3369 19.574 35.3369 17.2472C35.3369 14.9203 37.2235 13.0337 39.5504 13.0337C46.6027 13.0337 52.3405 18.7711 52.3405 25.8238C52.3405 28.151 50.4539 30.0373 48.127 30.0373Z" fill="#FF793A"/>
</svg>
