<svg width="81" height="80" viewBox="0 0 81 80" fill="none" xmlns="http://www.w3.org/2000/svg">
<path d="M73.4885 73.6921H8.96139C6.83739 73.6921 5.11523 71.97 5.11523 69.846V9.99459C5.11523 7.87059 6.83739 6.14844 8.96139 6.14844C11.0854 6.14844 12.8075 7.87059 12.8075 9.99459V65.9998H73.4885C75.6125 65.9998 77.3346 67.722 77.3346 69.846C77.3346 71.97 75.6125 73.6921 73.4885 73.6921Z" fill="#004ED1"/>
<path d="M46.7114 56.5716C39.5904 56.5716 36.994 50.8344 35.276 47.0387C34.6784 45.7182 33.6986 43.5535 32.9882 42.9678C32.7447 42.9866 32.6268 43.0526 32.4756 43.1812C31.2742 44.2028 30.7825 47.179 30.7968 48.472C30.8198 50.6012 28.7899 52.3434 26.2623 52.3628L26.2191 52.3631C23.7109 52.3631 21.6663 50.6602 21.6432 48.543C21.6304 47.3672 21.7787 41.3197 25.973 37.7538C27.899 36.1162 30.3812 35.251 33.1519 35.251C35.3053 35.251 38.3923 35.8982 40.8676 38.9814C42.1476 40.5758 43.0026 42.4647 43.8294 44.2916C44.4482 45.659 45.8971 48.8604 46.7114 48.8604C47.4906 48.8604 48.1061 48.8604 48.8915 47.2598C49.8461 45.3135 50.2961 42.275 50.7721 39.0579C51.7622 32.3692 52.8841 24.7882 59.2867 20.3163C61.2329 18.957 64.1182 19.1846 65.7318 20.8234C67.3451 22.4625 67.0756 24.8934 65.1295 26.2524C61.5192 28.7739 60.6357 34.7443 59.8561 40.0116C59.3014 43.7593 58.7778 47.299 57.3512 50.2055C54.7695 55.467 50.1401 56.5716 46.7114 56.5716Z" fill="#FF793A"/>
</svg>
