<svg width="81" height="80" viewBox="0 0 81 80" fill="none" xmlns="http://www.w3.org/2000/svg">
<path d="M73.7633 48.7702C72.4334 48.0674 71.1599 47.9462 70.8011 47.9258C70.5608 47.9116 70.3197 47.9204 70.0811 47.9523L52.7531 50.2317C50.647 50.5086 49.1642 52.4409 49.4411 54.5465C49.7184 56.6526 51.65 58.1329 53.7559 57.8585L65.7461 56.2812L42.135 66.1188C41.9039 66.2148 41.7577 66.2846 41.5501 66.4237C41.5048 66.452 36.9962 69.2129 32.1285 67.5689C29.0879 66.5418 26.6082 65.8298 24.71 65.4366V47.9902C29.5753 48.5914 37.8802 50.4618 40.3171 56.26C40.3347 56.3018 40.3445 56.3274 40.3513 56.3458C38.8584 56.0892 36.3919 55.2849 34.3196 54.3342C32.3904 53.4455 30.106 54.2892 29.2171 56.2185C28.3285 58.1477 29.1722 60.432 31.1014 61.3209C31.1977 61.3652 33.4885 62.416 36.086 63.2015C37.5962 63.6582 39.4356 64.1142 41.223 64.1142C42.9667 64.1142 44.6605 63.6803 45.9501 62.3905C49.051 59.2886 48.3254 55.2071 47.3667 53.1803C42.8571 42.6425 28.9756 40.5378 23.403 40.1182C21.7882 37.4218 18.839 35.6123 15.4737 35.6123H7.38912C5.26512 35.6123 3.54297 37.3342 3.54297 39.4585C3.54297 41.5825 5.26512 43.3046 7.38912 43.3046H15.4737C16.3107 43.3046 17.0174 44.0114 17.0174 44.848V66.1378C17.0174 66.9748 16.3107 67.6818 15.4737 67.6818H7.38912C5.26512 67.6818 3.54297 69.404 3.54297 71.528C3.54297 73.652 5.26512 75.3742 7.38912 75.3742H15.4737C17.9673 75.3742 20.2319 74.3791 21.8953 72.7671C22.546 72.7785 25.2131 73.352 29.6664 74.8563C31.499 75.475 33.4207 75.7889 35.355 75.7855C40.3064 75.7852 44.1774 73.7898 45.3479 73.1126L71.7448 62.1145C71.7894 62.096 71.8334 62.0766 71.8774 62.0566C72.0919 61.9575 73.219 61.4129 74.3559 60.4077C76.2131 58.7643 77.1953 56.7329 77.1953 54.5323C77.1953 52.0231 75.9442 49.9228 73.7633 48.7702V48.7702Z" fill="#004ED1"/>
<path d="M52.6529 18.7449H44.9228V15.1428H55.4769C57.6009 15.1428 59.3231 13.4209 59.3231 11.2966C59.3231 9.17229 57.6009 7.45044 55.4769 7.45044H52.1231V4.51998C52.1231 2.39598 50.4009 0.673828 48.2769 0.673828C46.1529 0.673828 44.4308 2.39598 44.4308 4.51998V7.45044H43.9C40.2225 7.45044 37.2305 10.4424 37.2305 14.12V19.7674C37.2305 23.4452 40.2225 26.4372 43.9 26.4372H51.6308V30.0391H41.0766C38.9523 30.0391 37.2305 31.7609 37.2305 33.8852C37.2305 36.0095 38.9523 37.7314 41.0766 37.7314H44.4305V40.6621C44.4305 42.7861 46.1526 44.5083 48.2766 44.5083C50.4006 44.5083 52.1228 42.7861 52.1228 40.6621V37.7314H52.6529C56.3308 37.7314 59.3231 34.7394 59.3231 31.0618V25.4144C59.3231 21.7369 56.3308 18.7449 52.6529 18.7449V18.7449Z" fill="#FF793A"/>
</svg>
