<svg width="16" height="16" viewBox="0 0 16 16" fill="none" xmlns="http://www.w3.org/2000/svg">
<path d="M11.1819 5.52531L5.52502 11.1822C5.33174 11.3754 5.01118 11.3754 4.81791 11.1822C4.62463 10.9889 4.62463 10.6683 4.81791 10.4751L10.4748 4.8182C10.668 4.62493 10.9886 4.62493 11.1819 4.8182C11.3751 5.01148 11.3751 5.33204 11.1819 5.52531Z" fill="#30323F"/>
<path d="M11.1819 11.1818C10.9886 11.3751 10.668 11.3751 10.4748 11.1818L4.81791 5.52494C4.62463 5.33166 4.62463 5.01111 4.81791 4.81783C5.01118 4.62456 5.33174 4.62456 5.52502 4.81783L11.1819 10.4747C11.3751 10.668 11.3751 10.9885 11.1819 11.1818Z" fill="#30323F"/>
</svg>
