<svg width="49" height="48" viewBox="0 0 49 48" fill="none" xmlns="http://www.w3.org/2000/svg">
<path d="M40.8603 20.38C39.4217 20.1197 37.9622 19.9925 36.5003 20C35.6603 20 34.8403 20 34.0203 20.16C32.9994 18.7978 31.6964 17.6721 30.2003 16.86C31.4854 15.4565 32.1988 13.623 32.2003 11.72C32.2003 9.67253 31.3869 7.70892 29.9391 6.26114C28.4914 4.81335 26.5277 4 24.4803 4C22.4328 4 20.4692 4.81335 19.0214 6.26114C17.5736 7.70892 16.7603 9.67253 16.7603 11.72C16.7617 13.623 17.4752 15.4565 18.7603 16.86C17.2731 17.6763 15.9721 18.7934 14.9403 20.14C14.1603 20 13.3403 20 12.5003 20C11.0371 20.0057 9.5776 20.1463 8.14027 20.42C7.67435 20.5052 7.25379 20.753 6.95346 21.1192C6.65314 21.4855 6.49254 21.9464 6.50027 22.42V38.92C6.49979 39.2138 6.56406 39.5041 6.6885 39.7703C6.81294 40.0365 6.9945 40.272 7.22027 40.46C7.44461 40.6492 7.70783 40.7866 7.99125 40.8627C8.27468 40.9387 8.57137 40.9515 8.86027 40.9C10.0571 40.6393 11.2758 40.492 12.5003 40.46C16.3745 40.4558 20.1646 41.5893 23.4003 43.72L23.6603 43.82C23.9256 43.9351 24.2111 43.9963 24.5003 44C24.6912 43.9976 24.8804 43.9638 25.0603 43.9H25.2003L25.4603 43.8C28.7267 41.6146 32.5702 40.4518 36.5003 40.46C37.7222 40.4657 38.9409 40.5862 40.1403 40.82C40.4292 40.8715 40.7259 40.8587 41.0093 40.7827C41.2927 40.7066 41.5559 40.5692 41.7803 40.38C42.006 40.192 42.1876 39.9565 42.312 39.6903C42.4365 39.4241 42.5007 39.1338 42.5003 38.84V22.34C42.4986 21.8733 42.3337 21.4218 42.0342 21.0639C41.7346 20.7059 41.3194 20.464 40.8603 20.38ZM24.5003 8C25.4372 8.06884 26.3133 8.48959 26.9528 9.17777C27.5923 9.86594 27.9477 10.7706 27.9477 11.71C27.9477 12.6494 27.5923 13.5541 26.9528 14.2422C26.3133 14.9304 25.4372 15.3512 24.5003 15.42C23.5634 15.3512 22.6872 14.9304 22.0477 14.2422C21.4083 13.5541 21.0528 12.6494 21.0528 11.71C21.0528 10.7706 21.4083 9.86594 22.0477 9.17777C22.6872 8.48959 23.5634 8.06884 24.5003 8ZM22.5003 38.66C19.3656 37.211 15.9536 36.4604 12.5003 36.46C11.8403 36.46 11.1803 36.46 10.5003 36.56V24C12.1774 23.8124 13.8719 23.846 15.5403 24.1H15.7603C18.1435 24.538 20.4272 25.4054 22.5003 26.66V38.66ZM24.5003 23.2C23.6109 22.687 22.6889 22.2327 21.7403 21.84H21.6203C20.9603 21.58 20.3003 21.32 19.6203 21.12C21.0089 20.0147 22.7256 19.4026 24.5003 19.38C26.2702 19.3912 27.9864 19.9891 29.3803 21.08C27.6824 21.6101 26.0464 22.3208 24.5003 23.2ZM38.5003 36.56C34.3936 36.1474 30.2512 36.8378 26.5003 38.56V26.56C28.5771 25.3376 30.8622 24.5103 33.2403 24.12H33.6403C35.2482 23.8696 36.8819 23.8293 38.5003 24V36.56Z" fill="#ccc"/>
</svg>
