<svg width="49" height="48" viewBox="0 0 49 48" fill="none" xmlns="http://www.w3.org/2000/svg">
<path d="M44.5 40H42.5V16H44.5C45.0304 16 45.5391 15.7893 45.9142 15.4142C46.2893 15.0391 46.5 14.5304 46.5 14C46.5 13.4696 46.2893 12.9609 45.9142 12.5858C45.5391 12.2107 45.0304 12 44.5 12H42.5V6C42.5 5.46957 42.2893 4.96086 41.9142 4.58579C41.5391 4.21071 41.0304 4 40.5 4H8.5C7.96957 4 7.46086 4.21071 7.08579 4.58579C6.71071 4.96086 6.5 5.46957 6.5 6V12H4.5C3.96957 12 3.46086 12.2107 3.08579 12.5858C2.71071 12.9609 2.5 13.4696 2.5 14C2.5 14.5304 2.71071 15.0391 3.08579 15.4142C3.46086 15.7893 3.96957 16 4.5 16H6.5V40H4.5C3.96957 40 3.46086 40.2107 3.08579 40.5858C2.71071 40.9609 2.5 41.4696 2.5 42C2.5 42.5304 2.71071 43.0391 3.08579 43.4142C3.46086 43.7893 3.96957 44 4.5 44H44.5C45.0304 44 45.5391 43.7893 45.9142 43.4142C46.2893 43.0391 46.5 42.5304 46.5 42C46.5 41.4696 46.2893 40.9609 45.9142 40.5858C45.5391 40.2107 45.0304 40 44.5 40ZM30.5 40H18.5V32.94C18.4952 30.7964 19.0452 28.6881 20.0966 26.8201C21.148 24.9521 22.665 23.388 24.5 22.28C26.335 23.388 27.852 24.9521 28.9034 26.8201C29.9548 28.6881 30.5048 30.7964 30.5 32.94V40ZM38.5 40H34.5V32.94C34.5134 29.8805 33.6675 26.8787 32.0587 24.2764C30.4499 21.674 28.1428 19.5756 25.4 18.22C25.1208 18.0793 24.8126 18.0061 24.5 18.0061C24.1874 18.0061 23.8792 18.0793 23.6 18.22C20.8572 19.5756 18.5501 21.674 16.9413 24.2764C15.3325 26.8787 14.4866 29.8805 14.5 32.94V40H10.5V16H38.5V40ZM38.5 12H10.5V8H38.5V12Z" fill="#ccc"/>
</svg>
