<svg width="80" height="60" viewBox="0 0 80 60" fill="none" xmlns="http://www.w3.org/2000/svg">
<path d="M14 36.0477L14 33.6667" stroke="#004ED1" stroke-width="3"/>
<path d="M14 32.635V31.2856" stroke="#004ED1" stroke-width="3"/>
<path d="M59.5426 14.0001V15.3494" stroke="#FF793A" stroke-width="3"/>
<path d="M59.5426 16.6987V20.2969" stroke="#FF793A" stroke-width="3"/>
<rect x="23.1292" y="30.8055" width="2.5" height="14.1667" stroke="#FF793A" stroke-width="2.5"/>
<path d="M29.2128 15.5H42.3239C43.7046 15.5 44.8239 16.6193 44.8239 18V44.7222H26.7128V18C26.7128 16.6193 27.8321 15.5 29.2128 15.5Z" stroke="#004ED1" stroke-width="3"/>
<path d="M45.1575 23.2776H56.3242C57.7049 23.2776 58.8242 24.3969 58.8242 25.7776V44.722H45.1575V23.2776Z" stroke="#004ED1" stroke-width="3"/>
<rect x="32.1576" y="21.73" width="7.22222" height="2.77778" stroke="#FF793A" stroke-width="2.77778"/>
<line x1="30.7687" y1="30.3544" x2="40.7687" y2="30.3544" stroke="#004ED1" stroke-width="3"/>
<line x1="48" y1="29.5" x2="56" y2="29.5" stroke="#004ED1" stroke-width="3"/>
<line x1="30.7687" y1="36.6951" x2="40.7687" y2="36.6951" stroke="#004ED1" stroke-width="3"/>
<line x1="48" y1="36.5" x2="56" y2="36.5" stroke="#004ED1" stroke-width="3"/>
<line x1="16.324" y1="44.7029" x2="66.324" y2="44.7029" stroke="#004ED1" stroke-width="3"/>
</svg>
