<svg width="80" height="60" viewBox="0 0 80 60" fill="none" xmlns="http://www.w3.org/2000/svg">
<path d="M22.625 49.2502L22.625 46.4377" stroke="#FF793A" stroke-width="3"/>
<path d="M58.2495 47.3748L58.2495 42.6873" stroke="#004ED1" stroke-width="3"/>
<path d="M58.2495 41.7498L58.2495 39.8748" stroke="#004ED1" stroke-width="3"/>
<path d="M22.625 44.0334V42.6873" stroke="#FF793A" stroke-width="3"/>
<path d="M62 29.5627V31.4377" stroke="#FF793A" stroke-width="3"/>
<path d="M62 26.7502V28.6252" stroke="#FF793A" stroke-width="3"/>
<path d="M62 32.3752L62 34.2502" stroke="#FF793A" stroke-width="3"/>
<rect x="39.3054" y="16.1508" width="20.6031" height="29.7125" rx="2.5" transform="rotate(16.681 39.3054 16.1508)" fill="white" stroke="#004ED1" stroke-width="3"/>
<rect x="28.8847" y="15.6467" width="21.9231" height="34.5" rx="2.5" fill="white" stroke="#004ED1" stroke-width="3"/>
<path d="M41.7662 30.2627C41.0743 31.2746 40.0612 31.7527 38.8755 31.7527C37.4355 31.7527 36.203 30.6446 36.3799 29.1752C36.5768 27.5452 37.8424 26.844 39.9474 26.5859C40.323 26.5402 40.4787 26.5271 41.2893 26.4671L41.3755 26.4609V26.3265C41.3755 25.204 40.708 24.4377 39.813 24.4377C38.9149 24.4377 38.288 24.9046 37.9037 26.0165L36.7224 25.609C37.2768 24.0027 38.3712 23.1877 39.813 23.1877C41.4399 23.1877 42.6255 24.549 42.6255 26.3265C42.6255 27.9821 42.7274 29.299 42.9274 29.7996C43.1499 30.3571 43.2312 30.4977 43.4799 30.8077L42.5049 31.5896C42.178 31.1821 42.0343 30.934 41.7668 30.2634V30.2627H41.7662ZM45.2862 33.9659C45.1168 34.0909 44.8224 34.0165 44.9555 33.6909C45.1212 33.2859 45.2974 32.8109 45.1193 32.5959C44.988 32.4365 44.8274 32.3571 44.4774 32.3571C44.1899 32.3571 44.0462 32.3946 43.8555 32.4071C43.728 32.4152 43.6724 32.2215 43.7987 32.1321C43.964 32.0137 44.1477 31.9233 44.3424 31.8646C45.0612 31.6496 45.908 31.7677 46.0112 31.9165C46.2393 32.2477 45.8868 33.5221 45.2862 33.9665V33.9659ZM44.5474 33.2884C44.3851 33.4454 44.2117 33.5905 44.0287 33.7227C42.7024 34.7327 40.9849 35.2602 39.4924 35.2602C37.0905 35.2602 34.9424 34.1396 33.3124 32.2634C33.173 32.1196 33.2887 31.9096 33.4518 32.0234C35.208 33.3215 37.3818 34.1065 39.6324 34.1065C41.048 34.1065 42.5749 33.7709 44.0293 33.0484C44.1305 33.0009 44.2443 32.9359 44.3437 32.8896C44.573 32.7584 44.7749 33.0809 44.5474 33.2884V33.2884ZM41.3818 27.7134C40.5955 27.7721 40.4468 27.784 40.0993 27.8265C38.5043 28.0221 37.7262 28.4534 37.6212 29.3252C37.5424 29.9771 38.1274 30.5027 38.8755 30.5027C40.1499 30.5027 41.0737 29.7352 41.3893 27.7134H41.3818V27.7134Z" fill="#FF793A"/>
<line x1="35.692" y1="45.875" x2="43.9996" y2="45.875" stroke="#004ED1" stroke-width="3"/>
<line x1="31.5387" y1="38.2625" x2="34.3079" y2="38.2625" stroke="#004ED1" stroke-width="3"/>
<line x1="36.3847" y1="38.2625" x2="39.1539" y2="38.2625" stroke="#004ED1" stroke-width="3"/>
<line x1="41.2307" y1="38.2625" x2="43.9999" y2="38.2625" stroke="#004ED1" stroke-width="3"/>
<line x1="46.0766" y1="38.2625" x2="48.8458" y2="38.2625" stroke="#004ED1" stroke-width="3"/>
<path fill-rule="evenodd" clip-rule="evenodd" d="M27.312 9.875H29.187V8H27.312V9.875Z" fill="#004ED1"/>
<path fill-rule="evenodd" clip-rule="evenodd" d="M17 20.1877H18.875V18.3127H17V20.1877Z" fill="#004ED1"/>
<path fill-rule="evenodd" clip-rule="evenodd" d="M20.7505 12.6875H22.6255V10.8125H20.7505V12.6875Z" fill="#004ED1"/>
<path fill-rule="evenodd" clip-rule="evenodd" d="M33.875 12.6875H35.75V10.8125H33.875V12.6875Z" fill="#004ED1"/>
<path fill-rule="evenodd" clip-rule="evenodd" d="M20.7505 27.6873H22.6255V25.8123H20.7505V27.6873Z" fill="#004ED1"/>
</svg>
