<svg width="80" height="60" viewBox="0 0 80 60" fill="none" xmlns="http://www.w3.org/2000/svg">
<path d="M56.444 26.3948V32.9556C56.444 37.2042 55.341 39.8044 52.782 41.1096" stroke="#004ED1" stroke-width="3" stroke-linecap="round" stroke-linejoin="round"/>
<path d="M46.7414 12.9229H39.9175" stroke="#004ED1" stroke-width="3" stroke-linecap="round" stroke-linejoin="round"/>
<path d="M46.6832 12.9229H51.1399C54.9683 12.9229 56.4295 14.3841 56.9555 18.1832L57.3646 22.2015C57.6035 24.6026 56.2018 26.6423 54.0695 27.3068" stroke="#004ED1" stroke-width="3" stroke-linecap="round" stroke-linejoin="round"/>
<path d="M39.8742 12.9229H35.4175C32.8871 12.9229 31.3909 13.5612 30.5153 15.0911" stroke="#004ED1" stroke-width="3" stroke-linecap="round" stroke-linejoin="round"/>
<path d="M23.3067 31.7118V33.9358M49.0216 31.7118V38.1369C49.0216 44.5621 46.4458 47.1379 40.0206 47.1379H32.3076C28.3701 47.1379 25.8783 46.1705 24.539 43.9427" stroke="#004ED1" stroke-width="3" stroke-linecap="round" stroke-linejoin="round"/>
<path d="M21.3996 41.5179C21.0584 41.5179 20.7416 41.4581 20.4491 41.3384C20.1566 41.2143 19.8996 41.0437 19.678 40.8266C19.4609 40.605 19.2925 40.348 19.1728 40.0555C19.0576 39.763 19 39.4484 19 39.1116C19 38.7748 19.0576 38.4602 19.1728 38.1677C19.2925 37.8752 19.4609 37.6204 19.678 37.4033C19.8996 37.1861 20.1544 37.0155 20.4424 36.8914C20.7349 36.7674 21.054 36.7053 21.3996 36.7053C21.7719 36.7053 22.0998 36.7674 22.3834 36.8914C22.667 37.0111 22.9174 37.1773 23.1345 37.39L22.523 38.0015C22.3945 37.8597 22.2372 37.7489 22.0511 37.6692C21.8649 37.5894 21.6478 37.5495 21.3996 37.5495C21.1825 37.5495 20.9831 37.5872 20.8014 37.6625C20.6241 37.7334 20.469 37.8398 20.3361 37.9816C20.2031 38.119 20.1012 38.2851 20.0303 38.4801C19.9594 38.6707 19.924 38.8812 19.924 39.1116C19.924 39.3465 19.9594 39.5592 20.0303 39.7497C20.1012 39.9403 20.2031 40.1065 20.3361 40.2483C20.469 40.3856 20.6241 40.492 20.8014 40.5673C20.9831 40.6427 21.1825 40.6803 21.3996 40.6803C21.6611 40.6803 21.8849 40.6404 22.071 40.5607C22.2615 40.4809 22.4211 40.3679 22.5496 40.2217L23.1611 40.8332C22.944 41.0504 22.6914 41.2188 22.4034 41.3384C22.1153 41.4581 21.7807 41.5179 21.3996 41.5179Z" fill="#FF793A"/>
<path d="M23.7896 41.4514V36.7784H24.6936V41.4514H23.7896ZM26.721 41.4514V36.7784H27.625V41.4514H26.721ZM24.3613 39.4373V38.6396H26.9736V39.4373H24.3613Z" fill="#FF793A"/>
<path d="M28.5802 41.4514V36.7784H29.2117L29.4843 37.6825V41.4514H28.5802ZM31.8108 41.4514L29.0389 37.8619L29.2117 36.7784L31.9836 40.3679L31.8108 41.4514ZM31.8108 41.4514L31.5515 40.574V36.7784H32.4622V41.4514H31.8108Z" fill="#FF793A"/>
<path d="M36.172 32.828C38.7907 32.828 40.7226 30.6958 40.465 28.0771L39.5205 18.5181H32.8378L31.8791 28.0771C31.6215 30.6958 33.5533 32.828 36.172 32.828Z" stroke="#004ED1" stroke-width="3" stroke-linecap="round" stroke-linejoin="round"/>
<path d="M45.2023 32.828C48.0929 32.828 50.2107 30.4811 49.9245 27.6048L49.5238 23.6696C49.0087 19.9491 47.5777 18.5181 43.8285 18.5181H39.464L40.4657 28.5493C40.7089 30.9104 42.8411 32.828 45.2023 32.828Z" stroke="#004ED1" stroke-width="3" stroke-linecap="round" stroke-linejoin="round"/>
<path d="M27.0708 32.828C29.4319 32.828 31.5641 30.9104 31.7931 28.5493L32.1079 25.3868L32.7948 18.5181H28.4302C24.6811 18.5181 23.2501 19.9491 22.7349 23.6696L22.3485 27.6048C22.0623 30.4811 24.1802 32.828 27.0708 32.828Z" stroke="#004ED1" stroke-width="3" stroke-linecap="round" stroke-linejoin="round"/>
<path d="M61.9297 31.4648V33.6113" stroke="#FF793A" stroke-width="3"/>
<path d="M61.9297 26.0986V28.2451" stroke="#FF793A" stroke-width="3"/>
<path d="M61.9297 36.8311V42.1973" stroke="#FF793A" stroke-width="3"/>
</svg>
