<svg width="97" height="83" viewBox="0 0 97 83" fill="none" xmlns="http://www.w3.org/2000/svg">
<path d="M40.1134 49.7339L25.3113 49.7355L21.1893 55.8288C20.5654 56.7062 19.9867 57.5978 18.5043 57.5978C16.9073 57.5978 15.6125 56.3383 15.6125 54.7847V49.7355H12.3795C10.5933 49.7355 9.14654 48.3281 9.14654 46.5906V18.2862C9.14654 16.5487 10.5933 15.1413 12.3795 15.1413H44.7091C46.4937 15.1413 47.9421 16.5487 47.9421 18.2862V36.6872" stroke="#004ED1" stroke-width="3"/>
<path d="M18.335 8.06519H21.3978" stroke="#004ED1" stroke-width="3"/>
<path d="M2 21.2065V17.9224C2 12.4796 6.45778 8.06519 11.9541 8.06519H15.2722" stroke="#004ED1" stroke-width="3"/>
<path fill-rule="evenodd" clip-rule="evenodd" d="M63.7665 46.1921C65.3151 44.6735 67.2998 43.4456 69.6477 43.4456C74.0111 43.4456 77.5492 46.8704 77.5492 51.0943C77.5492 53.3611 76.5309 55.3976 74.9126 56.7986L65.2891 65.124C64.8838 65.4719 64.3503 65.6847 63.7665 65.6847C63.1828 65.6847 62.6493 65.4719 62.244 65.124L52.6205 56.7986C51.0022 55.3976 49.9839 53.3611 49.9839 51.0943C49.9839 46.8704 53.522 43.4456 57.8854 43.4456C60.2333 43.4456 62.218 44.6735 63.7665 46.1921Z" stroke="#FF793A" stroke-width="3"/>
<path d="M93.8841 58.6087C91.8994 66.3687 86.6435 72.9034 79.591 76.8044" stroke="#004ED1" stroke-width="3"/>
<path d="M95 52.5435C95 53.5663 94.9367 54.5772 94.8101 55.5761" stroke="#004ED1" stroke-width="3"/>
<path d="M58.1514 12.1087H72.4445" stroke="#004ED1" stroke-width="3"/>
<path d="M51.0048 18.1739H78.5701" stroke="#004ED1" stroke-width="3"/>
<path d="M54.0677 24.2391H75.5073" stroke="#004ED1" stroke-width="3"/>
<path d="M79.591 69.7283C80.3125 69.1 80.9936 68.4233 81.6329 67.7065" stroke="#004ED1" stroke-width="3"/>
<path d="M85.5372 63.4177C87.6002 60.1781 88.7795 56.422 88.7795 52.4178C88.7795 40.2049 77.8087 30.3044 64.277 30.3044C50.7438 30.3044 39.7746 40.2049 39.7746 52.4178C39.7746 58.1215 42.1663 63.3214 46.0978 67.2433V77.8246C46.0978 79.4958 46.8329 80.8479 48.4279 80.8479C49.8791 80.8479 50.464 80.2003 51.1153 79.3805L56.0806 73.2645C58.8043 74.2075 61.185 74.5313 64.277 74.5313C68.4551 74.5313 72.3897 73.5883 75.8311 71.9235" stroke="#004ED1" stroke-width="3"/>
<path d="M13.2303 30.7383H17.8561C18.9644 30.7383 19.8364 30.384 20.4266 29.3768L24.5311 21.8039C24.6736 21.5116 25.1902 21.2065 25.7537 21.2065C26.6194 21.2065 27.3191 21.9182 27.3191 22.7952V29.1497H33.4165C35.0696 29.1497 36.5536 30.3681 36.6992 32.041C36.7399 32.5032 36.6804 32.9481 36.5442 33.3563L33.4963 42.3734C33.2865 42.9977 32.7011 43.4457 32.0154 43.4457H17.9266" stroke="#FF793A" stroke-width="3"/>
<path d="M44.8792 15.5506C47.1539 7.7535 55.0576 2 64.4588 2C75.6344 2 84.6957 10.132 84.6957 20.1623C84.6957 25.9016 81.7298 31.0186 77.098 34.3478" stroke="#004ED1" stroke-width="3"/>
</svg>
