<svg width="36" height="37" viewBox="0 0 36 37" fill="none" xmlns="http://www.w3.org/2000/svg">
<path d="M12.748 29H11.998C5.99805 29 2.99805 27.5 2.99805 20V12.5C2.99805 6.5 5.99805 3.5 11.998 3.5H23.998C29.998 3.5 32.998 6.5 32.998 12.5V20C32.998 26 29.998 29 23.998 29H23.248C22.783 29 22.333 29.225 22.048 29.6L19.798 32.6C18.808 33.92 17.188 33.92 16.198 32.6L13.948 29.6C13.708 29.27 13.153 29 12.748 29Z" stroke="#004ED1" stroke-width="3" stroke-miterlimit="10" stroke-linecap="round" stroke-linejoin="round"/>
<path opacity="0.4" d="M23.9957 17H24.0091" stroke="#004ED1" stroke-width="3" stroke-linecap="round" stroke-linejoin="round"/>
<path opacity="0.4" d="M17.9937 17H18.0072" stroke="#004ED1" stroke-width="3" stroke-linecap="round" stroke-linejoin="round"/>
<path opacity="0.4" d="M11.9918 17H12.0052" stroke="#004ED1" stroke-width="3" stroke-linecap="round" stroke-linejoin="round"/>
</svg>
