<svg width="219" height="40" viewBox="0 0 219 40" fill="none" xmlns="http://www.w3.org/2000/svg">
<path d="M198.248 0H20C8.95431 0 0 8.95431 0 20C0 31.0457 8.95431 40 20 40H198.248C209.294 40 218.248 31.0457 218.248 20C218.248 8.95431 209.294 0 198.248 0Z" fill="#004ED1"/>
<path fill-rule="evenodd" clip-rule="evenodd" d="M8.6001 15.3217C8.77922 14.731 8.99081 14.1544 9.23281 13.594L21.5529 20.9749L11.3921 14.8874C13.4525 9.80079 18.4402 6.21289 24.2658 6.21289C31.9338 6.21289 38.1499 12.429 38.1499 20.097C38.1499 27.765 31.9338 33.9811 24.2658 33.9811C16.5978 33.9811 10.3817 27.765 10.3817 20.097C10.3817 18.9063 10.5315 17.7506 10.8135 16.6477L23.1483 24.0374L8.6001 15.3217Z" fill="#FF793A"/>
<path fill-rule="evenodd" clip-rule="evenodd" d="M8.60078 15.3217L23.1489 24.0375C23.3161 24.1571 23.4933 24.2635 23.6791 24.3552L23.6857 24.3591C23.7441 24.3871 23.803 24.4142 23.8627 24.4398L35.9852 31.5604C33.011 34.5875 28.8697 36.4651 24.2897 36.4651C15.2371 36.4651 7.89844 29.1297 7.89844 20.0812C7.89844 18.4259 8.14403 16.8279 8.60078 15.3217ZM24.2897 3.69727C28.7597 3.69727 32.8118 5.48573 35.7689 8.38582L23.4468 17.6357L23.4467 17.6409C22.3143 18.3013 21.5532 19.5295 21.5532 20.9356L21.5535 20.9749L9.23345 13.5941C11.7475 7.77212 17.5425 3.69727 24.2897 3.69727Z" fill="white"/>
<path d="M25.3742 22.9208C26.4773 22.9208 27.3715 22.0266 27.3715 20.9235C27.3715 19.8205 26.4773 18.9263 25.3742 18.9263C24.2712 18.9263 23.377 19.8205 23.377 20.9235C23.377 22.0266 24.2712 22.9208 25.3742 22.9208Z" fill="white"/>
<path d="M66.7731 29.0281V14.9482H69.4183C71.6418 14.9482 72.7535 16.4556 72.7535 19.4702V29.0281H78.1149V17.8149C78.1149 13.8289 74.8836 10.5975 70.8975 10.5975H70.0271H66.7731V4.50684H61.061V29.0281H66.7731Z" fill="white"/>
<path d="M50.0449 29.32C52.8105 29.32 54.9493 28.8633 56.4613 27.95C57.9733 27.0366 58.7293 25.6894 58.7293 23.9084C58.7293 23.1549 58.6324 22.4927 58.4386 21.9219C58.2447 21.351 57.9087 20.8316 57.4305 20.3635C56.9524 19.8954 56.2998 19.4616 55.4727 19.062C54.6456 18.6624 53.5988 18.2571 52.3323 17.8461C51.712 17.6406 51.2015 17.4522 50.8009 17.2809C50.4003 17.1097 50.0837 16.9499 49.851 16.8014C49.6184 16.653 49.4633 16.4989 49.3858 16.3391C49.3083 16.1792 49.2695 15.9965 49.2695 15.791C49.2695 14.9005 50.1741 14.4553 51.9834 14.4553C52.6382 14.4553 53.5234 14.4553 54.6391 14.4553H57.8376V10.3452H55.1237C53.5729 10.3452 52.384 10.3452 51.5569 10.3452C49.0756 10.3452 47.1242 10.8361 45.7027 11.818C44.2811 12.7998 43.5703 14.1356 43.5703 15.8253C43.5703 16.693 43.7125 17.4351 43.9968 18.0516C44.2811 18.6681 44.6817 19.199 45.1986 19.6442C45.7156 20.0895 46.3424 20.4719 47.079 20.7916C47.8156 21.1113 48.6362 21.4195 49.5409 21.7164C50.704 22.1045 51.5698 22.4528 52.1385 22.761C52.7071 23.0693 52.9914 23.4289 52.9914 23.8399C52.9914 24.3651 52.7717 24.719 52.3323 24.9017C51.8929 25.0843 51.1434 25.1757 50.0837 25.1757C49.4116 25.1757 48.3907 25.1757 47.0208 25.1757H43.9968V29.32H45.5282C47.3331 29.32 48.8387 29.32 50.0449 29.32Z" fill="white"/>
<path d="M152.078 29.32C154.843 29.32 156.982 28.8633 158.494 27.95C160.006 27.0366 160.762 25.6894 160.762 23.9084C160.762 23.1549 160.665 22.4927 160.471 21.9219C160.277 21.351 159.941 20.8316 159.463 20.3635C158.985 19.8954 158.332 19.4616 157.505 19.062C156.678 18.6624 155.632 18.2571 154.365 17.8461C153.745 17.6406 153.234 17.4522 152.834 17.2809C152.433 17.1097 152.116 16.9499 151.884 16.8014C151.651 16.653 151.496 16.4989 151.419 16.3391C151.341 16.1792 151.302 15.9965 151.302 15.791C151.302 14.9005 152.207 14.4553 154.016 14.4553C154.671 14.4553 155.556 14.4553 156.672 14.4553H159.87V10.3452H157.156C155.606 10.3452 154.417 10.3452 153.59 10.3452C151.108 10.3452 149.157 10.8361 147.735 11.818C146.314 12.7998 145.603 14.1356 145.603 15.8253C145.603 16.693 145.745 17.4351 146.03 18.0516C146.314 18.6681 146.714 19.199 147.231 19.6442C147.748 20.0895 148.375 20.4719 149.112 20.7916C149.848 21.1113 150.669 21.4195 151.574 21.7164C152.737 22.1045 153.603 22.4528 154.171 22.761C154.74 23.0693 155.024 23.4289 155.024 23.8399C155.024 24.3651 154.804 24.719 154.365 24.9017C153.926 25.0843 153.176 25.1757 152.116 25.1757C151.444 25.1757 150.423 25.1757 149.054 25.1757H146.03V29.32H147.561C149.366 29.32 150.871 29.32 152.078 29.32Z" fill="white"/>
<path d="M183.793 29.466C183.793 24.8632 183.793 21.1662 183.793 18.3749C183.793 15.8598 184.005 15.1408 185.884 15.1021C187.615 15.0665 189.826 15.063 190.205 15.1482V10.6945C190.058 10.6394 187.919 10.624 183.787 10.6484C180.644 10.667 178.106 13.2199 178.106 16.3626V29.466H183.793Z" fill="white"/>
<path fill-rule="evenodd" clip-rule="evenodd" d="M90.0679 10.3452C95.381 10.3452 99.688 14.6255 99.688 19.9056C99.688 25.1856 95.381 29.4659 90.0679 29.4659C84.7548 29.4659 80.4478 25.1856 80.4478 19.9056C80.4478 14.6255 84.7548 10.3452 90.0679 10.3452ZM90.1199 15.3063C87.5352 15.3063 85.4398 17.3886 85.4398 19.9573C85.4398 22.5259 87.5352 24.6082 90.1199 24.6082C92.7046 24.6082 94.8 22.5259 94.8 19.9573C94.8 17.3886 92.7046 15.3063 90.1199 15.3063Z" fill="white"/>
<path d="M111.736 10.3452C117.076 10.3452 121.406 14.6226 121.406 19.899C121.406 25.1754 117.076 29.4527 111.736 29.4527C110.031 29.4527 108.429 29.0169 107.038 28.2518L107.038 35.3043H102.02V19.915L102.065 19.9151C102.065 19.9098 102.065 19.9044 102.065 19.899C102.065 14.6226 106.395 10.3452 111.736 10.3452ZM111.788 15.3028C109.19 15.3028 107.083 17.3837 107.083 19.9506C107.083 22.5175 109.19 24.5984 111.788 24.5984C114.386 24.5984 116.492 22.5175 116.492 19.9506C116.492 17.3837 114.386 15.3028 111.788 15.3028Z" fill="white"/>
<path fill-rule="evenodd" clip-rule="evenodd" d="M201.137 10.3452C206.45 10.3452 210.757 14.6255 210.757 19.9056C210.757 25.1856 206.45 29.4659 201.137 29.4659C195.824 29.4659 191.517 25.1856 191.517 19.9056C191.517 14.6255 195.824 10.3452 201.137 10.3452ZM201.189 15.3063C198.604 15.3063 196.509 17.3886 196.509 19.9573C196.509 22.5259 198.604 24.6082 201.189 24.6082C203.773 24.6082 205.869 22.5259 205.869 19.9573C205.869 17.3886 203.773 15.3063 201.189 15.3063Z" fill="white"/>
<path d="M171.135 29.6119C171.96 29.6119 173.004 29.6119 174.267 29.6119H175.774V25.2685H173.977C173.113 25.2685 172.475 25.2685 172.063 25.2685C170.774 25.2685 169.917 24.9468 169.492 24.3033C169.067 23.6598 168.854 22.798 168.854 21.7179V15.3406H175.774V11.0661H168.854V6.55029H163.093V21.7868C163.093 22.9589 163.216 24.0275 163.461 24.9927C163.705 25.9579 164.137 26.7795 164.756 27.4574C165.374 28.1354 166.199 28.664 167.23 29.0431C168.261 29.4223 169.563 29.6119 171.135 29.6119Z" fill="white"/>
<path d="M133.577 10.3452C138.707 10.3452 142.906 14.2751 143.248 19.2487L143.27 19.2488V29.4659H138.831L138.831 27.9413C137.317 28.906 135.514 29.4659 133.577 29.4659C128.224 29.4659 123.884 25.1856 123.884 19.9056C123.884 14.6255 128.224 10.3452 133.577 10.3452ZM133.631 15.3078C131.027 15.3078 128.916 17.3902 128.916 19.9588C128.916 22.5275 131.027 24.6098 133.631 24.6098C136.236 24.6098 138.347 22.5275 138.347 19.9588C138.347 17.3902 136.236 15.3078 133.631 15.3078Z" fill="white"/>
<path d="M133.576 22.3142C134.905 22.3142 135.981 21.236 135.981 19.9059C135.981 18.5758 134.905 17.4976 133.576 17.4976C132.248 17.4976 131.171 18.5758 131.171 19.9059C131.171 21.236 132.248 22.3142 133.576 22.3142Z" fill="#FF793A"/>
</svg>
