<svg width="200" height="109" viewBox="0 0 200 109" fill="none" xmlns="http://www.w3.org/2000/svg">
<rect width="200" height="109" fill="white"/>
<path d="M80.2219 52.1428C79.7986 55.3174 77.2589 55.3174 74.9309 55.3174H73.6611L74.7193 49.1799C74.7193 48.7566 75.1425 48.5449 75.5658 48.5449H76.2008C77.8939 48.5449 79.3753 48.5449 80.2219 49.3915C80.2219 50.2381 80.2219 51.0846 80.2219 52.1428ZM79.1637 43.6772H70.0632C69.4283 43.6772 69.005 44.1005 68.7934 44.7354L65.1955 68.0157C65.1955 68.439 65.4072 68.8623 66.0421 68.8623H70.2749C70.9098 68.8623 71.333 68.439 71.5447 67.8041L72.6029 61.4549C72.6029 60.82 73.2378 60.3967 73.8727 60.3967H76.8356C82.7615 60.3967 86.1478 57.4338 87.2059 51.7195C87.6292 49.1799 87.2059 47.2751 86.1478 45.7936C84.4546 44.5238 82.1266 43.6772 79.1637 43.6772Z" fill="#263577"/>
<path d="M100.116 60.6081C99.6927 63.1477 97.788 64.8409 95.2483 64.8409C93.9785 64.8409 92.9203 64.4176 92.2854 63.571C91.6504 62.7245 91.4388 61.6663 91.6504 60.6081C92.0737 58.0684 93.9785 56.3753 96.5181 56.3753C97.788 56.3753 98.8462 56.7986 99.4811 57.6451C99.9044 58.28 100.328 59.3382 100.116 60.6081ZM106.042 52.1425H101.809C101.386 52.1425 101.174 52.3542 100.963 52.7774L100.751 54.0473L100.539 53.624C99.6927 52.3542 97.5763 51.7192 95.4599 51.7192C90.5922 51.7192 86.5711 55.3171 85.7245 60.3964C85.3013 62.9361 85.9361 65.2641 87.4176 66.9573C88.6875 68.4387 90.5922 69.0736 92.9202 69.0736C96.7298 69.0736 98.8461 66.534 98.8461 66.534L98.6345 67.8038C98.6345 68.2271 98.8462 68.6504 99.4811 68.6504H103.291C103.925 68.6504 104.349 68.2271 104.56 67.5922L106.888 52.7774C106.888 52.5658 106.677 52.1425 106.042 52.1425Z" fill="#263577"/>
<path d="M129.11 52.1431H124.666C124.243 52.1431 123.82 52.3547 123.608 52.778L117.682 61.6668L115.142 53.2013C114.931 52.5663 114.507 52.3547 113.872 52.3547H109.64C109.216 52.3547 108.793 52.778 109.005 53.4129L113.872 67.3811L109.428 73.7302C109.005 74.1535 109.428 75.0001 110.063 75.0001H114.507C114.931 75.0001 115.354 74.7884 115.566 74.3652L129.957 53.4129C130.169 52.778 129.745 52.1431 129.11 52.1431Z" fill="#263577"/>
<path d="M144.56 52.1428C144.137 55.3174 141.597 55.3174 139.269 55.3174H137.999L139.058 49.1799C139.058 48.7566 139.481 48.5449 139.904 48.5449H140.539C142.232 48.5449 143.714 48.5449 144.56 49.3915C144.772 50.2381 144.772 51.0846 144.56 52.1428ZM143.502 43.6772H134.402C133.767 43.6772 133.343 44.1005 133.132 44.7354L129.534 68.0157C129.534 68.439 129.745 68.8623 130.38 68.8623H135.036C135.46 68.8623 135.883 68.6507 135.883 68.0157L136.941 61.4549C136.941 60.82 137.576 60.3967 138.211 60.3967H141.174C147.1 60.3967 150.486 57.4338 151.544 51.7195C151.968 49.1799 151.544 47.2751 150.486 45.7936C149.005 44.5238 146.677 43.6772 143.502 43.6772Z" fill="#2199D6"/>
<path d="M164.666 60.6081C164.243 63.1477 162.338 64.8409 159.798 64.8409C158.528 64.8409 157.47 64.4176 156.835 63.571C156.2 62.7245 155.989 61.6663 156.2 60.6081C156.624 58.0684 158.528 56.3753 161.068 56.3753C162.338 56.3753 163.396 56.7986 164.031 57.6451C164.454 58.28 164.877 59.3382 164.666 60.6081ZM170.592 52.1425H166.359C165.936 52.1425 165.724 52.3542 165.512 52.7774L165.301 54.0473L165.089 53.624C164.243 52.3542 162.126 51.7192 160.01 51.7192C155.142 51.7192 151.121 55.3171 150.274 60.3964C149.851 62.9361 150.486 65.2641 151.967 66.9573C153.237 68.4387 155.142 69.0736 157.47 69.0736C161.28 69.0736 163.396 66.534 163.396 66.534L163.184 67.8038C163.184 68.2271 163.396 68.6504 164.031 68.6504H167.84C168.475 68.6504 168.899 68.2271 169.11 67.5922L171.438 52.7774C171.438 52.5658 171.015 52.1425 170.592 52.1425Z" fill="#2199D6"/>
<path d="M175.671 44.3122L171.862 68.0157C171.862 68.439 172.073 68.8623 172.708 68.8623H176.518C177.153 68.8623 177.576 68.439 177.788 67.8041L181.385 44.5238C181.385 44.1005 181.174 43.6772 180.539 43.6772H176.306C176.094 43.6772 175.883 44.1005 175.671 44.3122Z" fill="#2199D6"/>
<path d="M27.5237 73.3073L28.1586 68.8629H26.6772H19.2698L24.3492 36.4821C24.3492 36.4821 24.3491 36.2705 24.5608 36.2705H24.7724H37.2591C41.2803 36.2705 44.2432 37.1171 45.7247 38.8102C46.3596 39.6567 46.7829 40.5033 46.9945 41.3498C47.2062 42.408 47.2062 43.4662 46.9945 44.9477V45.7943L47.6295 46.2175C48.2644 46.4292 48.6876 46.8525 49.1109 47.2757C49.7458 47.9107 50.1691 48.7572 50.1691 49.8154C50.3808 50.8736 50.3807 52.1434 49.9575 53.6249C49.5342 55.318 49.1109 56.5879 48.476 57.8577C47.8411 58.9159 46.9945 59.7624 46.148 60.609C45.3014 61.2439 44.0316 61.6672 42.9734 62.0905C41.7035 62.3021 40.4337 62.5138 38.9522 62.5138H37.894C37.2591 62.5138 36.6242 62.7254 35.9893 63.1487C35.566 63.5719 35.1427 64.2069 34.9311 64.8418V65.2651L33.6613 73.0957V73.3073V73.519C33.6613 73.519 33.6612 73.519 33.4496 73.519H27.5237V73.3073Z" fill="#263577"/>
<path d="M48.476 44.9478C48.476 45.1594 48.476 45.371 48.2644 45.5827C46.5712 54.0482 41.0687 56.7995 33.8729 56.7995H30.275C29.4285 56.7995 28.5819 57.4345 28.5819 58.281L26.6772 70.1328L26.2539 73.519C26.2539 74.1539 26.6772 74.5772 27.1004 74.5772H33.6613C34.5078 74.5772 35.1427 73.9423 35.1427 73.3074V72.8841L36.4126 65.2651V64.8418C36.6242 63.9953 37.2591 63.572 37.8941 63.572H38.9523C45.3014 63.572 50.1691 61.0323 51.4389 53.625C52.0739 50.4504 51.6506 47.9107 50.1691 46.2176C49.7459 45.7943 49.1109 45.371 48.476 44.9478Z" fill="#2199D6"/>
<path d="M46.7829 44.3122C46.5713 44.3122 46.3596 44.1005 45.9364 44.1005C45.7247 44.1005 45.3014 43.8889 45.0898 43.8889C44.0316 43.6772 42.9734 43.6772 41.9152 43.6772H32.1798C31.9682 43.6772 31.7565 43.6772 31.5449 43.8889C31.1216 44.1005 30.6984 44.5238 30.6984 44.9471L28.582 58.0687V58.492C28.7936 57.6454 29.4285 57.0105 30.2751 57.0105H33.8729C41.0687 57.0105 46.5713 54.0476 48.2644 45.7936C48.2644 45.582 48.2644 45.3704 48.476 45.1587C48.0528 44.9471 47.6295 44.7354 47.2062 44.5238C46.9945 44.3122 46.7829 44.3122 46.7829 44.3122Z" fill="#252C5E"/>
<path d="M30.6983 44.947C30.6983 44.5238 31.1216 44.1005 31.5449 43.8888C31.7565 43.8888 31.9682 43.6772 32.1798 43.6772H41.9152C42.9734 43.6772 44.2432 43.6772 45.0898 43.8888C45.3014 43.8888 45.7247 43.8888 45.9364 44.1005C46.148 44.1005 46.3596 44.3121 46.7829 44.3121C46.9945 44.3121 46.9945 44.3121 47.2062 44.5238C47.6294 44.7354 48.0527 44.947 48.476 45.1587C48.8993 41.9841 48.476 39.8677 46.7829 37.9629C44.8781 35.8466 41.4919 35 37.2591 35H24.7724C23.9259 35 23.0793 35.6349 23.0793 36.4815L18 69.0739C18 69.7088 18.4233 70.3437 19.0582 70.3437H26.6772L28.582 58.0687L30.6983 44.947Z" fill="#263577"/>
</svg>
