<svg width="623" height="458" viewBox="0 0 623 458" fill="none" xmlns="http://www.w3.org/2000/svg">
<g filter="url(#filter0_d_2_462)">
<g filter="url(#filter1_d_2_462)">
<path d="M220 54.8123H32C27.5817 54.8123 24 58.394 24 62.8123V387.812C24 392.231 27.5817 395.812 32 395.812H220C224.418 395.812 228 392.231 228 387.812V62.8123C228 58.394 224.418 54.8123 220 54.8123Z" fill="white"/>
</g>
<path d="M162.957 258.681H87.7056C85.4335 258.681 83.5917 260.523 83.5917 262.795C83.5917 265.067 85.4335 266.909 87.7056 266.909H162.957C165.229 266.909 167.071 265.067 167.071 262.795C167.071 260.523 165.229 258.681 162.957 258.681Z" fill="#EEF0F1"/>
<path d="M162.957 302.563H87.7056C85.4335 302.563 83.5917 304.405 83.5917 306.677C83.5917 308.949 85.4335 310.791 87.7056 310.791H162.957C165.229 310.791 167.071 308.949 167.071 306.677C167.071 304.405 165.229 302.563 162.957 302.563Z" fill="#EEF0F1"/>
<path d="M180.485 236.74H69.789C67.5169 236.74 65.675 238.582 65.675 240.854C65.675 243.126 67.5169 244.968 69.789 244.968H180.485C182.757 244.968 184.599 243.126 184.599 240.854C184.599 238.582 182.757 236.74 180.485 236.74Z" fill="#EEF0F1"/>
<path d="M198.535 280.622H53.3226C51.0506 280.622 49.2087 282.464 49.2087 284.736C49.2087 287.008 51.0506 288.85 53.3226 288.85H198.535C200.808 288.85 202.649 287.008 202.649 284.736C202.649 282.464 200.808 280.622 198.535 280.622Z" fill="#EEF0F1"/>
<path d="M111.652 213.799V211.55H101.854C101.982 210.489 102.275 209.653 102.732 209.04C103.19 208.428 103.995 207.811 105.148 207.189L108.002 205.681C110.417 204.364 111.624 202.49 111.624 200.058C111.624 198.449 111.094 197.178 110.033 196.246C108.971 195.313 107.535 194.847 105.724 194.847C103.784 194.847 102.234 195.437 101.072 196.616C99.9103 197.795 99.3294 199.373 99.3294 201.347H101.909C101.909 199.976 102.243 198.915 102.911 198.166C103.579 197.416 104.516 197.041 105.724 197.041C106.694 197.041 107.48 197.329 108.084 197.905C108.688 198.481 108.99 199.235 108.99 200.168C108.99 201.868 108.13 203.166 106.41 204.062L103.556 205.543C101.891 206.421 100.702 207.5 99.9881 208.78C99.2745 210.06 98.9177 211.733 98.9177 213.799H111.652ZM124.852 213.799V207.765H127.761V205.516H124.852V200.003H122.382V205.516H117.36V195.149H114.863V207.765H122.382V213.799H124.852ZM132.756 213.991C133.305 213.991 133.776 213.794 134.169 213.401C134.563 213.008 134.76 212.537 134.76 211.989C134.76 211.44 134.563 210.969 134.169 210.576C133.776 210.183 133.305 209.986 132.756 209.986C132.189 209.986 131.713 210.183 131.329 210.576C130.945 210.969 130.753 211.44 130.753 211.989C130.753 212.537 130.945 213.008 131.329 213.401C131.713 213.794 132.189 213.991 132.756 213.991ZM144.722 214.1C146.679 214.1 148.262 213.47 149.469 212.208C150.677 210.946 151.281 209.347 151.281 207.408C151.281 205.507 150.75 203.994 149.689 202.869C148.628 201.745 147.201 201.183 145.408 201.183C143.45 201.183 141.996 201.823 141.044 203.102V197.37H150.128V195.149H138.766V205.598H141.099C141.465 204.757 141.964 204.149 142.595 203.774C143.226 203.4 144.054 203.212 145.078 203.212C146.249 203.212 147.173 203.596 147.85 204.364C148.527 205.132 148.866 206.174 148.866 207.491C148.866 208.844 148.5 209.913 147.768 210.7C147.036 211.486 146.03 211.879 144.749 211.879C143.67 211.879 142.778 211.614 142.073 211.084C141.369 210.553 140.989 209.84 140.934 208.944H138.41C138.501 210.462 139.132 211.701 140.303 212.661C141.474 213.62 142.947 214.1 144.722 214.1Z" fill="#FF793A"/>
<path d="M90.5949 206.668V204.959C91.7756 204.838 92.7114 204.432 93.4024 203.742C94.0934 203.051 94.4389 202.17 94.4389 201.097C94.4389 199.247 93.5802 198.06 91.8628 197.537L89.5081 196.813C88.7165 196.585 88.1463 196.277 87.7975 195.888C87.4486 195.499 87.2742 195.003 87.2742 194.399C87.2742 193.783 87.4855 193.283 87.9081 192.901C88.3308 192.519 88.9245 192.328 89.6893 192.328C90.5077 192.328 91.145 192.559 91.6012 193.022C92.0574 193.484 92.2922 194.138 92.3056 194.983H94.137C94.1236 193.843 93.8016 192.904 93.171 192.167C92.5404 191.429 91.6817 190.98 90.5949 190.819V188.969H89.2666V190.779C88.1128 190.873 87.1836 191.275 86.4792 191.986C85.7748 192.697 85.4226 193.535 85.4226 194.5C85.4226 195.452 85.6675 196.25 86.1572 196.893C86.6469 197.537 87.3547 197.993 88.2805 198.261L90.5547 198.885C91.2658 199.112 91.7857 199.404 92.1144 199.759C92.4431 200.115 92.6075 200.574 92.6075 201.137C92.6075 201.848 92.376 202.398 91.9131 202.786C91.4502 203.175 90.7962 203.37 89.9509 203.37C88.9714 203.37 88.2067 203.085 87.6566 202.515C87.1065 201.945 86.8314 201.177 86.8314 200.212H85C85 201.58 85.3723 202.679 86.117 203.51C86.8616 204.342 87.9115 204.818 89.2666 204.938V206.668H90.5949Z" fill="#FF793A"/>
<mask id="mask0_2_462" style="mask-type:alpha" maskUnits="userSpaceOnUse" x="90" y="105" width="70" height="71">
<path d="M146.265 114.448C129.798 98.1927 115.773 105.585 113.332 117.969C110.891 130.353 88.22 132.826 91.0192 147.453C93.8184 162.081 124.31 153.396 124.31 166.652C124.31 179.908 159.564 179.451 159.564 162.081C159.564 144.711 162.731 130.703 146.265 114.448Z" fill="white"/>
</mask>
<g mask="url(#mask0_2_462)">
<path d="M146.265 114.448C129.798 98.1927 115.773 105.585 113.332 117.969C110.891 130.353 88.22 132.826 91.0192 147.453C93.8184 162.081 124.31 153.396 124.31 166.652C124.31 179.908 159.564 179.451 159.564 162.081C159.564 144.711 162.731 130.703 146.265 114.448Z" fill="white" fill-opacity="0.2"/>
<path opacity="0.2" d="M160.305 105.094H90.7803V176.402H160.305V105.094Z" fill="#83BCED"/>
</g>
</g>
<path d="M108.972 152.791H120.804L125.298 146.458H113.467L108.972 152.791ZM61 148.954V150.296H77.4878L78.4352 148.954H61ZM95.8502 146.458C94.0966 146.458 94.6408 145.703 94.923 145.305C95.4873 144.508 96.4548 143.124 97.0192 142.348C97.5836 141.572 97.5836 141.11 96.4548 141.11H86.1752L77.8909 152.812H98.0673C104.739 152.812 108.448 148.094 109.597 146.458H95.8502ZM159.846 145.011L167.768 133.812H155.23L147.309 145.011H159.846ZM80.2089 146.458H61V147.8H79.2616L80.2089 146.458ZM102.582 140.88C102.018 141.676 101.071 143.061 100.506 143.858C100.224 144.277 99.6798 145.011 101.433 145.011H110.625C110.625 145.011 112.096 142.914 113.346 141.152C115.039 138.761 113.487 133.812 107.46 133.812H83.6959L79.5841 139.642H102.038C103.167 139.642 103.147 140.104 102.582 140.88ZM61 152.791H75.7342L76.6816 151.449H61V152.791ZM126.105 152.791H137.936L142.431 146.458H130.6C130.579 146.458 126.105 152.791 126.105 152.791ZM170.852 152.812H190V151.47H171.799L170.852 152.812ZM175.346 146.458L174.399 147.8H190V146.458H175.346ZM172.625 150.296H190V148.954H173.573L172.625 150.296ZM139.529 133.812L134.994 140.229H129.713L134.248 133.812H122.416L114.495 145.011H143.439L151.36 133.812H139.529ZM146.281 146.458C146.281 146.458 145.414 147.695 144.991 148.282C143.5 150.38 144.81 152.812 149.667 152.812H168.675L173.17 146.458H146.281Z" fill="#004ED1"/>
<path d="M176 334H78C75.2386 334 73 336.239 73 339V355C73 357.761 75.2386 360 78 360H176C178.761 360 181 357.761 181 355V339C181 336.239 178.761 334 176 334Z" stroke="#004ED1"/>
<path d="M106.386 342.189L105.847 342.706C106.628 343.322 107.244 343.905 107.695 344.455L108.245 343.905C107.739 343.333 107.123 342.761 106.386 342.189ZM112.777 351.902H115.329L115.527 351.11C115.23 351.132 114.812 351.143 114.284 351.154C113.734 351.165 113.195 351.176 112.667 351.176C111.809 351.176 111.083 351.165 110.511 351.154C109.851 351.132 109.356 351.044 109.015 350.89C108.707 350.747 108.421 350.516 108.157 350.197C108.069 350.098 107.981 350.01 107.893 349.944V345.83H105.594V346.556H107.156V349.9C106.694 350.098 106.177 350.67 105.583 351.605L106.177 352.144C106.793 351.11 107.233 350.604 107.508 350.604C107.64 350.604 107.783 350.692 107.937 350.879C108.278 351.275 108.663 351.55 109.092 351.682C109.532 351.803 110.115 351.869 110.819 351.88C111.523 351.891 112.183 351.902 112.777 351.902ZM111.831 341.98V343.388H110.379C110.511 343.036 110.632 342.673 110.742 342.288L109.983 342.134C109.719 343.124 109.29 344.037 108.696 344.862L109.389 345.291C109.631 344.939 109.851 344.565 110.049 344.147H111.831V345.72H108.971V346.49H110.742C110.709 347.172 110.599 347.766 110.412 348.25C110.126 348.91 109.543 349.46 108.652 349.9L109.169 350.527C110.203 349.988 110.874 349.295 111.16 348.459C111.347 347.909 111.457 347.249 111.49 346.49H112.601V349.614C112.601 349.856 112.667 350.054 112.821 350.208C112.964 350.362 113.173 350.439 113.459 350.439H114.251C114.625 350.428 114.889 350.34 115.043 350.186C115.208 350.01 115.329 349.471 115.395 348.558L114.702 348.327C114.658 349.108 114.57 349.548 114.438 349.647C114.35 349.713 114.24 349.746 114.086 349.746H113.69C113.448 349.746 113.338 349.636 113.338 349.438V346.49H115.186V345.72H112.601V344.147H114.801V343.388H112.601V341.98H111.831ZM120.543 342.453V343.168H121.093C121.401 344.004 121.896 344.697 122.589 345.258C121.907 345.588 121.093 345.852 120.158 346.072L120.532 346.743C121.599 346.479 122.523 346.149 123.293 345.731C124.085 346.193 125.097 346.512 126.307 346.677L126.593 345.973C125.592 345.841 124.734 345.61 124.03 345.28C124.866 344.686 125.438 343.971 125.757 343.113V342.453H120.543ZM121.874 343.168H124.921C124.58 343.828 124.041 344.389 123.293 344.862C122.644 344.422 122.171 343.85 121.874 343.168ZM117.782 352.001C118.431 352.001 118.761 351.682 118.761 351.044V347.887C119.19 347.711 119.608 347.524 120.015 347.326V346.523C119.597 346.732 119.179 346.93 118.761 347.106V344.884H119.993V344.125H118.761V342.046H117.947V344.125H116.605V344.884H117.947V347.403C117.452 347.568 116.946 347.711 116.429 347.832L116.627 348.624C117.067 348.492 117.507 348.349 117.947 348.195V350.835C117.947 351.121 117.793 351.275 117.507 351.275C117.232 351.275 116.946 351.253 116.66 351.231L116.825 352.001H117.782ZM120.73 347.535V348.261H122.93V349.515H120.169V350.252H122.93V351.99H123.7V350.252H126.428V349.515H123.7V348.261H125.867V347.535H123.7V346.567H122.93V347.535H120.73ZM127.715 343.641V344.4H130.784C130.773 344.774 130.751 345.302 130.718 345.995C130.663 347.04 130.454 347.986 130.08 348.833C129.695 349.68 128.914 350.593 127.748 351.583L128.32 352.133C129.288 351.352 130.036 350.494 130.575 349.548C130.971 348.822 131.246 348.019 131.389 347.128H135.239C135.217 348.646 135.184 349.647 135.118 350.109C134.986 350.879 134.645 351.275 134.084 351.297C133.699 351.297 133.226 351.286 132.654 351.264L132.896 351.979C133.38 352.001 133.809 352.023 134.161 352.023C135.03 351.99 135.569 351.506 135.789 350.571C135.932 349.955 136.02 348.558 136.042 346.38H131.477V346.358L131.576 344.4H137.373V343.641H133.259C132.995 342.992 132.709 342.431 132.401 341.969L131.653 342.244C131.972 342.684 132.236 343.157 132.456 343.641H127.715ZM142.752 343.773C142.532 344.081 142.29 344.4 142.037 344.719H139.133V345.357H141.52C141.256 345.665 140.981 345.973 140.695 346.303C141.454 346.446 142.213 346.611 142.983 346.809C142.015 347.117 140.695 347.271 139.023 347.271L139.452 347.92C141.322 347.898 142.829 347.612 143.984 347.073C145.095 347.37 146.206 347.711 147.306 348.107L147.768 347.502C146.745 347.161 145.744 346.864 144.776 346.622C145.227 346.292 145.645 345.874 146.041 345.357H147.889V344.719H142.906C143.082 344.488 143.269 344.246 143.467 343.982L142.752 343.773ZM143.896 346.402C143.203 346.226 142.521 346.083 141.85 345.973C142.015 345.797 142.202 345.588 142.4 345.357H145.194C144.864 345.753 144.424 346.094 143.896 346.402ZM147.922 342.882H143.929C143.797 342.552 143.665 342.244 143.511 341.969L142.686 342.101C142.851 342.343 143.005 342.596 143.148 342.882H139.078V344.433H139.826V343.553H147.174V344.433H147.922V342.882ZM138.792 348.558V349.262H142.411C141.729 349.966 140.475 350.593 138.649 351.143L139.089 351.847C141.069 351.121 142.411 350.263 143.115 349.273V352.078H143.929V349.306C144.743 350.318 146.107 351.143 148.021 351.77L148.362 351.077C146.679 350.626 145.436 350.021 144.644 349.262H148.219V348.558H143.929V347.7H143.115V348.558H138.792Z" fill="#004ED1"/>
<g filter="url(#filter2_d_2_462)">
<g filter="url(#filter3_d_2_462)">
<path d="M591 55H403C398.582 55 395 58.5817 395 63V388C395 392.418 398.582 396 403 396H591C595.418 396 599 392.418 599 388V63C599 58.5817 595.418 55 591 55Z" fill="white"/>
</g>
<path d="M533.957 258.681H458.706C456.434 258.681 454.592 260.523 454.592 262.795C454.592 265.067 456.434 266.909 458.706 266.909H533.957C536.229 266.909 538.071 265.067 538.071 262.795C538.071 260.523 536.229 258.681 533.957 258.681Z" fill="#EEF0F1"/>
<path d="M533.957 302.563H458.706C456.434 302.563 454.592 304.405 454.592 306.677C454.592 308.949 456.434 310.791 458.706 310.791H533.957C536.229 310.791 538.071 308.949 538.071 306.677C538.071 304.405 536.229 302.563 533.957 302.563Z" fill="#EEF0F1"/>
<path d="M551.485 236.74H440.789C438.517 236.74 436.675 238.582 436.675 240.854C436.675 243.126 438.517 244.968 440.789 244.968H551.485C553.757 244.968 555.599 243.126 555.599 240.854C555.599 238.582 553.757 236.74 551.485 236.74Z" fill="#EEF0F1"/>
<path d="M569.535 280.622H424.323C422.051 280.622 420.209 282.464 420.209 284.736C420.209 287.008 422.051 288.85 424.323 288.85H569.535C571.808 288.85 573.649 287.008 573.649 284.736C573.649 282.464 571.808 280.622 569.535 280.622Z" fill="#EEF0F1"/>
<path d="M489.91 214.799V212.55H480.112C480.24 211.489 480.533 210.653 480.99 210.04C481.448 209.428 482.253 208.811 483.406 208.189L486.26 206.681C488.675 205.364 489.882 203.49 489.882 201.058C489.882 199.449 489.352 198.178 488.291 197.246C487.229 196.313 485.793 195.847 483.982 195.847C482.043 195.847 480.492 196.437 479.33 197.616C478.168 198.795 477.587 200.373 477.587 202.347H480.167C480.167 200.976 480.501 199.915 481.169 199.166C481.837 198.416 482.774 198.041 483.982 198.041C484.952 198.041 485.738 198.329 486.342 198.905C486.946 199.481 487.248 200.235 487.248 201.168C487.248 202.868 486.388 204.166 484.668 205.062L481.814 206.543C480.149 207.421 478.96 208.5 478.246 209.78C477.533 211.06 477.176 212.733 477.176 214.799H489.91ZM499.104 215.128C501.116 215.128 502.722 214.492 503.92 213.222C505.118 211.951 505.717 210.365 505.717 208.463C505.717 206.562 505.118 204.98 503.92 203.719C502.722 202.457 501.116 201.826 499.104 201.826C498.774 201.826 498.536 201.835 498.39 201.854L502.589 196.149H499.597L493.724 204.432C492.919 205.602 492.517 206.946 492.517 208.463C492.517 210.365 493.116 211.951 494.315 213.222C495.513 214.492 497.109 215.128 499.104 215.128ZM499.104 212.989C497.804 212.989 496.78 212.568 496.03 211.727C495.28 210.868 494.905 209.78 494.905 208.463C494.905 207.165 495.28 206.091 496.03 205.241C496.78 204.39 497.804 203.965 499.104 203.965C500.403 203.965 501.432 204.39 502.191 205.241C502.95 206.091 503.33 207.165 503.33 208.463C503.33 209.78 502.95 210.863 502.191 211.713C501.432 212.563 500.403 212.989 499.104 212.989ZM510.85 214.991C511.398 214.991 511.87 214.794 512.263 214.401C512.656 214.008 512.853 213.537 512.853 212.989C512.853 212.44 512.656 211.969 512.263 211.576C511.87 211.183 511.398 210.986 510.85 210.986C510.282 210.986 509.807 211.183 509.422 211.576C509.038 211.969 508.846 212.44 508.846 212.989C508.846 213.537 509.038 214.008 509.422 214.401C509.807 214.794 510.282 214.991 510.85 214.991ZM519.192 214.799L528.853 196.149H516.009V198.453H525.093L516.421 214.799H519.192Z" fill="#FF793A"/>
<path d="M469.722 207.668V205.959C470.903 205.838 471.839 205.432 472.53 204.742C473.221 204.051 473.566 203.17 473.566 202.097C473.566 200.247 472.707 199.06 470.99 198.537L468.635 197.813C467.844 197.585 467.273 197.277 466.925 196.888C466.576 196.499 466.401 196.003 466.401 195.399C466.401 194.783 466.613 194.283 467.035 193.901C467.458 193.519 468.052 193.328 468.816 193.328C469.635 193.328 470.272 193.559 470.728 194.022C471.184 194.484 471.419 195.138 471.433 195.983H473.264C473.251 194.843 472.929 193.904 472.298 193.167C471.667 192.429 470.809 191.98 469.722 191.819V189.969H468.394V191.779C467.24 191.873 466.311 192.275 465.606 192.986C464.902 193.697 464.55 194.535 464.55 195.5C464.55 196.452 464.795 197.25 465.284 197.893C465.774 198.537 466.482 198.993 467.408 199.261L469.682 199.885C470.393 200.112 470.913 200.404 471.241 200.759C471.57 201.115 471.735 201.574 471.735 202.137C471.735 202.848 471.503 203.398 471.04 203.786C470.577 204.175 469.923 204.37 469.078 204.37C468.099 204.37 467.334 204.085 466.784 203.515C466.234 202.945 465.959 202.177 465.959 201.212H464.127C464.127 202.58 464.499 203.679 465.244 204.51C465.989 205.342 467.039 205.818 468.394 205.938V207.668H469.722Z" fill="#FF793A"/>
<mask id="mask1_2_462" style="mask-type:alpha" maskUnits="userSpaceOnUse" x="461" y="105" width="70" height="71">
<path d="M517.265 114.448C500.798 98.1927 486.773 105.585 484.332 117.969C481.891 130.353 459.22 132.826 462.019 147.453C464.818 162.081 495.31 153.396 495.31 166.652C495.31 179.908 530.564 179.451 530.564 162.081C530.564 144.711 533.731 130.703 517.265 114.448Z" fill="white"/>
</mask>
<g mask="url(#mask1_2_462)">
<path opacity="0.2" d="M531.305 105.094H461.78V176.402H531.305V105.094Z" fill="#FFB38F"/>
</g>
</g>
<path d="M547.5 334.312H449.5C446.739 334.312 444.5 336.551 444.5 339.312V355.312C444.5 358.074 446.739 360.312 449.5 360.312H547.5C550.261 360.312 552.5 358.074 552.5 355.312V339.312C552.5 336.551 550.261 334.312 547.5 334.312Z" stroke="#004ED1"/>
<path d="M476.386 342.189L475.847 342.706C476.628 343.322 477.244 343.905 477.695 344.455L478.245 343.905C477.739 343.333 477.123 342.761 476.386 342.189ZM482.777 351.902H485.329L485.527 351.11C485.23 351.132 484.812 351.143 484.284 351.154C483.734 351.165 483.195 351.176 482.667 351.176C481.809 351.176 481.083 351.165 480.511 351.154C479.851 351.132 479.356 351.044 479.015 350.89C478.707 350.747 478.421 350.516 478.157 350.197C478.069 350.098 477.981 350.01 477.893 349.944V345.83H475.594V346.556H477.156V349.9C476.694 350.098 476.177 350.67 475.583 351.605L476.177 352.144C476.793 351.11 477.233 350.604 477.508 350.604C477.64 350.604 477.783 350.692 477.937 350.879C478.278 351.275 478.663 351.55 479.092 351.682C479.532 351.803 480.115 351.869 480.819 351.88C481.523 351.891 482.183 351.902 482.777 351.902ZM481.831 341.98V343.388H480.379C480.511 343.036 480.632 342.673 480.742 342.288L479.983 342.134C479.719 343.124 479.29 344.037 478.696 344.862L479.389 345.291C479.631 344.939 479.851 344.565 480.049 344.147H481.831V345.72H478.971V346.49H480.742C480.709 347.172 480.599 347.766 480.412 348.25C480.126 348.91 479.543 349.46 478.652 349.9L479.169 350.527C480.203 349.988 480.874 349.295 481.16 348.459C481.347 347.909 481.457 347.249 481.49 346.49H482.601V349.614C482.601 349.856 482.667 350.054 482.821 350.208C482.964 350.362 483.173 350.439 483.459 350.439H484.251C484.625 350.428 484.889 350.34 485.043 350.186C485.208 350.01 485.329 349.471 485.395 348.558L484.702 348.327C484.658 349.108 484.57 349.548 484.438 349.647C484.35 349.713 484.24 349.746 484.086 349.746H483.69C483.448 349.746 483.338 349.636 483.338 349.438V346.49H485.186V345.72H482.601V344.147H484.801V343.388H482.601V341.98H481.831ZM490.543 342.453V343.168H491.093C491.401 344.004 491.896 344.697 492.589 345.258C491.907 345.588 491.093 345.852 490.158 346.072L490.532 346.743C491.599 346.479 492.523 346.149 493.293 345.731C494.085 346.193 495.097 346.512 496.307 346.677L496.593 345.973C495.592 345.841 494.734 345.61 494.03 345.28C494.866 344.686 495.438 343.971 495.757 343.113V342.453H490.543ZM491.874 343.168H494.921C494.58 343.828 494.041 344.389 493.293 344.862C492.644 344.422 492.171 343.85 491.874 343.168ZM487.782 352.001C488.431 352.001 488.761 351.682 488.761 351.044V347.887C489.19 347.711 489.608 347.524 490.015 347.326V346.523C489.597 346.732 489.179 346.93 488.761 347.106V344.884H489.993V344.125H488.761V342.046H487.947V344.125H486.605V344.884H487.947V347.403C487.452 347.568 486.946 347.711 486.429 347.832L486.627 348.624C487.067 348.492 487.507 348.349 487.947 348.195V350.835C487.947 351.121 487.793 351.275 487.507 351.275C487.232 351.275 486.946 351.253 486.66 351.231L486.825 352.001H487.782ZM490.73 347.535V348.261H492.93V349.515H490.169V350.252H492.93V351.99H493.7V350.252H496.428V349.515H493.7V348.261H495.867V347.535H493.7V346.567H492.93V347.535H490.73ZM497.715 343.641V344.4H500.784C500.773 344.774 500.751 345.302 500.718 345.995C500.663 347.04 500.454 347.986 500.08 348.833C499.695 349.68 498.914 350.593 497.748 351.583L498.32 352.133C499.288 351.352 500.036 350.494 500.575 349.548C500.971 348.822 501.246 348.019 501.389 347.128H505.239C505.217 348.646 505.184 349.647 505.118 350.109C504.986 350.879 504.645 351.275 504.084 351.297C503.699 351.297 503.226 351.286 502.654 351.264L502.896 351.979C503.38 352.001 503.809 352.023 504.161 352.023C505.03 351.99 505.569 351.506 505.789 350.571C505.932 349.955 506.02 348.558 506.042 346.38H501.477V346.358L501.576 344.4H507.373V343.641H503.259C502.995 342.992 502.709 342.431 502.401 341.969L501.653 342.244C501.972 342.684 502.236 343.157 502.456 343.641H497.715ZM512.752 343.773C512.532 344.081 512.29 344.4 512.037 344.719H509.133V345.357H511.52C511.256 345.665 510.981 345.973 510.695 346.303C511.454 346.446 512.213 346.611 512.983 346.809C512.015 347.117 510.695 347.271 509.023 347.271L509.452 347.92C511.322 347.898 512.829 347.612 513.984 347.073C515.095 347.37 516.206 347.711 517.306 348.107L517.768 347.502C516.745 347.161 515.744 346.864 514.776 346.622C515.227 346.292 515.645 345.874 516.041 345.357H517.889V344.719H512.906C513.082 344.488 513.269 344.246 513.467 343.982L512.752 343.773ZM513.896 346.402C513.203 346.226 512.521 346.083 511.85 345.973C512.015 345.797 512.202 345.588 512.4 345.357H515.194C514.864 345.753 514.424 346.094 513.896 346.402ZM517.922 342.882H513.929C513.797 342.552 513.665 342.244 513.511 341.969L512.686 342.101C512.851 342.343 513.005 342.596 513.148 342.882H509.078V344.433H509.826V343.553H517.174V344.433H517.922V342.882ZM508.792 348.558V349.262H512.411C511.729 349.966 510.475 350.593 508.649 351.143L509.089 351.847C511.069 351.121 512.411 350.263 513.115 349.273V352.078H513.929V349.306C514.743 350.318 516.107 351.143 518.021 351.77L518.362 351.077C516.679 350.626 515.436 350.021 514.644 349.262H518.219V348.558H513.929V347.7H513.115V348.558H508.792Z" fill="#004ED1"/>
<path fill-rule="evenodd" clip-rule="evenodd" d="M500.439 130.994L495.488 132.056V128.043L500.439 127V130.994ZM510.733 133.217C508.801 133.217 507.558 134.122 506.868 134.752L506.611 133.532H502.273V156.472L507.203 155.429L507.223 149.861C507.933 150.373 508.978 151.101 510.714 151.101C514.244 151.101 517.459 148.268 517.459 142.031C517.439 136.326 514.185 133.217 510.733 133.217ZM509.55 146.772C508.386 146.772 507.696 146.359 507.223 145.848L507.203 138.549C507.716 137.978 508.426 137.585 509.55 137.585C511.345 137.585 512.587 139.591 512.587 142.169C512.587 144.805 511.364 146.772 509.55 146.772ZM533 142.228C533 137.191 530.554 133.217 525.88 133.217C521.186 133.217 518.346 137.191 518.346 142.188C518.346 148.11 521.699 151.101 526.511 151.101C528.858 151.101 530.633 150.57 531.974 149.822V145.887C530.633 146.556 529.095 146.969 527.142 146.969C525.229 146.969 523.533 146.3 523.316 143.979H532.961C532.961 143.87 532.968 143.624 532.976 143.34C532.987 142.955 533 142.5 533 142.228ZM523.257 140.359C523.257 138.136 524.618 137.211 525.86 137.211C527.063 137.211 528.345 138.136 528.345 140.359H523.257ZM495.488 133.552H500.438V150.766H495.488V133.552ZM489.868 133.551L490.183 135.007C491.347 132.882 493.654 133.315 494.285 133.551V138.076C493.674 137.86 491.702 137.585 490.538 139.099V150.766H485.608V133.551H489.868ZM480.322 129.282L475.51 130.305L475.49 146.064C475.49 148.976 477.679 151.12 480.598 151.12C482.215 151.12 483.398 150.825 484.049 150.471V146.477C483.418 146.733 480.302 147.638 480.302 144.726V137.742H484.049V133.552H480.302L480.322 129.282ZM468.666 137.486C467.621 137.486 466.99 137.781 466.99 138.549C466.99 139.387 468.076 139.755 469.423 140.212C471.62 140.958 474.511 141.939 474.524 145.572C474.524 149.094 471.703 151.12 467.601 151.12C465.905 151.12 464.051 150.786 462.217 149.999V145.317C463.874 146.222 465.964 146.891 467.601 146.891C468.706 146.891 469.494 146.595 469.494 145.69C469.494 144.762 468.317 144.338 466.896 143.826C464.731 143.046 462 142.063 462 138.785C462 135.303 464.663 133.217 468.666 133.217C470.303 133.217 471.92 133.473 473.557 134.122V138.746C472.058 137.939 470.165 137.486 468.666 137.486Z" fill="#004ED1"/>
<g filter="url(#filter4_f_2_462)">
<path d="M449 230.812H340C334.477 230.812 330 235.289 330 240.812V318.812C330 324.335 334.477 328.812 340 328.812H449C454.523 328.812 459 324.335 459 318.812V240.812C459 235.289 454.523 230.812 449 230.812Z" fill="black" fill-opacity="0.15"/>
</g>
<g filter="url(#filter5_d_2_462)">
<mask id="mask2_2_462" style="mask-type:alpha" maskUnits="userSpaceOnUse" x="193" y="26" width="237" height="398">
<path d="M422 26.8123H201C196.582 26.8123 193 30.394 193 34.8123V415.812C193 420.231 196.582 423.812 201 423.812H422C426.418 423.812 430 420.231 430 415.812V34.8123C430 30.394 426.418 26.8123 422 26.8123Z" fill="white"/>
</mask>
<g mask="url(#mask2_2_462)">
<path d="M422 26.8123H201C196.582 26.8123 193 30.394 193 34.8123V415.812C193 420.231 196.582 423.812 201 423.812H422C426.418 423.812 430 420.231 430 415.812V34.8123C430 30.394 426.418 26.8123 422 26.8123Z" fill="white"/>
<path opacity="0.0468285" fill-rule="evenodd" clip-rule="evenodd" d="M191.17 361.609C226.867 330.203 264.006 330.203 302.586 361.609C341.166 393.016 388.517 392.463 444.641 359.952L464.994 413.786L400.718 447.831H222.282L160.973 423.812L191.17 361.609Z" fill="#004ED1"/>
<path opacity="0.0468285" fill-rule="evenodd" clip-rule="evenodd" d="M529.987 346.974C478.092 315.567 424.102 315.567 368.016 346.974C311.93 378.38 243.092 377.827 161.502 345.316L131.913 399.15L225.355 433.196H484.758L573.886 409.176L529.987 346.974Z" fill="#004ED1"/>
</g>
</g>
<path d="M354.967 268.305H267.118C264.592 268.305 262.544 270.353 262.544 272.879C262.544 275.405 264.592 277.453 267.118 277.453H354.967C357.493 277.453 359.541 275.405 359.541 272.879C359.541 270.353 357.493 268.305 354.967 268.305Z" fill="#E5EDF4"/>
<path d="M354.967 315.872H267.118C264.592 315.872 262.544 317.92 262.544 320.446C262.544 322.972 264.592 325.02 267.118 325.02H354.967C357.493 325.02 359.541 322.972 359.541 320.446C359.541 317.92 357.493 315.872 354.967 315.872Z" fill="#E5EDF4"/>
<path d="M375.098 244.522H246.072C243.546 244.522 241.498 246.57 241.498 249.096C241.498 251.622 243.546 253.669 246.072 253.669H375.098C377.624 253.669 379.672 251.622 379.672 249.096C379.672 246.57 377.624 244.522 375.098 244.522Z" fill="#E5EDF4"/>
<path d="M396.144 292.089H226.856C224.33 292.089 222.282 294.137 222.282 296.663C222.282 299.189 224.33 301.236 226.856 301.236H396.144C398.67 301.236 400.718 299.189 400.718 296.663C400.718 294.137 398.67 292.089 396.144 292.089Z" fill="#E5EDF4"/>
<path d="M295.064 212.506V207.435H282.727C282.983 206.538 283.348 205.821 283.822 205.283C284.296 204.745 285.097 204.169 286.224 203.554L290.106 201.48C293.565 199.661 295.294 197.01 295.294 193.527C295.294 191.119 294.449 189.23 292.758 187.86C291.067 186.49 288.722 185.804 285.725 185.804C282.676 185.804 280.235 186.656 278.403 188.359C276.571 190.063 275.655 192.323 275.655 195.14H281.997C281.997 193.68 282.323 192.56 282.977 191.779C283.63 190.997 284.559 190.607 285.763 190.607C286.711 190.607 287.473 190.895 288.05 191.471C288.626 192.048 288.915 192.81 288.915 193.757C288.915 195.525 287.954 196.908 286.032 197.907L281.843 200.096C279.435 201.351 277.705 202.946 276.655 204.88C275.604 206.813 275.079 209.356 275.079 212.506H295.064ZM308.515 213.082C311.564 213.082 314.017 212.346 315.875 210.873C317.732 209.4 318.661 207.473 318.661 205.091C318.661 203.452 318.194 202.081 317.258 200.98C316.323 199.879 315.036 199.174 313.396 198.867C316.599 197.971 318.2 196.037 318.2 193.066C318.2 190.837 317.342 189.07 315.625 187.764C313.908 186.458 311.628 185.804 308.784 185.804C305.684 185.804 303.237 186.56 301.444 188.071C299.65 189.582 298.753 191.593 298.753 194.103H304.902C304.902 192.95 305.236 192.048 305.902 191.394C306.568 190.741 307.477 190.415 308.63 190.415C309.63 190.415 310.437 190.684 311.052 191.222C311.667 191.759 311.974 192.477 311.974 193.373C311.974 195.499 310.744 196.562 308.284 196.562H305.633V201.326H308.246C310.988 201.326 312.358 202.491 312.358 204.822C312.358 205.847 312.019 206.666 311.34 207.281C310.661 207.896 309.758 208.203 308.63 208.203C307.298 208.203 306.267 207.832 305.537 207.089C304.806 206.346 304.441 205.283 304.441 203.9H298.177C298.177 206.845 299.067 209.112 300.848 210.7C302.629 212.288 305.184 213.082 308.515 213.082ZM326.232 212.89C327.309 212.89 328.205 212.519 328.923 211.776C329.666 211.033 330.037 210.15 330.037 209.125C330.037 208.075 329.672 207.185 328.942 206.455C328.212 205.725 327.309 205.36 326.232 205.36C325.156 205.36 324.253 205.725 323.523 206.455C322.793 207.185 322.428 208.075 322.428 209.125C322.428 210.15 322.793 211.033 323.523 211.776C324.253 212.519 325.156 212.89 326.232 212.89ZM344.104 213.082C347.229 213.082 349.715 212.391 351.559 211.008C353.43 209.599 354.365 207.691 354.365 205.283C354.365 203.721 353.981 202.389 353.212 201.287C352.443 200.186 351.367 199.418 349.984 198.982C351.137 198.547 352.072 197.785 352.789 196.696C353.507 195.608 353.865 194.372 353.865 192.989C353.865 190.786 352.969 189.038 351.175 187.745C349.382 186.451 347.024 185.804 344.104 185.804C341.157 185.804 338.793 186.451 337.013 187.745C335.232 189.038 334.342 190.786 334.342 192.989C334.342 194.372 334.688 195.608 335.379 196.696C336.071 197.785 336.994 198.547 338.146 198.982C336.763 199.418 335.7 200.186 334.957 201.287C334.214 202.389 333.842 203.721 333.842 205.283C333.842 207.716 334.771 209.624 336.628 211.008C338.486 212.391 340.978 213.082 344.104 213.082ZM344.104 196.792C342.976 196.792 342.054 196.491 341.336 195.89C340.619 195.288 340.26 194.5 340.26 193.527C340.26 192.502 340.606 191.695 341.298 191.106C341.99 190.517 342.925 190.223 344.104 190.223C345.256 190.223 346.185 190.517 346.89 191.106C347.594 191.695 347.947 192.502 347.947 193.527C347.947 194.5 347.601 195.288 346.909 195.89C346.217 196.491 345.282 196.792 344.104 196.792ZM344.104 208.472C342.848 208.472 341.836 208.152 341.067 207.511C340.299 206.845 339.914 205.962 339.914 204.86C339.914 203.785 340.305 202.92 341.087 202.267C341.868 201.614 342.874 201.287 344.104 201.287C345.359 201.287 346.371 201.614 347.14 202.267C347.908 202.92 348.293 203.785 348.293 204.86C348.293 205.962 347.908 206.839 347.14 207.492C346.371 208.145 345.359 208.472 344.104 208.472Z" fill="#004ED1"/>
<path d="M267.37 203.907V201.909C268.909 201.751 270.118 201.224 270.999 200.328C271.879 199.432 272.319 198.31 272.319 196.962C272.319 194.695 271.272 193.213 269.179 192.515L266.252 191.564C265.507 191.294 264.987 190.993 264.694 190.66C264.4 190.327 264.254 189.915 264.254 189.423C264.254 188.932 264.416 188.543 264.741 188.258C265.067 187.972 265.515 187.83 266.086 187.83C266.752 187.83 267.267 188.032 267.632 188.436C267.997 188.84 268.179 189.423 268.179 190.184H272.034C272.034 188.852 271.641 187.727 270.856 186.807C270.071 185.887 268.909 185.324 267.37 185.118V182.978H265.253V185.071C263.841 185.229 262.68 185.741 261.768 186.605C260.856 187.469 260.4 188.535 260.4 189.804C260.4 190.945 260.689 191.908 261.268 192.693C261.847 193.478 262.676 194.045 263.754 194.394L266.68 195.298C267.347 195.52 267.815 195.785 268.084 196.094C268.354 196.404 268.489 196.772 268.489 197.2C268.489 197.755 268.31 198.187 267.953 198.496C267.596 198.806 267.077 198.96 266.395 198.96C265.602 198.96 264.979 198.707 264.527 198.199C264.075 197.692 263.849 196.994 263.849 196.106H259.995C259.995 197.755 260.447 199.083 261.351 200.09C262.255 201.097 263.556 201.695 265.253 201.886V203.907H267.37Z" fill="#004ED1"/>
<mask id="mask3_2_462" style="mask-type:alpha" maskUnits="userSpaceOnUse" x="270" y="85" width="82" height="83">
<path d="M335.506 96.2276C316.297 77.3353 299.935 85.9273 297.088 100.32C294.241 114.714 267.793 117.588 271.059 134.588C274.324 151.589 309.894 141.494 309.894 156.901C309.894 172.308 351.02 171.777 351.02 151.589C351.02 131.4 354.715 115.12 335.506 96.2276Z" fill="white"/>
</mask>
<g mask="url(#mask3_2_462)">
<path d="M335.506 96.2276C316.297 77.3353 299.935 85.9273 297.088 100.32C294.241 114.714 267.793 117.588 271.059 134.588C274.324 151.589 309.894 141.494 309.894 156.901C309.894 172.308 351.02 171.777 351.02 151.589C351.02 131.4 354.715 115.12 335.506 96.2276Z" fill="white" fill-opacity="0.2"/>
<path opacity="0.2" d="M351.885 85.356H270.78V168.233H351.885V85.356Z" fill="#73A7FF"/>
</g>
<path d="M243.063 107.909C251.182 107.909 259.3 107.909 267.418 107.909C267.515 108.39 267.612 115.713 267.418 116.676C266.742 116.676 254.564 116.676 253.888 116.676C253.791 117.061 253.791 121.782 253.888 122.457C258.044 122.457 262.103 122.457 266.355 122.457C266.355 124.287 266.355 126.214 266.355 128.045C266.549 128.045 266.452 128.045 266.452 128.045C266.549 127.948 266.645 127.852 266.742 127.659C269.061 123.902 272.541 121.782 276.89 121.204C280.079 120.819 283.269 121.301 286.168 122.746C289.551 124.48 291.774 127.178 292.933 130.839C293.03 131.031 293.03 131.128 293.127 131.417C293.223 131.224 293.223 131.128 293.32 131.031C293.9 128.815 294.963 126.792 296.606 125.058C298.635 122.938 301.052 121.59 303.951 121.204C307.43 120.722 310.62 121.493 313.422 123.42C313.519 123.516 313.616 123.516 313.712 123.613C313.712 118.314 313.712 113.015 313.712 107.812C316.998 107.812 320.284 107.812 323.474 107.812C323.474 121.301 323.474 134.789 323.474 148.181C320.188 148.181 316.902 148.181 313.712 148.181C313.712 147.892 313.712 147.603 313.712 147.121C313.519 147.314 313.326 147.41 313.229 147.506C309.267 150.204 303.951 150.589 299.795 148.373C296.799 146.736 294.866 144.327 293.61 141.148C293.127 139.895 292.837 138.546 292.643 137.101C292.257 137.005 274.28 137.005 273.604 137.101C273.604 137.197 273.604 137.197 273.604 137.294C273.894 139.028 274.57 140.666 275.827 141.918C277.47 143.46 279.693 143.652 281.529 142.304C282.012 141.918 282.399 141.437 282.785 141.051C282.882 140.858 283.075 140.762 283.269 140.762C286.265 140.762 289.261 140.762 292.257 140.762C292.257 140.762 292.353 140.762 292.45 140.762C292.353 140.955 292.353 141.051 292.257 141.244C290.71 144.905 288.004 147.41 284.332 148.759C280.562 150.108 276.793 150.108 273.121 148.566C268.965 146.832 266.355 143.652 265.196 139.317C264.519 136.716 264.519 134.211 265.099 131.609C265.099 131.417 265.196 131.32 265.196 131.224V131.128C261.426 131.128 257.657 131.128 253.985 131.128C253.985 136.812 253.985 142.4 253.985 148.181C250.215 148.181 246.736 148.181 243.16 148.181C243.16 147.988 243.16 147.892 243.16 147.699C243.16 134.5 243.16 121.204 243.16 108.005C242.967 108.005 242.967 108.005 243.063 107.909ZM313.809 135.56C313.809 133.536 313.326 131.898 312.359 130.742C310.91 128.912 308.977 128.237 306.657 128.719C304.821 129.104 303.564 130.357 302.888 131.995C301.921 134.307 302.018 136.619 303.081 138.835C303.661 139.991 304.531 140.858 305.691 141.437C308.01 142.496 310.813 141.726 312.359 139.702C313.326 138.45 313.712 136.908 313.809 135.56ZM284.042 131.417C283.752 130.068 282.689 128.526 281.529 127.659C279.693 126.407 277.47 126.503 275.827 128.045C274.957 128.912 274.377 129.875 273.99 130.935C273.99 131.031 273.894 131.128 273.894 131.32C277.276 131.417 280.659 131.417 284.042 131.417Z" fill="#522ABA"/>
<path d="M334.269 130.975C334.269 133.858 334.269 136.741 334.269 139.529C338.435 139.529 342.697 139.529 347.056 139.529C347.056 142.508 347.056 145.199 347.056 147.986C339.403 147.986 331.847 147.986 324.388 147.986C324.388 147.89 324.388 147.698 324.388 147.602C324.388 134.339 324.388 121.075 324.388 107.908C324.388 107.908 324.388 107.908 324.485 107.812C332.041 107.812 339.597 107.812 347.25 107.812C347.25 110.792 347.25 113.675 347.25 116.654C342.891 116.654 338.725 116.654 334.463 116.654C334.463 118.48 334.463 120.499 334.463 122.325C338.628 122.325 342.891 122.325 347.25 122.325C347.25 125.304 347.25 128.091 347.25 131.071C346.281 130.975 335.044 130.975 334.269 130.975Z" fill="#FF793A"/>
<path d="M347.441 122.421C347.632 122.421 347.727 122.421 347.918 122.421C351.355 122.421 354.887 122.421 358.324 122.421C358.706 122.421 358.992 122.516 359.183 122.8C360.902 124.693 362.62 126.587 364.339 128.481C364.434 128.575 364.53 128.765 364.72 128.954C364.816 128.765 364.911 128.575 365.102 128.481C366.916 126.587 368.73 124.693 370.448 122.8C370.639 122.61 370.83 122.516 371.117 122.516C374.649 122.516 378.086 122.516 381.618 122.516C381.714 122.516 381.809 122.516 382 122.516C381.523 123.084 370.735 134.73 370.258 135.204C374.172 139.464 377.99 143.631 382 147.891C381.809 147.891 381.714 147.891 381.618 147.891C378.086 147.891 374.649 147.891 371.117 147.891C370.83 147.891 370.639 147.797 370.448 147.607C368.635 145.619 366.821 143.725 365.007 141.832C364.911 141.737 364.816 141.547 364.625 141.453C364.434 141.642 364.339 141.737 364.148 141.926C362.334 143.82 360.615 145.714 358.802 147.607C358.515 147.891 358.324 147.986 357.942 147.986C354.505 147.986 351.164 147.986 347.727 147.986C347.536 147.986 347.441 147.986 347.345 147.986C347.345 147.986 347.345 147.891 347.441 147.891C347.441 147.797 347.536 147.797 347.536 147.702C351.26 143.631 355.078 139.464 358.802 135.393C358.802 135.393 358.802 135.298 358.897 135.298C358.897 135.298 358.897 135.298 358.897 135.204C355.078 131.037 351.164 126.871 347.25 122.61C347.441 122.516 347.441 122.421 347.441 122.421Z" fill="#FF793A"/>
<path d="M370 355.812H255C252.239 355.812 250 358.051 250 360.812V380.812C250 383.574 252.239 385.812 255 385.812H370C372.761 385.812 375 383.574 375 380.812V360.812C375 358.051 372.761 355.812 370 355.812Z" fill="#004ED1"/>
<path d="M291.386 366.189L290.847 366.706C291.628 367.322 292.244 367.905 292.695 368.455L293.245 367.905C292.739 367.333 292.123 366.761 291.386 366.189ZM297.777 375.902H300.329L300.527 375.11C300.23 375.132 299.812 375.143 299.284 375.154C298.734 375.165 298.195 375.176 297.667 375.176C296.809 375.176 296.083 375.165 295.511 375.154C294.851 375.132 294.356 375.044 294.015 374.89C293.707 374.747 293.421 374.516 293.157 374.197C293.069 374.098 292.981 374.01 292.893 373.944V369.83H290.594V370.556H292.156V373.9C291.694 374.098 291.177 374.67 290.583 375.605L291.177 376.144C291.793 375.11 292.233 374.604 292.508 374.604C292.64 374.604 292.783 374.692 292.937 374.879C293.278 375.275 293.663 375.55 294.092 375.682C294.532 375.803 295.115 375.869 295.819 375.88C296.523 375.891 297.183 375.902 297.777 375.902ZM296.831 365.98V367.388H295.379C295.511 367.036 295.632 366.673 295.742 366.288L294.983 366.134C294.719 367.124 294.29 368.037 293.696 368.862L294.389 369.291C294.631 368.939 294.851 368.565 295.049 368.147H296.831V369.72H293.971V370.49H295.742C295.709 371.172 295.599 371.766 295.412 372.25C295.126 372.91 294.543 373.46 293.652 373.9L294.169 374.527C295.203 373.988 295.874 373.295 296.16 372.459C296.347 371.909 296.457 371.249 296.49 370.49H297.601V373.614C297.601 373.856 297.667 374.054 297.821 374.208C297.964 374.362 298.173 374.439 298.459 374.439H299.251C299.625 374.428 299.889 374.34 300.043 374.186C300.208 374.01 300.329 373.471 300.395 372.558L299.702 372.327C299.658 373.108 299.57 373.548 299.438 373.647C299.35 373.713 299.24 373.746 299.086 373.746H298.69C298.448 373.746 298.338 373.636 298.338 373.438V370.49H300.186V369.72H297.601V368.147H299.801V367.388H297.601V365.98H296.831ZM305.543 366.453V367.168H306.093C306.401 368.004 306.896 368.697 307.589 369.258C306.907 369.588 306.093 369.852 305.158 370.072L305.532 370.743C306.599 370.479 307.523 370.149 308.293 369.731C309.085 370.193 310.097 370.512 311.307 370.677L311.593 369.973C310.592 369.841 309.734 369.61 309.03 369.28C309.866 368.686 310.438 367.971 310.757 367.113V366.453H305.543ZM306.874 367.168H309.921C309.58 367.828 309.041 368.389 308.293 368.862C307.644 368.422 307.171 367.85 306.874 367.168ZM302.782 376.001C303.431 376.001 303.761 375.682 303.761 375.044V371.887C304.19 371.711 304.608 371.524 305.015 371.326V370.523C304.597 370.732 304.179 370.93 303.761 371.106V368.884H304.993V368.125H303.761V366.046H302.947V368.125H301.605V368.884H302.947V371.403C302.452 371.568 301.946 371.711 301.429 371.832L301.627 372.624C302.067 372.492 302.507 372.349 302.947 372.195V374.835C302.947 375.121 302.793 375.275 302.507 375.275C302.232 375.275 301.946 375.253 301.66 375.231L301.825 376.001H302.782ZM305.73 371.535V372.261H307.93V373.515H305.169V374.252H307.93V375.99H308.7V374.252H311.428V373.515H308.7V372.261H310.867V371.535H308.7V370.567H307.93V371.535H305.73ZM312.715 367.641V368.4H315.784C315.773 368.774 315.751 369.302 315.718 369.995C315.663 371.04 315.454 371.986 315.08 372.833C314.695 373.68 313.914 374.593 312.748 375.583L313.32 376.133C314.288 375.352 315.036 374.494 315.575 373.548C315.971 372.822 316.246 372.019 316.389 371.128H320.239C320.217 372.646 320.184 373.647 320.118 374.109C319.986 374.879 319.645 375.275 319.084 375.297C318.699 375.297 318.226 375.286 317.654 375.264L317.896 375.979C318.38 376.001 318.809 376.023 319.161 376.023C320.03 375.99 320.569 375.506 320.789 374.571C320.932 373.955 321.02 372.558 321.042 370.38H316.477V370.358L316.576 368.4H322.373V367.641H318.259C317.995 366.992 317.709 366.431 317.401 365.969L316.653 366.244C316.972 366.684 317.236 367.157 317.456 367.641H312.715ZM327.752 367.773C327.532 368.081 327.29 368.4 327.037 368.719H324.133V369.357H326.52C326.256 369.665 325.981 369.973 325.695 370.303C326.454 370.446 327.213 370.611 327.983 370.809C327.015 371.117 325.695 371.271 324.023 371.271L324.452 371.92C326.322 371.898 327.829 371.612 328.984 371.073C330.095 371.37 331.206 371.711 332.306 372.107L332.768 371.502C331.745 371.161 330.744 370.864 329.776 370.622C330.227 370.292 330.645 369.874 331.041 369.357H332.889V368.719H327.906C328.082 368.488 328.269 368.246 328.467 367.982L327.752 367.773ZM328.896 370.402C328.203 370.226 327.521 370.083 326.85 369.973C327.015 369.797 327.202 369.588 327.4 369.357H330.194C329.864 369.753 329.424 370.094 328.896 370.402ZM332.922 366.882H328.929C328.797 366.552 328.665 366.244 328.511 365.969L327.686 366.101C327.851 366.343 328.005 366.596 328.148 366.882H324.078V368.433H324.826V367.553H332.174V368.433H332.922V366.882ZM323.792 372.558V373.262H327.411C326.729 373.966 325.475 374.593 323.649 375.143L324.089 375.847C326.069 375.121 327.411 374.263 328.115 373.273V376.078H328.929V373.306C329.743 374.318 331.107 375.143 333.021 375.77L333.362 375.077C331.679 374.626 330.436 374.021 329.644 373.262H333.219V372.558H328.929V371.7H328.115V372.558H323.792Z" fill="white"/>
<mask id="mask4_2_462" style="mask-type:alpha" maskUnits="userSpaceOnUse" x="330" y="230" width="129" height="99">
<path d="M330 230.812H459V328.812H330V230.812Z" fill="white"/>
</mask>
<g mask="url(#mask4_2_462)">
<path fill-rule="evenodd" clip-rule="evenodd" d="M330 239.212V320.412C330 325.051 333.76 328.813 338.398 328.813H450.602C455.24 328.813 459 325.051 459 320.412V239.212C459 234.572 455.24 230.812 450.602 230.812H338.398C333.76 230.812 330 234.572 330 239.212Z" fill="white"/>
</g>
<mask id="mask5_2_462" style="mask-type:alpha" maskUnits="userSpaceOnUse" x="330" y="297" width="129" height="32">
<path d="M330 297.672H459V328.812H330V297.672Z" fill="white"/>
</mask>
<g mask="url(#mask5_2_462)">
<path fill-rule="evenodd" clip-rule="evenodd" d="M330 322.927C330 326.178 332.617 328.813 335.848 328.813H453.151C456.382 328.813 459 326.178 459 322.927V297.672H330C330 299.719 330 301.681 330 303.557V322.927Z" fill="#F6F9FD"/>
</g>
<path fill-rule="evenodd" clip-rule="evenodd" d="M418.175 310.495H347.037C345.712 310.495 344.638 309.359 344.638 307.959V307.535C344.638 306.135 345.712 304.999 347.037 304.999H418.175C419.5 304.999 420.574 306.135 420.574 307.535V307.959C420.574 309.359 419.5 310.495 418.175 310.495Z" fill="#E0E7F0"/>
<path fill-rule="evenodd" clip-rule="evenodd" d="M393.477 321.485H347.033C345.71 321.485 344.638 320.349 344.638 318.949V318.526C344.638 317.126 345.71 315.99 347.033 315.99H393.477C394.799 315.99 395.872 317.126 395.872 318.526V318.949C395.872 320.349 394.799 321.485 393.477 321.485Z" fill="#E0E7F0"/>
<path fill-rule="evenodd" clip-rule="evenodd" d="M345.868 268.654C343.521 270.979 343.046 274.574 344.712 277.416L350.494 287.285C350.738 287.702 351.347 287.702 351.592 287.285L357.373 277.417C359.038 274.574 358.565 270.979 356.218 268.654C353.36 265.825 348.725 265.825 345.868 268.654Z" fill="#FF793A"/>
<path fill-rule="evenodd" clip-rule="evenodd" d="M351.5 272.027C350.237 272.027 349.213 273.053 349.213 274.318C349.213 275.582 350.237 276.607 351.5 276.607C352.763 276.607 353.787 275.582 353.787 274.318C353.787 273.053 352.763 272.027 351.5 272.027Z" fill="#F9F9F9"/>
<path fill-rule="evenodd" clip-rule="evenodd" d="M436.442 241.177C434.095 243.503 433.621 247.098 435.287 249.939L441.069 259.808C441.312 260.225 441.922 260.225 442.167 259.808L447.947 249.939C449.613 247.098 449.139 243.503 446.792 241.177C443.935 238.348 439.299 238.348 436.442 241.177Z" fill="#FF793A"/>
<path fill-rule="evenodd" clip-rule="evenodd" d="M442.074 244.551C440.811 244.551 439.787 245.575 439.787 246.841C439.787 248.105 440.811 249.13 442.074 249.13C443.338 249.13 444.362 248.105 444.362 246.841C444.362 245.575 443.338 244.551 442.074 244.551Z" fill="#F9F9F9"/>
<path d="M362.936 276.613C362.936 276.613 372.381 286.957 381.748 283.054C391.114 279.151 395.252 261.954 407.428 259.464C419.605 256.976 429.909 273.395 441.617 265.898" stroke="#004ED1" stroke-width="2"/>
<defs>
<filter id="filter0_d_2_462" x="16" y="48.8123" width="220" height="357" filterUnits="userSpaceOnUse" color-interpolation-filters="sRGB">
<feFlood flood-opacity="0" result="BackgroundImageFix"/>
<feColorMatrix in="SourceAlpha" type="matrix" values="0 0 0 0 0 0 0 0 0 0 0 0 0 0 0 0 0 0 127 0" result="hardAlpha"/>
<feOffset dy="2"/>
<feGaussianBlur stdDeviation="4"/>
<feColorMatrix type="matrix" values="0 0 0 0 0 0 0 0 0 0 0 0 0 0 0 0 0 0 0.1 0"/>
<feBlend mode="normal" in2="BackgroundImageFix" result="effect1_dropShadow_2_462"/>
<feBlend mode="normal" in="SourceGraphic" in2="effect1_dropShadow_2_462" result="shape"/>
</filter>
<filter id="filter1_d_2_462" x="0" y="34.8123" width="252" height="389" filterUnits="userSpaceOnUse" color-interpolation-filters="sRGB">
<feFlood flood-opacity="0" result="BackgroundImageFix"/>
<feColorMatrix in="SourceAlpha" type="matrix" values="0 0 0 0 0 0 0 0 0 0 0 0 0 0 0 0 0 0 127 0" result="hardAlpha"/>
<feOffset dy="4"/>
<feGaussianBlur stdDeviation="12"/>
<feComposite in2="hardAlpha" operator="out"/>
<feColorMatrix type="matrix" values="0 0 0 0 0 0 0 0 0 0 0 0 0 0 0 0 0 0 0.15 0"/>
<feBlend mode="normal" in2="BackgroundImageFix" result="effect1_dropShadow_2_462"/>
<feBlend mode="normal" in="SourceGraphic" in2="effect1_dropShadow_2_462" result="shape"/>
</filter>
<filter id="filter2_d_2_462" x="383" y="45" width="228" height="365" filterUnits="userSpaceOnUse" color-interpolation-filters="sRGB">
<feFlood flood-opacity="0" result="BackgroundImageFix"/>
<feColorMatrix in="SourceAlpha" type="matrix" values="0 0 0 0 0 0 0 0 0 0 0 0 0 0 0 0 0 0 127 0" result="hardAlpha"/>
<feOffset dy="2"/>
<feGaussianBlur stdDeviation="6"/>
<feColorMatrix type="matrix" values="0 0 0 0 0 0 0 0 0 0 0 0 0 0 0 0 0 0 0.13 0"/>
<feBlend mode="normal" in2="BackgroundImageFix" result="effect1_dropShadow_2_462"/>
<feBlend mode="normal" in="SourceGraphic" in2="effect1_dropShadow_2_462" result="shape"/>
</filter>
<filter id="filter3_d_2_462" x="371" y="35" width="252" height="389" filterUnits="userSpaceOnUse" color-interpolation-filters="sRGB">
<feFlood flood-opacity="0" result="BackgroundImageFix"/>
<feColorMatrix in="SourceAlpha" type="matrix" values="0 0 0 0 0 0 0 0 0 0 0 0 0 0 0 0 0 0 127 0" result="hardAlpha"/>
<feOffset dy="4"/>
<feGaussianBlur stdDeviation="12"/>
<feComposite in2="hardAlpha" operator="out"/>
<feColorMatrix type="matrix" values="0 0 0 0 0 0 0 0 0 0 0 0 0 0 0 0 0 0 0.15 0"/>
<feBlend mode="normal" in2="BackgroundImageFix" result="effect1_dropShadow_2_462"/>
<feBlend mode="normal" in="SourceGraphic" in2="effect1_dropShadow_2_462" result="shape"/>
</filter>
<filter id="filter4_f_2_462" x="320" y="220.812" width="149" height="118" filterUnits="userSpaceOnUse" color-interpolation-filters="sRGB">
<feFlood flood-opacity="0" result="BackgroundImageFix"/>
<feBlend mode="normal" in="SourceGraphic" in2="BackgroundImageFix" result="shape"/>
<feGaussianBlur stdDeviation="5" result="effect1_foregroundBlur_2_462"/>
</filter>
<filter id="filter5_d_2_462" x="163" y="0.812256" width="297" height="457" filterUnits="userSpaceOnUse" color-interpolation-filters="sRGB">
<feFlood flood-opacity="0" result="BackgroundImageFix"/>
<feColorMatrix in="SourceAlpha" type="matrix" values="0 0 0 0 0 0 0 0 0 0 0 0 0 0 0 0 0 0 127 0" result="hardAlpha"/>
<feOffset dy="4"/>
<feGaussianBlur stdDeviation="15"/>
<feComposite in2="hardAlpha" operator="out"/>
<feColorMatrix type="matrix" values="0 0 0 0 0 0 0 0 0 0 0 0 0 0 0 0 0 0 0.25 0"/>
<feBlend mode="normal" in2="BackgroundImageFix" result="effect1_dropShadow_2_462"/>
<feBlend mode="normal" in="SourceGraphic" in2="effect1_dropShadow_2_462" result="shape"/>
</filter>
</defs>
</svg>
