<svg width="631" height="528" viewBox="0 0 631 528" fill="none" xmlns="http://www.w3.org/2000/svg">
<path d="M300.7 73.7636C307.666 68.5141 309.053 58.6042 303.797 51.6292C298.541 44.6542 288.632 43.2555 281.666 48.505C274.7 53.7544 273.313 63.6643 278.569 70.6393C283.825 77.6143 293.733 79.0131 300.7 73.7636Z" fill="#FF793A"/>
<path fill-rule="evenodd" clip-rule="evenodd" d="M159 190.204L291.184 174L293 194.796L160.816 211L159 190.204Z" fill="#FF793A"/>
<path d="M317.213 153.181C324.494 141.968 321.324 126.986 310.132 119.718C298.94 112.449 283.964 115.647 276.682 126.86C269.4 138.072 272.57 153.054 283.763 160.323C294.955 167.591 309.931 164.393 317.213 153.181Z" fill="#004ED1"/>
<path fill-rule="evenodd" clip-rule="evenodd" d="M353.586 128L319 62.9929L337.414 54L372 119.007L353.586 128Z" fill="#C9E6FF"/>
<g filter="url(#filter0_d_2_268)">
<path d="M575.182 20H385.766C368.22 20.024 354 33.056 354 49.136V470.84C354 486.92 368.22 499.976 385.766 500H575.182C592.754 500 607 486.944 607 470.84V49.136C606.974 33.056 592.754 20 575.182 20ZM596.974 469.106C596.974 481.205 586.278 491 573.066 491H387.908C374.696 491 364 481.205 364 469.106V49.8944C364 37.7949 374.696 28 387.908 28H411.292C413.861 28 415.932 29.8966 415.958 32.2492V34.0978C415.958 40.3396 421.464 45.3811 428.279 45.3811H532.721C539.536 45.3811 545.042 40.3396 545.042 34.0978V32.2973C545.042 29.9446 547.139 28.048 549.708 28.048H573.092C586.304 28.048 597 37.8429 597 49.9424L596.974 469.106Z" fill="#DBE3F5"/>
</g>
<path d="M388.042 28.2712H572.958C586.153 28.2712 596.835 38.0487 596.835 50.1267V468.568C596.835 480.646 586.153 490.424 572.958 490.424H388.042C374.847 490.424 364.165 480.646 364.165 468.568V50.1267C364.139 38.0727 374.847 28.2712 388.042 28.2712Z" fill="white"/>
<path d="M400.021 51.0168H382.408C381.551 51.0168 380.857 51.7112 380.857 52.5677C380.857 53.4242 381.551 54.1185 382.408 54.1185H400.021C400.877 54.1185 401.571 53.4242 401.571 52.5677C401.571 51.7112 400.877 51.0168 400.021 51.0168Z" fill="#004ED1"/>
<path d="M400.021 57.2202H382.408C381.551 57.2202 380.857 57.9146 380.857 58.7711C380.857 59.6276 381.551 60.3219 382.408 60.3219H400.021C400.877 60.3219 401.571 59.6276 401.571 58.7711C401.571 57.9146 400.877 57.2202 400.021 57.2202Z" fill="#004ED1"/>
<path d="M400.021 63.4236H382.408C381.551 63.4236 380.857 64.1179 380.857 64.9744C380.857 65.8309 381.551 66.5253 382.408 66.5253H400.021C400.877 66.5253 401.571 65.8309 401.571 64.9744C401.571 64.1179 400.877 63.4236 400.021 63.4236Z" fill="#004ED1"/>
<mask id="mask0_2_268" style="mask-type:alpha" maskUnits="userSpaceOnUse" x="380" y="85" width="200" height="200">
<path d="M480 285C535.228 285 580 240.228 580 185C580 129.772 535.228 85 480 85C424.772 85 380 129.772 380 185C380 240.228 424.772 285 480 285Z" fill="white"/>
</mask>
<g mask="url(#mask0_2_268)">
<path d="M480 285C535.228 285 580 240.228 580 185C580 129.772 535.228 85 480 85C424.772 85 380 129.772 380 185C380 240.228 424.772 285 480 285Z" fill="#EBF1F9"/>
<path fill-rule="evenodd" clip-rule="evenodd" d="M468.546 141.761C466.768 140.391 465.276 139.249 465.276 139.249L462.559 148.217L467.18 150.373C468.652 147.972 469.032 144.855 468.546 141.761Z" fill="white"/>
<path fill-rule="evenodd" clip-rule="evenodd" d="M468.546 141.761C466.768 140.391 465.276 139.249 465.276 139.249L462.559 148.217L467.18 150.373C468.652 147.972 469.032 144.855 468.546 141.761Z" stroke="#1A1A1A" stroke-linecap="round" stroke-linejoin="round"/>
<path fill-rule="evenodd" clip-rule="evenodd" d="M475.364 145.252C475.27 145.087 471.805 142.537 468.995 140.485C469.525 143.675 469.111 146.888 467.508 149.364L472.565 151.599C472.565 151.599 474.783 151.847 475.787 149.927C476.79 148.008 475.522 145.531 475.364 145.252Z" fill="white"/>
<path fill-rule="evenodd" clip-rule="evenodd" d="M475.364 145.252C475.27 145.087 471.805 142.537 468.995 140.485C469.525 143.675 469.111 146.888 467.508 149.364L472.565 151.599C472.565 151.599 474.783 151.847 475.787 149.927C476.79 148.008 475.522 145.531 475.364 145.252Z" stroke="#004ED1" stroke-linecap="round" stroke-linejoin="round"/>
<path fill-rule="evenodd" clip-rule="evenodd" d="M488.266 235.661C488.266 235.661 466.005 266.565 467.589 298.344C469.174 330.122 480.265 375.883 484.384 380.173C492.623 383.192 496.901 380.173 496.901 380.173C496.901 380.173 486.602 326.627 506.724 284.997L509.576 247.181L488.266 235.661Z" fill="white"/>
<path fill-rule="evenodd" clip-rule="evenodd" d="M488.266 235.661C488.266 235.661 466.005 266.565 467.589 298.344C469.174 330.122 480.265 375.883 484.384 380.173C492.623 383.192 496.901 380.173 496.901 380.173C496.901 380.173 486.602 326.627 506.724 284.997L509.576 247.181L488.266 235.661Z" stroke="#004ED1" stroke-linecap="round" stroke-linejoin="round"/>
<path fill-rule="evenodd" clip-rule="evenodd" d="M506.162 265.889C506.162 265.889 505.059 278.695 507.097 288.19C512.601 344.587 563.513 374.099 563.513 374.099C563.513 374.099 569.815 372.818 568.869 364.174C528.535 326.076 544.606 269.57 543.661 257.565C542.715 245.559 531.371 231.953 531.371 231.953L510.824 235.261" fill="white"/>
<path d="M506.162 265.889C506.162 265.889 505.059 278.695 507.097 288.19C512.601 344.587 563.513 374.099 563.513 374.099C563.513 374.099 569.815 372.818 568.869 364.174C528.535 326.076 544.606 269.57 543.661 257.565C542.715 245.559 531.371 231.953 531.371 231.953L510.824 235.261" stroke="#004ED1" stroke-linecap="round" stroke-linejoin="round"/>
<path fill-rule="evenodd" clip-rule="evenodd" d="M520.889 240.35C525.542 239.416 529.728 237.434 533.085 234.296L532.447 231.953L487.201 236.809L486.068 238.542C495.559 245.966 509.287 242.544 520.889 240.35Z" fill="#1A1A1A"/>
<path fill-rule="evenodd" clip-rule="evenodd" d="M522.817 240.418C510.792 242.589 496.564 245.977 486.726 238.628L483.593 243.204C483.593 243.204 496.386 250.514 512.742 249.068C529.097 247.623 536.797 239.121 536.797 239.121L535.458 234.425C531.979 237.532 527.64 239.493 522.817 240.418Z" fill="white"/>
<path fill-rule="evenodd" clip-rule="evenodd" d="M522.817 240.418C510.792 242.589 496.564 245.977 486.726 238.628L483.593 243.204C483.593 243.204 496.386 250.514 512.742 249.068C529.097 247.623 536.797 239.121 536.797 239.121L535.458 234.425C531.979 237.532 527.64 239.493 522.817 240.418Z" stroke="#004ED1" stroke-linecap="round" stroke-linejoin="round"/>
<path fill-rule="evenodd" clip-rule="evenodd" d="M449.25 169.325C449.25 169.325 429.784 209.716 452.655 225.048C467.441 234.141 489.78 208.659 489.78 208.659L486.992 177.737C486.992 177.737 467.907 196.288 465.653 206.967C460.101 194.173 456.378 181.448 460.845 172.214C460.526 170.277 457.973 168.585 456.271 168.003C454.569 167.422 450.074 167.485 449.25 169.325Z" fill="#C9E6FF"/>
<path fill-rule="evenodd" clip-rule="evenodd" d="M449.25 169.325C449.25 169.325 429.784 209.716 452.655 225.048C467.441 234.141 489.78 208.659 489.78 208.659L486.992 177.737C486.992 177.737 467.907 196.288 465.653 206.967C460.101 194.173 456.378 181.448 460.845 172.214C460.526 170.277 457.973 168.585 456.271 168.003C454.569 167.422 450.074 167.485 449.25 169.325Z" stroke="#004ED1" stroke-linecap="round" stroke-linejoin="round"/>
<path fill-rule="evenodd" clip-rule="evenodd" d="M491.817 240.362C485.861 238.747 481.361 228.86 482.546 202.68C483.732 176.499 488.26 173.432 497.314 172.117C506.369 170.803 527.604 169.379 533.641 186.029C539.677 202.68 537.737 231.38 537.737 231.38C537.737 231.38 514.573 246.536 491.817 240.362Z" fill="#C9E6FF"/>
<path fill-rule="evenodd" clip-rule="evenodd" d="M491.817 240.362C485.861 238.747 481.361 228.86 482.546 202.68C483.732 176.499 488.26 173.432 497.314 172.117C506.369 170.803 527.604 169.379 533.641 186.029C539.677 202.68 537.737 231.38 537.737 231.38C537.737 231.38 514.573 246.536 491.817 240.362Z" stroke="#004ED1" stroke-linecap="round" stroke-linejoin="round"/>
<path fill-rule="evenodd" clip-rule="evenodd" d="M506.262 243.424C506.262 243.424 504.256 244.264 504.688 247.084C505.12 249.904 511.771 249.508 512.675 248.519C513.579 247.529 513.63 243.077 511.821 243.077C510.013 243.077 506.262 243.424 506.262 243.424Z" fill="#004ED1"/>
<path fill-rule="evenodd" clip-rule="evenodd" d="M506.262 243.424C506.262 243.424 504.256 244.264 504.688 247.084C505.12 249.904 511.771 249.508 512.675 248.519C513.579 247.529 513.63 243.077 511.821 243.077C510.013 243.077 506.262 243.424 506.262 243.424Z" stroke="#004ED1" stroke-linecap="round" stroke-linejoin="round"/>
<path fill-rule="evenodd" clip-rule="evenodd" d="M523.142 177.685C523.142 177.685 526.626 178.625 538.029 185.99C549.433 193.355 569.652 199.831 580.527 179.774C583.589 179.356 588.763 184.58 588.763 184.58C588.763 184.58 574.086 208.398 558.249 211.427C542.411 214.457 516.745 208.607 514.691 188.131C513.375 179.252 520.233 176.985 523.617 177.685" fill="#C9E6FF"/>
<path d="M523.142 177.685C523.142 177.685 526.626 178.625 538.029 185.99C549.433 193.355 569.652 199.831 580.527 179.774C583.589 179.356 588.763 184.58 588.763 184.58C588.763 184.58 574.086 208.398 558.249 211.427C542.411 214.457 516.745 208.607 514.691 188.131C513.375 179.252 520.233 176.985 523.617 177.685" stroke="#004ED1" stroke-linecap="round" stroke-linejoin="round"/>
<path fill-rule="evenodd" clip-rule="evenodd" d="M463.203 155.318C463.203 155.318 464.312 155.999 465.384 157.122C467.794 159.649 464.733 164.141 462.858 165.304C460.983 166.467 460.142 170.959 460.142 170.959C460.142 170.959 457.157 172.563 453.407 169.555C452.489 164.462 450.767 158.326 451.685 156.12" fill="white"/>
<path d="M463.203 155.318C463.203 155.318 464.312 155.999 465.384 157.122C467.794 159.649 464.733 164.141 462.858 165.304C460.983 166.467 460.142 170.959 460.142 170.959C460.142 170.959 457.157 172.563 453.407 169.555C452.489 164.462 450.767 158.326 451.685 156.12" stroke="#004ED1" stroke-linecap="round" stroke-linejoin="round"/>
<path fill-rule="evenodd" clip-rule="evenodd" d="M466.271 149.449L461.119 164.852C458.177 165.684 456.019 165.131 455.136 162.324L462.11 149.137L466.271 149.449Z" fill="white"/>
<path fill-rule="evenodd" clip-rule="evenodd" d="M466.271 149.449L461.119 164.852C458.177 165.684 456.019 165.131 455.136 162.324L462.11 149.137L466.271 149.449Z" stroke="#004ED1" stroke-linecap="round" stroke-linejoin="round"/>
<path fill-rule="evenodd" clip-rule="evenodd" d="M430.39 147.739L462.686 149.137C462.686 149.137 467.459 148.71 468.533 144.049C469.607 139.387 466.266 137.096 466.266 137.096L442.561 117" fill="white"/>
<path d="M430.39 147.739L462.686 149.137C462.686 149.137 467.459 148.71 468.533 144.049C469.607 139.387 466.266 137.096 466.266 137.096L442.561 117" stroke="#004ED1" stroke-linecap="round" stroke-linejoin="round"/>
<path fill-rule="evenodd" clip-rule="evenodd" d="M443.484 117.56C443.484 117.56 433.633 113.099 427.623 129.35C420.888 147.559 431.89 149.078 431.89 149.078C431.89 149.078 440.807 150.804 446.01 135.669C450.979 121.218 443.484 117.56 443.484 117.56Z" fill="white"/>
<path fill-rule="evenodd" clip-rule="evenodd" d="M443.484 117.56C443.484 117.56 433.633 113.099 427.623 129.35C420.888 147.559 431.89 149.078 431.89 149.078C431.89 149.078 440.807 150.804 446.01 135.669C450.979 121.218 443.484 117.56 443.484 117.56Z" stroke="#004ED1" stroke-linecap="round" stroke-linejoin="round"/>
<path fill-rule="evenodd" clip-rule="evenodd" d="M424.572 125.652L442.255 130.351C442.255 130.351 445.699 132.478 442.911 137.392C440.122 142.305 436.091 141.697 436.091 141.697L421.729 133.098L424.572 125.652Z" fill="white"/>
<path fill-rule="evenodd" clip-rule="evenodd" d="M424.572 125.652L442.255 130.351C442.255 130.351 445.699 132.478 442.911 137.392C440.122 142.305 436.091 141.697 436.091 141.697L421.729 133.098L424.572 125.652Z" stroke="#004ED1" stroke-linecap="round" stroke-linejoin="round"/>
<path fill-rule="evenodd" clip-rule="evenodd" d="M425.16 128.158C425.16 128.158 424.609 132.523 421.903 131.738C419.197 130.954 421.215 127.079 421.215 127.079C421.215 127.079 422.38 123.774 424.288 124.528C426.196 125.283 425.16 128.158 425.16 128.158Z" fill="#004ED1"/>
<path fill-rule="evenodd" clip-rule="evenodd" d="M425.16 128.158C425.16 128.158 424.609 132.523 421.903 131.738C419.197 130.954 421.215 127.079 421.215 127.079C421.215 127.079 422.38 123.774 424.288 124.528C426.196 125.283 425.16 128.158 425.16 128.158Z" stroke="#004ED1" stroke-linecap="round" stroke-linejoin="round"/>
<path fill-rule="evenodd" clip-rule="evenodd" d="M489.446 142.164C488.46 138.485 492.608 132.011 494.874 131.955C497.141 131.899 497.418 133.971 499.72 132.576C502.023 131.181 502.043 133.04 503.04 132.989C504.035 132.937 504.931 129.39 506.495 131.029C508.058 132.667 509.732 132.311 511.253 131.988C512.775 131.664 520.963 133.811 518.482 139.398C516.002 144.986 517.4 147.345 521.054 148.595C524.708 149.845 515.979 156.708 516.279 158.135C516.58 159.563 520.848 159.454 517.876 160.938C514.903 162.423 502.907 164.335 499.325 160.409C495.744 156.483 490.991 149.505 490.991 149.505C490.991 149.505 486.734 146.149 489.446 142.164Z" fill="#151415"/>
<path fill-rule="evenodd" clip-rule="evenodd" d="M490.991 149.505C490.991 149.505 486.734 146.149 489.446 142.164C488.46 138.485 492.608 132.011 494.874 131.955C497.141 131.899 497.418 133.971 499.72 132.576C502.023 131.181 502.043 133.04 503.04 132.989C504.035 132.937 504.931 129.39 506.495 131.029C508.058 132.667 509.732 132.311 511.253 131.988C512.775 131.664 520.963 133.811 518.482 139.398C516.002 144.986 517.4 147.345 521.054 148.595C524.708 149.845 515.979 156.708 516.279 158.135C516.58 159.563 520.848 159.454 517.876 160.938C514.903 162.423 502.907 164.335 499.325 160.409C495.744 156.483 490.991 149.505 490.991 149.505Z" stroke="#004ED1" stroke-linecap="round" stroke-linejoin="round"/>
<path fill-rule="evenodd" clip-rule="evenodd" d="M493.492 159.014C493.492 159.014 497.439 164.263 494.861 174.761C493.653 177.274 504.527 178.679 508.072 176.461C511.616 174.243 515.763 172.062 515.763 172.062C515.763 172.062 506.299 164.189 504.286 159.753L502.272 155.318L493.492 159.014Z" fill="white"/>
<path fill-rule="evenodd" clip-rule="evenodd" d="M493.492 159.014C493.492 159.014 497.439 164.263 494.861 174.761C493.653 177.274 504.527 178.679 508.072 176.461C511.616 174.243 515.763 172.062 515.763 172.062C515.763 172.062 506.299 164.189 504.286 159.753L502.272 155.318L493.492 159.014Z" stroke="#004ED1" stroke-linecap="round" stroke-linejoin="round"/>
<path fill-rule="evenodd" clip-rule="evenodd" d="M498.644 170.15C498.644 170.15 501.635 169.062 503.39 165.206C498.332 167.237 498.441 167.445 498.441 167.445L498.644 170.15Z" fill="#1A1A1A"/>
<path fill-rule="evenodd" clip-rule="evenodd" d="M508.145 152.818C505.154 156 503.273 156.908 504.788 157.969C505.829 158.698 505.902 160.314 505.844 161.255C501.517 165.517 495.281 169.801 489.789 166.513C480.198 160.773 492.176 140.56 492.176 140.56C492.735 140.237 495.56 140.987 498.143 142.307C500.725 143.625 502.733 142.018 504 140.617C506.541 141.654 508.216 143.304 509.313 145.122C509.681 147.076 509.931 150.398 508.145 152.818Z" fill="white"/>
<path fill-rule="evenodd" clip-rule="evenodd" d="M508.145 152.818C505.154 156 503.273 156.908 504.788 157.969C505.829 158.698 505.902 160.314 505.844 161.255C501.517 165.517 495.281 169.801 489.789 166.513C480.198 160.773 492.176 140.56 492.176 140.56C492.735 140.237 495.56 140.987 498.143 142.307C500.725 143.625 502.733 142.018 504 140.617C506.541 141.654 508.216 143.304 509.313 145.122C509.681 147.076 509.931 150.398 508.145 152.818Z" stroke="#004ED1" stroke-linecap="round" stroke-linejoin="round"/>
<path fill-rule="evenodd" clip-rule="evenodd" d="M570.203 317.24H613.508V250.494H570.203V317.24Z" stroke="#004ED1" stroke-linecap="round" stroke-linejoin="round"/>
<path fill-rule="evenodd" clip-rule="evenodd" d="M588.763 264.708C588.763 261.636 586.27 259.146 583.195 259.146C580.12 259.146 577.627 261.636 577.627 264.708C577.627 267.78 580.12 270.27 583.195 270.27C586.27 270.27 588.763 267.78 588.763 264.708Z" fill="#004ED1"/>
<path fill-rule="evenodd" clip-rule="evenodd" d="M588.763 283.249C588.763 280.177 586.27 277.687 583.195 277.687C580.12 277.687 577.627 280.177 577.627 283.249C577.627 286.321 580.12 288.811 583.195 288.811C586.27 288.811 588.763 286.321 588.763 283.249Z" fill="white"/>
<path fill-rule="evenodd" clip-rule="evenodd" d="M588.763 283.249C588.763 280.177 586.27 277.687 583.195 277.687C580.12 277.687 577.627 280.177 577.627 283.249C577.627 286.321 580.12 288.811 583.195 288.811C586.27 288.811 588.763 286.321 588.763 283.249Z" stroke="#004ED1" stroke-linecap="round" stroke-linejoin="round"/>
<path fill-rule="evenodd" clip-rule="evenodd" d="M379.661 259.146H453.898V220.828H379.661V259.146Z" fill="white"/>
<path fill-rule="evenodd" clip-rule="evenodd" d="M379.661 259.146H453.898V220.828H379.661V259.146Z" stroke="#004ED1" stroke-linecap="round" stroke-linejoin="round"/>
<path fill-rule="evenodd" clip-rule="evenodd" d="M405.644 248.021H414.305V239.369H405.644V248.021Z" fill="#FF793A"/>
<path fill-rule="evenodd" clip-rule="evenodd" d="M420.492 248.022H429.153V231.953H420.492V248.022Z" fill="#004ED1"/>
<path fill-rule="evenodd" clip-rule="evenodd" d="M435.339 248.021H444V227.009H435.339V248.021Z" fill="#FF793A"/>
<path d="M526.898 249.258C526.898 249.258 527.268 258.259 535.559 260.382" stroke="#004ED1" stroke-linecap="round" stroke-linejoin="round"/>
<path fill-rule="evenodd" clip-rule="evenodd" d="M450.186 157.756C451.206 155.429 457.921 151.072 460.428 151.664C462.935 152.256 459.536 158.855 457.963 160.336C456.391 161.817 453.034 162.734 453.034 162.734" fill="white"/>
<path d="M450.186 157.756C451.206 155.429 457.921 151.072 460.428 151.664C462.935 152.256 459.536 158.855 457.963 160.336C456.391 161.817 453.034 162.734 453.034 162.734" stroke="#004ED1" stroke-linecap="round" stroke-linejoin="round"/>
<path d="M524.642 252.966C524.642 252.966 511.528 316.075 564.017 366.682" stroke="#004ED1" stroke-linecap="round" stroke-linejoin="round" stroke-dasharray="12 12"/>
<path d="M497.013 381.515C497.013 381.515 478.797 339.514 505.864 282.631" stroke="#004ED1" stroke-linecap="round" stroke-linejoin="round" stroke-dasharray="12 12"/>
<path fill-rule="evenodd" clip-rule="evenodd" d="M577.627 222.064L582.501 236.897H585.051L581.764 222.064H577.627Z" stroke="#004ED1" stroke-linecap="round" stroke-linejoin="round"/>
</g>
<path fill-rule="evenodd" clip-rule="evenodd" d="M403 148.941L421.17 145L422 147.187L405.577 154L403 148.941Z" fill="white"/>
<path fill-rule="evenodd" clip-rule="evenodd" d="M403 148.941L421.17 145L422 147.187L405.577 154L403 148.941Z" stroke="#004ED1" stroke-linecap="round" stroke-linejoin="round"/>
<path fill-rule="evenodd" clip-rule="evenodd" d="M424 92.057L430.806 108L433 107.33L429.436 91L424 92.057Z" fill="white"/>
<path fill-rule="evenodd" clip-rule="evenodd" d="M424 92.057L430.806 108L433 107.33L429.436 91L424 92.057Z" stroke="#004ED1" stroke-linecap="round" stroke-linejoin="round"/>
<path fill-rule="evenodd" clip-rule="evenodd" d="M415 120.639L414.413 123H396L397.172 116L415 120.639Z" fill="white"/>
<path fill-rule="evenodd" clip-rule="evenodd" d="M415 120.639L414.413 123H396L397.172 116L415 120.639Z" stroke="#004ED1" stroke-linecap="round" stroke-linejoin="round"/>
<path d="M545.283 422.187H414.717C404.439 422.187 396.107 430.519 396.107 440.797C396.107 451.075 404.439 459.407 414.717 459.407H545.283C555.561 459.407 563.893 451.075 563.893 440.797C563.893 430.519 555.561 422.187 545.283 422.187Z" fill="#004ED1"/>
<path d="M454.031 435.996V437.1H464.147V435.996H459.743C459.575 435.324 459.395 434.712 459.227 434.184L457.907 434.4C458.111 434.892 458.303 435.42 458.483 435.996H454.031ZM453.623 443.496V444.6H464.555V443.496H460.835C461.519 441.888 462.095 440.04 462.575 437.964L461.363 437.652C460.835 439.98 460.211 441.936 459.515 443.496H453.623ZM456.815 437.652L455.615 438.048C456.167 439.728 456.623 441.468 456.983 443.28L458.207 442.968C457.799 440.964 457.343 439.188 456.815 437.652ZM467.243 437.928H469.763V439.32H467.243V437.928ZM469.763 436.908H467.243V435.588H469.763V436.908ZM466.031 444.9C467.591 444.516 468.995 444.072 470.219 443.556C470.411 443.94 470.591 444.3 470.759 444.66L471.647 444.036C471.251 443.196 470.687 442.2 469.943 441.06L469.079 441.612C469.283 441.948 469.487 442.272 469.691 442.608C468.971 442.896 468.155 443.172 467.243 443.436V440.376H470.819V434.568H466.127V443.22C466.127 443.496 465.959 443.688 465.635 443.808L466.031 444.9ZM474.911 443.592C475.751 443.592 476.183 443.16 476.183 442.296V434.58H472.067V445.2H473.207V435.648H475.043V442.044C475.043 442.356 474.875 442.524 474.539 442.524L473.651 442.488L473.951 443.592H474.911ZM478.355 434.796V435.9H480.467V438.516C480.467 438.588 480.455 438.684 480.455 438.78H477.731V439.884H480.371C480.275 440.736 480.119 441.48 479.891 442.104C479.543 442.968 478.883 443.688 477.923 444.252L478.535 445.212C479.603 444.672 480.371 443.892 480.827 442.884C481.187 442.08 481.415 441.084 481.535 439.884H484.751V445.08H485.891V439.884H488.423V438.78H485.891V435.9H487.811V434.796H478.355ZM481.619 435.9H484.751V438.78H481.607C481.607 438.696 481.619 438.612 481.619 438.516V435.9ZM499.631 440.496H492.479V445.284H493.595V444.72H498.527V445.284H499.631V440.496ZM493.595 443.652V441.576H498.527V443.652H493.595ZM498.647 436.44V438.036H491.939V436.44H498.647ZM491.939 439.08H499.775V435.372H495.911C495.755 434.88 495.599 434.436 495.431 434.028L494.243 434.22C494.435 434.568 494.603 434.952 494.747 435.372H490.811V439.596C490.799 441.588 490.343 443.208 489.455 444.48L490.355 445.272C491.399 443.688 491.927 441.792 491.939 439.596V439.08Z" fill="white"/>
<path d="M407.155 322.591C406.875 322.297 405.839 321.261 405.279 320.757C405.951 319.847 406.539 318.853 406.945 317.817L406.245 317.327L406.021 317.383H404.579L405.587 316.767C405.349 316.263 404.789 315.521 404.271 314.975L403.263 315.549C403.739 316.081 404.271 316.865 404.523 317.383H401.877V318.559H405.335C404.439 320.183 402.955 321.709 401.485 322.563C401.653 322.815 401.933 323.501 402.031 323.851C402.619 323.473 403.235 322.983 403.809 322.423V327.855H405.069V322.101C405.545 322.647 406.077 323.277 406.343 323.669L407.155 322.591ZM411.383 326.091V320.533H414.211V319.287H411.383V315.031H410.053V319.287H407.155V320.533H410.053V326.091H406.525V327.365H414.519V326.091H411.383ZM428.127 316.879H422.723L423.129 316.725C422.933 316.235 422.485 315.451 422.107 314.877L420.875 315.297C421.169 315.787 421.491 316.403 421.701 316.879H416.059V318.139H428.127V316.879ZM423.605 319.147C424.879 320.029 426.419 321.345 427.119 322.213L428.211 321.359C427.455 320.491 425.873 319.231 424.627 318.405L423.605 319.147ZM419.461 318.447C418.649 319.483 417.277 320.533 416.045 321.205C416.339 321.415 416.843 321.905 417.067 322.157C418.285 321.387 419.769 320.127 420.735 318.937L419.461 318.447ZM424.081 320.813C423.633 322.003 422.989 322.983 422.149 323.795C421.295 322.983 420.637 322.003 420.189 320.883L419.013 321.247C419.573 322.563 420.287 323.669 421.169 324.607C419.755 325.615 417.949 326.287 415.821 326.707C416.073 327.001 416.465 327.575 416.605 327.883C418.761 327.351 420.623 326.595 422.135 325.461C423.577 326.595 425.383 327.365 427.651 327.785C427.819 327.421 428.169 326.889 428.449 326.623C426.293 326.273 424.529 325.601 423.129 324.621C424.081 323.697 424.837 322.577 425.397 321.205L424.081 320.813ZM432.271 320.085C433.685 319.147 435.029 318.013 436.093 316.739C437.311 318.083 438.599 319.147 439.999 320.085H432.271ZM440.391 321.233V320.351C440.867 320.645 441.371 320.939 441.889 321.233C442.071 320.855 442.449 320.393 442.771 320.127C440.531 319.035 438.529 317.691 436.835 315.787C436.919 315.661 437.003 315.549 437.087 315.423L435.925 314.877C434.539 317.061 432.005 319.007 429.485 320.099C429.821 320.379 430.185 320.841 430.381 321.163C430.885 320.925 431.403 320.631 431.893 320.337V321.233H435.421V323.179H432.033V324.313H435.421V326.343H430.227V327.505H442.071V326.343H436.793V324.313H440.335V323.179H436.793V321.233H440.391ZM454.055 318.209V319.119H449.561V318.209H454.055ZM456.197 320.967H449.561V320.029H455.329V317.299H449.561V316.459H455.903V315.465H448.287V321.975H456.197V320.967ZM447.671 316.109C447.139 315.787 446.117 315.339 445.347 315.087L444.773 315.913C445.557 316.193 446.579 316.697 447.097 317.019L447.671 316.109ZM444.997 322.493C445.879 321.681 446.845 320.757 447.685 319.889L446.999 318.993C446.033 319.945 444.927 320.925 444.157 321.499L444.997 322.493ZM446.943 318.069C446.411 317.747 445.347 317.299 444.563 317.047L443.975 317.915C444.773 318.209 445.823 318.685 446.341 319.021L446.943 318.069ZM456.281 324.173V323.039H450.751V322.213H449.435V323.039H443.961V324.173H448.217C447.041 325.223 445.277 326.147 443.639 326.623C443.905 326.875 444.297 327.365 444.479 327.687C446.243 327.057 448.147 325.895 449.435 324.537V327.883H450.751V324.593C452.053 325.923 453.943 327.057 455.735 327.659C455.903 327.323 456.309 326.847 456.575 326.581C454.881 326.119 453.103 325.223 451.899 324.173H456.281ZM467.943 320.799H463.687V319.819H467.943V320.799ZM467.943 322.647H463.687V321.667H467.943V322.647ZM467.943 324.523H463.687V323.529H467.943V324.523ZM462.469 318.867V325.475H469.231V318.867H465.983C466.137 318.559 466.277 318.209 466.431 317.845H470.323V316.781H467.873C468.181 316.361 468.503 315.857 468.825 315.381L467.565 315.031C467.341 315.549 466.935 316.263 466.585 316.781H464.163L464.877 316.459C464.709 316.039 464.275 315.395 463.911 314.947L462.819 315.395C463.127 315.801 463.463 316.375 463.645 316.781H461.503V317.845H465.017C464.947 318.181 464.849 318.545 464.765 318.867H462.469ZM460.985 317.817C460.579 317.173 459.697 316.221 458.969 315.549L457.961 316.193C458.689 316.907 459.543 317.901 459.935 318.545L460.985 317.817ZM460.915 319.973H457.863V321.177H459.669V325.265C459.053 325.517 458.353 326.063 457.681 326.721L458.465 327.799C459.151 326.973 459.865 326.203 460.341 326.203C460.663 326.203 461.125 326.595 461.727 326.931C462.721 327.449 463.925 327.617 465.563 327.617C466.893 327.617 469.245 327.533 470.211 327.463C470.239 327.113 470.421 326.525 470.575 326.203C469.231 326.371 467.131 326.469 465.605 326.469C464.093 326.469 462.875 326.371 461.965 325.895C461.503 325.657 461.195 325.419 460.915 325.279V319.973ZM481.075 320.967V322.605H478.317V323.739H481.075V325.895H482.293V323.739H484.449V322.605H482.293V320.967H484.085V319.875H482.293V318.293H481.075V319.875H479.899C480.221 319.203 480.543 318.447 480.837 317.635H484.323V316.473H481.229C481.369 316.053 481.481 315.619 481.579 315.213L480.291 314.961C480.207 315.451 480.081 315.983 479.955 316.473H478.289V317.635H479.619C479.395 318.335 479.185 318.881 479.087 319.119C478.863 319.609 478.667 319.959 478.429 320.029C478.583 320.337 478.779 320.911 478.849 321.163C478.975 321.051 479.409 320.967 479.913 320.967H481.075ZM477.967 318.027C477.771 317.341 477.351 316.277 476.959 315.451L475.881 315.801C476.259 316.627 476.679 317.719 476.847 318.433L477.967 318.027ZM474.369 325.447V322.969H475.755V321.863H474.369V320.127H475.377V319.021H472.535C472.815 318.601 473.053 318.139 473.291 317.635H475.699V316.501H473.739C473.879 316.123 474.005 315.731 474.089 315.353L472.997 315.045C472.717 316.291 472.199 317.509 471.555 318.335C471.765 318.601 472.087 319.245 472.185 319.497C472.269 319.371 472.367 319.259 472.465 319.119V320.127H473.221V321.863H471.877V322.969H473.221V325.489C473.221 326.189 472.815 326.679 472.549 326.875C472.759 327.071 473.067 327.491 473.193 327.743V327.701L473.207 327.743C473.417 327.463 473.767 327.183 475.909 325.643C475.783 325.419 475.615 324.957 475.545 324.663L474.369 325.447ZM477.925 319.679H475.811V320.869H476.749V325.377C476.273 325.629 475.755 326.063 475.279 326.595L476.105 327.799C476.567 327.071 477.113 326.301 477.491 326.301C477.743 326.301 478.149 326.651 478.625 326.959C479.381 327.407 480.235 327.617 481.411 327.617C482.279 327.617 483.651 327.575 484.365 327.519C484.379 327.183 484.547 326.553 484.673 326.203C483.735 326.315 482.307 326.385 481.425 326.385C480.347 326.385 479.493 326.259 478.807 325.839C478.429 325.615 478.177 325.405 477.925 325.279V319.679ZM498.057 316.403H494.935C494.739 315.997 494.473 315.521 494.221 315.143L493.003 315.325C493.199 315.647 493.409 316.039 493.577 316.403H490.483V317.495H498.057V316.403ZM489.601 321.065L488.467 321.415V318.951H489.755V317.747H488.467V315.045H487.277V317.747H485.723V318.951H487.277V321.765C486.619 321.947 486.017 322.129 485.541 322.241L485.835 323.501L487.277 323.039V326.385C487.277 326.567 487.207 326.623 487.039 326.623C486.899 326.623 486.395 326.623 485.877 326.609C486.045 326.945 486.199 327.505 486.241 327.813C487.067 327.827 487.613 327.771 487.977 327.575C488.341 327.365 488.467 327.029 488.467 326.385V322.675C488.901 322.535 489.349 322.395 489.783 322.269L489.601 321.065ZM498.393 319.609H495.901C496.237 319.119 496.587 318.489 496.923 317.915L495.691 317.565C495.481 318.167 495.005 319.035 494.655 319.609H492.513L493.409 319.231C493.241 318.755 492.849 318.055 492.457 317.537L491.463 317.929C491.813 318.447 492.177 319.147 492.317 319.609H490.035V320.715H498.393V319.609ZM495.635 323.207C495.383 323.977 495.005 324.579 494.487 325.083C493.801 324.803 493.087 324.537 492.415 324.327C492.653 323.977 492.891 323.613 493.129 323.207H495.635ZM498.547 323.207V322.115H493.745C493.955 321.737 494.137 321.331 494.291 320.967L493.087 320.715C492.919 321.149 492.681 321.639 492.415 322.115H489.839V323.207H491.771C491.393 323.823 490.987 324.411 490.637 324.873C491.505 325.139 492.443 325.475 493.367 325.867C492.429 326.315 491.211 326.595 489.615 326.763C489.825 327.015 490.049 327.491 490.147 327.855C492.121 327.561 493.605 327.141 494.683 326.441C495.761 326.931 496.727 327.463 497.371 327.911L498.197 326.917C497.553 326.483 496.671 326.035 495.691 325.587C496.265 324.957 496.657 324.187 496.937 323.207H498.547ZM404.705 336.087C403.977 338.201 402.773 340.315 401.485 341.687C401.709 342.009 402.073 342.709 402.199 343.017C402.619 342.555 403.039 342.023 403.431 341.435V348.855H404.677V339.307C405.153 338.383 405.587 337.403 405.937 336.437L404.705 336.087ZM409.129 345.845C409.577 346.755 410.095 347.945 410.319 348.673L411.299 348.309C411.075 347.595 410.515 346.419 410.053 345.551L409.129 345.845ZM407.575 341.267V338.495C408.457 338.369 409.339 338.215 410.221 338.047C410.263 339.181 410.333 340.245 410.417 341.267H407.575ZM414.379 342.485V341.267H411.649C411.551 340.189 411.495 338.999 411.453 337.781C412.363 337.571 413.217 337.347 413.959 337.081L412.895 336.031C411.341 336.633 408.709 337.179 406.357 337.501L406.371 337.515H406.357V346.993C406.357 347.539 406.021 347.749 405.797 347.861C405.951 348.113 406.175 348.631 406.231 348.939C406.497 348.757 406.903 348.589 409.339 347.917C409.297 347.637 409.283 347.133 409.311 346.811L407.575 347.231V342.485H410.529C410.935 346.237 411.747 348.729 413.245 348.757C413.791 348.757 414.365 348.183 414.645 346.013C414.435 345.915 413.931 345.579 413.735 345.327C413.637 346.531 413.483 347.203 413.245 347.203C412.629 347.175 412.097 345.257 411.775 342.485H414.379ZM426.293 340.469C425.887 341.757 425.369 342.919 424.697 343.955C424.375 342.709 424.151 341.197 424.011 339.531H428.407V338.257H426.979L427.651 337.543C427.105 337.067 426.055 336.423 425.229 335.989L424.445 336.787C425.187 337.193 426.097 337.795 426.643 338.257H423.941C423.899 337.529 423.885 336.787 423.899 336.031H422.527C422.527 336.773 422.555 337.529 422.597 338.257H416.843V342.219C416.843 344.025 416.745 346.433 415.625 348.113C415.919 348.281 416.493 348.743 416.717 349.009C417.949 347.203 418.187 344.403 418.201 342.415H420.441C420.399 344.529 420.315 345.327 420.161 345.523C420.063 345.649 419.923 345.691 419.727 345.691C419.503 345.691 418.957 345.677 418.383 345.621C418.579 345.957 418.705 346.461 418.733 346.839C419.405 346.867 420.035 346.867 420.385 346.811C420.763 346.769 421.029 346.657 421.281 346.363C421.575 345.971 421.645 344.767 421.715 341.729V341.225H418.201V339.531H422.681C422.849 341.715 423.171 343.717 423.675 345.299C422.821 346.293 421.785 347.105 420.623 347.749C420.917 347.987 421.379 348.533 421.575 348.813C422.541 348.225 423.423 347.511 424.221 346.671C424.851 347.987 425.663 348.771 426.685 348.771C427.833 348.771 428.309 348.113 428.519 345.649C428.169 345.523 427.707 345.229 427.399 344.921C427.315 346.727 427.147 347.441 426.783 347.441C426.195 347.441 425.649 346.713 425.173 345.523C426.195 344.179 427.021 342.597 427.609 340.791L426.293 340.469ZM436.779 345.061V340.161H436.933C437.619 341.981 438.599 343.717 439.775 345.061H436.779ZM432.355 345.061C433.545 343.717 434.539 341.995 435.225 340.161H435.407V345.061H432.355ZM442.211 340.161V338.845H436.779V336.017H435.407V338.845H430.045V340.161H433.909C432.957 342.415 431.375 344.543 429.611 345.663C429.933 345.929 430.353 346.391 430.577 346.727C431.179 346.279 431.753 345.747 432.313 345.131V346.377H435.407V348.855H436.779V346.377H439.873V345.159C440.391 345.747 440.965 346.265 441.567 346.685C441.791 346.307 442.267 345.803 442.589 345.537C440.797 344.445 439.201 342.373 438.235 340.161H442.211ZM443.751 341.603V343.017H456.491V341.603H443.751ZM468.979 338.089V338.971H467.999V338.089H468.979ZM468.979 340.847H467.999V339.951H468.979V340.847ZM466.963 338.971H464.905V339.951H466.963V340.847H465.465V341.813H466.963V342.681H465.339V343.703H466.963V344.627H465.003V345.649H466.963V347.147H467.999V345.649H470.169V344.627H467.999V343.703H469.931V342.681H467.999V341.813H469.973V339.951H470.505V338.971H469.973V337.109H467.999V336.017H466.963V337.109H465.465V338.089H466.963V338.971ZM461.839 338.635V337.501H459.669C459.809 337.123 459.921 336.717 460.033 336.325L458.997 336.045C458.717 337.291 458.213 338.509 457.583 339.335C457.765 339.587 458.059 340.175 458.157 340.413C458.549 339.937 458.913 339.321 459.207 338.635H461.839ZM460.411 346.503V343.969H461.839V342.863H460.411V341.127H461.503V340.021H458.465V341.127H459.347V342.863H457.877V343.969H459.347V346.573C459.347 347.259 458.941 347.735 458.689 347.931C458.885 348.113 459.179 348.505 459.305 348.743V348.701L459.319 348.743C459.529 348.463 459.879 348.183 462.063 346.615C461.937 346.391 461.769 345.929 461.685 345.635L460.411 346.503ZM464.471 341.001L464.275 341.029H463.589C464.065 339.797 464.597 338.257 465.017 336.969H462.147L462.161 338.047H463.561C463.099 339.447 462.539 341.001 462.105 342.051H463.995C463.883 343.101 463.701 343.997 463.477 344.795C463.267 344.347 463.085 343.843 462.959 343.269L461.993 343.619C462.259 344.613 462.595 345.425 462.973 346.083C462.567 346.965 462.035 347.623 461.377 348.113C461.615 348.267 462.035 348.617 462.217 348.855C462.777 348.407 463.267 347.805 463.673 347.049C464.877 348.351 466.459 348.687 468.279 348.687H470.253C470.295 348.379 470.463 347.861 470.631 347.581C470.141 347.595 468.769 347.595 468.377 347.595C466.753 347.595 465.255 347.273 464.177 345.929C464.639 344.683 464.947 343.101 465.115 341.155L464.471 341.001ZM476.441 341.841C476.441 341.659 476.441 341.491 476.441 341.323V338.117H480.025V341.841H476.441ZM484.379 341.841H481.383V338.117H483.945V336.885H472.353V338.117H475.111V341.323C475.111 341.491 475.111 341.659 475.111 341.841H471.877V343.087H475.013C474.789 344.851 474.061 346.615 471.863 347.959C472.185 348.169 472.689 348.631 472.913 348.925C475.405 347.357 476.147 345.229 476.357 343.087H480.025V348.883H481.383V343.087H484.379V341.841ZM490.399 341.743C489.909 341.911 489.391 342.065 488.901 342.219V339.965H490.483V338.761H488.901V336.017H487.627V338.761H485.737V339.965H487.627V342.625C486.871 342.849 486.171 343.059 485.611 343.227L486.003 344.473L487.627 343.941V347.315C487.627 347.525 487.557 347.581 487.361 347.595C487.193 347.595 486.591 347.595 485.975 347.581C486.143 347.903 486.325 348.435 486.367 348.757C487.319 348.757 487.949 348.729 488.355 348.519C488.747 348.337 488.901 348.001 488.901 347.329V343.493C489.475 343.311 490.049 343.115 490.623 342.905L490.399 341.743ZM496.685 346.853H492.975V342.989H496.685V346.853ZM498.463 338.201V336.955H490.497V338.201H492.933C492.345 340.483 491.253 343.003 489.573 344.543C489.839 344.781 490.231 345.243 490.427 345.537C490.917 345.075 491.365 344.557 491.757 343.983V348.869H492.975V348.085H496.685V348.813H497.959V341.757H493.031C493.563 340.609 493.983 339.391 494.305 338.201H498.463ZM512.225 338.677V337.515H506.037C506.205 337.123 506.359 336.717 506.499 336.325L505.239 336.003C504.749 337.599 503.895 339.209 502.957 340.217C503.251 340.385 503.825 340.735 504.077 340.945C504.581 340.343 505.071 339.545 505.505 338.677H512.225ZM503.657 337.627C503.111 337.179 502.033 336.577 501.207 336.213L500.479 337.109C501.305 337.515 502.369 338.159 502.887 338.621L503.657 337.627ZM502.733 341.589C502.243 341.155 501.221 340.581 500.451 340.217L499.737 341.099C500.507 341.491 501.515 342.135 501.991 342.583L502.733 341.589ZM501.249 348.631C501.851 347.315 502.523 345.621 503.055 344.151L502.033 343.437C501.473 345.033 500.675 346.839 500.129 347.945L501.249 348.631ZM508.375 345.691L508.921 345.313C508.613 344.879 507.983 344.277 507.423 343.843H510.251C510.209 344.585 510.153 345.201 510.097 345.691H508.375ZM507.199 343.843L506.597 344.221C507.101 344.641 507.703 345.243 508.039 345.691H505.351C505.449 345.131 505.533 344.501 505.631 343.843H507.199ZM507.479 340.973L506.947 341.323C507.409 341.701 507.955 342.233 508.277 342.653H505.785C505.855 342.093 505.939 341.519 505.981 340.973H507.479ZM510.405 340.973C510.377 341.575 510.349 342.149 510.321 342.653H508.627L509.117 342.303C508.851 341.925 508.291 341.379 507.787 340.973H510.405ZM512.589 343.843V342.653H511.525C511.553 341.995 511.595 341.253 511.623 340.427C511.637 340.259 511.651 339.853 511.651 339.853H504.889C504.805 340.693 504.707 341.673 504.581 342.653H503.153V343.843H504.413C504.259 344.949 504.077 345.999 503.923 346.811H509.915C509.845 347.161 509.747 347.385 509.649 347.497C509.509 347.679 509.383 347.707 509.131 347.707C508.865 347.707 508.263 347.707 507.591 347.637C507.787 347.945 507.899 348.421 507.927 348.729C508.599 348.771 509.285 348.785 509.677 348.729C510.111 348.673 510.433 348.561 510.713 348.169C510.895 347.959 511.035 347.539 511.147 346.811H512.211V345.691H511.301C511.357 345.173 511.399 344.571 511.441 343.843H512.589ZM519.421 338.089H517.041C517.209 337.487 517.377 336.871 517.517 336.241L516.215 336.003C515.725 338.411 514.885 340.707 513.625 342.135C513.933 342.331 514.493 342.737 514.731 342.961C515.473 342.009 516.117 340.749 516.635 339.321H519.043C518.819 340.665 518.483 341.827 518.063 342.863C517.503 342.401 516.775 341.883 516.215 341.505L515.431 342.387C516.089 342.863 516.915 343.493 517.489 344.025C516.537 345.705 515.235 346.881 513.625 347.651C513.975 347.875 514.507 348.407 514.717 348.729C517.755 347.147 519.883 343.829 520.597 338.327L519.673 338.047L519.421 338.089ZM522.879 340.553V336.017H521.507V348.855H522.879V341.463C523.873 342.387 524.979 343.493 525.539 344.249L526.645 343.353C525.931 342.471 524.447 341.141 523.355 340.203L522.879 340.553ZM540.407 341.967C539.917 341.155 538.853 339.895 537.999 338.985L537.033 339.559C537.313 339.895 537.635 340.259 537.929 340.651L534.149 340.861C534.625 340.287 535.185 339.573 535.661 338.943H540.281V337.767H536.767C536.613 337.249 536.333 336.549 536.067 336.017L534.877 336.297C535.073 336.731 535.283 337.291 535.423 337.767H531.629V338.943H534.177C533.645 339.629 533.001 340.441 532.763 340.665C532.483 340.903 532.049 341.001 531.755 341.071C531.853 341.351 532.035 341.981 532.091 342.289C532.539 342.121 533.211 342.065 538.713 341.673C538.979 342.037 539.203 342.359 539.343 342.639L540.407 341.967ZM531.475 337.823C530.957 337.305 529.865 336.619 529.011 336.199L528.283 337.137C529.137 337.599 530.201 338.327 530.691 338.845L531.475 337.823ZM530.971 341.393C530.383 340.917 529.263 340.329 528.367 339.979L527.681 340.945C528.577 341.351 529.697 341.995 530.243 342.485L530.971 341.393ZM530.621 343.395C529.809 344.991 528.731 346.769 527.989 347.833L529.081 348.701C529.921 347.385 530.845 345.719 531.587 344.263L530.621 343.395ZM532.693 344.095C532.693 345.327 532.511 346.825 530.859 347.959C531.153 348.155 531.587 348.547 531.769 348.813C533.631 347.483 533.869 345.649 533.869 344.137V342.737H532.693V344.095ZM535.115 348.281H536.249V342.751H535.115V348.281ZM538.965 347.595C538.881 347.595 538.811 347.581 538.769 347.539C538.713 347.483 538.699 347.329 538.699 347.091V342.737H537.509V347.021C537.509 347.889 537.579 348.141 537.803 348.351C537.999 348.533 538.349 348.631 538.629 348.631H539.329C539.581 348.631 539.875 348.575 540.057 348.463C540.239 348.351 540.379 348.169 540.463 347.889C540.533 347.637 540.589 346.909 540.603 346.293C540.309 346.181 539.931 345.999 539.707 345.789C539.693 346.447 539.679 346.951 539.665 347.175C539.623 347.385 539.581 347.497 539.525 347.539C539.469 347.581 539.371 347.595 539.273 347.595H538.965ZM551.257 337.823H544.859V337.165H551.257V337.823ZM551.257 339.139H544.859V338.467H551.257V339.139ZM552.559 336.451H543.613V339.853H552.559V336.451ZM554.351 340.357H541.863V341.309H554.351V340.357ZM544.593 344.613V343.913H547.449V344.613H544.593ZM544.593 342.583H547.449V343.269H544.593V342.583ZM551.663 343.269H548.709V342.583H551.663V343.269ZM551.663 344.613H548.709V343.913H551.663V344.613ZM548.709 347.511V346.853H553.203V345.971H548.709V345.355H552.951V341.841H543.361V345.355H547.449V345.971H542.997V346.853H547.449V347.511H541.807V348.505H554.421V347.511H548.709Z" fill="#333333"/>
<path d="M405.243 366.235H410.6V367.544H411.095V365.762H404.759V367.566H405.243V366.235ZM408.455 367.302C409.247 367.995 410.16 368.963 410.578 369.59L410.974 369.271C410.545 368.644 409.632 367.698 408.84 367.027L408.455 367.302ZM406.783 367.115C406.31 367.962 405.507 368.754 404.671 369.282C404.803 369.37 405.001 369.557 405.089 369.634C405.903 369.073 406.761 368.182 407.289 367.258L406.783 367.115ZM404.242 366.356C403.857 366.004 403.065 365.531 402.438 365.234L402.152 365.619C402.779 365.949 403.56 366.444 403.945 366.785L404.242 366.356ZM403.879 369.293C403.428 368.952 402.581 368.501 401.899 368.215L401.602 368.589C402.295 368.908 403.131 369.392 403.571 369.722L403.879 369.293ZM402.284 374.826C402.845 373.836 403.527 372.428 404.033 371.284L403.692 370.932C403.142 372.153 402.383 373.616 401.888 374.452L402.284 374.826ZM411.128 370.866V370.382H408.114V369.117H407.597V370.382H404.66V370.866H407.179C406.53 372.208 405.364 373.385 404.11 373.957C404.242 374.067 404.396 374.243 404.484 374.375C405.727 373.737 406.915 372.494 407.597 371.064V375.024H408.114V371.042C408.796 372.406 409.94 373.715 411.062 374.375C411.161 374.243 411.326 374.067 411.447 373.957C410.325 373.374 409.181 372.164 408.543 370.866H411.128ZM416.54 372.296C416.32 371.999 415.352 370.833 415 370.448H416.628V369.964H414.989V368.622H416.364V368.138H414.989V366.818H416.551V366.334H414.989V365.091H414.483V366.334H412.844V366.818H414.483V368.138H412.998V368.622H414.483V369.964H412.712V370.448H414.307C413.9 371.603 413.141 372.912 412.503 373.583C412.591 373.704 412.723 373.902 412.778 374.034C413.372 373.385 414.032 372.252 414.483 371.163V375.057H414.989V371.097C415.407 371.625 415.99 372.384 416.221 372.725L416.54 372.296ZM418.905 370.569C418.927 370.294 418.927 370.019 418.927 369.744V367.731H420.654V370.569H418.905ZM422.535 370.569H421.171V367.731H422.425V367.225H421.171V365.091H420.654V367.225H418.927V365.102H418.41V367.225H417.145V367.731H418.41V369.733C418.41 370.008 418.41 370.294 418.388 370.569H416.969V371.075H418.355C418.201 372.439 417.75 373.77 416.419 374.76C416.551 374.837 416.749 374.991 416.848 375.101C418.256 374.012 418.729 372.582 418.872 371.075H420.654V375.046H421.171V371.075H422.535V370.569ZM432.952 367.005H428.882V365.102H428.343V367.005H424.273V375.079H424.801V367.522H428.332C428.277 369.029 427.87 370.954 425.263 372.384C425.384 372.472 425.56 372.659 425.626 372.769C427.276 371.823 428.09 370.69 428.497 369.579C429.63 370.591 430.917 371.878 431.544 372.692L431.984 372.351C431.269 371.493 429.828 370.107 428.64 369.084C428.794 368.545 428.849 368.017 428.871 367.522H432.435V374.221C432.435 374.419 432.38 374.485 432.16 374.496C431.94 374.507 431.181 374.518 430.323 374.485C430.4 374.65 430.488 374.881 430.521 375.046C431.511 375.046 432.182 375.046 432.523 374.947C432.842 374.848 432.952 374.65 432.952 374.221V367.005ZM435.625 366.675H443.578V367.962H444.117V366.18H440.146C440.014 365.85 439.761 365.388 439.53 365.047L439.013 365.179C439.211 365.476 439.409 365.872 439.541 366.18H435.108V367.962H435.625V366.675ZM440.718 367.687C441.774 368.325 443.039 369.282 443.666 369.931L444.029 369.568C443.391 368.93 442.115 367.995 441.059 367.368L440.718 367.687ZM437.858 367.368C437.176 368.204 436.098 369.018 435.075 369.557C435.207 369.645 435.383 369.843 435.471 369.953C436.472 369.359 437.605 368.468 438.353 367.533L437.858 367.368ZM437.066 371.438C438.045 370.789 438.925 370.03 439.618 369.183C440.421 370.118 441.323 370.833 442.313 371.438H437.066ZM437.121 374.166V371.933H442.071V374.166H437.121ZM439.651 368.303C438.584 369.887 436.626 371.35 434.591 372.142C434.723 372.241 434.855 372.428 434.943 372.56C435.504 372.318 436.076 372.043 436.604 371.724V375.068H437.121V374.661H442.071V375.002H442.599V371.614C443.105 371.9 443.655 372.175 444.216 372.417C444.304 372.263 444.447 372.087 444.579 371.977C442.764 371.218 441.147 370.305 439.904 368.809C439.97 368.71 440.047 368.611 440.113 368.523L439.651 368.303ZM454.105 367.324V368.402H449.804V367.324H454.105ZM455.414 369.964H449.804V368.831H454.633V366.895H449.804V365.938H455.194V365.487H449.287V370.426H455.414V369.964ZM448.561 366.048C448.143 365.762 447.329 365.41 446.68 365.19L446.416 365.531C447.065 365.762 447.901 366.169 448.319 366.444L448.561 366.048ZM446.339 370.756C447.076 370.14 447.912 369.337 448.605 368.622L448.341 368.248C447.571 369.018 446.647 369.843 446.009 370.327L446.339 370.756ZM448.088 367.654C447.648 367.379 446.801 367.027 446.13 366.807L445.855 367.17C446.537 367.412 447.395 367.786 447.835 368.072L448.088 367.654ZM455.469 371.944V371.46H450.849V370.613H450.321V371.46H445.756V371.944H449.65C448.66 373.011 447.032 373.968 445.591 374.419C445.701 374.529 445.855 374.727 445.932 374.859C447.472 374.309 449.276 373.198 450.299 371.944H450.321V375.068H450.849V371.944C451.839 373.22 453.643 374.287 455.282 374.804C455.359 374.661 455.513 374.463 455.634 374.364C454.083 373.946 452.444 373.033 451.476 371.944H455.469ZM462.036 366.356C461.893 365.993 461.541 365.454 461.189 365.069L460.76 365.267C461.101 365.663 461.442 366.213 461.585 366.576L462.036 366.356ZM464.962 369.722H460.881V368.622H464.962V369.722ZM464.962 371.262H460.881V370.151H464.962V371.262ZM464.962 372.813H460.881V371.691H464.962V372.813ZM460.375 368.182V373.253H465.479V368.182H462.773C462.916 367.852 463.048 367.467 463.18 367.093H466.469V366.631H464.236C464.533 366.235 464.852 365.729 465.138 365.267L464.61 365.102C464.401 365.542 464.016 366.202 463.686 366.631H459.528V367.093H462.597C462.509 367.445 462.388 367.841 462.278 368.182H460.375ZM458.989 367.313C458.648 366.818 457.966 366.059 457.372 365.531L456.965 365.784C457.559 366.334 458.241 367.115 458.56 367.621L458.989 367.313ZM458.89 368.996H456.712V369.502H458.373V373.154C457.878 373.275 457.295 373.792 456.701 374.419L457.031 374.826C457.647 374.111 458.208 373.572 458.604 373.572C458.835 373.572 459.165 373.913 459.605 374.177C460.331 374.617 461.266 374.727 462.553 374.727C463.587 374.727 465.611 374.672 466.447 374.617C466.458 374.463 466.535 374.21 466.601 374.078C465.534 374.177 463.928 374.254 462.564 374.254C461.343 374.254 460.452 374.177 459.759 373.77C459.352 373.517 459.121 373.308 458.89 373.198V368.996ZM468.603 375.233C469.637 374.826 470.341 373.99 470.341 372.835C470.341 372.153 470.066 371.713 469.549 371.713C469.186 371.713 468.867 371.933 468.867 372.384C468.867 372.846 469.153 373.055 469.549 373.055C469.626 373.055 469.703 373.044 469.78 373.022C469.736 373.891 469.263 374.43 468.416 374.826L468.603 375.233ZM486.39 369.887C485.774 371.108 484.817 372.043 483.64 372.78C482.507 372.021 481.616 371.064 481.022 369.887H486.39ZM486.819 369.348L486.709 369.37H483.86V367.434H488.183V366.906H483.86V365.091H483.332V366.906H479.02V367.434H483.332V369.37H479.504V369.887H480.538L480.472 369.909C481.099 371.207 481.99 372.252 483.145 373.055C481.814 373.792 480.241 374.265 478.624 374.551C478.723 374.672 478.866 374.914 478.91 375.046C480.593 374.716 482.232 374.188 483.629 373.385C484.938 374.188 486.522 374.727 488.348 375.002C488.425 374.87 488.546 374.65 488.667 374.529C486.907 374.287 485.389 373.803 484.124 373.077C485.444 372.219 486.511 371.086 487.171 369.579L486.819 369.348ZM491.637 365.102H491.131V367.39H489.613V367.885H491.131V370.536C490.493 370.756 489.921 370.954 489.47 371.086L489.635 371.603C490.075 371.46 490.592 371.284 491.131 371.086V374.353C491.131 374.507 491.076 374.551 490.933 374.551C490.812 374.562 490.35 374.562 489.833 374.551C489.91 374.705 489.976 374.914 489.998 375.046C490.702 375.057 491.087 375.035 491.307 374.958C491.538 374.859 491.637 374.716 491.637 374.353V370.921C492.055 370.767 492.495 370.613 492.924 370.459L492.847 369.953L491.637 370.36V367.885H492.935V367.39H491.637V365.102ZM494.178 371.9C494.673 372.494 495.201 373.308 495.421 373.847L495.839 373.561C495.608 373.033 495.069 372.23 494.574 371.647L494.178 371.9ZM499.59 369.249V368.754H496.62V367.115H499.029V366.62H496.62V365.146H496.103V366.62H493.705V367.115H496.103V368.754H493.089V369.249H497.577V370.701H493.232V371.196H497.577V374.298C497.577 374.452 497.533 374.507 497.368 374.518C497.181 374.529 496.609 374.54 495.927 374.507C496.004 374.672 496.081 374.881 496.103 375.046C496.939 375.046 497.434 375.046 497.72 374.947C497.995 374.859 498.072 374.694 498.072 374.287V371.196H499.524V370.701H498.072V369.249H499.59ZM509.952 367.005H505.882V365.102H505.343V367.005H501.273V375.079H501.801V367.522H505.332C505.277 369.029 504.87 370.954 502.263 372.384C502.384 372.472 502.56 372.659 502.626 372.769C504.276 371.823 505.09 370.69 505.497 369.579C506.63 370.591 507.917 371.878 508.544 372.692L508.984 372.351C508.269 371.493 506.828 370.107 505.64 369.084C505.794 368.545 505.849 368.017 505.871 367.522H509.435V374.221C509.435 374.419 509.38 374.485 509.16 374.496C508.94 374.507 508.181 374.518 507.323 374.485C507.4 374.65 507.488 374.881 507.521 375.046C508.511 375.046 509.182 375.046 509.523 374.947C509.842 374.848 509.952 374.65 509.952 374.221V367.005ZM512.625 366.675H520.578V367.962H521.117V366.18H517.146C517.014 365.85 516.761 365.388 516.53 365.047L516.013 365.179C516.211 365.476 516.409 365.872 516.541 366.18H512.108V367.962H512.625V366.675ZM517.718 367.687C518.774 368.325 520.039 369.282 520.666 369.931L521.029 369.568C520.391 368.93 519.115 367.995 518.059 367.368L517.718 367.687ZM514.858 367.368C514.176 368.204 513.098 369.018 512.075 369.557C512.207 369.645 512.383 369.843 512.471 369.953C513.472 369.359 514.605 368.468 515.353 367.533L514.858 367.368ZM514.066 371.438C515.045 370.789 515.925 370.03 516.618 369.183C517.421 370.118 518.323 370.833 519.313 371.438H514.066ZM514.121 374.166V371.933H519.071V374.166H514.121ZM516.651 368.303C515.584 369.887 513.626 371.35 511.591 372.142C511.723 372.241 511.855 372.428 511.943 372.56C512.504 372.318 513.076 372.043 513.604 371.724V375.068H514.121V374.661H519.071V375.002H519.599V371.614C520.105 371.9 520.655 372.175 521.216 372.417C521.304 372.263 521.447 372.087 521.579 371.977C519.764 371.218 518.147 370.305 516.904 368.809C516.97 368.71 517.047 368.611 517.113 368.523L516.651 368.303ZM530.852 372.615V374.144H524.593V372.615H530.852ZM524.076 375.101H524.593V374.617H530.852V375.068H531.369V372.12H524.076V375.101ZM530.093 370.833H525.253V369.656H530.093V370.833ZM524.758 369.227V371.262H530.61V369.227H524.758ZM523.185 369.931H523.691V368.336H531.6V369.931H532.117V367.874H523.185V369.931ZM529.763 366.103V365.091H529.235V366.103H525.924V365.091H525.407V366.103H522.833V366.587H525.407V367.511H525.924V366.587H529.235V367.511H529.763V366.587H532.414V366.103H529.763ZM543.018 365.443C542.732 366.081 542.16 366.983 541.753 367.522L542.138 367.72C542.567 367.203 543.095 366.367 543.48 365.674L543.018 365.443ZM537.595 366.994V366.488H535.153C535.34 366.092 535.516 365.674 535.648 365.256L535.175 365.135C534.845 366.169 534.295 367.159 533.657 367.83C533.745 367.94 533.91 368.171 533.965 368.281C534.284 367.929 534.614 367.478 534.878 366.994H537.595ZM536.044 368.853H537.408V368.358H534.295V368.853H535.549V370.591H533.855V371.086H535.549V373.539C535.549 374.012 535.219 374.298 535.043 374.408C535.153 374.518 535.285 374.727 535.34 374.859C535.483 374.694 535.736 374.529 537.496 373.495C537.452 373.385 537.386 373.187 537.364 373.044L536.044 373.792V371.086H537.672V370.591H536.044V368.853ZM539.575 367.511C539.388 366.972 538.893 366.125 538.42 365.498L538.002 365.696C538.453 366.334 538.937 367.203 539.135 367.731L539.575 367.511ZM538.629 372.043V370.635H542.699V372.043H538.629ZM542.699 368.765V370.162H538.629V368.765H542.699ZM542.699 368.248L540.961 368.259V365.08H540.466V368.259H538.134V375.068H538.629V372.527H542.699V374.254C542.699 374.408 542.633 374.452 542.468 374.463C542.303 374.474 541.731 374.474 541.06 374.463C541.137 374.595 541.203 374.804 541.236 374.947C542.094 374.947 542.567 374.936 542.842 374.848C543.095 374.76 543.183 374.595 543.183 374.243V368.248H542.699ZM545.603 375.233C546.637 374.826 547.341 373.99 547.341 372.835C547.341 372.153 547.066 371.713 546.549 371.713C546.186 371.713 545.867 371.933 545.867 372.384C545.867 372.846 546.153 373.055 546.549 373.055C546.626 373.055 546.703 373.044 546.78 373.022C546.736 373.891 546.263 374.43 545.416 374.826L545.603 375.233ZM401.954 387.118C402.273 386.348 402.471 385.105 402.526 384.236L402.097 384.17C402.02 385.061 401.822 386.249 401.514 386.964L401.954 387.118ZM403.12 392.046H403.637V382.091H403.12V392.046ZM405.089 385.776C404.957 385.281 404.594 384.467 404.253 383.829L403.857 384.016C404.187 384.654 404.539 385.49 404.682 385.996L405.089 385.776ZM408.136 384.401H410.105V387.228H408.059C408.125 386.667 408.136 386.128 408.136 385.611V384.401ZM411.722 387.734V387.228H410.622V383.906H408.136V382.091H407.608V383.906H405.32V384.401H407.608V385.622C407.608 386.128 407.597 386.667 407.542 387.228H404.671V387.734H407.465C407.201 389.164 406.464 390.638 404.385 391.694C404.506 391.782 404.682 391.98 404.759 392.101C406.827 390.979 407.63 389.472 407.938 387.987C408.565 389.868 409.72 391.408 411.359 392.09C411.436 391.936 411.601 391.727 411.744 391.617C410.116 391.023 408.972 389.527 408.378 387.734H411.722ZM416.606 385.38H418.685V387.052H416.606V385.38ZM421.38 385.38V387.052H419.202V385.38H421.38ZM418.685 390.858H419.202V387.921C420.181 388.68 421.259 389.626 421.82 390.264L422.183 389.912C421.589 389.252 420.412 388.262 419.4 387.503H421.897V384.918H419.202V383.829H422.469V383.356H419.202V382.102H418.685V383.356H415.594V383.829H418.685V384.918H416.111V387.503H418.432C417.783 388.548 416.595 389.571 415.55 390.033C415.671 390.132 415.825 390.319 415.902 390.451C416.881 389.945 417.981 388.944 418.685 387.899V390.858ZM415.143 384.456C414.791 383.95 414.043 383.147 413.416 382.597L413.009 382.861C413.636 383.444 414.373 384.247 414.714 384.764L415.143 384.456ZM414.956 385.996H412.712V386.502H414.45V390.242C413.933 390.363 413.339 390.869 412.69 391.507L413.042 391.936C413.68 391.221 414.252 390.682 414.67 390.682C414.901 390.682 415.242 391.023 415.66 391.287C416.386 391.727 417.31 391.837 418.597 391.837C419.62 391.837 421.611 391.782 422.447 391.727C422.458 391.573 422.535 391.32 422.601 391.177C421.534 391.287 419.95 391.353 418.608 391.353C417.398 391.353 416.507 391.276 415.825 390.869C415.418 390.616 415.187 390.407 414.956 390.297V385.996ZM432.182 383.972H428.112V382.916H432.182V383.972ZM432.182 385.479H428.112V384.401H432.182V385.479ZM432.688 382.476H427.628V385.93H432.688V382.476ZM426.847 387.492L426.77 386.997L425.582 387.393V384.885H426.869V384.39H425.582V382.113H425.087V384.39H423.624V384.885H425.087V387.558C424.471 387.756 423.921 387.943 423.481 388.086L423.657 388.603C424.086 388.471 424.57 388.295 425.087 388.108V391.331C425.087 391.496 425.021 391.54 424.878 391.54C424.757 391.551 424.306 391.551 423.778 391.54C423.855 391.694 423.921 391.903 423.954 392.035C424.647 392.046 425.032 392.024 425.252 391.936C425.483 391.837 425.582 391.694 425.582 391.342V387.932L426.847 387.492ZM431.599 391.397C431.17 391.397 430.763 391.375 430.389 391.298V389.307H432.809V388.845H430.389V387.36H433.326V386.887H427.144V387.36H429.905V391.177C429.135 390.924 428.541 390.374 428.189 389.252C428.288 388.889 428.354 388.471 428.409 388.042L427.903 387.987C427.716 389.681 427.21 390.946 426.187 391.738C426.308 391.815 426.517 391.991 426.594 392.079C427.243 391.518 427.705 390.792 428.013 389.879C428.706 391.551 429.894 391.87 431.588 391.87H433.513C433.524 391.738 433.612 391.518 433.689 391.397H431.599ZM444.48 386.568H442.027V382.344H441.499V386.568H437.814V383.664C438.683 383.389 439.497 383.07 440.113 382.74L439.662 382.333C438.617 382.982 436.593 383.576 434.855 383.983C434.921 384.104 435.009 384.28 435.042 384.401C435.779 384.236 436.538 384.049 437.286 383.829V386.568H434.734V387.085H437.275C437.22 388.79 436.802 390.451 434.624 391.694C434.745 391.782 434.921 391.969 434.998 392.09C437.297 390.748 437.748 388.955 437.803 387.085H441.499V392.068H442.027V387.085H444.48V386.568ZM450.013 388.702L448.429 389.01V387.327H449.738V386.832H448.429V385.072H447.912V386.832H446.581C446.966 386.007 447.329 385.006 447.637 383.961H449.65V383.455H447.78C447.901 383.048 448 382.641 448.099 382.223L447.56 382.102C447.483 382.553 447.373 383.015 447.263 383.455H445.69V383.961H447.12C446.845 384.951 446.548 385.776 446.416 386.084C446.218 386.557 446.053 386.942 445.899 386.975C445.965 387.107 446.031 387.36 446.064 387.47C446.152 387.393 446.449 387.327 446.845 387.327H447.912V389.109C447.054 389.274 446.251 389.417 445.635 389.527L445.767 390.055C446.383 389.934 447.12 389.791 447.912 389.615V392.013H448.429V389.505L450.046 389.164L450.013 388.702ZM455.59 386.029V385.523H452.279C452.433 385.006 452.576 384.478 452.73 383.961H455.172V383.455H452.873C452.994 383.004 453.104 382.575 453.214 382.168L452.686 382.102C452.576 382.52 452.466 382.971 452.323 383.455H450.244V383.961H452.18C452.037 384.478 451.883 385.006 451.729 385.523H449.782V386.029H451.575C451.344 386.788 451.102 387.503 450.904 388.053H454.193C453.786 388.669 453.192 389.472 452.664 390.176C452.279 389.901 451.883 389.626 451.487 389.395L451.146 389.725C452.213 390.385 453.456 391.386 454.072 392.046L454.424 391.628C454.094 391.298 453.599 390.88 453.049 390.473C453.742 389.56 454.534 388.482 455.051 387.701L454.666 387.503L454.578 387.547H451.652C451.795 387.096 451.949 386.579 452.125 386.029H455.59ZM459.748 382.113C459.044 383.862 457.889 385.545 456.69 386.645C456.789 386.744 456.976 386.997 457.053 387.118C457.581 386.601 458.098 385.974 458.582 385.281V392.068H459.121V384.467C459.55 383.774 459.935 383.015 460.254 382.267L459.748 382.113ZM463.147 391.32C462.564 391.32 462.432 391.188 462.432 390.605V387.833C463.917 386.777 465.303 385.501 466.293 384.104L465.776 383.785C464.951 385.039 463.741 386.205 462.432 387.206V382.311H461.882V387.602C461.2 388.075 460.507 388.493 459.814 388.856C459.946 388.944 460.111 389.12 460.199 389.241C460.749 388.933 461.321 388.592 461.882 388.229V390.583C461.882 391.595 462.168 391.848 463.136 391.848H465.281C466.348 391.848 466.502 391.188 466.612 389.175C466.436 389.131 466.238 389.021 466.084 388.911C465.996 390.836 465.919 391.32 465.27 391.32H463.147ZM474.928 387.943C474.686 387.448 474.103 386.7 473.586 386.161L473.168 386.348C473.399 386.59 473.63 386.865 473.839 387.151L471.419 387.349C472.42 386.557 473.443 385.523 474.378 384.412L473.916 384.148C473.674 384.467 473.41 384.775 473.135 385.083L471.485 385.204C471.903 384.764 472.321 384.214 472.695 383.642H477.425V383.147H473.223C473.091 382.828 472.805 382.355 472.541 382.003L472.057 382.157C472.255 382.454 472.497 382.839 472.64 383.147H467.91V383.642H472.101C471.727 384.247 471.254 384.808 471.089 384.973C470.935 385.171 470.77 385.292 470.616 385.314C470.671 385.435 470.759 385.699 470.781 385.82C470.935 385.754 471.166 385.71 472.695 385.567C472.079 386.216 471.518 386.733 471.276 386.92C470.913 387.239 470.616 387.448 470.396 387.481C470.451 387.624 470.528 387.877 470.561 387.987C470.77 387.91 471.111 387.855 474.147 387.569C474.29 387.789 474.411 387.998 474.499 388.174L474.928 387.943ZM477.183 387.932C476.699 387.481 475.753 386.821 474.994 386.37L474.598 386.678C475.368 387.14 476.314 387.811 476.776 388.273L477.183 387.932ZM476.292 384.192C475.874 384.643 475.17 385.259 474.653 385.622L475.027 385.897C475.566 385.534 476.237 384.995 476.732 384.478L476.292 384.192ZM468.163 384.522C468.768 384.896 469.483 385.457 469.846 385.831L470.22 385.501C469.857 385.127 469.131 384.588 468.526 384.214L468.163 384.522ZM470.528 386.326C469.538 386.832 468.515 387.349 467.833 387.668L468.13 388.086C468.856 387.723 469.78 387.228 470.649 386.755L470.528 386.326ZM477.48 389.054H472.871V388.053H472.332V389.054H467.734V389.549H472.332V392.057H472.871V389.549H477.48V389.054Z" fill="#666666"/>
<path d="M566.584 61.5375C566.22 62.4895 565.548 63.8335 565.044 64.6595L565.786 65.0515C566.332 64.2815 567.004 63.0215 567.55 61.9995L566.584 61.5375ZM561.824 64.5895C561.642 63.7635 561.138 62.5455 560.536 61.6355L559.724 61.9855C560.298 62.9235 560.802 64.1555 560.956 64.9955L561.824 64.5895ZM556.378 61.3835H558.632V63.8475H556.378V61.3835ZM559.808 69.5175L558.086 69.9515V67.4175H559.584V66.4935H558.086V64.7435H559.528V60.4875H555.51V64.7435H557.218V70.1615L556.322 70.3855V65.8355H555.538V70.5675L554.796 70.7355L555.02 71.6875C556.378 71.3235 558.184 70.8615 559.92 70.3855L559.808 69.5175ZM561.894 65.6535C561.894 65.9475 561.894 66.2555 561.88 66.5635C560.914 67.1795 559.948 67.7955 559.29 68.1875L559.864 69.1115C560.466 68.6635 561.138 68.1595 561.81 67.6275C561.628 69.2795 561.054 70.9455 559.206 71.8275C559.43 72.0095 559.724 72.3875 559.864 72.5975C562.594 71.0715 562.846 68.1455 562.846 65.6535V59.7735H561.894V65.6535ZM565.394 71.4075C565.086 71.4075 565.03 71.3095 565.03 70.7915V67.0395C565.8 67.6835 566.626 68.4535 567.074 68.9855L567.76 68.2575C567.214 67.6415 566.094 66.7035 565.24 66.0455L565.03 66.2415V59.7735H564.05V70.7915C564.05 72.0235 564.316 72.3455 565.268 72.3455H566.584C567.424 72.3455 567.676 71.7855 567.774 70.2175C567.48 70.1475 567.13 69.9655 566.892 69.7835C566.85 71.0575 566.794 71.4075 566.528 71.4075H565.394ZM578.316 68.8035C578.316 69.0415 578.218 69.1255 577.938 69.1395C577.658 69.1395 576.678 69.1395 575.67 69.1115C575.824 69.4055 575.992 69.8675 576.034 70.1615C577.35 70.1615 578.204 70.1335 578.68 69.9655C579.17 69.8115 579.352 69.5035 579.352 68.8035V63.2735H581.284V62.2795H579.352V59.8295H578.316V62.2795H572.94V63.2735H578.316V68.8035ZM573.598 64.8275C574.312 65.6955 575.152 66.9135 575.544 67.6415L576.426 67.1095C576.02 66.3815 575.124 65.2335 574.424 64.3795L573.598 64.8275ZM572.324 62.4755C571.904 61.8175 570.98 60.8515 570.21 60.1515L569.412 60.6835C570.182 61.3975 571.078 62.4195 571.47 63.0775L572.324 62.4755ZM571.946 64.9955H569.006V65.9755H570.924V69.6155C570.308 69.8535 569.566 70.4695 568.824 71.2675L569.552 72.2475C570.266 71.2955 570.938 70.4695 571.4 70.4695C571.708 70.4695 572.17 70.9315 572.744 71.2955C573.71 71.9115 574.872 72.0655 576.594 72.0655C577.938 72.0655 580.388 71.9955 581.382 71.9255C581.396 71.6035 581.564 71.0855 581.704 70.8055C580.346 70.9455 578.26 71.0715 576.622 71.0715C575.082 71.0715 573.878 70.9595 572.982 70.3995C572.506 70.1055 572.212 69.8535 571.946 69.6855V64.9955Z" fill="#B4C2CC"/>
<mask id="mask1_2_268" style="mask-type:alpha" maskUnits="userSpaceOnUse" x="34" y="237" width="370" height="213">
<path d="M396 237H42C37.5817 237 34 240.582 34 245V442C34 446.418 37.5817 450 42 450H396C400.418 450 404 446.418 404 442V245C404 240.582 400.418 237 396 237Z" fill="white"/>
</mask>
<g mask="url(#mask1_2_268)">
<g filter="url(#filter1_d_2_268)">
<path d="M396 237H42C37.5817 237 34 240.582 34 245V442C34 446.418 37.5817 450 42 450H396C400.418 450 404 446.418 404 442V245C404 240.582 400.418 237 396 237Z" fill="white"/>
</g>
<path fill-rule="evenodd" clip-rule="evenodd" d="M113.687 352.89H72.3464C68.2986 352.89 65.0171 348.752 65.0171 343.648V329.664C65.0171 324.559 68.2986 320.421 72.3464 320.421H113.687C117.735 320.421 121.017 324.559 121.017 329.664V343.648C121.017 348.752 117.735 352.89 113.687 352.89Z" fill="#FF793A"/>
<path d="M87.2024 334.556C87.2024 335.636 86.9291 336.582 86.3824 337.396C85.8491 338.209 85.1291 338.789 84.2224 339.136L86.9824 343.656H84.3624L81.8024 339.456H79.5424V343.656H77.2424V329.656H82.4024C83.8024 329.656 84.9491 330.116 85.8424 331.036C86.7491 331.956 87.2024 333.129 87.2024 334.556ZM79.5424 331.716V337.396H82.2624C83.0224 337.396 83.6491 337.129 84.1424 336.596C84.6491 336.049 84.9024 335.369 84.9024 334.556C84.9024 333.742 84.6491 333.069 84.1424 332.536C83.6491 331.989 83.0224 331.716 82.2624 331.716H79.5424ZM101.208 341.876C99.9014 343.289 98.148 343.996 95.948 343.996C93.748 343.996 91.988 343.289 90.668 341.876C89.3614 340.462 88.708 338.722 88.708 336.656C88.708 334.589 89.3614 332.849 90.668 331.436C91.988 330.022 93.748 329.316 95.948 329.316C98.148 329.316 99.9014 330.022 101.208 331.436C102.528 332.849 103.188 334.589 103.188 336.656C103.188 338.722 102.528 340.462 101.208 341.876ZM92.388 340.436C93.2547 341.436 94.4414 341.936 95.948 341.936C97.4547 341.936 98.6347 341.436 99.488 340.436C100.355 339.422 100.781 338.162 100.768 336.656C100.781 335.149 100.355 333.896 99.488 332.896C98.6347 331.882 97.4547 331.376 95.948 331.376C94.4414 331.376 93.2547 331.882 92.388 332.896C91.5347 333.896 91.1147 335.149 91.128 336.656C91.1147 338.162 91.5347 339.422 92.388 340.436ZM105.387 343.656V329.656H107.687V343.656H105.387Z" fill="white"/>
<path fill-rule="evenodd" clip-rule="evenodd" d="M217.18 352.592C215.039 352.592 213.303 350.675 213.303 348.31V332.702C213.303 330.338 215.039 328.421 217.18 328.421C219.321 328.421 221.057 330.338 221.057 332.702V348.31C221.057 350.675 219.321 352.592 217.18 352.592Z" fill="#EBF1F9"/>
<path fill-rule="evenodd" clip-rule="evenodd" d="M232.689 352.591C230.548 352.591 228.812 350.668 228.812 348.296V320.632C228.812 318.259 230.548 316.336 232.689 316.336C234.83 316.336 236.566 318.259 236.566 320.632V348.296C236.566 350.668 234.83 352.591 232.689 352.591Z" fill="#FF793A"/>
<path fill-rule="evenodd" clip-rule="evenodd" d="M249.49 352.591C247.349 352.591 245.613 350.639 245.613 348.23V331.439C245.613 329.031 247.349 327.078 249.49 327.078C251.631 327.078 253.367 329.031 253.367 331.439V348.23C253.367 350.639 251.631 352.591 249.49 352.591Z" fill="#EBF1F9"/>
<path fill-rule="evenodd" clip-rule="evenodd" d="M264.999 352.591C262.858 352.591 261.121 350.673 261.121 348.306V311.221C261.121 308.854 262.858 306.936 264.999 306.936C267.14 306.936 268.876 308.854 268.876 311.221V348.306C268.876 350.673 267.14 352.591 264.999 352.591Z" fill="#FF793A"/>
<path fill-rule="evenodd" clip-rule="evenodd" d="M279.215 352.591C277.074 352.591 275.338 350.663 275.338 348.284V300.501C275.338 298.122 277.074 296.194 279.215 296.194C281.356 296.194 283.092 298.122 283.092 300.501V348.284C283.092 350.663 281.356 352.591 279.215 352.591Z" fill="#EBF1F9"/>
<path fill-rule="evenodd" clip-rule="evenodd" d="M290.846 348.296V300.49C290.846 298.117 292.583 296.194 294.724 296.194C296.865 296.194 298.601 298.117 298.601 300.49V348.296C298.601 350.668 296.865 352.591 294.724 352.591C292.583 352.591 290.846 350.668 290.846 348.296Z" fill="#FF793A"/>
<path fill-rule="evenodd" clip-rule="evenodd" d="M310.232 352.592C308.091 352.592 306.355 350.701 306.355 348.37V338.014C306.355 335.682 308.091 333.792 310.232 333.792C312.373 333.792 314.11 335.682 314.11 338.014V348.37C314.11 350.701 312.373 352.592 310.232 352.592Z" fill="#EBF1F9"/>
<path fill-rule="evenodd" clip-rule="evenodd" d="M321.864 348.191V288.509C321.864 286.079 323.6 284.108 325.741 284.108C327.882 284.108 329.618 286.079 329.618 288.509V348.191C329.618 350.621 327.882 352.592 325.741 352.592C323.6 352.592 321.864 350.621 321.864 348.191Z" fill="#FF793A"/>
<path fill-rule="evenodd" clip-rule="evenodd" d="M339.958 352.592C337.816 352.592 336.08 350.675 336.08 348.31V332.702C336.08 330.338 337.816 328.421 339.958 328.421C342.099 328.421 343.835 330.338 343.835 332.702V348.31C343.835 350.675 342.099 352.592 339.958 352.592Z" fill="#EBF1F9"/>
<path fill-rule="evenodd" clip-rule="evenodd" d="M351.589 348.208V277.75C351.589 275.329 353.325 273.366 355.466 273.366C357.607 273.366 359.343 275.329 359.343 277.75V348.208C359.343 350.629 357.607 352.592 355.466 352.592C353.325 352.592 351.589 350.629 351.589 348.208Z" fill="#FF793A"/>
<path fill-rule="evenodd" clip-rule="evenodd" d="M367.098 348.317V307.106C367.098 304.745 368.834 302.832 370.975 302.832C373.116 302.832 374.852 304.745 374.852 307.106V348.317C374.852 350.678 373.116 352.591 370.975 352.591C368.834 352.591 367.098 350.678 367.098 348.317Z" fill="#EBF1F9"/>
<path d="M66.8171 292.399V275.599H69.4571L74.8331 288.463L80.1851 275.599H82.8251V292.399H80.1851V281.287L75.8651 292.399H73.7771L69.4571 281.167V292.399H66.8171ZM90.9702 292.687C89.2262 292.687 87.8742 292.135 86.9142 291.031C85.9542 289.927 85.4742 288.519 85.4742 286.807C85.4742 285.111 85.9782 283.711 86.9862 282.607C87.9942 281.487 89.3462 280.927 91.0422 280.927C91.7942 280.927 92.4822 281.087 93.1062 281.407C93.7302 281.727 94.2102 282.167 94.5462 282.727V281.215H97.1622V292.399H94.5462V290.887C94.2262 291.431 93.7222 291.871 93.0342 292.207C92.3622 292.527 91.6742 292.687 90.9702 292.687ZM91.3542 290.359C92.4262 290.359 93.2422 290.023 93.8022 289.351C94.3782 288.679 94.6662 287.831 94.6662 286.807C94.6662 285.783 94.3782 284.935 93.8022 284.263C93.2422 283.591 92.4262 283.255 91.3542 283.255C90.3462 283.255 89.5462 283.591 88.9542 284.263C88.3782 284.919 88.0902 285.767 88.0902 286.807C88.0902 287.847 88.3782 288.703 88.9542 289.375C89.5462 290.031 90.3462 290.359 91.3542 290.359ZM100.517 292.399V281.215H103.133V283.375C103.325 282.623 103.701 282.055 104.261 281.671C104.821 281.271 105.437 281.071 106.109 281.071C106.541 281.071 106.885 281.103 107.141 281.167V283.567C106.869 283.535 106.525 283.519 106.109 283.519C105.181 283.519 104.453 283.863 103.925 284.551C103.397 285.223 103.133 286.191 103.133 287.455V292.399H100.517ZM119.458 281.215L114.61 286.567L119.458 292.399H116.026L111.922 287.311V292.399H109.306V275.599H111.922V286.111L116.146 281.215H119.458ZM130.661 286.231C130.661 286.519 130.637 286.999 130.589 287.671H122.285C122.317 288.551 122.605 289.231 123.149 289.711C123.693 290.175 124.445 290.407 125.405 290.407C126.637 290.407 127.469 289.983 127.901 289.135H130.541C130.365 290.175 129.797 291.031 128.837 291.703C127.893 292.359 126.749 292.687 125.405 292.687C123.645 292.687 122.253 292.159 121.229 291.103C120.205 290.047 119.693 288.615 119.693 286.807C119.693 285.015 120.197 283.591 121.205 282.535C122.229 281.463 123.597 280.927 125.309 280.927C126.909 280.927 128.197 281.423 129.173 282.415C130.165 283.391 130.661 284.663 130.661 286.231ZM122.285 285.679H128.093C128.077 284.815 127.821 284.151 127.325 283.687C126.845 283.223 126.157 282.991 125.261 282.991C124.349 282.991 123.629 283.239 123.101 283.735C122.573 284.231 122.301 284.879 122.285 285.679ZM138.136 290.191C138.664 290.191 139.104 290.159 139.456 290.095V292.399C138.912 292.495 138.264 292.543 137.512 292.543C137.08 292.543 136.704 292.511 136.384 292.447C136.064 292.383 135.688 292.239 135.256 292.015C134.824 291.775 134.488 291.367 134.248 290.791C134.008 290.215 133.888 289.487 133.888 288.607V283.399H131.992V281.215H133.888V277.831H136.504V281.215H139.072V283.399H136.504V288.007C136.504 288.903 136.632 289.495 136.888 289.783C137.144 290.055 137.56 290.191 138.136 290.191ZM144.573 279.055C144.205 279.423 143.741 279.607 143.181 279.607C142.621 279.607 142.157 279.423 141.789 279.055C141.421 278.671 141.237 278.207 141.237 277.663C141.237 277.119 141.421 276.663 141.789 276.295C142.157 275.911 142.621 275.719 143.181 275.719C143.741 275.719 144.205 275.911 144.573 276.295C144.941 276.663 145.125 277.119 145.125 277.663C145.125 278.207 144.941 278.671 144.573 279.055ZM141.861 292.399V281.215H144.477V292.399H141.861ZM147.838 292.399V281.215H150.454V282.775C151.174 281.543 152.39 280.927 154.102 280.927C156.822 280.927 158.182 282.407 158.182 285.367V292.399H155.566V286.567C155.566 285.351 155.382 284.479 155.014 283.951C154.646 283.423 154.014 283.159 153.118 283.159C152.27 283.159 151.614 283.431 151.15 283.975C150.686 284.503 150.454 285.263 150.454 286.255V292.399H147.838ZM169.663 281.215H172.279V291.919C172.279 294.159 171.607 295.767 170.263 296.743C169.383 297.399 168.103 297.727 166.423 297.727C164.791 297.727 163.479 297.391 162.487 296.719C161.351 295.951 160.759 294.935 160.711 293.671H163.447C163.687 294.935 164.671 295.567 166.399 295.567C167.503 295.567 168.319 295.295 168.847 294.751C169.391 294.223 169.663 293.343 169.663 292.111V290.887C169.343 291.431 168.839 291.871 168.151 292.207C167.479 292.527 166.791 292.687 166.087 292.687C164.391 292.687 163.047 292.135 162.055 291.031C161.079 289.911 160.591 288.503 160.591 286.807C160.591 285.127 161.103 283.727 162.127 282.607C163.167 281.487 164.511 280.927 166.159 280.927C166.911 280.927 167.599 281.087 168.223 281.407C168.847 281.727 169.327 282.167 169.663 282.727V281.215ZM166.471 290.359C167.495 290.359 168.303 290.023 168.895 289.351C169.487 288.663 169.783 287.815 169.783 286.807C169.783 285.799 169.487 284.959 168.895 284.287C168.303 283.599 167.495 283.255 166.471 283.255C165.495 283.255 164.703 283.591 164.095 284.263C163.503 284.919 163.207 285.767 163.207 286.807C163.207 287.847 163.503 288.703 164.095 289.375C164.703 290.031 165.495 290.359 166.471 290.359Z" fill="#004ED1"/>
<path d="M178.4 421.745C189.998 421.745 199.4 412.08 199.4 400.156C199.4 388.233 189.998 378.567 178.4 378.567C166.802 378.567 157.4 388.233 157.4 400.156C157.4 412.08 166.802 421.745 178.4 421.745Z" stroke="#004ED1" stroke-width="2"/>
<path d="M184.643 392.167H180.745C180.298 392.167 179.774 392.767 179.774 393.583V396.385H184.643L183.904 400.387H179.774V412.41H175.182V400.387H171.022V396.385H175.182V394.03C175.182 390.659 177.524 387.903 180.745 387.903H184.643V392.167Z" fill="#004ED1"/>
<path opacity="0.800991" d="M381.201 399.997H408.56" stroke="#004ED1" stroke-width="0.5" stroke-linecap="square" stroke-dasharray="3 3"/>
<path d="M65.134 400.156C65.134 412.08 74.536 421.745 86.134 421.745C97.732 421.745 107.134 412.08 107.134 400.156C107.134 388.233 97.732 378.567 86.134 378.567C74.536 378.567 65.134 388.233 65.134 400.156Z" stroke="#004ED1" stroke-width="2"/>
<path d="M85.9276 394.162C82.677 394.162 79.8907 396.867 79.8907 400.368C79.8907 403.71 82.5222 406.575 85.9276 406.575C89.1782 406.575 91.9644 403.869 91.9644 400.368C91.9644 397.027 89.1782 394.162 85.9276 394.162ZM85.9276 404.347C83.7605 404.347 82.0578 402.596 82.0578 400.368C82.0578 398.14 83.7605 396.39 85.9276 396.39C88.0946 396.39 89.7974 398.14 89.7974 400.368C89.7974 402.596 88.0946 404.347 85.9276 404.347ZM92.1192 392.571C91.3453 392.571 90.7261 393.207 90.7261 394.003C90.7261 394.799 91.3453 395.435 92.1192 395.435C92.8932 395.435 93.5123 394.799 93.5123 394.003C93.5123 393.207 92.8932 392.571 92.1192 392.571Z" fill="#004ED1"/>
<path d="M91.7231 388.024H91.0908C89.1938 387.863 83.1865 387.863 81.2894 388.024C77.6534 387.863 74.4917 390.774 74.3336 394.495V395.142C74.1755 397.083 74.1755 403.23 74.3336 405.171C74.1755 408.891 77.0211 412.127 80.6571 412.288H81.2894C83.1865 412.45 89.1938 412.45 91.0908 412.288C94.7268 412.45 97.8885 409.538 98.0466 405.818V405.171V395.142C98.2047 391.421 95.3591 388.186 91.7231 388.024ZM95.5172 407.274C95.043 408.406 94.2525 409.215 93.304 409.538C88.7195 410.185 83.9769 410.185 79.2343 409.538C78.1277 409.053 77.3373 408.244 77.0211 407.274C76.5468 404.847 76.3887 402.421 76.5468 400.156C76.3887 397.73 76.5468 395.304 77.0211 393.039C77.4954 391.907 78.2858 391.098 79.2343 390.774C83.8188 390.127 88.5614 390.127 93.304 390.774C94.4106 391.26 95.2011 392.068 95.5172 393.039C95.9915 395.465 96.1496 397.892 95.9915 400.156C96.1496 402.583 95.9915 405.009 95.5172 407.274Z" fill="#004ED1"/>
<path d="M270.199 421.745C281.797 421.745 291.199 412.08 291.199 400.156C291.199 388.233 281.797 378.567 270.199 378.567C258.601 378.567 249.199 388.233 249.199 400.156C249.199 412.08 258.601 421.745 270.199 421.745Z" stroke="#004ED1" stroke-width="2"/>
<path d="M282.958 397.329C282.794 396.542 282.56 395.771 282.26 395.028C280.296 390.165 275.63 386.736 270.199 386.736C266.944 386.736 263.966 387.97 261.677 390.003C261.089 390.525 260.546 391.099 260.057 391.719C258.238 394.026 257.145 396.962 257.145 400.156C257.145 406.059 260.872 411.08 266.033 412.872C266.763 413.125 267.521 413.316 268.302 413.433C268.921 413.526 269.554 413.577 270.199 413.577C277.397 413.577 283.253 407.556 283.253 400.156C283.253 399.186 283.15 398.241 282.958 397.329ZM270.199 389.037C274.364 389.037 277.985 391.472 279.791 395.028H270.054V395.038C268.29 395.107 266.764 396.144 265.972 397.651L262.82 392.037C264.754 390.178 267.348 389.037 270.199 389.037ZM272.851 400.013C272.851 401.492 271.68 402.697 270.24 402.697C268.801 402.697 267.629 401.492 267.629 400.013C267.629 398.533 268.801 397.329 270.24 397.329C271.68 397.329 272.851 398.533 272.851 400.013ZM259.382 400.156C259.382 397.831 260.081 395.671 261.273 393.885L265.721 401.805C266.423 403.669 268.182 404.997 270.24 404.997C270.315 404.997 270.388 404.989 270.462 404.986L267.179 410.832C262.68 409.484 259.382 405.21 259.382 400.156ZM270.199 411.276C269.973 411.276 269.749 411.266 269.526 411.252L274.386 402.598C274.397 402.579 274.403 402.56 274.412 402.541C274.839 401.798 275.089 400.936 275.089 400.013C275.089 399.024 274.804 398.104 274.319 397.329H280.659C280.896 398.251 281.015 399.202 281.015 400.156C281.015 406.288 276.163 411.276 270.199 411.276Z" fill="#004ED1"/>
<path opacity="0.800991" d="M111.501 399.997H154.494" stroke="#004ED1" stroke-width="0.5" stroke-linecap="square" stroke-dasharray="3 3"/>
<path opacity="0.800991" d="M199.625 399.997H243.921" stroke="#004ED1" stroke-width="0.5" stroke-linecap="square" stroke-dasharray="3 3"/>
<path opacity="0.800991" d="M293.912 399.997H330.391" stroke="#004ED1" stroke-width="0.5" stroke-linecap="square" stroke-dasharray="3 3"/>
<g opacity="0.284203" filter="url(#filter2_f_2_268)">
<path d="M368.238 421.194C380.073 414.083 383.903 398.724 376.791 386.889C369.68 375.054 354.321 371.225 342.486 378.336C330.651 385.447 326.822 400.806 333.933 412.641C341.044 424.476 356.403 428.305 368.238 421.194Z" fill="#151415"/>
</g>
<path d="M368.238 421.194C380.073 414.083 383.903 398.724 376.791 386.889C369.68 375.054 354.321 371.225 342.486 378.336C330.651 385.447 326.822 400.806 333.933 412.641C341.044 424.476 356.403 428.305 368.238 421.194Z" fill="white" stroke="#004ED1" stroke-width="2"/>
<path d="M359.586 385.14C357.187 386.579 354.05 385.759 352.577 383.308L348.231 385.92L358.903 403.681C360.376 406.133 359.626 409.29 357.227 410.731C354.828 412.173 351.689 411.353 350.215 408.901C348.742 406.449 349.492 403.292 351.891 401.851L353.339 400.981L350.671 396.54L349.223 397.41C345.709 399.522 343.841 403.589 344.491 407.715C345.14 411.841 348.178 415.214 352.189 416.261C356.2 417.308 360.393 415.823 362.813 412.498C365.233 409.173 365.404 404.663 363.246 401.071L357.19 390.992C358.98 390.981 360.727 390.495 362.254 389.581L363.702 388.711L361.034 384.27L359.586 385.14Z" fill="#004ED1"/>
</g>
<defs>
<filter id="filter0_d_2_268" x="330" y="0" width="301" height="528" filterUnits="userSpaceOnUse" color-interpolation-filters="sRGB">
<feFlood flood-opacity="0" result="BackgroundImageFix"/>
<feColorMatrix in="SourceAlpha" type="matrix" values="0 0 0 0 0 0 0 0 0 0 0 0 0 0 0 0 0 0 127 0" result="hardAlpha"/>
<feOffset dy="4"/>
<feGaussianBlur stdDeviation="12"/>
<feComposite in2="hardAlpha" operator="out"/>
<feColorMatrix type="matrix" values="0 0 0 0 0 0 0 0 0 0 0 0 0 0 0 0 0 0 0.15 0"/>
<feBlend mode="normal" in2="BackgroundImageFix" result="effect1_dropShadow_2_268"/>
<feBlend mode="normal" in="SourceGraphic" in2="effect1_dropShadow_2_268" result="shape"/>
</filter>
<filter id="filter1_d_2_268" x="0" y="207" width="438" height="281" filterUnits="userSpaceOnUse" color-interpolation-filters="sRGB">
<feFlood flood-opacity="0" result="BackgroundImageFix"/>
<feColorMatrix in="SourceAlpha" type="matrix" values="0 0 0 0 0 0 0 0 0 0 0 0 0 0 0 0 0 0 127 0" result="hardAlpha"/>
<feOffset dy="4"/>
<feGaussianBlur stdDeviation="17"/>
<feComposite in2="hardAlpha" operator="out"/>
<feColorMatrix type="matrix" values="0 0 0 0 0 0 0 0 0 0 0 0 0 0 0 0 0 0 1 0"/>
<feBlend mode="normal" in2="BackgroundImageFix" result="effect1_dropShadow_2_268"/>
<feBlend mode="normal" in="SourceGraphic" in2="effect1_dropShadow_2_268" result="shape"/>
</filter>
<filter id="filter2_f_2_268" x="320.358" y="364.761" width="70.0075" height="70.0073" filterUnits="userSpaceOnUse" color-interpolation-filters="sRGB">
<feFlood flood-opacity="0" result="BackgroundImageFix"/>
<feBlend mode="normal" in="SourceGraphic" in2="BackgroundImageFix" result="shape"/>
<feGaussianBlur stdDeviation="5" result="effect1_foregroundBlur_2_268"/>
</filter>
</defs>
</svg>
