<svg width="200" height="109" viewBox="0 0 200 109" fill="none" xmlns="http://www.w3.org/2000/svg">
<rect width="200" height="109" fill="white"/>
<path fill-rule="evenodd" clip-rule="evenodd" d="M103.139 38.7598L96.1667 40.2919V34.5038L103.139 33V38.7598ZM117.639 41.9655C114.916 41.9655 113.166 43.2707 112.194 44.1786L111.833 42.4195H105.722V75.5027L112.666 73.9989L112.694 65.9693C113.694 66.707 115.166 67.7568 117.611 67.7568C122.583 67.7568 127.111 63.671 127.111 54.6767C127.083 46.4485 122.5 41.9655 117.639 41.9655ZM115.972 61.515C114.333 61.515 113.361 60.9192 112.694 60.1814L112.666 49.655C113.389 48.8322 114.389 48.2647 115.972 48.2647C118.5 48.2647 120.25 51.1588 120.25 54.8757C120.25 58.6777 118.527 61.515 115.972 61.515ZM149 54.9604C149 47.6969 145.556 41.9655 138.972 41.9655C132.361 41.9655 128.361 47.6969 128.361 54.9037C128.361 63.444 133.083 67.7567 139.861 67.7567C143.167 67.7567 145.667 66.9907 147.556 65.9125V60.2378C145.667 61.2025 143.5 61.7984 140.75 61.7984C138.056 61.7984 135.667 60.8337 135.361 57.4856H148.944C148.944 57.3302 148.954 56.9781 148.966 56.5717L148.966 56.5655L148.966 56.5651V56.5648V56.5647L148.966 56.5639L148.966 56.5631L148.966 56.5623L148.966 56.5613L148.966 56.5601C148.982 56.005 149 55.3516 149 54.9604ZM135.278 52.2656C135.278 49.0594 137.194 47.7259 138.944 47.7259C140.639 47.7259 142.444 49.0594 142.444 52.2656H135.278ZM96.1662 42.4482H103.139V67.2747H96.1662V42.4482ZM88.2502 42.4486L88.6947 44.5482C90.3335 41.4839 93.5836 42.1082 94.4724 42.4486V48.9745C93.6113 48.6624 90.8335 48.2651 89.1947 50.4499V67.2752H82.2502V42.4486H88.2502ZM74.8053 36.291L68.0275 37.7664L67.9997 60.4933C67.9997 64.6925 71.0831 67.7852 75.1942 67.7852C77.472 67.7852 79.1387 67.3596 80.0554 66.8489V61.0891C79.1665 61.458 74.7776 62.7632 74.7776 58.5639V48.4914H80.0554V42.4479H74.7776L74.8053 36.291ZM58.3889 48.1233C56.9167 48.1233 56.0278 48.5489 56.0278 49.6554C56.0278 50.8636 57.5576 51.3951 59.4555 52.0544C62.5495 53.1293 66.6218 54.5441 66.639 59.7847C66.639 64.8635 62.6667 67.7859 56.8889 67.7859C54.5 67.7859 51.8889 67.3036 49.3056 66.1686V59.4158C51.6389 60.721 54.5834 61.6857 56.8889 61.6857C58.4445 61.6857 59.5556 61.2601 59.5556 59.9549C59.5556 58.6166 57.8973 58.0049 55.8952 57.2664C52.8462 56.1417 49 54.723 49 49.9959C49 44.9738 52.75 41.9663 58.3889 41.9663C60.6945 41.9663 62.9723 42.3351 65.2779 43.2714V49.9391C63.1667 48.7758 60.5001 48.1233 58.3889 48.1233Z" fill="#6461FC"/>
</svg>
