<svg width="223" height="143" viewBox="0 0 223 143" fill="none" xmlns="http://www.w3.org/2000/svg">
<path d="M173.525 31.5382C182.043 29.2559 187.095 20.4921 184.81 11.9638C182.525 3.43555 173.768 -1.62783 165.25 0.654489C156.732 2.9368 151.68 11.7005 153.965 20.2288C156.25 28.7571 165.008 33.8205 173.525 31.5382Z" fill="#FF793A"/>
<path fill-rule="evenodd" clip-rule="evenodd" d="M-4.15192 86.7105L127.221 122.312L121.152 142.29L-10.2206 106.688L-4.15192 86.7105Z" fill="#FF793A"/>
<path d="M158.928 112.231C169.999 104.479 172.702 89.2352 164.963 78.1838C157.225 67.1325 141.977 64.4582 130.905 72.2106C119.833 79.963 117.131 95.2065 124.869 106.258C132.608 117.309 147.856 119.984 158.928 112.231Z" fill="#004ED1"/>
<path fill-rule="evenodd" clip-rule="evenodd" d="M201.778 101.392L193.458 27.9179L214.222 26.6079L222.542 100.082L201.778 101.392Z" fill="#C9E6FF"/>
</svg>
