<svg width="200" height="109" viewBox="0 0 200 109" fill="none" xmlns="http://www.w3.org/2000/svg">
<rect width="200" height="109" fill="white"/>
<path fill-rule="evenodd" clip-rule="evenodd" d="M150.242 52.4304H156.081V51.5088H152.11L153.59 49.9727H152.033L150.242 52.2V52.4304ZM158.884 49.9727H159.974C159.974 50.5103 159.974 51.0479 159.974 51.5088H161.064V50.5871H161.842V51.5088H162.621V52.4304H159.974C159.974 52.968 159.974 53.5057 159.974 54.0433H162.621V54.965H159.896C159.896 55.8866 159.896 56.8851 159.896 57.8836C159.896 58.0372 159.896 58.1908 159.974 58.3444L161.92 57.1923L162.543 58.114L160.674 59.2661C161.609 60.2645 163.166 61.263 164.022 61.5702V62.5687C163.01 62.2614 160.986 61.1094 159.818 59.7269L157.794 61.0326L157.171 60.0341L159.351 58.8052C159.04 58.4212 158.962 58.0372 158.962 57.73V54.965H156.86V54.0433H158.962V52.4304H156.86V51.5088H158.962V49.9727H158.884ZM150.242 56.3475H152.422V54.965H150.242V54.0433H156.081V54.965H153.356V56.3475H156.081V57.2691H153.356V61.5702H154.135L154.68 60.9558L154.758 60.879H154.913H155.303V61.0326V61.4166L154.29 62.4919H152.344V57.2691H150.164V56.3475H150.242Z" fill="#02983B"/>
<path fill-rule="evenodd" clip-rule="evenodd" d="M165.657 51.4321H168.46V52.3538H165.657V51.4321ZM173.209 62.4152H171.496C171.107 62.4152 171.029 62.3384 170.718 62.0312C170.329 61.724 169.939 61.1863 169.861 60.8023C169.861 60.4951 169.861 59.343 169.861 58.1141H168.694V56.962H169.939C169.939 56.194 169.939 55.5028 169.939 55.1955C170.017 54.4275 170.796 53.429 171.652 53.429H176.557C177.258 53.429 178.27 54.4275 178.27 55.0419V56.962H179.048V58.1141H178.27V60.9559C178.27 61.3399 177.958 61.724 177.725 61.9544C177.335 62.2616 177.102 62.492 176.557 62.492H175.156C174.688 62.492 174.377 62.3384 174.143 62.0312C173.988 61.8776 173.832 61.724 173.676 61.4935C173.521 61.2631 173.521 61.1863 173.521 60.9559V58.1141H170.873C170.873 59.1894 170.873 60.2647 170.873 60.6487C170.873 60.8023 170.951 60.8791 171.029 61.0327C171.185 61.1863 171.341 61.4167 171.418 61.4167C171.574 61.4167 172.82 61.4167 172.82 61.4167V61.4935L173.209 62.4152ZM173.521 57.0389V55.81L174.611 56.194V57.0389H177.413C177.413 56.2708 177.413 55.5028 177.413 55.1955C177.413 54.6579 177.024 54.3507 176.557 54.3507H171.808C171.496 54.3507 170.951 54.8115 170.951 55.1187C170.951 55.2723 170.951 56.0404 170.951 57.0389H173.521ZM174.611 58.1909V61.0327C174.611 61.1863 174.688 61.2631 174.688 61.3399C174.766 61.4935 174.922 61.4935 175.078 61.4935C175.467 61.4935 176.557 61.4935 176.946 61.4935C177.024 61.4935 177.18 61.4167 177.258 61.2631C177.335 61.1863 177.413 61.1095 177.413 60.9559C177.413 60.7255 177.413 59.4198 177.413 58.1141H174.611V58.1909ZM167.759 56.0404C167.136 56.6548 166.124 58.8822 165.735 62.4152H166.825C166.825 62.4152 166.903 57.9605 168.927 56.0404H167.759ZM169.394 52.3538H179.126V51.4321H171.496L172.82 49.896H171.341L169.394 52.3538ZM165.657 53.9667H168.46V54.8883H165.657V53.9667Z" fill="#02983B"/>
<path fill-rule="evenodd" clip-rule="evenodd" d="M108.434 49.6655C109.602 48.7439 110.692 47.5918 112.015 46.7469C112.794 46.2093 113.728 45.5949 114.662 45.2876C115.129 45.134 115.441 45.0572 115.441 44.9804C115.441 44.8268 114.896 44.75 114.195 44.75C112.405 44.9036 109.446 47.2078 108.2 48.283C107.422 48.9743 106.643 49.5887 106.02 50.0495C105.865 50.1263 104.931 50.664 104.308 50.7408C104.152 50.7408 104.074 50.8944 104.308 50.8944C104.697 50.9712 105.32 50.8944 105.787 50.8944C106.955 50.8176 107.5 50.4336 108.434 49.6655Z" fill="#02983B"/>
<path fill-rule="evenodd" clip-rule="evenodd" d="M109.602 51.355C110.77 50.4333 111.86 49.2812 113.183 48.4364C113.962 47.8987 114.896 47.2843 115.83 46.9771C116.297 46.8235 116.609 46.7467 116.609 46.6699C116.609 46.5163 116.064 46.4395 115.363 46.4395C113.572 46.5931 110.614 48.8972 109.368 49.9725C108.59 50.6637 107.811 51.2782 107.188 51.739C107.033 51.8158 106.098 52.3534 105.476 52.4302C105.32 52.4302 105.242 52.5838 105.476 52.5838C105.865 52.6607 106.488 52.5838 106.955 52.5838C108.2 52.4302 108.668 52.123 109.602 51.355Z" fill="#02983B"/>
<path d="M29.178 65.4106C25.4409 65.5642 23.6503 62.3384 23.806 55.7332C23.6503 48.9744 25.4409 45.6718 29.178 45.9022C32.915 45.6718 34.7056 48.8976 34.5499 55.7332C34.7056 62.3384 32.915 65.5642 29.178 65.4106ZM29.178 65.8715C32.2143 65.8715 34.5499 64.5658 36.3406 61.8776C37.5863 59.8039 38.2091 57.6533 38.2091 55.5796C38.1312 52.7378 37.1191 50.2033 35.2506 47.9759C33.5378 46.1326 31.5136 45.2109 29.178 45.2109C26.8423 45.2109 24.7402 46.2094 22.9496 48.1295C21.2368 50.2033 20.3804 52.7378 20.3025 55.5796C20.3025 58.191 21.0032 60.5719 22.4825 62.5688C24.1953 64.7962 26.453 65.8715 29.178 65.8715Z" fill="#02983B"/>
<path d="M40.3112 58.1911C40.4669 61.0328 41.8683 62.4921 44.4375 62.5689C45.9168 62.5689 46.6953 62.2617 46.851 61.5705C46.851 61.1096 46.6953 60.956 46.306 60.956C46.1503 60.956 45.9946 61.0328 45.6832 61.1864C45.2161 61.4169 44.8268 61.4937 44.4375 61.4937C42.8026 61.4169 41.9462 60.3416 41.7905 58.2679C41.9462 56.1941 42.8026 55.1189 44.4375 55.0421C44.8268 55.0421 45.2161 55.1189 45.6832 55.2725C45.9168 55.4261 46.1503 55.5029 46.3839 55.5029C46.7732 55.4261 46.9289 55.2725 47.0067 54.8884C46.851 54.1972 46.0725 53.8132 44.5154 53.8132C41.8683 53.8132 40.4669 55.3493 40.3112 58.1911ZM55.8822 58.8055C56.505 58.8823 56.7386 58.5751 56.6607 58.0374C56.4271 55.3493 55.1036 53.89 52.768 53.7364C50.2766 53.89 48.8752 55.4261 48.6417 58.2679C48.7974 61.1864 50.1988 62.6457 52.8458 62.6457C54.87 62.4921 56.1157 61.9545 56.5828 60.956C56.5828 60.4952 56.3493 60.3416 55.96 60.3416C55.8043 60.3416 55.6486 60.4184 55.3372 60.6488C54.5586 61.1864 53.7801 61.4937 52.8458 61.4937C51.133 61.4169 50.2766 60.4952 50.1209 58.8823H55.8822V58.8055ZM50.1209 57.7302C50.2766 55.8869 51.133 55.0421 52.768 55.0421C54.2472 55.1189 55.0258 56.0405 55.1815 57.7302H50.1209ZM66.5482 54.4276C66.5482 53.9668 66.3147 53.7364 65.8476 53.7364C65.3804 53.8132 65.069 54.0436 65.069 54.4276V54.8884C64.2905 54.1204 63.4341 53.7364 62.5777 53.7364C60.0863 53.89 58.6849 55.4261 58.5292 58.2679C58.6849 61.1096 60.0863 62.5689 62.5777 62.6457C63.5898 62.7225 64.3683 62.2617 65.069 61.4169V62.0313C65.069 62.4153 65.3026 62.6457 65.8476 62.6457C66.2368 62.6457 66.4704 62.4153 66.5482 62.0313V54.4276ZM60.0863 58.1911C60.1642 56.1173 61.0206 55.0421 62.6555 54.9652C64.2126 55.0421 65.069 56.1173 65.1469 58.1911C65.069 60.2648 64.2126 61.3401 62.6555 61.4169C61.0206 61.3401 60.1642 60.2648 60.0863 58.1911ZM69.4289 61.9545C69.4289 62.4153 69.6624 62.5689 70.1296 62.5689C70.5967 62.5689 70.9081 62.3385 70.9081 61.9545V57.1158C70.986 55.8101 71.6867 55.0421 73.088 54.9652C74.4116 55.0421 75.1123 55.7333 75.1901 57.1158V61.9545C75.1901 62.4153 75.4237 62.5689 75.9687 62.5689C76.4358 62.5689 76.7472 62.3385 76.7472 61.9545V57.039C76.6694 54.9652 75.5794 53.89 73.5552 53.6596C72.4652 53.6596 71.6088 54.0436 70.986 54.8116H70.9081V54.4276C70.9081 53.89 70.6745 53.6596 70.1296 53.6596C69.6624 53.6596 69.4289 53.89 69.4289 54.4276V61.9545ZM114.273 61.9545C114.273 62.4153 114.507 62.5689 115.052 62.5689C115.519 62.5689 115.83 62.3385 115.83 61.9545V56.9622C115.908 55.6565 116.531 55.0421 117.777 54.9652C119.022 55.0421 119.723 55.6565 119.723 56.9622V61.9545C119.723 62.4153 119.957 62.5689 120.502 62.5689C121.047 62.5689 121.28 62.3385 121.28 61.9545V57.039C121.202 54.9652 120.112 53.89 118.01 53.6596C116.92 53.6596 115.986 54.1204 115.207 55.1189C114.507 54.1204 113.65 53.6596 112.638 53.6596C111.626 53.6596 110.848 54.0436 110.38 54.7348L110.303 54.658V54.4276C110.303 53.89 110.069 53.6596 109.524 53.6596C109.057 53.6596 108.823 53.89 108.823 54.4276V61.8777C108.823 62.3385 109.057 62.4921 109.524 62.4921C109.991 62.4921 110.303 62.2617 110.303 61.8777V56.9622C110.38 55.6565 111.003 55.0421 112.249 54.9652C113.495 55.0421 114.195 55.6565 114.195 56.9622V61.9545H114.273ZM130.778 58.8055C131.323 58.8823 131.635 58.5751 131.557 58.0374C131.323 55.3493 130 53.89 127.664 53.7364C125.173 53.89 123.771 55.4261 123.538 58.2679C123.694 61.1864 125.095 62.6457 127.742 62.6457C129.766 62.4921 131.012 61.9545 131.479 60.956C131.479 60.4952 131.245 60.3416 130.856 60.3416C130.701 60.3416 130.545 60.4184 130.233 60.6488C129.455 61.1864 128.676 61.4937 127.742 61.4937C126.029 61.4169 125.173 60.4952 125.017 58.8823H130.778V58.8055ZM125.095 57.7302C125.251 55.8869 126.107 55.0421 127.742 55.0421C129.221 55.1189 130 56.0405 130.156 57.7302H125.095ZM133.97 61.9545C133.97 62.4153 134.204 62.5689 134.671 62.5689C135.138 62.5689 135.45 62.3385 135.45 61.9545V57.1158C135.527 55.8101 136.228 55.0421 137.63 54.9652C138.953 55.0421 139.654 55.7333 139.732 57.1158V61.9545C139.732 62.4153 139.965 62.5689 140.51 62.5689C140.977 62.5689 141.289 62.3385 141.289 61.9545V57.039C141.211 54.9652 140.121 53.89 138.097 53.6596C137.007 53.6596 136.15 54.0436 135.527 54.8116H135.45V54.4276C135.45 53.89 135.216 53.6596 134.671 53.6596C134.204 53.6596 133.97 53.89 133.97 54.4276V61.9545ZM144.559 53.8132H143.936C143.469 53.8132 143.157 54.0436 143.157 54.4276C143.157 54.8116 143.391 55.0421 143.936 55.0421H144.559V61.9545C144.559 62.4153 144.792 62.5689 145.259 62.5689C145.804 62.5689 146.038 62.3385 146.038 61.9545V55.0421H146.661C147.128 55.0421 147.361 54.8116 147.361 54.4276C147.361 53.9668 147.128 53.8132 146.661 53.8132H146.038V51.893C145.96 51.4322 145.726 51.2018 145.259 51.125C144.792 51.125 144.559 51.3554 144.559 51.893V53.8132Z" fill="#9E9E9F"/>
<path d="M80.9513 58.1912C81.0292 56.1174 81.8856 55.0422 83.4427 54.9653C85.0776 55.0422 85.934 56.1174 86.0119 58.1912C85.934 60.2649 85.0776 61.3402 83.4427 61.417C81.8856 61.3402 81.0292 60.2649 80.9513 58.1912ZM79.6278 65.2572C79.6278 65.7948 79.8614 66.0253 80.4064 66.0253C80.8735 66.0253 81.1849 65.7948 81.1849 65.2572V61.4938H81.2628C81.8077 62.185 82.6641 62.569 83.6763 62.569C86.0897 62.4154 87.4133 60.9561 87.569 58.1912C87.4133 55.3494 86.0897 53.8133 83.6763 53.6597C82.4306 53.6597 81.652 54.0437 81.2628 54.8885H81.1849V54.4277C81.1849 53.8901 80.9513 53.6597 80.4064 53.6597C79.9392 53.6597 79.6278 53.8901 79.6278 54.4277V65.2572ZM97.5344 54.4277C97.5344 53.9669 97.3008 53.7365 96.8337 53.7365C96.3666 53.8133 96.0551 54.0437 96.0551 54.4277V54.8885C95.2766 54.1205 94.4202 53.7365 93.5638 53.7365C91.0724 53.8901 89.6711 55.4262 89.5154 58.268C89.6711 61.1097 91.0724 62.569 93.5638 62.6458C94.5759 62.7226 95.3545 62.2618 96.0551 61.417V62.0314C96.0551 62.4154 96.2887 62.6458 96.8337 62.6458C97.223 62.6458 97.4565 62.4154 97.5344 62.0314V54.4277ZM91.0724 58.1912C91.1503 56.1174 92.0067 55.0422 93.6416 54.9653C95.1987 55.0422 96.0551 56.1174 96.133 58.1912C96.0551 60.2649 95.1987 61.3402 93.6416 61.417C92.0067 61.3402 91.1503 60.2649 91.0724 58.1912ZM102.517 62.2618L101.505 64.566C101.427 64.7196 101.427 64.7964 101.349 64.95C101.271 65.1804 101.271 65.334 101.271 65.4108C101.349 65.718 101.505 65.9484 101.972 66.0253C102.361 66.0253 102.595 65.8716 102.673 65.4876L106.488 55.119C106.643 54.8117 106.721 54.5813 106.721 54.3509C106.643 53.9669 106.488 53.7365 106.021 53.7365C105.631 53.7365 105.398 53.9669 105.32 54.3509L103.296 60.3417H103.218L101.116 54.3509C100.96 53.9669 100.726 53.7365 100.415 53.7365C99.9479 53.8133 99.7143 53.9669 99.6365 54.3509C99.6365 54.4277 99.7143 54.5813 99.7922 54.9653C99.7922 54.8885 99.7922 54.9654 99.87 55.1958L102.517 62.2618Z" fill="#02983B"/>
</svg>
