<svg width="87" height="94" viewBox="0 0 87 94" fill="none" xmlns="http://www.w3.org/2000/svg">
<path fill-rule="evenodd" clip-rule="evenodd" d="M54.8717 19.6409H67.9019C68.7326 19.6409 69.4062 20.3144 69.4062 21.1436V29.3626C69.4062 30.1933 68.7326 30.8669 67.9019 30.8669H54.8717C54.041 30.8669 53.369 30.1933 53.369 29.3626V21.1436C53.369 20.3144 54.041 19.6409 54.8717 19.6409Z" stroke="#FF793A" stroke-width="3"/>
<path d="M66.198 19.6409V14.8297C66.198 12.1723 64.0442 10.0186 61.3868 10.0186C58.7295 10.0186 56.5757 12.1723 56.5757 14.8297V19.6409" stroke="#FF793A" stroke-width="3"/>
<path fill-rule="evenodd" clip-rule="evenodd" d="M74.1852 14.8297C80.3916 14.8297 85.4433 19.8494 85.4433 26.0557C85.4433 32.2621 80.4237 37.2818 74.2173 37.2818H48.5579C42.3499 37.2818 37.3318 32.2621 37.3318 26.0557C37.3318 19.8494 42.3499 14.8297 48.5579 14.8297C48.5402 14.5571 48.5579 14.3005 48.5579 14.0279C48.5579 7.38849 54.2992 2 61.3876 2C68.4744 2 74.2173 7.38849 74.2173 14.0279C74.2173 14.3005 74.2013 14.5571 74.1852 14.8297Z" stroke="#004ED1" stroke-width="3"/>
<path d="M22.5532 68.4352L19.8156 75.1468C19.7354 75.3392 19.6905 75.5509 19.6905 75.7706C19.6905 76.6574 20.409 77.3743 21.2942 77.3743C21.3985 77.3743 21.4995 77.3647 21.5957 77.347L82.537 66.121C83.2795 65.9799 83.8392 65.3288 83.8392 64.5446C83.8392 64.0394 83.605 63.5904 83.241 63.2953L75.2176 56.8772C74.9434 56.6575 74.5953 56.526 74.2169 56.526C74.1078 56.526 74.0052 56.5372 73.9041 56.5581L53.2338 60.3717" stroke="#004ED1" stroke-width="3"/>
<path d="M19.738 76.1609L21.3417 82.5758C21.5165 83.2734 22.1468 83.7898 22.8973 83.7898C23.0015 83.7898 23.1026 83.7802 23.1988 83.7609L84.1432 72.5349C84.8841 72.3922 85.4422 71.7411 85.4422 70.9601C85.4422 70.8254 85.4262 70.6955 85.3941 70.5704L83.7904 64.1555" stroke="#004ED1" stroke-width="3"/>
<path d="M1.08307 77.9166C6.48439 82.4952 17.9542 91.808 32.5207 91.808C36.7962 91.808 45.3504 90.9307 45.3504 86.9968C45.3504 83.7108 42.7492 81.8761 40.674 80.5467" stroke="#004ED1" stroke-width="3"/>
<path d="M32.6913 82.0135L36.6525 86.4574" stroke="#004ED1" stroke-width="3"/>
<path d="M1 59.4831C9.87015 55.4674 17.2264 51.7147 27.7083 51.7147C35.4607 51.7147 40.3889 52.7427 43.3958 53.8445C47.0732 55.1932 53.3677 57.4496 53.3677 61.337C53.3677 63.8436 50.9878 64.5444 48.2567 64.5444C43.2435 64.5444 39.5966 61.337 35.7269 61.337C29.3681 69.3572 14.8786 69.3556 14.8786 69.3556" stroke="#004ED1" stroke-width="3"/>
<path d="M44.6301 88.7965C49.2327 88.1309 53.3687 86.4567 53.3687 83.7897C53.3687 81.0072 50.474 79.3426 49.592 78.9016" stroke="#004ED1" stroke-width="3"/>
<path d="M33.8973 63.2544L30.1479 75.7714" stroke="#004ED1" stroke-width="3"/>
<path fill-rule="evenodd" clip-rule="evenodd" d="M13.2747 27.6595H16.4821V24.452H13.2747V27.6595Z" fill="#004ED1"/>
<path d="M61.3868 50.1115V53.3189" stroke="#004ED1" stroke-width="3"/>
<path d="M61.3868 37.2817V46.904" stroke="#004ED1" stroke-width="3"/>
<path d="M51.7645 37.2817V51.7152" stroke="#004ED1" stroke-width="3"/>
<path fill-rule="evenodd" clip-rule="evenodd" d="M69.4047 51.7152H72.6122V48.5078H69.4047V51.7152Z" fill="#004ED1"/>
<path fill-rule="evenodd" clip-rule="evenodd" d="M69.4047 45.3003H72.6122V42.0929H69.4047V45.3003Z" fill="#004ED1"/>
<path fill-rule="evenodd" clip-rule="evenodd" d="M13.2747 21.2446H16.4821V18.0372H13.2747V21.2446Z" fill="#004ED1"/>
<path fill-rule="evenodd" clip-rule="evenodd" d="M13.2747 14.8297H16.4821V11.6223H13.2747V14.8297Z" fill="#004ED1"/>
<path fill-rule="evenodd" clip-rule="evenodd" d="M24.5007 40.4892H27.7081V37.2817H24.5007V40.4892Z" fill="#004ED1"/>
<path fill-rule="evenodd" clip-rule="evenodd" d="M24.5007 34.0743H27.7081V30.8669H24.5007V34.0743Z" fill="#004ED1"/>
<path fill-rule="evenodd" clip-rule="evenodd" d="M24.5007 27.6595H27.7081V24.452H24.5007V27.6595Z" fill="#004ED1"/>
</svg>
