<svg width="20" height="29" viewBox="0 0 20 29" fill="none" xmlns="http://www.w3.org/2000/svg">
<path d="M11.4169 0.569464C11.2269 0.387563 11.0028 0.244974 10.7575 0.149879C10.2711 -0.0499596 9.72549 -0.0499596 9.23905 0.149879C8.99379 0.244974 8.76972 0.387563 8.5797 0.569464L0.587602 8.56156C0.401309 8.74785 0.253534 8.96901 0.152713 9.21242C0.0518925 9.45582 3.92583e-09 9.7167 0 9.98016C-3.92583e-09 10.2436 0.0518925 10.5045 0.152713 10.7479C0.253534 10.9913 0.401309 11.2125 0.587602 11.3988C0.773895 11.585 0.995057 11.7328 1.23846 11.8336C1.48186 11.9345 1.74274 11.9864 2.0062 11.9864C2.26966 11.9864 2.53054 11.9345 2.77394 11.8336C3.01734 11.7328 3.2385 11.585 3.4248 11.3988L8.00027 6.8033V26.25C8.00027 26.7799 8.21078 27.2881 8.58548 27.6628C8.96018 28.0375 9.46839 28.248 9.9983 28.248C10.5282 28.248 11.0364 28.0375 11.4111 27.6628C11.7858 27.2881 11.9963 26.7799 11.9963 26.25V6.8033L16.5718 11.3988C16.7575 11.586 16.9785 11.7347 17.222 11.8361C17.4655 11.9375 17.7266 11.9898 17.9904 11.9898C18.2542 11.9898 18.5153 11.9375 18.7588 11.8361C19.0023 11.7347 19.2232 11.586 19.409 11.3988C19.5963 11.213 19.7449 10.992 19.8463 10.7486C19.9478 10.5051 20 10.2439 20 9.98016C20 9.7164 19.9478 9.45524 19.8463 9.21176C19.7449 8.96829 19.5963 8.7473 19.409 8.56156L11.4169 0.569464Z" fill="currentColor"/>
</svg>
