<svg width="56" height="56" viewBox="0 0 56 56" fill="none" xmlns="http://www.w3.org/2000/svg">
<rect width="56" height="56" rx="5" fill="#EAB668"/>
<path d="M14 42C14 39.171 15.1238 36.4579 17.1242 34.4575C19.1246 32.4571 21.8377 31.3333 24.6667 31.3333C27.4956 31.3333 30.2088 32.4571 32.2091 34.4575C34.2095 36.4579 35.3333 39.171 35.3333 42H32.6667C32.6667 39.8783 31.8238 37.8434 30.3235 36.3431C28.8232 34.8429 26.7884 34 24.6667 34C22.5449 34 20.5101 34.8429 19.0098 36.3431C17.5095 37.8434 16.6667 39.8783 16.6667 42H14ZM24.6667 30C20.2467 30 16.6667 26.42 16.6667 22C16.6667 17.58 20.2467 14 24.6667 14C29.0867 14 32.6667 17.58 32.6667 22C32.6667 26.42 29.0867 30 24.6667 30ZM24.6667 27.3333C27.6133 27.3333 30 24.9467 30 22C30 19.0533 27.6133 16.6667 24.6667 16.6667C21.72 16.6667 19.3333 19.0533 19.3333 22C19.3333 24.9467 21.72 27.3333 24.6667 27.3333ZM35.712 32.2707C37.5858 33.1146 39.176 34.4817 40.2914 36.2076C41.4069 37.9336 42.0002 39.945 42 42H39.3333C39.3336 40.4586 38.8887 38.95 38.0521 37.6554C37.2155 36.3609 36.0228 35.3355 34.6173 34.7027L35.7107 32.2707H35.712ZM34.7947 17.2173C36.138 17.7711 37.2866 18.7114 38.0947 19.919C38.9028 21.1266 39.3339 22.547 39.3333 24C39.3339 25.8298 38.6503 27.5936 37.4167 28.9451C36.1832 30.2966 34.4889 31.138 32.6667 31.304V28.62C33.6546 28.4785 34.5711 28.024 35.2817 27.3233C35.9923 26.6225 36.4596 25.7124 36.6149 24.7266C36.7702 23.7407 36.6053 22.7311 36.1445 21.8458C35.6837 20.9605 34.9513 20.2463 34.0547 19.808L34.7947 17.2173Z" fill="white"/>
</svg>
