<svg width="57" height="56" viewBox="0 0 57 56" fill="none" xmlns="http://www.w3.org/2000/svg">
<rect x="0.5" y="0.133057" width="56" height="55.7338" rx="5" fill="#5071E7"/>
<path d="M38.0737 14.1331C38.8391 14.1331 39.4604 14.7543 39.4604 15.5197V20.7295L36.687 23.5029V16.9064H17.2734V39.0934H36.687V35.269L39.4604 32.4956V40.4801C39.4604 41.2456 38.8391 41.8668 38.0737 41.8668H15.8867C15.1212 41.8668 14.5 41.2456 14.5 40.4801V15.5197C14.5 14.7543 15.1212 14.1331 15.8867 14.1331H38.0737ZM40.5392 23.5736L42.5 25.5344L31.7143 36.3201L29.7508 36.3173L29.7536 34.3593L40.5392 23.5736ZM28.3669 27.9999V30.7733H21.4334V27.9999H28.3669ZM32.5269 22.4532V25.2266H21.4334V22.4532H32.5269Z" fill="white"/>
</svg>
