<svg width="57" height="56" viewBox="0 0 57 56" fill="none" xmlns="http://www.w3.org/2000/svg">
<rect x="0.5" width="56" height="56" rx="5" fill="#509FE7"/>
<path d="M21.5 21V15.4C21.5 15.0287 21.6475 14.6726 21.9101 14.4101C22.1726 14.1475 22.5287 14 22.9 14H41.1C41.4713 14 41.8274 14.1475 42.09 14.4101C42.3525 14.6726 42.5 15.0287 42.5 15.4V33.6C42.5 33.9713 42.3525 34.3274 42.09 34.59C41.8274 34.8525 41.4713 35 41.1 35H35.5V40.5902C35.5 41.3686 34.8714 42 34.0902 42H15.9098C15.7246 42.0002 15.5412 41.9638 15.3701 41.8931C15.1989 41.8223 15.0435 41.7184 14.9125 41.5875C14.7816 41.4565 14.6777 41.3011 14.6069 41.1299C14.5362 40.9588 14.4998 40.7754 14.5 40.5902L14.5042 22.4098C14.5042 21.6314 15.1328 21 15.914 21H21.5ZM24.3 21H34.0902C34.8686 21 35.5 21.6286 35.5 22.4098V32.2H39.7V16.8H24.3V21ZM32.7 23.8H17.3042L17.3 39.2H32.7V23.8ZM23.6042 36.4L18.6538 31.4496L20.6334 29.47L23.6042 32.4408L29.543 26.5006L31.5226 28.4802L23.6042 36.4Z" fill="white"/>
</svg>
