<svg width="56" height="56" viewBox="0 0 56 56" fill="none" xmlns="http://www.w3.org/2000/svg">
<rect width="56" height="56" rx="5" fill="#6550E7"/>
<path d="M15.5556 42C15.143 42 14.7473 41.8361 14.4556 41.5444C14.1639 41.2527 14 40.857 14 40.4444V15.5556C14 15.143 14.1639 14.7473 14.4556 14.4556C14.7473 14.1639 15.143 14 15.5556 14H40.4444C40.857 14 41.2527 14.1639 41.5444 14.4556C41.8361 14.7473 42 15.143 42 15.5556V40.4444C42 40.857 41.8361 41.2527 41.5444 41.5444C41.2527 41.8361 40.857 42 40.4444 42H15.5556ZM21.7778 24.8889H17.1111V38.8889H21.7778V24.8889ZM38.8889 24.8889H24.8889V38.8889H38.8889V24.8889ZM38.8889 17.1111H17.1111V21.7778H38.8889V17.1111Z" fill="white"/>
</svg>
