<svg width="56" height="56" viewBox="0 0 56 56" fill="none" xmlns="http://www.w3.org/2000/svg">
<rect width="56" height="56" rx="5" fill="#F2A268"/>
<path d="M28 23.8C26.8861 23.8 25.8178 24.2425 25.0302 25.0302C24.2425 25.8178 23.8 26.8861 23.8 28C23.8 29.1139 24.2425 30.1822 25.0302 30.9698C25.8178 31.7575 26.8861 32.2 28 32.2C29.1139 32.2 30.1822 31.7575 30.9698 30.9698C31.7575 30.1822 32.2 29.1139 32.2 28C32.2 26.8861 31.7575 25.8178 30.9698 25.0302C30.1822 24.2425 29.1139 23.8 28 23.8ZM28 21C29.8565 21 31.637 21.7375 32.9497 23.0503C34.2625 24.363 35 26.1435 35 28C35 29.8565 34.2625 31.637 32.9497 32.9497C31.637 34.2625 29.8565 35 28 35C26.1435 35 24.363 34.2625 23.0503 32.9497C21.7375 31.637 21 29.8565 21 28C21 26.1435 21.7375 24.363 23.0503 23.0503C24.363 21.7375 26.1435 21 28 21ZM37.1 20.65C37.1 21.1141 36.9156 21.5592 36.5874 21.8874C36.2592 22.2156 35.8141 22.4 35.35 22.4C34.8859 22.4 34.4408 22.2156 34.1126 21.8874C33.7844 21.5592 33.6 21.1141 33.6 20.65C33.6 20.1859 33.7844 19.7408 34.1126 19.4126C34.4408 19.0844 34.8859 18.9 35.35 18.9C35.8141 18.9 36.2592 19.0844 36.5874 19.4126C36.9156 19.7408 37.1 20.1859 37.1 20.65ZM28 16.8C24.5364 16.8 23.9708 16.8098 22.3594 16.8812C21.2618 16.933 20.5254 17.08 19.8422 17.346C19.2346 17.5812 18.7964 17.8626 18.3302 18.3302C17.892 18.7536 17.5551 19.2704 17.3446 19.8422C17.0786 20.5282 16.9316 21.2632 16.8812 22.3594C16.8084 23.905 16.8 24.4454 16.8 28C16.8 31.4636 16.8098 32.0292 16.8812 33.6406C16.933 34.7368 17.08 35.4746 17.3446 36.1564C17.5826 36.7654 17.8626 37.2036 18.3274 37.6684C18.7992 38.1388 19.2374 38.4202 19.8394 38.6526C20.531 38.92 21.2674 39.0684 22.3594 39.1188C23.905 39.1916 24.4454 39.2 28 39.2C31.4636 39.2 32.0292 39.1902 33.6406 39.1188C34.7354 39.067 35.4732 38.92 36.1564 38.6554C36.7626 38.4188 37.2036 38.1374 37.6684 37.6726C38.1402 37.2008 38.4216 36.7626 38.654 36.1606C38.92 35.4704 39.0684 34.7326 39.1188 33.6406C39.1916 32.095 39.2 31.5546 39.2 28C39.2 24.5364 39.1902 23.9708 39.1188 22.3594C39.067 21.2646 38.92 20.5254 38.654 19.8422C38.443 19.271 38.1067 18.7543 37.6698 18.3302C37.2466 17.8918 36.7297 17.5548 36.1578 17.3446C35.4718 17.0786 34.7354 16.9316 33.6406 16.8812C32.095 16.8084 31.5546 16.8 28 16.8ZM28 14C31.8038 14 32.2784 14.014 33.7708 14.084C35.2618 14.154 36.2768 14.3878 37.17 14.735C38.094 15.0906 38.8724 15.5722 39.6508 16.3492C40.3627 17.0491 40.9135 17.8956 41.265 18.83C41.6108 19.7218 41.846 20.7382 41.916 22.2292C41.9818 23.7216 42 24.1962 42 28C42 31.8038 41.986 32.2784 41.916 33.7708C41.846 35.2618 41.6108 36.2768 41.265 37.17C40.9145 38.1049 40.3636 38.9517 39.6508 39.6508C38.9507 40.3624 38.1042 40.9133 37.17 41.265C36.2782 41.6108 35.2618 41.846 33.7708 41.916C32.2784 41.9818 31.8038 42 28 42C24.1962 42 23.7216 41.986 22.2292 41.916C20.7382 41.846 19.7232 41.6108 18.83 41.265C17.8953 40.9143 17.0485 40.3633 16.3492 39.6508C15.6372 38.9511 15.0863 38.1045 14.735 37.17C14.3878 36.2782 14.154 35.2618 14.084 33.7708C14.0182 32.2784 14 31.8038 14 28C14 24.1962 14.014 23.7216 14.084 22.2292C14.154 20.7368 14.3878 19.7232 14.735 18.83C15.0853 17.8951 15.6363 17.0482 16.3492 16.3492C17.0487 15.6369 17.8954 15.086 18.83 14.735C19.7232 14.3878 20.7368 14.154 22.2292 14.084C23.7216 14.0182 24.1962 14 28 14Z" fill="white"/>
</svg>
