<svg width="56" height="52" viewBox="0 0 56 52" fill="none" xmlns="http://www.w3.org/2000/svg">
<rect y="0.54541" width="56" height="50.9091" rx="5" fill="#FFB000"/>
<path d="M42 36.1907C41.9977 36.5249 41.8639 36.8448 41.6277 37.0813C41.3915 37.3178 41.0717 37.4518 40.7375 37.4545H17.808C17.473 37.4542 17.1519 37.3209 16.9152 37.0839C16.6784 36.8469 16.5455 36.5256 16.5455 36.1907V34.909H39.4545V20.0181L29.2727 29.1818L16.5455 17.7272V15.8181C16.5455 15.4806 16.6795 15.1569 16.9182 14.9182C17.1569 14.6795 17.4806 14.5454 17.8182 14.5454H40.7273C41.0648 14.5454 41.3885 14.6795 41.6272 14.9182C41.8659 15.1569 42 15.4806 42 15.8181V36.1907ZM19.6433 17.0909L29.2727 25.7581L38.9022 17.0909H19.6433ZM14 29.8181H24.1818V32.3636H14V29.8181ZM14 23.4545H20.3636V26H14V23.4545Z" fill="white"/>
</svg>
