<svg width="1440" height="767" viewBox="0 0 1440 767" fill="none" xmlns="http://www.w3.org/2000/svg">
<mask id="mask0_137_2739" style="mask-type:alpha" maskUnits="userSpaceOnUse" x="0" y="0" width="1440" height="767">
<path d="M1440 0H0V767H1440V0Z" fill="white"/>
</mask>
<g mask="url(#mask0_137_2739)">
<path d="M1440 0H0V764H1440V0Z" fill="#F6F9FD"/>
<g opacity="0.1">
<g style="mix-blend-mode:multiply" opacity="0.244238">
<path fill-rule="evenodd" clip-rule="evenodd" d="M0 377C170.096 377 113.788 264.385 255.731 238.577C397.673 212.769 309.692 39.1538 443.423 39.1538C532.577 39.1538 600.224 9.4359 646.365 -50H0C0 142.385 0 284.718 0 377Z" fill="#004ED1"/>
</g>
<g style="mix-blend-mode:multiply" opacity="0.15">
<path fill-rule="evenodd" clip-rule="evenodd" d="M0 559C340 559 227.448 398.385 511.172 361.577C794.897 324.769 619.035 77.1538 886.345 77.1538C1064.55 77.1538 1199.77 34.7692 1292 -50H0C0 224.385 0 427.385 0 559Z" fill="#004ED1"/>
</g>
<g style="mix-blend-mode:multiply" opacity="0.244238">
<path fill-rule="evenodd" clip-rule="evenodd" d="M1440.37 606C1270.27 606 1326.58 670.352 1184.63 685.099C1042.69 699.846 1130.67 799.055 996.942 799.055C907.788 799.055 840.141 816.037 794 850H1440.37C1440.37 740.066 1440.37 658.733 1440.37 606Z" fill="#004ED1"/>
</g>
<g style="mix-blend-mode:multiply" opacity="0.15">
<path fill-rule="evenodd" clip-rule="evenodd" d="M1440.37 400C1126.68 400 1230.52 518.681 968.757 545.879C706.993 573.077 869.244 756.044 622.623 756.044C458.209 756.044 333.457 787.363 248.365 850H1440.37C1440.37 647.253 1440.37 497.253 1440.37 400Z" fill="#004ED1"/>
</g>
</g>
</g>
</svg>
