<svg width="36" height="36" viewBox="0 0 36 36" fill="none" xmlns="http://www.w3.org/2000/svg">
<path d="M16.5 3.0752V19.5002H32.925C32.1735 27.0797 25.7775 33.0002 18 33.0002C9.7155 33.0002 3 26.2847 3 18.0002C3 10.2227 8.9205 3.8267 16.5 3.0752ZM19.5 3.0752C22.9425 3.42199 26.1593 4.94783 28.6058 7.39435C31.0524 9.84087 32.5782 13.0577 32.925 16.5002H19.5V3.0752Z" fill="#697FAB"/>
<path d="M16.5 3.0752V19.5002H32.925C32.1735 27.0797 25.7775 33.0002 18 33.0002C9.7155 33.0002 3 26.2847 3 18.0002C3 10.2227 8.9205 3.8267 16.5 3.0752Z" fill="#697FAB"/>
</svg>
