<svg width="20" height="20" viewBox="0 0 20 20" fill="none" xmlns="http://www.w3.org/2000/svg">
<path d="M16.6667 18.3334H3.33333C3.11232 18.3334 2.90036 18.2456 2.74408 18.0893C2.5878 17.933 2.5 17.721 2.5 17.5V2.50002C2.5 2.27901 2.5878 2.06704 2.74408 1.91076C2.90036 1.75448 3.11232 1.66669 3.33333 1.66669H16.6667C16.8877 1.66669 17.0996 1.75448 17.2559 1.91076C17.4122 2.06704 17.5 2.27901 17.5 2.50002V17.5C17.5 17.721 17.4122 17.933 17.2559 18.0893C17.0996 18.2456 16.8877 18.3334 16.6667 18.3334ZM5.83333 5.00002V8.33335H9.16667V5.00002H5.83333ZM5.83333 10V11.6667H14.1667V10H5.83333ZM5.83333 13.3334V15H14.1667V13.3334H5.83333ZM10.8333 5.83335V7.50002H14.1667V5.83335H10.8333Z" fill="#697FAB"/>
</svg>
