<svg width="36" height="36" viewBox="0 0 36 36" fill="none" xmlns="http://www.w3.org/2000/svg">
<path d="M3 30H33V33H3V30ZM6 18H9V28.5H6V18ZM13.5 18H16.5V28.5H13.5V18ZM19.5 18H22.5V28.5H19.5V18ZM27 18H30V28.5H27V18ZM3 10.5L18 3L33 10.5V16.5H3V10.5ZM18 12C18.3978 12 18.7794 11.842 19.0607 11.5607C19.342 11.2794 19.5 10.8978 19.5 10.5C19.5 10.1022 19.342 9.72064 19.0607 9.43934C18.7794 9.15804 18.3978 9 18 9C17.6022 9 17.2206 9.15804 16.9393 9.43934C16.658 9.72064 16.5 10.1022 16.5 10.5C16.5 10.8978 16.658 11.2794 16.9393 11.5607C17.2206 11.842 17.6022 12 18 12Z" fill="#697FAB"/>
<path d="M3 30H33V33H3V30ZM3 10.5L18 3L33 10.5V16.5H3V10.5ZM18 12C18.3978 12 18.7794 11.842 19.0607 11.5607C19.342 11.2794 19.5 10.8978 19.5 10.5C19.5 10.1022 19.342 9.72064 19.0607 9.43934C18.7794 9.15804 18.3978 9 18 9C17.6022 9 17.2206 9.15804 16.9393 9.43934C16.658 9.72064 16.5 10.1022 16.5 10.5C16.5 10.8978 16.658 11.2794 16.9393 11.5607C17.2206 11.842 17.6022 12 18 12Z" fill="#697FAB"/>
</svg>
