<svg width="36" height="36" viewBox="0 0 36 36" fill="none" xmlns="http://www.w3.org/2000/svg">
<path d="M25.5 19.5C27.0913 19.5 28.6174 20.1321 29.7426 21.2574C30.8679 22.3826 31.5 23.9087 31.5 25.5C31.5 27.0913 30.8679 28.6174 29.7426 29.7426C28.6174 30.8679 27.0913 31.5 25.5 31.5C22.287 31.5 19.5 28.815 19.5 25.5H16.5C16.4994 26.9557 15.9697 28.3615 15.0095 29.4555C14.0492 30.5496 12.724 31.2572 11.2808 31.4467C9.83747 31.6361 8.37453 31.2943 7.16453 30.4851C5.95452 29.6759 5.07996 28.4544 4.70379 27.0482C4.32763 25.6419 4.47552 24.1469 5.1199 22.8416C5.76428 21.5364 6.86121 20.5099 8.20631 19.9534C9.55141 19.3969 11.0529 19.3484 12.4311 19.8169C13.8094 20.2855 14.9702 21.239 15.6975 22.5H20.3025C20.829 21.5875 21.5866 20.8298 22.499 20.3031C23.4114 19.7765 24.4465 19.4995 25.5 19.5ZM3 18V15H6V10.5C6 8.9087 6.63214 7.38258 7.75736 6.25736C8.88258 5.13214 10.4087 4.5 12 4.5H24C25.5913 4.5 27.1174 5.13214 28.2426 6.25736C29.3679 7.38258 30 8.9087 30 10.5V15H33V18H3Z" fill="#697FAB"/>
<path d="M3 18V15H6V10.5C6 8.9087 6.63214 7.38258 7.75736 6.25736C8.88258 5.13214 10.4087 4.5 12 4.5H24C25.5913 4.5 27.1174 5.13214 28.2426 6.25736C29.3679 7.38258 30 8.9087 30 10.5V15H33V18H3Z" fill="#697FAB"/>
</svg>
