<svg width="36" height="36" viewBox="0 0 36 36" fill="none" xmlns="http://www.w3.org/2000/svg">
<path d="M27 12H30C30.3978 12 30.7794 12.158 31.0607 12.4393C31.342 12.7206 31.5 13.1022 31.5 13.5V31.5C31.5 31.8978 31.342 32.2794 31.0607 32.5607C30.7794 32.842 30.3978 33 30 33H6C5.60218 33 5.22064 32.842 4.93934 32.5607C4.65804 32.2794 4.5 31.8978 4.5 31.5V13.5C4.5 13.1022 4.65804 12.7206 4.93934 12.4393C5.22064 12.158 5.60218 12 6 12H9V10.5C9 8.11305 9.94821 5.82387 11.636 4.13604C13.3239 2.44821 15.6131 1.5 18 1.5C20.3869 1.5 22.6761 2.44821 24.364 4.13604C26.0518 5.82387 27 8.11305 27 10.5V12ZM24 12V10.5C24 8.9087 23.3679 7.38258 22.2426 6.25736C21.1174 5.13214 19.5913 4.5 18 4.5C16.4087 4.5 14.8826 5.13214 13.7574 6.25736C12.6321 7.38258 12 8.9087 12 10.5V12H24ZM16.5 21V24H19.5V21H16.5ZM10.5 21V24H13.5V21H10.5ZM22.5 21V24H25.5V21H22.5Z" fill="#697FAB"/>
<path d="M16.5 21V24H19.5V21H16.5ZM10.5 21V24H13.5V21H10.5ZM22.5 21V24H25.5V21H22.5Z" fill="white"/>
</svg>
