<svg width="36" height="36" viewBox="0 0 36 36" fill="none" xmlns="http://www.w3.org/2000/svg">
<path d="M6.3855 8.50652L9.591 11.712C8.00126 13.838 7.27579 16.4872 7.5606 19.1265C7.84541 21.7658 9.11935 24.1993 11.126 25.9372C13.1327 27.6751 15.7232 28.5884 18.3761 28.4933C21.0291 28.3982 23.5475 27.3017 25.4246 25.4246C27.3017 23.5475 28.3982 21.0291 28.4933 18.3762C28.5884 15.7232 27.6751 13.1328 25.9372 11.1261C24.1993 9.11937 21.7658 7.84543 19.1265 7.56062C16.4872 7.27581 13.838 8.00128 11.712 9.59102L8.505 6.38552C11.1821 4.19098 14.5383 2.99431 18 3.00002C26.2845 3.00002 33 9.71552 33 18C33 26.2845 26.2845 33 18 33C9.7155 33 3 26.2845 3 18C3 14.3985 4.269 11.0925 6.3855 8.50652ZM11.742 13.8645L18 20.121L20.121 18L13.8645 11.742C15.415 10.7171 17.2909 10.3045 19.1284 10.584C20.9658 10.8636 22.6341 11.8155 23.8096 13.2552C24.9851 14.6949 25.5842 16.5198 25.4907 18.376C25.3972 20.2323 24.6177 21.9878 23.3035 23.302C21.9892 24.6163 20.2338 25.3957 18.3775 25.4892C16.5212 25.5827 14.6964 24.9836 13.2567 23.8081C11.817 22.6326 10.8651 20.9644 10.5855 19.1269C10.3059 17.2894 10.7186 15.4135 11.7435 13.863L11.742 13.8645Z" fill="#697FAB"/>
<path d="M6.3855 8.50652L9.591 11.712C8.00126 13.838 7.27579 16.4872 7.5606 19.1265C7.84541 21.7658 9.11935 24.1993 11.126 25.9372C13.1327 27.6751 15.7232 28.5884 18.3761 28.4933C21.0291 28.3982 23.5475 27.3017 25.4246 25.4246C27.3017 23.5475 28.3982 21.0291 28.4933 18.3762C28.5884 15.7232 27.6751 13.1328 25.9372 11.1261C24.1993 9.11937 21.7658 7.84543 19.1265 7.56062C16.4872 7.27581 13.838 8.00128 11.712 9.59102L8.505 6.38552C11.1821 4.19098 14.5383 2.99431 18 3.00002C26.2845 3.00002 33 9.71552 33 18C33 26.2845 26.2845 33 18 33C9.7155 33 3 26.2845 3 18C3 14.3985 4.269 11.0925 6.3855 8.50652Z" fill="#697FAB"/>
</svg>
