<svg width="36" height="36" viewBox="0 0 36 36" fill="none" xmlns="http://www.w3.org/2000/svg">
<path d="M13.995 17.2498H17.25C19.0402 17.2498 20.7571 17.961 22.023 19.2268C23.2888 20.4927 24 22.2096 24 23.9998H13.4985L13.5 25.4998H25.5V23.9998C25.4953 22.4038 25.0341 20.8424 24.171 19.4998H28.5C29.9179 19.4994 31.3068 19.901 32.5058 20.6579C33.7048 21.4148 34.6646 22.4961 35.274 23.7763C31.7265 28.4578 25.983 31.4998 19.5 31.4998C15.3585 31.4998 11.85 30.6148 9 29.0623V15.1063C10.8249 15.3677 12.5482 16.1072 13.995 17.2498ZM6 13.4998C6.3674 13.4999 6.72201 13.6347 6.99656 13.8789C7.27111 14.123 7.44651 14.4594 7.4895 14.8243L7.5 14.9998V28.4998C7.5 28.8976 7.34196 29.2792 7.06066 29.5605C6.77936 29.8418 6.39782 29.9998 6 29.9998H3C2.60218 29.9998 2.22064 29.8418 1.93934 29.5605C1.65804 29.2792 1.5 28.8976 1.5 28.4998V14.9998C1.5 14.602 1.65804 14.2205 1.93934 13.9392C2.22064 13.6578 2.60218 13.4998 3 13.4998H6ZM20.469 5.36231L21 5.89481L21.531 5.36381C21.8787 5.01314 22.2923 4.7346 22.7479 4.54418C23.2036 4.35377 23.6923 4.25523 24.1862 4.25421C24.68 4.2532 25.1692 4.34974 25.6256 4.53829C26.082 4.72684 26.4967 5.00369 26.8459 5.35293C27.195 5.70218 27.4718 6.11695 27.6602 6.57343C27.8486 7.02991 27.945 7.51911 27.9438 8.01294C27.9427 8.50678 27.844 8.99553 27.6535 9.45112C27.4629 9.90672 27.1843 10.3202 26.8335 10.6678L21 16.4998L15.165 10.6648C14.8143 10.3171 14.5358 9.90354 14.3454 9.44789C14.155 8.99224 14.0564 8.50347 14.0554 8.00963C14.0544 7.51579 14.1509 7.02662 14.3395 6.57019C14.528 6.11377 14.8049 5.69907 15.1541 5.34993C15.5034 5.00078 15.9181 4.72405 16.3746 4.53563C16.8311 4.34721 17.3203 4.25081 17.8141 4.25196C18.308 4.25311 18.7967 4.35179 19.2523 4.54234C19.7079 4.73288 20.1214 5.01154 20.469 5.36231Z" fill="#697FAB"/>
<path d="M13.995 17.25H17.25C19.0402 17.25 20.7571 17.9612 22.023 19.227C23.2888 20.4929 24 22.2098 24 24H13.4985L13.5 25.5H25.5V24C25.4953 22.4039 25.0341 20.8425 24.171 19.5H28.5C29.9179 19.4996 31.3068 19.9012 32.5058 20.6581C33.7048 21.415 34.6646 22.4963 35.274 23.7765C31.7265 28.458 25.983 31.5 19.5 31.5C15.3585 31.5 11.85 30.615 9 29.0625V15.1065C10.8249 15.3679 12.5482 16.1074 13.995 17.25ZM6 13.5C6.3674 13.5 6.72201 13.6349 6.99656 13.8791C7.27111 14.1232 7.44651 14.4596 7.4895 14.8245L7.5 15V28.5C7.5 28.8978 7.34196 29.2794 7.06066 29.5607C6.77936 29.842 6.39782 30 6 30H3C2.60218 30 2.22064 29.842 1.93934 29.5607C1.65804 29.2794 1.5 28.8978 1.5 28.5V15C1.5 14.6022 1.65804 14.2206 1.93934 13.9393C2.22064 13.658 2.60218 13.5 3 13.5H6Z" fill="#697FAB"/>
</svg>
