<svg width="20" height="20" viewBox="0 0 20 20" fill="none" xmlns="http://www.w3.org/2000/svg">
<path d="M11.6666 16.6667V18.3333H1.66663V16.6667H11.6666ZM12.155 0.571663L18.6366 7.05333L17.4583 8.23333L16.575 7.93833L14.5108 10L19.225 14.7142L18.0466 15.8925L13.3333 11.1783L11.33 13.1817L11.5658 14.125L10.3866 15.3033L3.90496 8.82166L5.08413 7.64333L6.02579 7.87833L11.2708 2.63416L10.9766 1.75083L12.155 0.571663Z" fill="#697FAB"/>
<path d="M12.1549 0.571655L18.6366 7.05332L17.4582 8.23332L16.5749 7.93832L14.5107 9.99999L19.2249 14.7142L18.0466 15.8925L13.3332 11.1783L11.3299 13.1817L11.5657 14.125L10.3866 15.3033L3.90491 8.82166L5.08407 7.64332L6.02574 7.87832L11.2707 2.63416L10.9766 1.75082L12.1549 0.571655Z" fill="#697FAB"/>
</svg>
