<svg width="36" height="36" viewBox="0 0 36 36" fill="none" xmlns="http://www.w3.org/2000/svg">
<path d="M18 16.5C19.9891 16.5 21.8968 17.2902 23.3033 18.6967C24.7098 20.1032 25.5 22.0109 25.5 24V33H10.5V24C10.5 22.0109 11.2902 20.1032 12.6967 18.6967C14.1032 17.2902 16.0109 16.5 18 16.5ZM7.932 21.009C7.69329 21.8142 7.55227 22.6451 7.512 23.484L7.5 24V33H3V26.25C2.9997 24.9564 3.47704 23.7082 4.34045 22.7448C5.20386 21.7815 6.39255 21.1708 7.6785 21.03L7.9335 21.009H7.932ZM28.068 21.009C29.4029 21.0904 30.6564 21.6779 31.5729 22.6519C32.4894 23.6258 32.9998 24.9127 33 26.25V33H28.5V24C28.5 22.9605 28.35 21.957 28.068 21.009ZM8.25 12C9.24456 12 10.1984 12.3951 10.9017 13.0983C11.6049 13.8016 12 14.7554 12 15.75C12 16.7446 11.6049 17.6984 10.9017 18.4017C10.1984 19.1049 9.24456 19.5 8.25 19.5C7.25544 19.5 6.30161 19.1049 5.59835 18.4017C4.89509 17.6984 4.5 16.7446 4.5 15.75C4.5 14.7554 4.89509 13.8016 5.59835 13.0983C6.30161 12.3951 7.25544 12 8.25 12ZM27.75 12C28.7446 12 29.6984 12.3951 30.4016 13.0983C31.1049 13.8016 31.5 14.7554 31.5 15.75C31.5 16.7446 31.1049 17.6984 30.4016 18.4017C29.6984 19.1049 28.7446 19.5 27.75 19.5C26.7554 19.5 25.8016 19.1049 25.0984 18.4017C24.3951 17.6984 24 16.7446 24 15.75C24 14.7554 24.3951 13.8016 25.0984 13.0983C25.8016 12.3951 26.7554 12 27.75 12ZM18 3C19.5913 3 21.1174 3.63214 22.2426 4.75736C23.3679 5.88258 24 7.4087 24 9C24 10.5913 23.3679 12.1174 22.2426 13.2426C21.1174 14.3679 19.5913 15 18 15C16.4087 15 14.8826 14.3679 13.7574 13.2426C12.6321 12.1174 12 10.5913 12 9C12 7.4087 12.6321 5.88258 13.7574 4.75736C14.8826 3.63214 16.4087 3 18 3Z" fill="#697FAB"/>
<path d="M18 16.5C19.9891 16.5 21.8968 17.2902 23.3033 18.6967C24.7098 20.1032 25.5 22.0109 25.5 24V33H10.5V24C10.5 22.0109 11.2902 20.1032 12.6967 18.6967C14.1032 17.2902 16.0109 16.5 18 16.5ZM18 3C19.5913 3 21.1174 3.63214 22.2426 4.75736C23.3679 5.88258 24 7.4087 24 9C24 10.5913 23.3679 12.1174 22.2426 13.2426C21.1174 14.3679 19.5913 15 18 15C16.4087 15 14.8826 14.3679 13.7574 13.2426C12.6321 12.1174 12 10.5913 12 9C12 7.4087 12.6321 5.88258 13.7574 4.75736C14.8826 3.63214 16.4087 3 18 3Z" fill="#697FAB"/>
</svg>
