
<svg width="200" height="110" viewBox="0 0 200 110" fill="none" xmlns="http://www.w3.org/2000/svg">
<g clipPath="url(#clip0_9_352)">
<path d="M200 0.621094H0V109.621H200V0.621094Z" fill="white"/>
<path d="M75.1444 33.6281L45.3722 49.1118L62.8736 76.6141L58.3144 51.759L75.1444 33.6281Z" fill="#FF6400"/>
<path fill-rule="evenodd" clip-rule="evenodd" d="M62.0003 67.2638L79.1625 61.5647L77.4794 58.9702H66.186L66.1976 59.0304L61.285 62.5074L62.0003 67.2638ZM56.9072 68.9551L55.4204 66.6582L47.9924 71.9154L56.9072 68.9551ZM74.8438 54.9072L76.6878 57.7499H65.9511L65.404 54.9072H74.8438ZM65.1691 53.6869H74.0522L72.6175 51.4752H64.7435L65.1691 53.6869ZM70.3911 48.0431L71.8259 50.2549H64.5086L64.0829 48.0431H70.3911ZM64.4021 46.8228H69.5995L67.4389 43.4921L64.4021 46.8228ZM62.3723 39.1553L64.0871 38.3251L61.4217 34.2161L62.3723 39.1553Z" fill="#FF6400"/>
<path fill-rule="evenodd" clip-rule="evenodd" d="M88.8062 48.6494L100.855 37.1206H107.061V49.2216H109.161V54.1338L107.061 54.1338V56.7468H101.979V54.0415L88.8062 54.1338V48.6494ZM94.7645 49.3207H102.105V41.8583L94.7645 49.3207Z" fill="#005ADC"/>
<path fill-rule="evenodd" clip-rule="evenodd" d="M111.645 37.1206V56.8723H116.518V51.7694H116.536V47.0787H116.536V41.5512H123.356C124.946 41.5512 126.235 42.8401 126.235 44.4301C126.235 46.0201 124.946 47.309 123.356 47.309H118.903V51.7694H124.458C127.772 51.7694 130.458 49.0831 130.458 45.7694V43.1206C130.458 39.8069 127.772 37.1206 124.458 37.1206L111.645 37.1206Z" fill="#005ADC"/>
<path fill-rule="evenodd" clip-rule="evenodd" d="M131.496 37.2981H137.125L138.956 40.0552H133.292L131.496 37.2981ZM141.769 44.2909L139.76 41.2666H134.082L136.19 44.5022H147.348L149.457 41.2666H143.777L141.769 44.2909ZM146.559 45.7136H136.979L137.736 46.8751L136.382 48.9494H147.155L145.801 46.8763L146.559 45.7136ZM133.478 53.3967L135.591 50.1608H141.486L139.517 53.3967H133.478ZM132.687 54.6081L130.911 57.3295H137.125L138.78 54.6081H132.687ZM144.756 54.6081L146.413 57.332H152.628L150.849 54.6081H144.756ZM150.058 53.3967L147.946 50.1608H142.05L144.019 53.3967H150.058ZM144.582 40.0552H150.246L152.043 37.2981H146.413L144.582 40.0552Z" fill="#005ADC"/>
<path d="M143.825 63.2009C143.775 63.0429 143.705 62.87 143.617 62.6824C143.541 62.4948 143.453 62.3121 143.352 62.1343C143.264 61.9467 143.169 61.7739 143.068 61.6159C142.967 61.448 142.872 61.3048 142.784 61.1863L144.829 60.6827C144.866 60.8209 144.917 60.974 144.98 61.1419C145.056 61.3098 145.138 61.4826 145.226 61.6603C145.314 61.8381 145.409 62.0109 145.51 62.1788C145.611 62.3467 145.712 62.4997 145.813 62.638L143.825 63.2009ZM148.312 66.3856C148.69 66.3856 149.05 66.3807 149.391 66.3708C149.731 66.3511 150.015 66.3313 150.243 66.3116L149.637 71.7182C149.599 72.1132 149.53 72.4391 149.429 72.6959C149.34 72.9526 149.17 73.165 148.917 73.3328C148.665 73.5007 148.305 73.634 147.838 73.7328C147.372 73.8414 146.74 73.9451 145.945 74.0439C145.895 73.7575 145.762 73.4513 145.548 73.1255C145.333 72.8095 145.056 72.5181 144.715 72.2515C145.27 72.3503 145.737 72.4046 146.116 72.4144C146.507 72.4243 146.829 72.3947 147.081 72.3256C147.334 72.2564 147.523 72.1478 147.649 71.9997C147.775 71.8516 147.857 71.6738 147.895 71.4664L148.482 67.541H143.276C143.163 68.2718 143.005 68.9137 142.803 69.4667C142.601 70.0098 142.317 70.5233 141.951 71.0072C141.598 71.4911 141.15 71.9701 140.607 72.4441C140.064 72.9082 139.389 73.4217 138.582 73.9846C138.38 73.718 138.115 73.4958 137.786 73.318C137.471 73.1501 137.124 73.0267 136.745 72.9477C137.439 72.6811 138.064 72.3601 138.619 71.9849C139.187 71.5997 139.68 71.1751 140.096 70.711C140.512 70.2468 140.853 69.7481 141.118 69.2149C141.383 68.6717 141.566 68.1039 141.667 67.5114C141.743 67.0769 141.8 66.6177 141.838 66.1338C141.875 65.64 141.907 65.0969 141.932 64.5044C141.326 64.5044 140.771 64.5093 140.266 64.5192C139.762 64.5291 139.282 64.539 138.828 64.5488C138.386 64.5488 137.963 64.5587 137.559 64.5785C137.155 64.5883 136.758 64.5982 136.367 64.6081V63.2749C137.351 63.3144 138.506 63.3441 139.831 63.3638C141.169 63.3737 142.721 63.3786 144.488 63.3786C146.28 63.3786 147.845 63.3737 149.183 63.3638C150.533 63.3441 151.681 63.3144 152.628 63.2749V64.6081C152.161 64.5883 151.599 64.5735 150.943 64.5636C150.287 64.5439 149.567 64.534 148.785 64.534C148.015 64.5241 147.195 64.5192 146.324 64.5192C145.453 64.5093 144.576 64.5044 143.693 64.5044C143.655 64.8401 143.617 65.1611 143.579 65.4672C143.541 65.7635 143.497 66.0696 143.447 66.3856H148.312Z" fill="#005ADC"/>
<path d="M126.617 63.1613H123.399V68.1244C123.399 68.3003 123.405 68.4377 123.417 68.5366C123.443 68.6355 123.487 68.7125 123.55 68.7675C123.626 68.8114 123.733 68.8389 123.872 68.8499C124.011 68.8609 124.206 68.8609 124.459 68.8499C124.825 68.8279 125.153 68.7894 125.443 68.7345C125.746 68.6685 125.96 68.5916 126.087 68.5036C125.986 68.8664 125.91 69.2072 125.859 69.5259C125.822 69.8337 125.815 70.0646 125.841 70.2185C125.512 70.2404 125.14 70.2514 124.724 70.2514C124.307 70.2514 123.878 70.2514 123.436 70.2514C123.07 70.2514 122.786 70.2349 122.585 70.202C122.383 70.158 122.225 70.0811 122.111 69.9711C122.01 69.8612 121.947 69.7128 121.922 69.5259C121.897 69.3281 121.884 69.0697 121.884 68.751V63.1613H119.972C119.972 63.9528 119.96 64.6563 119.934 65.2719C119.922 65.8764 119.878 66.4151 119.802 66.8877C119.739 67.3494 119.644 67.7616 119.518 68.1244C119.392 68.4871 119.228 68.8279 119.026 69.1467C118.824 69.4655 118.578 69.7733 118.287 70.0701C118.01 70.3559 117.675 70.6637 117.284 70.9934C116.893 70.6197 116.401 70.3119 115.808 70.0701C116.35 69.7513 116.798 69.4215 117.152 69.0807C117.518 68.729 117.802 68.3003 118.003 67.7946C118.205 67.278 118.332 66.6514 118.382 65.9149C118.445 65.1784 118.445 64.2605 118.382 63.1613H115.448V71.8673H126.617V63.1613ZM115.448 74.0438H113.725C113.788 73.5931 113.832 73.115 113.858 72.6093C113.896 72.1037 113.914 71.576 113.914 71.0264V64.1506C113.914 63.645 113.902 63.1943 113.877 62.7986C113.864 62.4028 113.832 62.0566 113.782 61.7598C113.997 61.7927 114.249 61.8202 114.539 61.8422C114.842 61.8532 115.259 61.8642 115.789 61.8752C116.331 61.8862 117.019 61.8972 117.852 61.9082C118.698 61.9082 119.77 61.9082 121.07 61.9082C122.37 61.9082 123.436 61.9082 124.269 61.9082C125.115 61.8972 125.803 61.8862 126.333 61.8752C126.875 61.8642 127.292 61.8532 127.582 61.8422C127.885 61.8202 128.137 61.7927 128.339 61.7598C128.289 62.0676 128.257 62.4193 128.245 62.815C128.232 63.1998 128.226 63.645 128.226 64.1506V70.9275C128.226 71.5101 128.232 72.0542 128.245 72.5599C128.27 73.0655 128.314 73.5272 128.377 73.9449H126.617V73.3681L115.448 73.4093V74.0438Z" fill="#005ADC"/>
<path d="M91.4746 64.7632C91.3105 64.2918 91.1023 63.8057 90.8499 63.3048C90.5975 62.804 90.345 62.3719 90.0926 62.0085L91.626 61.6255C91.7396 61.8022 91.8532 62.0036 91.9667 62.2295C92.0929 62.4553 92.2191 62.6861 92.3453 62.9218C92.4716 63.1575 92.5978 63.3932 92.724 63.6289C92.8502 63.8646 92.9637 64.0856 93.0647 64.2918L91.4746 64.7632ZM97.059 62.745C96.9202 62.4897 96.7687 62.2491 96.6047 62.0232C96.4406 61.7973 96.245 61.5665 96.0178 61.3309L97.3429 60.8447C97.4818 61.0706 97.6395 61.2965 97.8162 61.5224C98.0055 61.7482 98.22 61.9839 98.4598 62.2295L97.059 62.745ZM92.7997 71.6574C93.0647 71.6869 93.3234 71.736 93.5758 71.8047C93.8408 71.8636 94.1753 71.9569 94.5791 72.0846C95.0713 72.2417 95.7023 72.3645 96.4722 72.4529C97.2546 72.5511 98.1443 72.6051 99.1413 72.6149C100.151 72.6346 101.262 72.61 102.473 72.5413C103.685 72.4824 104.972 72.3743 106.335 72.2172C106.12 72.4725 105.981 72.7082 105.918 72.9243C105.868 73.1502 105.868 73.3711 105.918 73.5872C104.682 73.6461 103.59 73.6854 102.643 73.705C101.697 73.7345 100.851 73.7443 100.107 73.7345C99.3748 73.7345 98.7185 73.7149 98.138 73.6756C97.5701 73.6363 97.0464 73.5823 96.5668 73.5135C96.0872 73.4448 95.6266 73.3515 95.1849 73.2336C94.7558 73.1256 94.3078 72.9979 93.8408 72.8506C93.437 72.723 93.0899 72.6395 92.7997 72.6002C92.5094 72.5609 92.2507 72.5806 92.0235 72.6591C91.7964 72.7475 91.5818 72.8997 91.3799 73.1158C91.1906 73.3417 90.995 73.651 90.7931 74.0439C90.5407 73.8965 90.2946 73.764 90.0548 73.6461C89.815 73.5283 89.5437 73.4006 89.2408 73.2631C89.7582 72.8703 90.1873 72.5609 90.528 72.335C90.8688 72.0993 91.1591 71.9275 91.3988 71.8194V67.0318C90.8688 67.0318 90.4523 67.0367 90.1494 67.0465C89.8592 67.0465 89.6005 67.0613 89.3733 67.0907V65.927C89.6131 65.9564 89.8907 65.981 90.2062 66.0006C90.5217 66.0105 90.8309 66.0154 91.1338 66.0154C91.8027 66.0154 92.4148 65.9859 92.97 65.927C92.9069 66.1823 92.8628 66.4377 92.8375 66.693C92.8123 66.9385 92.7997 67.2577 92.7997 67.6505V71.6574ZM100.485 65.2346H103.306V63.8204H100.485V65.2346ZM99.1224 66.1479H95.961V67.6358H99.1224V66.1479ZM99.9364 62.9071C100.239 62.5339 100.492 62.1705 100.694 61.817C100.908 61.4634 101.085 61.0853 101.224 60.6827C101.527 60.8202 101.836 60.9478 102.151 61.0657C102.479 61.1835 102.751 61.267 102.965 61.3161C103.129 61.3554 103.11 61.4241 102.908 61.5224C102.593 61.65 102.038 62.1116 101.243 62.9071C101.924 62.8973 102.555 62.8825 103.136 62.8629C103.716 62.8433 104.208 62.8236 104.612 62.804C104.587 63.0397 104.562 63.3146 104.536 63.6289C104.524 63.9334 104.518 64.228 104.518 64.5128C104.518 64.8172 104.524 65.1069 104.536 65.3819C104.549 65.6569 104.574 65.9368 104.612 66.2216C104.006 66.202 103.369 66.1872 102.7 66.1774C102.031 66.1676 101.293 66.1578 100.485 66.1479V67.6358C100.927 67.6358 101.381 67.6309 101.848 67.6211C102.328 67.6112 102.789 67.6063 103.23 67.6063C103.672 67.5965 104.076 67.5867 104.442 67.5769C104.82 67.5572 105.13 67.5376 105.369 67.5179C105.319 67.6554 105.281 67.7978 105.256 67.9451C105.243 68.0925 105.231 68.2791 105.218 68.5049L105.066 70.1696C105.054 70.3365 105.016 70.4838 104.953 70.6115C104.902 70.7293 104.795 70.8374 104.631 70.9356C104.48 71.024 104.246 71.1124 103.931 71.2007C103.628 71.2793 103.224 71.3677 102.719 71.4659C102.618 71.2204 102.505 71.0043 102.378 70.8177C102.265 70.6311 102.101 70.4249 101.886 70.199C102.58 70.2776 103.06 70.2727 103.325 70.1843C103.603 70.0861 103.754 69.9535 103.779 69.7865L103.912 68.5491H100.485V69.595C100.485 69.9486 100.492 70.3562 100.504 70.8177C100.53 71.2695 100.561 71.7212 100.599 72.173H99.0088C99.0467 71.7212 99.0719 71.2695 99.0845 70.8177C99.1098 70.3562 99.1224 69.9486 99.1224 69.595V68.8732C98.9078 69.1973 98.6681 69.4919 98.403 69.7571C98.1506 70.0222 97.8667 70.2727 97.5512 70.5084C97.2357 70.7441 96.8823 70.9699 96.4911 71.186C96.1125 71.4021 95.6771 71.6181 95.1849 71.8342C94.9577 71.6574 94.7432 71.5101 94.5413 71.3922C94.3393 71.2646 94.0806 71.1418 93.7651 71.024C94.7874 70.7293 95.6455 70.3758 96.3396 69.9633C97.0337 69.5508 97.5953 69.0844 98.0244 68.5639C97.3429 68.5639 96.7246 68.5737 96.1693 68.5933C95.6266 68.6031 95.1155 68.6228 94.6359 68.6522C94.6738 68.3282 94.699 68.0286 94.7116 67.7536C94.7369 67.4688 94.7432 67.1791 94.7306 66.8845C94.7306 66.5997 94.7179 66.31 94.6927 66.0154C94.6801 65.7109 94.6612 65.4163 94.6359 65.1315C95.2543 65.1708 95.9106 65.2002 96.6047 65.2199C97.2988 65.2297 98.138 65.2346 99.1224 65.2346V63.8204C98.5797 63.8204 98.0938 63.8253 97.6648 63.8352C97.2357 63.8352 96.8381 63.8401 96.4722 63.8499C96.1062 63.8499 95.7654 63.8597 95.4499 63.8793C95.1344 63.8892 94.8252 63.899 94.5223 63.9088V62.804C94.8757 62.8236 95.2417 62.8433 95.6203 62.8629C95.9989 62.8727 96.4027 62.8825 96.8318 62.8924C97.2609 62.8924 97.7279 62.8973 98.2327 62.9071C98.7375 62.9071 99.3054 62.9071 99.9364 62.9071Z" fill="#005ADC"/>
</g>
<defs>
<clipPath id="clip0_9_352">
<rect width="200" height="109" fill="white" transform="translate(0 0.621094)"/>
</clipPath>
</defs>
</svg>
