<svg width="200" height="109" viewBox="0 0 200 109" fill="none" xmlns="http://www.w3.org/2000/svg">
<path d="M200 0H0V109H200V0Z" fill="white"/>
<path d="M117.618 54.9163C117.618 53.6983 117.513 52.5421 117.333 51.4167H100.383V58.3696H110.088C109.653 60.6513 108.378 62.5783 106.488 63.8888V68.5138H112.278C115.668 65.2917 117.618 60.5433 117.618 54.9163Z" fill="#4285F4"/>
<path d="M100.383 73C105.243 73 109.308 71.335 112.278 68.5138L106.488 63.8888C104.868 64.9988 102.813 65.6771 100.383 65.6771C95.6875 65.6771 91.7125 62.4242 90.2875 58.0304H84.3175V62.7942C87.2725 68.8375 93.3475 73 100.383 73Z" fill="#34A853"/>
<path d="M90.2875 58.0304C89.9125 56.9204 89.7175 55.7333 89.7175 54.5C89.7175 53.2667 89.9275 52.0796 90.2875 50.9696V46.2058H84.3175C83.0875 48.7033 82.3825 51.5092 82.3825 54.5C82.3825 57.4908 83.0875 60.2967 84.3175 62.7942L90.2875 58.0304Z" fill="#FBBC05"/>
<path d="M100.383 43.3229C103.038 43.3229 105.408 44.2633 107.283 46.0979L112.413 40.8254C109.308 37.8346 105.243 36 100.383 36C93.3475 36 87.2725 40.1625 84.3175 46.2058L90.2875 50.9696C91.7125 46.5758 95.6875 43.3229 100.383 43.3229Z" fill="#EA4335"/>
</svg>
