<svg width="200" height="109" viewBox="0 0 200 109" fill="none" xmlns="http://www.w3.org/2000/svg">
<g clipPath="url(#clip0_2_69)">
<path d="M201 0H1V109H201V0Z" fill="white"/>
<path d="M114.287 71.2048C114.287 71.3982 114.128 71.5552 113.933 71.5552H103.949C103.753 71.5552 103.594 71.3982 103.594 71.2048V60.8739C103.594 60.6805 103.753 60.5235 103.949 60.5235H113.933C114.128 60.5235 114.287 60.6805 114.287 60.8739V71.2048ZM114.969 58.6973H102.912C102.27 58.6973 101.748 59.214 101.748 59.849V72.2297C101.748 72.8647 102.27 73.3814 102.912 73.3814H114.969C115.612 73.3814 116.134 72.8647 116.134 72.2297V59.849C116.134 59.214 115.612 58.6973 114.969 58.6973Z" fill="#0E59F0"/>
<path d="M104.332 63.2269H108.013V65.086H104.663V66.9126H108.013V68.8514H104.332V70.6775H113.55V68.8514H112.818V67.5129H110.971V68.8514H109.86V66.9126H113.226V65.086H109.86V63.2269H113.55V61.4007H104.332V63.2269Z" fill="#0E59F0"/>
<path d="M124.318 60.7504H132.446V58.9242H124.318V60.7504Z" fill="#0E59F0"/>
<path d="M123.399 66.8757C123.399 66.0728 123.241 65.3186 122.518 64.7518C123.241 64.2488 123.399 63.3953 123.399 62.6284V60.3428C123.399 59.4273 122.648 58.6846 121.722 58.6846H119.542C118.686 58.6846 117.991 59.3714 117.991 60.2179V73.355H119.839V60.8612C119.839 60.6677 119.997 60.5107 120.193 60.5107H121.197C121.393 60.5107 121.551 60.6677 121.551 60.8612V62.7155C121.551 63.3359 121.042 63.839 120.415 63.839H120.413V65.6651H120.415C121.042 65.6651 121.551 66.1682 121.551 66.7886V68.5757C121.551 68.7691 121.393 68.9261 121.197 68.9261H120.459V70.7523H121.721C122.648 70.7523 123.399 70.0096 123.399 69.0937V66.8757Z" fill="#0E59F0"/>
<path d="M123.795 63.2704V65.0966H127.37L127.397 71.1757C127.398 71.3697 127.238 71.5275 127.042 71.5275H126.17V73.3537H127.676C128.543 73.3537 129.245 72.6589 129.245 71.8023L129.217 65.0966L132.969 65.0808V63.2546L123.795 63.2704Z" fill="#0E59F0"/>
<path d="M126.417 66.0081H124.569V66.337C124.566 67.9398 124.272 70.827 123.473 72.213L123.399 72.3423H125.445L125.467 72.2878C126.389 69.9784 126.415 66.706 126.415 66.341L126.417 66.0081Z" fill="#0E59F0"/>
<path d="M129.758 66.0081L131.057 72.3423H132.969L131.668 66.0081H129.758Z" fill="#0E59F0"/>
<path d="M69.0336 62.2516H70.8825V59.3393H69.0336V62.2516Z" fill="#0E59F0"/>
<path d="M76.3028 58.6841H74.3365L73.8776 59.9343H71.6957V61.7622H73.2071L71.9527 65.1801C71.81 65.5706 71.9483 66.0244 72.3307 66.2667C72.4854 66.3643 72.6704 66.4052 72.854 66.4052H77.1668V67.7789H71.8162V69.6064H77.1668V71.5288H71.4471C71.1336 71.5288 70.8802 71.2777 70.8802 70.9682V63.0286H69.0308V70.9374C69.0308 72.2733 70.1265 73.3567 71.4773 73.3567H83.537V71.5288H79.0157V69.6064H83.2458V67.7789H79.0157V66.4052H83.2458V64.5777H79.0157V62.2309H77.1668V64.5777H74.14L75.1734 61.7622H83.537V59.9343H75.8444L76.3028 58.6841Z" fill="#0E59F0"/>
<path d="M85.3984 62.2516H87.2473V59.3393H85.3984V62.2516Z" fill="#0E59F0"/>
<path d="M92.6677 58.6841H90.7014L90.2425 59.9343H88.0606V61.7622H89.572L88.3172 65.1801C88.1749 65.5706 88.3132 66.0244 88.6956 66.2667C88.8503 66.3643 89.0353 66.4052 89.2185 66.4052H93.5317V67.7789H88.1811V69.6064H93.5317V71.5288H87.812C87.499 71.5288 87.2446 71.2778 87.2446 70.9682V63.0286H85.3962V70.9374C85.3962 72.2733 86.4914 73.3567 87.8423 73.3567H99.9019V71.5288H95.3806V69.6064H99.6107V67.7789H95.3806V66.4052H99.6107V64.5777H95.3806V62.2309H93.5317V64.5777H90.5049L91.5383 61.7622H99.9019V59.9343H92.2093L92.6677 58.6841Z" fill="#0E59F0"/>
<path d="M60.2182 47.2409C60.2182 46.8692 60.3399 46.5754 60.5899 46.3429C61.1162 45.8542 62.1889 45.6162 63.8694 45.6162C64.181 45.6162 64.5112 45.6245 64.8777 45.6409V48.478C64.432 48.6028 63.5952 48.7277 62.8341 48.7277C61.6408 48.7277 60.2182 48.4695 60.2182 47.2409ZM62.5481 41.0598C61.4613 41.0598 60.3354 41.3155 59.6103 41.7279L59.4249 41.8329L59.4246 43.4534L59.4678 43.4172C59.4778 43.4086 60.5086 42.5654 62.4693 42.47C63.3988 42.4248 64.0741 42.5937 64.4766 42.9713C64.7536 43.2315 64.894 43.5905 64.894 44.0381V44.2861C62.878 44.217 60.6701 44.2932 59.5366 45.3598C59.0325 45.8344 58.7769 46.4677 58.7769 47.2422C58.7769 49.0252 60.2943 50.0893 62.8358 50.0893C63.968 50.0893 65.1793 49.8964 66.0763 49.5726L66.3194 49.4851V43.9855C66.3194 42.0442 65.0506 41.0598 62.5481 41.0598Z" fill="#0E59F0"/>
<path d="M47.2306 48.1826V35.6186H45.7889V48.2199C45.7889 49.153 46.5583 49.9118 47.5037 49.9118H54.7329V48.49H47.5411C47.3699 48.49 47.2306 48.3522 47.2306 48.1826Z" fill="#0E59F0"/>
<path d="M71.9533 41.0598C70.8945 41.0598 69.9847 41.2868 69.1732 41.7539V41.5132H67.7654V49.9118H69.2071L69.2122 43.6541C69.2122 43.2961 70.2375 42.4819 71.926 42.4819C73.9717 42.4819 74.4016 43.542 74.4016 44.4307L74.396 49.8862V49.9118H75.8425V44.3353C75.8425 42.2843 74.3888 41.0598 71.9533 41.0598Z" fill="#0E59F0"/>
<path d="M55.8899 49.9135H57.3308V41.4291H55.8899V49.9135Z" fill="#0E59F0"/>
<path d="M55.8899 40.5509H57.3308V38.5119H55.8899V40.5509Z" fill="#0E59F0"/>
<path d="M92.8721 47.2409C92.8721 46.8692 92.9935 46.5754 93.2435 46.3429C93.7698 45.8542 94.8424 45.6162 96.523 45.6162C96.8349 45.6162 97.1648 45.6245 97.5313 45.6409V48.478C97.0859 48.6028 96.2488 48.7277 95.4877 48.7277C94.2943 48.7277 92.8721 48.4695 92.8721 47.2409ZM95.2017 41.0598C94.1149 41.0598 92.9893 41.3155 92.2638 41.7279L92.0785 41.8329V43.4534L92.1217 43.4172C92.1317 43.4086 93.1626 42.5654 95.1232 42.47C96.0523 42.4248 96.728 42.5937 97.1302 42.9713C97.4072 43.2315 97.5479 43.5905 97.5479 44.0381V44.2861C95.5316 44.217 93.3237 44.2932 92.1905 45.3598C91.686 45.8344 91.4305 46.4677 91.4305 47.2422C91.4305 49.0252 92.9478 50.0893 95.4897 50.0893C96.6215 50.0893 97.8332 49.8964 98.7298 49.5726L98.9729 49.4851V43.9855C98.9729 42.0442 97.7042 41.0598 95.2017 41.0598Z" fill="#0E59F0"/>
<path d="M79.8841 48.1826V35.6186H78.4425V48.2199C78.4425 49.153 79.2119 49.9118 80.1573 49.9118H87.3864V48.49H80.195C80.0235 48.49 79.8841 48.3522 79.8841 48.1826Z" fill="#0E59F0"/>
<path d="M104.607 41.0598C103.548 41.0598 102.638 41.2868 101.827 41.7539V41.5132H100.419V49.9118H101.861L101.866 43.6541C101.866 43.2961 102.891 42.4819 104.58 42.4819C106.626 42.4819 107.055 43.542 107.055 44.4307L107.05 49.8862V49.9118H108.496V44.3353C108.496 42.2843 107.042 41.0598 104.607 41.0598Z" fill="#0E59F0"/>
<path d="M88.5435 49.9135H89.9847V41.4291H88.5435V49.9135Z" fill="#0E59F0"/>
<path d="M88.5435 40.5509H89.9847V38.5119H88.5435V40.5509Z" fill="#0E59F0"/>
<path d="M147.223 47.2409C147.223 46.8692 147.344 46.5754 147.594 46.3429C148.121 45.8542 149.193 45.6162 150.874 45.6162C151.185 45.6162 151.515 45.6245 151.882 45.6409V48.478C151.436 48.6028 150.599 48.7277 149.838 48.7277C148.645 48.7277 147.223 48.4695 147.223 47.2409ZM149.553 41.0598C148.466 41.0598 147.34 41.3155 146.615 41.7279L146.429 41.8329V43.4534L146.472 43.4172C146.482 43.4086 147.513 42.5654 149.474 42.47C150.403 42.4248 151.079 42.5937 151.481 42.9713C151.758 43.2315 151.899 43.5905 151.899 44.0381V44.2861C149.881 44.217 147.675 44.2936 146.541 45.3598C146.037 45.8344 145.781 46.4677 145.781 47.2422C145.781 49.0252 147.299 50.0893 149.84 50.0893C150.973 50.0893 152.184 49.8964 153.081 49.5726L153.324 49.4851V43.9855C153.324 42.0442 152.055 41.0598 149.553 41.0598Z" fill="#0E59F0"/>
<path d="M124.763 49.9139H126.203V35.6186H124.763V49.9139Z" fill="#0E59F0"/>
<path d="M154.77 49.9139H156.211V35.6186H154.77V49.9139Z" fill="#0E59F0"/>
<path d="M133.967 45.5889C133.967 47.6649 133.147 48.7177 131.529 48.7177C129.911 48.7177 129.091 47.6649 129.091 45.5889C129.091 43.5126 129.911 42.4597 131.529 42.4597C133.147 42.4597 133.967 43.5126 133.967 45.5889ZM131.529 41.0601C130.363 41.0601 127.65 41.5016 127.65 45.5889C127.65 49.6762 130.363 50.1173 131.529 50.1173C132.696 50.1173 135.409 49.6762 135.409 45.5889C135.409 41.5016 132.696 41.0601 131.529 41.0601Z" fill="#0E59F0"/>
<path d="M143.186 45.5968C143.186 47.6433 142.097 48.6812 139.95 48.6812C139.526 48.6812 138.97 48.5964 138.296 48.4288V42.7962C138.757 42.6074 139.313 42.5117 139.95 42.5117C142.097 42.5117 143.186 43.5498 143.186 45.5968ZM139.95 41.0895C139.357 41.0895 138.801 41.1593 138.296 41.2971V35.6186H136.855V49.5159H136.895C137.916 49.8212 138.992 50.1037 139.95 50.1037C142.922 50.1037 144.627 48.4609 144.627 45.5968C144.627 42.7322 142.922 41.0895 139.95 41.0895Z" fill="#0E59F0"/>
<path d="M122.077 42.326H117.875V43.7485H121.568C121.737 43.7485 121.875 43.8846 121.875 44.0515V48.146C120.987 48.4955 118.736 49.1743 116.625 48.1204C115.371 47.4939 114.429 46.0813 114.105 44.3411C113.712 42.2354 114.285 40.1033 115.638 38.6384C116.692 37.4966 118.025 36.9618 119.599 37.047C120.894 37.1178 122.029 37.6002 122.589 37.8813L122.627 37.9005V36.3234L122.611 36.3166C121.338 35.7893 119.957 35.5533 118.724 35.6518C117.092 35.7821 115.695 36.4646 114.572 37.6806C112.918 39.4721 112.214 42.0583 112.687 44.5983C113.092 46.7727 114.321 48.5639 115.975 49.3893C116.938 49.8701 118 50.1139 119.131 50.1139C121.223 50.1139 122.864 49.2724 122.933 49.2365L123.316 49.0364V43.5734C123.316 42.8858 122.761 42.326 122.077 42.326Z" fill="#0E59F0"/>
</g>
<defs>
<clipPath id="clip0_2_69">
<rect width="200" height="109" fill="white"/>
</clipPath>
</defs>
</svg>
