<svg width="160" height="23" viewBox="0 0 160 23" fill="none" xmlns="http://www.w3.org/2000/svg">
<path fill-rule="evenodd" clip-rule="evenodd" d="M130.242 8.44714H136.081V7.52548H132.11L133.59 5.98938H132.033L130.242 8.21672V8.44714ZM138.884 5.98938H139.974C139.974 6.52701 139.974 7.06465 139.974 7.52548H141.064V6.60382H141.842V7.52548H142.621V8.44714H139.974C139.974 8.98477 139.974 9.52241 139.974 10.06H142.621V10.9817H139.896C139.896 11.9034 139.896 12.9018 139.896 13.9003C139.896 14.0539 139.896 14.2075 139.974 14.3611L141.92 13.209L142.543 14.1307L140.674 15.2828C141.609 16.2812 143.166 17.2797 144.022 17.5869V18.5854C143.01 18.2782 140.986 17.1261 139.818 15.7436L137.794 17.0493L137.171 16.0508L139.351 14.8219C139.039 14.4379 138.962 14.0539 138.962 13.7467V10.9817H136.86V10.06H138.962V8.44714H136.86V7.52548H138.962V5.98938H138.884ZM130.242 12.3642H132.422V10.9817H130.242V10.06H136.081V10.9817H133.356V12.3642H136.081V13.2858H133.356V17.5869H134.135L134.68 16.9725L134.757 16.8957H134.913H135.302V17.0493V17.4333L134.29 18.5086H132.344V13.2858H130.164V12.3642H130.242Z" fill="#02983B"/>
<path fill-rule="evenodd" clip-rule="evenodd" d="M145.657 7.4487H148.46V8.37035H145.657V7.4487ZM153.209 18.4318H151.496C151.107 18.4318 151.029 18.355 150.718 18.0478C150.329 17.7406 149.939 17.2029 149.861 16.8189C149.861 16.5117 149.861 15.3596 149.861 14.1307H148.694V12.9786H149.939C149.939 12.2106 149.939 11.5194 149.939 11.2121C150.017 10.4441 150.796 9.44562 151.652 9.44562H156.557C157.258 9.44562 158.27 10.4441 158.27 11.0585V12.9786H159.048V14.1307H158.27V16.9725C158.27 17.3565 157.958 17.7406 157.725 17.971C157.335 18.2782 157.102 18.5086 156.557 18.5086H155.156C154.688 18.5086 154.377 18.355 154.143 18.0478C153.988 17.8942 153.832 17.7406 153.676 17.5101C153.521 17.2797 153.521 17.2029 153.521 16.9725V14.1307H150.873C150.873 15.206 150.873 16.2813 150.873 16.6653C150.873 16.8189 150.951 16.8957 151.029 17.0493C151.185 17.2029 151.341 17.4333 151.418 17.4333C151.574 17.4333 152.82 17.4333 152.82 17.4333V17.5101L153.209 18.4318ZM153.521 13.0555V11.8266L154.611 12.2106V13.0555H157.413C157.413 12.2874 157.413 11.5194 157.413 11.2121C157.413 10.6745 157.024 10.3673 156.557 10.3673H151.808C151.496 10.3673 150.951 10.8281 150.951 11.1353C150.951 11.2889 150.951 12.057 150.951 13.0555H153.521ZM154.611 14.2075V17.0493C154.611 17.2029 154.688 17.2797 154.688 17.3565C154.766 17.5101 154.922 17.5101 155.078 17.5101C155.467 17.5101 156.557 17.5101 156.946 17.5101C157.024 17.5101 157.18 17.4333 157.258 17.2797C157.335 17.2029 157.413 17.1261 157.413 16.9725C157.413 16.7421 157.413 15.4364 157.413 14.1307H154.611V14.2075ZM147.759 12.057C147.136 12.6714 146.124 14.8988 145.735 18.4318H146.825C146.825 18.4318 146.903 13.9771 148.927 12.057H147.759ZM149.394 8.37035H159.126V7.4487H151.496L152.82 5.9126H151.341L149.394 8.37035ZM145.657 9.98326H148.46V10.9049H145.657V9.98326Z" fill="#02983B"/>
<path fill-rule="evenodd" clip-rule="evenodd" d="M88.4339 5.68212C89.6017 4.76046 90.6917 3.60838 92.0152 2.76353C92.7937 2.2259 93.728 1.61146 94.6622 1.30424C95.1294 1.15063 95.4408 1.07382 95.4408 0.997016C95.4408 0.843407 94.8958 0.766602 94.1951 0.766602C92.4045 0.920211 89.446 3.22436 88.2003 4.29963C87.4218 4.99087 86.6432 5.60531 86.0204 6.06614C85.8647 6.14295 84.9304 6.68058 84.3076 6.75739C84.1519 6.75739 84.074 6.911 84.3076 6.911C84.6968 6.9878 85.3197 6.911 85.7868 6.911C86.9546 6.83419 87.4996 6.45017 88.4339 5.68212Z" fill="#02983B"/>
<path fill-rule="evenodd" clip-rule="evenodd" d="M89.6018 7.37157C90.7696 6.44991 91.8596 5.29784 93.1831 4.45298C93.9617 3.91535 94.8959 3.30091 95.8302 2.99369C96.2973 2.84008 96.6087 2.76327 96.6087 2.68647C96.6087 2.53286 96.0638 2.45605 95.3631 2.45605C93.5724 2.60966 90.6139 4.91381 89.3683 5.98908C88.5897 6.68033 87.8112 7.29477 87.1883 7.7556C87.0326 7.8324 86.0984 8.37004 85.4755 8.44684C85.3198 8.44684 85.242 8.60045 85.4755 8.60045C85.8648 8.67725 86.4876 8.60045 86.9548 8.60045C88.2004 8.44684 88.6676 8.13962 89.6018 7.37157Z" fill="#02983B"/>
<path d="M9.17792 21.4272C5.4409 21.5808 3.65024 18.355 3.80595 11.7498C3.65024 4.99098 5.4409 1.68837 9.17792 1.91878C12.9149 1.68837 14.7056 4.91418 14.5499 11.7498C14.7056 18.355 12.9149 21.5808 9.17792 21.4272ZM9.17792 21.8881C12.2143 21.8881 14.5499 20.5824 16.3405 17.8942C17.5862 15.8205 18.2091 13.6699 18.2091 11.5962C18.1312 8.75442 17.1191 6.21986 15.2506 3.99252C13.5378 2.1492 11.5136 1.22754 9.17792 1.22754C6.84228 1.22754 4.74021 2.226 2.94955 4.14613C1.23675 6.21986 0.380345 8.75442 0.30249 11.5962C0.30249 14.2076 1.00318 16.5885 2.48242 18.5855C4.19522 20.8128 6.45301 21.8881 9.17792 21.8881Z" fill="#02983B"/>
<path d="M20.3113 14.2077C20.467 17.0494 21.8684 18.5087 24.4376 18.5855C25.9168 18.5855 26.6954 18.2783 26.8511 17.5871C26.8511 17.1262 26.6954 16.9726 26.3061 16.9726C26.1504 16.9726 25.9947 17.0494 25.6833 17.203C25.2161 17.4335 24.8269 17.5103 24.4376 17.5103C22.8026 17.4335 21.9462 16.3582 21.7905 14.2845C21.9462 12.2107 22.8026 11.1355 24.4376 11.0587C24.8269 11.0587 25.2161 11.1355 25.6833 11.2891C25.9168 11.4427 26.1504 11.5195 26.3839 11.5195C26.7732 11.4427 26.9289 11.2891 27.0068 10.905C26.8511 10.2138 26.0725 9.82977 24.5154 9.82977C21.8684 9.82977 20.467 11.3659 20.3113 14.2077ZM35.8822 14.8221C36.5051 14.8989 36.7386 14.5917 36.6608 14.054C36.4272 11.3659 35.1037 9.90658 32.768 9.75297C30.2767 9.90658 28.8753 11.4427 28.6417 14.2845C28.7974 17.203 30.1988 18.6623 32.8459 18.6623C34.8701 18.5087 36.1158 17.9711 36.5829 16.9726C36.5829 16.5118 36.3493 16.3582 35.9601 16.3582C35.8044 16.3582 35.6487 16.435 35.3372 16.6654C34.5587 17.203 33.7801 17.5103 32.8459 17.5103C31.1331 17.4335 30.2767 16.5118 30.121 14.8989H35.8822V14.8221ZM30.121 13.7468C30.2767 11.9035 31.1331 11.0587 32.768 11.0587C34.2473 11.1355 35.0258 12.0571 35.1815 13.7468H30.121ZM46.5483 10.4442C46.5483 9.98338 46.3147 9.75297 45.8476 9.75297C45.3805 9.82977 45.0691 10.0602 45.0691 10.4442V10.905C44.2905 10.137 43.4341 9.75297 42.5777 9.75297C40.0864 9.90658 38.685 11.4427 38.5293 14.2845C38.685 17.1262 40.0864 18.5855 42.5777 18.6623C43.5898 18.7391 44.3684 18.2783 45.0691 17.4335V18.0479C45.0691 18.4319 45.3026 18.6623 45.8476 18.6623C46.2369 18.6623 46.4705 18.4319 46.5483 18.0479V10.4442ZM40.0864 14.2077C40.1642 12.1339 41.0206 11.0587 42.6556 10.9818C44.2127 11.0587 45.0691 12.1339 45.1469 14.2077C45.0691 16.2814 44.2127 17.3567 42.6556 17.4335C41.0206 17.3567 40.1642 16.2814 40.0864 14.2077ZM49.4289 17.9711C49.4289 18.4319 49.6625 18.5855 50.1296 18.5855C50.5968 18.5855 50.9082 18.3551 50.9082 17.9711V13.1324C50.986 11.8267 51.6867 11.0587 53.0881 10.9818C54.4116 11.0587 55.1123 11.7499 55.1902 13.1324V17.9711C55.1902 18.4319 55.4237 18.5855 55.9687 18.5855C56.4359 18.5855 56.7473 18.3551 56.7473 17.9711V13.0556C56.6694 10.9818 55.5794 9.90658 53.5552 9.67616C52.4653 9.67616 51.6089 10.0602 50.986 10.8282H50.9082V10.4442C50.9082 9.90658 50.6746 9.67616 50.1296 9.67616C49.6625 9.67616 49.4289 9.90658 49.4289 10.4442V17.9711ZM94.2732 17.9711C94.2732 18.4319 94.5068 18.5855 95.0518 18.5855C95.5189 18.5855 95.8303 18.3551 95.8303 17.9711V12.9788C95.9082 11.6731 96.531 11.0587 97.7767 10.9818C99.0224 11.0587 99.7231 11.6731 99.7231 12.9788V17.9711C99.7231 18.4319 99.9566 18.5855 100.502 18.5855C101.047 18.5855 101.28 18.3551 101.28 17.9711V13.0556C101.202 10.9818 100.112 9.90658 98.0103 9.67616C96.9203 9.67616 95.986 10.137 95.2075 11.1355C94.5068 10.137 93.6504 9.67616 92.6383 9.67616C91.6262 9.67616 90.8476 10.0602 90.3805 10.7514L90.3026 10.6746V10.4442C90.3026 9.90658 90.0691 9.67616 89.5241 9.67616C89.057 9.67616 88.8234 9.90658 88.8234 10.4442V17.8943C88.8234 18.3551 89.057 18.5087 89.5241 18.5087C89.9912 18.5087 90.3026 18.2783 90.3026 17.8943V12.9788C90.3805 11.6731 91.0033 11.0587 92.249 10.9818C93.4947 11.0587 94.1954 11.6731 94.1954 12.9788V17.9711H94.2732ZM110.778 14.8221C111.323 14.8989 111.635 14.5917 111.557 14.054C111.323 11.3659 110 9.90658 107.664 9.75297C105.173 9.90658 103.772 11.4427 103.538 14.2845C103.694 17.203 105.095 18.6623 107.742 18.6623C109.766 18.5087 111.012 17.9711 111.479 16.9726C111.479 16.5118 111.246 16.3582 110.856 16.3582C110.701 16.3582 110.545 16.435 110.233 16.6654C109.455 17.203 108.676 17.5103 107.742 17.5103C106.029 17.4335 105.173 16.5118 105.017 14.8989H110.778V14.8221ZM105.095 13.7468C105.251 11.9035 106.107 11.0587 107.742 11.0587C109.221 11.1355 110 12.0571 110.156 13.7468H105.095ZM113.97 17.9711C113.97 18.4319 114.204 18.5855 114.671 18.5855C115.138 18.5855 115.45 18.3551 115.45 17.9711V13.1324C115.528 11.8267 116.228 11.0587 117.63 10.9818C118.953 11.0587 119.654 11.7499 119.732 13.1324V17.9711C119.732 18.4319 119.965 18.5855 120.51 18.5855C120.977 18.5855 121.289 18.3551 121.289 17.9711V13.0556C121.211 10.9818 120.121 9.90658 118.097 9.67616C117.007 9.67616 116.15 10.0602 115.528 10.8282H115.45V10.4442C115.45 9.90658 115.216 9.67616 114.671 9.67616C114.204 9.67616 113.97 9.90658 113.97 10.4442V17.9711ZM124.559 9.82977H123.936C123.469 9.82977 123.157 10.0602 123.157 10.4442C123.157 10.8282 123.391 11.0587 123.936 11.0587H124.559V17.9711C124.559 18.4319 124.792 18.5855 125.259 18.5855C125.804 18.5855 126.038 18.3551 126.038 17.9711V11.0587H126.661C127.128 11.0587 127.361 10.8282 127.361 10.4442C127.361 9.98338 127.128 9.82977 126.661 9.82977H126.038V7.90965C125.96 7.44882 125.727 7.21841 125.259 7.1416C124.792 7.1416 124.559 7.37202 124.559 7.90965V9.82977Z" fill="#9E9E9F"/>
<path d="M60.9512 14.2078C61.0291 12.134 61.8855 11.0588 63.4426 10.982C65.0775 11.0588 65.9339 12.134 66.0118 14.2078C65.9339 16.2815 65.0775 17.3568 63.4426 17.4336C61.8855 17.3568 61.0291 16.2815 60.9512 14.2078ZM59.6277 21.2738C59.6277 21.8114 59.8612 22.0419 60.4062 22.0419C60.8734 22.0419 61.1848 21.8114 61.1848 21.2738V17.5104H61.2626C61.8076 18.2016 62.664 18.5856 63.6761 18.5856C66.0896 18.432 67.4132 16.9727 67.5689 14.2078C67.4132 11.366 66.0896 9.82988 63.6761 9.67627C62.4305 9.67627 61.6519 10.0603 61.2626 10.9051H61.1848V10.4443C61.1848 9.90668 60.9512 9.67627 60.4062 9.67627C59.9391 9.67627 59.6277 9.90668 59.6277 10.4443V21.2738ZM77.5343 10.4443C77.5343 9.98349 77.3007 9.75307 76.8336 9.75307C76.3664 9.82988 76.055 10.0603 76.055 10.4443V10.9051C75.2765 10.1371 74.4201 9.75307 73.5637 9.75307C71.0723 9.90668 69.6709 11.4428 69.5152 14.2846C69.6709 17.1263 71.0723 18.5856 73.5637 18.6624C74.5758 18.7392 75.3543 18.2784 76.055 17.4336V18.048C76.055 18.432 76.2886 18.6624 76.8336 18.6624C77.2228 18.6624 77.4564 18.432 77.5343 18.048V10.4443ZM71.0723 14.2078C71.1502 12.134 72.0066 11.0588 73.6415 10.982C75.1986 11.0588 76.055 12.134 76.1329 14.2078C76.055 16.2815 75.1986 17.3568 73.6415 17.4336C72.0066 17.3568 71.1502 16.2815 71.0723 14.2078ZM82.517 18.2784L81.5049 20.5826C81.427 20.7362 81.427 20.813 81.3491 20.9666C81.2713 21.197 81.2713 21.3506 81.2713 21.4274C81.3491 21.7346 81.5049 21.965 81.972 22.0419C82.3613 22.0419 82.5948 21.8882 82.6727 21.5042L86.4875 11.1356C86.6433 10.8283 86.7211 10.5979 86.7211 10.3675C86.6433 9.98349 86.4875 9.75307 86.0204 9.75307C85.6311 9.75307 85.3976 9.98349 85.3197 10.3675L83.2955 16.3583H83.2177L81.1156 10.3675C80.9599 9.98349 80.7263 9.75307 80.4149 9.75307C79.9478 9.82988 79.7142 9.98349 79.6363 10.3675C79.6363 10.4443 79.7142 10.5979 79.792 10.982C79.792 10.9051 79.792 10.982 79.8699 11.2124L82.517 18.2784Z" fill="#02983B"/>
</svg>
