<svg width="200" height="109" viewBox="0 0 200 109" fill="none" xmlns="http://www.w3.org/2000/svg">
<path d="M200 0H0V109H200V0Z" fill="white"/>
<path d="M32.3711 68.2303L32.5024 68.6007C32.4855 68.5583 32.4375 68.4287 32.3711 68.2303ZM37.5655 59.835C37.796 57.8443 38.5788 56.7298 40.0539 55.5873C42.1645 54.0399 44.8009 54.9152 44.8009 54.9152V49.7226C45.4419 49.7055 46.0831 49.7452 46.7171 49.841V56.5234C46.7171 56.5234 44.0814 55.6481 41.9708 57.1963C40.4965 58.338 39.7122 59.4533 39.4824 61.4439C39.4752 62.5249 39.6697 63.9378 40.5654 65.1595C40.3439 65.0411 40.1182 64.9062 39.8882 64.7547C37.9153 63.3729 37.5559 61.2999 37.5655 59.835ZM57.603 40.1216C56.1511 38.4622 55.602 36.7868 55.4035 35.6099H57.23C57.23 35.6099 56.8658 38.6958 59.5199 41.7305L59.5567 41.7713C58.8414 41.3021 58.1854 40.7481 57.603 40.1216V40.1216ZM66.4015 44.8261V51.374C66.4015 51.374 64.0708 51.2788 62.346 50.8212C59.9377 50.1811 58.3898 49.1994 58.3898 49.1994C58.3898 49.1994 57.3204 48.4993 57.234 48.4505V61.972C57.234 62.7249 57.0363 64.6051 56.4336 66.1733C55.6469 68.2247 54.4327 69.5712 54.2094 69.8465C54.2094 69.8465 52.7327 71.6667 50.1275 72.8924C47.7792 73.9981 45.7174 73.9701 45.1011 73.9981C45.1011 73.9981 41.537 74.1453 38.3299 71.9715C37.6364 71.4924 36.989 70.9497 36.3962 70.3505L36.4122 70.3625C39.6201 72.5364 43.1834 72.3891 43.1834 72.3891C43.8005 72.3611 45.8623 72.3891 48.2098 71.2834C50.8126 70.0577 52.2917 68.2375 52.2917 68.2375C52.5126 67.9623 53.7324 66.6157 54.5159 64.5635C55.117 62.9961 55.3163 61.1151 55.3163 60.3622V46.8423C55.4027 46.8919 56.4712 47.592 56.4712 47.592C56.4712 47.592 58.02 48.5745 60.4283 49.2138C62.1539 49.6714 64.4838 49.7666 64.4838 49.7666V44.6357C65.281 44.8221 65.9605 44.8725 66.4015 44.8261V44.8261Z" fill="#EE1D52"/>
<path d="M64.4841 44.6357V49.765C64.4841 49.765 62.1543 49.6698 60.4286 49.2122C58.0203 48.5721 56.4716 47.5904 56.4716 47.5904C56.4716 47.5904 55.4031 46.8903 55.3166 46.8407V60.3638C55.3166 61.1167 55.1189 62.9977 54.5163 64.5651C53.7295 66.6173 52.5153 67.9639 52.292 68.2391C52.292 68.2391 50.8145 70.0593 48.2101 71.285C45.8626 72.3907 43.8008 72.3627 43.1837 72.3907C43.1837 72.3907 39.6204 72.538 36.4125 70.3641L36.3965 70.3521C36.0578 70.0101 35.739 69.6489 35.4417 69.2704C34.418 67.9687 33.7905 66.4293 33.6328 65.99C33.6325 65.9882 33.6325 65.9863 33.6328 65.9844C33.3791 65.2211 32.846 63.3881 32.9189 61.6127C33.0477 58.4804 34.1042 56.5578 34.3836 56.0761C35.1234 54.7627 36.0855 53.5875 37.2273 52.6029C38.2349 51.7534 39.3769 51.0774 40.6065 50.6027C41.9358 50.0454 43.3592 49.7467 44.8005 49.7226V54.9152C44.8005 54.9152 42.164 54.0431 40.0542 55.5873C38.5791 56.7298 37.7964 57.8443 37.5659 59.835C37.5563 61.2999 37.9156 63.3729 39.887 64.7555C40.1169 64.9075 40.3426 65.0425 40.5641 65.1603C40.9085 65.6273 41.3276 66.0341 41.8047 66.3645C43.7304 67.6358 45.3439 67.7246 47.4073 66.8989C48.7832 66.3469 49.8188 65.1027 50.2991 63.7242C50.6008 62.8633 50.5968 61.9968 50.5968 61.1007V35.6099H55.3991C55.5976 36.7868 56.1466 38.4622 57.5985 40.1216C58.1809 40.7481 58.8369 41.3021 59.5522 41.7713C59.7635 41.9994 60.844 43.1267 62.2311 43.8188C62.9483 44.1765 63.7043 44.4506 64.4841 44.6357Z" fill="black"/>
<path d="M31.7217 64.395V64.399L31.8401 64.7359C31.8265 64.6967 31.7825 64.5775 31.7217 64.395Z" fill="#69C9D0"/>
<path d="M40.6068 50.6025C39.3771 51.0772 38.2351 51.7532 37.2276 52.6028C36.0854 53.5896 35.1235 54.7672 34.3846 56.0831C34.1053 56.5632 33.0488 58.4874 32.9199 61.6198C32.8471 63.3952 33.3802 65.2282 33.6339 65.9915C33.6336 65.9933 33.6336 65.9952 33.6339 65.9971C33.794 66.4323 34.4191 67.9717 35.4427 69.2774C35.7401 69.6559 36.0589 70.0171 36.3976 70.3591C35.3124 69.6089 34.3446 68.7019 33.5258 67.6676C32.5109 66.3771 31.8851 64.8537 31.7218 64.4041C31.7216 64.4009 31.7216 64.3977 31.7218 64.3945V64.3889C31.4673 63.6264 30.9326 61.7926 31.007 60.0148C31.1359 56.8824 32.1924 54.9598 32.4717 54.4782C33.2104 53.1621 34.1724 51.9844 35.3147 50.9978C36.322 50.1479 37.4641 49.4719 38.6939 48.9976C39.461 48.6794 40.2601 48.4447 41.0774 48.2975C42.3091 48.0825 43.5672 48.0639 44.8048 48.2423V49.7224C43.3621 49.746 41.9373 50.0448 40.6068 50.6025V50.6025Z" fill="#69C9D0"/>
<path d="M55.4031 35.6098H50.6009V61.1014C50.6009 61.9975 50.6009 62.8616 50.3031 63.7249C49.8181 65.1027 48.7864 66.3468 47.4114 66.8988C45.3472 67.7277 43.7336 67.6357 41.8087 66.3644C41.3309 66.0355 40.9106 65.63 40.5649 65.1643C42.2049 66.0388 43.6728 66.0236 45.4913 65.2939C46.8655 64.7418 47.8988 63.4977 48.3822 62.1191C48.6848 61.2582 48.6808 60.3917 48.6808 59.4964V34H55.3119C55.3119 34 55.2374 34.6337 55.4031 35.6098ZM64.4842 43.217V44.6356C63.7057 44.4502 62.9511 44.1761 62.2351 43.8187C60.8481 43.1266 59.7676 41.9993 59.5563 41.7713C59.8015 41.9322 60.0559 42.0786 60.3182 42.2097C62.0046 43.0514 63.6654 43.3026 64.4842 43.217V43.217Z" fill="#69C9D0"/>
<path d="M139.425 57.0203C139.424 57.4193 139.483 57.8162 139.6 58.1978C139.606 58.2247 139.614 58.251 139.624 58.2765C139.904 59.179 140.465 59.9683 141.226 60.5287C141.987 61.0891 142.908 61.3912 143.853 61.3908V65.868C141.672 65.868 140.111 65.945 137.727 64.5401C135.025 62.9374 133.502 60.0068 133.502 56.9643C133.502 53.8255 135.207 50.6815 138.096 49.1663C140.197 48.0675 141.788 48.0605 143.858 48.0605V52.536C142.683 52.536 141.557 53.0026 140.726 53.833C139.895 54.6635 139.428 55.7898 139.428 56.9643L139.425 57.0203Z" fill="#69C9D0"/>
<path d="M148.316 57.0203C148.316 57.4193 148.257 57.8161 148.141 58.1978C148.141 58.224 148.125 58.2502 148.116 58.2765C147.836 59.1787 147.275 59.9677 146.514 60.528C145.753 61.0883 144.833 61.3907 143.888 61.3908V65.868C146.067 65.868 147.63 65.945 150.005 64.5401C152.716 62.9374 154.242 60.0068 154.242 56.9643C154.242 53.8255 152.537 50.6815 149.648 49.1663C147.547 48.0675 145.956 48.0605 143.888 48.0605V52.536C145.062 52.5365 146.189 53.0032 147.019 53.8337C147.849 54.6641 148.316 55.7901 148.316 56.9643V57.0203Z" fill="#EE1D52"/>
<path d="M75.3081 44H91.7096L90.1939 48.5105H85.8953V65.7738H80.6218V48.5105H75.3081V44ZM118.775 44V48.5105H124.089V65.7738H129.37V48.5105H133.661L135.177 44H118.775ZM95.2783 49.1403C95.7837 49.14 96.2777 48.9898 96.6977 48.7089C97.1178 48.4279 97.445 48.0287 97.6381 47.5618C97.8312 47.0949 97.8814 46.5813 97.7825 46.0858C97.6836 45.5904 97.4399 45.1354 97.0823 44.7784C96.7246 44.4214 96.2692 44.1785 95.7734 44.0802C95.2776 43.982 94.7639 44.033 94.2971 44.2266C93.8303 44.4203 93.4314 44.7479 93.1509 45.1682C92.8704 45.5885 92.7209 46.0824 92.7212 46.5877C92.7212 46.9232 92.7874 47.2554 92.916 47.5653C93.0445 47.8753 93.2329 48.1568 93.4704 48.3939C93.7079 48.631 93.9898 48.8189 94.3001 48.947C94.6103 49.0751 94.9427 49.1408 95.2783 49.1403ZM92.7212 65.7738H97.8985V50.9459H92.7212V65.7738ZM116.525 49.0109H110.469L105.249 54.2282V44.0175H100.106L100.09 65.7738H105.283V60.1051L106.898 58.6336L111.939 65.7668H117.491L110.189 55.3357L116.525 49.0109ZM166.191 55.3391L172.522 49.0109H166.468L161.247 54.2282V44.0175H156.104L156.08 65.7738H161.275V60.1051L162.906 58.6336L167.947 65.7668H173.5L166.191 55.3391ZM152.879 56.961C152.879 61.8774 148.837 65.8647 143.853 65.8647C138.868 65.8647 134.827 61.8774 134.827 56.961C134.827 52.0447 138.868 48.0573 143.853 48.0573C148.837 48.0573 152.879 52.0464 152.879 56.9645V56.961ZM148.281 56.961C148.281 56.0856 148.021 55.2297 147.535 54.5018C147.048 53.7739 146.356 53.2065 145.547 52.8715C144.738 52.5365 143.848 52.4488 142.989 52.6196C142.13 52.7904 141.341 53.212 140.722 53.831C140.102 54.4501 139.681 55.2388 139.51 56.0975C139.339 56.9561 139.427 57.8461 139.762 58.655C140.097 59.4638 140.664 60.1551 141.393 60.6415C142.121 61.1279 142.977 61.3875 143.853 61.3875C145.027 61.3875 146.152 60.9216 146.983 60.0923C147.813 59.2629 148.28 58.1379 148.281 56.9645V56.961Z" fill="black"/>
</svg>