<svg width="260" height="162" viewBox="0 0 260 162" fill="none" xmlns="http://www.w3.org/2000/svg">
<path d="M185.98 35.761C194.498 33.4787 199.55 24.7149 197.265 16.1866C194.98 7.65832 186.223 2.59495 177.705 4.87727C169.187 7.15958 164.135 15.9233 166.42 24.4516C168.705 32.9799 177.462 38.0433 185.98 35.761Z" fill="#FF793A"/>
<path fill-rule="evenodd" clip-rule="evenodd" d="M8.30289 90.933L139.675 126.535L133.607 146.512L2.23421 110.911L8.30289 90.933Z" fill="#FF793A"/>
<path d="M171.383 116.454C182.454 108.701 185.156 93.4578 177.418 82.4064C169.68 71.3551 154.432 68.6808 143.36 76.4332C132.288 84.1856 129.586 99.4291 137.324 110.48C145.063 121.532 160.311 124.206 171.383 116.454Z" fill="#004ED1"/>
<path fill-rule="evenodd" clip-rule="evenodd" d="M214.233 105.615L205.913 32.1408L226.676 30.8308L234.997 104.305L214.233 105.615Z" fill="#C9E6FF"/>
</svg>
