<svg width="240" height="45" viewBox="0 0 240 45" fill="none" xmlns="http://www.w3.org/2000/svg">
<path fill-rule="evenodd" clip-rule="evenodd" d="M22.4666 3.45459C32.9443 3.45459 41.4382 11.9912 41.4382 22.5216C41.4382 33.0521 32.9443 41.5887 22.4666 41.5887C11.9889 41.5887 3.49501 33.0521 3.49501 22.5216C3.49501 20.8865 3.69982 19.2993 4.08506 17.7848L20.9497 27.9402C21.173 28.1 21.4095 28.2425 21.6571 28.3658L21.6732 28.3746C22.365 28.7151 23.142 28.9065 23.9634 28.9065C26.8376 28.9065 29.1676 26.5634 29.1676 23.6731C29.1676 20.7828 26.8376 18.4398 23.9634 18.4398L23.7434 18.4444C20.9713 18.5603 18.7592 20.8569 18.7592 23.6731L18.76 23.7275L4.87596 15.3668C7.69151 8.3816 14.5066 3.45459 22.4666 3.45459Z" fill="#FF793A"/>
<path fill-rule="evenodd" clip-rule="evenodd" d="M1.06085 15.9633L20.9497 27.9404C21.1731 28.1002 21.4095 28.2427 21.6571 28.366L21.6732 28.3749C21.7494 28.4116 21.8256 28.4469 21.9028 28.4804L38.4786 38.2653C34.4147 42.4219 28.7563 45 22.4985 45C10.1287 45 0.101013 34.9264 0.101013 22.5C0.101013 20.2266 0.436646 18.0319 1.06085 15.9633ZM22.4985 0C28.6066 0 34.1437 2.45629 38.1843 6.43925L21.3466 19.1417C19.7992 20.0557 18.7592 21.7424 18.7592 23.6734L18.76 23.7277L1.9252 13.5913C5.36048 5.59601 13.2789 0 22.4985 0Z" fill="white"/>
<path fill-rule="evenodd" clip-rule="evenodd" d="M1.9252 13.5913L18.76 23.7277L18.7592 23.6726C18.7592 20.8568 20.9709 18.5605 23.7427 18.4446L23.9626 18.44C26.8364 18.44 30.1371 20.7835 30.1371 23.6733C30.1371 26.5632 26.8364 28.9051 23.9626 28.9051C23.1417 28.9051 22.3651 28.7139 21.6746 28.3734L21.6732 28.3748L21.6423 28.3574C21.4033 28.2374 21.1748 28.0995 20.9584 27.9454L1.06055 15.9643C1.30532 15.153 1.59449 14.361 1.9252 13.5913Z" fill="#FF793A"/>
<path d="M23.9809 26.3998C25.4881 26.3998 26.71 25.1718 26.71 23.6569C26.71 22.1421 25.4881 20.9141 23.9809 20.9141C22.4736 20.9141 21.2517 22.1421 21.2517 23.6569C21.2517 25.1718 22.4736 26.3998 23.9809 26.3998Z" fill="white"/>
<path d="M73.6363 33.3321V16.8973H76.6475C79.1787 16.8973 80.4443 18.6567 80.4443 22.1756V33.3321H86.5476V20.1283C86.3739 17.4204 85.6502 15.3472 84.3766 13.9086C83.103 12.4701 81.2488 11.7297 78.8141 11.6876H73.6363V4.70947H67.1338V33.3321H73.6363Z" fill="white"/>
<path d="M54.6436 33.5507C57.8256 33.5507 60.2865 33.0241 62.0262 31.9708C63.766 30.9174 64.6358 29.3638 64.6358 27.3098C64.6358 26.4408 64.5243 25.6772 64.3013 25.0188C64.0782 24.3605 63.6916 23.7614 63.1414 23.2216C62.5913 22.6818 61.8404 22.1814 60.8887 21.7206C59.9371 21.2598 58.7327 20.7924 57.2755 20.3184C56.5617 20.0814 55.9744 19.8641 55.5134 19.6666C55.0525 19.4691 54.6882 19.2848 54.4205 19.1136C54.1529 18.9425 53.9745 18.7647 53.8853 18.5804C53.796 18.3961 53.7514 18.1854 53.7514 17.9484C53.7514 16.9214 54.7923 16.4079 56.874 16.4079C57.6274 16.4079 58.6459 16.4079 59.9297 16.4079H63.6098V11.668H60.4873C58.7029 11.668 57.3349 11.668 56.3833 11.668C53.5284 11.668 51.2831 12.2341 49.6475 13.3665C48.0118 14.4988 47.194 16.0393 47.194 17.9879C47.194 18.9886 47.3576 19.8444 47.6847 20.5554C48.0118 21.2664 48.4728 21.8786 49.0676 22.3921C49.6623 22.9056 50.3835 23.3467 51.2311 23.7153C52.0786 24.084 53.0228 24.4395 54.0637 24.7818C55.4019 25.2295 56.3982 25.6311 57.0524 25.9866C57.7067 26.3421 58.0338 26.7568 58.0338 27.2308C58.0338 27.8365 57.781 28.2446 57.2755 28.4553C56.7699 28.666 55.9075 28.7713 54.6882 28.7713C53.915 28.7713 52.7403 28.7713 51.1642 28.7713H47.6847V33.5507H49.4467C51.5235 33.5507 53.2558 33.5507 54.6436 33.5507Z" fill="white"/>
<path d="M171.696 33.5507C174.878 33.5507 177.339 33.0241 179.079 31.9708C180.819 30.9174 181.689 29.3638 181.689 27.3098C181.689 26.4408 181.577 25.6772 181.354 25.0188C181.131 24.3605 180.744 23.7614 180.194 23.2216C179.644 22.6818 178.893 22.1814 177.941 21.7206C176.99 21.2598 175.785 20.7924 174.328 20.3184C173.614 20.0814 173.027 19.8641 172.566 19.6666C172.105 19.4691 171.741 19.2848 171.473 19.1136C171.206 18.9425 171.027 18.7647 170.938 18.5804C170.849 18.3961 170.804 18.1854 170.804 17.9484C170.804 16.9214 171.845 16.4079 173.927 16.4079C174.68 16.4079 175.699 16.4079 176.982 16.4079H180.663V11.668H177.54C175.756 11.668 174.388 11.668 173.436 11.668C170.581 11.668 168.336 12.2341 166.7 13.3665C165.065 14.4988 164.247 16.0393 164.247 17.9879C164.247 18.9886 164.41 19.8444 164.737 20.5554C165.065 21.2664 165.526 21.8786 166.12 22.3921C166.715 22.9056 167.436 23.3467 168.284 23.7153C169.131 24.084 170.076 24.4395 171.116 24.7818C172.455 25.2295 173.451 25.6311 174.105 25.9866C174.759 26.3421 175.087 26.7568 175.087 27.2308C175.087 27.8365 174.834 28.2446 174.328 28.4553C173.823 28.666 172.96 28.7713 171.741 28.7713C170.968 28.7713 169.793 28.7713 168.217 28.7713H164.737V33.5507H166.499C168.576 33.5507 170.309 33.5507 171.696 33.5507Z" fill="white"/>
<path d="M208.416 33.5512C208.416 28.2874 208.416 24.0595 208.416 20.8674C208.416 17.9912 208.662 17.1689 210.848 17.1246C212.86 17.0838 215.431 17.0798 215.871 17.1773V12.0841C215.689 12.0169 212.877 12.0014 207.434 12.0375C206.863 12.0413 204.498 11.8896 202.925 14.0113C202.309 14.8417 201.935 16.0497 201.804 17.6354V33.5512H208.416Z" fill="white"/>
<path fill-rule="evenodd" clip-rule="evenodd" d="M100.834 11.668C106.933 11.668 111.878 16.5666 111.878 22.6094C111.878 28.6521 106.933 33.5507 100.834 33.5507C94.7349 33.5507 89.7905 28.6521 89.7905 22.6094C89.7905 16.5666 94.7349 11.668 100.834 11.668ZM100.894 17.3457C97.9266 17.3457 95.5212 19.7288 95.5212 22.6685C95.5212 25.6082 97.9266 27.9913 100.894 27.9913C103.861 27.9913 106.266 25.6082 106.266 22.6685C106.266 19.7288 103.861 17.3457 100.894 17.3457Z" fill="white"/>
<path d="M125.62 11.0991C131.705 11.0991 136.638 16.1018 136.638 22.273C136.638 28.4441 131.705 33.4469 125.62 33.4469C123.678 33.4469 121.853 32.9371 120.268 32.0423L120.268 40.2907H114.551V22.2918L114.602 22.292C114.602 22.2857 114.602 22.2793 114.602 22.273C114.602 16.1018 119.535 11.0991 125.62 11.0991ZM125.68 16.8975C122.72 16.8975 120.32 19.3312 120.32 22.3334C120.32 25.3356 122.72 27.7693 125.68 27.7693C128.64 27.7693 131.04 25.3356 131.04 22.3334C131.04 19.3312 128.64 16.8975 125.68 16.8975Z" fill="white"/>
<path fill-rule="evenodd" clip-rule="evenodd" d="M228.185 11.668C234.285 11.668 239.229 16.5666 239.229 22.6094C239.229 28.6521 234.285 33.5507 228.185 33.5507C222.086 33.5507 217.142 28.6521 217.142 22.6094C217.142 16.5666 222.086 11.668 228.185 11.668ZM228.245 17.3457C225.278 17.3457 222.873 19.7288 222.873 22.6685C222.873 25.6082 225.278 27.9913 228.245 27.9913C231.212 27.9913 233.618 25.6082 233.618 22.6685C233.618 19.7288 231.212 17.3457 228.245 17.3457Z" fill="white"/>
<path d="M193.967 33.9013C194.916 33.9013 196.117 33.9013 197.57 33.9013H199.306V28.9062H197.237C196.243 28.9062 195.509 28.9062 195.034 28.9062C193.551 28.9062 192.565 28.5361 192.076 27.7961C191.586 27.0561 191.342 26.065 191.342 24.8228V17.4886H199.306V12.5728H191.342V7.37939H184.712V24.9021C184.712 26.25 184.853 27.479 185.135 28.589C185.417 29.699 185.914 30.6439 186.626 31.4236C187.337 32.2032 188.287 32.8111 189.473 33.2472C190.659 33.6833 192.157 33.9013 193.967 33.9013Z" fill="white"/>
<path d="M150.355 11.668C156.199 11.668 160.982 16.1652 161.373 21.8571L161.398 21.8576V33.5507H156.34L156.34 31.8061C154.615 32.91 152.561 33.5507 150.355 33.5507C144.256 33.5507 139.311 28.6521 139.311 22.6094C139.311 16.5666 144.256 11.668 150.355 11.668ZM150.416 17.3475C147.449 17.3475 145.044 19.7306 145.044 22.6703C145.044 25.61 147.449 27.9931 150.416 27.9931C153.383 27.9931 155.789 25.61 155.789 22.6703C155.789 19.7306 153.383 17.3475 150.416 17.3475Z" fill="white"/>
<path d="M150.442 25.7171C152.064 25.7171 153.379 24.4043 153.379 22.7848C153.379 21.1654 152.064 19.8525 150.442 19.8525C148.821 19.8525 147.506 21.1654 147.506 22.7848C147.506 24.4043 148.821 25.7171 150.442 25.7171Z" fill="#FF793A"/>
</svg>
