<svg width="631" height="528" viewBox="0 0 631 528" fill="none" xmlns="http://www.w3.org/2000/svg">
<path d="M300.7 73.7636C307.666 68.5141 309.053 58.6042 303.797 51.6292C298.541 44.6542 288.632 43.2555 281.666 48.505C274.7 53.7544 273.313 63.6643 278.569 70.6393C283.825 77.6143 293.733 79.0131 300.7 73.7636Z" fill="#FF793A"/>
<path fill-rule="evenodd" clip-rule="evenodd" d="M159 190.204L291.184 174L293 194.796L160.816 211L159 190.204Z" fill="#FF793A"/>
<path d="M317.213 153.181C324.494 141.968 321.324 126.986 310.132 119.718C298.94 112.449 283.964 115.647 276.682 126.86C269.4 138.072 272.57 153.054 283.763 160.323C294.955 167.591 309.931 164.393 317.213 153.181Z" fill="#004ED1"/>
<path fill-rule="evenodd" clip-rule="evenodd" d="M353.586 128L319 62.9929L337.414 54L372 119.007L353.586 128Z" fill="#C9E6FF"/>
<g filter="url(#filter0_i_2_115)">
<path d="M575.182 20H385.766C368.22 20.024 354 33.056 354 49.136V470.84C354 486.92 368.22 499.976 385.766 500H575.182C592.754 500 607 486.944 607 470.84V49.136C606.974 33.056 592.754 20 575.182 20ZM596.974 469.106C596.974 481.205 586.278 491 573.066 491H387.908C374.696 491 364 481.205 364 469.106V49.8944C364 37.7949 374.696 28 387.908 28H411.292C413.861 28 415.932 29.8966 415.958 32.2492V34.0978C415.958 40.3396 421.464 45.3811 428.279 45.3811H532.721C539.536 45.3811 545.042 40.3396 545.042 34.0978V32.2973C545.042 29.9446 547.139 28.048 549.708 28.048H573.092C586.304 28.048 597 37.8429 597 49.9424L596.974 469.106Z" fill="#DBE3F5"/>
</g>
<path d="M388.042 28.2712H572.958C586.153 28.2712 596.835 38.0487 596.835 50.1267V468.568C596.835 480.646 586.153 490.424 572.958 490.424H388.042C374.847 490.424 364.165 480.646 364.165 468.568V50.1267C364.139 38.0727 374.847 28.2712 388.042 28.2712Z" fill="white"/>
<path d="M546.176 422H415.61C405.332 422 397 430.332 397 440.61C397 450.888 405.332 459.22 415.61 459.22H546.176C556.454 459.22 564.786 450.888 564.786 440.61C564.786 430.332 556.454 422 546.176 422Z" fill="#004ED1"/>
<path d="M454.924 435.809V436.913H465.04V435.809H460.636C460.468 435.137 460.288 434.525 460.12 433.997L458.8 434.213C459.004 434.705 459.196 435.233 459.376 435.809H454.924ZM454.516 443.309V444.413H465.448V443.309H461.728C462.412 441.701 462.988 439.853 463.468 437.777L462.256 437.465C461.728 439.793 461.104 441.749 460.408 443.309H454.516ZM457.708 437.465L456.508 437.861C457.06 439.541 457.516 441.281 457.876 443.093L459.1 442.781C458.692 440.777 458.236 439.001 457.708 437.465ZM468.136 437.741H470.656V439.133H468.136V437.741ZM470.656 436.721H468.136V435.401H470.656V436.721ZM466.924 444.713C468.484 444.329 469.888 443.885 471.112 443.369C471.304 443.753 471.484 444.113 471.652 444.473L472.54 443.849C472.144 443.009 471.58 442.013 470.836 440.873L469.972 441.425C470.176 441.761 470.38 442.085 470.584 442.421C469.864 442.709 469.048 442.985 468.136 443.249V440.189H471.712V434.381H467.02V443.033C467.02 443.309 466.852 443.501 466.528 443.621L466.924 444.713ZM475.804 443.405C476.644 443.405 477.076 442.973 477.076 442.109V434.393H472.96V445.013H474.1V435.461H475.936V441.857C475.936 442.169 475.768 442.337 475.432 442.337L474.544 442.301L474.844 443.405H475.804ZM479.248 434.609V435.713H481.36V438.329C481.36 438.401 481.348 438.497 481.348 438.593H478.624V439.697H481.264C481.168 440.549 481.012 441.293 480.784 441.917C480.436 442.781 479.776 443.501 478.816 444.065L479.428 445.025C480.496 444.485 481.264 443.705 481.72 442.697C482.08 441.893 482.308 440.897 482.428 439.697H485.644V444.893H486.784V439.697H489.316V438.593H486.784V435.713H488.704V434.609H479.248ZM482.512 435.713H485.644V438.593H482.5C482.5 438.509 482.512 438.425 482.512 438.329V435.713ZM500.524 440.309H493.372V445.097H494.488V444.533H499.42V445.097H500.524V440.309ZM494.488 443.465V441.389H499.42V443.465H494.488ZM499.54 436.253V437.849H492.832V436.253H499.54ZM492.832 438.893H500.668V435.185H496.804C496.648 434.693 496.492 434.249 496.324 433.841L495.136 434.033C495.328 434.381 495.496 434.765 495.64 435.185H491.704V439.409C491.692 441.401 491.236 443.021 490.348 444.293L491.248 445.085C492.292 443.501 492.82 441.605 492.832 439.409V438.893Z" fill="white"/>
<path d="M410.048 329.828C409.768 329.534 408.732 328.498 408.172 327.994C408.844 327.084 409.432 326.09 409.838 325.054L409.138 324.564L408.914 324.62H407.472L408.48 324.004C408.242 323.5 407.682 322.758 407.164 322.212L406.156 322.786C406.632 323.318 407.164 324.102 407.416 324.62H404.77V325.796H408.228C407.332 327.42 405.848 328.946 404.378 329.8C404.546 330.052 404.826 330.738 404.924 331.088C405.512 330.71 406.128 330.22 406.702 329.66V335.092H407.962V329.338C408.438 329.884 408.97 330.514 409.236 330.906L410.048 329.828ZM414.276 333.328V327.77H417.104V326.524H414.276V322.268H412.946V326.524H410.048V327.77H412.946V333.328H409.418V334.602H417.412V333.328H414.276ZM431.02 324.116H425.616L426.022 323.962C425.826 323.472 425.378 322.688 425 322.114L423.768 322.534C424.062 323.024 424.384 323.64 424.594 324.116H418.952V325.376H431.02V324.116ZM426.498 326.384C427.772 327.266 429.312 328.582 430.012 329.45L431.104 328.596C430.348 327.728 428.766 326.468 427.52 325.642L426.498 326.384ZM422.354 325.684C421.542 326.72 420.17 327.77 418.938 328.442C419.232 328.652 419.736 329.142 419.96 329.394C421.178 328.624 422.662 327.364 423.628 326.174L422.354 325.684ZM426.974 328.05C426.526 329.24 425.882 330.22 425.042 331.032C424.188 330.22 423.53 329.24 423.082 328.12L421.906 328.484C422.466 329.8 423.18 330.906 424.062 331.844C422.648 332.852 420.842 333.524 418.714 333.944C418.966 334.238 419.358 334.812 419.498 335.12C421.654 334.588 423.516 333.832 425.028 332.698C426.47 333.832 428.276 334.602 430.544 335.022C430.712 334.658 431.062 334.126 431.342 333.86C429.186 333.51 427.422 332.838 426.022 331.858C426.974 330.934 427.73 329.814 428.29 328.442L426.974 328.05ZM435.164 327.322C436.578 326.384 437.922 325.25 438.986 323.976C440.204 325.32 441.492 326.384 442.892 327.322H435.164ZM443.284 328.47V327.588C443.76 327.882 444.264 328.176 444.782 328.47C444.964 328.092 445.342 327.63 445.664 327.364C443.424 326.272 441.422 324.928 439.728 323.024C439.812 322.898 439.896 322.786 439.98 322.66L438.818 322.114C437.432 324.298 434.898 326.244 432.378 327.336C432.714 327.616 433.078 328.078 433.274 328.4C433.778 328.162 434.296 327.868 434.786 327.574V328.47H438.314V330.416H434.926V331.55H438.314V333.58H433.12V334.742H444.964V333.58H439.686V331.55H443.228V330.416H439.686V328.47H443.284ZM456.948 325.446V326.356H452.454V325.446H456.948ZM459.09 328.204H452.454V327.266H458.222V324.536H452.454V323.696H458.796V322.702H451.18V329.212H459.09V328.204ZM450.564 323.346C450.032 323.024 449.01 322.576 448.24 322.324L447.666 323.15C448.45 323.43 449.472 323.934 449.99 324.256L450.564 323.346ZM447.89 329.73C448.772 328.918 449.738 327.994 450.578 327.126L449.892 326.23C448.926 327.182 447.82 328.162 447.05 328.736L447.89 329.73ZM449.836 325.306C449.304 324.984 448.24 324.536 447.456 324.284L446.868 325.152C447.666 325.446 448.716 325.922 449.234 326.258L449.836 325.306ZM459.174 331.41V330.276H453.644V329.45H452.328V330.276H446.854V331.41H451.11C449.934 332.46 448.17 333.384 446.532 333.86C446.798 334.112 447.19 334.602 447.372 334.924C449.136 334.294 451.04 333.132 452.328 331.774V335.12H453.644V331.83C454.946 333.16 456.836 334.294 458.628 334.896C458.796 334.56 459.202 334.084 459.468 333.818C457.774 333.356 455.996 332.46 454.792 331.41H459.174ZM470.836 328.036H466.58V327.056H470.836V328.036ZM470.836 329.884H466.58V328.904H470.836V329.884ZM470.836 331.76H466.58V330.766H470.836V331.76ZM465.362 326.104V332.712H472.124V326.104H468.876C469.03 325.796 469.17 325.446 469.324 325.082H473.216V324.018H470.766C471.074 323.598 471.396 323.094 471.718 322.618L470.458 322.268C470.234 322.786 469.828 323.5 469.478 324.018H467.056L467.77 323.696C467.602 323.276 467.168 322.632 466.804 322.184L465.712 322.632C466.02 323.038 466.356 323.612 466.538 324.018H464.396V325.082H467.91C467.84 325.418 467.742 325.782 467.658 326.104H465.362ZM463.878 325.054C463.472 324.41 462.59 323.458 461.862 322.786L460.854 323.43C461.582 324.144 462.436 325.138 462.828 325.782L463.878 325.054ZM463.808 327.21H460.756V328.414H462.562V332.502C461.946 332.754 461.246 333.3 460.574 333.958L461.358 335.036C462.044 334.21 462.758 333.44 463.234 333.44C463.556 333.44 464.018 333.832 464.62 334.168C465.614 334.686 466.818 334.854 468.456 334.854C469.786 334.854 472.138 334.77 473.104 334.7C473.132 334.35 473.314 333.762 473.468 333.44C472.124 333.608 470.024 333.706 468.498 333.706C466.986 333.706 465.768 333.608 464.858 333.132C464.396 332.894 464.088 332.656 463.808 332.516V327.21ZM483.968 328.204V329.842H481.21V330.976H483.968V333.132H485.186V330.976H487.342V329.842H485.186V328.204H486.978V327.112H485.186V325.53H483.968V327.112H482.792C483.114 326.44 483.436 325.684 483.73 324.872H487.216V323.71H484.122C484.262 323.29 484.374 322.856 484.472 322.45L483.184 322.198C483.1 322.688 482.974 323.22 482.848 323.71H481.182V324.872H482.512C482.288 325.572 482.078 326.118 481.98 326.356C481.756 326.846 481.56 327.196 481.322 327.266C481.476 327.574 481.672 328.148 481.742 328.4C481.868 328.288 482.302 328.204 482.806 328.204H483.968ZM480.86 325.264C480.664 324.578 480.244 323.514 479.852 322.688L478.774 323.038C479.152 323.864 479.572 324.956 479.74 325.67L480.86 325.264ZM477.262 332.684V330.206H478.648V329.1H477.262V327.364H478.27V326.258H475.428C475.708 325.838 475.946 325.376 476.184 324.872H478.592V323.738H476.632C476.772 323.36 476.898 322.968 476.982 322.59L475.89 322.282C475.61 323.528 475.092 324.746 474.448 325.572C474.658 325.838 474.98 326.482 475.078 326.734C475.162 326.608 475.26 326.496 475.358 326.356V327.364H476.114V329.1H474.77V330.206H476.114V332.726C476.114 333.426 475.708 333.916 475.442 334.112C475.652 334.308 475.96 334.728 476.086 334.98V334.938L476.1 334.98C476.31 334.7 476.66 334.42 478.802 332.88C478.676 332.656 478.508 332.194 478.438 331.9L477.262 332.684ZM480.818 326.916H478.704V328.106H479.642V332.614C479.166 332.866 478.648 333.3 478.172 333.832L478.998 335.036C479.46 334.308 480.006 333.538 480.384 333.538C480.636 333.538 481.042 333.888 481.518 334.196C482.274 334.644 483.128 334.854 484.304 334.854C485.172 334.854 486.544 334.812 487.258 334.756C487.272 334.42 487.44 333.79 487.566 333.44C486.628 333.552 485.2 333.622 484.318 333.622C483.24 333.622 482.386 333.496 481.7 333.076C481.322 332.852 481.07 332.642 480.818 332.516V326.916ZM500.95 323.64H497.828C497.632 323.234 497.366 322.758 497.114 322.38L495.896 322.562C496.092 322.884 496.302 323.276 496.47 323.64H493.376V324.732H500.95V323.64ZM492.494 328.302L491.36 328.652V326.188H492.648V324.984H491.36V322.282H490.17V324.984H488.616V326.188H490.17V329.002C489.512 329.184 488.91 329.366 488.434 329.478L488.728 330.738L490.17 330.276V333.622C490.17 333.804 490.1 333.86 489.932 333.86C489.792 333.86 489.288 333.86 488.77 333.846C488.938 334.182 489.092 334.742 489.134 335.05C489.96 335.064 490.506 335.008 490.87 334.812C491.234 334.602 491.36 334.266 491.36 333.622V329.912C491.794 329.772 492.242 329.632 492.676 329.506L492.494 328.302ZM501.286 326.846H498.794C499.13 326.356 499.48 325.726 499.816 325.152L498.584 324.802C498.374 325.404 497.898 326.272 497.548 326.846H495.406L496.302 326.468C496.134 325.992 495.742 325.292 495.35 324.774L494.356 325.166C494.706 325.684 495.07 326.384 495.21 326.846H492.928V327.952H501.286V326.846ZM498.528 330.444C498.276 331.214 497.898 331.816 497.38 332.32C496.694 332.04 495.98 331.774 495.308 331.564C495.546 331.214 495.784 330.85 496.022 330.444H498.528ZM501.44 330.444V329.352H496.638C496.848 328.974 497.03 328.568 497.184 328.204L495.98 327.952C495.812 328.386 495.574 328.876 495.308 329.352H492.732V330.444H494.664C494.286 331.06 493.88 331.648 493.53 332.11C494.398 332.376 495.336 332.712 496.26 333.104C495.322 333.552 494.104 333.832 492.508 334C492.718 334.252 492.942 334.728 493.04 335.092C495.014 334.798 496.498 334.378 497.576 333.678C498.654 334.168 499.62 334.7 500.264 335.148L501.09 334.154C500.446 333.72 499.564 333.272 498.584 332.824C499.158 332.194 499.55 331.424 499.83 330.444H501.44ZM407.598 343.324C406.87 345.438 405.666 347.552 404.378 348.924C404.602 349.246 404.966 349.946 405.092 350.254C405.512 349.792 405.932 349.26 406.324 348.672V356.092H407.57V346.544C408.046 345.62 408.48 344.64 408.83 343.674L407.598 343.324ZM412.022 353.082C412.47 353.992 412.988 355.182 413.212 355.91L414.192 355.546C413.968 354.832 413.408 353.656 412.946 352.788L412.022 353.082ZM410.468 348.504V345.732C411.35 345.606 412.232 345.452 413.114 345.284C413.156 346.418 413.226 347.482 413.31 348.504H410.468ZM417.272 349.722V348.504H414.542C414.444 347.426 414.388 346.236 414.346 345.018C415.256 344.808 416.11 344.584 416.852 344.318L415.788 343.268C414.234 343.87 411.602 344.416 409.25 344.738L409.264 344.752H409.25V354.23C409.25 354.776 408.914 354.986 408.69 355.098C408.844 355.35 409.068 355.868 409.124 356.176C409.39 355.994 409.796 355.826 412.232 355.154C412.19 354.874 412.176 354.37 412.204 354.048L410.468 354.468V349.722H413.422C413.828 353.474 414.64 355.966 416.138 355.994C416.684 355.994 417.258 355.42 417.538 353.25C417.328 353.152 416.824 352.816 416.628 352.564C416.53 353.768 416.376 354.44 416.138 354.44C415.522 354.412 414.99 352.494 414.668 349.722H417.272ZM429.186 347.706C428.78 348.994 428.262 350.156 427.59 351.192C427.268 349.946 427.044 348.434 426.904 346.768H431.3V345.494H429.872L430.544 344.78C429.998 344.304 428.948 343.66 428.122 343.226L427.338 344.024C428.08 344.43 428.99 345.032 429.536 345.494H426.834C426.792 344.766 426.778 344.024 426.792 343.268H425.42C425.42 344.01 425.448 344.766 425.49 345.494H419.736V349.456C419.736 351.262 419.638 353.67 418.518 355.35C418.812 355.518 419.386 355.98 419.61 356.246C420.842 354.44 421.08 351.64 421.094 349.652H423.334C423.292 351.766 423.208 352.564 423.054 352.76C422.956 352.886 422.816 352.928 422.62 352.928C422.396 352.928 421.85 352.914 421.276 352.858C421.472 353.194 421.598 353.698 421.626 354.076C422.298 354.104 422.928 354.104 423.278 354.048C423.656 354.006 423.922 353.894 424.174 353.6C424.468 353.208 424.538 352.004 424.608 348.966V348.462H421.094V346.768H425.574C425.742 348.952 426.064 350.954 426.568 352.536C425.714 353.53 424.678 354.342 423.516 354.986C423.81 355.224 424.272 355.77 424.468 356.05C425.434 355.462 426.316 354.748 427.114 353.908C427.744 355.224 428.556 356.008 429.578 356.008C430.726 356.008 431.202 355.35 431.412 352.886C431.062 352.76 430.6 352.466 430.292 352.158C430.208 353.964 430.04 354.678 429.676 354.678C429.088 354.678 428.542 353.95 428.066 352.76C429.088 351.416 429.914 349.834 430.502 348.028L429.186 347.706ZM439.672 352.298V347.398H439.826C440.512 349.218 441.492 350.954 442.668 352.298H439.672ZM435.248 352.298C436.438 350.954 437.432 349.232 438.118 347.398H438.3V352.298H435.248ZM445.104 347.398V346.082H439.672V343.254H438.3V346.082H432.938V347.398H436.802C435.85 349.652 434.268 351.78 432.504 352.9C432.826 353.166 433.246 353.628 433.47 353.964C434.072 353.516 434.646 352.984 435.206 352.368V353.614H438.3V356.092H439.672V353.614H442.766V352.396C443.284 352.984 443.858 353.502 444.46 353.922C444.684 353.544 445.16 353.04 445.482 352.774C443.69 351.682 442.094 349.61 441.128 347.398H445.104ZM446.644 348.84V350.254H459.384V348.84H446.644ZM471.872 345.326V346.208H470.892V345.326H471.872ZM471.872 348.084H470.892V347.188H471.872V348.084ZM469.856 346.208H467.798V347.188H469.856V348.084H468.358V349.05H469.856V349.918H468.232V350.94H469.856V351.864H467.896V352.886H469.856V354.384H470.892V352.886H473.062V351.864H470.892V350.94H472.824V349.918H470.892V349.05H472.866V347.188H473.398V346.208H472.866V344.346H470.892V343.254H469.856V344.346H468.358V345.326H469.856V346.208ZM464.732 345.872V344.738H462.562C462.702 344.36 462.814 343.954 462.926 343.562L461.89 343.282C461.61 344.528 461.106 345.746 460.476 346.572C460.658 346.824 460.952 347.412 461.05 347.65C461.442 347.174 461.806 346.558 462.1 345.872H464.732ZM463.304 353.74V351.206H464.732V350.1H463.304V348.364H464.396V347.258H461.358V348.364H462.24V350.1H460.77V351.206H462.24V353.81C462.24 354.496 461.834 354.972 461.582 355.168C461.778 355.35 462.072 355.742 462.198 355.98V355.938L462.212 355.98C462.422 355.7 462.772 355.42 464.956 353.852C464.83 353.628 464.662 353.166 464.578 352.872L463.304 353.74ZM467.364 348.238L467.168 348.266H466.482C466.958 347.034 467.49 345.494 467.91 344.206H465.04L465.054 345.284H466.454C465.992 346.684 465.432 348.238 464.998 349.288H466.888C466.776 350.338 466.594 351.234 466.37 352.032C466.16 351.584 465.978 351.08 465.852 350.506L464.886 350.856C465.152 351.85 465.488 352.662 465.866 353.32C465.46 354.202 464.928 354.86 464.27 355.35C464.508 355.504 464.928 355.854 465.11 356.092C465.67 355.644 466.16 355.042 466.566 354.286C467.77 355.588 469.352 355.924 471.172 355.924H473.146C473.188 355.616 473.356 355.098 473.524 354.818C473.034 354.832 471.662 354.832 471.27 354.832C469.646 354.832 468.148 354.51 467.07 353.166C467.532 351.92 467.84 350.338 468.008 348.392L467.364 348.238ZM479.334 349.078C479.334 348.896 479.334 348.728 479.334 348.56V345.354H482.918V349.078H479.334ZM487.272 349.078H484.276V345.354H486.838V344.122H475.246V345.354H478.004V348.56C478.004 348.728 478.004 348.896 478.004 349.078H474.77V350.324H477.906C477.682 352.088 476.954 353.852 474.756 355.196C475.078 355.406 475.582 355.868 475.806 356.162C478.298 354.594 479.04 352.466 479.25 350.324H482.918V356.12H484.276V350.324H487.272V349.078ZM493.292 348.98C492.802 349.148 492.284 349.302 491.794 349.456V347.202H493.376V345.998H491.794V343.254H490.52V345.998H488.63V347.202H490.52V349.862C489.764 350.086 489.064 350.296 488.504 350.464L488.896 351.71L490.52 351.178V354.552C490.52 354.762 490.45 354.818 490.254 354.832C490.086 354.832 489.484 354.832 488.868 354.818C489.036 355.14 489.218 355.672 489.26 355.994C490.212 355.994 490.842 355.966 491.248 355.756C491.64 355.574 491.794 355.238 491.794 354.566V350.73C492.368 350.548 492.942 350.352 493.516 350.142L493.292 348.98ZM499.578 354.09H495.868V350.226H499.578V354.09ZM501.356 345.438V344.192H493.39V345.438H495.826C495.238 347.72 494.146 350.24 492.466 351.78C492.732 352.018 493.124 352.48 493.32 352.774C493.81 352.312 494.258 351.794 494.65 351.22V356.106H495.868V355.322H499.578V356.05H500.852V348.994H495.924C496.456 347.846 496.876 346.628 497.198 345.438H501.356ZM515.118 345.914V344.752H508.93C509.098 344.36 509.252 343.954 509.392 343.562L508.132 343.24C507.642 344.836 506.788 346.446 505.85 347.454C506.144 347.622 506.718 347.972 506.97 348.182C507.474 347.58 507.964 346.782 508.398 345.914H515.118ZM506.55 344.864C506.004 344.416 504.926 343.814 504.1 343.45L503.372 344.346C504.198 344.752 505.262 345.396 505.78 345.858L506.55 344.864ZM505.626 348.826C505.136 348.392 504.114 347.818 503.344 347.454L502.63 348.336C503.4 348.728 504.408 349.372 504.884 349.82L505.626 348.826ZM504.142 355.868C504.744 354.552 505.416 352.858 505.948 351.388L504.926 350.674C504.366 352.27 503.568 354.076 503.022 355.182L504.142 355.868ZM511.268 352.928L511.814 352.55C511.506 352.116 510.876 351.514 510.316 351.08H513.144C513.102 351.822 513.046 352.438 512.99 352.928H511.268ZM510.092 351.08L509.49 351.458C509.994 351.878 510.596 352.48 510.932 352.928H508.244C508.342 352.368 508.426 351.738 508.524 351.08H510.092ZM510.372 348.21L509.84 348.56C510.302 348.938 510.848 349.47 511.17 349.89H508.678C508.748 349.33 508.832 348.756 508.874 348.21H510.372ZM513.298 348.21C513.27 348.812 513.242 349.386 513.214 349.89H511.52L512.01 349.54C511.744 349.162 511.184 348.616 510.68 348.21H513.298ZM515.482 351.08V349.89H514.418C514.446 349.232 514.488 348.49 514.516 347.664C514.53 347.496 514.544 347.09 514.544 347.09H507.782C507.698 347.93 507.6 348.91 507.474 349.89H506.046V351.08H507.306C507.152 352.186 506.97 353.236 506.816 354.048H512.808C512.738 354.398 512.64 354.622 512.542 354.734C512.402 354.916 512.276 354.944 512.024 354.944C511.758 354.944 511.156 354.944 510.484 354.874C510.68 355.182 510.792 355.658 510.82 355.966C511.492 356.008 512.178 356.022 512.57 355.966C513.004 355.91 513.326 355.798 513.606 355.406C513.788 355.196 513.928 354.776 514.04 354.048H515.104V352.928H514.194C514.25 352.41 514.292 351.808 514.334 351.08H515.482ZM522.314 345.326H519.934C520.102 344.724 520.27 344.108 520.41 343.478L519.108 343.24C518.618 345.648 517.778 347.944 516.518 349.372C516.826 349.568 517.386 349.974 517.624 350.198C518.366 349.246 519.01 347.986 519.528 346.558H521.936C521.712 347.902 521.376 349.064 520.956 350.1C520.396 349.638 519.668 349.12 519.108 348.742L518.324 349.624C518.982 350.1 519.808 350.73 520.382 351.262C519.43 352.942 518.128 354.118 516.518 354.888C516.868 355.112 517.4 355.644 517.61 355.966C520.648 354.384 522.776 351.066 523.49 345.564L522.566 345.284L522.314 345.326ZM525.772 347.79V343.254H524.4V356.092H525.772V348.7C526.766 349.624 527.872 350.73 528.432 351.486L529.538 350.59C528.824 349.708 527.34 348.378 526.248 347.44L525.772 347.79ZM543.3 349.204C542.81 348.392 541.746 347.132 540.892 346.222L539.926 346.796C540.206 347.132 540.528 347.496 540.822 347.888L537.042 348.098C537.518 347.524 538.078 346.81 538.554 346.18H543.174V345.004H539.66C539.506 344.486 539.226 343.786 538.96 343.254L537.77 343.534C537.966 343.968 538.176 344.528 538.316 345.004H534.522V346.18H537.07C536.538 346.866 535.894 347.678 535.656 347.902C535.376 348.14 534.942 348.238 534.648 348.308C534.746 348.588 534.928 349.218 534.984 349.526C535.432 349.358 536.104 349.302 541.606 348.91C541.872 349.274 542.096 349.596 542.236 349.876L543.3 349.204ZM534.368 345.06C533.85 344.542 532.758 343.856 531.904 343.436L531.176 344.374C532.03 344.836 533.094 345.564 533.584 346.082L534.368 345.06ZM533.864 348.63C533.276 348.154 532.156 347.566 531.26 347.216L530.574 348.182C531.47 348.588 532.59 349.232 533.136 349.722L533.864 348.63ZM533.514 350.632C532.702 352.228 531.624 354.006 530.882 355.07L531.974 355.938C532.814 354.622 533.738 352.956 534.48 351.5L533.514 350.632ZM535.586 351.332C535.586 352.564 535.404 354.062 533.752 355.196C534.046 355.392 534.48 355.784 534.662 356.05C536.524 354.72 536.762 352.886 536.762 351.374V349.974H535.586V351.332ZM538.008 355.518H539.142V349.988H538.008V355.518ZM541.858 354.832C541.774 354.832 541.704 354.818 541.662 354.776C541.606 354.72 541.592 354.566 541.592 354.328V349.974H540.402V354.258C540.402 355.126 540.472 355.378 540.696 355.588C540.892 355.77 541.242 355.868 541.522 355.868H542.222C542.474 355.868 542.768 355.812 542.95 355.7C543.132 355.588 543.272 355.406 543.356 355.126C543.426 354.874 543.482 354.146 543.496 353.53C543.202 353.418 542.824 353.236 542.6 353.026C542.586 353.684 542.572 354.188 542.558 354.412C542.516 354.622 542.474 354.734 542.418 354.776C542.362 354.818 542.264 354.832 542.166 354.832H541.858ZM554.15 345.06H547.752V344.402H554.15V345.06ZM554.15 346.376H547.752V345.704H554.15V346.376ZM555.452 343.688H546.506V347.09H555.452V343.688ZM557.244 347.594H544.756V348.546H557.244V347.594ZM547.486 351.85V351.15H550.342V351.85H547.486ZM547.486 349.82H550.342V350.506H547.486V349.82ZM554.556 350.506H551.602V349.82H554.556V350.506ZM554.556 351.85H551.602V351.15H554.556V351.85ZM551.602 354.748V354.09H556.096V353.208H551.602V352.592H555.844V349.078H546.254V352.592H550.342V353.208H545.89V354.09H550.342V354.748H544.7V355.742H557.314V354.748H551.602Z" fill="#333333"/>
<path d="M408.136 373.472H413.493V374.781H413.988V372.999H407.652V374.803H408.136V373.472ZM411.348 374.539C412.14 375.232 413.053 376.2 413.471 376.827L413.867 376.508C413.438 375.881 412.525 374.935 411.733 374.264L411.348 374.539ZM409.676 374.352C409.203 375.199 408.4 375.991 407.564 376.519C407.696 376.607 407.894 376.794 407.982 376.871C408.796 376.31 409.654 375.419 410.182 374.495L409.676 374.352ZM407.135 373.593C406.75 373.241 405.958 372.768 405.331 372.471L405.045 372.856C405.672 373.186 406.453 373.681 406.838 374.022L407.135 373.593ZM406.772 376.53C406.321 376.189 405.474 375.738 404.792 375.452L404.495 375.826C405.188 376.145 406.024 376.629 406.464 376.959L406.772 376.53ZM405.177 382.063C405.738 381.073 406.42 379.665 406.926 378.521L406.585 378.169C406.035 379.39 405.276 380.853 404.781 381.689L405.177 382.063ZM414.021 378.103V377.619H411.007V376.354H410.49V377.619H407.553V378.103H410.072C409.423 379.445 408.257 380.622 407.003 381.194C407.135 381.304 407.289 381.48 407.377 381.612C408.62 380.974 409.808 379.731 410.49 378.301V382.261H411.007V378.279C411.689 379.643 412.833 380.952 413.955 381.612C414.054 381.48 414.219 381.304 414.34 381.194C413.218 380.611 412.074 379.401 411.436 378.103H414.021ZM419.433 379.533C419.213 379.236 418.245 378.07 417.893 377.685H419.521V377.201H417.882V375.859H419.257V375.375H417.882V374.055H419.444V373.571H417.882V372.328H417.376V373.571H415.737V374.055H417.376V375.375H415.891V375.859H417.376V377.201H415.605V377.685H417.2C416.793 378.84 416.034 380.149 415.396 380.82C415.484 380.941 415.616 381.139 415.671 381.271C416.265 380.622 416.925 379.489 417.376 378.4V382.294H417.882V378.334C418.3 378.862 418.883 379.621 419.114 379.962L419.433 379.533ZM421.798 377.806C421.82 377.531 421.82 377.256 421.82 376.981V374.968H423.547V377.806H421.798ZM425.428 377.806H424.064V374.968H425.318V374.462H424.064V372.328H423.547V374.462H421.82V372.339H421.303V374.462H420.038V374.968H421.303V376.97C421.303 377.245 421.303 377.531 421.281 377.806H419.862V378.312H421.248C421.094 379.676 420.643 381.007 419.312 381.997C419.444 382.074 419.642 382.228 419.741 382.338C421.149 381.249 421.622 379.819 421.765 378.312H423.547V382.283H424.064V378.312H425.428V377.806ZM435.845 374.242H431.775V372.339H431.236V374.242H427.166V382.316H427.694V374.759H431.225C431.17 376.266 430.763 378.191 428.156 379.621C428.277 379.709 428.453 379.896 428.519 380.006C430.169 379.06 430.983 377.927 431.39 376.816C432.523 377.828 433.81 379.115 434.437 379.929L434.877 379.588C434.162 378.73 432.721 377.344 431.533 376.321C431.687 375.782 431.742 375.254 431.764 374.759H435.328V381.458C435.328 381.656 435.273 381.722 435.053 381.733C434.833 381.744 434.074 381.755 433.216 381.722C433.293 381.887 433.381 382.118 433.414 382.283C434.404 382.283 435.075 382.283 435.416 382.184C435.735 382.085 435.845 381.887 435.845 381.458V374.242ZM438.518 373.912H446.471V375.199H447.01V373.417H443.039C442.907 373.087 442.654 372.625 442.423 372.284L441.906 372.416C442.104 372.713 442.302 373.109 442.434 373.417H438.001V375.199H438.518V373.912ZM443.611 374.924C444.667 375.562 445.932 376.519 446.559 377.168L446.922 376.805C446.284 376.167 445.008 375.232 443.952 374.605L443.611 374.924ZM440.751 374.605C440.069 375.441 438.991 376.255 437.968 376.794C438.1 376.882 438.276 377.08 438.364 377.19C439.365 376.596 440.498 375.705 441.246 374.77L440.751 374.605ZM439.959 378.675C440.938 378.026 441.818 377.267 442.511 376.42C443.314 377.355 444.216 378.07 445.206 378.675H439.959ZM440.014 381.403V379.17H444.964V381.403H440.014ZM442.544 375.54C441.477 377.124 439.519 378.587 437.484 379.379C437.616 379.478 437.748 379.665 437.836 379.797C438.397 379.555 438.969 379.28 439.497 378.961V382.305H440.014V381.898H444.964V382.239H445.492V378.851C445.998 379.137 446.548 379.412 447.109 379.654C447.197 379.5 447.34 379.324 447.472 379.214C445.657 378.455 444.04 377.542 442.797 376.046C442.863 375.947 442.94 375.848 443.006 375.76L442.544 375.54ZM456.998 374.561V375.639H452.697V374.561H456.998ZM458.307 377.201H452.697V376.068H457.526V374.132H452.697V373.175H458.087V372.724H452.18V377.663H458.307V377.201ZM451.454 373.285C451.036 372.999 450.222 372.647 449.573 372.427L449.309 372.768C449.958 372.999 450.794 373.406 451.212 373.681L451.454 373.285ZM449.232 377.993C449.969 377.377 450.805 376.574 451.498 375.859L451.234 375.485C450.464 376.255 449.54 377.08 448.902 377.564L449.232 377.993ZM450.981 374.891C450.541 374.616 449.694 374.264 449.023 374.044L448.748 374.407C449.43 374.649 450.288 375.023 450.728 375.309L450.981 374.891ZM458.362 379.181V378.697H453.742V377.85H453.214V378.697H448.649V379.181H452.543C451.553 380.248 449.925 381.205 448.484 381.656C448.594 381.766 448.748 381.964 448.825 382.096C450.365 381.546 452.169 380.435 453.192 379.181H453.214V382.305H453.742V379.181C454.732 380.457 456.536 381.524 458.175 382.041C458.252 381.898 458.406 381.7 458.527 381.601C456.976 381.183 455.337 380.27 454.369 379.181H458.362ZM464.929 373.593C464.786 373.23 464.434 372.691 464.082 372.306L463.653 372.504C463.994 372.9 464.335 373.45 464.478 373.813L464.929 373.593ZM467.855 376.959H463.774V375.859H467.855V376.959ZM467.855 378.499H463.774V377.388H467.855V378.499ZM467.855 380.05H463.774V378.928H467.855V380.05ZM463.268 375.419V380.49H468.372V375.419H465.666C465.809 375.089 465.941 374.704 466.073 374.33H469.362V373.868H467.129C467.426 373.472 467.745 372.966 468.031 372.504L467.503 372.339C467.294 372.779 466.909 373.439 466.579 373.868H462.421V374.33H465.49C465.402 374.682 465.281 375.078 465.171 375.419H463.268ZM461.882 374.55C461.541 374.055 460.859 373.296 460.265 372.768L459.858 373.021C460.452 373.571 461.134 374.352 461.453 374.858L461.882 374.55ZM461.783 376.233H459.605V376.739H461.266V380.391C460.771 380.512 460.188 381.029 459.594 381.656L459.924 382.063C460.54 381.348 461.101 380.809 461.497 380.809C461.728 380.809 462.058 381.15 462.498 381.414C463.224 381.854 464.159 381.964 465.446 381.964C466.48 381.964 468.504 381.909 469.34 381.854C469.351 381.7 469.428 381.447 469.494 381.315C468.427 381.414 466.821 381.491 465.457 381.491C464.236 381.491 463.345 381.414 462.652 381.007C462.245 380.754 462.014 380.545 461.783 380.435V376.233ZM471.496 382.47C472.53 382.063 473.234 381.227 473.234 380.072C473.234 379.39 472.959 378.95 472.442 378.95C472.079 378.95 471.76 379.17 471.76 379.621C471.76 380.083 472.046 380.292 472.442 380.292C472.519 380.292 472.596 380.281 472.673 380.259C472.629 381.128 472.156 381.667 471.309 382.063L471.496 382.47ZM489.283 377.124C488.667 378.345 487.71 379.28 486.533 380.017C485.4 379.258 484.509 378.301 483.915 377.124H489.283ZM489.712 376.585L489.602 376.607H486.753V374.671H491.076V374.143H486.753V372.328H486.225V374.143H481.913V374.671H486.225V376.607H482.397V377.124H483.431L483.365 377.146C483.992 378.444 484.883 379.489 486.038 380.292C484.707 381.029 483.134 381.502 481.517 381.788C481.616 381.909 481.759 382.151 481.803 382.283C483.486 381.953 485.125 381.425 486.522 380.622C487.831 381.425 489.415 381.964 491.241 382.239C491.318 382.107 491.439 381.887 491.56 381.766C489.8 381.524 488.282 381.04 487.017 380.314C488.337 379.456 489.404 378.323 490.064 376.816L489.712 376.585ZM494.53 372.339H494.024V374.627H492.506V375.122H494.024V377.773C493.386 377.993 492.814 378.191 492.363 378.323L492.528 378.84C492.968 378.697 493.485 378.521 494.024 378.323V381.59C494.024 381.744 493.969 381.788 493.826 381.788C493.705 381.799 493.243 381.799 492.726 381.788C492.803 381.942 492.869 382.151 492.891 382.283C493.595 382.294 493.98 382.272 494.2 382.195C494.431 382.096 494.53 381.953 494.53 381.59V378.158C494.948 378.004 495.388 377.85 495.817 377.696L495.74 377.19L494.53 377.597V375.122H495.828V374.627H494.53V372.339ZM497.071 379.137C497.566 379.731 498.094 380.545 498.314 381.084L498.732 380.798C498.501 380.27 497.962 379.467 497.467 378.884L497.071 379.137ZM502.483 376.486V375.991H499.513V374.352H501.922V373.857H499.513V372.383H498.996V373.857H496.598V374.352H498.996V375.991H495.982V376.486H500.47V377.938H496.125V378.433H500.47V381.535C500.47 381.689 500.426 381.744 500.261 381.755C500.074 381.766 499.502 381.777 498.82 381.744C498.897 381.909 498.974 382.118 498.996 382.283C499.832 382.283 500.327 382.283 500.613 382.184C500.888 382.096 500.965 381.931 500.965 381.524V378.433H502.417V377.938H500.965V376.486H502.483ZM512.845 374.242H508.775V372.339H508.236V374.242H504.166V382.316H504.694V374.759H508.225C508.17 376.266 507.763 378.191 505.156 379.621C505.277 379.709 505.453 379.896 505.519 380.006C507.169 379.06 507.983 377.927 508.39 376.816C509.523 377.828 510.81 379.115 511.437 379.929L511.877 379.588C511.162 378.73 509.721 377.344 508.533 376.321C508.687 375.782 508.742 375.254 508.764 374.759H512.328V381.458C512.328 381.656 512.273 381.722 512.053 381.733C511.833 381.744 511.074 381.755 510.216 381.722C510.293 381.887 510.381 382.118 510.414 382.283C511.404 382.283 512.075 382.283 512.416 382.184C512.735 382.085 512.845 381.887 512.845 381.458V374.242ZM515.518 373.912H523.471V375.199H524.01V373.417H520.039C519.907 373.087 519.654 372.625 519.423 372.284L518.906 372.416C519.104 372.713 519.302 373.109 519.434 373.417H515.001V375.199H515.518V373.912ZM520.611 374.924C521.667 375.562 522.932 376.519 523.559 377.168L523.922 376.805C523.284 376.167 522.008 375.232 520.952 374.605L520.611 374.924ZM517.751 374.605C517.069 375.441 515.991 376.255 514.968 376.794C515.1 376.882 515.276 377.08 515.364 377.19C516.365 376.596 517.498 375.705 518.246 374.77L517.751 374.605ZM516.959 378.675C517.938 378.026 518.818 377.267 519.511 376.42C520.314 377.355 521.216 378.07 522.206 378.675H516.959ZM517.014 381.403V379.17H521.964V381.403H517.014ZM519.544 375.54C518.477 377.124 516.519 378.587 514.484 379.379C514.616 379.478 514.748 379.665 514.836 379.797C515.397 379.555 515.969 379.28 516.497 378.961V382.305H517.014V381.898H521.964V382.239H522.492V378.851C522.998 379.137 523.548 379.412 524.109 379.654C524.197 379.5 524.34 379.324 524.472 379.214C522.657 378.455 521.04 377.542 519.797 376.046C519.863 375.947 519.94 375.848 520.006 375.76L519.544 375.54ZM533.745 379.852V381.381H527.486V379.852H533.745ZM526.969 382.338H527.486V381.854H533.745V382.305H534.262V379.357H526.969V382.338ZM532.986 378.07H528.146V376.893H532.986V378.07ZM527.651 376.464V378.499H533.503V376.464H527.651ZM526.078 377.168H526.584V375.573H534.493V377.168H535.01V375.111H526.078V377.168ZM532.656 373.34V372.328H532.128V373.34H528.817V372.328H528.3V373.34H525.726V373.824H528.3V374.748H528.817V373.824H532.128V374.748H532.656V373.824H535.307V373.34H532.656ZM545.911 372.68C545.625 373.318 545.053 374.22 544.646 374.759L545.031 374.957C545.46 374.44 545.988 373.604 546.373 372.911L545.911 372.68ZM540.488 374.231V373.725H538.046C538.233 373.329 538.409 372.911 538.541 372.493L538.068 372.372C537.738 373.406 537.188 374.396 536.55 375.067C536.638 375.177 536.803 375.408 536.858 375.518C537.177 375.166 537.507 374.715 537.771 374.231H540.488ZM538.937 376.09H540.301V375.595H537.188V376.09H538.442V377.828H536.748V378.323H538.442V380.776C538.442 381.249 538.112 381.535 537.936 381.645C538.046 381.755 538.178 381.964 538.233 382.096C538.376 381.931 538.629 381.766 540.389 380.732C540.345 380.622 540.279 380.424 540.257 380.281L538.937 381.029V378.323H540.565V377.828H538.937V376.09ZM542.468 374.748C542.281 374.209 541.786 373.362 541.313 372.735L540.895 372.933C541.346 373.571 541.83 374.44 542.028 374.968L542.468 374.748ZM541.522 379.28V377.872H545.592V379.28H541.522ZM545.592 376.002V377.399H541.522V376.002H545.592ZM545.592 375.485L543.854 375.496V372.317H543.359V375.496H541.027V382.305H541.522V379.764H545.592V381.491C545.592 381.645 545.526 381.689 545.361 381.7C545.196 381.711 544.624 381.711 543.953 381.7C544.03 381.832 544.096 382.041 544.129 382.184C544.987 382.184 545.46 382.173 545.735 382.085C545.988 381.997 546.076 381.832 546.076 381.48V375.485H545.592ZM548.496 382.47C549.53 382.063 550.234 381.227 550.234 380.072C550.234 379.39 549.959 378.95 549.442 378.95C549.079 378.95 548.76 379.17 548.76 379.621C548.76 380.083 549.046 380.292 549.442 380.292C549.519 380.292 549.596 380.281 549.673 380.259C549.629 381.128 549.156 381.667 548.309 382.063L548.496 382.47ZM404.847 394.355C405.166 393.585 405.364 392.342 405.419 391.473L404.99 391.407C404.913 392.298 404.715 393.486 404.407 394.201L404.847 394.355ZM406.013 399.283H406.53V389.328H406.013V399.283ZM407.982 393.013C407.85 392.518 407.487 391.704 407.146 391.066L406.75 391.253C407.08 391.891 407.432 392.727 407.575 393.233L407.982 393.013ZM411.029 391.638H412.998V394.465H410.952C411.018 393.904 411.029 393.365 411.029 392.848V391.638ZM414.615 394.971V394.465H413.515V391.143H411.029V389.328H410.501V391.143H408.213V391.638H410.501V392.859C410.501 393.365 410.49 393.904 410.435 394.465H407.564V394.971H410.358C410.094 396.401 409.357 397.875 407.278 398.931C407.399 399.019 407.575 399.217 407.652 399.338C409.72 398.216 410.523 396.709 410.831 395.224C411.458 397.105 412.613 398.645 414.252 399.327C414.329 399.173 414.494 398.964 414.637 398.854C413.009 398.26 411.865 396.764 411.271 394.971H414.615ZM419.499 392.617H421.578V394.289H419.499V392.617ZM424.273 392.617V394.289H422.095V392.617H424.273ZM421.578 398.095H422.095V395.158C423.074 395.917 424.152 396.863 424.713 397.501L425.076 397.149C424.482 396.489 423.305 395.499 422.293 394.74H424.79V392.155H422.095V391.066H425.362V390.593H422.095V389.339H421.578V390.593H418.487V391.066H421.578V392.155H419.004V394.74H421.325C420.676 395.785 419.488 396.808 418.443 397.27C418.564 397.369 418.718 397.556 418.795 397.688C419.774 397.182 420.874 396.181 421.578 395.136V398.095ZM418.036 391.693C417.684 391.187 416.936 390.384 416.309 389.834L415.902 390.098C416.529 390.681 417.266 391.484 417.607 392.001L418.036 391.693ZM417.849 393.233H415.605V393.739H417.343V397.479C416.826 397.6 416.232 398.106 415.583 398.744L415.935 399.173C416.573 398.458 417.145 397.919 417.563 397.919C417.794 397.919 418.135 398.26 418.553 398.524C419.279 398.964 420.203 399.074 421.49 399.074C422.513 399.074 424.504 399.019 425.34 398.964C425.351 398.81 425.428 398.557 425.494 398.414C424.427 398.524 422.843 398.59 421.501 398.59C420.291 398.59 419.4 398.513 418.718 398.106C418.311 397.853 418.08 397.644 417.849 397.534V393.233ZM435.075 391.209H431.005V390.153H435.075V391.209ZM435.075 392.716H431.005V391.638H435.075V392.716ZM435.581 389.713H430.521V393.167H435.581V389.713ZM429.74 394.729L429.663 394.234L428.475 394.63V392.122H429.762V391.627H428.475V389.35H427.98V391.627H426.517V392.122H427.98V394.795C427.364 394.993 426.814 395.18 426.374 395.323L426.55 395.84C426.979 395.708 427.463 395.532 427.98 395.345V398.568C427.98 398.733 427.914 398.777 427.771 398.777C427.65 398.788 427.199 398.788 426.671 398.777C426.748 398.931 426.814 399.14 426.847 399.272C427.54 399.283 427.925 399.261 428.145 399.173C428.376 399.074 428.475 398.931 428.475 398.579V395.169L429.74 394.729ZM434.492 398.634C434.063 398.634 433.656 398.612 433.282 398.535V396.544H435.702V396.082H433.282V394.597H436.219V394.124H430.037V394.597H432.798V398.414C432.028 398.161 431.434 397.611 431.082 396.489C431.181 396.126 431.247 395.708 431.302 395.279L430.796 395.224C430.609 396.918 430.103 398.183 429.08 398.975C429.201 399.052 429.41 399.228 429.487 399.316C430.136 398.755 430.598 398.029 430.906 397.116C431.599 398.788 432.787 399.107 434.481 399.107H436.406C436.417 398.975 436.505 398.755 436.582 398.634H434.492ZM447.373 393.805H444.92V389.581H444.392V393.805H440.707V390.901C441.576 390.626 442.39 390.307 443.006 389.977L442.555 389.57C441.51 390.219 439.486 390.813 437.748 391.22C437.814 391.341 437.902 391.517 437.935 391.638C438.672 391.473 439.431 391.286 440.179 391.066V393.805H437.627V394.322H440.168C440.113 396.027 439.695 397.688 437.517 398.931C437.638 399.019 437.814 399.206 437.891 399.327C440.19 397.985 440.641 396.192 440.696 394.322H444.392V399.305H444.92V394.322H447.373V393.805ZM452.906 395.939L451.322 396.247V394.564H452.631V394.069H451.322V392.309H450.805V394.069H449.474C449.859 393.244 450.222 392.243 450.53 391.198H452.543V390.692H450.673C450.794 390.285 450.893 389.878 450.992 389.46L450.453 389.339C450.376 389.79 450.266 390.252 450.156 390.692H448.583V391.198H450.013C449.738 392.188 449.441 393.013 449.309 393.321C449.111 393.794 448.946 394.179 448.792 394.212C448.858 394.344 448.924 394.597 448.957 394.707C449.045 394.63 449.342 394.564 449.738 394.564H450.805V396.346C449.947 396.511 449.144 396.654 448.528 396.764L448.66 397.292C449.276 397.171 450.013 397.028 450.805 396.852V399.25H451.322V396.742L452.939 396.401L452.906 395.939ZM458.483 393.266V392.76H455.172C455.326 392.243 455.469 391.715 455.623 391.198H458.065V390.692H455.766C455.887 390.241 455.997 389.812 456.107 389.405L455.579 389.339C455.469 389.757 455.359 390.208 455.216 390.692H453.137V391.198H455.073C454.93 391.715 454.776 392.243 454.622 392.76H452.675V393.266H454.468C454.237 394.025 453.995 394.74 453.797 395.29H457.086C456.679 395.906 456.085 396.709 455.557 397.413C455.172 397.138 454.776 396.863 454.38 396.632L454.039 396.962C455.106 397.622 456.349 398.623 456.965 399.283L457.317 398.865C456.987 398.535 456.492 398.117 455.942 397.71C456.635 396.797 457.427 395.719 457.944 394.938L457.559 394.74L457.471 394.784H454.545C454.688 394.333 454.842 393.816 455.018 393.266H458.483ZM462.641 389.35C461.937 391.099 460.782 392.782 459.583 393.882C459.682 393.981 459.869 394.234 459.946 394.355C460.474 393.838 460.991 393.211 461.475 392.518V399.305H462.014V391.704C462.443 391.011 462.828 390.252 463.147 389.504L462.641 389.35ZM466.04 398.557C465.457 398.557 465.325 398.425 465.325 397.842V395.07C466.81 394.014 468.196 392.738 469.186 391.341L468.669 391.022C467.844 392.276 466.634 393.442 465.325 394.443V389.548H464.775V394.839C464.093 395.312 463.4 395.73 462.707 396.093C462.839 396.181 463.004 396.357 463.092 396.478C463.642 396.17 464.214 395.829 464.775 395.466V397.82C464.775 398.832 465.061 399.085 466.029 399.085H468.174C469.241 399.085 469.395 398.425 469.505 396.412C469.329 396.368 469.131 396.258 468.977 396.148C468.889 398.073 468.812 398.557 468.163 398.557H466.04ZM477.821 395.18C477.579 394.685 476.996 393.937 476.479 393.398L476.061 393.585C476.292 393.827 476.523 394.102 476.732 394.388L474.312 394.586C475.313 393.794 476.336 392.76 477.271 391.649L476.809 391.385C476.567 391.704 476.303 392.012 476.028 392.32L474.378 392.441C474.796 392.001 475.214 391.451 475.588 390.879H480.318V390.384H476.116C475.984 390.065 475.698 389.592 475.434 389.24L474.95 389.394C475.148 389.691 475.39 390.076 475.533 390.384H470.803V390.879H474.994C474.62 391.484 474.147 392.045 473.982 392.21C473.828 392.408 473.663 392.529 473.509 392.551C473.564 392.672 473.652 392.936 473.674 393.057C473.828 392.991 474.059 392.947 475.588 392.804C474.972 393.453 474.411 393.97 474.169 394.157C473.806 394.476 473.509 394.685 473.289 394.718C473.344 394.861 473.421 395.114 473.454 395.224C473.663 395.147 474.004 395.092 477.04 394.806C477.183 395.026 477.304 395.235 477.392 395.411L477.821 395.18ZM480.076 395.169C479.592 394.718 478.646 394.058 477.887 393.607L477.491 393.915C478.261 394.377 479.207 395.048 479.669 395.51L480.076 395.169ZM479.185 391.429C478.767 391.88 478.063 392.496 477.546 392.859L477.92 393.134C478.459 392.771 479.13 392.232 479.625 391.715L479.185 391.429ZM471.056 391.759C471.661 392.133 472.376 392.694 472.739 393.068L473.113 392.738C472.75 392.364 472.024 391.825 471.419 391.451L471.056 391.759ZM473.421 393.563C472.431 394.069 471.408 394.586 470.726 394.905L471.023 395.323C471.749 394.96 472.673 394.465 473.542 393.992L473.421 393.563ZM480.373 396.291H475.764V395.29H475.225V396.291H470.627V396.786H475.225V399.294H475.764V396.786H480.373V396.291Z" fill="#666666"/>
<path d="M564.477 57.046C564.113 57.998 563.441 59.342 562.937 60.168L563.679 60.56C564.225 59.79 564.897 58.53 565.443 57.508L564.477 57.046ZM559.717 60.098C559.535 59.272 559.031 58.054 558.429 57.144L557.617 57.494C558.191 58.432 558.695 59.664 558.849 60.504L559.717 60.098ZM554.271 56.892H556.525V59.356H554.271V56.892ZM557.701 65.026L555.979 65.46V62.926H557.477V62.002H555.979V60.252H557.421V55.996H553.403V60.252H555.111V65.67L554.215 65.894V61.344H553.431V66.076L552.689 66.244L552.913 67.196C554.271 66.832 556.077 66.37 557.813 65.894L557.701 65.026ZM559.787 61.162C559.787 61.456 559.787 61.764 559.773 62.072C558.807 62.688 557.841 63.304 557.183 63.696L557.757 64.62C558.359 64.172 559.031 63.668 559.703 63.136C559.521 64.788 558.947 66.454 557.099 67.336C557.323 67.518 557.617 67.896 557.757 68.106C560.487 66.58 560.739 63.654 560.739 61.162V55.282H559.787V61.162ZM563.287 66.916C562.979 66.916 562.923 66.818 562.923 66.3V62.548C563.693 63.192 564.519 63.962 564.967 64.494L565.653 63.766C565.107 63.15 563.987 62.212 563.133 61.554L562.923 61.75V55.282H561.943V66.3C561.943 67.532 562.209 67.854 563.161 67.854H564.477C565.317 67.854 565.569 67.294 565.667 65.726C565.373 65.656 565.023 65.474 564.785 65.292C564.743 66.566 564.687 66.916 564.421 66.916H563.287ZM576.209 64.312C576.209 64.55 576.111 64.634 575.831 64.648C575.551 64.648 574.571 64.648 573.563 64.62C573.717 64.914 573.885 65.376 573.927 65.67C575.243 65.67 576.097 65.642 576.573 65.474C577.063 65.32 577.245 65.012 577.245 64.312V58.782H579.177V57.788H577.245V55.338H576.209V57.788H570.833V58.782H576.209V64.312ZM571.491 60.336C572.205 61.204 573.045 62.422 573.437 63.15L574.319 62.618C573.913 61.89 573.017 60.742 572.317 59.888L571.491 60.336ZM570.217 57.984C569.797 57.326 568.873 56.36 568.103 55.66L567.305 56.192C568.075 56.906 568.971 57.928 569.363 58.586L570.217 57.984ZM569.839 60.504H566.899V61.484H568.817V65.124C568.201 65.362 567.459 65.978 566.717 66.776L567.445 67.756C568.159 66.804 568.831 65.978 569.293 65.978C569.601 65.978 570.063 66.44 570.637 66.804C571.603 67.42 572.765 67.574 574.487 67.574C575.831 67.574 578.281 67.504 579.275 67.434C579.289 67.112 579.457 66.594 579.597 66.314C578.239 66.454 576.153 66.58 574.515 66.58C572.975 66.58 571.771 66.468 570.875 65.908C570.399 65.614 570.105 65.362 569.839 65.194V60.504Z" fill="#B4C2CC"/>
<path d="M400.021 51.0168H382.408C381.551 51.0168 380.857 51.7112 380.857 52.5677C380.857 53.4242 381.551 54.1185 382.408 54.1185H400.021C400.877 54.1185 401.571 53.4242 401.571 52.5677C401.571 51.7112 400.877 51.0168 400.021 51.0168Z" fill="#004ED1"/>
<path d="M400.021 57.2202H382.408C381.551 57.2202 380.857 57.9146 380.857 58.7711C380.857 59.6276 381.551 60.3219 382.408 60.3219H400.021C400.877 60.3219 401.571 59.6276 401.571 58.7711C401.571 57.9146 400.877 57.2202 400.021 57.2202Z" fill="#004ED1"/>
<path d="M400.021 63.4236H382.408C381.551 63.4236 380.857 64.1179 380.857 64.9744C380.857 65.8309 381.551 66.5253 382.408 66.5253H400.021C400.877 66.5253 401.571 65.8309 401.571 64.9744C401.571 64.1179 400.877 63.4236 400.021 63.4236Z" fill="#004ED1"/>
<g filter="url(#filter1_d_2_115)">
<path d="M396 237H42C37.5817 237 34 240.582 34 245V442C34 446.418 37.5817 450 42 450H396C400.418 450 404 446.418 404 442V245C404 240.582 400.418 237 396 237Z" fill="white"/>
</g>
<mask id="mask0_2_115" style="mask-type:alpha" maskUnits="userSpaceOnUse" x="380" y="85" width="200" height="200">
<path d="M480 285C535.228 285 580 240.228 580 185C580 129.772 535.228 85 480 85C424.772 85 380 129.772 380 185C380 240.228 424.772 285 480 285Z" fill="white"/>
</mask>
<g mask="url(#mask0_2_115)">
<path d="M480 285C535.228 285 580 240.228 580 185C580 129.772 535.228 85 480 85C424.772 85 380 129.772 380 185C380 240.228 424.772 285 480 285Z" fill="#EBF1F9"/>
<path fill-rule="evenodd" clip-rule="evenodd" d="M468.546 141.761C466.768 140.391 465.276 139.249 465.276 139.249L462.559 148.217L467.18 150.373C468.652 147.972 469.032 144.855 468.546 141.761Z" fill="white"/>
<path fill-rule="evenodd" clip-rule="evenodd" d="M468.546 141.761C466.768 140.391 465.276 139.249 465.276 139.249L462.559 148.217L467.18 150.373C468.652 147.972 469.032 144.855 468.546 141.761Z" stroke="#1A1A1A" stroke-linecap="round" stroke-linejoin="round"/>
<path fill-rule="evenodd" clip-rule="evenodd" d="M475.364 145.252C475.27 145.087 471.805 142.537 468.995 140.485C469.525 143.675 469.111 146.888 467.508 149.364L472.565 151.599C472.565 151.599 474.783 151.847 475.787 149.927C476.79 148.008 475.522 145.531 475.364 145.252Z" fill="white"/>
<path fill-rule="evenodd" clip-rule="evenodd" d="M475.364 145.252C475.27 145.087 471.805 142.537 468.995 140.485C469.525 143.675 469.111 146.888 467.508 149.364L472.565 151.599C472.565 151.599 474.783 151.847 475.787 149.927C476.79 148.008 475.522 145.531 475.364 145.252Z" stroke="#004ED1" stroke-linecap="round" stroke-linejoin="round"/>
<path fill-rule="evenodd" clip-rule="evenodd" d="M488.266 235.661C488.266 235.661 466.005 266.565 467.589 298.344C469.174 330.122 480.265 375.883 484.384 380.173C492.623 383.192 496.901 380.173 496.901 380.173C496.901 380.173 486.602 326.627 506.724 284.997L509.576 247.181L488.266 235.661Z" fill="white"/>
<path fill-rule="evenodd" clip-rule="evenodd" d="M488.266 235.661C488.266 235.661 466.005 266.565 467.589 298.344C469.174 330.122 480.265 375.883 484.384 380.173C492.623 383.192 496.901 380.173 496.901 380.173C496.901 380.173 486.602 326.627 506.724 284.997L509.576 247.181L488.266 235.661Z" stroke="#004ED1" stroke-linecap="round" stroke-linejoin="round"/>
<path fill-rule="evenodd" clip-rule="evenodd" d="M506.162 265.889C506.162 265.889 505.059 278.695 507.097 288.19C512.601 344.587 563.513 374.099 563.513 374.099C563.513 374.099 569.815 372.818 568.869 364.174C528.535 326.076 544.606 269.57 543.661 257.565C542.715 245.559 531.371 231.953 531.371 231.953L510.824 235.261" fill="white"/>
<path d="M506.162 265.889C506.162 265.889 505.059 278.695 507.097 288.19C512.601 344.587 563.513 374.099 563.513 374.099C563.513 374.099 569.815 372.818 568.869 364.174C528.535 326.076 544.606 269.57 543.661 257.565C542.715 245.559 531.371 231.953 531.371 231.953L510.824 235.261" stroke="#004ED1" stroke-linecap="round" stroke-linejoin="round"/>
<path fill-rule="evenodd" clip-rule="evenodd" d="M520.889 240.35C525.542 239.416 529.728 237.434 533.085 234.296L532.447 231.953L487.201 236.809L486.068 238.542C495.559 245.966 509.287 242.544 520.889 240.35Z" fill="#1A1A1A"/>
<path fill-rule="evenodd" clip-rule="evenodd" d="M522.817 240.418C510.792 242.589 496.564 245.977 486.726 238.628L483.593 243.204C483.593 243.204 496.386 250.514 512.742 249.068C529.097 247.623 536.797 239.121 536.797 239.121L535.458 234.425C531.979 237.532 527.64 239.493 522.817 240.418Z" fill="white"/>
<path fill-rule="evenodd" clip-rule="evenodd" d="M522.817 240.418C510.792 242.589 496.564 245.977 486.726 238.628L483.593 243.204C483.593 243.204 496.386 250.514 512.742 249.068C529.097 247.623 536.797 239.121 536.797 239.121L535.458 234.425C531.979 237.532 527.64 239.493 522.817 240.418Z" stroke="#004ED1" stroke-linecap="round" stroke-linejoin="round"/>
<path fill-rule="evenodd" clip-rule="evenodd" d="M449.25 169.325C449.25 169.325 429.784 209.716 452.655 225.048C467.441 234.141 489.78 208.659 489.78 208.659L486.992 177.737C486.992 177.737 467.907 196.288 465.653 206.967C460.101 194.173 456.378 181.448 460.845 172.214C460.526 170.277 457.973 168.585 456.271 168.003C454.569 167.422 450.074 167.485 449.25 169.325Z" fill="#C9E6FF"/>
<path fill-rule="evenodd" clip-rule="evenodd" d="M449.25 169.325C449.25 169.325 429.784 209.716 452.655 225.048C467.441 234.141 489.78 208.659 489.78 208.659L486.992 177.737C486.992 177.737 467.907 196.288 465.653 206.967C460.101 194.173 456.378 181.448 460.845 172.214C460.526 170.277 457.973 168.585 456.271 168.003C454.569 167.422 450.074 167.485 449.25 169.325Z" stroke="#004ED1" stroke-linecap="round" stroke-linejoin="round"/>
<path fill-rule="evenodd" clip-rule="evenodd" d="M491.817 240.362C485.861 238.747 481.361 228.86 482.546 202.68C483.732 176.499 488.26 173.432 497.314 172.117C506.369 170.803 527.604 169.379 533.641 186.029C539.677 202.68 537.737 231.38 537.737 231.38C537.737 231.38 514.573 246.536 491.817 240.362Z" fill="#C9E6FF"/>
<path fill-rule="evenodd" clip-rule="evenodd" d="M491.817 240.362C485.861 238.747 481.361 228.86 482.546 202.68C483.732 176.499 488.26 173.432 497.314 172.117C506.369 170.803 527.604 169.379 533.641 186.029C539.677 202.68 537.737 231.38 537.737 231.38C537.737 231.38 514.573 246.536 491.817 240.362Z" stroke="#004ED1" stroke-linecap="round" stroke-linejoin="round"/>
<path fill-rule="evenodd" clip-rule="evenodd" d="M506.262 243.424C506.262 243.424 504.256 244.264 504.688 247.084C505.12 249.904 511.771 249.508 512.675 248.519C513.579 247.529 513.63 243.077 511.821 243.077C510.013 243.077 506.262 243.424 506.262 243.424Z" fill="#004ED1"/>
<path fill-rule="evenodd" clip-rule="evenodd" d="M506.262 243.424C506.262 243.424 504.256 244.264 504.688 247.084C505.12 249.904 511.771 249.508 512.675 248.519C513.579 247.529 513.63 243.077 511.821 243.077C510.013 243.077 506.262 243.424 506.262 243.424Z" stroke="#004ED1" stroke-linecap="round" stroke-linejoin="round"/>
<path fill-rule="evenodd" clip-rule="evenodd" d="M523.142 177.685C523.142 177.685 526.626 178.625 538.029 185.99C549.433 193.355 569.652 199.831 580.527 179.774C583.589 179.356 588.763 184.58 588.763 184.58C588.763 184.58 574.086 208.398 558.249 211.427C542.411 214.457 516.745 208.607 514.691 188.131C513.375 179.252 520.233 176.985 523.617 177.685" fill="#C9E6FF"/>
<path d="M523.142 177.685C523.142 177.685 526.626 178.625 538.029 185.99C549.433 193.355 569.652 199.831 580.527 179.774C583.589 179.356 588.763 184.58 588.763 184.58C588.763 184.58 574.086 208.398 558.249 211.427C542.411 214.457 516.745 208.607 514.691 188.131C513.375 179.252 520.233 176.985 523.617 177.685" stroke="#004ED1" stroke-linecap="round" stroke-linejoin="round"/>
<path fill-rule="evenodd" clip-rule="evenodd" d="M463.203 155.318C463.203 155.318 464.312 155.999 465.384 157.122C467.794 159.649 464.733 164.141 462.858 165.304C460.983 166.467 460.142 170.959 460.142 170.959C460.142 170.959 457.157 172.563 453.407 169.555C452.489 164.462 450.767 158.326 451.685 156.12" fill="white"/>
<path d="M463.203 155.318C463.203 155.318 464.312 155.999 465.384 157.122C467.794 159.649 464.733 164.141 462.858 165.304C460.983 166.467 460.142 170.959 460.142 170.959C460.142 170.959 457.157 172.563 453.407 169.555C452.489 164.462 450.767 158.326 451.685 156.12" stroke="#004ED1" stroke-linecap="round" stroke-linejoin="round"/>
<path fill-rule="evenodd" clip-rule="evenodd" d="M466.271 149.449L461.119 164.852C458.177 165.684 456.019 165.131 455.136 162.324L462.11 149.137L466.271 149.449Z" fill="white"/>
<path fill-rule="evenodd" clip-rule="evenodd" d="M466.271 149.449L461.119 164.852C458.177 165.684 456.019 165.131 455.136 162.324L462.11 149.137L466.271 149.449Z" stroke="#004ED1" stroke-linecap="round" stroke-linejoin="round"/>
<path fill-rule="evenodd" clip-rule="evenodd" d="M430.39 147.739L462.686 149.137C462.686 149.137 467.459 148.71 468.533 144.049C469.607 139.387 466.266 137.096 466.266 137.096L442.561 117" fill="white"/>
<path d="M430.39 147.739L462.686 149.137C462.686 149.137 467.459 148.71 468.533 144.049C469.607 139.387 466.266 137.096 466.266 137.096L442.561 117" stroke="#004ED1" stroke-linecap="round" stroke-linejoin="round"/>
<path fill-rule="evenodd" clip-rule="evenodd" d="M443.484 117.56C443.484 117.56 433.633 113.099 427.623 129.35C420.888 147.559 431.89 149.078 431.89 149.078C431.89 149.078 440.807 150.804 446.01 135.669C450.979 121.218 443.484 117.56 443.484 117.56Z" fill="white"/>
<path fill-rule="evenodd" clip-rule="evenodd" d="M443.484 117.56C443.484 117.56 433.633 113.099 427.623 129.35C420.888 147.559 431.89 149.078 431.89 149.078C431.89 149.078 440.807 150.804 446.01 135.669C450.979 121.218 443.484 117.56 443.484 117.56Z" stroke="#004ED1" stroke-linecap="round" stroke-linejoin="round"/>
<path fill-rule="evenodd" clip-rule="evenodd" d="M424.572 125.652L442.255 130.351C442.255 130.351 445.699 132.478 442.911 137.392C440.122 142.305 436.091 141.697 436.091 141.697L421.729 133.098L424.572 125.652Z" fill="white"/>
<path fill-rule="evenodd" clip-rule="evenodd" d="M424.572 125.652L442.255 130.351C442.255 130.351 445.699 132.478 442.911 137.392C440.122 142.305 436.091 141.697 436.091 141.697L421.729 133.098L424.572 125.652Z" stroke="#004ED1" stroke-linecap="round" stroke-linejoin="round"/>
<path fill-rule="evenodd" clip-rule="evenodd" d="M425.16 128.158C425.16 128.158 424.609 132.523 421.903 131.738C419.197 130.954 421.215 127.079 421.215 127.079C421.215 127.079 422.38 123.774 424.288 124.528C426.196 125.283 425.16 128.158 425.16 128.158Z" fill="#004ED1"/>
<path fill-rule="evenodd" clip-rule="evenodd" d="M425.16 128.158C425.16 128.158 424.609 132.523 421.903 131.738C419.197 130.954 421.215 127.079 421.215 127.079C421.215 127.079 422.38 123.774 424.288 124.528C426.196 125.283 425.16 128.158 425.16 128.158Z" stroke="#004ED1" stroke-linecap="round" stroke-linejoin="round"/>
<path fill-rule="evenodd" clip-rule="evenodd" d="M489.446 142.164C488.46 138.485 492.608 132.011 494.874 131.955C497.141 131.899 497.418 133.971 499.72 132.576C502.023 131.181 502.043 133.04 503.04 132.989C504.035 132.937 504.931 129.39 506.495 131.029C508.058 132.667 509.732 132.311 511.253 131.988C512.775 131.664 520.963 133.811 518.482 139.398C516.002 144.986 517.4 147.345 521.054 148.595C524.708 149.845 515.979 156.708 516.279 158.135C516.58 159.563 520.848 159.454 517.876 160.938C514.903 162.423 502.907 164.335 499.325 160.409C495.744 156.483 490.991 149.505 490.991 149.505C490.991 149.505 486.734 146.149 489.446 142.164Z" fill="#151415"/>
<path fill-rule="evenodd" clip-rule="evenodd" d="M490.991 149.505C490.991 149.505 486.734 146.149 489.446 142.164C488.46 138.485 492.608 132.011 494.874 131.955C497.141 131.899 497.418 133.971 499.72 132.576C502.023 131.181 502.043 133.04 503.04 132.989C504.035 132.937 504.931 129.39 506.495 131.029C508.058 132.667 509.732 132.311 511.253 131.988C512.775 131.664 520.963 133.811 518.482 139.398C516.002 144.986 517.4 147.345 521.054 148.595C524.708 149.845 515.979 156.708 516.279 158.135C516.58 159.563 520.848 159.454 517.876 160.938C514.903 162.423 502.907 164.335 499.325 160.409C495.744 156.483 490.991 149.505 490.991 149.505Z" stroke="#004ED1" stroke-linecap="round" stroke-linejoin="round"/>
<path fill-rule="evenodd" clip-rule="evenodd" d="M493.492 159.014C493.492 159.014 497.439 164.263 494.861 174.761C493.653 177.274 504.527 178.679 508.072 176.461C511.616 174.243 515.763 172.062 515.763 172.062C515.763 172.062 506.299 164.189 504.286 159.753L502.272 155.318L493.492 159.014Z" fill="white"/>
<path fill-rule="evenodd" clip-rule="evenodd" d="M493.492 159.014C493.492 159.014 497.439 164.263 494.861 174.761C493.653 177.274 504.527 178.679 508.072 176.461C511.616 174.243 515.763 172.062 515.763 172.062C515.763 172.062 506.299 164.189 504.286 159.753L502.272 155.318L493.492 159.014Z" stroke="#004ED1" stroke-linecap="round" stroke-linejoin="round"/>
<path fill-rule="evenodd" clip-rule="evenodd" d="M498.644 170.15C498.644 170.15 501.635 169.062 503.39 165.206C498.332 167.237 498.441 167.445 498.441 167.445L498.644 170.15Z" fill="#1A1A1A"/>
<path fill-rule="evenodd" clip-rule="evenodd" d="M508.145 152.818C505.154 156 503.273 156.908 504.788 157.969C505.829 158.698 505.902 160.314 505.844 161.255C501.517 165.517 495.281 169.801 489.789 166.513C480.198 160.773 492.176 140.56 492.176 140.56C492.735 140.237 495.56 140.987 498.143 142.307C500.725 143.625 502.733 142.018 504 140.617C506.541 141.654 508.216 143.304 509.313 145.122C509.681 147.076 509.931 150.398 508.145 152.818Z" fill="white"/>
<path fill-rule="evenodd" clip-rule="evenodd" d="M508.145 152.818C505.154 156 503.273 156.908 504.788 157.969C505.829 158.698 505.902 160.314 505.844 161.255C501.517 165.517 495.281 169.801 489.789 166.513C480.198 160.773 492.176 140.56 492.176 140.56C492.735 140.237 495.56 140.987 498.143 142.307C500.725 143.625 502.733 142.018 504 140.617C506.541 141.654 508.216 143.304 509.313 145.122C509.681 147.076 509.931 150.398 508.145 152.818Z" stroke="#004ED1" stroke-linecap="round" stroke-linejoin="round"/>
<path fill-rule="evenodd" clip-rule="evenodd" d="M570.203 317.24H613.508V250.494H570.203V317.24Z" stroke="#004ED1" stroke-linecap="round" stroke-linejoin="round"/>
<path fill-rule="evenodd" clip-rule="evenodd" d="M588.763 264.708C588.763 261.636 586.27 259.146 583.195 259.146C580.12 259.146 577.627 261.636 577.627 264.708C577.627 267.78 580.12 270.27 583.195 270.27C586.27 270.27 588.763 267.78 588.763 264.708Z" fill="#004ED1"/>
<path fill-rule="evenodd" clip-rule="evenodd" d="M588.763 283.249C588.763 280.177 586.27 277.687 583.195 277.687C580.12 277.687 577.627 280.177 577.627 283.249C577.627 286.321 580.12 288.811 583.195 288.811C586.27 288.811 588.763 286.321 588.763 283.249Z" fill="white"/>
<path fill-rule="evenodd" clip-rule="evenodd" d="M588.763 283.249C588.763 280.177 586.27 277.687 583.195 277.687C580.12 277.687 577.627 280.177 577.627 283.249C577.627 286.321 580.12 288.811 583.195 288.811C586.27 288.811 588.763 286.321 588.763 283.249Z" stroke="#004ED1" stroke-linecap="round" stroke-linejoin="round"/>
<path fill-rule="evenodd" clip-rule="evenodd" d="M379.661 259.146H453.898V220.828H379.661V259.146Z" fill="white"/>
<path fill-rule="evenodd" clip-rule="evenodd" d="M379.661 259.146H453.898V220.828H379.661V259.146Z" stroke="#004ED1" stroke-linecap="round" stroke-linejoin="round"/>
<path fill-rule="evenodd" clip-rule="evenodd" d="M405.644 248.021H414.305V239.369H405.644V248.021Z" fill="#FF793A"/>
<path fill-rule="evenodd" clip-rule="evenodd" d="M420.492 248.022H429.153V231.953H420.492V248.022Z" fill="#004ED1"/>
<path fill-rule="evenodd" clip-rule="evenodd" d="M435.339 248.021H444V227.009H435.339V248.021Z" fill="#FF793A"/>
<path d="M526.898 249.258C526.898 249.258 527.268 258.259 535.559 260.382" stroke="#004ED1" stroke-linecap="round" stroke-linejoin="round"/>
<path fill-rule="evenodd" clip-rule="evenodd" d="M450.186 157.756C451.206 155.429 457.921 151.072 460.428 151.664C462.935 152.256 459.536 158.855 457.963 160.336C456.391 161.817 453.034 162.734 453.034 162.734" fill="white"/>
<path d="M450.186 157.756C451.206 155.429 457.921 151.072 460.428 151.664C462.935 152.256 459.536 158.855 457.963 160.336C456.391 161.817 453.034 162.734 453.034 162.734" stroke="#004ED1" stroke-linecap="round" stroke-linejoin="round"/>
<path d="M524.642 252.966C524.642 252.966 511.528 316.075 564.017 366.682" stroke="#004ED1" stroke-linecap="round" stroke-linejoin="round" stroke-dasharray="12 12"/>
<path d="M497.013 381.515C497.013 381.515 478.797 339.514 505.864 282.631" stroke="#004ED1" stroke-linecap="round" stroke-linejoin="round" stroke-dasharray="12 12"/>
<path fill-rule="evenodd" clip-rule="evenodd" d="M577.627 222.064L582.501 236.897H585.051L581.764 222.064H577.627Z" stroke="#004ED1" stroke-linecap="round" stroke-linejoin="round"/>
<path fill-rule="evenodd" clip-rule="evenodd" d="M403 148.941L421.17 145L422 147.187L405.577 154L403 148.941Z" fill="white"/>
<path fill-rule="evenodd" clip-rule="evenodd" d="M403 148.941L421.17 145L422 147.187L405.577 154L403 148.941Z" stroke="#004ED1" stroke-linecap="round" stroke-linejoin="round"/>
<path fill-rule="evenodd" clip-rule="evenodd" d="M424 92.057L430.806 108L433 107.33L429.436 91L424 92.057Z" fill="white"/>
<path fill-rule="evenodd" clip-rule="evenodd" d="M424 92.057L430.806 108L433 107.33L429.436 91L424 92.057Z" stroke="#004ED1" stroke-linecap="round" stroke-linejoin="round"/>
<path fill-rule="evenodd" clip-rule="evenodd" d="M415 120.639L414.413 123H396L397.172 116L415 120.639Z" fill="white"/>
<path fill-rule="evenodd" clip-rule="evenodd" d="M415 120.639L414.413 123H396L397.172 116L415 120.639Z" stroke="#004ED1" stroke-linecap="round" stroke-linejoin="round"/>
</g>
<mask id="mask1_2_115" style="mask-type:alpha" maskUnits="userSpaceOnUse" x="34" y="237" width="370" height="213">
<path d="M396 237H42C37.5817 237 34 240.582 34 245V442C34 446.418 37.5817 450 42 450H396C400.418 450 404 446.418 404 442V245C404 240.582 400.418 237 396 237Z" fill="white"/>
</mask>
<g mask="url(#mask1_2_115)">
<path d="M396 237H42C37.5817 237 34 240.582 34 245V442C34 446.418 37.5817 450 42 450H396C400.418 450 404 446.418 404 442V245C404 240.582 400.418 237 396 237Z" fill="white"/>
<path fill-rule="evenodd" clip-rule="evenodd" d="M113.687 352.89H72.3464C68.2986 352.89 65.0171 348.752 65.0171 343.648V329.664C65.0171 324.559 68.2986 320.421 72.3464 320.421H113.687C117.735 320.421 121.017 324.559 121.017 329.664V343.648C121.017 348.752 117.735 352.89 113.687 352.89Z" fill="#FF793A"/>
<path d="M87.2024 334.556C87.2024 335.636 86.9291 336.582 86.3824 337.396C85.8491 338.209 85.1291 338.789 84.2224 339.136L86.9824 343.656H84.3624L81.8024 339.456H79.5424V343.656H77.2424V329.656H82.4024C83.8024 329.656 84.9491 330.116 85.8424 331.036C86.7491 331.956 87.2024 333.129 87.2024 334.556ZM79.5424 331.716V337.396H82.2624C83.0224 337.396 83.6491 337.129 84.1424 336.596C84.6491 336.049 84.9024 335.369 84.9024 334.556C84.9024 333.742 84.6491 333.069 84.1424 332.536C83.6491 331.989 83.0224 331.716 82.2624 331.716H79.5424ZM101.208 341.876C99.9014 343.289 98.148 343.996 95.948 343.996C93.748 343.996 91.988 343.289 90.668 341.876C89.3614 340.462 88.708 338.722 88.708 336.656C88.708 334.589 89.3614 332.849 90.668 331.436C91.988 330.022 93.748 329.316 95.948 329.316C98.148 329.316 99.9014 330.022 101.208 331.436C102.528 332.849 103.188 334.589 103.188 336.656C103.188 338.722 102.528 340.462 101.208 341.876ZM92.388 340.436C93.2547 341.436 94.4414 341.936 95.948 341.936C97.4547 341.936 98.6347 341.436 99.488 340.436C100.355 339.422 100.781 338.162 100.768 336.656C100.781 335.149 100.355 333.896 99.488 332.896C98.6347 331.882 97.4547 331.376 95.948 331.376C94.4414 331.376 93.2547 331.882 92.388 332.896C91.5347 333.896 91.1147 335.149 91.128 336.656C91.1147 338.162 91.5347 339.422 92.388 340.436ZM105.387 343.656V329.656H107.687V343.656H105.387Z" fill="white"/>
<path fill-rule="evenodd" clip-rule="evenodd" d="M217.18 352.592C215.039 352.592 213.303 350.675 213.303 348.31V332.702C213.303 330.338 215.039 328.421 217.18 328.421C219.321 328.421 221.057 330.338 221.057 332.702V348.31C221.057 350.675 219.321 352.592 217.18 352.592Z" fill="#EBF1F9"/>
<path fill-rule="evenodd" clip-rule="evenodd" d="M232.689 352.591C230.548 352.591 228.812 350.668 228.812 348.296V320.632C228.812 318.259 230.548 316.336 232.689 316.336C234.83 316.336 236.566 318.259 236.566 320.632V348.296C236.566 350.668 234.83 352.591 232.689 352.591Z" fill="#FF793A"/>
<path fill-rule="evenodd" clip-rule="evenodd" d="M249.49 352.591C247.349 352.591 245.613 350.639 245.613 348.23V331.439C245.613 329.031 247.349 327.078 249.49 327.078C251.631 327.078 253.367 329.031 253.367 331.439V348.23C253.367 350.639 251.631 352.591 249.49 352.591Z" fill="#EBF1F9"/>
<path fill-rule="evenodd" clip-rule="evenodd" d="M264.999 352.591C262.858 352.591 261.121 350.673 261.121 348.306V311.221C261.121 308.854 262.858 306.936 264.999 306.936C267.14 306.936 268.876 308.854 268.876 311.221V348.306C268.876 350.673 267.14 352.591 264.999 352.591Z" fill="#FF793A"/>
<path fill-rule="evenodd" clip-rule="evenodd" d="M279.215 352.591C277.074 352.591 275.338 350.663 275.338 348.284V300.501C275.338 298.122 277.074 296.194 279.215 296.194C281.356 296.194 283.092 298.122 283.092 300.501V348.284C283.092 350.663 281.356 352.591 279.215 352.591Z" fill="#EBF1F9"/>
<path fill-rule="evenodd" clip-rule="evenodd" d="M290.846 348.296V300.49C290.846 298.117 292.583 296.194 294.724 296.194C296.865 296.194 298.601 298.117 298.601 300.49V348.296C298.601 350.668 296.865 352.591 294.724 352.591C292.583 352.591 290.846 350.668 290.846 348.296Z" fill="#FF793A"/>
<path fill-rule="evenodd" clip-rule="evenodd" d="M310.232 352.592C308.091 352.592 306.355 350.701 306.355 348.37V338.014C306.355 335.682 308.091 333.792 310.232 333.792C312.373 333.792 314.11 335.682 314.11 338.014V348.37C314.11 350.701 312.373 352.592 310.232 352.592Z" fill="#EBF1F9"/>
<path fill-rule="evenodd" clip-rule="evenodd" d="M321.864 348.191V288.509C321.864 286.079 323.6 284.108 325.741 284.108C327.882 284.108 329.618 286.079 329.618 288.509V348.191C329.618 350.621 327.882 352.592 325.741 352.592C323.6 352.592 321.864 350.621 321.864 348.191Z" fill="#FF793A"/>
<path fill-rule="evenodd" clip-rule="evenodd" d="M339.958 352.592C337.816 352.592 336.08 350.675 336.08 348.31V332.702C336.08 330.338 337.816 328.421 339.958 328.421C342.099 328.421 343.835 330.338 343.835 332.702V348.31C343.835 350.675 342.099 352.592 339.958 352.592Z" fill="#EBF1F9"/>
<path fill-rule="evenodd" clip-rule="evenodd" d="M351.589 348.208V277.75C351.589 275.329 353.325 273.366 355.466 273.366C357.607 273.366 359.343 275.329 359.343 277.75V348.208C359.343 350.629 357.607 352.592 355.466 352.592C353.325 352.592 351.589 350.629 351.589 348.208Z" fill="#FF793A"/>
<path fill-rule="evenodd" clip-rule="evenodd" d="M367.098 348.317V307.106C367.098 304.745 368.834 302.832 370.975 302.832C373.116 302.832 374.852 304.745 374.852 307.106V348.317C374.852 350.678 373.116 352.591 370.975 352.591C368.834 352.591 367.098 350.678 367.098 348.317Z" fill="#EBF1F9"/>
<path d="M66.8171 292.399V275.599H69.4571L74.8331 288.463L80.1851 275.599H82.8251V292.399H80.1851V281.287L75.8651 292.399H73.7771L69.4571 281.167V292.399H66.8171ZM90.9702 292.687C89.2262 292.687 87.8742 292.135 86.9142 291.031C85.9542 289.927 85.4742 288.519 85.4742 286.807C85.4742 285.111 85.9782 283.711 86.9862 282.607C87.9942 281.487 89.3462 280.927 91.0422 280.927C91.7942 280.927 92.4822 281.087 93.1062 281.407C93.7302 281.727 94.2102 282.167 94.5462 282.727V281.215H97.1622V292.399H94.5462V290.887C94.2262 291.431 93.7222 291.871 93.0342 292.207C92.3622 292.527 91.6742 292.687 90.9702 292.687ZM91.3542 290.359C92.4262 290.359 93.2422 290.023 93.8022 289.351C94.3782 288.679 94.6662 287.831 94.6662 286.807C94.6662 285.783 94.3782 284.935 93.8022 284.263C93.2422 283.591 92.4262 283.255 91.3542 283.255C90.3462 283.255 89.5462 283.591 88.9542 284.263C88.3782 284.919 88.0902 285.767 88.0902 286.807C88.0902 287.847 88.3782 288.703 88.9542 289.375C89.5462 290.031 90.3462 290.359 91.3542 290.359ZM100.517 292.399V281.215H103.133V283.375C103.325 282.623 103.701 282.055 104.261 281.671C104.821 281.271 105.437 281.071 106.109 281.071C106.541 281.071 106.885 281.103 107.141 281.167V283.567C106.869 283.535 106.525 283.519 106.109 283.519C105.181 283.519 104.453 283.863 103.925 284.551C103.397 285.223 103.133 286.191 103.133 287.455V292.399H100.517ZM119.458 281.215L114.61 286.567L119.458 292.399H116.026L111.922 287.311V292.399H109.306V275.599H111.922V286.111L116.146 281.215H119.458ZM130.661 286.231C130.661 286.519 130.637 286.999 130.589 287.671H122.285C122.317 288.551 122.605 289.231 123.149 289.711C123.693 290.175 124.445 290.407 125.405 290.407C126.637 290.407 127.469 289.983 127.901 289.135H130.541C130.365 290.175 129.797 291.031 128.837 291.703C127.893 292.359 126.749 292.687 125.405 292.687C123.645 292.687 122.253 292.159 121.229 291.103C120.205 290.047 119.693 288.615 119.693 286.807C119.693 285.015 120.197 283.591 121.205 282.535C122.229 281.463 123.597 280.927 125.309 280.927C126.909 280.927 128.197 281.423 129.173 282.415C130.165 283.391 130.661 284.663 130.661 286.231ZM122.285 285.679H128.093C128.077 284.815 127.821 284.151 127.325 283.687C126.845 283.223 126.157 282.991 125.261 282.991C124.349 282.991 123.629 283.239 123.101 283.735C122.573 284.231 122.301 284.879 122.285 285.679ZM138.136 290.191C138.664 290.191 139.104 290.159 139.456 290.095V292.399C138.912 292.495 138.264 292.543 137.512 292.543C137.08 292.543 136.704 292.511 136.384 292.447C136.064 292.383 135.688 292.239 135.256 292.015C134.824 291.775 134.488 291.367 134.248 290.791C134.008 290.215 133.888 289.487 133.888 288.607V283.399H131.992V281.215H133.888V277.831H136.504V281.215H139.072V283.399H136.504V288.007C136.504 288.903 136.632 289.495 136.888 289.783C137.144 290.055 137.56 290.191 138.136 290.191ZM144.573 279.055C144.205 279.423 143.741 279.607 143.181 279.607C142.621 279.607 142.157 279.423 141.789 279.055C141.421 278.671 141.237 278.207 141.237 277.663C141.237 277.119 141.421 276.663 141.789 276.295C142.157 275.911 142.621 275.719 143.181 275.719C143.741 275.719 144.205 275.911 144.573 276.295C144.941 276.663 145.125 277.119 145.125 277.663C145.125 278.207 144.941 278.671 144.573 279.055ZM141.861 292.399V281.215H144.477V292.399H141.861ZM147.838 292.399V281.215H150.454V282.775C151.174 281.543 152.39 280.927 154.102 280.927C156.822 280.927 158.182 282.407 158.182 285.367V292.399H155.566V286.567C155.566 285.351 155.382 284.479 155.014 283.951C154.646 283.423 154.014 283.159 153.118 283.159C152.27 283.159 151.614 283.431 151.15 283.975C150.686 284.503 150.454 285.263 150.454 286.255V292.399H147.838ZM169.663 281.215H172.279V291.919C172.279 294.159 171.607 295.767 170.263 296.743C169.383 297.399 168.103 297.727 166.423 297.727C164.791 297.727 163.479 297.391 162.487 296.719C161.351 295.951 160.759 294.935 160.711 293.671H163.447C163.687 294.935 164.671 295.567 166.399 295.567C167.503 295.567 168.319 295.295 168.847 294.751C169.391 294.223 169.663 293.343 169.663 292.111V290.887C169.343 291.431 168.839 291.871 168.151 292.207C167.479 292.527 166.791 292.687 166.087 292.687C164.391 292.687 163.047 292.135 162.055 291.031C161.079 289.911 160.591 288.503 160.591 286.807C160.591 285.127 161.103 283.727 162.127 282.607C163.167 281.487 164.511 280.927 166.159 280.927C166.911 280.927 167.599 281.087 168.223 281.407C168.847 281.727 169.327 282.167 169.663 282.727V281.215ZM166.471 290.359C167.495 290.359 168.303 290.023 168.895 289.351C169.487 288.663 169.783 287.815 169.783 286.807C169.783 285.799 169.487 284.959 168.895 284.287C168.303 283.599 167.495 283.255 166.471 283.255C165.495 283.255 164.703 283.591 164.095 284.263C163.503 284.919 163.207 285.767 163.207 286.807C163.207 287.847 163.503 288.703 164.095 289.375C164.703 290.031 165.495 290.359 166.471 290.359Z" fill="#004ED1"/>
<path d="M178.4 421.745C189.998 421.745 199.4 412.08 199.4 400.156C199.4 388.233 189.998 378.567 178.4 378.567C166.802 378.567 157.4 388.233 157.4 400.156C157.4 412.08 166.802 421.745 178.4 421.745Z" stroke="#004ED1" stroke-width="2"/>
<path d="M184.643 392.167H180.745C180.298 392.167 179.774 392.767 179.774 393.583V396.385H184.643L183.904 400.387H179.774V412.41H175.182V400.387H171.022V396.385H175.182V394.03C175.182 390.659 177.524 387.903 180.745 387.903H184.643V392.167Z" fill="#004ED1"/>
<path opacity="0.800991" d="M381.201 399.997H408.56" stroke="#004ED1" stroke-width="0.5" stroke-linecap="square" stroke-dasharray="3 3"/>
<path d="M65.134 400.156C65.134 412.08 74.536 421.745 86.134 421.745C97.732 421.745 107.134 412.08 107.134 400.156C107.134 388.233 97.732 378.567 86.134 378.567C74.536 378.567 65.134 388.233 65.134 400.156Z" stroke="#004ED1" stroke-width="2"/>
<path d="M85.9276 394.162C82.677 394.162 79.8907 396.867 79.8907 400.368C79.8907 403.71 82.5222 406.575 85.9276 406.575C89.1782 406.575 91.9644 403.869 91.9644 400.368C91.9644 397.027 89.1782 394.162 85.9276 394.162ZM85.9276 404.347C83.7605 404.347 82.0578 402.596 82.0578 400.368C82.0578 398.14 83.7605 396.39 85.9276 396.39C88.0946 396.39 89.7974 398.14 89.7974 400.368C89.7974 402.596 88.0946 404.347 85.9276 404.347ZM92.1192 392.571C91.3453 392.571 90.7261 393.207 90.7261 394.003C90.7261 394.799 91.3453 395.435 92.1192 395.435C92.8932 395.435 93.5123 394.799 93.5123 394.003C93.5123 393.207 92.8932 392.571 92.1192 392.571Z" fill="#004ED1"/>
<path d="M91.7231 388.024H91.0908C89.1938 387.863 83.1865 387.863 81.2894 388.024C77.6534 387.863 74.4917 390.774 74.3336 394.495V395.142C74.1755 397.083 74.1755 403.23 74.3336 405.171C74.1755 408.891 77.0211 412.127 80.6571 412.288H81.2894C83.1865 412.45 89.1938 412.45 91.0908 412.288C94.7268 412.45 97.8885 409.538 98.0466 405.818V405.171V395.142C98.2047 391.421 95.3591 388.186 91.7231 388.024ZM95.5172 407.274C95.043 408.406 94.2525 409.215 93.304 409.538C88.7195 410.185 83.9769 410.185 79.2343 409.538C78.1277 409.053 77.3373 408.244 77.0211 407.274C76.5468 404.847 76.3887 402.421 76.5468 400.156C76.3887 397.73 76.5468 395.304 77.0211 393.039C77.4954 391.907 78.2858 391.098 79.2343 390.774C83.8188 390.127 88.5614 390.127 93.304 390.774C94.4106 391.26 95.2011 392.068 95.5172 393.039C95.9915 395.465 96.1496 397.892 95.9915 400.156C96.1496 402.583 95.9915 405.009 95.5172 407.274Z" fill="#004ED1"/>
<path d="M270.199 421.745C281.797 421.745 291.199 412.08 291.199 400.156C291.199 388.233 281.797 378.567 270.199 378.567C258.601 378.567 249.199 388.233 249.199 400.156C249.199 412.08 258.601 421.745 270.199 421.745Z" stroke="#004ED1" stroke-width="2"/>
<path d="M282.958 397.329C282.794 396.542 282.56 395.771 282.26 395.028C280.296 390.165 275.63 386.736 270.199 386.736C266.944 386.736 263.966 387.97 261.677 390.003C261.089 390.525 260.546 391.099 260.057 391.719C258.238 394.026 257.145 396.962 257.145 400.156C257.145 406.059 260.872 411.08 266.033 412.872C266.763 413.125 267.521 413.316 268.302 413.433C268.921 413.526 269.554 413.577 270.199 413.577C277.397 413.577 283.253 407.556 283.253 400.156C283.253 399.186 283.15 398.241 282.958 397.329ZM270.199 389.037C274.364 389.037 277.985 391.472 279.791 395.028H270.054V395.038C268.29 395.107 266.764 396.144 265.972 397.651L262.82 392.037C264.754 390.178 267.348 389.037 270.199 389.037ZM272.851 400.013C272.851 401.492 271.68 402.697 270.24 402.697C268.801 402.697 267.629 401.492 267.629 400.013C267.629 398.533 268.801 397.329 270.24 397.329C271.68 397.329 272.851 398.533 272.851 400.013ZM259.382 400.156C259.382 397.831 260.081 395.671 261.273 393.885L265.721 401.805C266.423 403.669 268.182 404.997 270.24 404.997C270.315 404.997 270.388 404.989 270.462 404.986L267.179 410.832C262.68 409.484 259.382 405.21 259.382 400.156ZM270.199 411.276C269.973 411.276 269.749 411.266 269.526 411.252L274.386 402.598C274.397 402.579 274.403 402.56 274.412 402.541C274.839 401.798 275.089 400.936 275.089 400.013C275.089 399.024 274.804 398.104 274.319 397.329H280.659C280.896 398.251 281.015 399.202 281.015 400.156C281.015 406.288 276.163 411.276 270.199 411.276Z" fill="#004ED1"/>
<path opacity="0.800991" d="M111.501 399.997H154.494" stroke="#004ED1" stroke-width="0.5" stroke-linecap="square" stroke-dasharray="3 3"/>
<path opacity="0.800991" d="M199.625 399.997H243.921" stroke="#004ED1" stroke-width="0.5" stroke-linecap="square" stroke-dasharray="3 3"/>
<path opacity="0.800991" d="M293.912 399.997H330.391" stroke="#004ED1" stroke-width="0.5" stroke-linecap="square" stroke-dasharray="3 3"/>
<g opacity="0.284203" filter="url(#filter2_f_2_115)">
<path opacity="0.284203" d="M368.238 421.194C380.073 414.083 383.903 398.724 376.791 386.889C369.68 375.054 354.321 371.225 342.486 378.336C330.651 385.447 326.822 400.806 333.933 412.641C341.044 424.476 356.403 428.305 368.238 421.194Z" fill="#151415"/>
</g>
<path d="M368.238 421.194C380.073 414.083 383.903 398.724 376.791 386.889C369.68 375.054 354.321 371.225 342.486 378.336C330.651 385.447 326.822 400.806 333.933 412.641C341.044 424.476 356.403 428.305 368.238 421.194Z" fill="white" stroke="#004ED1" stroke-width="2"/>
<path d="M359.586 385.14C357.187 386.579 354.05 385.759 352.577 383.308L348.231 385.92L358.903 403.681C360.376 406.133 359.626 409.29 357.227 410.731C354.828 412.173 351.689 411.353 350.215 408.901C348.742 406.449 349.492 403.292 351.891 401.851L353.339 400.981L350.671 396.54L349.223 397.41C345.709 399.522 343.841 403.589 344.491 407.715C345.14 411.841 348.178 415.214 352.189 416.261C356.2 417.308 360.393 415.823 362.813 412.498C365.233 409.173 365.404 404.663 363.246 401.071L357.19 390.992C358.98 390.981 360.727 390.495 362.254 389.581L363.702 388.711L361.034 384.27L359.586 385.14Z" fill="#004ED1"/>
</g>
<defs>
<filter id="filter0_i_2_115" x="354" y="20" width="253" height="484" filterUnits="userSpaceOnUse" color-interpolation-filters="sRGB">
<feFlood flood-opacity="0" result="BackgroundImageFix"/>
<feBlend mode="normal" in="SourceGraphic" in2="BackgroundImageFix" result="shape"/>
<feColorMatrix in="SourceAlpha" type="matrix" values="0 0 0 0 0 0 0 0 0 0 0 0 0 0 0 0 0 0 127 0" result="hardAlpha"/>
<feOffset dy="4"/>
<feGaussianBlur stdDeviation="12"/>
<feComposite in2="hardAlpha" operator="arithmetic" k2="-1" k3="1"/>
<feColorMatrix type="matrix" values="0 0 0 0 0 0 0 0 0 0 0 0 0 0 0 0 0 0 0.15 0"/>
<feBlend mode="normal" in2="shape" result="effect1_innerShadow_2_115"/>
</filter>
<filter id="filter1_d_2_115" x="10" y="217" width="418" height="261" filterUnits="userSpaceOnUse" color-interpolation-filters="sRGB">
<feFlood flood-opacity="0" result="BackgroundImageFix"/>
<feColorMatrix in="SourceAlpha" type="matrix" values="0 0 0 0 0 0 0 0 0 0 0 0 0 0 0 0 0 0 127 0" result="hardAlpha"/>
<feOffset dy="4"/>
<feGaussianBlur stdDeviation="12"/>
<feComposite in2="hardAlpha" operator="out"/>
<feColorMatrix type="matrix" values="0 0 0 0 0 0 0 0 0 0 0 0 0 0 0 0 0 0 0.15 0"/>
<feBlend mode="normal" in2="BackgroundImageFix" result="effect1_dropShadow_2_115"/>
<feBlend mode="normal" in="SourceGraphic" in2="effect1_dropShadow_2_115" result="shape"/>
</filter>
<filter id="filter2_f_2_115" x="320.358" y="364.761" width="70.0075" height="70.0071" filterUnits="userSpaceOnUse" color-interpolation-filters="sRGB">
<feFlood flood-opacity="0" result="BackgroundImageFix"/>
<feBlend mode="normal" in="SourceGraphic" in2="BackgroundImageFix" result="shape"/>
<feGaussianBlur stdDeviation="5" result="effect1_foregroundBlur_2_115"/>
</filter>
</defs>
</svg>
