<svg width="660" height="480" viewBox="0 0 660 480" fill="none" xmlns="http://www.w3.org/2000/svg">
<g filter="url(#filter0_d_2_76)">
<rect x="46" y="58" width="204" height="341" rx="10" fill="white"/>
</g>
<path d="M184.957 261.681H109.706C107.433 261.681 105.592 263.523 105.592 265.795C105.592 268.067 107.433 269.909 109.706 269.909H184.957C187.229 269.909 189.071 268.067 189.071 265.795C189.071 263.523 187.229 261.681 184.957 261.681Z" fill="#EEF0F1"/>
<path d="M184.957 305.563H109.706C107.433 305.563 105.592 307.405 105.592 309.677C105.592 311.949 107.433 313.791 109.706 313.791H184.957C187.229 313.791 189.071 311.949 189.071 309.677C189.071 307.405 187.229 305.563 184.957 305.563Z" fill="#EEF0F1"/>
<path d="M202.485 239.74H91.789C89.5169 239.74 87.675 241.582 87.675 243.854C87.675 246.126 89.5169 247.968 91.789 247.968H202.485C204.757 247.968 206.599 246.126 206.599 243.854C206.599 241.582 204.757 239.74 202.485 239.74Z" fill="#EEF0F1"/>
<path d="M220.535 283.622H75.3226C73.0506 283.622 71.2087 285.464 71.2087 287.736C71.2087 290.008 73.0506 291.85 75.3226 291.85H220.535C222.808 291.85 224.649 290.008 224.649 287.736C224.649 285.464 222.808 283.622 220.535 283.622Z" fill="#EEF0F1"/>
<path d="M133.652 216.799V214.55H123.854C123.982 213.489 124.275 212.653 124.732 212.04C125.19 211.428 125.995 210.811 127.148 210.189L130.002 208.681C132.417 207.364 133.624 205.49 133.624 203.058C133.624 201.449 133.094 200.178 132.033 199.246C130.971 198.313 129.535 197.847 127.724 197.847C125.784 197.847 124.234 198.437 123.072 199.616C121.91 200.795 121.329 202.373 121.329 204.347H123.909C123.909 202.976 124.243 201.915 124.911 201.166C125.579 200.416 126.516 200.041 127.724 200.041C128.694 200.041 129.48 200.329 130.084 200.905C130.688 201.481 130.99 202.235 130.99 203.168C130.99 204.868 130.13 206.166 128.41 207.062L125.556 208.543C123.891 209.421 122.702 210.5 121.988 211.78C121.274 213.06 120.918 214.733 120.918 216.799H133.652ZM146.852 216.799V210.765H149.761V208.516H146.852V203.003H144.382V208.516H139.36V198.149H136.863V210.765H144.382V216.799H146.852ZM154.756 216.991C155.305 216.991 155.776 216.794 156.169 216.401C156.563 216.008 156.76 215.537 156.76 214.989C156.76 214.44 156.563 213.969 156.169 213.576C155.776 213.183 155.305 212.986 154.756 212.986C154.189 212.986 153.713 213.183 153.329 213.576C152.945 213.969 152.753 214.44 152.753 214.989C152.753 215.537 152.945 216.008 153.329 216.401C153.713 216.794 154.189 216.991 154.756 216.991ZM166.722 217.1C168.679 217.1 170.262 216.47 171.469 215.208C172.677 213.946 173.281 212.347 173.281 210.408C173.281 208.507 172.75 206.994 171.689 205.869C170.628 204.745 169.201 204.183 167.408 204.183C165.45 204.183 163.996 204.823 163.044 206.102V200.37H172.128V198.149H160.766V208.598H163.099C163.465 207.757 163.964 207.149 164.595 206.774C165.226 206.4 166.054 206.212 167.078 206.212C168.249 206.212 169.173 206.596 169.85 207.364C170.527 208.132 170.866 209.174 170.866 210.491C170.866 211.844 170.5 212.913 169.768 213.7C169.036 214.486 168.03 214.879 166.749 214.879C165.67 214.879 164.778 214.614 164.073 214.084C163.369 213.553 162.989 212.84 162.934 211.944H160.41C160.501 213.462 161.132 214.701 162.303 215.661C163.474 216.62 164.947 217.1 166.722 217.1Z" fill="#FF793A"/>
<path d="M112.595 209.668V207.959C113.776 207.838 114.711 207.432 115.402 206.742C116.093 206.051 116.439 205.17 116.439 204.097C116.439 202.247 115.58 201.06 113.863 200.537L111.508 199.813C110.717 199.585 110.146 199.277 109.798 198.888C109.449 198.499 109.274 198.003 109.274 197.399C109.274 196.783 109.485 196.283 109.908 195.901C110.331 195.519 110.925 195.328 111.689 195.328C112.508 195.328 113.145 195.559 113.601 196.022C114.057 196.484 114.292 197.138 114.306 197.983H116.137C116.124 196.843 115.802 195.904 115.171 195.167C114.54 194.429 113.682 193.98 112.595 193.819V191.969H111.267V193.779C110.113 193.873 109.184 194.275 108.479 194.986C107.775 195.697 107.423 196.535 107.423 197.5C107.423 198.452 107.668 199.25 108.157 199.893C108.647 200.537 109.355 200.993 110.281 201.261L112.555 201.885C113.266 202.112 113.786 202.404 114.114 202.759C114.443 203.115 114.607 203.574 114.607 204.137C114.607 204.848 114.376 205.398 113.913 205.786C113.45 206.175 112.796 206.37 111.951 206.37C110.971 206.37 110.207 206.085 109.657 205.515C109.107 204.945 108.831 204.177 108.831 203.212H107C107 204.58 107.372 205.679 108.117 206.51C108.862 207.342 109.912 207.818 111.267 207.938V209.668H112.595Z" fill="#FF793A"/>
<mask id="mask0_2_76" style="mask-type:alpha" maskUnits="userSpaceOnUse" x="112" y="108" width="70" height="71">
<path d="M168.265 117.448C151.798 101.193 137.773 108.585 135.332 120.969C132.891 133.353 110.22 135.826 113.019 150.453C115.818 165.081 146.31 156.396 146.31 169.652C146.31 182.908 181.564 182.451 181.564 165.081C181.564 147.711 184.731 133.703 168.265 117.448Z" fill="white"/>
</mask>
<g mask="url(#mask0_2_76)">
<path d="M168.265 117.448C151.798 101.193 137.773 108.585 135.332 120.969C132.891 133.353 110.22 135.826 113.019 150.453C115.818 165.081 146.31 156.396 146.31 169.652C146.31 182.908 181.564 182.451 181.564 165.081C181.564 147.711 184.731 133.703 168.265 117.448Z" fill="white" fill-opacity="0.3"/>
<path opacity="0.2" d="M182.305 108.094H112.78V179.402H182.305V108.094Z" fill="#83BCED"/>
</g>
<path d="M130.972 155.791H142.804L147.298 149.458H135.467L130.972 155.791ZM83 151.954V153.296H99.4878L100.435 151.954H83ZM117.85 149.458C116.097 149.458 116.641 148.703 116.923 148.305C117.487 147.508 118.455 146.124 119.019 145.348C119.584 144.572 119.584 144.11 118.455 144.11H108.175L99.8909 155.812H120.067C126.739 155.812 130.448 151.094 131.597 149.458H117.85ZM181.846 148.011L189.768 136.812H177.23L169.309 148.011H181.846ZM102.209 149.458H83V150.8H101.262L102.209 149.458ZM124.582 143.88C124.018 144.676 123.071 146.061 122.506 146.858C122.224 147.277 121.68 148.011 123.433 148.011H132.625C132.625 148.011 134.096 145.914 135.346 144.152C137.039 141.761 135.487 136.812 129.46 136.812H105.696L101.584 142.642H124.038C125.167 142.642 125.147 143.104 124.582 143.88ZM83 155.791H97.7342L98.6816 154.449H83V155.791ZM148.105 155.791H159.936L164.431 149.458H152.6C152.579 149.458 148.105 155.791 148.105 155.791ZM192.852 155.812H212V154.47H193.799L192.852 155.812ZM197.346 149.458L196.399 150.8H212V149.458H197.346ZM194.625 153.296H212V151.954H195.573L194.625 153.296ZM161.529 136.812L156.994 143.229H151.713L156.248 136.812H144.416L136.495 148.011H165.439L173.36 136.812H161.529ZM168.281 149.458C168.281 149.458 167.414 150.695 166.991 151.282C165.5 153.38 166.81 155.812 171.667 155.812H190.675L195.17 149.458H168.281Z" fill="#004ED1"/>
<path d="M198 337H100C97.2386 337 95 339.239 95 342V358C95 360.761 97.2386 363 100 363H198C200.761 363 203 360.761 203 358V342C203 339.239 200.761 337 198 337Z" stroke="#004ED1"/>
<path d="M128.386 345.189L127.847 345.706C128.628 346.322 129.244 346.905 129.695 347.455L130.245 346.905C129.739 346.333 129.123 345.761 128.386 345.189ZM134.777 354.902H137.329L137.527 354.11C137.23 354.132 136.812 354.143 136.284 354.154C135.734 354.165 135.195 354.176 134.667 354.176C133.809 354.176 133.083 354.165 132.511 354.154C131.851 354.132 131.356 354.044 131.015 353.89C130.707 353.747 130.421 353.516 130.157 353.197C130.069 353.098 129.981 353.01 129.893 352.944V348.83H127.594V349.556H129.156V352.9C128.694 353.098 128.177 353.67 127.583 354.605L128.177 355.144C128.793 354.11 129.233 353.604 129.508 353.604C129.64 353.604 129.783 353.692 129.937 353.879C130.278 354.275 130.663 354.55 131.092 354.682C131.532 354.803 132.115 354.869 132.819 354.88C133.523 354.891 134.183 354.902 134.777 354.902ZM133.831 344.98V346.388H132.379C132.511 346.036 132.632 345.673 132.742 345.288L131.983 345.134C131.719 346.124 131.29 347.037 130.696 347.862L131.389 348.291C131.631 347.939 131.851 347.565 132.049 347.147H133.831V348.72H130.971V349.49H132.742C132.709 350.172 132.599 350.766 132.412 351.25C132.126 351.91 131.543 352.46 130.652 352.9L131.169 353.527C132.203 352.988 132.874 352.295 133.16 351.459C133.347 350.909 133.457 350.249 133.49 349.49H134.601V352.614C134.601 352.856 134.667 353.054 134.821 353.208C134.964 353.362 135.173 353.439 135.459 353.439H136.251C136.625 353.428 136.889 353.34 137.043 353.186C137.208 353.01 137.329 352.471 137.395 351.558L136.702 351.327C136.658 352.108 136.57 352.548 136.438 352.647C136.35 352.713 136.24 352.746 136.086 352.746H135.69C135.448 352.746 135.338 352.636 135.338 352.438V349.49H137.186V348.72H134.601V347.147H136.801V346.388H134.601V344.98H133.831ZM142.543 345.453V346.168H143.093C143.401 347.004 143.896 347.697 144.589 348.258C143.907 348.588 143.093 348.852 142.158 349.072L142.532 349.743C143.599 349.479 144.523 349.149 145.293 348.731C146.085 349.193 147.097 349.512 148.307 349.677L148.593 348.973C147.592 348.841 146.734 348.61 146.03 348.28C146.866 347.686 147.438 346.971 147.757 346.113V345.453H142.543ZM143.874 346.168H146.921C146.58 346.828 146.041 347.389 145.293 347.862C144.644 347.422 144.171 346.85 143.874 346.168ZM139.782 355.001C140.431 355.001 140.761 354.682 140.761 354.044V350.887C141.19 350.711 141.608 350.524 142.015 350.326V349.523C141.597 349.732 141.179 349.93 140.761 350.106V347.884H141.993V347.125H140.761V345.046H139.947V347.125H138.605V347.884H139.947V350.403C139.452 350.568 138.946 350.711 138.429 350.832L138.627 351.624C139.067 351.492 139.507 351.349 139.947 351.195V353.835C139.947 354.121 139.793 354.275 139.507 354.275C139.232 354.275 138.946 354.253 138.66 354.231L138.825 355.001H139.782ZM142.73 350.535V351.261H144.93V352.515H142.169V353.252H144.93V354.99H145.7V353.252H148.428V352.515H145.7V351.261H147.867V350.535H145.7V349.567H144.93V350.535H142.73ZM149.715 346.641V347.4H152.784C152.773 347.774 152.751 348.302 152.718 348.995C152.663 350.04 152.454 350.986 152.08 351.833C151.695 352.68 150.914 353.593 149.748 354.583L150.32 355.133C151.288 354.352 152.036 353.494 152.575 352.548C152.971 351.822 153.246 351.019 153.389 350.128H157.239C157.217 351.646 157.184 352.647 157.118 353.109C156.986 353.879 156.645 354.275 156.084 354.297C155.699 354.297 155.226 354.286 154.654 354.264L154.896 354.979C155.38 355.001 155.809 355.023 156.161 355.023C157.03 354.99 157.569 354.506 157.789 353.571C157.932 352.955 158.02 351.558 158.042 349.38H153.477V349.358L153.576 347.4H159.373V346.641H155.259C154.995 345.992 154.709 345.431 154.401 344.969L153.653 345.244C153.972 345.684 154.236 346.157 154.456 346.641H149.715ZM164.752 346.773C164.532 347.081 164.29 347.4 164.037 347.719H161.133V348.357H163.52C163.256 348.665 162.981 348.973 162.695 349.303C163.454 349.446 164.213 349.611 164.983 349.809C164.015 350.117 162.695 350.271 161.023 350.271L161.452 350.92C163.322 350.898 164.829 350.612 165.984 350.073C167.095 350.37 168.206 350.711 169.306 351.107L169.768 350.502C168.745 350.161 167.744 349.864 166.776 349.622C167.227 349.292 167.645 348.874 168.041 348.357H169.889V347.719H164.906C165.082 347.488 165.269 347.246 165.467 346.982L164.752 346.773ZM165.896 349.402C165.203 349.226 164.521 349.083 163.85 348.973C164.015 348.797 164.202 348.588 164.4 348.357H167.194C166.864 348.753 166.424 349.094 165.896 349.402ZM169.922 345.882H165.929C165.797 345.552 165.665 345.244 165.511 344.969L164.686 345.101C164.851 345.343 165.005 345.596 165.148 345.882H161.078V347.433H161.826V346.553H169.174V347.433H169.922V345.882ZM160.792 351.558V352.262H164.411C163.729 352.966 162.475 353.593 160.649 354.143L161.089 354.847C163.069 354.121 164.411 353.263 165.115 352.273V355.078H165.929V352.306C166.743 353.318 168.107 354.143 170.021 354.77L170.362 354.077C168.679 353.626 167.436 353.021 166.644 352.262H170.219V351.558H165.929V350.7H165.115V351.558H160.792Z" fill="#004ED1"/>
<g filter="url(#filter1_d_2_76)">
<rect x="416" y="61" width="204" height="341" rx="10" fill="white"/>
</g>
<path d="M555.957 261.681H480.706C478.434 261.681 476.592 263.523 476.592 265.795C476.592 268.067 478.434 269.909 480.706 269.909H555.957C558.229 269.909 560.071 268.067 560.071 265.795C560.071 263.523 558.229 261.681 555.957 261.681Z" fill="#EEF0F1"/>
<path d="M555.957 305.563H480.706C478.434 305.563 476.592 307.405 476.592 309.677C476.592 311.949 478.434 313.791 480.706 313.791H555.957C558.229 313.791 560.071 311.949 560.071 309.677C560.071 307.405 558.229 305.563 555.957 305.563Z" fill="#EEF0F1"/>
<path d="M573.485 239.74H462.789C460.517 239.74 458.675 241.582 458.675 243.854C458.675 246.126 460.517 247.968 462.789 247.968H573.485C575.757 247.968 577.599 246.126 577.599 243.854C577.599 241.582 575.757 239.74 573.485 239.74Z" fill="#EEF0F1"/>
<path d="M591.535 283.622H446.323C444.051 283.622 442.209 285.464 442.209 287.736C442.209 290.008 444.051 291.85 446.323 291.85H591.535C593.808 291.85 595.649 290.008 595.649 287.736C595.649 285.464 593.808 283.622 591.535 283.622Z" fill="#EEF0F1"/>
<path d="M511.91 217.799V215.55H502.112C502.24 214.489 502.533 213.653 502.99 213.04C503.448 212.428 504.253 211.811 505.406 211.189L508.26 209.681C510.675 208.364 511.882 206.49 511.882 204.058C511.882 202.449 511.352 201.178 510.291 200.246C509.229 199.313 507.793 198.847 505.982 198.847C504.043 198.847 502.492 199.437 501.33 200.616C500.168 201.795 499.587 203.373 499.587 205.347H502.167C502.167 203.976 502.501 202.915 503.169 202.166C503.837 201.416 504.774 201.041 505.982 201.041C506.952 201.041 507.738 201.329 508.342 201.905C508.946 202.481 509.248 203.235 509.248 204.168C509.248 205.868 508.388 207.166 506.668 208.062L503.814 209.543C502.149 210.421 500.96 211.5 500.246 212.78C499.533 214.06 499.176 215.733 499.176 217.799H511.91ZM521.104 218.128C523.116 218.128 524.722 217.492 525.92 216.222C527.118 214.951 527.717 213.365 527.717 211.463C527.717 209.562 527.118 207.98 525.92 206.719C524.722 205.457 523.116 204.826 521.104 204.826C520.774 204.826 520.536 204.835 520.39 204.854L524.589 199.149H521.597L515.724 207.432C514.919 208.602 514.517 209.946 514.517 211.463C514.517 213.365 515.116 214.951 516.315 216.222C517.513 217.492 519.109 218.128 521.104 218.128ZM521.104 215.989C519.804 215.989 518.78 215.568 518.03 214.727C517.28 213.868 516.905 212.78 516.905 211.463C516.905 210.165 517.28 209.091 518.03 208.241C518.78 207.39 519.804 206.965 521.104 206.965C522.403 206.965 523.432 207.39 524.191 208.241C524.95 209.091 525.33 210.165 525.33 211.463C525.33 212.78 524.95 213.863 524.191 214.713C523.432 215.563 522.403 215.989 521.104 215.989ZM532.85 217.991C533.398 217.991 533.87 217.794 534.263 217.401C534.656 217.008 534.853 216.537 534.853 215.989C534.853 215.44 534.656 214.969 534.263 214.576C533.87 214.183 533.398 213.986 532.85 213.986C532.282 213.986 531.807 214.183 531.422 214.576C531.038 214.969 530.846 215.44 530.846 215.989C530.846 216.537 531.038 217.008 531.422 217.401C531.807 217.794 532.282 217.991 532.85 217.991ZM541.192 217.799L550.853 199.149H538.009V201.453H547.093L538.421 217.799H541.192Z" fill="#FF793A"/>
<path d="M491.722 210.668V208.959C492.903 208.838 493.839 208.432 494.53 207.742C495.221 207.051 495.566 206.17 495.566 205.097C495.566 203.247 494.707 202.06 492.99 201.537L490.635 200.813C489.844 200.585 489.273 200.277 488.925 199.888C488.576 199.499 488.401 199.003 488.401 198.399C488.401 197.783 488.613 197.283 489.035 196.901C489.458 196.519 490.052 196.328 490.816 196.328C491.635 196.328 492.272 196.559 492.728 197.022C493.184 197.484 493.419 198.138 493.433 198.983H495.264C495.251 197.843 494.929 196.904 494.298 196.167C493.667 195.429 492.809 194.98 491.722 194.819V192.969H490.394V194.779C489.24 194.873 488.311 195.275 487.606 195.986C486.902 196.697 486.55 197.535 486.55 198.5C486.55 199.452 486.795 200.25 487.284 200.893C487.774 201.537 488.482 201.993 489.408 202.261L491.682 202.885C492.393 203.112 492.913 203.404 493.241 203.759C493.57 204.115 493.735 204.574 493.735 205.137C493.735 205.848 493.503 206.398 493.04 206.786C492.577 207.175 491.923 207.37 491.078 207.37C490.099 207.37 489.334 207.085 488.784 206.515C488.234 205.945 487.959 205.177 487.959 204.212H486.127C486.127 205.58 486.499 206.679 487.244 207.51C487.989 208.342 489.039 208.818 490.394 208.938V210.668H491.722Z" fill="#FF793A"/>
<mask id="mask1_2_76" style="mask-type:alpha" maskUnits="userSpaceOnUse" x="483" y="108" width="70" height="71">
<path d="M539.265 117.448C522.798 101.193 508.773 108.585 506.332 120.969C503.891 133.353 481.22 135.826 484.019 150.453C486.818 165.081 517.31 156.396 517.31 169.652C517.31 182.908 552.564 182.451 552.564 165.081C552.564 147.711 555.731 133.703 539.265 117.448Z" fill="white"/>
</mask>
<g mask="url(#mask1_2_76)">
<path opacity="0.2" d="M553.305 108.094H483.78V179.402H553.305V108.094Z" fill="#FFB38F"/>
</g>
<path d="M569.5 337.312H471.5C468.739 337.312 466.5 339.551 466.5 342.312V358.312C466.5 361.074 468.739 363.312 471.5 363.312H569.5C572.261 363.312 574.5 361.074 574.5 358.312V342.312C574.5 339.551 572.261 337.312 569.5 337.312Z" stroke="#004ED1"/>
<path d="M498.386 345.189L497.847 345.706C498.628 346.322 499.244 346.905 499.695 347.455L500.245 346.905C499.739 346.333 499.123 345.761 498.386 345.189ZM504.777 354.902H507.329L507.527 354.11C507.23 354.132 506.812 354.143 506.284 354.154C505.734 354.165 505.195 354.176 504.667 354.176C503.809 354.176 503.083 354.165 502.511 354.154C501.851 354.132 501.356 354.044 501.015 353.89C500.707 353.747 500.421 353.516 500.157 353.197C500.069 353.098 499.981 353.01 499.893 352.944V348.83H497.594V349.556H499.156V352.9C498.694 353.098 498.177 353.67 497.583 354.605L498.177 355.144C498.793 354.11 499.233 353.604 499.508 353.604C499.64 353.604 499.783 353.692 499.937 353.879C500.278 354.275 500.663 354.55 501.092 354.682C501.532 354.803 502.115 354.869 502.819 354.88C503.523 354.891 504.183 354.902 504.777 354.902ZM503.831 344.98V346.388H502.379C502.511 346.036 502.632 345.673 502.742 345.288L501.983 345.134C501.719 346.124 501.29 347.037 500.696 347.862L501.389 348.291C501.631 347.939 501.851 347.565 502.049 347.147H503.831V348.72H500.971V349.49H502.742C502.709 350.172 502.599 350.766 502.412 351.25C502.126 351.91 501.543 352.46 500.652 352.9L501.169 353.527C502.203 352.988 502.874 352.295 503.16 351.459C503.347 350.909 503.457 350.249 503.49 349.49H504.601V352.614C504.601 352.856 504.667 353.054 504.821 353.208C504.964 353.362 505.173 353.439 505.459 353.439H506.251C506.625 353.428 506.889 353.34 507.043 353.186C507.208 353.01 507.329 352.471 507.395 351.558L506.702 351.327C506.658 352.108 506.57 352.548 506.438 352.647C506.35 352.713 506.24 352.746 506.086 352.746H505.69C505.448 352.746 505.338 352.636 505.338 352.438V349.49H507.186V348.72H504.601V347.147H506.801V346.388H504.601V344.98H503.831ZM512.543 345.453V346.168H513.093C513.401 347.004 513.896 347.697 514.589 348.258C513.907 348.588 513.093 348.852 512.158 349.072L512.532 349.743C513.599 349.479 514.523 349.149 515.293 348.731C516.085 349.193 517.097 349.512 518.307 349.677L518.593 348.973C517.592 348.841 516.734 348.61 516.03 348.28C516.866 347.686 517.438 346.971 517.757 346.113V345.453H512.543ZM513.874 346.168H516.921C516.58 346.828 516.041 347.389 515.293 347.862C514.644 347.422 514.171 346.85 513.874 346.168ZM509.782 355.001C510.431 355.001 510.761 354.682 510.761 354.044V350.887C511.19 350.711 511.608 350.524 512.015 350.326V349.523C511.597 349.732 511.179 349.93 510.761 350.106V347.884H511.993V347.125H510.761V345.046H509.947V347.125H508.605V347.884H509.947V350.403C509.452 350.568 508.946 350.711 508.429 350.832L508.627 351.624C509.067 351.492 509.507 351.349 509.947 351.195V353.835C509.947 354.121 509.793 354.275 509.507 354.275C509.232 354.275 508.946 354.253 508.66 354.231L508.825 355.001H509.782ZM512.73 350.535V351.261H514.93V352.515H512.169V353.252H514.93V354.99H515.7V353.252H518.428V352.515H515.7V351.261H517.867V350.535H515.7V349.567H514.93V350.535H512.73ZM519.715 346.641V347.4H522.784C522.773 347.774 522.751 348.302 522.718 348.995C522.663 350.04 522.454 350.986 522.08 351.833C521.695 352.68 520.914 353.593 519.748 354.583L520.32 355.133C521.288 354.352 522.036 353.494 522.575 352.548C522.971 351.822 523.246 351.019 523.389 350.128H527.239C527.217 351.646 527.184 352.647 527.118 353.109C526.986 353.879 526.645 354.275 526.084 354.297C525.699 354.297 525.226 354.286 524.654 354.264L524.896 354.979C525.38 355.001 525.809 355.023 526.161 355.023C527.03 354.99 527.569 354.506 527.789 353.571C527.932 352.955 528.02 351.558 528.042 349.38H523.477V349.358L523.576 347.4H529.373V346.641H525.259C524.995 345.992 524.709 345.431 524.401 344.969L523.653 345.244C523.972 345.684 524.236 346.157 524.456 346.641H519.715ZM534.752 346.773C534.532 347.081 534.29 347.4 534.037 347.719H531.133V348.357H533.52C533.256 348.665 532.981 348.973 532.695 349.303C533.454 349.446 534.213 349.611 534.983 349.809C534.015 350.117 532.695 350.271 531.023 350.271L531.452 350.92C533.322 350.898 534.829 350.612 535.984 350.073C537.095 350.37 538.206 350.711 539.306 351.107L539.768 350.502C538.745 350.161 537.744 349.864 536.776 349.622C537.227 349.292 537.645 348.874 538.041 348.357H539.889V347.719H534.906C535.082 347.488 535.269 347.246 535.467 346.982L534.752 346.773ZM535.896 349.402C535.203 349.226 534.521 349.083 533.85 348.973C534.015 348.797 534.202 348.588 534.4 348.357H537.194C536.864 348.753 536.424 349.094 535.896 349.402ZM539.922 345.882H535.929C535.797 345.552 535.665 345.244 535.511 344.969L534.686 345.101C534.851 345.343 535.005 345.596 535.148 345.882H531.078V347.433H531.826V346.553H539.174V347.433H539.922V345.882ZM530.792 351.558V352.262H534.411C533.729 352.966 532.475 353.593 530.649 354.143L531.089 354.847C533.069 354.121 534.411 353.263 535.115 352.273V355.078H535.929V352.306C536.743 353.318 538.107 354.143 540.021 354.77L540.362 354.077C538.679 353.626 537.436 353.021 536.644 352.262H540.219V351.558H535.929V350.7H535.115V351.558H530.792Z" fill="#004ED1"/>
<path fill-rule="evenodd" clip-rule="evenodd" d="M522.439 133.994L517.488 135.056V131.043L522.439 130V133.994ZM532.733 136.217C530.801 136.217 529.558 137.122 528.868 137.752L528.611 136.532H524.273V159.472L529.203 158.429L529.223 152.861C529.933 153.373 530.978 154.101 532.714 154.101C536.244 154.101 539.459 151.268 539.459 145.031C539.439 139.326 536.185 136.217 532.733 136.217ZM531.55 149.772C530.386 149.772 529.696 149.359 529.223 148.848L529.203 141.549C529.716 140.978 530.426 140.585 531.55 140.585C533.345 140.585 534.587 142.591 534.587 145.169C534.587 147.805 533.364 149.772 531.55 149.772ZM555 145.228C555 140.191 552.554 136.217 547.88 136.217C543.186 136.217 540.346 140.191 540.346 145.188C540.346 151.11 543.699 154.101 548.511 154.101C550.858 154.101 552.633 153.57 553.974 152.822V148.887C552.633 149.556 551.095 149.969 549.142 149.969C547.229 149.969 545.533 149.3 545.316 146.979H554.961C554.961 146.87 554.968 146.624 554.976 146.34C554.987 145.955 555 145.5 555 145.228ZM545.257 143.359C545.257 141.136 546.618 140.211 547.86 140.211C549.063 140.211 550.345 141.136 550.345 143.359H545.257ZM517.488 136.552H522.438V153.766H517.488V136.552ZM511.868 136.551L512.183 138.007C513.347 135.882 515.654 136.315 516.285 136.551V141.076C515.674 140.86 513.702 140.585 512.538 142.099V153.766H507.608V136.551H511.868ZM502.322 132.282L497.51 133.305L497.49 149.064C497.49 151.976 499.679 154.12 502.598 154.12C504.215 154.12 505.398 153.825 506.049 153.471V149.477C505.418 149.733 502.302 150.638 502.302 147.726V140.742H506.049V136.552H502.302L502.322 132.282ZM490.666 140.486C489.621 140.486 488.99 140.781 488.99 141.549C488.99 142.387 490.076 142.755 491.423 143.212C493.62 143.958 496.511 144.939 496.524 148.572C496.524 152.094 493.703 154.12 489.601 154.12C487.905 154.12 486.051 153.786 484.217 152.999V148.317C485.874 149.222 487.964 149.891 489.601 149.891C490.706 149.891 491.494 149.595 491.494 148.69C491.494 147.762 490.317 147.338 488.896 146.826C486.731 146.046 484 145.063 484 141.785C484 138.303 486.663 136.217 490.666 136.217C492.303 136.217 493.92 136.473 495.557 137.122V141.746C494.058 140.939 492.165 140.486 490.666 140.486Z" fill="#004ED1"/>
<g filter="url(#filter2_d_2_76)">
<mask id="mask2_2_76" style="mask-type:alpha" maskUnits="userSpaceOnUse" x="215" y="29" width="237" height="398">
<path d="M444 29.8123H223C218.582 29.8123 215 33.394 215 37.8123V418.812C215 423.231 218.582 426.812 223 426.812H444C448.418 426.812 452 423.231 452 418.812V37.8123C452 33.394 448.418 29.8123 444 29.8123Z" fill="white"/>
</mask>
<g mask="url(#mask2_2_76)">
<path d="M444 29.8123H223C218.582 29.8123 215 33.394 215 37.8123V418.812C215 423.231 218.582 426.812 223 426.812H444C448.418 426.812 452 423.231 452 418.812V37.8123C452 33.394 448.418 29.8123 444 29.8123Z" fill="white"/>
<path opacity="0.0468285" fill-rule="evenodd" clip-rule="evenodd" d="M213.17 364.609C248.867 333.203 286.006 333.203 324.586 364.609C363.166 396.016 410.517 395.463 466.641 362.952L486.994 416.786L422.718 450.831H244.282L182.973 426.812L213.17 364.609Z" fill="#004ED1"/>
<path opacity="0.0468285" fill-rule="evenodd" clip-rule="evenodd" d="M551.987 349.974C500.092 318.567 446.102 318.567 390.016 349.974C333.93 381.38 265.092 380.827 183.502 348.316L153.913 402.15L247.355 436.196H506.758L595.886 412.176L551.987 349.974Z" fill="#004ED1"/>
</g>
</g>
<path d="M376.967 271.305H289.118C286.592 271.305 284.544 273.353 284.544 275.879C284.544 278.405 286.592 280.453 289.118 280.453H376.967C379.493 280.453 381.541 278.405 381.541 275.879C381.541 273.353 379.493 271.305 376.967 271.305Z" fill="#E5EDF4"/>
<path d="M376.967 318.872H289.118C286.592 318.872 284.544 320.92 284.544 323.446C284.544 325.972 286.592 328.02 289.118 328.02H376.967C379.493 328.02 381.541 325.972 381.541 323.446C381.541 320.92 379.493 318.872 376.967 318.872Z" fill="#E5EDF4"/>
<path d="M397.098 247.522H268.072C265.546 247.522 263.498 249.57 263.498 252.096C263.498 254.622 265.546 256.669 268.072 256.669H397.098C399.624 256.669 401.672 254.622 401.672 252.096C401.672 249.57 399.624 247.522 397.098 247.522Z" fill="#E5EDF4"/>
<path d="M418.144 295.089H248.856C246.33 295.089 244.282 297.137 244.282 299.663C244.282 302.189 246.33 304.236 248.856 304.236H418.144C420.67 304.236 422.718 302.189 422.718 299.663C422.718 297.137 420.67 295.089 418.144 295.089Z" fill="#E5EDF4"/>
<path d="M317.064 215.506V210.435H304.727C304.983 209.538 305.348 208.821 305.822 208.283C306.296 207.745 307.097 207.169 308.224 206.554L312.106 204.48C315.565 202.661 317.294 200.01 317.294 196.527C317.294 194.119 316.449 192.23 314.758 190.86C313.067 189.49 310.722 188.804 307.725 188.804C304.676 188.804 302.235 189.656 300.403 191.359C298.571 193.063 297.655 195.323 297.655 198.14H303.997C303.997 196.68 304.323 195.56 304.977 194.779C305.63 193.997 306.559 193.607 307.763 193.607C308.711 193.607 309.473 193.895 310.05 194.471C310.626 195.048 310.915 195.81 310.915 196.757C310.915 198.525 309.954 199.908 308.032 200.907L303.843 203.096C301.435 204.351 299.705 205.946 298.655 207.88C297.604 209.813 297.079 212.356 297.079 215.506H317.064ZM330.515 216.082C333.564 216.082 336.017 215.346 337.875 213.873C339.732 212.4 340.661 210.473 340.661 208.091C340.661 206.452 340.194 205.081 339.258 203.98C338.323 202.879 337.036 202.174 335.396 201.867C338.599 200.971 340.2 199.037 340.2 196.066C340.2 193.837 339.342 192.07 337.625 190.764C335.908 189.458 333.628 188.804 330.784 188.804C327.684 188.804 325.237 189.56 323.444 191.071C321.65 192.582 320.753 194.593 320.753 197.103H326.902C326.902 195.95 327.236 195.048 327.902 194.394C328.568 193.741 329.477 193.415 330.63 193.415C331.63 193.415 332.437 193.684 333.052 194.222C333.667 194.759 333.974 195.477 333.974 196.373C333.974 198.499 332.744 199.562 330.284 199.562H327.633V204.326H330.246C332.988 204.326 334.358 205.491 334.358 207.822C334.358 208.847 334.019 209.666 333.34 210.281C332.661 210.896 331.758 211.203 330.63 211.203C329.298 211.203 328.267 210.832 327.537 210.089C326.806 209.346 326.441 208.283 326.441 206.9H320.177C320.177 209.845 321.067 212.112 322.848 213.7C324.629 215.288 327.184 216.082 330.515 216.082ZM348.232 215.89C349.309 215.89 350.205 215.519 350.923 214.776C351.666 214.033 352.037 213.15 352.037 212.125C352.037 211.075 351.672 210.185 350.942 209.455C350.212 208.725 349.309 208.36 348.232 208.36C347.156 208.36 346.253 208.725 345.523 209.455C344.793 210.185 344.428 211.075 344.428 212.125C344.428 213.15 344.793 214.033 345.523 214.776C346.253 215.519 347.156 215.89 348.232 215.89ZM366.104 216.082C369.229 216.082 371.715 215.391 373.559 214.008C375.43 212.599 376.365 210.691 376.365 208.283C376.365 206.721 375.981 205.389 375.212 204.287C374.443 203.186 373.367 202.418 371.984 201.982C373.137 201.547 374.072 200.785 374.789 199.696C375.507 198.608 375.865 197.372 375.865 195.989C375.865 193.786 374.969 192.038 373.175 190.745C371.382 189.451 369.024 188.804 366.104 188.804C363.157 188.804 360.793 189.451 359.013 190.745C357.232 192.038 356.342 193.786 356.342 195.989C356.342 197.372 356.688 198.608 357.379 199.696C358.071 200.785 358.994 201.547 360.146 201.982C358.763 202.418 357.7 203.186 356.957 204.287C356.214 205.389 355.842 206.721 355.842 208.283C355.842 210.716 356.771 212.624 358.628 214.008C360.486 215.391 362.978 216.082 366.104 216.082ZM366.104 199.792C364.976 199.792 364.054 199.491 363.336 198.89C362.619 198.288 362.26 197.5 362.26 196.527C362.26 195.502 362.606 194.695 363.298 194.106C363.99 193.517 364.925 193.223 366.104 193.223C367.256 193.223 368.185 193.517 368.89 194.106C369.594 194.695 369.947 195.502 369.947 196.527C369.947 197.5 369.601 198.288 368.909 198.89C368.217 199.491 367.282 199.792 366.104 199.792ZM366.104 211.472C364.848 211.472 363.836 211.152 363.067 210.511C362.299 209.845 361.914 208.962 361.914 207.86C361.914 206.785 362.305 205.92 363.087 205.267C363.868 204.614 364.874 204.287 366.104 204.287C367.359 204.287 368.371 204.614 369.14 205.267C369.908 205.92 370.293 206.785 370.293 207.86C370.293 208.962 369.908 209.839 369.14 210.492C368.371 211.145 367.359 211.472 366.104 211.472Z" fill="#004ED1"/>
<path d="M289.37 206.907V204.909C290.909 204.751 292.118 204.224 292.999 203.328C293.879 202.432 294.319 201.31 294.319 199.962C294.319 197.695 293.272 196.213 291.179 195.515L288.252 194.564C287.507 194.294 286.987 193.993 286.694 193.66C286.4 193.327 286.254 192.915 286.254 192.423C286.254 191.932 286.416 191.543 286.741 191.258C287.067 190.972 287.515 190.83 288.086 190.83C288.752 190.83 289.267 191.032 289.632 191.436C289.997 191.84 290.179 192.423 290.179 193.184H294.034C294.034 191.852 293.641 190.727 292.856 189.807C292.071 188.887 290.909 188.324 289.37 188.118V185.978H287.253V188.071C285.841 188.229 284.68 188.741 283.768 189.605C282.856 190.469 282.4 191.535 282.4 192.804C282.4 193.945 282.689 194.908 283.268 195.693C283.847 196.478 284.676 197.045 285.754 197.394L288.68 198.298C289.347 198.52 289.815 198.785 290.084 199.094C290.354 199.404 290.489 199.772 290.489 200.2C290.489 200.755 290.31 201.187 289.953 201.496C289.596 201.806 289.077 201.96 288.395 201.96C287.602 201.96 286.979 201.707 286.527 201.199C286.075 200.692 285.849 199.994 285.849 199.106H281.995C281.995 200.755 282.447 202.083 283.351 203.09C284.255 204.097 285.556 204.695 287.253 204.886V206.907H289.37Z" fill="#004ED1"/>
<path d="M357.506 99.2276C338.297 80.3353 321.935 88.9273 319.088 103.32C316.241 117.714 289.793 120.588 293.059 137.588C296.324 154.589 331.894 144.494 331.894 159.901C331.894 175.308 373.02 174.777 373.02 154.589C373.02 134.4 376.715 118.12 357.506 99.2276Z" fill="white"/>
<path opacity="0.4" d="M357.506 99.2276C338.297 80.3353 321.935 88.9273 319.088 103.32C316.241 117.714 289.793 120.588 293.059 137.588C296.324 154.589 331.894 144.494 331.894 159.901C331.894 175.308 373.02 174.777 373.02 154.589C373.02 134.4 376.715 118.12 357.506 99.2276Z" fill="#CDDFFF"/>
<g filter="url(#filter3_f_2_76)">
<path d="M471.922 232H362.078C356.512 232 352 236.477 352 242V320C352 325.523 356.512 330 362.078 330H471.922C477.488 330 482 325.523 482 320V242C482 236.477 477.488 232 471.922 232Z" fill="black" fill-opacity="0.15"/>
</g>
<path d="M265.063 110.909C273.182 110.909 281.3 110.909 289.418 110.909C289.515 111.39 289.612 118.713 289.418 119.676C288.742 119.676 276.564 119.676 275.888 119.676C275.791 120.061 275.791 124.782 275.888 125.457C280.044 125.457 284.103 125.457 288.355 125.457C288.355 127.287 288.355 129.214 288.355 131.045C288.549 131.045 288.452 131.045 288.452 131.045C288.549 130.948 288.645 130.852 288.742 130.659C291.061 126.902 294.541 124.782 298.89 124.204C302.079 123.819 305.269 124.301 308.168 125.746C311.551 127.48 313.774 130.178 314.933 133.839C315.03 134.031 315.03 134.128 315.127 134.417C315.223 134.224 315.223 134.128 315.32 134.031C315.9 131.815 316.963 129.792 318.606 128.058C320.635 125.938 323.052 124.59 325.951 124.204C329.43 123.722 332.62 124.493 335.422 126.42C335.519 126.516 335.616 126.516 335.712 126.613C335.712 121.314 335.712 116.015 335.712 110.812C338.998 110.812 342.284 110.812 345.474 110.812C345.474 124.301 345.474 137.789 345.474 151.181C342.188 151.181 338.902 151.181 335.712 151.181C335.712 150.892 335.712 150.603 335.712 150.121C335.519 150.314 335.326 150.41 335.229 150.506C331.267 153.204 325.951 153.589 321.795 151.373C318.799 149.736 316.866 147.327 315.61 144.148C315.127 142.895 314.837 141.546 314.643 140.101C314.257 140.005 296.28 140.005 295.604 140.101C295.604 140.197 295.604 140.197 295.604 140.294C295.894 142.028 296.57 143.666 297.827 144.918C299.47 146.46 301.693 146.652 303.529 145.304C304.012 144.918 304.399 144.437 304.785 144.051C304.882 143.858 305.075 143.762 305.269 143.762C308.265 143.762 311.261 143.762 314.257 143.762C314.257 143.762 314.353 143.762 314.45 143.762C314.353 143.955 314.353 144.051 314.257 144.244C312.71 147.905 310.004 150.41 306.332 151.759C302.562 153.108 298.793 153.108 295.121 151.566C290.965 149.832 288.355 146.652 287.196 142.317C286.519 139.716 286.519 137.211 287.099 134.609C287.099 134.417 287.196 134.32 287.196 134.224V134.128C283.426 134.128 279.657 134.128 275.985 134.128C275.985 139.812 275.985 145.4 275.985 151.181C272.215 151.181 268.736 151.181 265.16 151.181C265.16 150.988 265.16 150.892 265.16 150.699C265.16 137.5 265.16 124.204 265.16 111.005C264.967 111.005 264.967 111.005 265.063 110.909ZM335.809 138.56C335.809 136.536 335.326 134.898 334.359 133.742C332.91 131.912 330.977 131.237 328.657 131.719C326.821 132.104 325.564 133.357 324.888 134.995C323.921 137.307 324.018 139.619 325.081 141.835C325.661 142.991 326.531 143.858 327.691 144.437C330.01 145.496 332.813 144.726 334.359 142.702C335.326 141.45 335.712 139.908 335.809 138.56ZM306.042 134.417C305.752 133.068 304.689 131.526 303.529 130.659C301.693 129.407 299.47 129.503 297.827 131.045C296.957 131.912 296.377 132.875 295.99 133.935C295.99 134.031 295.894 134.128 295.894 134.32C299.276 134.417 302.659 134.417 306.042 134.417Z" fill="#522ABA"/>
<path d="M356.269 133.975C356.269 136.858 356.269 139.741 356.269 142.529C360.435 142.529 364.697 142.529 369.056 142.529C369.056 145.508 369.056 148.199 369.056 150.986C361.403 150.986 353.847 150.986 346.388 150.986C346.388 150.89 346.388 150.698 346.388 150.602C346.388 137.339 346.388 124.075 346.388 110.908C346.388 110.908 346.388 110.908 346.485 110.812C354.041 110.812 361.597 110.812 369.25 110.812C369.25 113.792 369.25 116.675 369.25 119.654C364.891 119.654 360.725 119.654 356.463 119.654C356.463 121.48 356.463 123.499 356.463 125.325C360.628 125.325 364.891 125.325 369.25 125.325C369.25 128.304 369.25 131.091 369.25 134.071C368.281 133.975 357.044 133.975 356.269 133.975Z" fill="#FF793A"/>
<path d="M369.441 125.421C369.632 125.421 369.727 125.421 369.918 125.421C373.355 125.421 376.887 125.421 380.324 125.421C380.706 125.421 380.992 125.516 381.183 125.8C382.902 127.693 384.62 129.587 386.339 131.481C386.434 131.575 386.53 131.765 386.72 131.954C386.816 131.765 386.911 131.575 387.102 131.481C388.916 129.587 390.73 127.693 392.448 125.8C392.639 125.61 392.83 125.516 393.117 125.516C396.649 125.516 400.086 125.516 403.618 125.516C403.714 125.516 403.809 125.516 404 125.516C403.523 126.084 392.735 137.73 392.258 138.204C396.172 142.464 399.99 146.631 404 150.891C403.809 150.891 403.714 150.891 403.618 150.891C400.086 150.891 396.649 150.891 393.117 150.891C392.83 150.891 392.639 150.797 392.448 150.607C390.635 148.619 388.821 146.725 387.007 144.832C386.911 144.737 386.816 144.547 386.625 144.453C386.434 144.642 386.339 144.737 386.148 144.926C384.334 146.82 382.615 148.714 380.802 150.607C380.515 150.891 380.324 150.986 379.942 150.986C376.505 150.986 373.164 150.986 369.727 150.986C369.536 150.986 369.441 150.986 369.345 150.986C369.345 150.986 369.345 150.891 369.441 150.891C369.441 150.797 369.536 150.797 369.536 150.702C373.26 146.631 377.078 142.464 380.802 138.393C380.802 138.393 380.802 138.298 380.897 138.298C380.897 138.298 380.897 138.298 380.897 138.204C377.078 134.037 373.164 129.871 369.25 125.61C369.441 125.516 369.441 125.421 369.441 125.421Z" fill="#FF793A"/>
<path d="M392 358.812H277C274.239 358.812 272 361.051 272 363.812V383.812C272 386.574 274.239 388.812 277 388.812H392C394.761 388.812 397 386.574 397 383.812V363.812C397 361.051 394.761 358.812 392 358.812Z" fill="#004ED1"/>
<path d="M313.386 369.189L312.847 369.706C313.628 370.322 314.244 370.905 314.695 371.455L315.245 370.905C314.739 370.333 314.123 369.761 313.386 369.189ZM319.777 378.902H322.329L322.527 378.11C322.23 378.132 321.812 378.143 321.284 378.154C320.734 378.165 320.195 378.176 319.667 378.176C318.809 378.176 318.083 378.165 317.511 378.154C316.851 378.132 316.356 378.044 316.015 377.89C315.707 377.747 315.421 377.516 315.157 377.197C315.069 377.098 314.981 377.01 314.893 376.944V372.83H312.594V373.556H314.156V376.9C313.694 377.098 313.177 377.67 312.583 378.605L313.177 379.144C313.793 378.11 314.233 377.604 314.508 377.604C314.64 377.604 314.783 377.692 314.937 377.879C315.278 378.275 315.663 378.55 316.092 378.682C316.532 378.803 317.115 378.869 317.819 378.88C318.523 378.891 319.183 378.902 319.777 378.902ZM318.831 368.98V370.388H317.379C317.511 370.036 317.632 369.673 317.742 369.288L316.983 369.134C316.719 370.124 316.29 371.037 315.696 371.862L316.389 372.291C316.631 371.939 316.851 371.565 317.049 371.147H318.831V372.72H315.971V373.49H317.742C317.709 374.172 317.599 374.766 317.412 375.25C317.126 375.91 316.543 376.46 315.652 376.9L316.169 377.527C317.203 376.988 317.874 376.295 318.16 375.459C318.347 374.909 318.457 374.249 318.49 373.49H319.601V376.614C319.601 376.856 319.667 377.054 319.821 377.208C319.964 377.362 320.173 377.439 320.459 377.439H321.251C321.625 377.428 321.889 377.34 322.043 377.186C322.208 377.01 322.329 376.471 322.395 375.558L321.702 375.327C321.658 376.108 321.57 376.548 321.438 376.647C321.35 376.713 321.24 376.746 321.086 376.746H320.69C320.448 376.746 320.338 376.636 320.338 376.438V373.49H322.186V372.72H319.601V371.147H321.801V370.388H319.601V368.98H318.831ZM327.543 369.453V370.168H328.093C328.401 371.004 328.896 371.697 329.589 372.258C328.907 372.588 328.093 372.852 327.158 373.072L327.532 373.743C328.599 373.479 329.523 373.149 330.293 372.731C331.085 373.193 332.097 373.512 333.307 373.677L333.593 372.973C332.592 372.841 331.734 372.61 331.03 372.28C331.866 371.686 332.438 370.971 332.757 370.113V369.453H327.543ZM328.874 370.168H331.921C331.58 370.828 331.041 371.389 330.293 371.862C329.644 371.422 329.171 370.85 328.874 370.168ZM324.782 379.001C325.431 379.001 325.761 378.682 325.761 378.044V374.887C326.19 374.711 326.608 374.524 327.015 374.326V373.523C326.597 373.732 326.179 373.93 325.761 374.106V371.884H326.993V371.125H325.761V369.046H324.947V371.125H323.605V371.884H324.947V374.403C324.452 374.568 323.946 374.711 323.429 374.832L323.627 375.624C324.067 375.492 324.507 375.349 324.947 375.195V377.835C324.947 378.121 324.793 378.275 324.507 378.275C324.232 378.275 323.946 378.253 323.66 378.231L323.825 379.001H324.782ZM327.73 374.535V375.261H329.93V376.515H327.169V377.252H329.93V378.99H330.7V377.252H333.428V376.515H330.7V375.261H332.867V374.535H330.7V373.567H329.93V374.535H327.73ZM334.715 370.641V371.4H337.784C337.773 371.774 337.751 372.302 337.718 372.995C337.663 374.04 337.454 374.986 337.08 375.833C336.695 376.68 335.914 377.593 334.748 378.583L335.32 379.133C336.288 378.352 337.036 377.494 337.575 376.548C337.971 375.822 338.246 375.019 338.389 374.128H342.239C342.217 375.646 342.184 376.647 342.118 377.109C341.986 377.879 341.645 378.275 341.084 378.297C340.699 378.297 340.226 378.286 339.654 378.264L339.896 378.979C340.38 379.001 340.809 379.023 341.161 379.023C342.03 378.99 342.569 378.506 342.789 377.571C342.932 376.955 343.02 375.558 343.042 373.38H338.477V373.358L338.576 371.4H344.373V370.641H340.259C339.995 369.992 339.709 369.431 339.401 368.969L338.653 369.244C338.972 369.684 339.236 370.157 339.456 370.641H334.715ZM349.752 370.773C349.532 371.081 349.29 371.4 349.037 371.719H346.133V372.357H348.52C348.256 372.665 347.981 372.973 347.695 373.303C348.454 373.446 349.213 373.611 349.983 373.809C349.015 374.117 347.695 374.271 346.023 374.271L346.452 374.92C348.322 374.898 349.829 374.612 350.984 374.073C352.095 374.37 353.206 374.711 354.306 375.107L354.768 374.502C353.745 374.161 352.744 373.864 351.776 373.622C352.227 373.292 352.645 372.874 353.041 372.357H354.889V371.719H349.906C350.082 371.488 350.269 371.246 350.467 370.982L349.752 370.773ZM350.896 373.402C350.203 373.226 349.521 373.083 348.85 372.973C349.015 372.797 349.202 372.588 349.4 372.357H352.194C351.864 372.753 351.424 373.094 350.896 373.402ZM354.922 369.882H350.929C350.797 369.552 350.665 369.244 350.511 368.969L349.686 369.101C349.851 369.343 350.005 369.596 350.148 369.882H346.078V371.433H346.826V370.553H354.174V371.433H354.922V369.882ZM345.792 375.558V376.262H349.411C348.729 376.966 347.475 377.593 345.649 378.143L346.089 378.847C348.069 378.121 349.411 377.263 350.115 376.273V379.078H350.929V376.306C351.743 377.318 353.107 378.143 355.021 378.77L355.362 378.077C353.679 377.626 352.436 377.021 351.644 376.262H355.219V375.558H350.929V374.7H350.115V375.558H345.792Z" fill="white"/>
<path fill-rule="evenodd" clip-rule="evenodd" d="M352 240.4V321.599C352 326.238 355.789 330 360.463 330H473.537C478.211 330 482 326.238 482 321.599V240.4C482 235.76 478.211 232 473.537 232H360.463C355.789 232 352 235.76 352 240.4Z" fill="white"/>
<path fill-rule="evenodd" clip-rule="evenodd" d="M352 322.932C352 326.914 354.637 330.141 357.893 330.141H476.106C479.362 330.141 482 326.914 482 322.932V292H352C352 294.507 352 296.91 352 299.208V322.932Z" fill="#F6F9FD"/>
<path fill-rule="evenodd" clip-rule="evenodd" d="M440.175 307.496H369.037C367.712 307.496 366.638 306.36 366.638 304.96V304.536C366.638 303.136 367.712 302 369.037 302H440.175C441.5 302 442.574 303.136 442.574 304.536V304.96C442.574 306.36 441.5 307.496 440.175 307.496Z" fill="#E0E7F0"/>
<path fill-rule="evenodd" clip-rule="evenodd" d="M415.477 318.486H369.033C367.71 318.486 366.638 317.35 366.638 315.95V315.527C366.638 314.127 367.71 312.991 369.033 312.991H415.477C416.799 312.991 417.872 314.127 417.872 315.527V315.95C417.872 317.35 416.799 318.486 415.477 318.486Z" fill="#E0E7F0"/>
<path fill-rule="evenodd" clip-rule="evenodd" d="M369.065 268.491C366.805 270.729 366.348 274.19 367.952 276.926L373.517 286.425C373.752 286.827 374.339 286.827 374.574 286.425L380.139 276.927C381.742 274.19 381.286 270.729 379.027 268.491C376.276 265.768 371.815 265.768 369.065 268.491Z" fill="#FF793A"/>
<path fill-rule="evenodd" clip-rule="evenodd" d="M374.486 271.738C373.27 271.738 372.284 272.726 372.284 273.944C372.284 275.16 373.27 276.147 374.486 276.147C375.702 276.147 376.687 275.16 376.687 273.944C376.687 272.726 375.702 271.738 374.486 271.738Z" fill="#F9F9F9"/>
<path fill-rule="evenodd" clip-rule="evenodd" d="M456.25 242.042C453.991 244.281 453.535 247.742 455.138 250.477L460.704 259.976C460.938 260.378 461.525 260.378 461.761 259.976L467.325 250.477C468.928 247.742 468.472 244.281 466.213 242.042C463.463 239.319 459 239.319 456.25 242.042Z" fill="#FF793A"/>
<path fill-rule="evenodd" clip-rule="evenodd" d="M461.671 245.29C460.456 245.29 459.47 246.276 459.47 247.494C459.47 248.711 460.456 249.698 461.671 249.698C462.888 249.698 463.874 248.711 463.874 247.494C463.874 246.276 462.888 245.29 461.671 245.29Z" fill="#F9F9F9"/>
<path d="M385.494 276.153C385.494 276.153 394.586 286.11 403.602 282.353C412.618 278.596 416.601 262.042 428.322 259.645C440.043 257.25 449.961 273.055 461.231 265.839" stroke="#004ED1" stroke-width="2"/>
<defs>
<filter id="filter0_d_2_76" x="26" y="42" width="244" height="381" filterUnits="userSpaceOnUse" color-interpolation-filters="sRGB">
<feFlood flood-opacity="0" result="BackgroundImageFix"/>
<feColorMatrix in="SourceAlpha" type="matrix" values="0 0 0 0 0 0 0 0 0 0 0 0 0 0 0 0 0 0 127 0" result="hardAlpha"/>
<feOffset dy="4"/>
<feGaussianBlur stdDeviation="10"/>
<feComposite in2="hardAlpha" operator="out"/>
<feColorMatrix type="matrix" values="0 0 0 0 0 0 0 0 0 0 0 0 0 0 0 0 0 0 0.15 0"/>
<feBlend mode="normal" in2="BackgroundImageFix" result="effect1_dropShadow_2_76"/>
<feBlend mode="normal" in="SourceGraphic" in2="effect1_dropShadow_2_76" result="shape"/>
</filter>
<filter id="filter1_d_2_76" x="396" y="45" width="244" height="381" filterUnits="userSpaceOnUse" color-interpolation-filters="sRGB">
<feFlood flood-opacity="0" result="BackgroundImageFix"/>
<feColorMatrix in="SourceAlpha" type="matrix" values="0 0 0 0 0 0 0 0 0 0 0 0 0 0 0 0 0 0 127 0" result="hardAlpha"/>
<feOffset dy="4"/>
<feGaussianBlur stdDeviation="10"/>
<feComposite in2="hardAlpha" operator="out"/>
<feColorMatrix type="matrix" values="0 0 0 0 0 0 0 0 0 0 0 0 0 0 0 0 0 0 0.15 0"/>
<feBlend mode="normal" in2="BackgroundImageFix" result="effect1_dropShadow_2_76"/>
<feBlend mode="normal" in="SourceGraphic" in2="effect1_dropShadow_2_76" result="shape"/>
</filter>
<filter id="filter2_d_2_76" x="185" y="3.8123" width="297" height="457" filterUnits="userSpaceOnUse" color-interpolation-filters="sRGB">
<feFlood flood-opacity="0" result="BackgroundImageFix"/>
<feColorMatrix in="SourceAlpha" type="matrix" values="0 0 0 0 0 0 0 0 0 0 0 0 0 0 0 0 0 0 127 0" result="hardAlpha"/>
<feOffset dy="4"/>
<feGaussianBlur stdDeviation="15"/>
<feColorMatrix type="matrix" values="0 0 0 0 0 0 0 0 0 0 0 0 0 0 0 0 0 0 0.25 0"/>
<feBlend mode="normal" in2="BackgroundImageFix" result="effect1_dropShadow_2_76"/>
<feBlend mode="normal" in="SourceGraphic" in2="effect1_dropShadow_2_76" result="shape"/>
</filter>
<filter id="filter3_f_2_76" x="342" y="222" width="150" height="118" filterUnits="userSpaceOnUse" color-interpolation-filters="sRGB">
<feFlood flood-opacity="0" result="BackgroundImageFix"/>
<feBlend mode="normal" in="SourceGraphic" in2="BackgroundImageFix" result="shape"/>
<feGaussianBlur stdDeviation="5" result="effect1_foregroundBlur_2_76"/>
</filter>
</defs>
</svg>
