<svg width="48" height="48" viewBox="0 0 48 48" fill="none" xmlns="http://www.w3.org/2000/svg">
<path d="M42 15.5H6C5.18 15.5 4.5 14.82 4.5 14C4.5 13.18 5.18 12.5 6 12.5H42C42.82 12.5 43.5 13.18 43.5 14C43.5 14.82 42.82 15.5 42 15.5Z" fill="#004ED1"/>
<path d="M42 25.5H6C5.18 25.5 4.5 24.82 4.5 24C4.5 23.18 5.18 22.5 6 22.5H42C42.82 22.5 43.5 23.18 43.5 24C43.5 24.82 42.82 25.5 42 25.5Z" fill="#004ED1"/>
<path d="M42 35.5H6C5.18 35.5 4.5 34.82 4.5 34C4.5 33.18 5.18 32.5 6 32.5H42C42.82 32.5 43.5 33.18 43.5 34C43.5 34.82 42.82 35.5 42 35.5Z" fill="#004ED1"/>
</svg>
