<svg width="200" height="110" viewBox="0 0 200 110" fill="none" xmlns="http://www.w3.org/2000/svg">
<g clipPath="url(#clip0_9_397)">
<path d="M200 0.621094H0V109.621H200V0.621094Z" fill="white"/>
<path d="M67.0859 62.8054C66.3108 63.4292 65.4804 63.9963 64.5392 64.45C65.5911 64.9037 66.5323 65.4141 67.3628 66.0379L66.9198 66.6617C66.1448 66.0379 65.3697 65.5275 64.5392 65.1305C64.6499 66.4349 64.7607 67.2856 65.0375 67.7959C65.425 68.6466 65.8679 69.0436 66.3662 69.0436C66.5323 69.0436 66.643 68.9302 66.6984 68.7033C66.8091 68.4765 66.8645 68.0228 66.9198 67.3423L67.5842 67.5691C67.4735 68.4198 67.3074 69.1003 67.0306 69.4406C66.8091 69.6674 66.5877 69.7808 66.3662 69.7808C65.5911 69.7808 64.9821 69.2704 64.4838 68.3063C63.9856 67.2856 63.7087 65.1873 63.7087 61.9547H58.5045V61.2175H64.4285V62.0114C64.4285 62.6353 64.4285 63.1457 64.4838 63.7128C65.2589 63.3158 66.034 62.8054 66.6984 62.2383L67.0859 62.8054V62.8054Z" fill="#404040"/>
<path d="M66.4216 69.951C65.6465 69.951 64.9821 69.4406 64.4838 68.4198C63.9856 67.399 63.7087 65.3007 63.7087 62.1249H58.5045V61.2175H64.5392V63.5426C65.3143 63.1457 65.9787 62.692 66.5877 62.1249L66.643 62.0682L67.1413 62.8054L67.0859 62.8621C66.3662 63.4859 65.5358 63.9963 64.6499 64.45C65.5911 64.847 66.5323 65.4141 67.3628 65.9812L67.4181 66.0379L66.9198 66.8319L66.8645 66.7752C66.1448 66.208 65.3697 65.6976 64.6499 65.3007C64.7607 66.4916 64.8714 67.3423 65.0928 67.7959C65.425 68.5899 65.8679 68.9869 66.3662 69.0436C66.4769 69.0436 66.5877 68.9302 66.643 68.76C66.7538 68.5899 66.8091 68.1362 66.8645 67.4557V67.3423L67.6949 67.6258V67.6825C67.5842 68.5899 67.4181 69.2137 67.0859 69.6107C66.8645 69.8375 66.643 69.951 66.4216 69.951V69.951ZM58.6152 61.9547H63.8195V62.0114C63.8195 65.1873 64.0963 67.3423 64.5946 68.3063C65.0928 69.2704 65.7018 69.7241 66.4216 69.7808C66.643 69.7808 66.8091 69.6674 67.0306 69.4973C67.3074 69.157 67.4735 68.5332 67.5842 67.7392L67.0859 67.5691C67.0306 68.2496 66.9752 68.6466 66.8645 68.8167C66.7538 69.0436 66.5877 69.157 66.4216 69.157C65.8679 69.157 65.425 68.7033 65.0375 67.8527C64.816 67.3423 64.6499 66.4916 64.5392 65.1873V65.0738L64.6499 65.1305C65.425 65.5275 66.2001 66.0379 66.9752 66.605L67.3074 66.0946C66.4216 65.4708 65.5357 64.9604 64.5392 64.5634H64.4838V64.45L64.5392 64.3933C65.4804 63.9963 66.3108 63.4292 67.0306 62.8054L66.643 62.3517C65.9787 62.9188 65.2589 63.4292 64.4838 63.7695L64.4285 63.8262V63.7128C64.4285 63.2024 64.3731 62.6353 64.3731 62.0114V61.3876H58.6152V61.9547Z" fill="#333333"/>
<path d="M86.8509 60.7071V62.4651H89.7298V62.8054L89.5083 65.1873H90.8924C90.8924 67.1154 90.7264 68.2496 90.4495 68.5899C90.3388 68.76 90.1173 68.8168 89.8405 68.9302C89.6191 68.9869 89.3976 68.9869 89.1762 68.9869H88.5118L88.3457 68.3064H89.2869C89.5637 68.3064 89.7852 68.1929 89.8959 68.0795C90.0066 67.9094 90.1173 67.1721 90.1173 65.9245H86.6848V70.0644H85.965V65.9245H82.4771V65.244H85.965V63.1457H83.0308V62.4651H85.965V60.7071H86.8509V60.7071ZM88.8993 65.1873L89.0654 63.1457H86.8509V65.1873H88.8993ZM91.3907 62.1249L91.0032 62.7487C90.3388 62.1249 89.6744 61.6712 89.0101 61.3309L89.3976 60.7638C90.1173 61.1041 90.7817 61.5578 91.3907 62.1249Z" fill="#404040"/>
<path d="M86.9615 70.1211H86.0757V65.9812H82.5878V65.1305H86.0757V63.2591H83.1414V62.4084H86.0757V60.6504H86.9615V62.4084H89.8405V62.8621L89.6744 65.1305H91.0585V65.1873C91.0585 67.1721 90.8924 68.3063 90.5602 68.6466C90.3941 68.8167 90.228 68.9302 89.9512 68.9869C89.7297 69.0436 89.5083 69.0436 89.2868 69.0436H88.5671L88.3456 68.1929H89.3975C89.6744 68.1929 89.8405 68.1362 89.9512 67.9661C90.0066 67.8527 90.1173 67.399 90.1726 65.9245H86.9062V70.1211H86.9615ZM86.2418 69.951H86.7954V65.8111H90.3387V65.8678C90.2834 67.5691 90.1726 67.9661 90.0619 68.0795C89.8958 68.2496 89.6744 68.3631 89.3422 68.3631H88.5117L88.6778 68.8735H89.2868C89.5083 68.8735 89.7297 68.8167 89.8958 68.8167C90.1173 68.76 90.3387 68.6466 90.4495 68.5332C90.6156 68.3063 90.8924 67.5691 90.8924 65.244H89.4529L89.6744 62.8054V62.5218H86.7954V60.7638H86.2418V62.5218H83.3075V63.0322H86.2418V65.244H82.6985V65.7544H86.1864V69.951H86.2418ZM88.9546 65.3007H86.7954V63.089H89.1761L88.9546 65.3007ZM86.9615 65.1305H88.8439L89.01 63.2591H86.9615V65.1305V65.1305ZM91.0031 62.8621L90.9477 62.8054C90.2834 62.1816 89.619 61.7279 88.9546 61.3876L88.8439 61.3309L89.2868 60.6504L89.3422 60.7071C90.0619 61.1041 90.7817 61.5578 91.3907 62.0682L91.446 62.1249L91.0031 62.8621V62.8621ZM89.1207 61.2742C89.7297 61.6145 90.3941 62.0682 91.0031 62.6353L91.2799 62.1816C90.7263 61.6712 90.0619 61.2742 89.3975 60.8772L89.1207 61.2742Z" fill="#333333"/>
<path d="M108.775 64.847L108.277 65.3574C107.834 64.847 107.28 64.3366 106.505 63.7695L107.003 63.3158C107.723 63.7695 108.277 64.2799 108.775 64.847ZM109.052 66.3215C108.554 67.6258 108 68.8168 107.446 69.8943L106.782 69.6107C107.446 68.4765 108 67.2856 108.498 66.0946L109.052 66.3215V66.3215ZM109.107 62.4084L108.609 62.9188C108.166 62.4084 107.557 61.898 106.782 61.3309L107.28 60.8772C108 61.3876 108.609 61.898 109.107 62.4084ZM109.384 66.2648V65.5842H111.931V64.45H112.651V65.5842H115.253V66.2648H113.37C113.813 67.1721 114.533 68.0228 115.585 68.76L115.142 69.3272C114.035 68.4198 113.315 67.399 112.872 66.2648H112.706V70.0077H111.986V66.2648H111.82C111.266 67.5691 110.436 68.5899 109.218 69.4406L108.83 68.8168C109.938 68.1362 110.768 67.2856 111.322 66.2648H109.384V66.2648ZM111.931 62.2383C111.875 63.0323 111.709 63.5427 111.433 63.9396C111.1 64.3366 110.602 64.6202 109.882 64.9037L109.439 64.3366C110.104 64.1098 110.547 63.8829 110.824 63.5994C111.1 63.3158 111.266 62.8621 111.266 62.2383H111.931V62.2383ZM115.031 63.0323H114.367V61.7846H110.215V63.0323H109.55V61.1041H115.031V63.0323ZM113.426 62.2383V63.5427C113.426 63.7128 113.536 63.8262 113.702 63.8262H115.142V64.45H113.37C112.927 64.45 112.761 64.2232 112.761 63.8829V62.295H113.426V62.2383Z" fill="#404040"/>
<path d="M112.761 70.0644H111.931V66.3215H111.876C111.322 67.5691 110.436 68.6466 109.218 69.4973L109.163 69.554L108.72 68.8167L108.775 68.76C109.827 68.1362 110.658 67.3423 111.156 66.3782H109.329V65.5275H111.876V64.3933H112.706V65.5275H115.308V66.3782H113.481C113.924 67.2288 114.644 68.0228 115.64 68.76L115.696 68.8167L115.142 69.554L115.087 69.4973C114.035 68.5899 113.26 67.5691 112.817 66.4349H112.761V70.0644V70.0644ZM112.042 69.8943H112.595V66.1513H112.928V66.2081C113.37 67.2856 114.09 68.3064 115.142 69.2137L115.474 68.76C114.478 68.0228 113.703 67.1721 113.26 66.2648L113.204 66.1513H115.142V65.6409H112.595V64.5067H112.042V65.6409H109.495V66.1513H111.433L111.377 66.2648C110.879 67.2856 110.049 68.1362 108.941 68.8167L109.218 69.2704C110.381 68.4765 111.211 67.399 111.765 66.2081V66.1513H112.042V69.8943V69.8943ZM107.447 70.0077L106.616 69.6107L106.671 69.554C107.336 68.4198 107.889 67.2288 108.388 66.0379L108.443 65.9812L109.163 66.2648L109.107 66.3215C108.609 67.6825 108.056 68.8167 107.502 69.8943L107.447 70.0077V70.0077ZM106.838 69.554L107.336 69.7808C107.889 68.76 108.388 67.6258 108.886 66.3215L108.443 66.1513C108 67.3423 107.447 68.4765 106.838 69.554V69.554ZM108.277 65.4141L108.222 65.3574C107.779 64.847 107.225 64.3366 106.45 63.7695L106.395 63.7128L107.004 63.1457L107.059 63.2024C107.779 63.7128 108.332 64.2232 108.831 64.7903L108.886 64.847L108.277 65.4141ZM106.671 63.7128C107.336 64.2232 107.889 64.6769 108.332 65.1873L108.72 64.7903C108.277 64.3366 107.723 63.8262 107.059 63.3725L106.671 63.7128ZM109.827 65.0171L109.329 64.3366L109.44 64.2799C110.049 64.1098 110.547 63.8262 110.824 63.5426C111.101 63.2591 111.211 62.8054 111.267 62.2383V62.1816H112.042V62.295C111.986 63.089 111.82 63.6561 111.543 64.053C111.156 64.3933 110.602 64.7336 109.827 65.0171V65.0171ZM109.55 64.3933L109.883 64.7903C110.547 64.5067 111.045 64.2232 111.377 63.8829C111.654 63.5426 111.82 63.0322 111.876 62.3517H111.377C111.322 62.9755 111.156 63.4292 110.879 63.7128C110.602 63.9396 110.159 64.2232 109.55 64.3933ZM115.308 64.5634H113.426C112.817 64.5634 112.706 64.2232 112.706 63.8829V62.1816H113.537V63.5994C113.537 63.7128 113.537 63.7695 113.758 63.7695H115.308V64.5634ZM112.872 62.3517V63.8829C112.872 64.2232 113.038 64.3933 113.426 64.3933H115.142V63.9396H113.758C113.537 63.9396 113.37 63.8262 113.37 63.5994V62.3517H112.872V62.3517ZM110.325 63.1457H109.495V61.0474H115.142V63.1457H114.312V61.898H110.325V63.1457V63.1457ZM109.661 62.9755H110.159V61.7279H114.478V62.9755H114.976V61.2175H109.661V62.9755ZM108.609 63.0322L108.554 62.9755C108.056 62.4651 107.447 61.9547 106.727 61.4443L106.671 61.3876L107.28 60.8205L107.336 60.8772C108.056 61.3876 108.72 61.898 109.218 62.4084L109.274 62.4651L108.609 63.0322ZM106.893 61.3309C107.557 61.8413 108.166 62.295 108.609 62.8054L108.997 62.4084C108.554 61.9547 107.945 61.4443 107.28 60.9907L106.893 61.3309Z" fill="#333333"/>
<path d="M132.471 63.8262V68.2496C132.748 68.0228 132.969 67.7392 133.246 67.399L133.468 68.1929C132.969 68.76 132.416 69.2137 131.862 69.6674L131.585 69.0436C131.696 68.9302 131.807 68.76 131.807 68.5899V64.5067H130.423V63.8262H132.471V63.8262ZM133.246 62.3517L132.748 62.8621C132.36 62.3517 131.807 61.8413 131.087 61.3309L131.585 60.8205C132.194 61.3876 132.748 61.8413 133.246 62.3517ZM138.727 69.951H138.063V69.3271H135.516V69.951H134.852V66.8319C134.52 67.1154 134.132 67.399 133.744 67.6258L133.412 67.002C134.353 66.4349 135.073 65.6977 135.516 64.7336H133.357V64.053H135.793C135.904 63.7128 136.014 63.3725 136.07 63.0323L136.789 63.089C136.734 63.4292 136.623 63.7128 136.513 64.053H139.336V64.7336H136.236C136.014 65.244 135.738 65.7544 135.405 66.1513H138.672V69.951H138.727ZM134.852 61.6712V60.7071H135.516V61.6712H137.343V60.7071H138.063V61.6712H139.281V62.3517H138.063V63.3725H137.343V62.3517H135.516V63.3725H134.852V62.3517H133.523V61.6712H134.852ZM138.118 68.7033V66.8886H135.571V68.7033H138.118Z" fill="#404040"/>
<path d="M138.838 70.0644H138.007V69.4406H135.627V70.0644H134.796V67.0587C134.519 67.3423 134.187 67.5691 133.8 67.7392L133.744 67.796L133.357 67.0587L133.412 67.002C134.298 66.4916 134.962 65.7544 135.461 64.9037H133.357V64.053H135.793C135.903 63.7695 135.959 63.4292 136.07 63.089V63.0322L136.9 63.1457V63.2591C136.845 63.5994 136.734 63.8262 136.679 64.1097H139.447V64.9604H136.402C136.18 65.4708 135.959 65.8678 135.682 66.208H138.893V70.0644H138.838ZM138.173 69.8942H138.672V66.3215H135.294L135.405 66.208C135.737 65.8111 136.014 65.3574 136.236 64.7903V64.7336H139.281V64.2232H136.402L136.457 64.1097C136.568 63.8829 136.623 63.5994 136.679 63.2591L136.125 63.2024C136.07 63.5426 135.959 63.8829 135.848 64.1665V64.2232H133.412V64.7336H135.627L135.571 64.847C135.128 65.7544 134.409 66.5483 133.467 67.1154L133.744 67.5691C134.132 67.3423 134.464 67.1154 134.796 66.8319L134.907 66.7184V69.951H135.405V69.3271H138.118V69.8942H138.173ZM131.807 69.7808L131.474 68.9869L131.53 68.9302C131.64 68.8167 131.696 68.7033 131.696 68.5899V64.6201H130.312V63.7695H132.582V68.0795L133.246 67.399L133.357 67.2856L133.578 68.2496L133.523 68.3063C133.025 68.8735 132.471 69.3839 131.917 69.7808H131.807V69.7808ZM131.64 69.0436L131.862 69.554C132.36 69.157 132.858 68.7033 133.357 68.1929L133.191 67.6258C132.969 67.9094 132.748 68.1362 132.526 68.3631L132.416 68.4765V63.9396H130.478V64.45H131.862V68.5899C131.862 68.76 131.751 68.8735 131.64 69.0436V69.0436ZM138.173 68.76H135.461V66.7752H138.173V68.76ZM135.627 68.6466H138.007V67.002H135.627V68.6466ZM138.118 63.4859H137.288V62.4651H135.627V63.4859H134.741V62.4651H133.412V61.6145H134.741V60.6504H135.571V61.6145H137.232V60.6504H138.063V61.6145H139.281V62.4651H138.063V63.4859H138.118ZM137.454 63.3158H138.007V62.295H139.225V61.7846H138.007V60.8205H137.454V61.7846H135.461V60.8205H134.962V61.7846H133.634V62.295H134.962V63.3158H135.461V62.295H137.454V63.3158V63.3158ZM132.748 63.0322L132.692 62.9755C132.305 62.5218 131.751 62.0115 131.031 61.4443L130.976 61.3876L131.585 60.7638L131.64 60.8205C132.249 61.3309 132.858 61.8413 133.301 62.3517L133.357 62.4084L132.748 63.0322ZM131.198 61.3309C131.862 61.8413 132.36 62.295 132.748 62.7487L133.135 62.3517C132.692 61.8413 132.194 61.3876 131.585 60.9339L131.198 61.3309V61.3309Z" fill="#333333"/>
<path d="M46.6567 53.675C45.2172 53.675 44.1099 53.2213 43.2241 52.3706C42.3383 51.4633 41.8953 50.329 41.8953 48.9113C41.8953 47.5502 42.3383 46.416 43.1687 45.4519C43.9992 44.5445 45.1065 44.0908 46.4906 44.0908C47.93 44.0908 49.0373 44.5445 49.8124 45.3952C50.6429 46.2459 51.0304 47.3801 51.0304 48.6844C51.0304 48.9113 51.0304 49.1948 50.9751 49.4217H43.7224C43.7777 50.2156 44.0545 50.8394 44.6082 51.2931C45.1065 51.7468 45.8262 52.0304 46.712 52.0304C47.93 52.0304 48.8159 51.52 49.2588 50.5559L50.9751 51.0663C50.6429 51.8035 50.1446 52.3706 49.3695 52.881C48.5944 53.3914 47.7086 53.6183 46.6567 53.675V53.675ZM49.2034 48.174C49.148 47.4368 48.8712 46.8697 48.3729 46.416C47.8747 45.9623 47.2657 45.7355 46.4352 45.7355C45.6601 45.7355 45.0511 45.9623 44.5528 46.4727C44.0545 46.9831 43.7777 47.5502 43.7224 48.2307H49.2034V48.174ZM57.1205 53.675C55.681 53.675 54.5737 53.2213 53.6879 52.3706C52.8021 51.4633 52.3592 50.329 52.3592 48.9113C52.3592 47.5502 52.8021 46.416 53.6325 45.4519C54.463 44.5445 55.5703 44.0908 56.9544 44.0908C58.3938 44.0908 59.5011 44.5445 60.2762 45.3952C61.1067 46.2459 61.4942 47.3801 61.4942 48.6844C61.4942 48.9113 61.4942 49.1948 61.4389 49.4217H54.1862C54.2415 50.2156 54.5184 50.8394 55.072 51.2931C55.5703 51.7468 56.29 52.0304 57.1758 52.0304C58.3938 52.0304 59.2797 51.52 59.7226 50.5559L61.4389 51.0663C61.1067 51.7468 60.553 52.3706 59.8333 52.881C59.1136 53.3914 58.1724 53.6183 57.1205 53.675V53.675ZM59.7226 48.174C59.6672 47.4368 59.3904 46.8697 58.8921 46.416C58.3938 45.9623 57.7848 45.7355 56.9544 45.7355C56.1793 45.7355 55.5703 45.9623 55.072 46.4727C54.5737 46.9264 54.2969 47.5502 54.2415 48.2307H59.7226V48.174ZM68.6362 53.1079C67.9718 53.3914 67.3075 53.5615 66.6431 53.5615C65.7019 53.5615 64.9822 53.278 64.5393 52.7109C64.0963 52.1438 63.8195 51.4065 63.8195 50.4425V45.9623H62.214V44.261H63.8749V41.1986H65.7019V44.261H68.5255V45.9623H65.7019V50.4425C65.7019 51.3498 66.1448 51.8602 66.9753 51.8602C67.3628 51.8602 67.7504 51.7468 68.1379 51.5767L68.6362 53.1079V53.1079ZM73.7297 53.6183C72.7331 53.6183 71.8473 53.3347 71.0169 52.8243C70.2418 52.2572 69.7435 51.6334 69.522 50.8394L71.2383 50.329C71.4044 50.8394 71.7366 51.2364 72.1795 51.5767C72.6224 51.9169 73.1761 52.0871 73.7851 52.0871C74.3387 52.0871 74.7816 51.9736 75.1138 51.7468C75.446 51.52 75.6121 51.2364 75.6121 50.8961C75.6121 50.6126 75.5013 50.3857 75.3353 50.2156C75.1692 50.0455 74.837 49.9321 74.4494 49.7619L72.0688 49.0247C70.6847 48.571 69.9649 47.7771 69.9649 46.6995C69.9649 45.9623 70.2971 45.3385 70.9615 44.8281C71.6259 44.3177 72.4563 44.0341 73.3975 44.0341C74.3387 44.0341 75.1692 44.261 75.8335 44.658C76.4979 45.1116 76.9962 45.622 77.273 46.3026L75.6121 46.813C75.446 46.4727 75.1692 46.1324 74.7816 45.9056C74.3941 45.6788 73.9511 45.5086 73.3975 45.5086C72.9546 45.5086 72.567 45.622 72.2902 45.8489C72.0134 46.0757 71.8473 46.3026 71.8473 46.6428C71.8473 47.0398 72.1795 47.3234 72.7885 47.5502L75.1692 48.2307C75.8889 48.4576 76.4979 48.7411 76.8854 49.1381C77.3284 49.5351 77.4945 50.0455 77.4945 50.726C77.4945 51.5767 77.1623 52.2572 76.4425 52.7676C75.7228 53.3347 74.837 53.6183 73.7297 53.6183V53.6183ZM83.5291 53.6183C82.145 53.6183 81.0378 53.1646 80.1519 52.2572C79.2661 51.3498 78.8232 50.2156 78.8232 48.7978C78.8232 47.4368 79.2661 46.3026 80.1519 45.3952C81.0378 44.4878 82.2004 44.0341 83.5291 44.0341C84.9132 44.0341 86.0205 44.4878 86.9063 45.3952C87.7922 46.3026 88.2351 47.4368 88.2351 48.8546C88.2351 50.2156 87.7922 51.3498 86.9063 52.3139C86.0205 53.1646 84.9132 53.6183 83.5291 53.6183V53.6183ZM85.633 51.0096C86.1866 50.4425 86.4634 49.7052 86.4634 48.7978C86.4634 47.8905 86.1866 47.1532 85.633 46.5861C85.0793 46.019 84.3596 45.7355 83.5291 45.7355C82.6987 45.7355 81.9789 46.019 81.4253 46.5861C80.8717 47.1532 80.5948 47.8905 80.5948 48.7978C80.5948 49.6485 80.8717 50.3857 81.4253 51.0096C81.9789 51.5767 82.6987 51.8602 83.5291 51.8602C84.3596 51.9169 85.0793 51.6334 85.633 51.0096V51.0096ZM94.3251 53.675C92.9964 53.675 91.8891 53.2213 90.9479 52.3139C90.0621 51.4065 89.6192 50.2723 89.6192 48.8546C89.6192 47.4935 90.0621 46.3593 90.9479 45.4519C91.8338 44.5445 92.941 44.0908 94.2698 44.0908C95.377 44.0908 96.3182 44.3744 97.0933 44.9415C97.8684 45.5086 98.3113 46.1891 98.5328 46.9264L96.8165 47.4368C96.7058 46.9831 96.3736 46.5861 95.9307 46.2459C95.4878 45.9056 94.9341 45.7355 94.3251 45.7355C93.4947 45.7355 92.7749 46.019 92.2213 46.6428C91.6677 47.2099 91.3908 47.9472 91.3908 48.8546C91.3908 49.7052 91.6677 50.4425 92.2213 51.0663C92.7749 51.6901 93.4393 51.9736 94.2698 51.9736C94.8788 51.9736 95.4324 51.8035 95.8753 51.52C96.3182 51.2364 96.6504 50.8394 96.7612 50.3857L98.4774 50.8961C98.3113 51.6334 97.8131 52.3139 97.038 52.881C96.3736 53.3347 95.4324 53.6183 94.3251 53.675V53.675ZM100.581 42.4462C100.36 42.2194 100.249 41.9358 100.249 41.5956C100.249 41.312 100.36 41.0285 100.581 40.8016C100.803 40.5748 101.08 40.4614 101.412 40.4614C101.744 40.4614 102.021 40.5748 102.242 40.8016C102.464 41.0285 102.574 41.312 102.574 41.5956C102.574 41.9358 102.464 42.2194 102.242 42.4462C102.021 42.6731 101.744 42.7865 101.412 42.7865C101.08 42.7865 100.803 42.6731 100.581 42.4462ZM100.471 44.261H102.298V53.3914H100.471V44.261ZM108.775 53.6183C107.502 53.6183 106.45 53.1646 105.619 52.2572C104.789 51.3498 104.346 50.2156 104.346 48.7978C104.346 47.4368 104.789 46.3026 105.619 45.3952C106.45 44.4878 107.502 44.0341 108.775 44.0341C110.159 44.0341 111.267 44.6012 111.986 45.6788V44.3177H113.813V53.4481H111.986V52.0871C111.211 53.1079 110.159 53.6183 108.775 53.6183V53.6183ZM109.052 51.9169C109.882 51.9169 110.602 51.6334 111.156 51.0663C111.709 50.4992 111.986 49.7619 111.986 48.8546C111.986 47.9472 111.709 47.2099 111.156 46.6428C110.602 46.0757 109.882 45.7922 109.052 45.7922C108.222 45.7922 107.502 46.0757 106.948 46.6428C106.395 47.2099 106.118 47.9472 106.118 48.8546C106.118 49.7619 106.395 50.4992 106.948 51.0663C107.502 51.6334 108.222 51.9169 109.052 51.9169ZM116.305 40.1211H118.187V53.3914H116.305V40.1211ZM135.184 47.4368C135.184 49.365 134.575 50.8394 133.412 51.9736C132.25 53.1079 130.755 53.6183 128.983 53.6183C127.156 53.6183 125.606 52.9944 124.332 51.7468C123.059 50.4992 122.45 48.9113 122.45 46.9831C122.45 45.1116 123.059 43.5805 124.277 42.3328C125.495 41.0852 127.045 40.4614 128.872 40.4614C130.256 40.4614 131.474 40.8016 132.526 41.4822C133.578 42.1627 134.298 43.0701 134.686 44.2043L133.357 44.5445C133.025 43.6939 132.416 43.0133 131.641 42.5029C130.865 41.9925 129.924 41.7657 128.872 41.7657C127.377 41.7657 126.159 42.2761 125.274 43.2969C124.388 44.3177 123.89 45.5086 123.89 46.9831C123.89 48.4576 124.332 49.7052 125.274 50.726C126.215 51.7468 127.433 52.2572 128.983 52.2572C130.312 52.2572 131.419 51.8602 132.305 51.0663C133.191 50.2723 133.634 49.1948 133.744 47.8905H128.872V46.6428H135.128L135.184 47.4368V47.4368ZM138.616 45.9056C138.893 45.2818 139.281 44.8281 139.834 44.5445C140.388 44.261 141.052 44.1476 141.772 44.261V45.5653C140.776 45.4519 140.001 45.6788 139.447 46.2459C138.893 46.813 138.616 47.8338 138.616 49.1948V53.4481H137.232V44.3744H138.616V45.9056ZM147.032 53.6183C145.703 53.6183 144.596 53.1646 143.71 52.2572C142.824 51.3498 142.381 50.2156 142.381 48.8546C142.381 47.4935 142.824 46.3593 143.71 45.4519C144.596 44.5445 145.703 44.0908 147.032 44.0908C148.36 44.0908 149.468 44.5445 150.354 45.4519C151.239 46.3593 151.682 47.4935 151.682 48.8546C151.682 50.2156 151.239 51.3498 150.354 52.2572C149.468 53.1646 148.36 53.6183 147.032 53.6183ZM147.032 52.3706C147.973 52.3706 148.748 52.0304 149.412 51.4065C150.021 50.726 150.354 49.9321 150.354 48.9113C150.354 47.8905 150.021 47.0965 149.412 46.416C148.803 45.7355 147.973 45.3952 147.032 45.3952C146.091 45.3952 145.26 45.7355 144.651 46.416C143.987 47.0965 143.71 47.8905 143.71 48.9113C143.71 49.9321 144.042 50.726 144.651 51.4065C145.26 52.0304 146.091 52.3139 147.032 52.3706V52.3706ZM161.925 44.3177V53.3914H160.541V51.8035C159.821 52.9944 158.714 53.6183 157.274 53.6183C156.167 53.6183 155.281 53.278 154.672 52.5408C154.063 51.8602 153.731 50.8394 153.731 49.5918V44.261H155.115V49.365C155.115 50.2723 155.336 50.9529 155.779 51.4633C156.222 51.9736 156.831 52.2005 157.606 52.2005C158.492 52.2005 159.212 51.8602 159.765 51.2364C160.319 50.6126 160.596 49.7619 160.596 48.7411V44.2043L161.925 44.3177V44.3177ZM169.454 44.0908C170.728 44.0908 171.779 44.5445 172.665 45.4519C173.496 46.3593 173.939 47.4935 173.939 48.8546C173.939 50.2156 173.496 51.3498 172.665 52.2572C171.835 53.1646 170.728 53.6183 169.454 53.6183C168.679 53.6183 168.015 53.4481 167.406 53.1079C166.797 52.7676 166.354 52.3139 165.966 51.6901V57.1343H164.582V44.3177H165.966V45.9623C166.686 44.7147 167.849 44.0908 169.454 44.0908V44.0908ZM169.233 52.3706C170.229 52.3706 171.004 52.0304 171.613 51.4065C172.222 50.726 172.555 49.9321 172.555 48.9113C172.555 47.8905 172.222 47.0398 171.613 46.416C171.004 45.7922 170.174 45.4519 169.233 45.4519C168.292 45.4519 167.516 45.7922 166.852 46.4727C166.188 47.1532 165.856 47.9472 165.856 48.968C165.856 49.9888 166.188 50.7827 166.852 51.4633C167.516 52.1438 168.292 52.3706 169.233 52.3706ZM38.0752 40.6882L33.8676 47.0398L34.9195 48.571L38.0199 44.0908V53.3914H39.9576V40.6882H38.0752Z" fill="#404040"/>
<path d="M26.0613 51.123V53.3914H29.1617L31.3762 50.2723L28.8848 47.0398L26.0613 51.123Z" fill="#FF0000"/>
<path d="M31.3762 43.7506L29.1063 40.6315H26.0613V42.9566L28.8848 47.0398L31.3762 43.7506Z" fill="#007AFF"/>
<path d="M31.3763 43.7506L28.8849 47.0398L31.3763 50.2723L33.8677 47.0398L31.3763 43.7506Z" fill="#FF69CB"/>
</g>
<defs>
<clipPath id="clip0_9_397">
<rect width="200" height="109" fill="white" transform="translate(0 0.621094)"/>
</clipPath>
</defs>
</svg>
