<svg width="253" height="297" viewBox="0 0 253 297" fill="none" xmlns="http://www.w3.org/2000/svg">
<path fill-rule="evenodd" clip-rule="evenodd" d="M252.349 297H0C11.9292 238.232 63.8864 194 126.175 194C188.463 194 240.42 238.232 252.349 297Z" fill="#FFB000"/>
<path d="M122.972 113.389C122.972 113.389 162.029 128.436 167.173 137.817C172.317 147.205 184.992 206.525 184.992 206.525C184.992 206.525 204.003 218.149 205.22 222.592C206.437 227.034 207.043 229.354 200.657 231.963C194.264 234.573 165.635 239.621 159.419 234.252C153.203 228.883 137.808 165.062 134.467 162.386C131.126 159.709 96.482 150.731 96.482 150.731C87.3808 146.697 116.036 106.379 122.972 113.389Z" fill="white"/>
<path d="M164.252 196.677C170.183 195.533 176.549 193.012 181.055 188.755C183.376 198.935 184.997 206.53 184.997 206.53C184.997 206.53 204.003 218.149 205.22 222.592C206.437 227.034 207.043 229.354 200.657 231.963C194.264 234.573 165.635 239.621 159.419 234.252C156.352 231.606 151.063 214.763 146.08 198.039C146.821 197.894 147.562 197.739 148.302 197.573C153.617 198.008 158.968 197.697 164.252 196.677Z" fill="#5071E7"/>
<path d="M10.0118 62.2336C10.535 67.9187 12.7831 87.0658 20.6878 106.824C28.7789 127.048 45.6553 149.7 50.3431 155.794C51.0942 156.773 52.3478 157.244 53.5754 157.001C57.9991 156.115 62.801 154.774 67.6961 153.092C80.4958 148.68 93.9119 141.944 102.92 135.068L54.9378 39.9955L53.7464 37.6396C39.7501 41.5799 22.8478 50.268 11.2188 59.4532C10.3692 60.1263 9.9134 61.1722 10.0118 62.2336Z" fill="#5071E7"/>
<path d="M29.9755 118.034C33.1922 113.757 36.0826 109.252 38.7659 104.629C48.0847 88.5466 55.2486 71.2221 61.9359 53.8613L102.92 135.068C93.9119 141.944 80.4958 148.685 67.6961 153.092C62.8062 154.774 58.0043 156.115 53.5754 157.001C52.3478 157.244 51.0942 156.773 50.3431 155.794C46.7638 151.134 36.0671 136.813 27.6082 121.295C28.5251 120.338 29.3176 119.255 29.9755 118.034Z" fill="#5071E7"/>
<path d="M26.6706 58.863C27.1938 64.5532 29.4419 83.6951 37.3466 103.453C45.4377 123.672 62.3141 146.324 66.9968 152.424C67.1936 152.688 67.4319 152.91 67.6961 153.092C80.4958 148.68 93.9119 141.944 102.92 135.068L54.9378 39.9955C45.1891 44.3706 35.4196 50.1179 27.8776 56.0774C27.0229 56.7556 26.567 57.7964 26.6706 58.863Z" fill="#3B5BCB"/>
<path d="M32.5876 45.9757C32.6186 63.1346 46.8843 77.0108 64.4133 76.9383C81.9113 76.8658 95.9905 62.9171 95.8921 45.8152C95.7988 28.7496 81.6109 14.951 64.1802 14.9666C46.7133 14.9769 32.5513 28.8479 32.5876 45.9757Z" fill="white"/>
<path d="M126.956 168.381C129.396 172.239 130.913 175.563 130.82 177.774C130.406 188.077 111.048 243.023 111.048 243.023C111.048 243.023 121.289 261.093 120.087 265.251C118.885 269.403 118.228 271.557 111.53 270.879C104.786 270.195 77.4508 261.574 74.7262 254.289C71.986 246.958 91.3125 186.048 89.7429 182.133C88.1682 178.203 58.5128 151.777 58.5128 151.777C40.9423 134.68 89.3389 128.389 96.3733 132.593C96.3785 132.583 117.958 154.148 126.956 168.381C126.956 168.381 129.396 172.244 126.956 168.381Z" fill="white"/>
<path d="M91.4733 222.291C94.8714 224.487 98.8651 226.428 102.843 227.205C107.226 228.059 111.401 227.873 115.809 227.821C115.969 227.821 116.125 227.816 116.28 227.806C113.297 236.634 111.048 243.018 111.048 243.018C111.048 243.018 121.289 261.088 120.087 265.245C118.886 269.398 118.228 271.552 111.53 270.874C104.786 270.19 77.4511 261.569 74.7264 254.284C73.3019 250.474 77.8448 232.165 82.3151 214.924C85.1693 217.637 88.184 220.169 91.4733 222.291Z" fill="#5071E7"/>
<path d="M123.719 121.798C123.719 121.798 115.374 85.5488 111.028 77.3628C107.92 71.5172 104.113 65.8011 99.4816 61.0117C94.4415 55.7978 89.7329 54.0581 82.5017 55.9738C71.2456 58.9562 60.2485 63.3158 50.448 69.6274C41.3157 75.5144 30.7537 83.9437 30.4014 95.6401C30.1787 103.018 35.4364 109.573 38.938 115.704C44.5946 125.608 50.6448 135.311 56.8297 144.921C57.2285 145.543 57.6326 146.169 58.0366 146.79C58.0366 146.79 95.2548 143.793 99.7717 142.296C104.283 140.8 123.719 121.798 123.719 121.798Z" fill="white"/>
<path d="M64.6883 105.493C64.709 105.788 64.7245 106.073 64.7245 106.358C64.7608 116.625 50.8681 121.363 42.4921 121.42C38.9282 121.446 27.6359 119.701 27.6307 116.268L31.2308 109.475C32.0803 107.978 33.8726 108.879 34.6289 108.015C39.1147 102.842 44.2947 102.324 44.4346 102.195C46.9624 99.8287 50.2051 96.9603 54.5303 96.9396C59.5342 96.9137 64.3257 100.745 64.6883 105.493Z" fill="#5071E7"/>
<path d="M70.9502 102.604C71.0124 103.023 71.0435 103.453 71.0486 103.888C71.0642 108.268 68.065 113.146 63.5998 113.177C59.9738 113.198 57.0938 110.365 57.0782 105.586C57.0679 101.853 62.3877 89.7944 69.0647 89.7582C72.7011 89.7375 74.8197 92.1606 74.83 95.1482C74.8456 99.1091 70.9036 99.9789 70.914 102.097C70.9088 102.262 70.9243 102.433 70.9502 102.604Z" fill="#5071E7"/>
<path d="M115.016 100.605C115.006 99.1816 117.342 86.2788 117.342 86.2788C117.342 86.2788 122.88 81.2461 125.283 79.3303C127.687 77.4146 161.341 54.9849 161.341 54.9849L172.737 48.6215L176.166 32.8451L164.133 24.9077L157.518 27.7503L143.05 34.8696L111.292 50.3612L87.3294 55.9013L115.016 100.605Z" fill="white"/>
<path d="M181.735 10.2083C181.735 10.2083 196.897 9.64389 198.052 12.0515C199.207 14.4591 198.782 16.5302 197.326 17.7677C195.871 19.0051 188.132 17.778 188.132 17.778L179.595 19.2071L181.735 10.2083Z" fill="#5071E7"/>
<path d="M180.74 14.8629C180.74 14.8629 195.638 17.9178 196.171 20.5273C196.705 23.1369 195.783 25.0422 194.063 25.8966C192.343 26.7509 185.107 23.7219 185.107 23.7219L176.446 23.0799L180.74 14.8629Z" fill="#5071E7"/>
<path d="M178.341 17.7935C178.341 17.7935 192.84 22.3964 193.089 25.0422C193.338 27.6932 192.208 29.4898 190.4 30.1526C188.593 30.8205 181.719 27.046 181.719 27.046L173.161 25.4979L178.341 17.7935Z" fill="#5071E7"/>
<path d="M169.623 48.0416C165.624 44.7848 162.604 28.0299 164.127 24.9077C167.401 18.1974 173.208 8.94492 174.824 7.98704C177.17 6.59425 192.627 -1.36903 194.622 0.204984C196.616 1.779 198.242 4.00023 196.29 6.03506C194.337 8.07506 186.929 11.1351 186.929 11.1351L180.832 23.0179C180.832 23.0179 179.444 34.4502 174.161 35.4857C172.078 35.8896 171.327 49.4292 169.623 48.0416Z" fill="#5071E7"/>
<path d="M172.736 48.6214C174.202 48.3626 175.652 47.5548 176.797 46.7989C178.47 45.7012 180.107 44.2825 180.868 42.3979C182.541 38.2557 182.132 32.348 182.547 30.9138C182.961 29.4795 185.867 21.2988 184.479 19.1915C183.085 17.0894 179.387 15.5723 177.113 19.2018C174.834 22.8314 175.383 25.7775 174.362 27.046C172.653 29.1741 170.524 30.8102 169.167 33.2437C167.39 36.4228 167.1 40.6685 167.706 44.2152C168.012 46.0171 168.773 48.0726 170.778 48.58C171.415 48.7457 172.078 48.7405 172.736 48.6214Z" fill="#5071E7"/>
<path d="M58.2129 98.6223C58.1352 98.6223 58.0782 98.643 58.016 98.643C55.8508 98.6534 55.8249 87.7078 49.034 87.7388C46.6564 87.7492 44.3565 89.3439 44.3616 91.8499C44.3668 94.0504 46.014 96.2975 46.0192 98.5654C46.0244 99.7614 45.6152 101.134 44.3306 101.144C42.0151 101.159 41.2433 92.9217 35.6489 92.9528C33.1159 92.9683 31.65 94.8167 31.6551 97.0949C31.6603 99.5957 35.9027 103.836 35.9027 105.296C35.9027 105.824 35.5867 106.301 35.0946 106.301C33.0796 106.311 29.5106 102.319 26.6513 102.335C24.6466 102.345 22.8647 104.245 22.8647 106.001C22.8699 108.91 29.148 110.402 29.1532 112.017C29.1532 112.374 28.8061 112.504 28.4384 112.509C27.4283 112.514 25.6619 111.675 24.1597 111.68C22.1758 111.691 20.2229 113.146 20.2281 115.046C20.2333 118.903 27.9152 119.789 30.5414 119.773C47.5784 119.659 30.4482 107.559 54.5144 101.17C56.0166 100.766 57.2598 99.8028 58.2129 98.6223Z" fill="#5071E7"/>
<path d="M64.589 70.3885C67.3137 70.839 70.287 70.5024 73.2758 69.7051C83.8223 66.8936 94.4879 58.3297 94.4879 58.3297C94.4879 58.3297 98.9116 52.1838 95.8554 38.0901C94.1045 30.0233 88.8261 24.7938 84.6355 21.8011C81.5172 19.5644 78.9997 18.5754 78.9997 18.5754C78.9997 18.5754 71.7581 21.8581 64.4284 27.5484C57.0832 33.2438 51.4785 40.8136 49.3754 49.6933C47.262 58.5938 52.2296 68.3485 64.589 70.3885Z" fill="#92AFE4"/>
<path d="M73.27 69.705C83.8164 66.8935 94.482 58.3296 94.482 58.3296C94.482 58.3296 98.9057 52.1837 95.8495 38.09C94.0987 30.0232 88.8203 24.7937 84.6297 21.801C82.1381 23.2715 79.1285 25.2028 76.1034 27.5534C68.7582 33.2489 63.1483 40.8187 61.0504 49.6984C59.1235 57.8325 63.1121 66.6915 73.27 69.705Z" fill="#A7C4FA"/>
<path d="M106.314 76.7518L93.1883 83.4259L104.279 112.778L116.648 106.058L106.314 76.7518Z" fill="#A7C4FA"/>
<path d="M91.8313 85.0103L78.669 91.705L89.7593 121.104L102.16 114.363L91.8313 85.0103Z" fill="#A7C4FA"/>
<path d="M172.892 234.195C173.109 234.195 173.322 234.195 173.539 234.19C182.946 234.065 193.171 231.357 203.941 226.144C204.329 225.957 204.49 225.491 204.303 225.108C204.117 224.72 203.651 224.559 203.267 224.746C192.71 229.861 182.703 232.517 173.524 232.636C169.333 232.693 165.324 232.201 161.599 231.176C161.185 231.062 160.76 231.306 160.646 231.72C160.532 232.134 160.776 232.559 161.19 232.673C164.858 233.687 168.794 234.195 172.892 234.195Z" fill="#3D7CB3"/>
<path d="M115.55 268.59C115.918 268.59 116.244 268.326 116.311 267.953C116.389 267.529 116.109 267.125 115.69 267.047C108.091 265.655 91.9705 260.668 78.6942 252.648C78.3265 252.425 77.8499 252.545 77.6272 252.912C77.4044 253.28 77.5236 253.756 77.8913 253.979C91.3437 262.103 107.697 267.156 115.405 268.575C115.451 268.585 115.503 268.59 115.55 268.59Z" fill="#3D7CB3"/>
<path d="M92.3692 181.45C92.4158 181.45 92.4572 181.445 92.5039 181.439L92.8924 181.372C93.7315 181.222 94.4567 181.092 95.2907 181.082C95.7206 181.077 96.0625 180.725 96.0625 180.295C96.0573 179.865 95.7154 179.529 95.2803 179.529C94.3169 179.539 93.4932 179.684 92.623 179.839L92.2397 179.907C91.8149 179.979 91.5352 180.383 91.6077 180.808C91.6699 181.18 92.0014 181.45 92.3692 181.45Z" fill="#3D7CB3"/>
<path d="M91.3336 180.104C91.5616 180.104 91.7895 180.005 91.9397 179.814C92.1055 179.607 92.3696 179.291 92.6804 178.923C93.9754 177.385 95.1668 175.946 95.5605 175.159C95.7522 174.776 95.5968 174.31 95.2134 174.118C94.8301 173.927 94.3639 174.082 94.1723 174.465C93.8304 175.149 92.3696 176.888 91.4942 177.924C91.1731 178.307 90.8985 178.633 90.7276 178.845C90.4582 179.182 90.5152 179.669 90.8519 179.938C90.9969 180.047 91.1679 180.104 91.3336 180.104Z" fill="#3D7CB3"/>
<path d="M137.694 161.925C137.833 161.925 137.968 161.888 138.098 161.811C138.419 161.614 138.709 161.386 138.983 161.169C139.465 160.786 139.879 160.459 140.366 160.371C140.791 160.299 141.071 159.895 140.998 159.47C140.926 159.046 140.522 158.761 140.102 158.839C139.227 158.989 138.584 159.496 138.02 159.947C137.771 160.144 137.533 160.335 137.289 160.48C136.922 160.703 136.808 161.179 137.025 161.547C137.17 161.79 137.429 161.925 137.694 161.925Z" fill="#3D7CB3"/>
<path d="M136.652 160.247C136.849 160.247 137.051 160.17 137.201 160.019C137.652 159.564 138.035 158.942 138.232 158.357C138.367 157.948 138.144 157.513 137.735 157.379C137.326 157.244 136.891 157.467 136.756 157.876C136.637 158.233 136.383 158.642 136.103 158.927C135.803 159.232 135.803 159.724 136.108 160.025C136.259 160.17 136.455 160.247 136.652 160.247Z" fill="#3D7CB3"/>
<path d="M121.174 160.553C121.345 160.553 121.522 160.496 121.667 160.377C121.998 160.107 122.05 159.615 121.781 159.284C115.311 151.352 104.816 139.578 96.5126 132.515C96.1862 132.236 95.6941 132.277 95.4144 132.603C95.1347 132.93 95.1761 133.422 95.5025 133.696C103.723 140.691 114.145 152.377 120.574 160.263C120.724 160.454 120.947 160.553 121.174 160.553Z" fill="#002954"/>
<path d="M62.8787 87.9511C62.9874 87.9511 63.091 87.9304 63.1946 87.8838C63.5883 87.7078 63.7592 87.247 63.5831 86.8587C60.8377 80.7386 55.3211 75.8975 48.8306 73.9093C48.4213 73.785 47.9862 74.0128 47.8619 74.4219C47.7376 74.8309 47.9655 75.2658 48.3799 75.3901C54.4508 77.2489 59.6049 81.7742 62.1742 87.4903C62.2985 87.7803 62.5834 87.9511 62.8787 87.9511Z" fill="#002954"/>
<path d="M106.587 71.7088C106.675 71.7088 106.763 71.6933 106.846 71.6622C107.25 71.5172 107.463 71.0771 107.318 70.6681C105.354 65.1383 102.811 58.9096 97.4239 54.9383C97.0768 54.6846 96.5899 54.7571 96.3361 55.104C96.0823 55.4509 96.1548 55.9376 96.5018 56.1913C101.537 59.9037 103.971 65.8787 105.857 71.191C105.971 71.5069 106.271 71.7088 106.587 71.7088Z" fill="#002954"/>
<path d="M101.165 64.9312C101.237 64.9312 101.305 64.9208 101.377 64.9001C101.791 64.781 102.03 64.3513 101.911 63.9423C101.393 62.1094 100.227 60.8201 99.1031 59.5671C98.813 59.2461 98.3261 59.2202 98.0049 59.5102C97.6837 59.7949 97.6578 60.2868 97.9479 60.6078C98.9995 61.778 99.994 62.8808 100.414 64.3668C100.517 64.7086 100.828 64.9312 101.165 64.9312Z" fill="#002954"/>
<path d="M62.1086 74.2769C62.1811 74.2769 62.2536 74.2769 62.3262 74.2769C75.6905 74.2199 87.9722 69.1924 96.0219 60.4732C96.312 60.1574 96.2913 59.6655 95.9753 59.3755C95.6593 59.0856 95.1672 59.1063 94.8771 59.417C87.1175 67.8203 75.2502 72.6666 62.3158 72.7184C57.7522 72.7391 53.2715 72.1644 48.9463 71.0098C48.537 70.8959 48.1071 71.1444 47.9983 71.5586C47.8896 71.9728 48.133 72.3974 48.5474 72.5113C52.94 73.6866 57.4984 74.2769 62.1086 74.2769Z" fill="#002954"/>
<path d="M64.5371 77.3265C64.5889 77.3265 64.6459 77.3214 64.6977 77.311L66.0963 77.0159C76.8292 74.7584 87.9299 72.4233 95.5755 64.2529C95.8708 63.9371 95.85 63.4504 95.5393 63.1552C95.2285 62.8601 94.7364 62.8808 94.4411 63.1915C87.1322 70.9994 76.2749 73.2828 65.7803 75.4936L64.3765 75.7888C63.9569 75.8768 63.6876 76.291 63.7756 76.7104C63.8585 77.078 64.1797 77.3265 64.5371 77.3265Z" fill="#002954"/>
<path d="M44.579 62.8964C46.5474 62.8912 48.0755 61.1929 48.0703 59.0338C48.0651 56.4605 45.8895 53.5144 43.7502 51.93C43.0768 51.433 42.1444 51.1482 41.1965 51.1482C38.9276 51.1534 37.586 52.629 37.5912 55.0936C37.5964 56.9679 38.5909 59.0752 40.2589 60.7269C41.6471 62.1042 43.2218 62.8964 44.579 62.8964ZM41.1965 52.6963C41.8077 52.6963 42.4189 52.8775 42.823 53.1778C44.6101 54.4982 46.506 56.999 46.5111 59.0338C46.5163 60.1418 45.7756 61.3379 44.5842 61.3431C43.6518 61.3431 42.4189 60.6855 41.3519 59.6241C39.9947 58.2727 39.1504 56.5382 39.1452 55.0884C39.14 52.7067 40.6785 52.7015 41.1861 52.7015C41.1913 52.6963 41.1913 52.6963 41.1965 52.6963Z" fill="#002954"/>
<path d="M45.3303 122.253C45.3718 122.253 45.408 122.253 45.4495 122.253C52.9397 122.201 59.0107 117.412 62.9319 113.814C63.4344 113.353 64.3098 113.047 65.237 112.716C67.0085 112.089 69.21 111.313 69.7643 108.936C69.8627 108.517 69.6037 108.103 69.1841 108.004C68.7646 107.906 68.3502 108.165 68.2517 108.584C67.8891 110.132 66.3507 110.676 64.7242 111.251C63.6416 111.634 62.6211 111.991 61.8855 112.669C55.8768 118.189 50.8056 120.664 45.4443 120.7C44.9574 120.705 44.4705 120.684 43.9835 120.648C43.5588 120.612 43.1807 120.933 43.1444 121.363C43.1081 121.792 43.4293 122.165 43.8592 122.196C44.3462 122.233 44.8382 122.253 45.3303 122.253Z" fill="#002954"/>
<path d="M54.1973 82.6803C54.3735 82.6803 54.5548 82.6182 54.6998 82.4939C55.0261 82.2143 55.0624 81.7225 54.7827 81.3963C53.0733 79.3977 50.706 77.9893 48.2921 77.5233C47.8674 77.4405 47.4633 77.7201 47.3805 78.1395C47.2976 78.5589 47.5773 78.9679 47.9969 79.0508C50.0689 79.4494 52.115 80.6714 53.6016 82.4059C53.7622 82.5871 53.9798 82.6803 54.1973 82.6803Z" fill="#002954"/>
<path d="M67.697 100.543C67.7125 100.543 67.7229 100.543 67.7384 100.543C69.2613 100.533 70.6548 100.015 71.6545 99.0832C71.9653 98.7881 71.986 98.3014 71.6907 97.9855C71.3955 97.6697 70.9086 97.6542 70.5926 97.9493C69.8778 98.6172 68.8625 98.9848 67.7332 98.99C66.4279 98.99 63.9829 98.4619 63.7188 96.4529C63.6618 96.0284 63.2629 95.7281 62.8485 95.785C62.4238 95.842 62.1233 96.2303 62.1803 96.6549C62.5274 99.3317 65.2779 100.543 67.697 100.543Z" fill="#002954"/>
<path d="M50.049 96.2665C50.0594 96.2665 50.0697 96.2665 50.0801 96.2665C51.748 96.2561 53.0016 95.64 53.7061 94.475C53.9288 94.1074 53.8097 93.631 53.4419 93.4084C53.0741 93.1857 52.5976 93.2996 52.3748 93.6724C51.9604 94.3559 51.1834 94.708 50.0697 94.7131C49.5724 94.7183 49.0285 94.6458 48.495 94.506C48.0806 94.4025 47.6558 94.651 47.5471 95.0652C47.4383 95.4795 47.6921 95.904 48.1065 96.0128C48.7644 96.1784 49.4326 96.2665 50.049 96.2665Z" fill="#002954"/>
<path d="M108.287 137.9C108.666 137.9 108.997 137.621 109.054 137.238C111.085 123.398 122.289 115.786 124.501 114.735C124.703 114.896 124.977 114.953 125.241 114.865C125.645 114.725 125.863 114.285 125.723 113.876C125.557 113.389 125.133 113.089 124.62 113.089C123.159 113.099 109.8 121.451 107.516 137.015C107.453 137.44 107.749 137.833 108.173 137.895C108.21 137.895 108.251 137.9 108.287 137.9Z" fill="#002954"/>
<path d="M103.947 132.453C104.206 132.453 104.46 132.324 104.61 132.086C108.91 125.122 114.26 116.459 122.916 112.737C123.31 112.566 123.491 112.11 123.325 111.717C123.154 111.323 122.699 111.142 122.305 111.308C113.199 115.222 107.708 124.117 103.294 131.268C103.066 131.635 103.18 132.112 103.548 132.334C103.667 132.417 103.807 132.453 103.947 132.453Z" fill="#002954"/>
<path d="M66.8 161.894C66.8259 161.894 66.8467 161.894 66.8726 161.888C67.3025 161.847 67.6133 161.469 67.5719 161.044C67.5304 160.604 67.5097 160.154 67.5045 159.709C67.4579 147.101 84.4793 137.372 93.0159 137.31C93.3578 137.31 93.71 137.315 94.0519 137.336C94.487 137.357 94.8496 137.036 94.8755 136.606C94.9014 136.176 94.5751 135.808 94.1451 135.783C93.7722 135.762 93.3889 135.751 93.0055 135.751C88.1105 135.788 81.4335 138.501 75.9893 142.658C69.4884 147.624 65.9246 153.682 65.9505 159.709C65.9505 160.2 65.9764 160.698 66.023 161.184C66.0645 161.593 66.4012 161.894 66.8 161.894Z" fill="#002954"/>
<path d="M66.0713 149.664C66.3717 149.664 66.6566 149.493 66.781 149.203C70.6452 140.458 80.0883 134.535 90.2825 134.457H90.5674C90.9974 134.457 91.3444 134.11 91.3496 133.686C91.3496 133.256 91.0077 132.909 90.5778 132.904H90.2722C79.4771 132.987 69.4694 139.283 65.3616 148.571C65.1907 148.965 65.3668 149.421 65.7605 149.597C65.8589 149.638 65.9677 149.664 66.0713 149.664Z" fill="#002954"/>
<path d="M59.1802 135.586C59.2217 135.586 59.2683 135.581 59.3097 135.575C69.6283 133.846 79.118 128.969 87.0434 124.428C87.4163 124.216 87.5458 123.739 87.3334 123.367C87.1211 122.994 86.6445 122.864 86.2715 123.077C78.4653 127.55 69.131 132.35 59.0507 134.038C58.626 134.11 58.3411 134.509 58.4136 134.933C58.4809 135.317 58.8073 135.586 59.1802 135.586Z" fill="#002954"/>
<path d="M79.543 122.968C81.3715 122.279 83.257 121.57 85.0234 120.394C85.3808 120.156 85.4792 119.675 85.2409 119.318C85.0027 118.96 84.5209 118.862 84.1635 119.1C82.5422 120.177 80.8172 120.829 78.9991 121.513L79.543 122.968Z" fill="#002954"/>
<path d="M115.72 85.5281C116.124 85.5281 116.466 85.2122 116.492 84.8032C116.601 83.2343 116.647 81.6707 116.642 80.1588C116.575 69.9484 113.861 61.7314 108.577 55.7408C108.292 55.4198 107.8 55.3888 107.479 55.6735C107.158 55.9583 107.127 56.4502 107.411 56.7712C112.441 62.4718 115.021 70.3471 115.088 80.1743C115.099 81.65 115.052 83.1722 114.943 84.7048C114.912 85.1346 115.238 85.5022 115.663 85.5332C115.689 85.5281 115.705 85.5281 115.72 85.5281Z" fill="#002954"/>
<path d="M144.708 62.8238C144.744 62.8238 144.775 62.8238 144.811 62.8187C145.236 62.7617 145.536 62.3682 145.479 61.9436C145.236 60.1314 144.759 58.6454 144.029 57.408C143.811 57.0404 143.33 56.9161 142.967 57.1336C142.599 57.351 142.475 57.8274 142.693 58.195C143.314 59.2512 143.723 60.5405 143.941 62.1507C143.993 62.5391 144.324 62.8238 144.708 62.8238Z" fill="#002954"/>
<path d="M141.522 63.3882C141.595 63.3882 141.672 63.3778 141.745 63.3571C142.154 63.2328 142.392 62.8031 142.268 62.3889C141.91 61.1928 141.289 60.3178 140.636 59.391C140.512 59.215 140.388 59.0389 140.258 58.8525C140.015 58.5004 139.533 58.4124 139.175 58.6506C138.823 58.8939 138.73 59.3755 138.973 59.7327C139.103 59.9243 139.232 60.1055 139.362 60.2867C139.968 61.1411 140.491 61.8815 140.776 62.8342C140.88 63.1707 141.185 63.3882 141.522 63.3882Z" fill="#002954"/>
<path d="M158.217 144.761C158.419 144.761 158.616 144.683 158.766 144.533C160.02 143.275 161.61 142.571 163.299 141.825C164.428 141.323 165.599 140.81 166.686 140.106C167.044 139.873 167.147 139.391 166.914 139.034C166.681 138.672 166.2 138.573 165.837 138.806C164.853 139.443 163.791 139.914 162.667 140.411C160.921 141.183 159.113 141.98 157.658 143.446C157.357 143.751 157.357 144.243 157.663 144.543C157.818 144.683 158.015 144.761 158.217 144.761Z" fill="#002954"/>
<path d="M157.622 141.411C157.85 141.411 158.078 141.312 158.233 141.116C159.098 140.028 160.378 139.407 161.74 138.744C162.502 138.377 163.284 137.993 164.035 137.512C164.398 137.279 164.501 136.797 164.268 136.44C164.035 136.078 163.553 135.974 163.196 136.207C162.522 136.637 161.782 136.999 161.062 137.346C159.606 138.05 158.104 138.78 157.021 140.147C156.757 140.484 156.809 140.971 157.146 141.24C157.28 141.354 157.451 141.411 157.622 141.411Z" fill="#002954"/>
<path d="M127.209 178.68C127.255 178.68 127.302 178.68 127.343 178.68C127.773 178.675 128.115 178.322 128.115 177.893C128.11 177.468 127.763 177.126 127.338 177.126C127.297 177.126 127.25 177.126 127.204 177.126C125.893 177.126 124.629 176.924 123.288 176.707C121.904 176.484 120.48 176.246 118.988 176.272C118.558 176.277 118.216 176.629 118.216 177.054C118.221 177.484 118.569 177.825 118.998 177.825C120.345 177.81 121.656 178.022 123.039 178.245C124.386 178.457 125.769 178.68 127.209 178.68Z" fill="#002954"/>
<path d="M126.547 173.818C126.816 173.818 127.075 173.678 127.22 173.43C127.438 173.057 127.308 172.586 126.941 172.368C125.692 171.643 124.428 171.55 123.216 171.566C122.942 171.571 122.662 171.576 122.382 171.586C122.113 171.597 121.838 171.602 121.564 171.607C121.17 171.612 120.844 171.602 120.543 171.576C120.124 171.535 119.74 171.861 119.709 172.29C119.673 172.72 119.994 173.093 120.424 173.124C120.771 173.15 121.139 173.16 121.584 173.16C121.869 173.155 122.149 173.15 122.434 173.14C122.703 173.129 122.968 173.124 123.237 173.119C124.361 173.109 125.293 173.207 126.164 173.709C126.278 173.782 126.412 173.818 126.547 173.818Z" fill="#002954"/>
<path d="M114.399 228.096C114.829 228.096 115.176 227.749 115.176 227.324C115.176 226.894 114.834 226.547 114.404 226.542C101.148 226.48 90.8558 223.373 83.811 217.305C83.4847 217.026 82.9978 217.062 82.7129 217.388C82.4332 217.714 82.4694 218.201 82.7958 218.486C90.1306 224.792 100.76 228.028 114.399 228.096Z" fill="#002954"/>
<path d="M147.749 199.287C147.764 199.287 147.78 199.287 147.795 199.287C159.316 198.578 170.675 195.709 180.657 190.987C181.046 190.806 181.211 190.34 181.025 189.952C180.844 189.563 180.377 189.398 179.989 189.584C170.183 194.218 159.02 197.04 147.697 197.739C147.267 197.765 146.941 198.132 146.967 198.562C147.003 198.966 147.345 199.287 147.749 199.287Z" fill="#002954"/>
<path d="M38.8655 112.592C38.9898 112.592 39.1193 112.561 39.2385 112.499C41.0359 111.515 42.3154 110.05 43.5482 108.631C43.8953 108.232 44.2423 107.833 44.5997 107.445C45.6513 106.301 47.428 105.97 49.3083 105.623C52.0175 105.115 55.0892 104.546 55.7626 101.082C55.8455 100.662 55.5709 100.253 55.1462 100.171C54.7266 100.088 54.3174 100.362 54.2345 100.787C53.7942 103.049 51.9709 103.546 49.0235 104.095C46.9774 104.478 44.8639 104.872 43.4601 106.394C43.0872 106.798 42.7298 107.207 42.3775 107.611C41.181 108.988 40.0465 110.288 38.4925 111.137C38.1144 111.344 37.9797 111.815 38.1817 112.193C38.3268 112.447 38.591 112.592 38.8655 112.592Z" fill="#002954"/>
<path d="M36.6847 100.776C36.752 100.776 36.8194 100.766 36.8919 100.75C39.254 100.103 39.7512 98.8605 39.7461 97.9337C39.7461 97.8042 39.7357 97.6644 39.7098 97.5195C39.6425 97.0949 39.2384 96.8049 38.8188 96.8723C38.3941 96.9396 38.104 97.3382 38.1713 97.7628C38.1817 97.825 38.1869 97.8819 38.1869 97.9337C38.1869 98.6378 37.2597 99.0365 36.4775 99.2488C36.0631 99.3627 35.8196 99.7873 35.9336 100.202C36.0268 100.548 36.3428 100.776 36.6847 100.776Z" fill="#002954"/>
<path d="M27.8482 108.636C27.9208 108.636 27.9984 108.626 28.071 108.605C28.8376 108.372 30.8837 107.761 31.1997 105.856C31.2722 105.431 30.9873 105.032 30.5625 104.96C30.1429 104.887 29.7389 105.172 29.6664 105.597C29.5524 106.265 28.9412 106.715 27.6203 107.114C27.2111 107.238 26.978 107.668 27.1023 108.082C27.2059 108.419 27.5115 108.636 27.8482 108.636Z" fill="#002954"/>
<path d="M24.4029 116.92C24.4857 116.92 24.5686 116.91 24.6463 116.879C26.2418 116.346 27.1223 115.326 27.1172 114.01C27.1172 113.581 26.7701 113.234 26.3402 113.234C25.9102 113.234 25.5632 113.581 25.5632 114.01C25.5632 114.621 25.0918 115.093 24.1542 115.403C23.745 115.538 23.5274 115.978 23.6621 116.387C23.7709 116.713 24.0765 116.92 24.4029 116.92Z" fill="#002954"/>
<path d="M32.6847 118.251C32.8246 118.251 32.9645 118.215 33.094 118.132C34.2802 117.397 34.5651 116.118 34.6739 115.222C34.7257 114.797 34.4252 114.409 34.0005 114.357C33.5757 114.306 33.1872 114.606 33.1354 115.03C33.0163 115.968 32.7521 116.516 32.2755 116.812C31.9129 117.039 31.7989 117.516 32.0269 117.883C32.1719 118.122 32.4257 118.251 32.6847 118.251Z" fill="#002954"/>
<path d="M168.282 49.393C168.556 49.393 168.826 49.248 168.965 48.9839C169.168 48.606 169.028 48.1348 168.65 47.9329C166.256 46.6384 165.381 42.9985 165.35 40.2751C165.314 36.4747 167.593 33.3991 170.058 30.6446C170.343 30.3236 170.317 29.8317 169.996 29.5469C169.675 29.2621 169.188 29.288 168.898 29.609C166.22 32.5966 163.749 35.9621 163.791 40.2906C163.822 43.4386 164.915 47.6843 167.904 49.2998C168.028 49.3619 168.157 49.393 168.282 49.393Z" fill="#002954"/>
<path d="M183.199 31.3487C183.588 31.3487 183.924 31.0587 183.971 30.66C184.189 28.8116 184.593 27.3049 184.95 25.9742C185.349 24.5038 185.691 23.2301 185.675 21.8994C185.639 18.42 182.847 16.3438 180.174 16.3438C175.885 16.3489 175.32 19.3157 174.777 22.1894C174.341 24.4934 173.844 27.1082 171.555 29.1016C171.233 29.3812 171.197 29.873 171.477 30.1992C171.757 30.5202 172.249 30.5565 172.575 30.2769C175.274 27.9262 175.844 24.9076 176.305 22.4793C176.89 19.3882 177.299 17.9022 180.174 17.8971C182.07 17.8971 184.095 19.3054 184.126 21.9149C184.137 23.0281 183.821 24.2035 183.453 25.5652C183.08 26.9476 182.661 28.5113 182.433 30.4736C182.381 30.8982 182.686 31.2865 183.116 31.3331C183.142 31.3487 183.173 31.3487 183.199 31.3487Z" fill="#002954"/>
<path d="M184.894 13.0507C184.971 13.0507 185.044 13.0404 185.122 13.0145C186.603 12.564 188.022 11.9686 189.395 11.3887C191.032 10.7001 192.726 9.99071 194.477 9.55061C194.891 9.44705 195.145 9.02248 195.041 8.60827C194.938 8.19405 194.513 7.94035 194.099 8.0439C192.234 8.51507 190.483 9.2503 188.794 9.95964C187.458 10.5188 186.075 11.1039 184.666 11.5337C184.257 11.6579 184.023 12.0929 184.148 12.5019C184.257 12.8333 184.562 13.0507 184.894 13.0507Z" fill="#002954"/>
<path d="M195.937 19.6057C196.321 19.6057 196.652 19.321 196.704 18.9326C196.761 18.5081 196.466 18.1146 196.036 18.0576L188.82 17.0842C188.4 17.0221 188.002 17.3224 187.945 17.7521C187.888 18.1767 188.183 18.5702 188.613 18.6271L195.834 19.6005C195.865 19.6057 195.901 19.6057 195.937 19.6057Z" fill="#002954"/>
<path d="M194.409 27.2377C194.71 27.2377 195 27.0616 195.124 26.7665C195.295 26.373 195.108 25.9174 194.715 25.7465L186.929 22.4328C186.53 22.2619 186.08 22.4483 185.909 22.8418C185.738 23.2353 185.924 23.691 186.318 23.8618L194.104 27.1755C194.207 27.217 194.311 27.2377 194.409 27.2377Z" fill="#002954"/>
<path d="M76.14 21.8322C76.9481 22.1894 78.9579 23.1576 81.3148 24.8456C85.438 27.7969 90.6387 32.9486 92.3637 40.8912C93.9332 48.1296 93.5033 53.24 92.7315 56.476C92.7781 56.4398 92.804 56.4191 92.804 56.4191C92.804 56.4191 96.8029 50.8634 94.0368 38.1263C92.4517 30.8362 87.681 26.1089 83.8996 23.401C81.0817 21.3817 78.8077 20.486 78.8077 20.486C78.8077 20.486 77.782 20.952 76.14 21.8322Z" fill="white"/>
</svg>
