<svg width="70" height="70" viewBox="0 0 70 70" fill="none" xmlns="http://www.w3.org/2000/svg">
<g clipPath="url(#clip0_84_1428)">
<path d="M49.7538 39.5615H47.7188V41.5966H49.7538V39.5615Z" fill="#004ED1"/>
<path d="M33.4745 49.1365L29.1602 44.8323L30.6051 43.3874L33.4745 46.267L38.4503 41.2913L39.8851 42.726L33.4745 49.1365Z" fill="#FF793A"/>
<path d="M21.2635 19.2107C19.0148 19.2107 17.1934 17.3893 17.1934 15.1405C17.1934 12.8917 19.0148 11.0703 21.2635 11.0703C23.5123 11.0703 25.3337 12.8917 25.3337 15.1405C25.3337 17.3893 23.5123 19.2107 21.2635 19.2107ZM21.2635 13.1054C20.1442 13.1054 19.2284 14.0212 19.2284 15.1405C19.2284 16.2598 20.1442 17.1756 21.2635 17.1756C22.3828 17.1756 23.2986 16.2598 23.2986 15.1405C23.2986 14.0212 22.3828 13.1054 21.2635 13.1054Z" fill="#004ED1"/>
<path d="M53.8241 22.2632C51.5753 22.2632 49.7539 20.4417 49.7539 18.193C49.7539 15.9442 51.5753 14.1228 53.8241 14.1228C56.0729 14.1228 57.8943 15.9442 57.8943 18.193C57.8943 20.4417 56.0729 22.2632 53.8241 22.2632ZM53.8241 16.1579C52.7048 16.1579 51.789 17.0737 51.789 18.193C51.789 19.3123 52.7048 20.2281 53.8241 20.2281C54.9434 20.2281 55.8592 19.3123 55.8592 18.193C55.8592 17.0737 54.9434 16.1579 53.8241 16.1579Z" fill="#004ED1"/>
<path d="M59.9295 44.6491C57.6808 44.6491 55.8594 42.8277 55.8594 40.579C55.8594 38.3302 57.6808 36.5088 59.9295 36.5088C62.1783 36.5088 63.9997 38.3302 63.9997 40.579C63.9997 42.8277 62.1783 44.6491 59.9295 44.6491ZM59.9295 38.5439C58.8103 38.5439 57.8945 39.4597 57.8945 40.579C57.8945 41.6983 58.8103 42.6141 59.9295 42.6141C61.0488 42.6141 61.9646 41.6983 61.9646 40.579C61.9646 39.4597 61.0488 38.5439 59.9295 38.5439Z" fill="#004ED1"/>
<path d="M33.4745 15.1404C31.2257 15.1404 29.4043 13.3189 29.4043 11.0702C29.4043 8.8214 31.2257 7 33.4745 7C35.7232 7 37.5446 8.8214 37.5446 11.0702C37.5446 13.3189 35.7232 15.1404 33.4745 15.1404ZM33.4745 9.03509C32.3552 9.03509 31.4394 9.95088 31.4394 11.0702C31.4394 12.1895 32.3552 13.1053 33.4745 13.1053C34.5938 13.1053 35.5096 12.1895 35.5096 11.0702C35.5096 9.95088 34.5938 9.03509 33.4745 9.03509Z" fill="#004ED1"/>
<path d="M34.4921 14.1228H32.457V20.2281H34.4921V14.1228Z" fill="#004ED1"/>
<path d="M34.4921 22.2632H32.457V24.2983H34.4921V22.2632Z" fill="#004ED1"/>
<path d="M22.2812 18.1929H20.2461V24.2981H22.2812V18.1929Z" fill="#004ED1"/>
<path d="M11.0878 19.2104H9.05273V21.2455H11.0878V19.2104Z" fill="#004ED1"/>
<path d="M11.0878 23.2808H9.05273V25.3158H11.0878V23.2808Z" fill="#004ED1"/>
<path d="M20.2457 33.4561H9.05273V27.3508H11.0878V31.421H20.2457V33.4561Z" fill="#004ED1"/>
<path d="M24.3163 31.4211H22.2812V33.4562H24.3163V31.4211Z" fill="#004ED1"/>
<path d="M15.158 39.5615H10.0703V41.5966H15.158V39.5615Z" fill="#004ED1"/>
<path d="M8.03509 39.5615H6V41.5966H8.03509V39.5615Z" fill="#004ED1"/>
<path d="M41.6132 16.158H39.5781V23.2808H41.6132V16.158Z" fill="#004ED1"/>
<path d="M41.6132 12.0876H39.5781V14.1227H41.6132V12.0876Z" fill="#004ED1"/>
<path d="M46.7011 24.2983H44.666V17.1755H50.7713V19.2106H46.7011V24.2983Z" fill="#004ED1"/>
<path d="M59.9295 30.4036H53.8242V32.4387H59.9295V30.4036Z" fill="#004ED1"/>
<path d="M56.8768 39.5615H51.7891V41.5966H56.8768V39.5615Z" fill="#004ED1"/>
<path d="M54.8417 43.6316H52.8066V58.8947H54.8417V43.6316Z" fill="#004ED1"/>
<path d="M16.1757 58.8947H14.1406V30.4848C14.1406 28.1954 16.0027 26.3333 18.2922 26.3333H50.6806C52.9701 26.3333 54.8322 28.1954 54.8322 30.4848V37.5262H52.7971V30.4848C52.7971 29.3147 51.8508 28.3683 50.6806 28.3683H18.2922C17.122 28.3683 16.1757 29.3147 16.1757 30.4848V58.8947Z" fill="#004ED1"/>
<path d="M34.4918 55.893L34.1662 55.7811C24.3164 52.4741 24.3164 44.0692 24.3164 39.5614V38.6457L25.2322 38.5541C27.8269 38.2793 31.6732 34.84 33.6371 31.7874L34.4918 30.4646L35.3466 31.7874C37.3104 34.84 41.1669 38.2793 43.7515 38.5541L44.6673 38.6457V39.5614C44.6673 44.0692 44.6673 52.4741 34.8175 55.7913L34.4918 55.893ZM26.3515 40.406C26.382 44.6695 26.8704 51.019 34.4918 53.7562C42.1133 51.019 42.6017 44.6797 42.6322 40.406C39.6711 39.6225 36.4557 36.6411 34.4918 34.0972C32.528 36.6411 29.3125 39.6123 26.3515 40.406Z" fill="#FF793A"/>
<path d="M49.7546 63.9825H19.2282C15.6058 63.9825 11.0879 63.9825 11.0879 58.8947V57.8772H57.8949V58.8947C57.8949 63.9825 53.377 63.9825 49.7546 63.9825ZM13.2247 59.9123C13.6216 61.6421 15.2598 61.9474 19.2282 61.9474H49.7546C53.7332 61.9474 55.3714 61.6421 55.7581 59.9123H13.2247Z" fill="#004ED1"/>
</g>
<defs>
<clipPath id="clip0_84_1428">
<rect width="58" height="56.9825" fill="white" transform="translate(6 7)"/>
</clipPath>
</defs>
</svg>
