<svg width="70" height="70" viewBox="0 0 70 70" fill="none" xmlns="http://www.w3.org/2000/svg">
<g clipPath="url(#clip0_85_1429)">
<path d="M49 47H47V52H49V47Z" fill="#004ED1"/>
<path d="M10 52H8V22.26C8 19.36 10.24 17 13 17H39V19H13C11.35 19 10 20.46 10 22.26V52Z" fill="#004ED1"/>
<path d="M46 59H11C7.36 59 5 57.04 5 54V51H52V53C52 56.31 49.31 59 46 59ZM7 53V54C7 56.71 9.8 57 11 57H46C48.21 57 50 55.21 50 53H7Z" fill="#004ED1"/>
<path d="M41 52H39V55H41V52Z" fill="#004ED1"/>
<path d="M45 52H43V55H45V52Z" fill="#004ED1"/>
<path d="M37 52H35V55H37V52Z" fill="#004ED1"/>
<path d="M16 35C13.79 35 12 33.21 12 31C12 28.79 13.79 27 16 27C18.21 27 20 28.79 20 31C20 33.21 18.21 35 16 35ZM16 29C14.9 29 14 29.9 14 31C14 32.1 14.9 33 16 33C17.1 33 18 32.1 18 31C18 29.9 17.1 29 16 29Z" fill="#004ED1"/>
<path d="M27 47C24.79 47 23 45.21 23 43C23 40.79 24.79 39 27 39C29.21 39 31 40.79 31 43C31 45.21 29.21 47 27 47ZM27 41C25.9 41 25 41.9 25 43C25 44.1 25.9 45 27 45C28.1 45 29 44.1 29 43C29 41.9 28.1 41 27 41Z" fill="#004ED1"/>
<path d="M46 35C43.24 35 41 32.76 41 30C41 27.24 43.24 25 46 25C48.76 25 51 27.24 51 30C51 32.76 48.76 35 46 35ZM46 27C44.35 27 43 28.35 43 30C43 31.65 44.35 33 46 33C47.65 33 49 31.65 49 30C49 28.35 47.65 27 46 27Z" fill="#FF793A"/>
<path d="M46 45C38.83 45 33 39.17 33 32C33 24.83 38.83 19 46 19C53.17 19 59 24.83 59 32C59 39.17 53.17 45 46 45ZM46 21C39.93 21 35 25.93 35 32C35 38.07 39.93 43 46 43C52.07 43 57 38.07 57 32C57 25.93 52.07 21 46 21Z" fill="#004ED1"/>
<path d="M61.4194 39.1801L59.6094 38.3401C59.8394 37.8401 60.0494 37.3301 60.2194 36.8101L62.1094 37.4501C61.9094 38.0301 61.6794 38.6101 61.4194 39.1801Z" fill="#004ED1"/>
<path d="M62.7306 35.0101L60.7506 34.7401C60.8606 33.8701 61.0006 32.6301 61.0006 32.0001C61.0006 29.1201 60.1806 26.3301 58.6406 23.9201L60.3206 22.8401C62.0806 25.5701 63.0006 28.7401 63.0006 32.0001C63.0006 32.9201 62.7906 34.5401 62.7306 35.0101Z" fill="#004ED1"/>
<path d="M18.7633 32.5351L17.2891 33.8867L24.2363 41.4641L25.7105 40.1125L18.7633 32.5351Z" fill="#004ED1"/>
<path d="M34.863 36.8051L29.0312 40.6406L30.1303 42.3116L35.962 38.4761L34.863 36.8051Z" fill="#004ED1"/>
<path d="M42.1364 31.4522L37.627 34.5654L38.7632 36.2112L43.2726 33.098L42.1364 31.4522Z" fill="#FF793A"/>
<path d="M15 13H13V15H15V13Z" fill="#004ED1"/>
<path d="M19 13H17V15H19V13Z" fill="#004ED1"/>
<path d="M23 13H21V15H23V13Z" fill="#004ED1"/>
<path d="M45 8H43V15H45V8Z" fill="#004ED1"/>
<path d="M62.8144 13.7647L57.6738 18.9053L59.088 20.3195L64.2286 15.1789L62.8144 13.7647Z" fill="#004ED1"/>
<path d="M53.4004 8.82406L50.7578 15.4136L52.614 16.158L55.2566 9.56846L53.4004 8.82406Z" fill="#004ED1"/>
<path d="M61.0002 58.0001C59.6802 58.0001 58.4402 57.3501 57.6902 56.2501L49.2402 43.8501L50.8902 42.7201L59.3402 55.1201C59.7202 55.6701 60.3402 56.0001 61.0002 56.0001C62.1002 56.0001 63.0002 55.1001 63.0002 54.0001C63.0002 53.6001 62.8802 53.2101 62.6502 52.8801L54.2002 40.4801L55.8502 39.3501L64.3002 51.7501C64.7602 52.4201 65.0002 53.1901 65.0002 54.0001C65.0002 56.2101 63.2102 58.0001 61.0002 58.0001Z" fill="#004ED1"/>
<path d="M26 61H7V63H26V61Z" fill="#004ED1"/>
<path d="M30 61H28V63H30V61Z" fill="#004ED1"/>
</g>
<defs>
<clipPath id="clip0_85_1429">
<rect width="60" height="55" fill="white" transform="translate(5 8)"/>
</clipPath>
</defs>
</svg>
