<svg width="622" height="2102" viewBox="0 0 622 2102" fill="none" xmlns="http://www.w3.org/2000/svg">
<path d="M1 47.187C193.801 -17.1911 378.262 -53.8832 487.338 231.315C598.315 521.483 106.073 302.364 43.0292 496.499C-20.0146 690.634 378.262 638.598 411.285 768.688C438.942 877.641 232.563 875.152 155.107 981.836C102.07 1054.89 224.155 1126.94 378.262 1116.93C532.369 1106.92 638.337 1271.5 182.126 1389.12C-59.1573 1451.33 14.8107 1645.3 319.221 1645.3C525.364 1645.3 206.143 1773.39 182.126 1910.48C143.903 2128.67 436.303 2124.63 621.431 2054.58" stroke="#9FC3FF" stroke-width="3"/>
<g clipPath="url(#clip0_86_2648)">
<path d="M335.958 43.7753L349.537 26.0598C350.086 25.3426 351.202 25.4458 351.602 26.2479L361.486 46.1152C361.908 46.9627 361.223 47.9438 360.273 47.8567L336.811 45.705C335.859 45.6183 335.378 44.5318 335.958 43.7753Z" fill="#9FC3FF"/>
</g>
<g clipPath="url(#clip1_86_2648)">
<path d="M291.366 388.162L293.683 409.945C293.777 410.827 292.904 411.48 292.071 411.155L271.43 403.106C270.549 402.763 270.373 401.601 271.115 401.045L289.439 387.31C290.181 386.753 291.267 387.232 291.366 388.162Z" fill="#9FC3FF"/>
</g>
<g clipPath="url(#clip2_86_2648)">
<path d="M133.692 625.526L148.419 642.3C149.015 642.979 148.696 644.053 147.831 644.289L126.418 650.107C125.504 650.356 124.675 649.493 124.946 648.578L131.633 625.986C131.904 625.069 133.063 624.81 133.692 625.526Z" fill="#9FC3FF"/>
</g>
<g clipPath="url(#clip3_86_2648)">
<path d="M234.713 1101.82L212.662 1105.28C211.77 1105.42 211.033 1104.58 211.297 1103.72L217.843 1082.52C218.122 1081.61 219.295 1081.37 219.922 1082.09L235.427 1099.83C236.056 1100.55 235.655 1101.67 234.713 1101.82Z" fill="#9FC3FF"/>
</g>
<g clipPath="url(#clip4_86_2648)">
<path d="M433.348 1307.19L411.056 1306.06C410.154 1306.02 409.605 1305.04 410.039 1304.25L420.79 1284.84C421.248 1284.01 422.444 1284.02 422.912 1284.85L434.453 1305.39C434.922 1306.22 434.3 1307.24 433.348 1307.19Z" fill="#9FC3FF"/>
</g>
<g clipPath="url(#clip5_86_2648)">
<path d="M74.5458 1557.47L80.6322 1578.94C80.8789 1579.81 80.1291 1580.64 79.247 1580.48L57.4116 1576.53C56.4798 1576.37 56.1025 1575.23 56.74 1574.52L72.489 1557C73.1274 1556.28 74.2857 1556.55 74.5458 1557.47Z" fill="#9FC3FF"/>
</g>
<g clipPath="url(#clip6_86_2648)">
<path d="M315.858 1760.94L293.993 1765.43C293.108 1765.61 292.333 1764.81 292.556 1763.94L298.103 1742.45C298.339 1741.54 299.499 1741.24 300.16 1741.93L316.478 1758.93C317.14 1759.62 316.791 1760.75 315.858 1760.94Z" fill="#9FC3FF"/>
</g>
<g clipPath="url(#clip7_86_2648)">
<path d="M303.575 2075.86L321.806 2088.74C322.544 2089.26 322.484 2090.38 321.698 2090.81L302.231 2101.46C301.401 2101.92 300.394 2101.27 300.444 2100.32L301.68 2076.79C301.73 2075.83 302.796 2075.31 303.575 2075.86Z" fill="#9FC3FF"/>
</g>
<g clipPath="url(#clip8_86_2648)">
<path d="M378.936 843.089L387.646 822.538C387.998 821.706 389.105 821.526 389.693 822.203L404.237 838.962C404.858 839.677 404.44 840.798 403.499 840.951L380.245 844.744C379.302 844.898 378.565 843.967 378.936 843.089Z" fill="#9FC3FF"/>
</g>
<defs>
<clipPath id="clip0_86_2648">
<rect width="24.0167" height="24.7914" fill="white" transform="translate(356.364 24.1714) rotate(76.7816)"/>
</clipPath>
<clipPath id="clip1_86_2648">
<rect width="24.0167" height="24.0167" fill="white" transform="translate(290.064 415.777) rotate(-145.864)"/>
</clipPath>
<clipPath id="clip2_86_2648">
<rect width="24.0167" height="24.7914" fill="white" transform="translate(148.939 649.365) rotate(178.031)"/>
</clipPath>
<clipPath id="clip3_86_2648">
<rect width="24.0167" height="24.7914" fill="white" transform="translate(206.416 1101.94) rotate(-59.609)"/>
</clipPath>
<clipPath id="clip4_86_2648">
<rect width="24.0167" height="24.7914" fill="white" transform="translate(405.837 1303.69) rotate(-55.0586)"/>
</clipPath>
<clipPath id="clip5_86_2648">
<rect width="24.0167" height="24.7914" fill="white" transform="translate(78.0653 1585.54) rotate(-156.512)"/>
</clipPath>
<clipPath id="clip6_86_2648">
<rect width="24.0167" height="24.7914" fill="white" transform="translate(287.598 1762.39) rotate(-62.292)"/>
</clipPath>
<clipPath id="clip7_86_2648">
<rect width="24.0167" height="24.7914" fill="white" transform="translate(323.959 2095.49) rotate(164.55)"/>
</clipPath>
<clipPath id="clip8_86_2648">
<rect width="24.0167" height="24.7914" fill="white" transform="translate(393.783 819) rotate(62.2792)"/>
</clipPath>
</defs>
</svg>
