<svg width="750" height="2393" viewBox="0 0 750 2393" fill="none" xmlns="http://www.w3.org/2000/svg">
<path opacity="0.5" d="M384.01 1270.02C392.3 1270.02 399.021 1263.3 399.021 1255.01C399.021 1246.72 392.3 1240 384.01 1240C375.72 1240 369 1246.72 369 1255.01C369 1263.3 375.72 1270.02 384.01 1270.02Z" fill="#D8E6FF"/>
<g clipPath="url(#clip0_86_2650)">
<path d="M538.475 205.143L549.474 207.501C553.31 208.324 556.309 211.319 557.132 215.158L559.49 226.158L561.847 215.158C562.67 211.323 565.666 208.324 569.505 207.501L580.504 205.143L569.505 202.785C565.669 201.962 562.67 198.967 561.847 195.128L559.49 184.128L557.132 195.128C556.309 198.963 553.313 201.962 549.474 202.785L538.475 205.143Z" fill="#93B4EF"/>
</g>
<path d="M472.429 156.109C479.061 156.109 484.437 150.733 484.437 144.101C484.437 137.469 479.061 132.092 472.429 132.092C465.797 132.092 460.421 137.469 460.421 144.101C460.421 150.733 465.797 156.109 472.429 156.109Z" fill="#D8E6FF"/>
<rect x="342.691" y="362.199" width="152.106" height="8.00556" transform="rotate(138.024 342.691 362.199)" fill="url(#paint0_linear_86_2650)" fill-opacity="0.5"/>
<g clipPath="url(#clip1_86_2650)">
<path d="M510 758.009L516.809 759.469C519.183 759.978 521.04 761.833 521.549 764.209L523.009 771.018L524.469 764.209C524.978 761.835 526.833 759.978 529.209 759.469L536.018 758.009L529.209 756.549C526.835 756.04 524.978 754.186 524.469 751.809L523.009 745L521.549 751.809C521.04 754.183 519.186 756.04 516.809 756.549L510 758.009Z" fill="#D8E6FF"/>
</g>
<g clipPath="url(#clip2_86_2650)">
<path d="M590.511 676.47L599.939 678.491C603.227 679.196 605.797 681.764 606.503 685.055L608.524 694.483L610.544 685.055C611.25 681.767 613.818 679.196 617.108 678.491L626.536 676.47L617.108 674.449C613.82 673.744 611.25 671.176 610.544 667.886L608.524 658.458L606.503 667.886C605.797 671.173 603.229 673.744 599.939 674.449L590.511 676.47Z" fill="#FF793A"/>
</g>
<g opacity="0.3" clipPath="url(#clip3_86_2650)">
<path d="M503 1186L510.59 1187.68C513.236 1188.27 515.305 1190.41 515.873 1193.15L517.5 1201L519.127 1193.15C519.695 1190.41 521.762 1188.27 524.411 1187.68L532 1186L524.411 1184.32C521.764 1183.73 519.695 1181.59 519.127 1178.85L517.5 1171L515.873 1178.85C515.305 1181.59 513.238 1183.73 510.59 1184.32L503 1186Z" fill="#93B4EF"/>
</g>
<g clipPath="url(#clip4_86_2650)">
<path d="M528.468 2202.53L538.42 2204.66C541.89 2205.41 544.604 2208.12 545.348 2211.59L547.481 2221.54L549.614 2211.59C550.359 2208.12 553.069 2205.41 556.543 2204.66L566.494 2202.53L556.543 2200.4C553.072 2199.65 550.359 2196.94 549.614 2193.47L547.481 2183.52L545.348 2193.47C544.604 2196.94 541.893 2199.65 538.42 2200.4L528.468 2202.53Z" fill="#D8E6FF"/>
</g>
<path d="M558.489 1138.79C562.91 1138.79 566.494 1135.21 566.494 1130.79C566.494 1126.36 562.91 1122.78 558.489 1122.78C554.068 1122.78 550.483 1126.36 550.483 1130.79C550.483 1135.21 554.068 1138.79 558.489 1138.79Z" fill="#FFB000"/>
<path d="M113.179 2289.59C118.153 2289.59 122.186 2285.56 122.186 2280.58C122.186 2275.61 118.153 2271.58 113.179 2271.58C108.205 2271.58 104.173 2275.61 104.173 2280.58C104.173 2285.56 108.205 2289.59 113.179 2289.59Z" fill="#ADBDF4"/>
<rect opacity="0.3" x="532.365" y="2112.39" width="172.12" height="12.0083" transform="rotate(138.024 532.365 2112.39)" fill="url(#paint1_linear_86_2650)"/>
<rect opacity="0.5" x="228.404" y="2304.06" width="132.092" height="6.00417" transform="rotate(138.024 228.404 2304.06)" fill="url(#paint2_linear_86_2650)"/>
<path d="M12 2065.62L17.5573 2066.81C19.4952 2067.22 21.0105 2068.74 21.4263 2070.68L22.6175 2076.23L23.8087 2070.68C24.2245 2068.74 25.7381 2067.22 27.6776 2066.81L33.235 2065.62L27.6776 2064.43C25.7398 2064.01 24.2245 2062.5 23.8087 2060.56L22.6175 2055L21.4263 2060.56C21.0105 2062.5 19.4969 2064.01 17.5573 2064.43L12 2065.62Z" fill="#85ABEF"/>
<path opacity="0.5" d="M37.0104 916.021C45.3005 916.021 52.0209 909.3 52.0209 901.01C52.0209 892.72 45.3005 886 37.0104 886C28.7204 886 22 892.72 22 901.01C22 909.3 28.7204 916.021 37.0104 916.021Z" fill="#D8E6FF"/>
<rect x="744.704" y="5.95166" width="192.134" height="8.00556" transform="rotate(138.024 744.704 5.95166)" fill="url(#paint3_linear_86_2650)" fill-opacity="0.5"/>
<rect x="150.557" y="1274.83" width="152.106" height="8.00556" transform="rotate(138.024 150.557 1274.83)" fill="url(#paint4_linear_86_2650)" fill-opacity="0.3"/>
<path d="M319 1465L327.375 1466.8C330.295 1467.42 332.578 1469.7 333.205 1472.63L335 1481L336.795 1472.63C337.422 1469.71 339.703 1467.42 342.625 1466.8L351 1465L342.625 1463.2C339.705 1462.58 337.422 1460.3 336.795 1457.37L335 1449L333.205 1457.37C332.578 1460.29 330.297 1462.58 327.375 1463.2L319 1465Z" fill="#D8E6FF"/>
<defs>
<linearGradient id="paint0_linear_86_2650" x1="342.691" y1="366.202" x2="494.796" y2="366.202" gradientUnits="userSpaceOnUse">
<stop stop-color="#F8FAFF"/>
<stop offset="1" stop-color="#C9E6FF"/>
</linearGradient>
<linearGradient id="paint1_linear_86_2650" x1="532.365" y1="2118.39" x2="704.485" y2="2118.39" gradientUnits="userSpaceOnUse">
<stop stop-color="#F8FAFF"/>
<stop offset="1" stop-color="#C9E6FF"/>
</linearGradient>
<linearGradient id="paint2_linear_86_2650" x1="228.404" y1="2307.06" x2="360.496" y2="2307.06" gradientUnits="userSpaceOnUse">
<stop stop-color="#F8FAFF"/>
<stop offset="1" stop-color="#C9E6FF"/>
</linearGradient>
<linearGradient id="paint3_linear_86_2650" x1="744.704" y1="9.95448" x2="936.838" y2="9.95452" gradientUnits="userSpaceOnUse">
<stop stop-color="#F8FAFF"/>
<stop offset="1" stop-color="#C9E6FF"/>
</linearGradient>
<linearGradient id="paint4_linear_86_2650" x1="150.557" y1="1278.84" x2="302.663" y2="1278.84" gradientUnits="userSpaceOnUse">
<stop stop-color="#F8FAFF"/>
<stop offset="1" stop-color="#C9E6FF"/>
</linearGradient>
<clipPath id="clip0_86_2650">
<rect width="42.0292" height="42.0292" fill="white" transform="translate(538.475 184.128)"/>
</clipPath>
<clipPath id="clip1_86_2650">
<rect width="26.0181" height="26.0181" fill="white" transform="translate(510 745)"/>
</clipPath>
<clipPath id="clip2_86_2650">
<rect width="36.025" height="36.025" fill="white" transform="translate(590.511 658.458)"/>
</clipPath>
<clipPath id="clip3_86_2650">
<rect width="44.0306" height="44.0306" fill="white" transform="translate(488.44 1156.8)"/>
</clipPath>
<clipPath id="clip4_86_2650">
<rect width="38.0264" height="38.0264" fill="white" transform="translate(528.468 2183.52)"/>
</clipPath>
</defs>
</svg>
