<svg width="1440" height="851" viewBox="0 0 1440 851" fill="none" xmlns="http://www.w3.org/2000/svg">
<rect opacity="0.5" x="466.533" y="793.777" width="72.8196" height="5.08044" transform="rotate(138.024 466.533 793.777)" fill="url(#paint0_linear_85_2033)"/>
<g clipPath="url(#clip0_85_2033)">
<path d="M104 271.987L111.589 273.614C114.236 274.181 116.305 276.249 116.873 278.897L118.5 286.487L120.127 278.897C120.695 276.251 122.762 274.181 125.41 273.614L133 271.987L125.41 270.36C122.764 269.792 120.695 267.725 120.127 265.076L118.5 257.487L116.873 265.076C116.305 267.723 114.238 269.792 111.589 270.36L104 271.987Z" fill="#D8E6FF"/>
</g>
<g clipPath="url(#clip1_85_2033)">
<path d="M290 523.987L297.589 525.614C300.236 526.181 302.305 528.249 302.873 530.897L304.5 538.487L306.127 530.897C306.695 528.251 308.762 526.181 311.41 525.614L319 523.987L311.41 522.36C308.764 521.792 306.695 519.725 306.127 517.076L304.5 509.487L302.873 517.076C302.305 519.723 300.238 521.792 297.589 522.36L290 523.987Z" fill="#D8E6FF"/>
</g>
<g clipPath="url(#clip2_85_2033)">
<path d="M858 93.9868L864.543 95.3892C866.824 95.8787 868.608 97.6607 869.098 99.9441L870.5 106.487L871.902 99.9441C872.392 97.6627 874.174 95.8787 876.457 95.3892L883 93.9868L876.457 92.5844C874.176 92.0949 872.392 90.3129 871.902 88.0295L870.5 81.4868L869.098 88.0295C868.608 90.3109 866.826 92.0949 864.543 92.5844L858 93.9868Z" fill="#D8E6FF"/>
</g>
<path d="M806 773.5L812.543 774.902C814.824 775.392 816.608 777.174 817.098 779.457L818.5 786L819.902 779.457C820.392 777.176 822.174 775.392 824.457 774.902L831 773.5L824.457 772.098C822.176 771.608 820.392 769.826 819.902 767.543L818.5 761L817.098 767.543C816.608 769.824 814.826 771.608 812.543 772.098L806 773.5Z" fill="#D8E6FF"/>
<path d="M1139 778.5L1145.54 779.902C1147.82 780.392 1149.61 782.174 1150.1 784.457L1151.5 791L1152.9 784.457C1153.39 782.176 1155.17 780.392 1157.46 779.902L1164 778.5L1157.46 777.098C1155.18 776.608 1153.39 774.826 1152.9 772.543L1151.5 766L1150.1 772.543C1149.61 774.824 1147.83 776.608 1145.54 777.098L1139 778.5Z" fill="#D8E6FF"/>
<g clipPath="url(#clip3_85_2033)">
<path d="M354 151.987L359.496 153.165C361.412 153.576 362.911 155.073 363.322 156.991L364.5 162.487L365.678 156.991C366.089 155.075 367.586 153.576 369.504 153.165L375 151.987L369.504 150.809C367.588 150.398 366.089 148.901 365.678 146.983L364.5 141.487L363.322 146.983C362.911 148.899 361.414 150.398 359.496 150.809L354 151.987Z" fill="#93B4EF"/>
</g>
<g clipPath="url(#clip4_85_2033)">
<path d="M670 22.4868L677.851 24.1697C680.589 24.7571 682.73 26.8955 683.317 29.6356L685 37.4868L686.683 29.6356C687.27 26.8979 689.409 24.7571 692.149 24.1697L700 22.4868L692.149 20.8039C689.411 20.2166 687.27 18.0782 686.683 15.338L685 7.48682L683.317 15.338C682.73 18.0758 680.591 20.2166 677.851 20.8039L670 22.4868Z" fill="#93B4EF"/>
</g>
<path d="M1231 688L1241.47 690.244C1245.12 691.027 1247.97 693.878 1248.76 697.532L1251 708L1253.24 697.532C1254.03 693.881 1256.88 691.027 1260.53 690.244L1271 688L1260.53 685.756C1256.88 684.973 1254.03 682.122 1253.24 678.468L1251 668L1248.76 678.468C1247.97 682.119 1245.12 684.973 1241.47 685.756L1231 688Z" fill="#B1CDFC"/>
<g clipPath="url(#clip5_85_2033)">
<path d="M995 16.4868L999.711 17.4966C1001.35 17.849 1002.64 19.132 1002.99 20.7761L1004 25.4868L1005.01 20.7761C1005.36 19.1335 1006.65 17.849 1008.29 17.4966L1013 16.4868L1008.29 15.4771C1006.65 15.1247 1005.36 13.8416 1005.01 12.1975L1004 7.48682L1002.99 12.1975C1002.64 13.8402 1001.35 15.1247 999.711 15.4771L995 16.4868Z" fill="#FF793A"/>
</g>
<path d="M322.5 127.487C326.642 127.487 330 124.129 330 119.987C330 115.845 326.642 112.487 322.5 112.487C318.358 112.487 315 115.845 315 119.987C315 124.129 318.358 127.487 322.5 127.487Z" fill="#D8E6FF"/>
<path opacity="0.5" d="M970.5 546.487C974.642 546.487 978 543.129 978 538.987C978 534.845 974.642 531.487 970.5 531.487C966.358 531.487 963 534.845 963 538.987C963 543.129 966.358 546.487 970.5 546.487Z" fill="#D8E6FF"/>
<path d="M720 800C722.209 800 724 798.209 724 796C724 793.791 722.209 792 720 792C717.791 792 716 793.791 716 796C716 798.209 717.791 800 720 800Z" fill="#FFB000"/>
<path d="M1092.5 725C1095.54 725 1098 722.538 1098 719.5C1098 716.462 1095.54 714 1092.5 714C1089.46 714 1087 716.462 1087 719.5C1087 722.538 1089.46 725 1092.5 725Z" fill="#ADBDF4"/>
<rect x="1058.61" y="34.4604" width="86" height="4" transform="rotate(138.024 1058.61 34.4604)" fill="url(#paint1_linear_85_2033)"/>
<rect x="1171.61" y="301.46" width="96" height="4" transform="rotate(138.024 1171.61 301.46)" fill="url(#paint2_linear_85_2033)" fill-opacity="0.5"/>
<rect x="845.609" y="4.46045" width="86" height="6" transform="rotate(138.024 845.609 4.46045)" fill="url(#paint3_linear_85_2033)" fill-opacity="0.5"/>
<rect opacity="0.5" x="998.947" y="698.46" width="86" height="6" transform="rotate(138.024 998.947 698.46)" fill="url(#paint4_linear_85_2033)"/>
<rect opacity="0.7" x="238.389" y="688.178" width="96" height="9" transform="rotate(138.024 238.389 688.178)" fill="url(#paint5_linear_85_2033)"/>
<path d="M321 724C317.139 724 314 720.861 314 717C314 713.139 317.139 710 321 710C324.861 710 328 713.139 328 717C328 720.861 324.861 724 321 724ZM321 711.804C318.134 711.804 315.804 714.134 315.804 717C315.804 719.866 318.134 722.196 321 722.196C323.866 722.196 326.196 719.866 326.196 717C326.196 714.134 323.866 711.804 321 711.804Z" fill="#FFB000"/>
<g clipPath="url(#clip6_85_2033)">
<path d="M469 315.987L477.636 317.838C480.648 318.484 483.003 320.836 483.649 323.85L485.5 332.487L487.351 323.85C487.997 320.839 490.35 318.484 493.364 317.838L502 315.987L493.364 314.136C490.352 313.49 487.997 311.137 487.351 308.123L485.5 299.487L483.649 308.123C483.003 311.135 480.65 313.49 477.636 314.136L469 315.987Z" fill="#D8E6FF"/>
</g>
<path d="M808 604.487C810.209 604.487 812 602.696 812 600.487C812 598.278 810.209 596.487 808 596.487C805.791 596.487 804 598.278 804 600.487C804 602.696 805.791 604.487 808 604.487Z" fill="#D8E6FF"/>
<defs>
<linearGradient id="paint0_linear_85_2033" x1="466.533" y1="796.317" x2="539.353" y2="796.317" gradientUnits="userSpaceOnUse">
<stop stop-color="#F8FAFF"/>
<stop offset="1" stop-color="#C9E6FF"/>
</linearGradient>
<linearGradient id="paint1_linear_85_2033" x1="1058.61" y1="36.4605" x2="1144.61" y2="36.4605" gradientUnits="userSpaceOnUse">
<stop stop-color="#F8FAFF"/>
<stop offset="1" stop-color="#C9E6FF"/>
</linearGradient>
<linearGradient id="paint2_linear_85_2033" x1="1171.61" y1="303.46" x2="1267.61" y2="303.46" gradientUnits="userSpaceOnUse">
<stop stop-color="#F8FAFF"/>
<stop offset="1" stop-color="#C9E6FF"/>
</linearGradient>
<linearGradient id="paint3_linear_85_2033" x1="845.609" y1="7.46048" x2="931.609" y2="7.46049" gradientUnits="userSpaceOnUse">
<stop stop-color="#F8FAFF"/>
<stop offset="1" stop-color="#C9E6FF"/>
</linearGradient>
<linearGradient id="paint4_linear_85_2033" x1="998.947" y1="701.46" x2="1084.95" y2="701.46" gradientUnits="userSpaceOnUse">
<stop stop-color="#F8FAFF"/>
<stop offset="1" stop-color="#C9E6FF"/>
</linearGradient>
<linearGradient id="paint5_linear_85_2033" x1="238.389" y1="692.678" x2="334.389" y2="692.678" gradientUnits="userSpaceOnUse">
<stop stop-color="#F8FAFF"/>
<stop offset="1" stop-color="#C9E6FF"/>
</linearGradient>
<clipPath id="clip0_85_2033">
<rect width="29" height="29" fill="white" transform="translate(104 257.487)"/>
</clipPath>
<clipPath id="clip1_85_2033">
<rect width="29" height="29" fill="white" transform="translate(290 509.487)"/>
</clipPath>
<clipPath id="clip2_85_2033">
<rect width="25" height="25" fill="white" transform="translate(858 81.4868)"/>
</clipPath>
<clipPath id="clip3_85_2033">
<rect width="21" height="21" fill="white" transform="translate(354 141.487)"/>
</clipPath>
<clipPath id="clip4_85_2033">
<rect width="30" height="30" fill="white" transform="translate(670 7.48682)"/>
</clipPath>
<clipPath id="clip5_85_2033">
<rect width="18" height="18" fill="white" transform="translate(995 7.48682)"/>
</clipPath>
<clipPath id="clip6_85_2033">
<rect width="33" height="33" fill="white" transform="translate(469 299.487)"/>
</clipPath>
</defs>
</svg>
