<svg width="201" height="261" viewBox="0 0 201 261" fill="none" xmlns="http://www.w3.org/2000/svg">
<path d="M38.8994 204.059L65.3202 219.011L91.0147 233.551L176.858 81.6818C189.882 58.6323 193.537 35.8382 191.84 7.33325L191.79 6.47884C191.692 4.90751 190.819 3.22323 189.278 1.96617C186.864 -0.00781652 183.669 -0.533231 181.583 0.561791L180.695 1.02337C180.155 1.30817 179.625 1.58807 179.09 1.87287C154.657 14.8953 137.487 29.6265 124.737 52.1849L38.8994 204.059Z" fill="#FF793A"/>
<path d="M38.8999 204.059L65.3207 219.011L111.317 141.535L157.312 64.0583C169.384 43.7242 175.985 23.9647 179.096 1.8728C154.663 14.8952 137.492 29.6265 124.743 52.1849L38.8999 204.059Z" fill="#FF793A"/>
<path d="M9.87248 200.121L30.7676 211.95L109.137 73.2948C116.351 60.5326 120.674 46.3366 121.793 31.7183L121.827 31.2813C121.891 30.476 121.616 29.6658 121.022 29.1158C120.095 28.2516 118.731 28.1926 117.744 28.8948L117.327 29.1944C105.383 37.6894 95.4553 48.7083 88.2416 61.4705L9.87248 200.121Z" fill="#FF793A"/>
<path d="M34.0656 157.322C35.4445 159.423 37.167 161.324 39.3409 162.929C44.3954 166.666 50.3725 167.786 56.1974 166.956L30.7679 211.95L9.87273 200.126L34.0656 157.322Z" fill="#CBD6FF"/>
<path d="M88.1049 244.398L109 256.222L187.369 117.567C194.583 104.805 198.906 90.6089 200.025 75.9907L200.059 75.5536C200.123 74.7483 199.848 73.9381 199.255 73.3881C198.327 72.5239 196.963 72.465 195.977 73.1672L195.559 73.4667C183.615 81.9617 173.688 92.9807 166.474 105.743L88.1049 244.398Z" fill="#FF793A"/>
<path d="M115.684 195.608C116.361 197.661 117.195 199.659 118.172 201.633C121.219 207.796 124.605 214.233 130.916 217.455L109.005 256.222L88.11 244.398L115.684 195.608Z" fill="#CBD6FF"/>
<path d="M110.192 101.166L43.502 219.159C49.4791 227.3 64.51 235.805 74.5651 236.738L141.255 118.746C150.888 101.702 155.937 82.492 155.967 62.9732C155.972 60.0858 152.841 58.3132 150.368 59.8059C142.914 64.3088 136.024 69.6415 129.821 75.6813C122.141 83.1599 115.521 91.7334 110.192 101.166Z" fill="#FFBE9F"/>
<path d="M7.97449 177.847C10.1042 174.076 14.7171 172.495 18.7116 174.164L26.6418 177.484C37.8941 182.193 50.4175 182.925 62.1459 179.566L66.6017 178.289L43.5032 219.159L1.54597 195.412C0.0836016 194.582 -0.431665 192.726 0.392757 191.263L7.97449 177.847Z" fill="#004ED1"/>
<path d="M128.252 245.915C130.382 242.144 129.361 237.371 125.872 234.808L118.943 229.716C109.109 222.493 102.032 212.132 98.867 200.342L97.6648 195.864L74.5662 236.733L116.523 260.48C117.986 261.309 119.846 260.794 120.67 259.326L128.252 245.915Z" fill="#004ED1"/>
<path d="M124.61 97.7339C130.077 99.4084 132.334 100.685 136.584 104.51C137.786 105.591 139.675 105.271 140.47 103.867L140.598 103.641C141.069 102.811 141.035 101.775 140.5 100.985C136.815 95.5095 132.197 92.9021 125.611 92.5584C124.659 92.5093 123.756 93.0101 123.285 93.8449L123.158 94.0708C122.363 95.4702 123.069 97.2576 124.61 97.7339Z" fill="#FBE3E3"/>
<path d="M34.4742 221.157L54.2064 232.323L60.8655 220.538C63.1818 216.443 61.739 211.243 57.6464 208.93L52.7342 206.151C48.6415 203.833 43.4447 205.277 41.1334 209.372L34.4742 221.157Z" fill="#D8E6FF"/>
<path d="M56.566 233.659L76.2982 244.825L82.9573 233.04C85.2736 228.945 83.8308 223.745 79.7382 221.432L74.826 218.653C70.7333 216.335 65.5365 217.779 63.2252 221.874L56.566 233.659Z" fill="#D8E6FF"/>
</svg>
