<svg width="1179" height="288" viewBox="0 0 1179 288" fill="none" xmlns="http://www.w3.org/2000/svg">
<path fill-rule="evenodd" clip-rule="evenodd" d="M602.217 6.76452C606.642 3.14013 613.186 0.986877 621.501 0.986877C627.16 0.986878 631.58 2.61999 634.712 5.59989C637.837 8.57256 639.57 12.7804 640.069 17.7256C641.039 27.3292 637.389 39.9569 629.784 52.7688C644.349 58.577 664.207 62.4869 690.001 62.4869C701.668 62.4869 710.514 65.2005 717.366 69.9197C724.212 74.6339 728.982 81.2906 732.604 89.0314C736.221 96.7629 738.714 105.626 740.977 114.797C741.626 117.428 742.255 120.082 742.887 122.744C744.465 129.395 746.056 136.097 747.991 142.618C753.405 160.861 761.421 177.307 778.931 186.251C796.48 195.215 823.825 196.778 868.235 184.523C974.235 155.273 1051.74 146.312 1102.8 162.031C1128.38 169.907 1147.34 183.984 1159.89 204.799C1172.42 225.587 1178.5 253.006 1178.5 287.487H1176.5C1176.5 253.217 1170.46 226.199 1158.18 205.831C1145.91 185.489 1127.38 171.692 1102.21 163.943C1051.76 148.411 974.768 157.201 868.767 186.451C824.196 198.75 796.243 197.339 778.021 188.032C759.761 178.705 751.533 161.582 746.074 143.187C744.122 136.609 742.511 129.822 740.928 123.15C740.299 120.5 739.675 117.869 739.035 115.276C736.776 106.122 734.321 97.4213 730.792 89.8789C727.268 82.3456 722.696 76.0182 716.232 71.5668C709.775 67.1203 701.346 64.4869 690.001 64.4869C663.833 64.4869 643.613 60.4937 628.732 54.5018C607.859 88.1297 559.498 122.948 492.385 108.464C454.761 100.345 431.132 97.8372 414.149 98.8833C397.224 99.9258 386.863 104.499 375.748 110.673C373.629 111.851 371.48 113.088 369.252 114.371C359.763 119.835 348.837 126.125 332.678 132.12C312.719 139.523 284.79 146.475 241.604 150.981C132.783 162.337 73.3182 193.615 40.8699 223.321C8.42765 253.022 2.90112 281.235 2.11372 286.644L0.134583 286.356C0.972786 280.598 6.66481 251.925 39.5194 221.846C72.3681 191.773 132.279 160.378 241.397 148.992C284.461 144.498 312.219 137.575 331.982 130.244C347.971 124.314 358.736 118.116 368.217 112.658C370.458 111.368 372.627 110.119 374.777 108.925C386.05 102.662 396.706 97.954 414.026 96.8871C431.289 95.8238 455.133 98.3789 492.807 106.509C558.765 120.744 606.257 86.681 626.86 53.7253C606.255 44.9285 596.294 32.121 595.792 21.1082C595.536 15.4771 597.773 10.4046 602.217 6.76452ZM627.914 52.0004C635.507 39.2951 638.996 27.0007 638.08 17.9265C637.615 13.3195 636.023 9.6078 633.334 7.04893C630.651 4.49728 626.766 2.98688 621.501 2.98688C613.512 2.98688 607.459 5.05602 603.484 8.31176C599.528 11.5519 597.562 16.0172 597.79 21.0171C598.243 30.948 607.427 43.3305 627.914 52.0004Z" fill="#5071E7"/>
<g clipPath="url(#clip0_82_893)">
<path d="M32.321 220.899L44.7323 216.992C45.2345 216.834 45.7325 217.257 45.6547 217.773L43.7188 230.563C43.6364 231.108 42.9811 231.347 42.5572 230.988L32.0819 222.105C31.6567 221.745 31.7912 221.066 32.321 220.899Z" fill="#5071E7"/>
</g>
<g clipPath="url(#clip1_82_893)">
<path d="M335.374 121.226L348.211 123.353C348.731 123.439 348.984 124.041 348.681 124.467L341.172 134.999C340.851 135.449 340.159 135.366 339.943 134.853L334.616 122.194C334.399 121.681 334.826 121.136 335.374 121.226Z" fill="#5071E7"/>
</g>
<g clipPath="url(#clip2_82_893)">
<path d="M683.544 54.3246L693.536 62.6581C693.941 62.9953 693.854 63.6428 693.377 63.8564L681.569 69.1369C681.065 69.3624 680.51 68.94 680.584 68.389L682.399 54.7751C682.473 54.2228 683.117 53.9689 683.544 54.3246Z" fill="#5071E7"/>
</g>
<g clipPath="url(#clip3_82_893)">
<path d="M909.233 167.853L921.652 171.735C922.155 171.892 922.322 172.523 921.963 172.903L913.07 182.296C912.69 182.697 912.016 182.518 911.873 181.981L908.348 168.707C908.205 168.168 908.703 167.688 909.233 167.853Z" fill="#5071E7"/>
</g>
<g clipPath="url(#clip4_82_893)">
<path d="M1161.31 225.39L1173.72 221.461C1174.22 221.302 1174.72 221.724 1174.64 222.241L1172.73 235.034C1172.65 235.58 1171.99 235.82 1171.57 235.461L1161.08 226.597C1160.65 226.237 1160.78 225.558 1161.31 225.39Z" fill="#5071E7"/>
</g>
<defs>
<clipPath id="clip0_82_893">
<rect width="14" height="14.4516" fill="white" transform="translate(48.623 218.863) rotate(111.839)"/>
</clipPath>
<clipPath id="clip1_82_893">
<rect width="14" height="14.4516" fill="white" transform="translate(351.055 126.347) rotate(138.718)"/>
</clipPath>
<clipPath id="clip2_82_893">
<rect width="14" height="14.4516" fill="white" transform="translate(694.473 66.6797) rotate(169.138)"/>
</clipPath>
<clipPath id="clip3_82_893">
<rect width="14" height="14.4516" fill="white" transform="translate(924.055 175.093) rotate(146.669)"/>
</clipPath>
<clipPath id="clip4_82_893">
<rect width="14" height="14.4516" fill="white" transform="translate(1177.61 222.839) rotate(111.738)"/>
</clipPath>
</defs>
</svg>