<svg width="124" height="111" viewBox="0 0 124 111" fill="none" xmlns="http://www.w3.org/2000/svg">
<path d="M71.4666 103.125C99.9393 103.125 123.021 80.0397 123.021 51.5625C123.021 23.0853 99.9393 0 71.4666 0C42.9938 0 19.9121 23.0853 19.9121 51.5625C19.9121 80.0397 42.9938 103.125 71.4666 103.125Z" fill="#D8E6FF"/>
<path d="M71.468 103.125C86.0158 103.125 99.1387 97.0686 108.531 87.3562V78.9374C108.531 73.7624 105.044 69.2249 100.02 67.9124L86.8031 64.3687H56.1142L42.935 67.9124C37.9295 69.2249 34.4238 73.7624 34.4238 78.9374V87.3562C43.7974 97.0686 56.9203 103.125 71.468 103.125Z" fill="#3353B6"/>
<path d="M80.5415 56.325C80.429 55.7063 80.3353 52.2375 80.2603 51.6562H62.6755C62.6006 52.2375 62.5256 55.7063 62.3943 56.325C61.7007 59.8875 59.3198 62.7938 56.1328 64.3688C71.4679 68.2875 71.4679 68.2875 71.4679 68.2875C71.4679 68.2875 71.4679 68.2875 86.803 64.3688C83.6348 62.7938 81.2351 59.8875 80.5415 56.325Z" fill="#E6C1BD"/>
<path d="M71.4671 59.6813C80.1021 59.6813 87.1021 50.9005 87.1021 40.0688C87.1021 29.2371 80.1021 20.4563 71.4671 20.4563C62.8321 20.4563 55.832 29.2371 55.832 40.0688C55.832 50.9005 62.8321 59.6813 71.4671 59.6813Z" fill="#F3D3CF"/>
<path d="M56.0749 37.2562C56.0749 37.2562 52.2505 32.3624 54.6688 23.0624C57.1809 13.4624 64.511 15.2437 64.511 15.2437C64.511 15.2437 66.8919 12.7124 72.4785 12.7124C79.3775 12.7124 85.3578 14.3624 88.0761 21.0187C90.8132 27.6749 87.1388 37.2562 87.1388 37.2562C87.1388 37.2562 84.7954 28.8374 77.1466 26.3624C77.1466 26.3624 74.1845 29.6437 65.2047 29.6437C56.2248 29.6624 56.0749 37.2562 56.0749 37.2562Z" fill="#85ABEF"/>
<path d="M87.9837 35.2124C86.3152 34.8562 84.1031 37.0499 83.5406 39.6187C82.9782 42.1874 83.8593 44.5499 85.5278 44.9062C87.1963 45.2624 89.221 43.5374 89.8022 40.9687C90.3646 38.3999 89.6522 35.5687 87.9837 35.2124Z" fill="#F3D3CF"/>
<path d="M54.9515 35.2124C56.62 34.8562 58.8321 37.0499 59.3945 39.6187C59.957 42.1874 59.0758 44.5499 57.4074 44.9062C55.7389 45.2624 53.7142 43.5374 53.133 40.9687C52.5706 38.3999 53.283 35.5687 54.9515 35.2124Z" fill="#F3D3CF"/>
<path d="M60.7634 60.3374C60.7634 60.3374 58.5325 61.7999 56.1329 64.3687C55.8329 67.4624 64.1754 76.8936 64.1754 76.8936C64.1754 76.8936 67.0062 72.5999 71.468 68.2874C64.7753 64.6686 60.7634 60.3374 60.7634 60.3374Z" fill="#EBF3FD"/>
<path d="M82.1714 60.3374C82.1714 60.3374 84.4023 61.7999 86.8019 64.3687C87.1019 67.4624 78.7594 76.8936 78.7594 76.8936C78.7594 76.8936 75.9286 72.5999 71.4668 68.2874C78.1595 64.6686 82.1714 60.3374 82.1714 60.3374Z" fill="#EBF3FD"/>
<path d="M17.8121 107.156C19.3651 107.156 20.6241 105.897 20.6241 104.344C20.6241 102.79 19.3651 101.531 17.8121 101.531C16.259 101.531 15 102.79 15 104.344C15 105.897 16.259 107.156 17.8121 107.156Z" fill="#EBF3FD"/>
<path d="M35.3681 111C46.9267 111 56.2968 101.598 56.2968 90.0001C56.2968 78.4021 46.9267 69 35.3681 69C23.8095 69 14.4395 78.4021 14.4395 90.0001C14.4395 101.598 23.8095 111 35.3681 111Z" fill="#85ABEF"/>
<path d="M36.9654 75.0682C37.5712 75.9082 38.7168 76.1293 39.587 75.5877C40.7326 74.8803 42.2196 75.4993 42.539 76.8145C42.7814 77.8203 43.7507 78.4724 44.7641 78.3067C46.0859 78.0967 47.2315 79.2461 47.0222 80.5724C46.857 81.5893 47.5068 82.5619 48.5092 82.8051C49.809 83.1146 50.4369 84.6177 49.7319 85.7672C49.1922 86.6514 49.4235 87.8009 50.2496 88.3977C51.3291 89.1825 51.3291 90.8072 50.2496 91.603C49.4124 92.2109 49.1922 93.3604 49.7319 94.2335C50.4369 95.383 49.82 96.8751 48.5092 97.1957C47.5068 97.4388 46.857 98.4115 47.0222 99.4283C47.2315 100.755 46.0859 101.904 44.7641 101.694C43.7507 101.528 42.7814 102.18 42.539 103.186C42.2306 104.49 40.7326 105.12 39.587 104.413C38.7058 103.871 37.5602 104.104 36.9654 104.933C36.1833 106.027 34.5641 106.027 33.771 104.933C33.1652 104.093 32.0196 103.871 31.1494 104.413C30.0039 105.12 28.5168 104.501 28.1974 103.186C27.955 102.18 26.9857 101.528 25.9723 101.694C24.6505 101.904 23.505 100.755 23.7142 99.4283C23.8795 98.4115 23.2296 97.4388 22.2272 97.1957C20.9274 96.8862 20.2996 95.383 21.0045 94.2335C21.5443 93.3493 21.3129 92.1999 20.4868 91.603C19.3963 90.8183 19.3963 89.1935 20.4868 88.3977C21.324 87.7898 21.5443 86.6404 21.0045 85.7672C20.2996 84.6177 20.9164 83.1256 22.2272 82.8051C23.2296 82.5619 23.8795 81.5893 23.7142 80.5724C23.505 79.2461 24.6505 78.0967 25.9723 78.3067C26.9857 78.4724 27.955 77.8203 28.1974 76.8145C28.5058 75.5103 30.0039 74.8803 31.1494 75.5877C32.0306 76.1293 33.1762 75.8972 33.771 75.0682C34.5531 73.974 36.1723 73.974 36.9654 75.0682Z" fill="#D8E6FF"/>
<path d="M28.1753 94.7327L25.0475 85.4158H27.3634L29.2933 91.9909L31.2233 85.4158H33.5392L30.4114 94.7327H28.1753Z" fill="#3353B6"/>
<path d="M34.4022 94.7327V85.4158H36.5584V94.7327H34.4022Z" fill="#3353B6"/>
<path d="M42.3329 85.4158C43.3001 85.4158 44.0987 85.7352 44.7287 86.3741C45.3587 87.0041 45.6737 87.8071 45.6737 88.7832C45.6737 89.7592 45.3587 90.5667 44.7287 91.2056C44.0987 91.8356 43.3001 92.1506 42.3329 92.1506H40.5227V94.7327H38.3665V85.4158H42.3329ZM42.0001 90.3937C42.4349 90.3937 42.7899 90.2428 43.0649 89.9411C43.3489 89.6394 43.4909 89.2535 43.4909 88.7832C43.4909 88.3129 43.3489 87.9269 43.0649 87.6252C42.7899 87.3235 42.4349 87.1727 42.0001 87.1727H40.5227V90.3937H42.0001Z" fill="#3353B6"/>
<path d="M0 94.4868L3.14048 95.16C4.23558 95.3949 5.0919 96.2503 5.32683 97.3463L6 100.487L6.67317 97.3463C6.9081 96.2512 7.76346 95.3949 8.85952 95.16L12 94.4868L8.85952 93.8137C7.76442 93.5787 6.9081 92.7234 6.67317 91.6273L6 88.4868L5.32683 91.6273C5.0919 92.7224 4.23654 93.5787 3.14048 93.8137L0 94.4868Z" fill="#85ABEF"/>
<path d="M0 84.9868L1.30853 85.2673C1.76482 85.3652 2.12162 85.7216 2.21951 86.1783L2.5 87.4868L2.78049 86.1783C2.87838 85.722 3.23478 85.3652 3.69147 85.2673L5 84.9868L3.69147 84.7063C3.23518 84.6084 2.87838 84.252 2.78049 83.7954L2.5 82.4868L2.21951 83.7954C2.12162 84.2516 1.76522 84.6084 1.30853 84.7063L0 84.9868Z" fill="#85ABEF"/>
</svg>
