<svg width="120" height="120" viewBox="0 0 120 120" fill="none" xmlns="http://www.w3.org/2000/svg">
<path d="M97.5 15H0V1.875C0 0.84375 0.84375 0 1.875 0H95.625C96.6562 0 97.5 0.84375 97.5 1.875V15Z" fill="#5071E7"/>
<path d="M88.125 9.37505C87.6375 9.37505 87.15 9.1688 86.8125 8.81255C86.4562 8.4563 86.25 7.98755 86.25 7.50005C86.25 7.01255 86.4562 6.52505 86.8125 6.18755C87.5062 5.4938 88.7625 5.4938 89.4562 6.18755C89.8125 6.5063 90 7.01255 90 7.50005C90 8.0063 89.8125 8.47505 89.4562 8.8313C89.1187 9.1688 88.6312 9.37505 88.125 9.37505Z" fill="#EBF3FD"/>
<path d="M75.957 7.5C75.957 6.46875 76.782 5.625 77.832 5.625C78.8633 5.625 79.707 6.46875 79.707 7.5C79.707 8.55 78.8633 9.39375 77.832 9.39375C76.782 9.375 75.957 8.53125 75.957 7.5Z" fill="#EBF3FD"/>
<path d="M67.5 9.37505C67.0125 9.37505 66.525 9.1688 66.1875 8.81255C65.8312 8.4563 65.625 7.98755 65.625 7.50005C65.625 7.01255 65.8312 6.52505 66.1875 6.18755C66.8812 5.4938 68.1375 5.4938 68.8312 6.18755C69.1875 6.5063 69.375 7.01255 69.375 7.50005C69.375 8.0063 69.1875 8.47505 68.8312 8.8313C68.4937 9.1688 68.0062 9.37505 67.5 9.37505Z" fill="#EBF3FD"/>
<path d="M97.5 15H0V112.5H97.5V15Z" fill="#E9F1FF"/>
<path d="M95.625 120H1.875C0.84375 120 0 119.156 0 118.125V112.5H97.5V118.125C97.5 119.156 96.6562 120 95.625 120Z" fill="#5071E7"/>
<path d="M118.125 25.3125H11.25C10.2188 25.3125 9.375 26.1562 9.375 27.1875V100.312C9.375 101.344 10.2188 102.188 11.25 102.188H118.125C119.156 102.188 120 101.344 120 100.312V27.1875C120 26.1562 119.156 25.3125 118.125 25.3125Z" fill="#D8E6FF"/>
<path d="M16.875 69.5062L35.625 61.7062L47.3438 66.0375L59.5312 54.7313L71.1 57.0187L83.9062 40.5375L99.6937 44.2688L114.375 30.9375V94.6875H16.875V69.5062Z" fill="#AFC4F9"/>
<path d="M17.4195 70.7999L16.332 68.2125L35.5883 60.2062L47.0258 64.425L59.1008 53.2125L70.5195 55.4625L83.3445 38.9625L99.3008 42.7312L114.376 29.0437V32.8312L100.107 45.8062L84.4695 42.1124L71.682 58.575L59.9633 56.25L47.6633 67.65L35.6633 63.225L17.4195 70.7999Z" fill="#EBF3FD"/>
<path d="M16.875 82.3875L35.1562 77.1376L47.3438 84.2438L59.5312 74.7001L72.7688 78.3938L83.9062 64.4438L99.6937 70.2375L114.375 56.175V94.6875H16.875V82.3875Z" fill="#8EAAF1"/>
<path d="M47.4555 85.9314L34.968 78.6563L17.268 83.7563L16.4805 81.0376L35.343 75.6189L47.2305 82.5563L59.2305 73.1626L72.243 76.7813L83.4367 62.7751L99.3555 68.6063L114.374 54.2251V58.1063L100.049 71.8501L84.3742 66.1126L73.2742 79.9876L59.8492 76.2563L47.4555 85.9314Z" fill="#EBF3FD"/>
<path d="M114.375 96.5625H15V30.9375H18.75V92.8125H114.375V96.5625Z" fill="#5071E7"/>
<path d="M35.625 66.3938C38.2138 66.3938 40.3125 64.2951 40.3125 61.7063C40.3125 59.1175 38.2138 57.0188 35.625 57.0188C33.0362 57.0188 30.9375 59.1175 30.9375 61.7063C30.9375 64.2951 33.0362 66.3938 35.625 66.3938Z" fill="#7598D9"/>
<path d="M35.625 67.8001C32.2688 67.8001 29.5312 65.0626 29.5312 61.7063C29.5312 58.35 32.2688 55.6125 35.625 55.6125C38.9812 55.6125 41.7188 58.35 41.7188 61.7063C41.7188 65.0626 38.9812 67.8001 35.625 67.8001ZM35.625 58.425C33.825 58.425 32.3438 59.9063 32.3438 61.7063C32.3438 63.5063 33.825 64.9876 35.625 64.9876C37.425 64.9876 38.9062 63.5063 38.9062 61.7063C38.9062 59.9063 37.4437 58.425 35.625 58.425Z" fill="#EBF3FD"/>
<path d="M71.0996 61.7063C73.6884 61.7063 75.7871 59.6076 75.7871 57.0188C75.7871 54.43 73.6884 52.3313 71.0996 52.3313C68.5108 52.3313 66.4121 54.43 66.4121 57.0188C66.4121 59.6076 68.5108 61.7063 71.0996 61.7063Z" fill="#7598D9"/>
<path d="M71.0996 63.1125C67.7434 63.1125 65.0059 60.375 65.0059 57.0188C65.0059 53.6625 67.7434 50.925 71.0996 50.925C74.4559 50.925 77.1934 53.6625 77.1934 57.0188C77.1934 60.375 74.4559 63.1125 71.0996 63.1125ZM71.0996 53.7375C69.2996 53.7375 67.8184 55.2188 67.8184 57.0188C67.8184 58.8188 69.2996 60.3 71.0996 60.3C72.8996 60.3 74.3809 58.8188 74.3809 57.0188C74.3809 55.2188 72.8996 53.7375 71.0996 53.7375Z" fill="#EBF3FD"/>
<path d="M59.2129 80.1375C61.8017 80.1375 63.9004 78.0388 63.9004 75.45C63.9004 72.8611 61.8017 70.7625 59.2129 70.7625C56.6241 70.7625 54.5254 72.8611 54.5254 75.45C54.5254 78.0388 56.6241 80.1375 59.2129 80.1375Z" fill="#7598D9"/>
<path d="M59.2129 81.5437C55.8566 81.5437 53.1191 78.8062 53.1191 75.45C53.1191 72.0937 55.8566 69.3562 59.2129 69.3562C62.5691 69.3562 65.3066 72.0937 65.3066 75.45C65.3066 78.825 62.5879 81.5437 59.2129 81.5437ZM59.2129 72.1687C57.4129 72.1687 55.9316 73.65 55.9316 75.45C55.9316 77.25 57.4129 78.7312 59.2129 78.7312C61.0129 78.7312 62.4941 77.25 62.4941 75.45C62.4941 73.65 61.0316 72.1687 59.2129 72.1687Z" fill="#EBF3FD"/>
<path d="M100.781 74.0625C103.37 74.0625 105.469 71.9638 105.469 69.375C105.469 66.7862 103.37 64.6875 100.781 64.6875C98.1924 64.6875 96.0938 66.7862 96.0938 69.375C96.0938 71.9638 98.1924 74.0625 100.781 74.0625Z" fill="#7598D9"/>
<path d="M100.781 75.4688C97.425 75.4688 94.6875 72.7312 94.6875 69.375C94.6875 66.0188 97.425 63.2812 100.781 63.2812C104.137 63.2812 106.875 66.0188 106.875 69.375C106.875 72.7312 104.137 75.4688 100.781 75.4688ZM100.781 66.0938C98.9812 66.0938 97.5 67.575 97.5 69.375C97.5 71.175 98.9812 72.6562 100.781 72.6562C102.581 72.6562 104.062 71.175 104.062 69.375C104.062 67.575 102.6 66.0938 100.781 66.0938Z" fill="#EBF3FD"/>
<path d="M67.5 33.8999H58.125C57.45 33.8999 56.9062 33.3562 56.9062 32.6812C56.9062 32.0062 57.45 31.4624 58.125 31.4624H67.5C68.175 31.4624 68.7188 32.0062 68.7188 32.6812C68.7188 33.3562 68.175 33.8999 67.5 33.8999Z" fill="#5071E7"/>
<path d="M52.5 33.8999H31.875C31.2 33.8999 30.6562 33.3562 30.6562 32.6812C30.6562 32.0062 31.2 31.4624 31.875 31.4624H52.5C53.175 31.4624 53.7188 32.0062 53.7188 32.6812C53.7188 33.3562 53.175 33.8999 52.5 33.8999Z" fill="#5071E7"/>
<path d="M67.5 41.3999H48.75C48.075 41.3999 47.5312 40.8562 47.5312 40.1812C47.5312 39.5062 48.075 38.9624 48.75 38.9624H67.5C68.175 38.9624 68.7188 39.5062 68.7188 40.1812C68.7188 40.8562 68.175 41.3999 67.5 41.3999Z" fill="#5071E7"/>
<path d="M43.125 41.3999H31.875C31.2 41.3999 30.6562 40.8562 30.6562 40.1812C30.6562 39.5062 31.2 38.9624 31.875 38.9624H43.125C43.8 38.9624 44.3438 39.5062 44.3438 40.1812C44.3438 40.8562 43.8 41.3999 43.125 41.3999Z" fill="#5071E7"/>
<path d="M52.5 48.8999H31.875C31.2 48.8999 30.6562 48.3562 30.6562 47.6812C30.6562 47.0062 31.2 46.4624 31.875 46.4624H52.5C53.175 46.4624 53.7188 47.0062 53.7188 47.6812C53.7188 48.3562 53.175 48.8999 52.5 48.8999Z" fill="#5071E7"/>
<path d="M22.125 58.9314H16.875V55.4438H22.125L24 57.1876L22.125 58.9314Z" fill="#5071E7"/>
<path d="M22.125 34.4438H16.875V30.9375H22.125L24 32.6813L22.125 34.4438Z" fill="#5071E7"/>
<path d="M22.125 83.4374H16.875V79.9312H22.125L24 81.6937L22.125 83.4374Z" fill="#5071E7"/>
<path d="M22.125 71.1938H16.875V67.6875H22.125L24 69.45L22.125 71.1938Z" fill="#5071E7"/>
</svg>
