<svg width="120" height="120" viewBox="0 0 120 120" fill="none" xmlns="http://www.w3.org/2000/svg">
<path d="M120 93.75H0V16.875C0 13.7625 2.5125 11.25 5.625 11.25H114.375C117.488 11.25 120 13.7625 120 16.875V93.75Z" fill="#D1E1FF"/>
<path d="M112.5 88.125H7.5C6.46875 88.125 5.625 87.2812 5.625 86.25V18.75C5.625 17.7188 6.46875 16.875 7.5 16.875H112.5C113.531 16.875 114.375 17.7188 114.375 18.75V86.25C114.375 87.2812 113.531 88.125 112.5 88.125Z" fill="#E9F2FD"/>
<path d="M114.375 103.125H5.625C2.5125 103.125 0 100.612 0 97.5V93.75H120V97.5C120 100.594 117.488 103.125 114.375 103.125Z" fill="#617FE9"/>
<path d="M67.5 99.375H52.5C51.975 99.375 51.5625 98.9625 51.5625 98.4375C51.5625 97.9125 51.975 97.5 52.5 97.5H67.5C68.025 97.5 68.4375 97.9125 68.4375 98.4375C68.4375 98.9438 68.025 99.375 67.5 99.375Z" fill="#B1CDFC"/>
<path d="M93.75 110.625H26.25L20.625 116.25H99.375L93.75 110.625Z" fill="#8EAAF1"/>
<path d="M82.5 103.125H37.5V112.5H82.5V103.125Z" fill="#ADC4EF"/>
<path d="M99.375 116.25H20.625V120H99.375V116.25Z" fill="#617FE9"/>
<path d="M60 0L15.9375 33.6562L60 67.3125L104.062 33.6562L60 0Z" fill="#83A3F4"/>
<path d="M91.875 0H28.125C27.0938 0 26.25 0.84375 26.25 1.875V76.875C26.25 77.9062 27.0938 78.75 28.125 78.75H91.875C92.9062 78.75 93.75 77.9062 93.75 76.875V1.875C93.75 0.84375 92.9062 0 91.875 0Z" fill="#D8E6FF"/>
<path d="M54.375 9.375H35.625V31.875H54.375V9.375Z" fill="#C8D7FD"/>
<path d="M54.375 33.0938H35.625C34.95 33.0938 34.4062 32.55 34.4062 31.875V9.375C34.4062 8.7 34.95 8.15625 35.625 8.15625H54.375C55.05 8.15625 55.5938 8.7 55.5938 9.375V31.875C55.5938 32.55 55.05 33.0938 54.375 33.0938ZM36.8437 30.6563H53.1563V10.5938H36.8437V30.6563Z" fill="#C8D7FD"/>
<path d="M84.375 10.5938H61.875C61.2 10.5938 60.6562 10.05 60.6562 9.375C60.6562 8.7 61.2 8.15625 61.875 8.15625H84.375C85.05 8.15625 85.5938 8.7 85.5938 9.375C85.5938 10.05 85.05 10.5938 84.375 10.5938Z" fill="#5071E7"/>
<path d="M84.375 18.0937H74.0625C73.3875 18.0937 72.8438 17.55 72.8438 16.875C72.8438 16.2 73.3875 15.6562 74.0625 15.6562H84.375C85.05 15.6562 85.5938 16.2 85.5938 16.875C85.5938 17.55 85.05 18.0937 84.375 18.0937Z" fill="#5071E7"/>
<path d="M68.4375 18.0937H61.875C61.2 18.0937 60.6562 17.55 60.6562 16.875C60.6562 16.2 61.2 15.6562 61.875 15.6562H68.4375C69.1125 15.6562 69.6563 16.2 69.6563 16.875C69.6563 17.55 69.1125 18.0937 68.4375 18.0937Z" fill="#5071E7"/>
<path d="M78.75 25.5938H61.875C61.2 25.5938 60.6562 25.05 60.6562 24.375C60.6562 23.7 61.2 23.1562 61.875 23.1562H78.75C79.425 23.1562 79.9688 23.7 79.9688 24.375C79.9688 25.05 79.425 25.5938 78.75 25.5938Z" fill="#5071E7"/>
<path d="M84.375 33.0938H75.9375C75.2625 33.0938 74.7188 32.55 74.7188 31.875C74.7188 31.2 75.2625 30.6562 75.9375 30.6562H84.375C85.05 30.6562 85.5938 31.2 85.5938 31.875C85.5938 32.55 85.05 33.0938 84.375 33.0938Z" fill="#5071E7"/>
<path d="M70.3125 33.0938H61.875C61.2 33.0938 60.6562 32.55 60.6562 31.875C60.6562 31.2 61.2 30.6562 61.875 30.6562H70.3125C70.9875 30.6562 71.5313 31.2 71.5313 31.875C71.5313 32.55 70.9875 33.0938 70.3125 33.0938Z" fill="#5071E7"/>
<path d="M84.375 40.5938H55.0312C54.3562 40.5938 53.8125 40.05 53.8125 39.375C53.8125 38.7 54.3562 38.1562 55.0312 38.1562H84.375C85.05 38.1562 85.5938 38.7 85.5938 39.375C85.5938 40.05 85.05 40.5938 84.375 40.5938Z" fill="#5071E7"/>
<path d="M49.4063 40.5938H35.625C34.95 40.5938 34.4062 40.05 34.4062 39.375C34.4062 38.7 34.95 38.1562 35.625 38.1562H49.4063C50.0813 38.1562 50.625 38.7 50.625 39.375C50.625 40.05 50.0813 40.5938 49.4063 40.5938Z" fill="#5071E7"/>
<path d="M78.75 48.0938H72.6563C71.9813 48.0938 71.4375 47.55 71.4375 46.875C71.4375 46.2 71.9813 45.6562 72.6563 45.6562H78.75C79.425 45.6562 79.9688 46.2 79.9688 46.875C79.9688 47.55 79.425 48.0938 78.75 48.0938Z" fill="#5071E7"/>
<path d="M67.0312 48.0938H41.25C40.575 48.0938 40.0312 47.55 40.0312 46.875C40.0312 46.2 40.575 45.6562 41.25 45.6562H67.0312C67.7062 45.6562 68.25 46.2 68.25 46.875C68.25 47.55 67.7062 48.0938 67.0312 48.0938Z" fill="#5071E7"/>
<path d="M15.9375 33.6562V78.75L45.4688 56.1937L15.9375 33.6562Z" fill="#AFC4F9"/>
<path d="M74.5508 56.1937L104.063 78.75V33.6562L74.5508 56.1937Z" fill="#AFC4F9"/>
<path d="M60 45.0938L15.9375 78.75H104.062L60 45.0938Z" fill="#C8D7FD"/>
</svg>
