<svg width="120" height="120" viewBox="0 0 120 120" fill="none" xmlns="http://www.w3.org/2000/svg">
<path d="M105 0V118.125C105 119.156 104.156 120 103.125 120H1.875C0.84375 120 0 119.156 0 118.125V15C0 6.7125 6.7125 0 15 0H105Z" fill="#D8E6FF"/>
<path d="M15 0C23.2875 0 30 6.7125 30 15H120C120 6.7125 113.287 0 105 0H15Z" fill="#A7C4FA"/>
<path d="M26.25 41.2312H18.75C16.6875 41.2312 15 39.5625 15 37.4812V29.9812C15 27.9187 16.6875 26.2312 18.75 26.2312H26.25C28.3125 26.2312 30 27.9187 30 29.9812V37.4812C30 39.5625 28.3313 41.2312 26.25 41.2312Z" fill="#EBF3FD"/>
<path d="M26.25 63.75H18.75C16.6875 63.75 15 62.0625 15 60V52.5C15 50.4375 16.6875 48.75 18.75 48.75H26.25C28.3125 48.75 30 50.4375 30 52.5V60C30 62.0625 28.3313 63.75 26.25 63.75Z" fill="#EBF3FD"/>
<path d="M26.25 86.25H18.75C16.6875 86.25 15 84.5625 15 82.5V75C15 72.9375 16.6875 71.25 18.75 71.25H26.25C28.3125 71.25 30 72.9375 30 75V82.5C30 84.5625 28.3313 86.25 26.25 86.25Z" fill="#EBF3FD"/>
<path d="M26.25 108.75H18.75C16.6875 108.75 15 107.062 15 105V97.5C15 95.4375 16.6875 93.75 18.75 93.75H26.25C28.3125 93.75 30 95.4375 30 97.5V105C30 107.062 28.3313 108.75 26.25 108.75Z" fill="#EBF3FD"/>
<path d="M84.6941 39.0377L69.0941 33.9002C68.5129 33.7127 67.8754 33.8627 67.4441 34.2939L44.4004 57.3377C46.3129 58.1814 48.5441 57.7502 50.0254 56.2689L69.0191 37.2752L82.0879 41.6252L84.6941 39.0377Z" fill="#9FC3FF"/>
<path d="M95.9242 27.8251L92.568 26.4001C91.893 26.1001 91.1055 26.2688 90.5805 26.7751L84.7305 32.6251L89.5305 34.2188L95.9242 27.8251Z" fill="#3254CD"/>
<path d="M91.1262 39.0189L96.9762 33.1689C97.5012 32.6439 97.6512 31.8564 97.3512 31.1814L95.9074 27.8252L89.5137 34.2189L91.1262 39.0189Z" fill="#5071E7"/>
<path d="M35.3617 98.6062L32.8117 90.9375L26.418 97.3312L27.8055 101.512L35.3617 98.6062Z" fill="#9FC3FF"/>
<path d="M25.1445 88.3875L22.2383 95.925L26.4195 97.3312L32.8133 90.9375L25.1445 88.3875Z" fill="#93B7F4"/>
<path d="M18.75 105L26.4188 97.3313L22.2375 95.925L18.75 105Z" fill="#3254CD"/>
<path d="M81.0742 32.4563L45.8242 67.6875L53.493 70.2375L89.5117 34.2188L82.9117 32.025C82.2742 31.8 81.543 31.9688 81.0742 32.4563Z" fill="#93B7F4"/>
<path d="M89.5297 34.2188L53.4922 70.2375L56.0422 77.9062L91.2734 42.675C91.7609 42.1875 91.9297 41.475 91.7047 40.8188L89.5297 34.2188Z" fill="#9FC3FF"/>
<path d="M32.8125 90.9376L35.3625 98.6063L56.0625 77.9063L53.4938 70.2375L32.8125 90.9376Z" fill="#5071E7"/>
<path d="M26.4188 97.3313L18.75 105L27.8063 101.513L26.4188 97.3313Z" fill="#5071E7"/>
<path d="M53.4945 70.2375L45.8258 67.6875L25.1445 88.3875L32.8133 90.9375L53.4945 70.2375Z" fill="#3254CD"/>
<path d="M59.175 38.6062H41.25C40.6313 38.6062 40.125 38.0999 40.125 37.4812C40.125 36.8625 40.6313 36.3562 41.25 36.3562H59.1562C59.775 36.3562 60.2812 36.8625 60.2812 37.4812C60.3 38.1187 59.7937 38.6062 59.175 38.6062Z" fill="#5071E6"/>
<path d="M78.75 31.1062H58.125C57.5063 31.1062 57 30.5999 57 29.9812C57 29.3624 57.5063 28.8562 58.125 28.8562H78.75C79.3687 28.8562 79.875 29.3624 79.875 29.9812C79.875 30.6187 79.3687 31.1062 78.75 31.1062Z" fill="#5071E6"/>
<path d="M52.5 31.1062H41.25C40.6313 31.1062 40.125 30.5999 40.125 29.9812C40.125 29.3624 40.6313 28.8562 41.25 28.8562H52.5C53.1187 28.8562 53.625 29.3624 53.625 29.9812C53.625 30.6187 53.1187 31.1062 52.5 31.1062Z" fill="#5071E6"/>
<path d="M90 60.2437H80.625C80.0062 60.2437 79.5 59.7374 79.5 59.1187C79.5 58.4999 80.0062 57.9937 80.625 57.9937H90C90.6187 57.9937 91.125 58.4999 91.125 59.1187C91.125 59.7562 90.6187 60.2437 90 60.2437Z" fill="#1D3285"/>
<path d="M90 52.7437H88.125C87.5062 52.7437 87 52.2374 87 51.6187C87 50.9999 87.5062 50.4937 88.125 50.4937H90C90.6187 50.4937 91.125 50.9999 91.125 51.6187C91.125 52.2562 90.6187 52.7437 90 52.7437Z" fill="#5071E6"/>
<path d="M90 83.625H75C74.3812 83.625 73.875 83.1187 73.875 82.5C73.875 81.8812 74.3812 81.375 75 81.375H90C90.6187 81.375 91.125 81.8812 91.125 82.5C91.125 83.1187 90.6187 83.625 90 83.625Z" fill="#1D3285"/>
<path d="M69.375 83.625H58.125C57.5063 83.625 57 83.1187 57 82.5C57 81.8812 57.5063 81.375 58.125 81.375H69.375C69.9937 81.375 70.5 81.8812 70.5 82.5C70.5 83.1187 69.9937 83.625 69.375 83.625Z" fill="#5071E6"/>
<path d="M90 76.125H80.625C80.0062 76.125 79.5 75.6187 79.5 75C79.5 74.3812 80.0062 73.875 80.625 73.875H90C90.6187 73.875 91.125 74.3812 91.125 75C91.125 75.6187 90.6187 76.125 90 76.125Z" fill="#1D3285"/>
<path d="M75 76.125H65.625C65.0062 76.125 64.5 75.6187 64.5 75C64.5 74.3812 65.0062 73.875 65.625 73.875H75C75.6187 73.875 76.125 74.3812 76.125 75C76.125 75.6187 75.6187 76.125 75 76.125Z" fill="#5071E6"/>
<path d="M82.5 105.262H59.8125C59.1938 105.262 58.6875 104.756 58.6875 104.137C58.6875 103.519 59.1938 103.012 59.8125 103.012H82.5C83.1188 103.012 83.625 103.519 83.625 104.137C83.625 104.756 83.1188 105.262 82.5 105.262Z" fill="#5071E6"/>
<path d="M54.1875 105.262H41.25C40.6313 105.262 40.125 104.756 40.125 104.137C40.125 103.519 40.6313 103.012 41.25 103.012H54.1875C54.8062 103.012 55.3125 103.519 55.3125 104.137C55.3125 104.756 54.8062 105.262 54.1875 105.262Z" fill="#5071E6"/>
<path d="M90 97.7624H69.375C68.7562 97.7624 68.25 97.2562 68.25 96.6375C68.25 96.0187 68.7562 95.5125 69.375 95.5125H90C90.6187 95.5125 91.125 96.0187 91.125 96.6375C91.125 97.2562 90.6187 97.7624 90 97.7624Z" fill="#1D3285"/>
<path d="M63.75 97.7624H43.125C42.5063 97.7624 42 97.2562 42 96.6375C42 96.0187 42.5063 95.5125 43.125 95.5125H63.75C64.3687 95.5125 64.875 96.0187 64.875 96.6375C64.875 97.2562 64.3687 97.7624 63.75 97.7624Z" fill="#5071E6"/>
<path d="M45.225 52.7437H41.25C40.6313 52.7437 40.125 52.2374 40.125 51.6187C40.125 50.9999 40.6313 50.4937 41.25 50.4937H45.225C45.8438 50.4937 46.35 50.9999 46.35 51.6187C46.35 52.2562 45.8438 52.7437 45.225 52.7437Z" fill="#5071E6"/>
<path d="M112.5 67.5L114.3 71.25L112.5 75L116.25 73.2187L120 75L118.2 71.25L120 67.5L116.25 69.3L112.5 67.5Z" fill="#E39C26"/>
<path d="M108.75 99.375L110.55 103.125L108.75 106.875L112.5 105.094L116.25 106.875L114.45 103.125L116.25 99.375L112.5 101.175L108.75 99.375Z" fill="#DD4A11"/>
</svg>
