<svg width="80" height="60" viewBox="0 0 80 60" fill="none" xmlns="http://www.w3.org/2000/svg">
<path d="M20.1709 45.3552L20.1709 39.9584" stroke="#FF793A" stroke-width="3"/>
<path d="M20.1709 38.6589L20.1709 35.9604" stroke="#FF793A" stroke-width="3"/>
<path d="M45.4163 16.2154C45.5027 15.8611 45.4535 15.4873 45.2784 15.1674C44.8315 14.3919 44.2359 13.7123 43.5257 13.1676C42.8155 12.6229 42.0047 12.2237 41.1399 11.9931C40.2751 11.7625 39.3733 11.7049 38.4861 11.8237C37.599 11.9425 36.7441 12.2352 35.9704 12.6852L33.0056 14.3951L26.1107 11.1546C25.9147 11.053 25.6972 11 25.4764 11C25.2556 11 25.0381 11.053 24.8421 11.1546L20.7051 13.5402C20.5007 13.6581 20.3299 13.8265 20.2092 14.0294C20.0885 14.2322 20.0218 14.4626 20.0157 14.6985C20.009 14.9362 20.0639 15.1716 20.175 15.3818C20.2862 15.592 20.4498 15.7699 20.65 15.8982L25.2006 18.7665L22.8012 20.1455L16.2097 20.9453C15.9447 20.978 15.695 21.087 15.4907 21.259C15.2865 21.431 15.1366 21.6586 15.0592 21.9141C14.9818 22.1696 14.9803 22.4421 15.0548 22.6985C15.1292 22.9549 15.2766 23.1842 15.4788 23.3585L20.3604 27.5781C21.0031 28.1915 21.8261 28.5817 22.7078 28.6909C23.5894 28.8002 24.4828 28.6228 25.2558 28.1849L44.7269 17.0566C44.8928 16.9704 45.0395 16.8514 45.158 16.7068C45.2766 16.5622 45.3645 16.395 45.4163 16.2154ZM24.0009 25.8682C23.736 26.014 23.4306 26.0686 23.1316 26.0238C22.8326 25.9789 22.5566 25.837 22.3461 25.62L19.7261 23.3723L23.4907 22.9172C23.6757 22.8935 23.8539 22.8325 24.0147 22.7379L28.648 20.0765C28.8544 19.9574 29.0265 19.7868 29.1473 19.5814C29.2681 19.3759 29.3337 19.1427 29.3375 18.9044C29.3403 18.6677 29.2822 18.4343 29.1687 18.2266C29.0552 18.0189 28.8901 17.8439 28.6894 17.7185L24.1388 14.8364L25.6557 13.9677L32.5505 17.1669C32.7465 17.2684 32.9641 17.3214 33.1849 17.3214C33.4056 17.3214 33.6232 17.2684 33.8192 17.1669L37.3494 15.126C38.0728 14.7206 38.9013 14.5419 39.7275 14.6133C40.5537 14.6846 41.3394 15.0025 41.9827 15.5259L24.0009 25.8682Z" fill="#FF793A"/>
<path d="M46.3684 18.2396C52.5571 18.2396 53.176 21.2102 53.5947 24.8347L55.2328 38.8468C55.7607 43.4428 54.3773 47.1981 48.0066 47.1981H31.6429C25.254 47.1981 23.8706 43.4428 24.4167 38.8468L25.2358 31.8407" stroke="#004ED1" stroke-width="3" stroke-linecap="round" stroke-linejoin="round"/>
<path d="M46.6406 31.9127C46.6406 31.9127 44.8143 37.1778 39.8641 37.1778C34.9139 37.1778 32.9891 31.9127 32.9891 31.9127" stroke="#004ED1" stroke-width="3" stroke-linecap="round" stroke-linejoin="round"/>
<path fill-rule="evenodd" clip-rule="evenodd" d="M63.098 34.6654L62.285 32.7634L64.1869 31.9503L65 33.8523L63.098 34.6654Z" fill="#004ED1"/>
<path fill-rule="evenodd" clip-rule="evenodd" d="M57.1085 49.5984L56.2954 47.6964L58.1974 46.8833L59.0104 48.7853L57.1085 49.5984Z" fill="#004ED1"/>
<path fill-rule="evenodd" clip-rule="evenodd" d="M63.0899 42.5427L62.2768 40.6407L64.1788 39.8277L64.9919 41.7296L63.0899 42.5427Z" fill="#004ED1"/>
<path fill-rule="evenodd" clip-rule="evenodd" d="M57.3998 29.2285L56.5867 27.3265L58.4887 26.5135L59.3018 28.4154L57.3998 29.2285Z" fill="#004ED1"/>
<path fill-rule="evenodd" clip-rule="evenodd" d="M47.8742 49.0473L47.0611 47.1454L48.9631 46.3323L49.7762 48.2343L47.8742 49.0473Z" fill="#004ED1"/>
</svg>
