<svg width="952" height="442" viewBox="0 0 952 442" fill="none" xmlns="http://www.w3.org/2000/svg">
<path d="M212.302 382.036C233.161 424.074 267.171 432.825 291.083 424.074C337.328 407.152 481.722 379.631 605.097 424.074C768.501 482.938 798.635 385.51 746.485 295.677C679.66 232.234 657.024 132.228 717.143 82.1773C777.263 32.1262 698.59 -46.1718 558.878 35.331C468.59 88.001 402.329 76.2729 366.747 61.3834C333.212 47.3505 277.074 23.8762 242.133 35.331C199.735 49.2309 191.487 94.2906 266.379 155.493C357.789 250.896 165.545 287.807 212.302 382.036Z" fill="#DEE9FF" fill-opacity="0.5"/>
<ellipse cx="467.273" cy="357.023" rx="134.938" ry="28.112" fill="#032764" fill-opacity="0.2"/>
<rect x="0.0947266" y="163.05" width="232.392" height="80" rx="40" fill="#FFF7EC"/>
<path d="M40.5947 199.614H44.5547V203.34H39.4067V204.996H44.5547V209.1H37.2287V210.792H53.1947V209.1H46.2647V204.996H51.6827V203.34H46.2647V199.614H52.0427V197.958H46.2647V194.934H44.5547V197.958H41.2067C41.4227 197.238 41.6207 196.464 41.8007 195.636L40.0547 195.33C39.4787 198.228 38.3807 200.532 36.7607 202.242L37.8767 203.664C38.9747 202.584 39.8747 201.234 40.5947 199.614ZM62.2127 194.61C62.1407 195.294 62.0147 195.924 61.8527 196.536H55.6247V198.174H61.2227C60.9347 198.732 60.5747 199.236 60.1607 199.686C59.0447 200.856 57.2447 201.756 54.7247 202.386L55.3907 203.97C57.5147 203.412 59.1707 202.692 60.3947 201.828C61.2407 202.512 62.0507 203.25 62.8067 204.042L63.9947 202.854C63.0767 202.044 62.2487 201.378 61.5107 200.838L61.5647 200.784C62.1947 200.028 62.7167 199.164 63.1127 198.174H63.1847C64.0667 200.568 66.4787 202.476 70.4387 203.916L71.3387 202.44C67.9187 201.396 65.7767 199.974 64.9127 198.174H70.4027V196.536H63.6167C63.7427 195.996 63.8507 195.42 63.9227 194.79L62.2127 194.61ZM56.4707 205.266C56.1467 206.814 55.6247 208.254 54.8867 209.586L56.3627 210.504C57.1187 209.136 57.7127 207.516 58.1447 205.644L56.4707 205.266ZM63.6887 204.582L62.1947 205.068C62.7527 205.968 63.2747 207.03 63.7607 208.236L65.3267 207.534C64.8587 206.472 64.3187 205.482 63.6887 204.582ZM69.1067 204.978L67.4687 205.5C68.2967 206.796 69.0707 208.272 69.7547 209.964L71.3207 209.262C70.6907 207.732 69.9527 206.31 69.1067 204.978ZM65.6327 211.026C66.3347 211.026 66.8567 210.864 67.1987 210.558C67.5947 210.234 67.8467 209.262 67.9907 207.606L66.3707 207.084C66.2987 208.2 66.1727 208.848 65.9927 209.046C65.8487 209.262 65.6327 209.37 65.3087 209.37H61.5647C61.0607 209.37 60.8267 209.118 60.8267 208.632V205.212H59.0987V208.974C59.0987 210.342 59.7287 211.026 61.0247 211.026H65.6327ZM73.1207 201.666V203.106H74.6687V209.046L73.1387 209.118L73.3547 210.558C75.9827 210.378 78.0167 210.162 79.4567 209.928V211.44H81.1307V203.106H89.1047V201.666H73.1207ZM76.2887 208.938V207.678H79.4567V208.578C78.5567 208.722 77.4947 208.83 76.2887 208.938ZM76.2887 206.454V205.356H79.4567V206.454H76.2887ZM76.2887 204.132V203.106H79.4567V204.132H76.2887ZM82.4447 205.374C82.7687 206.526 83.3447 207.606 84.2087 208.578C83.4167 209.19 82.4627 209.712 81.3467 210.144L82.2287 211.476C83.4347 210.99 84.4787 210.396 85.3607 209.694C86.1707 210.342 87.1427 210.954 88.2947 211.494L89.1587 210.072C88.1147 209.64 87.2147 209.154 86.4587 208.614C87.2507 207.66 87.8087 206.544 88.1327 205.284V203.952H81.8507V205.374H82.4447ZM85.2707 207.57C84.6407 206.922 84.1907 206.184 83.9027 205.374H86.5667C86.2787 206.166 85.8467 206.904 85.2707 207.57ZM86.9987 195.348H75.3167V200.928H76.9727V196.644H85.3247V200.874H86.9987V195.348ZM77.6027 197.562V198.732H84.7307V197.562H77.6027ZM77.5667 199.524V200.676H84.7667V199.524H77.5667ZM96.7547 196.77V198.426H100.553V200.676H95.8547V202.35H107.033V200.676H102.281V198.426H106.169V196.77H102.281V194.79H100.553V196.77H96.7547ZM96.5927 204.87V206.526H100.553V209.118H95.5847V210.792H107.303V209.118H102.281V206.526H106.277V204.87H102.281V202.926H100.553V204.87H96.5927ZM92.8487 201.882V211.422H94.5767V199.344C95.2967 198.102 95.8907 196.788 96.3587 195.402L94.7387 194.646C93.8567 197.418 92.4887 199.848 90.6527 201.918L91.2107 203.736C91.7867 203.124 92.3447 202.512 92.8487 201.882ZM115.025 197.256C114.881 201.486 113.891 204.366 112.091 205.914L113.441 206.976C115.403 205.176 116.465 201.936 116.645 197.256H118.949V204.186C118.949 205.356 119.561 205.95 120.785 205.95H124.583V204.42H121.271C120.803 204.42 120.587 204.204 120.587 203.772V197.256H124.997V195.636H109.157V197.256H109.913V208.56C109.913 210.036 110.579 210.792 111.929 210.792H124.961V209.208H112.433C111.857 209.208 111.569 208.92 111.569 208.344V197.256H115.025ZM127.067 195.402V196.95H129.245V198.75H127.355V211.26H128.813V210.504H133.439V211.152H134.897V198.75H132.989V196.95H135.203V195.402H127.067ZM128.813 208.992V204.87L129.497 205.464C130.307 204.582 130.721 203.178 130.739 201.234V200.226H131.513V203.34C131.513 204.204 131.909 204.654 132.719 204.654H133.439V208.992H128.813ZM129.677 200.226V201.234C129.659 202.674 129.371 203.772 128.813 204.528V200.226H129.677ZM130.631 198.75V196.95H131.603V198.75H130.631ZM133.439 203.412H133.043C132.737 203.412 132.593 203.268 132.593 203.016V200.226H133.439V203.412ZM129.407 206.04V207.498H132.881V206.04H129.407ZM143.339 206.4L141.737 205.86C141.665 207.228 141.593 208.164 141.521 208.632C141.413 209.118 141.143 209.37 140.747 209.37H138.299C137.759 209.334 137.489 208.956 137.489 208.254V202.908H142.331V195.402H135.671V196.95H140.765V201.342H135.869V208.902C135.869 210.234 136.427 210.918 137.579 210.918H140.999C141.863 210.918 142.439 210.63 142.727 210.072C142.979 209.496 143.195 208.272 143.339 206.4Z" fill="black"/>
<path d="M201.931 192.244C201.931 192.244 184.819 211.465 184.621 213.596C184.621 213.596 185.394 213.939 186.256 214.938C187.254 216.095 188.45 216.536 189.049 216.21C189.912 215.741 189.838 215.095 189.838 215.095L203.044 219.879C203.044 219.879 207.708 218.417 217.167 208.558L219.682 204.963L201.931 192.244Z" fill="#F5A75E"/>
<path d="M182.322 195.02C182.322 195.02 184.428 196.531 186.945 195.106L194.861 190.563C194.861 190.563 197.557 188.573 200.328 190.487C200.328 190.487 197.81 196.604 202.998 197.651C202.998 197.651 208.062 199.972 210.741 202.354C212.088 203.553 214.97 205.585 216.34 206.733C216.707 207.041 217.459 207.501 217.841 207.962C218.371 208.602 219.384 209.999 217.759 211.353C217.759 211.353 216.676 212.625 214.506 211.286C212.489 210.042 208.974 207.155 206.843 205.813C206.727 205.74 206.199 205.632 206.936 206.351C207.844 207.237 212.088 210.374 212.088 210.374C212.088 210.374 213.675 211.476 214.053 212.035C214.384 212.526 214.894 213.604 213.944 214.774C213.944 214.774 212.596 216.551 210.285 215.139L204.979 211.435C204.979 211.435 203.85 210.706 204.758 211.769C204.758 211.769 210.143 215.553 210.355 216.129C210.958 217.77 209.79 219.881 207.166 218.862L201.086 215.538C201.086 215.538 200.53 215.456 200.985 215.9C200.985 215.9 206.626 218.811 207.017 219.131C207.528 219.549 206.287 221.521 203.716 220.731C200.048 219.605 192.634 217.578 189.049 216.21C187.788 215.729 185.197 214.443 184.198 213.839C184.198 213.839 180.192 211.318 174.707 211.213L178.659 194.368L182.322 195.02Z" fill="#FDB190"/>
<path d="M188.449 217.345C188.449 217.345 189.607 215.815 190.324 215.262C191.776 214.139 194.397 215.227 194.525 216.603C194.525 216.603 195.09 217.954 192.746 219.948C192.313 220.316 190.937 221.191 188.924 219.537C188.924 219.537 187.723 218.433 188.449 217.345Z" fill="#F8CDA6"/>
<path d="M190.771 203.744C190.771 203.744 194.127 206.402 197.601 198.495C197.601 198.495 199.45 199.139 202.322 197.473L202.921 196.542C202.921 196.542 197.087 197.163 197.113 197.278C197.139 197.393 190.771 203.744 190.771 203.744Z" fill="#FA8B5C"/>
<path d="M193.44 220.338C193.399 219.323 194.822 217.462 195.444 216.804C196.178 216.03 199.067 215.29 199.403 218.365C199.403 218.365 199.224 220.521 197.619 221.749C196.856 222.334 193.528 222.49 193.44 220.338Z" fill="#F8CDA6"/>
<path d="M199.916 218.803C200.407 218.021 202.844 217.648 202.899 219.894C202.919 220.744 202.476 222.146 201.214 222.702C200.295 223.105 197.872 222.448 198.333 221.463C198.649 220.787 198.804 220.57 199.916 218.803Z" fill="#F8CDA6"/>
<path d="M184.143 215.34C184.354 214.875 184.704 214.428 185.403 213.865C185.826 213.525 187.014 213.393 187.728 213.839C188.241 214.159 189.252 214.91 189.025 215.578C188.594 216.847 187.864 218.567 186.282 218.07C186.282 218.07 183.198 217.415 184.143 215.34Z" fill="#F8CDA6"/>
<path d="M181.69 193.363L178.462 214.351L168.095 212.355L172.689 190.975L181.69 193.363Z" fill="#FFB000"/>
<path d="M185.284 214.633C185.284 214.633 184.777 216.071 185.677 216.675C185.677 216.675 186.835 218.065 188.269 215.769C188.507 215.387 187.973 214.712 187.027 214.459C187.027 214.459 186.131 214.114 185.284 214.633Z" fill="#E8F1FF"/>
<path d="M189.872 217.219C189.872 217.219 190.462 215.898 190.963 215.695C191.479 215.486 193.03 215.453 193.681 216.976C193.794 217.238 193.389 217.785 193.207 218.075C192.871 218.61 192.004 219.411 190.996 218.861C190.996 218.861 189.707 218.395 189.872 217.219Z" fill="#E8F1FF"/>
<path d="M195.148 218.349C195.288 217.966 195.831 217.267 196.326 217.217C197.139 217.136 199.018 217.739 198.521 218.942C198.521 218.942 198.095 219.962 197.181 220.2C197.181 220.2 195.594 220.769 195.008 219.293C194.919 219.071 195.067 218.573 195.148 218.349Z" fill="#E8F1FF"/>
<path d="M199.455 220.656C199.689 221.24 200.693 221.844 201.307 221.287C201.555 221.062 202.067 220.308 202.095 219.974C202.142 219.408 201.03 218.215 200.056 219.326C199.826 219.589 199.325 220.332 199.455 220.656Z" fill="#E8F1FF"/>
<path d="M204.224 189.943C204.224 189.943 200.832 188.873 198.237 191.478L193.888 194.141C193.888 194.141 192.033 194.756 191.459 197.238L189.484 201.345C189.484 201.345 187.888 204.164 192.542 203.778C192.542 203.778 195.207 202.652 197.322 198.374L197.307 197.828C197.307 197.828 197.608 198.502 199.146 198.231C199.146 198.231 200.733 197.682 202.929 196.954C202.929 196.954 203.286 197.388 205.395 198.547C205.395 198.547 210.553 201.245 211.752 202.684L217.93 207.387C217.93 207.387 218.89 207.003 221.276 203.292L226.602 201.399L221.015 186.157C221.015 186.157 212.509 189.488 210.011 189.737L204.224 189.943Z" fill="#F8CDA6"/>
<path d="M217.297 186.527L224.656 203.851L232.487 200.812L224.794 183.277L217.297 186.527Z" fill="#FF793A"/>
<path d="M190.465 199.305C190.465 199.305 192.335 198.597 192.886 199.891C192.886 199.891 192.318 202.199 191.679 202.71C191.185 203.106 189.545 203.268 189.223 202.424C189.223 202.424 189.02 201.554 190.465 199.305Z" fill="#E8F1FF"/>
<path d="M207.321 199.608C207.321 199.608 210.799 201.036 214.312 198.222C214.312 198.222 211.899 201.474 208.65 200.393L207.321 199.608Z" fill="#F5A75E"/>
<path d="M174.95 210.308C174.973 210.535 174.928 210.764 174.82 210.966C174.713 211.168 174.548 211.333 174.347 211.441C174.145 211.549 173.916 211.595 173.689 211.573C173.462 211.55 173.246 211.461 173.069 211.317C172.892 211.172 172.762 210.978 172.696 210.759C172.629 210.541 172.629 210.307 172.695 210.089C172.761 209.87 172.89 209.676 173.067 209.531C173.243 209.385 173.459 209.296 173.686 209.273C173.991 209.243 174.295 209.335 174.532 209.529C174.769 209.723 174.92 210.003 174.95 210.308Z" fill="white"/>
<path d="M228.696 199.125C228.719 199.352 228.673 199.581 228.566 199.783C228.458 199.984 228.294 200.15 228.092 200.258C227.891 200.365 227.662 200.411 227.435 200.389C227.207 200.367 226.992 200.278 226.815 200.133C226.638 199.989 226.508 199.795 226.442 199.576C226.375 199.358 226.375 199.124 226.441 198.906C226.507 198.687 226.636 198.493 226.813 198.348C226.989 198.202 227.205 198.113 227.432 198.09C227.583 198.075 227.735 198.09 227.881 198.134C228.026 198.178 228.161 198.25 228.278 198.346C228.396 198.442 228.493 198.56 228.565 198.694C228.636 198.828 228.681 198.974 228.696 199.125Z" fill="white"/>
<rect x="49.8096" y="25.3008" width="188" height="80" rx="40" fill="#004ED1" fill-opacity="0.06"/>
<path d="M96.9336 57.1668V62.3148H93.0636V63.9888H96.9336V71.3688H92.4336V73.0428H103.054V71.3688H98.6616V63.9888H102.64V62.3148H98.6616V57.1668H96.9336ZM89.1576 66.5808V73.6188H90.8316V66.3828C91.4616 66.8508 92.1096 67.4088 92.7576 68.0748L93.7296 66.5988C92.8656 65.8428 91.9116 65.1948 90.9036 64.6188C91.8756 63.3588 92.5776 62.0988 93.0276 60.8388V59.3988H91.1196C90.9036 58.6608 90.5976 57.8508 90.2376 56.9688L88.6176 57.4188C88.9236 58.0668 89.2116 58.7148 89.4816 59.3988H86.9436V61.0368H91.2996C90.4716 62.8728 88.8696 64.7448 86.5116 66.6708L87.0516 68.4708C87.8076 67.8588 88.5096 67.2288 89.1576 66.5808ZM106.51 57.0048C106.366 58.1568 106.222 59.2548 106.06 60.3348H104.602V61.9728H105.79C105.466 63.7368 105.124 65.3928 104.728 66.9048C105.61 67.6608 106.42 68.3808 107.14 69.0648C106.438 70.3248 105.538 71.4228 104.458 72.3408L105.556 73.6908C106.654 72.7188 107.59 71.5488 108.346 70.2168C108.832 70.7208 109.264 71.1888 109.66 71.6388L110.812 70.3068C110.344 69.8028 109.786 69.2268 109.102 68.6148C109.966 66.5268 110.452 64.0968 110.56 61.2888V60.3348H107.734C107.878 59.3628 108.022 58.3008 108.166 57.1668L106.51 57.0048ZM107.86 67.5348C107.428 67.1748 106.978 66.7968 106.51 66.4188C106.834 65.2308 107.158 63.7368 107.464 61.9728H108.976C108.85 64.0608 108.472 65.9148 107.86 67.5348ZM117.58 64.0788H113.98V62.8008H117.58V64.0788ZM113.98 61.3788V60.1008H117.58V61.3788H113.98ZM113.98 58.5888V57.0768H112.36V58.5888H110.83V60.1008H112.36V65.5368H114.934V66.8508H110.524V68.3988H113.602C112.828 69.5868 111.694 70.5768 110.2 71.3688L111.154 72.9168C112.846 71.7288 114.088 70.2168 114.88 68.3988H114.934V73.5648H116.644V68.3988H116.842C117.49 70.0548 118.588 71.5488 120.118 72.9168L121.288 71.4588C119.848 70.5588 118.768 69.5328 118.084 68.3988H121.072V66.8508H116.644V65.5368H119.218V60.1008H120.676V58.5888H119.218V57.0768H117.58V58.5888H113.98ZM124.366 57.1308L123.178 58.2648C124.402 59.1468 125.356 59.9568 126.04 60.7128L127.228 59.5248C126.436 58.7148 125.482 57.9228 124.366 57.1308ZM122.764 61.4328V62.9808H125.248C124.69 63.8448 123.988 64.7628 123.16 65.6988V66.9948H126.148C125.86 67.9848 125.482 68.8848 124.978 69.7128C124.186 69.8928 123.376 70.8108 122.512 72.5028L123.718 73.6188C124.474 72.1068 125.014 71.3508 125.356 71.3508C125.518 71.3508 125.662 71.4048 125.77 71.5308C126.382 72.1068 127.084 72.5388 127.84 72.8268C128.488 73.0608 129.424 73.1868 130.648 73.2228C131.818 73.2588 133.042 73.2948 134.32 73.2948H138.748L139.126 71.6748C137.056 71.7648 135.382 71.8188 134.086 71.8188C132.826 71.8188 131.692 71.8008 130.72 71.7828C129.712 71.7468 128.956 71.6388 128.416 71.4408C127.876 71.2248 127.318 70.8648 126.742 70.3608C126.634 70.2708 126.544 70.1808 126.436 70.1088C126.976 69.2088 127.426 68.0748 127.786 66.6888V65.5548H125.14C125.896 64.6368 126.544 63.7008 127.102 62.7648V61.4328H122.764ZM129.136 57.9228V59.5068H137.614V57.9228H129.136ZM128.002 61.9908V63.6108H131.62C130.252 66.8688 129.208 68.6148 128.488 68.8308L128.92 70.3068C132.052 69.9828 134.608 69.5868 136.57 69.1008C136.75 69.6048 136.93 70.1088 137.11 70.6488L138.64 70.2528C137.902 68.1288 137.056 66.2568 136.12 64.6188L134.734 65.0688C135.166 65.8788 135.58 66.7248 135.976 67.6248C134.572 67.9848 132.88 68.2728 130.864 68.5248C131.638 67.3908 132.466 65.7528 133.33 63.6108H138.91V61.9908H128.002ZM144.184 63.5568V67.4088H153.526V63.5568H144.184ZM151.96 66.1488H145.768V64.8528H151.96V66.1488ZM155.218 68.3808H142.564V73.6728H144.238V72.9708H153.562V73.6728H155.218V68.3808ZM144.238 71.5488V69.7848H153.562V71.5488H144.238ZM141.016 58.1568V59.6508H144.922V60.5688H146.614V59.6508H151.006V60.5688H152.698V59.6508H156.604V58.1568H152.698V57.0768H151.006V58.1568H146.614V57.0768H144.922V58.1568H141.016ZM156.244 61.1268H141.376V64.7988H143.014V62.5668H154.606V64.7088H156.244V61.1268Z" fill="black"/>
<path d="M217.359 65.2991L216.507 69.8727L212.45 91.6135L205.141 90.2488L209.827 65.1343L210.05 63.9375L217.359 65.2991Z" fill="#699CFF"/>
<path d="M235.359 54.3616L232.839 67.8732C232.831 67.9128 232.816 67.9506 232.794 67.9843C232.772 68.0181 232.744 68.0472 232.711 68.07C232.677 68.0927 232.64 68.1087 232.601 68.1171C232.561 68.1254 232.521 68.1258 232.481 68.1184L197.073 61.5145L201.241 39.1699L228.128 44.1847C233.001 45.0934 236.238 49.6489 235.359 54.3616Z" fill="#A2BDFF"/>
<path d="M208.803 49.8275L206.302 63.2343L187.717 59.7679L190.217 46.3611C191.138 41.4249 196.045 38.1993 201.177 39.1565C206.309 40.1137 209.724 44.8913 208.803 49.8275Z" fill="#699CFF"/>
<path d="M217.455 56.0946C216.085 55.8391 215.182 54.508 215.439 53.1257C215.697 51.7434 217.02 50.8272 218.39 51.0828C218.826 51.1648 219.233 51.361 219.569 51.6514C219.906 51.9418 220.159 52.3161 220.303 52.7361L237.604 55.9628L237.137 58.4688L219.836 55.2421C219.55 55.5818 219.179 55.8397 218.76 55.9894C218.342 56.1391 217.892 56.1754 217.455 56.0946Z" fill="#FF793A"/>
<path d="M208.187 50.0738L205.751 63.136L188.242 59.8705L190.679 46.8083C191.576 41.999 196.222 38.8312 201.057 39.7329C205.892 40.6347 209.084 45.2645 208.187 50.0738Z" fill="#1666ED"/>
<path d="M217.945 54.829C218.649 54.829 219.22 54.2583 219.22 53.5544C219.22 52.8504 218.649 52.2798 217.945 52.2798C217.242 52.2798 216.671 52.8504 216.671 53.5544C216.671 54.2583 217.242 54.829 217.945 54.829Z" fill="white"/>
<path d="M237.805 55.954L236.276 64.1478C236.27 64.1831 236.25 64.2143 236.22 64.2346C236.19 64.2549 236.154 64.2626 236.119 64.256L232.101 63.5067C232.094 63.5054 232.088 63.5014 232.084 63.4956C232.08 63.4897 232.079 63.4825 232.08 63.4756L233.628 55.175C233.629 55.1681 233.633 55.1619 233.639 55.1579C233.645 55.1539 233.652 55.1524 233.659 55.1537L237.783 55.9228C237.79 55.9241 237.796 55.9282 237.8 55.934C237.804 55.9398 237.806 55.947 237.805 55.954Z" fill="#FFB000"/>
<path d="M194.036 55.1832C194.205 56.4276 195.57 57.9068 195.57 57.9068C193.49 58.0543 192.363 56.8775 191.878 56.1625C191.278 56.3357 190.662 56.445 190.04 56.4887C185.768 56.7915 182.09 54.0025 181.825 50.2562C181.559 46.5099 184.807 43.23 189.078 42.9273C193.35 42.6245 197.028 45.4134 197.293 49.1597C197.466 51.5966 196.151 53.8364 194.036 55.1832Z" fill="white"/>
<path d="M206.32 63.2425C206.126 63.7322 202.589 78.3192 191.141 76.1841C178.588 74.0588 187.668 59.7637 187.668 59.7637L206.32 63.2425Z" fill="#A2BDFF"/>
<path d="M189.558 50.9929C190.145 50.9929 190.62 50.5174 190.62 49.9308C190.62 49.3442 190.145 48.8687 189.558 48.8687C188.972 48.8687 188.496 49.3442 188.496 49.9308C188.496 50.5174 188.972 50.9929 189.558 50.9929Z" fill="#FF793A"/>
<path d="M184.804 50.5297C185.394 50.5297 185.872 50.0513 185.872 49.4611C185.872 48.871 185.394 48.3926 184.804 48.3926C184.214 48.3926 183.735 48.871 183.735 49.4611C183.735 50.0513 184.214 50.5297 184.804 50.5297Z" fill="#FF793A"/>
<path d="M194.268 51.4457C194.858 51.4457 195.336 50.9673 195.336 50.3771C195.336 49.787 194.858 49.3086 194.268 49.3086C193.678 49.3086 193.199 49.787 193.199 50.3771C193.199 50.9673 193.678 51.4457 194.268 51.4457Z" fill="#FF793A"/>
<path d="M217.359 65.2991L216.507 69.8727L209.827 65.1343L210.05 63.9375L217.359 65.2991Z" fill="#1B77F9"/>
<rect x="29.0947" y="319.071" width="214" height="80" rx="40" fill="#B9FFD1" fill-opacity="0.2"/>
<path d="M69.0907 344.629V345.583H73.2307V348.301H68.1547V349.957H73.2307V352.747H66.6427V354.421H81.6547V352.747H74.9587V349.957H80.0167V348.301H74.9587V345.583H79.0087V344.431C79.7107 344.809 80.4667 345.169 81.2947 345.493L82.4467 343.927C78.8827 342.631 76.3807 340.903 74.9407 338.743H69.3247V340.309H72.4207C70.9447 341.857 68.6947 343.135 65.7067 344.161L66.6967 345.763C67.5427 345.403 68.3347 345.025 69.0907 344.629ZM78.1627 343.945H70.2607C71.8627 342.937 73.1407 341.785 74.1127 340.489C75.1567 341.785 76.5067 342.937 78.1627 343.945ZM85.9027 338.365L85.0567 339.625C86.1727 340.039 87.2347 340.615 88.2787 341.353L89.1427 340.075C88.1707 339.409 87.0907 338.833 85.9027 338.365ZM85.0747 340.993L84.2287 342.289C85.1287 342.631 86.0287 343.099 86.8927 343.711L87.7567 342.379C86.9287 341.839 86.0467 341.371 85.0747 340.993ZM88.0627 343.441C86.9287 344.737 85.6507 345.853 84.2467 346.807L85.4167 348.121C86.7667 347.131 88.0627 345.889 89.3227 344.377L88.0627 343.441ZM89.4307 338.905V340.291H90.1327V346.015H89.1967V347.401H99.7087V346.015H91.7707V344.953H98.7187V341.335H91.7707V340.291H99.7087V338.905H89.4307ZM91.7707 343.657V342.631H97.1167V343.657H91.7707ZM84.2107 348.913V350.425H89.6647C88.5127 351.433 86.5687 352.333 83.8327 353.161L84.8227 354.781C87.9187 353.557 90.0427 352.117 91.1947 350.425H91.3027V354.943H92.9587V350.425H93.0667C94.3627 352.153 96.5407 353.539 99.6007 354.619L100.411 352.945C97.8547 352.315 95.9287 351.469 94.6327 350.425H100.033V348.913H92.9587V347.851H91.3027V348.913H84.2107ZM106.981 340.219V341.749H111.319C111.211 342.145 111.085 342.523 110.941 342.901H108.313V351.901H116.899V342.901H112.777C112.921 342.541 113.065 342.145 113.173 341.749H118.159V340.219H115.369C115.693 339.787 116.017 339.319 116.305 338.779L114.685 338.221C114.343 338.905 113.947 339.571 113.497 340.219H111.463C111.121 339.463 110.743 338.815 110.347 338.257L108.763 338.851C109.123 339.283 109.429 339.733 109.699 340.219H106.981ZM115.315 350.425H109.897V349.237H115.315V350.425ZM109.897 347.923V346.825H115.315V347.923H109.897ZM109.897 345.493V344.377H115.315V345.493H109.897ZM103.561 338.419L102.427 339.481C103.615 340.417 104.533 341.281 105.181 342.091L106.297 340.975C105.541 340.111 104.623 339.265 103.561 338.419ZM102.049 342.703V344.251H104.497C103.921 345.115 103.219 346.033 102.373 346.969V348.265H104.983C104.767 349.255 104.497 350.155 104.155 350.983C103.399 351.271 102.607 352.189 101.779 353.773L103.021 354.907C103.813 353.323 104.389 352.549 104.749 352.549C104.893 352.549 105.037 352.603 105.181 352.747C105.793 353.359 106.477 353.827 107.233 354.133C107.845 354.385 108.781 354.529 110.023 354.565C111.175 354.601 112.399 354.637 113.659 354.637H118.033L118.411 353.017C116.377 353.089 114.721 353.143 113.461 353.143C112.201 353.143 111.067 353.125 110.095 353.107C109.087 353.089 108.331 352.981 107.791 352.765C107.251 352.531 106.711 352.153 106.135 351.613C105.991 351.487 105.865 351.379 105.721 351.271C106.045 350.389 106.333 349.291 106.585 347.959V346.825H104.407C105.163 345.907 105.811 344.971 106.387 344.035V342.703H102.049ZM123.469 344.827V348.679H132.811V344.827H123.469ZM131.245 347.419H125.053V346.123H131.245V347.419ZM134.503 349.651H121.849V354.943H123.523V354.241H132.847V354.943H134.503V349.651ZM123.523 352.819V351.055H132.847V352.819H123.523ZM120.301 339.427V340.921H124.207V341.839H125.899V340.921H130.291V341.839H131.983V340.921H135.889V339.427H131.983V338.347H130.291V339.427H125.899V338.347H124.207V339.427H120.301ZM135.529 342.397H120.661V346.069H122.299V343.837H133.891V345.979H135.529V342.397ZM148.687 338.365V343.207H145.321V354.853H147.031V351.001H151.999V352.387C151.999 352.963 151.783 353.269 151.369 353.269L149.731 353.179L150.181 354.817H151.927C153.115 354.817 153.709 354.133 153.709 352.765V343.207H150.361V338.365H148.687ZM147.031 347.923H151.999V349.561H147.031V347.923ZM151.999 346.465H147.031V344.827H151.999V346.465ZM146.293 339.049L144.853 339.751C145.447 340.615 145.987 341.587 146.491 342.703L147.877 342.001C147.373 340.921 146.833 339.949 146.293 339.049ZM152.755 338.869C152.341 339.895 151.783 340.939 151.099 341.983L152.485 342.703C153.169 341.677 153.745 340.615 154.177 339.535L152.755 338.869ZM140.011 338.347C139.543 340.435 138.769 342.397 137.653 344.197L139.039 345.079C139.255 344.719 139.453 344.359 139.669 343.981V345.385H140.623V347.239H138.283V348.823H140.623V352.387C140.623 352.675 140.407 352.909 139.975 353.071L140.677 354.529C142.261 354.115 143.647 353.593 144.853 352.945L144.565 351.433C143.809 351.883 143.035 352.261 142.279 352.549V348.823H144.619V347.239H142.279V345.385H144.007V343.855H139.723C140.047 343.225 140.371 342.541 140.659 341.821H144.313V340.201H141.235C141.379 339.715 141.523 339.211 141.667 338.689L140.011 338.347ZM73.4914 364.967C72.1234 364.967 70.9894 365.273 70.0894 365.885C69.1354 366.533 68.6674 367.415 68.6674 368.549C68.6674 369.665 69.1534 370.529 70.1434 371.123C70.5394 371.339 71.5114 371.681 73.0954 372.185C74.5174 372.617 75.3634 372.905 75.6514 373.049C76.4614 373.463 76.8754 374.021 76.8754 374.741C76.8754 375.317 76.5874 375.767 76.0114 376.091C75.4354 376.415 74.6614 376.595 73.6894 376.595C72.6094 376.595 71.8174 376.397 71.2954 376.001C70.7194 375.569 70.3594 374.831 70.2154 373.823H68.2714C68.3794 375.443 68.9554 376.631 70.0174 377.387C70.8994 377.999 72.1234 378.323 73.6894 378.323C75.3094 378.323 76.5694 377.999 77.4694 377.351C78.3694 376.685 78.8194 375.785 78.8194 374.633C78.8194 373.445 78.2614 372.527 77.1634 371.861C76.6594 371.555 75.5254 371.141 73.7974 370.601C72.5914 370.241 71.8534 369.971 71.5654 369.809C70.9174 369.467 70.6114 369.017 70.6114 368.441C70.6114 367.793 70.8814 367.325 71.4394 367.037C71.8894 366.785 72.5374 366.659 73.3834 366.659C74.3554 366.659 75.0754 366.839 75.5794 367.217C76.0834 367.577 76.4074 368.189 76.5874 369.017H78.5314C78.4054 367.613 77.9014 366.587 77.0014 365.921C76.1554 365.273 74.9854 364.967 73.4914 364.967ZM80.6457 365.219V378.071H90.1857V376.397H82.6077V372.311H89.4477V370.637H82.6077V366.893H89.8797V365.219H80.6457ZM97.865 364.967C95.903 364.967 94.355 365.597 93.239 366.893C92.159 368.117 91.637 369.701 91.637 371.663C91.637 373.607 92.159 375.191 93.239 376.415C94.355 377.675 95.903 378.323 97.865 378.323C99.809 378.323 101.357 377.693 102.491 376.433C103.571 375.209 104.111 373.625 104.111 371.663C104.111 369.683 103.571 368.081 102.491 366.875C101.357 365.597 99.809 364.967 97.865 364.967ZM97.865 366.695C99.233 366.695 100.295 367.127 101.033 368.027C101.753 368.909 102.131 370.115 102.131 371.663C102.131 373.193 101.753 374.399 101.033 375.263C100.295 376.145 99.233 376.595 97.865 376.595C96.497 376.595 95.435 376.127 94.679 375.227C93.959 374.345 93.599 373.157 93.599 371.663C93.599 370.151 93.959 368.963 94.679 368.081C95.435 367.145 96.497 366.695 97.865 366.695ZM109.501 368.873V372.617H105.739V374.201H109.501V377.963H111.085V374.201H114.829V372.617H111.085V368.873H109.501ZM121.497 364.967C120.129 364.967 118.995 365.273 118.095 365.885C117.141 366.533 116.673 367.415 116.673 368.549C116.673 369.665 117.159 370.529 118.149 371.123C118.545 371.339 119.517 371.681 121.101 372.185C122.523 372.617 123.369 372.905 123.657 373.049C124.467 373.463 124.881 374.021 124.881 374.741C124.881 375.317 124.593 375.767 124.017 376.091C123.441 376.415 122.667 376.595 121.695 376.595C120.615 376.595 119.823 376.397 119.301 376.001C118.725 375.569 118.365 374.831 118.221 373.823H116.277C116.385 375.443 116.961 376.631 118.023 377.387C118.905 377.999 120.129 378.323 121.695 378.323C123.315 378.323 124.575 377.999 125.475 377.351C126.375 376.685 126.825 375.785 126.825 374.633C126.825 373.445 126.267 372.527 125.169 371.861C124.665 371.555 123.531 371.141 121.803 370.601C120.597 370.241 119.859 369.971 119.571 369.809C118.923 369.467 118.617 369.017 118.617 368.441C118.617 367.793 118.887 367.325 119.445 367.037C119.895 366.785 120.543 366.659 121.389 366.659C122.361 366.659 123.081 366.839 123.585 367.217C124.089 367.577 124.413 368.189 124.593 369.017H126.537C126.411 367.613 125.907 366.587 125.007 365.921C124.161 365.273 122.991 364.967 121.497 364.967ZM128.652 365.219V378.071H138.192V376.397H130.614V372.311H137.454V370.637H130.614V366.893H137.886V365.219H128.652ZM140.183 365.219V378.071H142.145V368.891H142.217L146.159 378.071H147.851L151.793 368.891H151.865V378.071H153.827V365.219H151.505L147.041 375.515H146.987L142.505 365.219H140.183Z" fill="black"/>
<path d="M223.1 357.41C223.1 357.41 234.92 356.643 235.841 344.976C234.766 344.209 233.231 339.604 235.841 339.143C238.45 338.683 240.292 339.143 240.292 339.143C240.292 339.143 245.051 342.827 239.064 345.59C238.911 347.125 238.757 360.787 226.477 366.774C214.197 372.761 223.1 357.41 223.1 357.41Z" fill="#17A4C2"/>
<path d="M242.619 331.65L237.88 330.787C237.617 330.739 237.365 330.913 237.318 331.176L235.61 340.547C235.562 340.809 235.736 341.061 235.999 341.109L240.738 341.973C241.001 342.021 241.253 341.846 241.301 341.584L243.008 332.213C243.056 331.95 242.882 331.698 242.619 331.65Z" fill="#FF793A"/>
<path d="M229.043 365.878C229.043 372.38 226.164 378.213 221.608 382.174C217.686 385.577 212.666 387.449 207.473 387.442C199.804 387.442 193.074 383.445 189.249 377.415C187.185 374.153 186.035 370.396 185.917 366.538C185.8 362.679 186.72 358.86 188.581 355.478C190.443 352.096 193.178 349.276 196.501 347.311C199.823 345.346 203.613 344.309 207.473 344.307C217.475 344.307 225.894 351.117 228.325 360.358C228.805 362.158 229.047 364.014 229.043 365.878Z" fill="#5DD3CC"/>
<path d="M221.609 382.174C217.687 385.578 212.667 387.449 207.474 387.442C199.805 387.442 193.075 383.445 189.25 377.415C192.615 374.658 194.512 374.953 195.777 375.426C197.159 375.948 197.926 378.287 201.917 375.984C205.908 373.682 209.132 379.208 210.667 380.129C216.807 379.687 220.006 380.995 221.609 382.174Z" fill="#39B7D2"/>
<path d="M228.326 360.357C219.207 362.519 219.852 357.33 218.956 354.187C218.035 350.963 217.421 352.038 211.741 356.489C206.061 360.941 205.447 353.726 205.343 352.498C205.232 351.27 204.987 350.81 202.07 351.172C199.154 351.534 198.386 349.275 195.93 350.81C194.911 351.448 193.523 351.16 192.252 350.601C194.25 348.601 196.623 347.016 199.235 345.936C201.847 344.856 204.647 344.302 207.473 344.307C217.476 344.307 225.894 351.117 228.326 360.357Z" fill="#39B7D2"/>
<path d="M189.158 342.686C189.06 343.019 189.062 343.375 189.165 343.707C189.268 344.039 189.467 344.333 189.738 344.552C190.008 344.77 190.337 344.904 190.683 344.936C191.029 344.968 191.377 344.896 191.683 344.73C191.988 344.564 192.238 344.311 192.4 344.004C192.562 343.696 192.629 343.347 192.592 343.001C192.556 342.656 192.418 342.328 192.196 342.061C191.973 341.794 191.677 341.598 191.343 341.5C190.896 341.367 190.415 341.418 190.005 341.64C189.595 341.863 189.291 342.239 189.158 342.686Z" fill="#FFB000"/>
<path d="M188.256 338.419C187.628 338.757 187.075 339.216 186.626 339.77C186.178 340.324 185.844 340.961 185.644 341.645C185.605 341.775 185.592 341.911 185.606 342.046C185.62 342.18 185.66 342.311 185.724 342.43C185.789 342.549 185.876 342.654 185.981 342.74C186.087 342.825 186.207 342.889 186.337 342.927C186.467 342.966 186.603 342.978 186.738 342.964C186.873 342.95 187.003 342.909 187.122 342.844C187.241 342.779 187.346 342.691 187.431 342.586C187.516 342.48 187.579 342.359 187.617 342.229C187.743 341.805 187.95 341.411 188.228 341.067C188.506 340.724 188.849 340.438 189.238 340.227C189.626 340.016 190.052 339.884 190.492 339.838C190.931 339.792 191.375 339.833 191.799 339.958C191.929 339.997 192.065 340.01 192.2 339.996C192.335 339.982 192.465 339.942 192.584 339.878C192.703 339.813 192.809 339.726 192.894 339.621C192.979 339.516 193.043 339.395 193.082 339.265C193.12 339.135 193.132 338.999 193.118 338.864C193.104 338.729 193.063 338.599 192.998 338.48C192.933 338.361 192.846 338.256 192.74 338.171C192.635 338.086 192.513 338.023 192.383 337.985C191.701 337.781 190.985 337.714 190.276 337.788C189.567 337.863 188.881 338.077 188.256 338.419Z" fill="#FFB000"/>
<path d="M186.638 335.441C185.619 335.991 184.719 336.737 183.991 337.637C183.262 338.537 182.72 339.572 182.394 340.683C182.316 340.945 182.346 341.226 182.476 341.466C182.607 341.706 182.827 341.884 183.088 341.962C183.35 342.039 183.632 342.009 183.871 341.879C184.111 341.749 184.29 341.529 184.367 341.267C184.619 340.417 185.036 339.624 185.594 338.935C186.152 338.246 186.84 337.673 187.62 337.25C188.399 336.826 189.254 336.561 190.136 336.468C191.018 336.375 191.91 336.457 192.76 336.709C192.89 336.748 193.026 336.761 193.161 336.747C193.296 336.733 193.426 336.693 193.546 336.629C193.665 336.564 193.77 336.477 193.855 336.372C193.941 336.267 194.004 336.146 194.043 336.016C194.081 335.886 194.094 335.75 194.079 335.615C194.065 335.48 194.024 335.35 193.959 335.231C193.895 335.112 193.807 335.007 193.701 334.922C193.596 334.837 193.475 334.774 193.345 334.736C192.236 334.404 191.072 334.296 189.921 334.417C188.769 334.538 187.654 334.886 186.638 335.441Z" fill="#FFB000"/>
<path d="M194.309 331.48C192.772 331.025 191.161 330.877 189.566 331.044C187.972 331.212 186.426 331.692 185.017 332.457C183.608 333.222 182.364 334.257 181.355 335.503C180.347 336.749 179.593 338.182 179.138 339.719C179.099 339.849 179.086 339.985 179.1 340.12C179.114 340.254 179.154 340.385 179.219 340.504C179.283 340.623 179.37 340.729 179.475 340.814C179.581 340.899 179.702 340.963 179.832 341.002C179.961 341.04 180.098 341.052 180.232 341.038C180.367 341.024 180.497 340.983 180.616 340.918C180.735 340.853 180.84 340.766 180.925 340.66C181.01 340.555 181.073 340.433 181.111 340.303C181.49 339.025 182.116 337.834 182.955 336.798C183.793 335.763 184.828 334.902 185.999 334.266C187.17 333.63 188.456 333.231 189.781 333.091C191.107 332.952 192.447 333.075 193.725 333.454C193.986 333.53 194.267 333.499 194.506 333.369C194.744 333.239 194.922 333.019 194.999 332.758C195.077 332.497 195.047 332.216 194.918 331.977C194.789 331.737 194.57 331.559 194.309 331.48Z" fill="#FFB000"/>
<path d="M527.157 140.926H416.489L348.859 212.655H586.864L527.157 140.926Z" fill="#0C3D91"/>
<path d="M527.156 140.926L527.156 212.655H586.864L527.156 140.926Z" fill="#0E49AC"/>
<path d="M416.489 140.926L348.859 212.655H416.489V140.926Z" fill="#0D3374"/>
<path d="M371.401 112.235L416.488 140.927L348.858 212.655L297.623 173.717L371.401 112.235Z" fill="#2F72F5"/>
<path d="M572.241 112.235L527.154 140.927L586.862 212.655L646.019 173.717L572.241 112.235Z" fill="#6297FF"/>
<path d="M531.352 226.103C531.551 227.67 531.653 229.248 531.659 230.827C531.772 252.541 514.5 270.15 493.071 270.166C471.649 270.183 454.185 252.602 454.072 230.888C454.064 229.503 454.132 228.136 454.257 226.793C437.016 218.718 434.499 198.029 437.084 195.258C439.694 192.454 443.287 193.852 444.008 200.287C445.2 209.608 452.099 216.331 455.774 219.148C460.617 203.169 475.271 191.561 492.66 191.548C509.535 191.534 523.942 202.439 529.363 217.672C532.236 216.033 537.099 211.876 539.937 201.889C540.242 199.942 540.185 198.558 540.081 197.736C539.976 196.969 540.148 196.191 540.566 195.545C541.355 194.37 542.872 193.009 545.338 194.3C545.899 194.595 546.382 195.021 546.748 195.543C547.114 196.066 547.351 196.669 547.44 197.302C548.136 202.328 546.216 215.158 531.352 226.103Z" fill="#FAB825"/>
<path d="M510.327 222.635C510.406 229 502.993 234.108 493.778 234.045C484.554 233.983 477.016 228.774 476.937 222.409C476.927 221.223 477.169 220.055 477.647 218.992C477.778 218.704 478.01 218.482 478.294 218.372C478.578 218.263 478.893 218.273 479.174 218.402C482.739 220 488.131 221.035 494.161 221.075C499.71 221.113 504.703 220.296 508.213 218.959C508.499 218.85 508.816 218.862 509.098 218.992C509.38 219.123 509.606 219.363 509.728 219.662C510.11 220.605 510.314 221.615 510.327 222.635Z" fill="white"/>
<path d="M462.829 227.805C459.642 233.913 458.838 237.159 449.171 243.22C449.096 243.269 449.039 243.342 449.011 243.427C447.467 248.215 444.852 252.588 441.366 256.216C441.319 256.264 441.286 256.324 441.271 256.39C441.255 256.455 441.257 256.524 441.277 256.588C442.359 260.189 443.531 266.681 440.272 272.003C435.483 279.837 431.936 275.107 432.674 273.333C433.307 271.814 438.711 268.55 437.464 260.396C437.453 260.331 437.426 260.27 437.385 260.218C437.344 260.166 437.29 260.126 437.229 260.101C437.168 260.076 437.101 260.067 437.036 260.075C436.97 260.084 436.908 260.109 436.855 260.148C432.938 262.991 428.442 264.935 423.687 265.842C423.634 265.851 423.584 265.87 423.539 265.9C423.495 265.93 423.457 265.968 423.429 266.014C423.4 266.059 423.382 266.11 423.374 266.163C423.367 266.216 423.371 266.27 423.386 266.321C424.598 270.661 425.171 277.443 420.11 283.681C417.408 286.933 413.825 282.179 417.408 278.939C419.631 276.935 419.46 271.17 418.419 266.729C418.399 266.643 418.35 266.566 418.28 266.513C418.21 266.459 418.123 266.431 418.035 266.434C417.828 266.439 417.615 266.439 417.408 266.439C410.095 266.45 402.984 264.034 397.192 259.568C397.139 259.527 397.077 259.5 397.01 259.49C396.943 259.481 396.876 259.488 396.813 259.513C396.75 259.537 396.695 259.578 396.653 259.63C396.61 259.682 396.582 259.744 396.572 259.811C395.182 268.987 400.699 272.162 401.485 274.516C402.36 277.147 400.35 279.488 397.872 278.826C397.819 278.81 397.768 278.784 397.725 278.749C389.648 272.683 390.351 259.97 391.238 253.851C391.246 253.801 391.244 253.75 391.23 253.701C391.217 253.652 391.194 253.606 391.161 253.567C386.645 247.755 384.199 240.6 384.214 233.239C384.214 219.74 392.273 208.122 403.844 202.937C403.845 202.937 403.846 202.936 403.846 202.936C403.847 202.936 403.848 202.935 403.848 202.935C403.849 202.934 403.849 202.934 403.85 202.933C403.85 202.932 403.85 202.932 403.85 202.931C405.63 200.678 407.8 197.491 408.131 195.256C408.142 195.18 408.175 195.11 408.226 195.053C408.278 194.996 408.345 194.956 408.419 194.938C408.493 194.919 408.571 194.923 408.643 194.949C408.715 194.976 408.778 195.023 408.823 195.085C409.674 196.232 410.993 198.419 410.703 200.725C410.691 200.802 410.685 200.879 410.673 200.956C410.65 201.086 410.62 201.21 410.591 201.34C410.561 201.441 410.537 201.541 410.502 201.642C410.915 201.297 411.31 200.93 411.684 200.542C412.553 199.649 413.653 198.307 414.126 196.87C414.148 196.794 414.194 196.726 414.256 196.676C414.319 196.626 414.395 196.597 414.475 196.593C414.555 196.588 414.634 196.609 414.702 196.651C414.769 196.693 414.822 196.756 414.853 196.829C415.16 197.586 415.521 198.644 415.645 199.726C415.656 199.823 415.703 199.913 415.776 199.978C415.849 200.042 415.944 200.077 416.041 200.075C416.497 200.058 416.952 200.046 417.407 200.046C435.742 200.046 450.607 214.91 450.607 233.24C450.607 233.659 450.601 234.073 450.583 234.487C450.581 234.55 450.594 234.613 450.621 234.67C450.648 234.727 450.689 234.777 450.739 234.815C450.79 234.853 450.849 234.878 450.911 234.888C450.974 234.897 451.038 234.892 451.098 234.871C453.073 234.18 455.562 232.512 457.064 228.545C459.872 221.154 460.168 219.085 459.281 213.32C458.394 207.555 462.681 207.851 463.568 209.772C464.454 211.693 466.377 221.006 462.829 227.805Z" fill="#FF793A"/>
<path d="M401.53 230.735C401.417 230.735 401.307 230.697 401.218 230.628C401.128 230.559 401.064 230.462 401.036 230.353C400.813 229.379 400.765 228.373 400.894 227.383C401.185 225.23 402.357 223.647 404.282 222.806C405.541 222.257 406.73 222.225 407.818 222.713C410.046 223.711 410.995 226.544 411.035 226.664C411.073 226.792 411.059 226.93 410.997 227.048C410.936 227.166 410.83 227.255 410.703 227.297C410.576 227.338 410.438 227.329 410.319 227.27C410.199 227.211 410.107 227.108 410.062 226.983C410.054 226.958 409.21 224.456 407.396 223.646C406.583 223.283 405.674 223.316 404.693 223.745C403.099 224.441 402.164 225.701 401.914 227.49C401.799 228.358 401.838 229.239 402.027 230.094C402.061 230.226 402.042 230.365 401.973 230.482C401.904 230.599 401.792 230.684 401.66 230.719C401.618 230.73 401.574 230.735 401.53 230.735Z" fill="white"/>
<path d="M416.969 226.045C416.861 226.045 416.757 226.011 416.67 225.948C416.583 225.886 416.518 225.797 416.484 225.695C416.198 224.742 416.085 223.746 416.15 222.753C416.301 220.594 417.367 218.946 419.235 217.985C420.457 217.356 421.644 217.248 422.762 217.664C425.046 218.514 426.175 221.261 426.222 221.378C426.271 221.503 426.268 221.643 426.215 221.767C426.162 221.891 426.061 221.989 425.936 222.04C425.811 222.09 425.671 222.089 425.546 222.037C425.422 221.984 425.323 221.885 425.272 221.76C425.261 221.737 424.26 219.312 422.401 218.623C421.565 218.313 420.657 218.404 419.703 218.896C418.159 219.69 417.308 221.002 417.174 222.794C417.116 223.663 417.211 224.535 417.455 225.371C417.481 225.448 417.487 225.53 417.475 225.61C417.463 225.69 417.431 225.767 417.384 225.832C417.337 225.898 417.274 225.951 417.202 225.988C417.13 226.025 417.05 226.045 416.969 226.045H416.969Z" fill="white"/>
<path d="M413.239 241.162C407.479 241.419 405.55 236.894 405.333 236.716C405.252 236.648 405.184 236.564 405.133 236.47C405.083 236.376 405.051 236.272 405.04 236.165C405.029 236.058 405.039 235.95 405.068 235.847C405.098 235.744 405.148 235.648 405.214 235.565C405.28 235.481 405.361 235.412 405.454 235.361C405.546 235.31 405.647 235.278 405.752 235.267C405.856 235.255 405.962 235.265 406.063 235.296C406.164 235.327 406.258 235.377 406.34 235.445C406.397 235.491 410.872 236.369 416.959 234.208C423.017 232.057 425.566 227.751 425.579 227.67C425.614 227.458 425.73 227.268 425.901 227.143C426.072 227.018 426.285 226.966 426.493 227C426.702 227.034 426.888 227.151 427.013 227.324C427.138 227.498 427.134 227.67 427.161 227.928C427.295 229.214 427.597 232.013 426.592 234.134C424.987 237.522 421.764 239.429 418.861 240.459C416.881 241.162 414.398 241.11 413.239 241.162Z" fill="white"/>
<path d="M349.203 212.246H586.75V349.456C586.75 358.293 579.586 365.456 570.75 365.456H365.203C356.367 365.456 349.203 358.293 349.203 349.456V212.246Z" fill="#004ED1"/>
<path d="M445.563 125.702C446.835 125.099 447.825 124.027 448.326 122.711C448.826 121.395 448.799 119.936 448.249 118.64L427.967 70.8136C427.679 70.1362 427.258 69.5238 426.728 69.0134C426.198 68.503 425.57 68.105 424.883 67.8434C424.195 67.5818 423.461 67.4619 422.726 67.4911C421.991 67.5203 421.269 67.6978 420.604 68.0131L416.697 69.866C416.032 70.1812 415.437 70.6277 414.949 71.1785C414.462 71.7293 414.09 72.373 413.857 73.0711C413.625 73.7691 413.535 74.507 413.595 75.2404C413.655 75.9738 413.862 76.6875 414.205 77.3387L438.395 123.312C439.051 124.558 440.163 125.503 441.498 125.948C442.834 126.393 444.29 126.305 445.563 125.702Z" fill="#FF793A"/>
<path d="M470.992 121.065C471.913 121 472.773 120.581 473.392 119.896C474.011 119.212 474.342 118.314 474.315 117.391L473.313 83.3432C473.299 82.8609 473.188 82.3865 472.985 81.9484C472.783 81.5103 472.494 81.1177 472.136 80.7941C471.779 80.4704 471.359 80.2225 470.903 80.0652C470.447 79.9079 469.964 79.8444 469.482 79.8786L466.653 80.0802C466.172 80.1144 465.703 80.2456 465.274 80.4658C464.845 80.686 464.465 80.9907 464.156 81.3615C463.848 81.7324 463.618 82.1617 463.479 82.6238C463.341 83.0859 463.298 83.5712 463.352 84.0505L467.182 117.897C467.286 118.815 467.74 119.657 468.45 120.247C469.16 120.838 470.071 121.131 470.992 121.065Z" fill="#FFB000"/>
<path d="M490.623 133.652C493.156 135.116 496.711 133.772 498.683 130.605L533.701 74.3661C535.793 71.0064 535.297 66.9116 532.611 65.3584L528.866 63.1938C526.18 61.6403 522.384 63.2534 520.516 66.7424L489.242 125.146C487.481 128.435 488.09 132.187 490.623 133.652Z" fill="#418DF9"/>
<path d="M403.804 262.726C402.444 262.726 401.276 262.494 400.3 262.03C399.34 261.566 398.468 260.87 397.684 259.942L399.844 257.782C400.34 258.438 400.916 258.95 401.572 259.318C402.228 259.67 403.028 259.846 403.972 259.846C404.82 259.846 405.492 259.678 405.988 259.342C406.5 259.006 406.756 258.542 406.756 257.95C406.756 257.438 406.612 257.022 406.324 256.702C406.036 256.382 405.652 256.11 405.172 255.886C404.708 255.662 404.188 255.462 403.612 255.286C403.052 255.094 402.484 254.878 401.908 254.638C401.348 254.398 400.828 254.102 400.348 253.75C399.884 253.382 399.508 252.918 399.22 252.358C398.932 251.782 398.788 251.062 398.788 250.198C398.788 249.174 399.036 248.302 399.532 247.582C400.028 246.862 400.708 246.31 401.572 245.926C402.436 245.542 403.412 245.35 404.5 245.35C405.652 245.35 406.692 245.566 407.62 245.998C408.548 246.43 409.308 246.99 409.9 247.678L407.74 249.838C407.244 249.294 406.732 248.894 406.204 248.638C405.692 248.382 405.108 248.254 404.452 248.254C403.7 248.254 403.108 248.398 402.676 248.686C402.244 248.974 402.028 249.39 402.028 249.934C402.028 250.398 402.172 250.774 402.46 251.062C402.748 251.35 403.124 251.598 403.588 251.806C404.068 252.014 404.588 252.214 405.148 252.406C405.724 252.598 406.292 252.814 406.852 253.054C407.428 253.294 407.948 253.606 408.412 253.99C408.892 254.374 409.276 254.87 409.564 255.478C409.852 256.07 409.996 256.806 409.996 257.686C409.996 259.254 409.444 260.486 408.34 261.382C407.236 262.278 405.724 262.726 403.804 262.726ZM412.572 262.486V245.614H415.836V262.486H412.572ZM423.156 262.486V245.614H426.42V262.486H423.156ZM414.636 255.214V252.334H424.068V255.214H414.636ZM437.765 262.75C436.533 262.75 435.381 262.526 434.309 262.078C433.253 261.63 432.325 261.014 431.525 260.23C430.741 259.43 430.125 258.502 429.677 257.446C429.229 256.374 429.005 255.23 429.005 254.014C429.005 252.798 429.221 251.67 429.653 250.63C430.101 249.574 430.717 248.654 431.501 247.87C432.301 247.07 433.229 246.454 434.285 246.022C435.341 245.574 436.485 245.35 437.717 245.35C438.965 245.35 440.117 245.574 441.173 246.022C442.229 246.454 443.149 247.07 443.933 247.87C444.733 248.654 445.357 249.574 445.805 250.63C446.253 251.686 446.477 252.822 446.477 254.038C446.477 255.254 446.253 256.39 445.805 257.446C445.357 258.502 444.733 259.43 443.933 260.23C443.149 261.014 442.229 261.63 441.173 262.078C440.133 262.526 438.997 262.75 437.765 262.75ZM437.717 259.702C438.805 259.702 439.749 259.462 440.549 258.982C441.349 258.502 441.973 257.838 442.421 256.99C442.885 256.142 443.117 255.15 443.117 254.014C443.117 253.182 442.989 252.422 442.733 251.734C442.477 251.046 442.109 250.454 441.629 249.958C441.149 249.446 440.581 249.054 439.925 248.782C439.269 248.51 438.533 248.374 437.717 248.374C436.661 248.374 435.725 248.614 434.909 249.094C434.109 249.558 433.477 250.214 433.013 251.062C432.565 251.91 432.341 252.894 432.341 254.014C432.341 254.862 432.469 255.638 432.725 256.342C432.997 257.046 433.365 257.646 433.829 258.142C434.309 258.638 434.877 259.022 435.533 259.294C436.205 259.566 436.933 259.702 437.717 259.702ZM451.464 256.222V253.558H455.376C455.888 253.558 456.352 253.454 456.768 253.246C457.184 253.038 457.512 252.742 457.752 252.358C457.992 251.958 458.112 251.478 458.112 250.918C458.112 250.374 457.992 249.902 457.752 249.502C457.512 249.102 457.184 248.798 456.768 248.59C456.352 248.382 455.888 248.278 455.376 248.278H451.464V245.614H455.712C456.784 245.614 457.744 245.83 458.592 246.262C459.456 246.694 460.136 247.31 460.632 248.11C461.128 248.894 461.376 249.83 461.376 250.918C461.376 252.006 461.128 252.95 460.632 253.75C460.136 254.534 459.456 255.142 458.592 255.574C457.744 256.006 456.784 256.222 455.712 256.222H451.464ZM449.064 262.486V245.614H452.328V262.486H449.064ZM461.175 262.486L467.967 245.614H470.631L477.399 262.486H473.919L468.687 248.638H469.887L464.583 262.486H461.175ZM464.775 259.342V256.606H473.847V259.342H464.775ZM483.937 262.726C482.577 262.726 481.409 262.494 480.433 262.03C479.473 261.566 478.601 260.87 477.817 259.942L479.977 257.782C480.473 258.438 481.049 258.95 481.705 259.318C482.361 259.67 483.161 259.846 484.105 259.846C484.953 259.846 485.625 259.678 486.121 259.342C486.633 259.006 486.889 258.542 486.889 257.95C486.889 257.438 486.745 257.022 486.457 256.702C486.169 256.382 485.785 256.11 485.305 255.886C484.841 255.662 484.321 255.462 483.745 255.286C483.185 255.094 482.617 254.878 482.041 254.638C481.481 254.398 480.961 254.102 480.48 253.75C480.017 253.382 479.641 252.918 479.353 252.358C479.065 251.782 478.921 251.062 478.921 250.198C478.921 249.174 479.169 248.302 479.665 247.582C480.161 246.862 480.841 246.31 481.705 245.926C482.569 245.542 483.545 245.35 484.633 245.35C485.785 245.35 486.825 245.566 487.753 245.998C488.681 246.43 489.441 246.99 490.033 247.678L487.873 249.838C487.377 249.294 486.865 248.894 486.337 248.638C485.825 248.382 485.241 248.254 484.585 248.254C483.833 248.254 483.241 248.398 482.809 248.686C482.377 248.974 482.161 249.39 482.161 249.934C482.161 250.398 482.305 250.774 482.593 251.062C482.881 251.35 483.257 251.598 483.721 251.806C484.201 252.014 484.721 252.214 485.281 252.406C485.857 252.598 486.425 252.814 486.985 253.054C487.561 253.294 488.081 253.606 488.545 253.99C489.025 254.374 489.409 254.87 489.697 255.478C489.985 256.07 490.129 256.806 490.129 257.686C490.129 259.254 489.577 260.486 488.473 261.382C487.369 262.278 485.857 262.726 483.937 262.726ZM496.201 262.486V245.974H499.489V262.486H496.201ZM490.825 248.518V245.614H504.865V248.518H490.825ZM509.519 255.43V252.886H513.431C514.231 252.886 514.847 252.686 515.279 252.286C515.727 251.87 515.951 251.302 515.951 250.582C515.951 249.926 515.727 249.382 515.279 248.95C514.847 248.502 514.231 248.278 513.431 248.278H509.519V245.614H513.719C514.807 245.614 515.759 245.83 516.575 246.262C517.407 246.678 518.047 247.254 518.495 247.99C518.959 248.726 519.191 249.574 519.191 250.534C519.191 251.526 518.959 252.39 518.495 253.126C518.047 253.846 517.407 254.414 516.575 254.83C515.743 255.23 514.775 255.43 513.671 255.43H509.519ZM507.119 262.486V245.614H510.383V262.486H507.119ZM516.335 262.486L510.767 255.19L513.767 254.254L520.295 262.486H516.335ZM529.897 262.75C528.665 262.75 527.513 262.526 526.441 262.078C525.385 261.63 524.457 261.014 523.657 260.23C522.873 259.43 522.257 258.502 521.809 257.446C521.361 256.374 521.137 255.23 521.137 254.014C521.137 252.798 521.353 251.67 521.785 250.63C522.233 249.574 522.849 248.654 523.633 247.87C524.433 247.07 525.361 246.454 526.417 246.022C527.473 245.574 528.617 245.35 529.849 245.35C531.097 245.35 532.249 245.574 533.305 246.022C534.361 246.454 535.281 247.07 536.065 247.87C536.865 248.654 537.489 249.574 537.937 250.63C538.385 251.686 538.609 252.822 538.609 254.038C538.609 255.254 538.385 256.39 537.937 257.446C537.489 258.502 536.865 259.43 536.065 260.23C535.281 261.014 534.361 261.63 533.305 262.078C532.265 262.526 531.129 262.75 529.897 262.75ZM529.849 259.702C530.937 259.702 531.881 259.462 532.681 258.982C533.481 258.502 534.105 257.838 534.553 256.99C535.017 256.142 535.249 255.15 535.249 254.014C535.249 253.182 535.121 252.422 534.865 251.734C534.609 251.046 534.241 250.454 533.761 249.958C533.281 249.446 532.713 249.054 532.057 248.782C531.401 248.51 530.665 248.374 529.849 248.374C528.793 248.374 527.857 248.614 527.041 249.094C526.241 249.558 525.609 250.214 525.145 251.062C524.697 251.91 524.473 252.894 524.473 254.014C524.473 254.862 524.601 255.638 524.857 256.342C525.129 257.046 525.497 257.646 525.961 258.142C526.441 258.638 527.009 259.022 527.665 259.294C528.337 259.566 529.065 259.702 529.849 259.702Z" fill="#023D9F"/>
<path d="M403.22 294.626L394.14 290.706V288.866L403.22 284.946V287.446L396.18 290.286V289.286L403.22 292.126V294.626ZM404.589 297.426L409.849 281.526H412.209L406.949 297.426H404.589ZM422.24 281.786C423.94 284.166 427.3 286.946 430.38 288.646C430.82 287.906 431.36 287.106 431.96 286.486C428.78 285.126 425.52 282.506 423.38 279.426H420.88C419.4 281.906 416.16 284.986 412.72 286.726C413.24 287.226 413.92 288.106 414.24 288.666C417.52 286.846 420.58 284.146 422.24 281.786ZM415.44 291.166V293.246H429.12V291.166H415.44ZM416.46 286.746V288.846H428.2V286.746H416.46ZM413.84 295.666V297.806H430.92V295.666H413.84ZM420.98 287.686V296.866H423.52V287.686H420.98ZM434.78 279.546C434.34 281.306 433.6 283.026 432.66 284.186C433 284.686 433.58 285.866 433.72 286.366C435.04 284.826 436.12 282.386 436.76 280.106L434.78 279.546ZM435.32 281.446L434.9 283.526H439.12V281.446H435.32ZM435.24 298.166C435.56 297.726 436.14 297.246 439.32 294.886C439.08 294.466 438.78 293.626 438.64 293.066L435.26 295.486L434.78 296.206L435.24 298.166ZM434.06 285.246V287.266H438.66V285.246H434.06ZM433.24 289.366V291.406H439.22V289.366H433.24ZM435.24 298.166C435.24 297.366 437.22 295.706 437.22 295.706V286.386H435.1V294.466C435.1 295.526 434.52 296.266 434.1 296.606C434.46 296.946 435.04 297.726 435.24 298.166ZM442.82 281.726V283.726H451.56V281.726H442.82ZM446.58 284.406V295.146H448.66V284.406H446.58ZM443.42 288.786C443.42 288.406 444.66 287.686 444.66 287.686V287.646C445.72 285.646 446.88 282.626 447.52 279.846L445.28 279.426C444.92 281.986 443.98 284.806 443.7 285.506C443.38 286.246 443.1 286.726 442.74 286.846C442.98 287.386 443.32 288.386 443.42 288.786ZM443.42 288.786C443.6 288.606 444.34 288.486 445.06 288.486H451.14L451.16 286.526H444.42L443.42 287.066V288.786ZM443.06 290.286V292.346H451.52V290.286H443.06ZM442.42 286.086H438.92V288.266H440.26V295.446H442.42V286.086ZM439.22 280.546C439.68 281.826 440.18 283.526 440.38 284.646L442.46 283.966C442.22 282.866 441.68 281.246 441.18 279.966L439.22 280.546ZM441.72 294.006C440.74 294.006 439.44 294.886 438.32 296.026L439.8 298.266C440.38 297.286 441.18 296.086 441.68 296.086C442.06 296.086 442.66 296.586 443.34 297.026C444.44 297.666 445.66 297.966 447.34 297.966C448.58 297.966 450.38 297.906 451.38 297.846C451.4 297.226 451.7 296.066 451.92 295.446C450.6 295.626 448.56 295.726 447.36 295.726C445.84 295.726 444.6 295.566 443.6 294.946C442.78 294.486 442.3 294.006 441.72 294.006ZM463.2 295.506V297.566H469.5V295.506H463.2ZM464.06 281.406V283.446H469.14V281.406H464.06ZM462.22 290.826V298.226H464.42V292.846H468.2V298.166H470.48V290.826H462.22ZM468.3 281.406V281.786C467.18 285.706 464.02 288.766 460.4 290.086C460.88 290.526 461.48 291.346 461.76 291.906C465.82 290.186 469.2 286.986 470.66 281.966L469.14 281.326L468.72 281.406H468.3ZM464.14 279.486C463.44 281.806 462.12 284.046 460.56 285.446C461.1 285.786 462.02 286.566 462.42 286.986C464.04 285.346 465.52 282.746 466.42 280.046L464.14 279.486ZM464.2 282.526L462.58 283.566C463.8 286.526 466.42 290.026 470.54 291.626C470.86 291.006 471.54 290.066 472.02 289.606C467.94 288.326 465.34 285.226 464.2 282.526ZM453.72 288.326V295.606H455.68V288.326H453.72ZM455.96 282.306H458.6V284.846H455.96V282.306ZM453.88 280.246V286.906H460.8V280.246H453.88ZM456.68 286.066V295.006H458.8V286.066H456.68ZM452.84 295.226L453.24 297.526C455.52 297.006 458.56 296.286 461.38 295.586L461.16 293.466C458.16 294.146 454.96 294.846 452.84 295.226ZM457.52 289.246V291.346H461V289.246H457.52ZM482.24 281.786C483.94 284.166 487.3 286.946 490.38 288.646C490.82 287.906 491.36 287.106 491.96 286.486C488.78 285.126 485.52 282.506 483.38 279.426H480.88C479.4 281.906 476.16 284.986 472.72 286.726C473.24 287.226 473.92 288.106 474.24 288.666C477.52 286.846 480.58 284.146 482.24 281.786ZM475.44 291.166V293.246H489.12V291.166H475.44ZM476.46 286.746V288.846H488.2V286.746H476.46ZM473.84 295.666V297.806H490.92V295.666H473.84ZM480.98 287.686V296.866H483.52V287.686H480.98ZM492.94 283.806C494.06 284.206 495.52 284.886 496.24 285.386L497.34 283.706C496.58 283.206 495.08 282.606 494 282.266L492.94 283.806ZM494.56 280.986C495.66 281.406 497.12 282.086 497.84 282.586L498.86 280.966C498.12 280.486 496.64 279.886 495.56 279.546L494.56 280.986ZM493.5 289.006L495.18 290.626C496.5 289.246 497.94 287.646 499.2 286.126L497.78 284.566C496.36 286.226 494.66 287.966 493.5 289.006ZM493.4 290.946V293.026H511.26V290.946H493.4ZM501.08 289.586V298.286H503.52V289.586H501.08ZM500.32 291.846C498.78 293.646 495.74 295.306 492.86 296.126C493.38 296.606 494.1 297.526 494.46 298.126C497.42 297.066 500.46 295.046 502.28 292.706L500.32 291.846ZM504.22 291.906L502.24 292.826C504.14 295.026 507.22 296.986 510.18 297.966C510.52 297.366 511.26 296.426 511.78 295.946C508.88 295.186 505.8 293.626 504.22 291.906ZM510.72 280.126H499.54V289.766H511.12V287.906H501.88V281.946H510.72V280.126ZM501.18 282.786V284.366H507.66V285.406H501.18V286.986H510.02V282.786H501.18ZM518.56 281.686V283.626H531.38V281.686H518.56ZM523.56 282.626C523.48 283.406 523.26 284.526 523.06 285.326L525 285.666C525.38 284.946 525.92 283.866 526.32 282.786L523.56 282.626ZM526.94 279.486C526.7 280.166 526.2 281.146 525.82 281.806L527.82 282.306C528.26 281.726 528.8 280.886 529.36 280.006L526.94 279.486ZM520.42 280.226C520.94 280.866 521.46 281.786 521.64 282.366L523.62 281.586C523.42 280.986 522.86 280.126 522.3 279.526L520.42 280.226ZM517.86 287.306H513.18V289.526H515.52V294.666H517.86V287.306ZM517.86 293.626H515.66C514.74 294.346 513.66 295.046 512.76 295.606L513.94 298.106C515.02 297.226 515.92 296.466 516.8 295.686C518.1 297.246 519.76 297.826 522.22 297.926C524.62 298.026 528.66 297.986 531.08 297.866C531.18 297.146 531.58 295.986 531.84 295.426C529.14 295.646 524.6 295.706 522.26 295.606C520.18 295.526 518.66 294.946 517.86 293.626ZM513.22 281.406C514.4 282.306 515.84 283.646 516.44 284.586L518.36 283.006C517.66 282.066 516.2 280.806 515 279.966L513.22 281.406ZM522.18 289.066H527.64V290.106H522.18V289.066ZM522.18 291.706H527.64V292.766H522.18V291.706ZM522.18 286.426H527.64V287.466H522.18V286.426ZM519.92 284.686V294.506H530V284.686H519.92ZM533.56 287.446V284.946L542.64 288.866V290.706L533.56 294.626V292.126L540.6 289.286V290.286L533.56 287.446Z" fill="white"/>
<path d="M453.476 327.486V314.832H455.924V327.486H453.476ZM455.276 327.486V325.308H461.72V327.486H455.276ZM465.168 327.486V315.102H467.634V327.486H465.168ZM461.136 317.01V314.832H471.666V317.01H461.136ZM476.862 327.486L471.876 314.832H474.522L478.374 325.074H477.348L481.236 314.832H483.846L478.806 327.486H476.862Z" fill="white"/>
<rect x="645.998" y="47.7905" width="235" height="80" rx="40" fill="#FFE2A2" fill-opacity="0.2"/>
<path d="M665.972 96.4674C665.972 106.416 674.036 114.481 683.985 114.481C686.302 114.485 688.597 114.039 690.744 113.167C690.788 113.173 690.833 113.175 690.877 113.175H698.761C699.015 113.175 699.266 113.126 699.5 113.029C699.735 112.932 699.948 112.789 700.127 112.61C700.307 112.43 700.449 112.217 700.546 111.983C700.643 111.749 700.693 111.497 700.693 111.243V103.208C701.559 101.066 702.002 98.7774 701.998 96.4674C701.998 86.5183 693.934 78.4541 683.985 78.4541C674.036 78.4541 665.972 86.5183 665.972 96.4674Z" fill="#FFB000"/>
<path d="M691.195 83.6988C691.195 96.1804 681.078 106.297 668.597 106.297C665.69 106.302 662.81 105.743 660.117 104.65C660.062 104.656 660.006 104.66 659.95 104.66H650.059C649.741 104.66 649.426 104.597 649.132 104.476C648.837 104.354 648.57 104.175 648.345 103.95C648.12 103.725 647.941 103.458 647.82 103.164C647.698 102.87 647.635 102.554 647.636 102.236V92.1552C646.55 89.4684 645.993 86.5969 645.998 83.6989C645.998 71.2174 656.115 61.1006 668.596 61.1006C681.078 61.1006 691.195 71.2173 691.195 83.6988Z" fill="#508BFE"/>
<path d="M658.117 88.2841C659.926 88.2841 661.392 86.8178 661.392 85.009C661.392 83.2002 659.926 81.7339 658.117 81.7339C656.308 81.7339 654.842 83.2002 654.842 85.009C654.842 86.8178 656.308 88.2841 658.117 88.2841Z" fill="white"/>
<path d="M667.613 88.2841C669.422 88.2841 670.888 86.8178 670.888 85.009C670.888 83.2002 669.422 81.7339 667.613 81.7339C665.804 81.7339 664.338 83.2002 664.338 85.009C664.338 86.8178 665.804 88.2841 667.613 88.2841Z" fill="white"/>
<path d="M677.439 88.2841C679.248 88.2841 680.714 86.8178 680.714 85.009C680.714 83.2002 679.248 81.7339 677.439 81.7339C675.63 81.7339 674.164 83.2002 674.164 85.009C674.164 86.8178 675.63 88.2841 677.439 88.2841Z" fill="white"/>
<path d="M687.593 72.891C690.848 72.891 693.488 70.2517 693.488 66.9958C693.488 63.74 690.848 61.1006 687.593 61.1006C684.337 61.1006 681.697 63.74 681.697 66.9958C681.697 70.2517 684.337 72.891 687.593 72.891Z" fill="#FF793A" stroke="white" stroke-width="6" stroke-miterlimit="10"/>
<path d="M733.558 80.5385V82.2125H742.342V80.5385H733.558ZM733.108 85.0385V86.7125H738.58V93.9305C738.58 94.3085 738.31 94.5065 737.788 94.5065C737.032 94.5065 736.222 94.4705 735.394 94.3985L735.772 96.0725H738.382C739.66 96.0725 740.308 95.4965 740.308 94.3445V86.7125H743.116V85.0385H733.108ZM730.498 79.6565C729.67 81.3125 728.392 82.7525 726.646 83.9945L727.168 85.7045C729.472 84.1205 731.092 82.3565 732.064 80.3765L730.498 79.6565ZM731.344 83.7785C730.372 85.7225 728.842 87.4145 726.79 88.8545L727.294 90.5465C728.05 90.0245 728.734 89.4845 729.382 88.9265V96.1445H731.056V87.2525C731.794 86.3885 732.406 85.4705 732.892 84.4985L731.344 83.7785ZM750.19 79.6745V93.8225H744.97V95.4965H761.026V93.8225H755.77V79.6745H754.06V93.8225H751.9V79.6745H750.19ZM759.136 83.0225C758.38 86.2625 757.48 88.9445 756.472 91.0325L758.002 91.5725C759.082 89.2505 759.964 86.5505 760.648 83.4545L759.136 83.0225ZM746.788 82.9865L745.33 83.4545C746.266 86.0825 747.058 88.8185 747.67 91.6445L749.236 91.2485C748.516 88.1525 747.706 85.3985 746.788 82.9865ZM766.66 85.0925V88.8365H762.898V90.4205H766.66V94.1825H768.244V90.4205H771.988V88.8365H768.244V85.0925H766.66ZM776.964 86.0645H781.104V88.8185H776.964V86.0645ZM776.874 90.4025H781.104V95.5325H782.832V90.4025H787.296V93.0845C787.296 93.7865 786.99 94.1465 786.414 94.1465C785.802 94.1465 785.154 94.1105 784.452 94.0565L784.902 95.7305H786.972C788.34 95.7305 789.042 95.0465 789.042 93.6965V80.1425H775.236V88.9625C775.2 91.3385 774.642 93.3005 773.562 94.8485L774.876 96.0185C775.992 94.5425 776.658 92.6705 776.874 90.4025ZM787.296 88.8185H782.832V86.0645H787.296V88.8185ZM787.296 84.4985H782.832V81.7985H787.296V84.4985ZM781.104 81.7985V84.4985H776.964V81.7985H781.104ZM805.008 83.2745V86.3345H795.198V83.2745H805.008ZM795.18 88.0085H806.736V81.6005H801.03C800.742 80.7905 800.454 80.0525 800.148 79.3865L798.312 79.6745C798.672 80.2685 798.996 80.9165 799.284 81.6005H793.506V87.4865C793.488 90.5825 792.786 93.1205 791.418 95.0825L792.678 96.2345C794.244 93.9305 795.072 91.1765 795.18 88.0085ZM811.452 79.6205L810.264 80.7545C811.488 81.6365 812.442 82.4465 813.126 83.2025L814.314 82.0145C813.522 81.2045 812.568 80.4125 811.452 79.6205ZM809.85 83.9225V85.4705H812.334C811.776 86.3345 811.074 87.2525 810.246 88.1885V89.4845H813.234C812.946 90.4745 812.568 91.3745 812.064 92.2025C811.272 92.3825 810.462 93.3005 809.598 94.9925L810.804 96.1085C811.56 94.5965 812.1 93.8405 812.442 93.8405C812.604 93.8405 812.748 93.8945 812.856 94.0205C813.468 94.5965 814.17 95.0285 814.926 95.3165C815.574 95.5505 816.51 95.6765 817.734 95.7125C818.904 95.7485 820.128 95.7845 821.406 95.7845H825.834L826.212 94.1645C824.142 94.2545 822.468 94.3085 821.172 94.3085C819.912 94.3085 818.778 94.2905 817.806 94.2725C816.798 94.2365 816.042 94.1285 815.502 93.9305C814.962 93.7145 814.404 93.3545 813.828 92.8505C813.72 92.7605 813.63 92.6705 813.522 92.5985C814.062 91.6985 814.512 90.5645 814.872 89.1785V88.0445H812.226C812.982 87.1265 813.63 86.1905 814.188 85.2545V83.9225H809.85ZM816.222 80.4125V81.9965H824.7V80.4125H816.222ZM815.088 84.4805V86.1005H818.706C817.338 89.3585 816.294 91.1045 815.574 91.3205L816.006 92.7965C819.138 92.4725 821.694 92.0765 823.656 91.5905C823.836 92.0945 824.016 92.5985 824.196 93.1385L825.726 92.7425C824.988 90.6185 824.142 88.7465 823.206 87.1085L821.82 87.5585C822.252 88.3685 822.666 89.2145 823.062 90.1145C821.658 90.4745 819.966 90.7625 817.95 91.0145C818.724 89.8805 819.552 88.2425 820.416 86.1005H825.996V84.4805H815.088ZM831.27 86.0465V89.8985H840.612V86.0465H831.27ZM839.046 88.6385H832.854V87.3425H839.046V88.6385ZM842.304 90.8705H829.65V96.1625H831.324V95.4605H840.648V96.1625H842.304V90.8705ZM831.324 94.0385V92.2745H840.648V94.0385H831.324ZM828.102 80.6465V82.1405H832.008V83.0585H833.7V82.1405H838.092V83.0585H839.784V82.1405H843.69V80.6465H839.784V79.5665H838.092V80.6465H833.7V79.5665H832.008V80.6465H828.102ZM843.33 83.6165H828.462V87.2885H830.1V85.0565H841.692V87.1985H843.33V83.6165Z" fill="black"/>
<rect x="731.409" y="180" width="220.496" height="80" rx="40" fill="#FFD7C5" fill-opacity="0.2"/>
<path d="M760.971 199.388C760.809 199.377 760.658 199.305 760.549 199.185C760.439 199.065 760.381 198.908 760.385 198.746L760.43 192.64C760.429 192.555 760.445 192.471 760.477 192.392C760.51 192.314 760.557 192.243 760.618 192.183C760.678 192.123 760.75 192.076 760.829 192.045C760.908 192.013 760.992 191.998 761.077 192L761.565 192.022C761.65 192.028 761.732 192.05 761.808 192.089C761.883 192.127 761.951 192.18 762.005 192.245C762.06 192.31 762.1 192.385 762.125 192.466C762.15 192.547 762.158 192.633 762.149 192.717L761.616 198.801C761.604 198.963 761.531 199.114 761.411 199.224C761.291 199.333 761.133 199.392 760.971 199.388Z" fill="#FF793A"/>
<path d="M758.115 200.049C758.015 200.084 757.906 200.077 757.811 200.031C757.716 199.985 757.644 199.903 757.609 199.803L756.239 196.071C756.199 195.965 756.203 195.848 756.25 195.744C756.297 195.641 756.383 195.561 756.489 195.521L756.793 195.413C756.845 195.395 756.9 195.388 756.955 195.393C757.01 195.397 757.064 195.413 757.112 195.44C757.161 195.466 757.203 195.502 757.237 195.545C757.271 195.589 757.296 195.639 757.309 195.692L758.375 199.532C758.405 199.635 758.395 199.746 758.346 199.841C758.298 199.937 758.216 200.011 758.115 200.049Z" fill="#FF793A"/>
<path d="M756.613 202.31C756.412 202.584 755.983 202.601 755.64 202.348L749.55 197.862C749.186 197.594 749.061 197.128 749.274 196.837L749.571 196.431C749.784 196.14 750.25 196.141 750.596 196.433L756.388 201.326C756.715 201.601 756.814 202.035 756.613 202.31Z" fill="#FF793A"/>
<path d="M799.385 212.004L761.814 203.06C760.422 202.729 759.024 203.589 758.693 204.981L753.168 228.19C752.836 229.583 753.696 230.98 755.089 231.312L792.659 240.255C794.052 240.587 795.449 239.727 795.78 238.334L801.305 215.125C801.637 213.733 800.777 212.335 799.385 212.004Z" fill="#FF793A"/>
<path d="M800.784 217.315L758.171 207.171L757.015 212.028L799.627 222.172L800.784 217.315Z" fill="#FFB000"/>
<path d="M793.953 235.457L785.48 233.44C785.453 233.434 785.425 233.451 785.419 233.478L784.882 235.733C784.876 235.76 784.892 235.787 784.919 235.793L793.393 237.81C793.42 237.817 793.447 237.8 793.453 237.773L793.99 235.518C793.996 235.491 793.98 235.464 793.953 235.457Z" fill="white"/>
<path d="M777.618 199.822L733.859 214.896C732.506 215.362 731.787 216.837 732.253 218.19L741.678 245.55C742.144 246.903 743.619 247.622 744.972 247.156L788.731 232.082C790.084 231.616 790.803 230.141 790.337 228.788L780.912 201.428C780.446 200.075 778.971 199.356 777.618 199.822Z" fill="#3277FD"/>
<path d="M776.709 203.359L771.605 205.118C770.793 205.397 770.361 206.282 770.641 207.094L772.4 212.198C772.679 213.01 773.564 213.442 774.376 213.162L779.48 211.404C780.292 211.124 780.724 210.239 780.444 209.427L778.686 204.323C778.406 203.511 777.521 203.08 776.709 203.359Z" fill="white"/>
<path d="M758.831 227.82L741.853 233.669C741.804 233.686 741.778 233.739 741.795 233.787L742.66 236.298C742.677 236.346 742.73 236.372 742.778 236.355L759.756 230.507C759.805 230.49 759.831 230.437 759.814 230.388L758.949 227.878C758.933 227.829 758.88 227.803 758.831 227.82Z" fill="#96B9FE"/>
<path d="M767.871 230.51L743.64 238.857C743.591 238.874 743.565 238.927 743.582 238.975L744.447 241.486C744.464 241.534 744.517 241.56 744.565 241.543L768.796 233.196C768.845 233.18 768.871 233.127 768.854 233.078L767.989 230.568C767.972 230.519 767.919 230.493 767.871 230.51Z" fill="#96B9FE"/>
<path d="M829.901 218.058V219.012H834.041V221.73H828.965V223.386H834.041V226.176H827.453V227.85H842.465V226.176H835.769V223.386H840.827V221.73H835.769V219.012H839.819V217.86C840.521 218.238 841.277 218.598 842.105 218.922L843.257 217.356C839.693 216.06 837.191 214.332 835.751 212.172H830.135V213.738H833.231C831.755 215.286 829.505 216.564 826.517 217.59L827.507 219.192C828.353 218.832 829.145 218.454 829.901 218.058ZM838.973 217.374H831.071C832.673 216.366 833.951 215.214 834.923 213.918C835.967 215.214 837.317 216.366 838.973 217.374ZM849.611 214.044V215.664H855.875C855.929 218.364 856.073 220.596 856.307 222.36C856.379 222.864 856.451 223.368 856.541 223.854C855.641 225.186 854.543 226.23 853.247 226.968L854.291 228.336C855.317 227.706 856.253 226.878 857.081 225.834C857.189 226.194 857.333 226.518 857.477 226.824C857.963 227.76 858.521 228.246 859.133 228.246C859.979 228.246 860.717 227.148 861.347 224.97L860.069 223.926C859.745 225.6 859.421 226.464 859.133 226.5C858.773 226.41 858.467 225.654 858.179 224.232C859.223 222.45 860.033 220.218 860.627 217.536L859.151 216.906C858.827 218.598 858.377 220.128 857.801 221.478C857.657 219.894 857.549 217.95 857.513 215.664H861.149V214.044H860.357C860.177 213.324 859.997 212.676 859.817 212.118L858.287 212.37C858.521 212.874 858.737 213.432 858.935 214.044H857.495C857.477 213.324 857.477 212.568 857.477 211.776H855.821C855.821 212.55 855.821 213.306 855.839 214.044H849.611ZM850.295 217.158V222.414H855.047V217.158H850.295ZM853.571 221.028H851.753V218.562H853.571V221.028ZM855.101 223.26C853.121 223.998 851.105 224.538 849.017 224.862L849.431 226.5C851.447 226.032 853.337 225.474 855.101 224.808V223.26ZM844.841 216.384V218.04H846.461V223.584C845.867 223.764 845.273 223.926 844.661 224.07L845.075 225.798C846.695 225.294 848.225 224.664 849.665 223.908V222.198C849.161 222.45 848.657 222.702 848.135 222.936V218.04H849.701V216.384H848.135V211.812H846.461V216.384H844.841ZM863.345 212.46V214.062H870.059V215.574H864.713V222.324H862.805V223.944H864.713V228.354H866.387V223.944H875.423V225.834C875.423 226.41 875.189 226.716 874.721 226.716L873.101 226.644L873.533 228.3H875.261C876.485 228.3 877.097 227.598 877.097 226.212V223.944H879.005V222.324H877.097V215.574H871.751V214.062H878.483V212.46H863.345ZM866.387 222.324V220.434H870.059V222.324H866.387ZM871.751 222.324V220.434H875.423V222.324H871.751ZM866.387 218.94V217.122H870.059V218.94H866.387ZM871.751 217.122H875.423V218.94H871.751V217.122ZM884.279 218.256V222.108H893.621V218.256H884.279ZM892.055 220.848H885.863V219.552H892.055V220.848ZM895.313 223.08H882.659V228.372H884.333V227.67H893.657V228.372H895.313V223.08ZM884.333 226.248V224.484H893.657V226.248H884.333ZM881.111 212.856V214.35H885.017V215.268H886.709V214.35H891.101V215.268H892.793V214.35H896.699V212.856H892.793V211.776H891.101V212.856H886.709V211.776H885.017V212.856H881.111ZM896.339 215.826H881.471V219.498H883.109V217.266H894.701V219.408H896.339V215.826ZM909.497 211.794V216.636H906.131V228.282H907.841V224.43H912.809V225.816C912.809 226.392 912.593 226.698 912.179 226.698L910.541 226.608L910.991 228.246H912.737C913.925 228.246 914.519 227.562 914.519 226.194V216.636H911.171V211.794H909.497ZM907.841 221.352H912.809V222.99H907.841V221.352ZM912.809 219.894H907.841V218.256H912.809V219.894ZM907.103 212.478L905.663 213.18C906.257 214.044 906.797 215.016 907.301 216.132L908.687 215.43C908.183 214.35 907.643 213.378 907.103 212.478ZM913.565 212.298C913.151 213.324 912.593 214.368 911.909 215.412L913.295 216.132C913.979 215.106 914.555 214.044 914.987 212.964L913.565 212.298ZM900.821 211.776C900.353 213.864 899.579 215.826 898.463 217.626L899.849 218.508C900.065 218.148 900.263 217.788 900.479 217.41V218.814H901.433V220.668H899.093V222.252H901.433V225.816C901.433 226.104 901.217 226.338 900.785 226.5L901.487 227.958C903.071 227.544 904.457 227.022 905.663 226.374L905.375 224.862C904.619 225.312 903.845 225.69 903.089 225.978V222.252H905.429V220.668H903.089V218.814H904.817V217.284H900.533C900.857 216.654 901.181 215.97 901.469 215.25H905.123V213.63H902.045C902.189 213.144 902.333 212.64 902.477 212.118L900.821 211.776Z" fill="black"/>
<rect x="703.628" y="310.638" width="196" height="80" rx="40" fill="#BAB9FF" fill-opacity="0.2"/>
<path d="M767.368 327.226C767.368 327.441 767.359 327.653 767.34 327.863C767.173 329.757 766.271 331.511 764.826 332.748C763.382 333.985 761.511 334.608 759.613 334.482C757.715 334.357 755.942 333.493 754.673 332.076C753.405 330.659 752.741 328.802 752.825 326.902C752.909 325.002 753.734 323.21 755.123 321.911C756.512 320.612 758.354 319.908 760.256 319.95C762.157 319.992 763.966 320.778 765.296 322.138C766.625 323.498 767.369 325.324 767.368 327.226Z" fill="#A2B6FF"/>
<path d="M761.011 327.783C760.542 328.148 759.886 328.875 760.084 330.493C759.864 331.121 759.082 332.321 759.082 332.894C759.082 333.468 758.143 333.573 758.039 333.416C757.934 333.259 757.882 331.277 757.308 330.912C756.735 330.547 756.839 328.878 756.839 328.878C756.839 328.878 757.048 328.252 756.37 327.835C755.692 327.418 755.219 326.427 755.821 325.853C756.422 325.279 754.805 324.914 754.596 324.497C754.508 324.32 754.168 323.923 753.807 323.528C754.587 322.206 755.764 321.164 757.17 320.549C757.703 321.106 758.164 321.818 758.039 322.567C758.059 322.932 759.644 323.506 758.868 324.288C758.091 325.071 757.036 326.166 758.868 326.531C760.699 326.897 761.481 327.418 761.011 327.783Z" fill="#6D7BFE"/>
<path d="M765.178 322.02C764.788 322.843 763.81 323.507 763.255 323.507C762.629 322.828 761.273 323.768 761.146 322.672C761.072 322.034 761.8 321.043 762.421 320.325C763.455 320.676 764.398 321.256 765.178 322.02Z" fill="#6D7BFE"/>
<path d="M767.34 327.863C767.185 329.664 766.362 331.342 765.035 332.568C764.794 332.338 764.59 332.067 764.662 331.852C764.819 331.382 765.455 330.391 765.345 329.765C765.243 329.181 765.782 327.414 767.34 327.863Z" fill="#6D7BFE"/>
<path d="M755.496 364.019C755.263 365.456 754.878 366.864 754.346 368.219C750.881 377.093 741.588 382.653 731.807 381.055C726.407 380.171 721.58 377.179 718.385 372.737C715.191 368.295 713.891 362.766 714.771 357.366C714.816 357.092 714.868 356.816 714.922 356.547C717.129 345.751 727.488 338.537 738.46 340.33C741.734 340.859 744.831 342.174 747.485 344.163C748.357 344.814 749.175 345.535 749.932 346.317C752.178 348.628 753.851 351.433 754.818 354.507C755.784 357.581 756.016 360.839 755.496 364.019V364.019Z" fill="#97A1FF"/>
<path d="M754.346 368.219C750.417 370.749 745.777 373.088 740.662 375.023C735.453 376.992 730.338 378.322 725.65 379.019C714.633 380.662 705.981 378.826 704.032 373.67C702.206 368.854 706.697 362.33 714.923 356.547C714.868 356.816 714.816 357.092 714.771 357.366C714.607 358.369 714.518 359.383 714.505 360.399C709.765 364.059 707.298 367.643 708.271 370.213C709.216 372.713 713.23 373.777 718.94 373.475C724.522 373.181 731.725 371.573 739.265 368.723C745.786 366.255 751.504 363.254 755.762 360.241C761.462 356.211 764.554 352.156 763.487 349.327C762.39 346.423 757.154 345.455 749.932 346.318C749.176 345.535 748.358 344.815 747.485 344.164C757.595 342.995 765.387 344.905 767.224 349.761C769.191 354.956 763.825 362.127 754.346 368.219Z" fill="#6461FC"/>
<path d="M792.492 347.706V349.344H797.082C796.704 350.586 796.308 351.774 795.876 352.926H804.588C803.706 353.934 802.5 354.906 800.97 355.878C799.818 355.482 798.612 355.14 797.352 354.816L796.452 356.148C799.26 356.868 802.014 357.876 804.696 359.136L805.632 357.66C804.732 357.264 803.796 356.886 802.824 356.526C804.552 355.284 805.83 354.06 806.658 352.836V351.36H798.324C798.54 350.73 798.738 350.064 798.954 349.344H808.764V347.706H799.404C799.548 347.13 799.692 346.518 799.836 345.888H807.702V344.286H800.178C800.286 343.674 800.412 343.026 800.538 342.36L798.774 342.216C798.63 342.9 798.504 343.602 798.36 344.286H793.716V345.888H798C797.856 346.5 797.694 347.094 797.55 347.706H792.492ZM815.82 342.522V356.67H810.6V358.344H826.656V356.67H821.4V342.522H819.69V356.67H817.53V342.522H815.82ZM824.766 345.87C824.01 349.11 823.11 351.792 822.102 353.88L823.632 354.42C824.712 352.098 825.594 349.398 826.278 346.302L824.766 345.87ZM812.418 345.834L810.96 346.302C811.896 348.93 812.688 351.666 813.3 354.492L814.866 354.096C814.146 351 813.336 348.246 812.418 345.834ZM843.522 349.956V347.418H844.602V346.032H843.522V343.548H839.706V342.342H838.05V343.548H835.044V344.952H838.05V346.032H834.162V347.418H838.05V348.534H835.044V349.956H838.05V351.054H834.666V352.458H838.05V353.574H834.108V354.996H838.05V356.454H839.706V354.996H844.296V353.574H839.706V352.458H843.774V351.054H839.706V349.956H843.522ZM839.706 344.952H841.884V346.032H839.706V344.952ZM839.706 347.418H841.884V348.534H839.706V347.418ZM838.5 357.066C836.142 357.03 834.378 356.688 833.208 356.04C832.956 355.896 832.722 355.716 832.506 355.5C833.334 353.844 833.784 351.864 833.856 349.56V348.534H831.246C832.038 347.4 832.83 346.086 833.64 344.574V343.17H829.05V344.79H831.732C830.904 346.194 830.022 347.526 829.05 348.786V350.082H832.29C832.182 351.522 831.894 352.818 831.408 353.952C831.012 353.214 830.67 352.296 830.364 351.216L828.924 351.738C829.356 353.214 829.896 354.456 830.562 355.464C830.04 356.22 829.392 356.868 828.6 357.408L829.716 358.866C830.472 358.272 831.138 357.588 831.714 356.796C831.822 356.904 831.966 357.03 832.146 357.156C833.568 358.092 835.926 358.578 839.238 358.578H844.512L844.8 356.94C842.64 357.012 840.534 357.066 838.5 357.066ZM856.644 342.36V350.172H854.034V358.902H855.672V357.786H860.352V358.884H862.008V350.172H858.372V347.04H862.746V345.384H858.372V342.36H856.644ZM855.672 356.202V351.666H860.352V356.202H855.672ZM846.582 345.222V346.878H853.764V345.222H850.956C850.74 344.214 850.542 343.296 850.326 342.504L848.598 342.774C848.85 343.512 849.102 344.322 849.318 345.222H846.582ZM848.472 347.688L846.978 348.174C847.464 350.406 847.86 352.728 848.184 355.14L849.606 354.798C849.264 352.134 848.886 349.758 848.472 347.688ZM853.422 354.744C852.918 354.888 852.396 355.032 851.856 355.176C852.396 352.944 852.81 350.496 853.08 347.85L851.424 347.616C851.19 350.406 850.812 353.052 850.272 355.536C849.03 355.806 847.77 356.022 846.474 356.184L846.87 357.822C849.21 357.444 851.388 356.976 853.422 356.418V354.744Z" fill="black"/>
</svg>
