<svg width="450" height="145" viewBox="0 0 450 145" fill="none" xmlns="http://www.w3.org/2000/svg">
<path d="M0 10L221.672 41.0341C223.88 41.3432 226.12 41.3432 228.328 41.0341L450 10V113C450 126.255 439.255 137 426 137H24C10.7452 137 0 126.255 0 113V10Z" fill="url(#paint0_linear_164_2783)"/>
<g filter="url(#filter0_d_164_2783)">
<path d="M77 85.5L201.029 13.8478C215.865 5.27753 234.143 5.2642 248.991 13.8128L373.5 85.5L417.388 115.046C427.214 121.66 422.532 137 410.687 137H39.5266C27.663 137 22.994 121.621 32.8553 115.025L77 85.5Z" fill="url(#paint1_linear_164_2783)" shape-rendering="crispEdges"/>
</g>
<path d="M144.432 61.88V66.968H140.992V68.568H144.432V76.664H146.08V68.568H149.728V66.968H146.08V61.88H144.432ZM136.992 61.896C136.56 63.72 135.824 65.448 134.784 67.064L136.144 67.928C136.336 67.64 136.512 67.336 136.688 67.032V68.12H137.52V69.736H135.488V71.272H137.52V74.392C137.52 74.632 137.376 74.808 137.088 74.936L137.712 76.296C139.024 75.944 140.192 75.512 141.2 74.984L140.912 73.496C140.32 73.848 139.728 74.152 139.152 74.392V71.272H141.232V69.736H139.152V68.12H140.592V66.616H136.912C137.168 66.104 137.424 65.576 137.664 65.032H141.04V63.48H138.224C138.352 63.08 138.48 62.664 138.592 62.232L136.992 61.896ZM157.936 64.808V66.424H162.368V74.28C162.368 74.824 162.064 75.096 161.456 75.096C160.768 75.096 160.048 75.048 159.28 74.984L159.648 76.616H162.032C163.376 76.616 164.048 75.976 164.048 74.696V66.424H165.648V64.808H164.048V61.832H162.368V64.808H157.936ZM152.48 65.976L151.344 67.048C152.432 68.264 153.408 69.432 154.272 70.584C153.472 71.96 152.352 73.192 150.928 74.264L151.888 75.704C153.248 74.552 154.368 73.304 155.232 71.944C155.712 72.632 156.128 73.304 156.512 73.976L157.76 72.728C157.248 71.928 156.704 71.144 156.096 70.344C156.896 68.568 157.312 66.632 157.328 64.52V63.304H151.648V64.92H155.872C155.792 66.36 155.52 67.72 155.04 68.968C154.24 67.976 153.392 66.968 152.48 65.976ZM159.104 67.928L157.824 68.856C158.816 70.088 159.584 71.224 160.16 72.248L161.472 71.32C160.928 70.344 160.128 69.208 159.104 67.928ZM173.728 61.864C171.872 63.912 169.552 65.624 166.752 67L167.648 68.632C170.432 67.144 172.656 65.384 174.336 63.368C176.16 65.528 178.368 67.272 180.96 68.616L181.872 66.984C179.248 65.736 176.944 64.04 174.944 61.864H173.728ZM173.952 66.2V74.488H171.424V68.504H169.776V74.488H167.504V76.12H180.976V74.488H175.632V71.16H179.808V69.544H175.632V66.2H173.952ZM187.76 61.96V74.488H183.184V76.12H197.488V74.488H192.88V61.96H191.2V74.488H189.44V61.96H187.76ZM195.712 64.984C195.04 67.832 194.272 70.2 193.376 72.056L194.88 72.584C195.808 70.536 196.576 68.136 197.184 65.4L195.712 64.984ZM184.896 64.936L183.472 65.416C184.304 67.736 184.976 70.136 185.52 72.632L187.04 72.264C186.416 69.512 185.696 67.064 184.896 64.936ZM205.008 64.456H202.576C202.864 63.72 203.104 62.904 203.28 62.04L201.6 61.816C201.472 62.728 201.264 63.608 200.976 64.456H199.44V76.136H201.04V74.872H203.408V75.672H205.008V64.456ZM201.04 73.336V70.312H203.408V73.336H201.04ZM201.04 68.824V66.024H203.408V68.824H201.04ZM207.92 68.344L206.56 69.192C207.552 70.472 208.352 71.64 208.944 72.696L210.288 71.768C209.728 70.776 208.944 69.64 207.92 68.344ZM213.248 64.456H208.384C208.624 63.688 208.832 62.872 208.992 62.008L207.344 61.8C206.96 63.992 206.256 65.848 205.2 67.352L206.208 68.68C206.8 67.912 207.312 67.048 207.744 66.088H211.616C211.584 70.616 211.536 73.256 211.44 74.024C211.344 74.648 211.008 74.968 210.432 74.968C209.904 74.968 209.28 74.936 208.576 74.888L208.976 76.408C209.808 76.472 210.384 76.504 210.704 76.504C212.08 76.504 212.848 75.944 213.008 74.824C213.168 73.512 213.248 70.056 213.248 64.456ZM215.072 66.536V68.136H219.088C218.752 69.224 218.4 70.296 218.016 71.32H225.712C224.96 72.136 223.92 72.952 222.608 73.752C221.616 73.432 220.576 73.144 219.488 72.872L218.608 74.184C221.104 74.808 223.52 75.672 225.888 76.776L226.816 75.336C226.048 75 225.264 74.68 224.432 74.392C225.92 73.32 227.024 72.264 227.728 71.224V69.784H220.4C220.576 69.272 220.752 68.712 220.928 68.136H229.6V66.536H221.36C221.472 66.056 221.584 65.576 221.696 65.064H228.64V63.512H222.032C222.128 62.968 222.24 62.424 222.336 61.848L220.624 61.704C220.496 62.312 220.384 62.904 220.256 63.512H216.176V65.064H219.904C219.776 65.544 219.664 66.04 219.536 66.536H215.072ZM235.024 67.96V71.016H238.768V71.608H234.256V76.664H235.792V72.92H238.768V73.96C238 74.024 237.216 74.072 236.432 74.12L236.768 75.48C238.592 75.304 240.32 75.096 241.952 74.84C241.984 74.952 242.016 75.08 242.08 75.24L241.712 75.224L242.08 76.616H243.712C244.72 76.616 245.232 76.088 245.232 75.032V71.608H240.336V71.016H244.144V67.96H240.336V67.384C242 67.304 243.456 67.192 244.704 67.064L244.016 65.896C241.36 66.152 238.144 66.28 234.336 66.28L234.736 67.48C236.16 67.48 237.504 67.464 238.768 67.432V67.96H235.024ZM240.24 72.92H241.2C241.312 73.16 241.424 73.416 241.536 73.688L240.24 73.832V72.92ZM242.656 69.848H240.336V69.144H242.656V69.848ZM238.768 69.848H236.528V69.144H238.768V69.848ZM242.464 75.256L243.264 74.904C243.024 74.232 242.752 73.56 242.464 72.92H243.728V74.712C243.728 75.096 243.568 75.288 243.264 75.288L242.464 75.256ZM243.328 63.656V64.44H234V63.656H243.328ZM234 65.656H244.912V62.36H232.384V67.224C232.368 70.52 231.872 73.192 230.912 75.272L232.16 76.408C233.376 73.848 233.984 70.792 234 67.224V65.656ZM255.952 70.744H257.6V72.232H254.208V73.752H257.6V76.712H259.232V73.752H261.696V72.232H259.232V70.744H261.36V69.256H259.232V67.928H257.6V69.256H256.544C256.64 68.936 256.72 68.6 256.8 68.216L255.44 67.976C255.216 69.16 254.752 70.12 254.08 70.84L255.04 72.024C255.392 71.656 255.696 71.224 255.952 70.744ZM256.224 64.136C256.096 64.568 255.936 64.952 255.728 65.272C255.392 65.784 254.896 66.216 254.24 66.568L255.216 67.816C256.048 67.256 256.672 66.632 257.104 65.944C257.392 65.4 257.616 64.808 257.776 64.136H259.68C259.648 65.064 259.6 65.624 259.52 65.832C259.424 66.04 259.184 66.152 258.816 66.168C258.448 66.136 257.984 66.104 257.424 66.056L257.808 67.432C258.336 67.48 258.784 67.512 259.168 67.512C259.936 67.512 260.464 67.272 260.784 66.824C261.104 66.36 261.264 64.968 261.28 62.664H254.304V64.136H256.224ZM249.184 69.896H250.176V71.576H249.184V69.896ZM251.488 69.896H252.496V71.576H251.488V69.896ZM252.496 68.52H251.488V66.952H252.496V68.52ZM250.176 68.52H249.184V66.952H250.176V68.52ZM249.104 72.968H252.496V74.76C252.496 75.08 252.336 75.24 252.048 75.24C251.76 75.24 251.44 75.208 251.104 75.16L251.456 76.536H252.496C253.424 76.536 253.904 76.104 253.904 75.24V65.528H252.272C252.56 65.112 252.832 64.616 253.12 64.056V62.92H250.464C250.56 62.664 250.672 62.408 250.768 62.152L249.248 61.8C248.592 63.464 247.84 64.76 246.976 65.672L247.776 66.632V71.512C247.76 73.24 247.472 74.648 246.912 75.768L248.032 76.792C248.592 75.752 248.944 74.472 249.104 72.968ZM250.576 65.528H249.056C249.312 65.144 249.568 64.728 249.808 64.28H251.344C251.088 64.744 250.832 65.16 250.576 65.528ZM268 64.12V65.704H271.04V66.664C271.04 67.4 270.976 68.104 270.88 68.776H267.328V70.36H270.512C269.808 72.6 268.384 74.216 266.24 75.24L267.312 76.664C269.792 75.336 271.408 73.24 272.176 70.36H277.568V68.776H276.256V64.12H272.656V61.864H271.04V64.12H268ZM272.656 65.704H274.64V68.776H272.496C272.592 67.992 272.656 67.16 272.656 66.28V65.704ZM264.432 62.264L263.072 63.128C264.032 64.536 264.8 65.832 265.36 66.984L266.752 66.04C266.208 64.952 265.44 63.704 264.432 62.264ZM265.392 68.936C264.72 71.176 263.936 73.384 263.008 75.544L264.64 76.248C265.488 74.168 266.256 71.928 266.944 69.56L265.392 68.936ZM276.56 76.568L277.76 75.368C276.08 73.448 274.64 72.024 273.424 71.08L272.352 72.12C273.92 73.528 275.312 75.016 276.56 76.568ZM279.216 64.056V65.672H283.568C283.552 66.168 283.52 66.808 283.488 67.608C283.408 69.112 283.104 70.472 282.576 71.672C282.032 72.872 280.912 74.184 279.216 75.592L280.432 76.776C281.856 75.624 282.96 74.344 283.744 72.952C284.304 71.944 284.688 70.84 284.912 69.624H290C289.968 71.832 289.92 73.176 289.824 73.672C289.632 74.568 289.232 75.032 288.608 75.064C288.016 75.064 287.296 75.032 286.448 74.984L286.944 76.504C287.648 76.552 288.256 76.584 288.784 76.584C290.032 76.552 290.848 75.928 291.216 74.68C291.472 73.816 291.632 71.592 291.696 68.04H285.104C285.168 67.064 285.2 66.28 285.232 65.672H293.52V64.056H287.616C287.264 63.176 286.864 62.408 286.448 61.768L284.864 62.36C285.264 62.904 285.6 63.464 285.888 64.056H279.216ZM301.152 64.456C300.848 64.84 300.528 65.256 300.192 65.672H295.936V66.984H299.072C298.704 67.4 298.32 67.816 297.92 68.232C298.864 68.408 299.824 68.616 300.784 68.84C299.536 69.112 297.84 69.256 295.696 69.256L296.592 70.632C299.248 70.584 301.408 70.184 303.088 69.432C304.64 69.848 306.192 70.328 307.728 70.872L308.672 69.592C307.328 69.176 306 68.792 304.704 68.472C305.216 68.072 305.696 67.576 306.176 66.984H308.768V65.672H302.048C302.24 65.432 302.432 65.176 302.656 64.92L301.152 64.456ZM302.848 68.04C302 67.848 301.168 67.688 300.352 67.56C300.512 67.384 300.704 67.192 300.896 66.984H304.304C303.904 67.368 303.424 67.72 302.848 68.04ZM308.896 62.984H303.12C302.944 62.536 302.768 62.12 302.592 61.752L300.864 62.04C301.072 62.328 301.264 62.648 301.456 62.984H295.776V65.448H297.344V64.36H307.328V65.448H308.896V62.984ZM295.424 71.24V72.68H300.112C299.104 73.512 297.44 74.264 295.136 74.952L296.032 76.424C298.592 75.432 300.432 74.264 301.52 72.92V76.616H303.216V72.952C304.416 74.328 306.272 75.448 308.8 76.328L309.536 74.856C307.376 74.312 305.744 73.576 304.624 72.68H309.264V71.24H303.216V70.136H301.52V71.24H295.424ZM120.576 85.992L119.424 87.08C120.576 88.008 121.456 88.872 122.064 89.672L123.264 88.488C122.528 87.656 121.632 86.824 120.576 85.992ZM129.68 100.408H133.344L133.744 98.76C133.312 98.792 132.688 98.824 131.872 98.856C131.04 98.856 130.24 98.872 129.44 98.872C128.224 98.872 127.152 98.856 126.24 98.84C125.312 98.808 124.624 98.68 124.16 98.44C123.792 98.232 123.424 97.912 123.072 97.496L122.912 97.336V91.24H119.248V92.776H121.36V97.16C120.72 97.512 120.016 98.328 119.216 99.608L120.448 100.744C121.248 99.304 121.792 98.6 122.096 98.6C122.288 98.6 122.48 98.728 122.688 99C123.152 99.544 123.696 99.912 124.336 100.104C125.008 100.264 125.84 100.36 126.864 100.376C127.872 100.392 128.816 100.408 129.68 100.408ZM124.144 88.216V89.768H125.84V90.856C125.84 91.432 125.808 91.96 125.744 92.472H123.584V94.04H125.424C125.072 95.24 124.48 96.136 123.648 96.744L124.656 98.072C125.824 97.192 126.624 95.848 127.072 94.04H129.472V98.296H131.104V94.04H133.456V92.472H131.104V89.768H132.944V88.216H131.104V85.864H129.472V88.216H127.456V85.832H125.84V88.216H124.144ZM127.456 89.768H129.472V92.472H127.344C127.408 91.848 127.456 91.176 127.456 90.472V89.768ZM135.056 92.296V93.96H149.6V92.296H135.056ZM157.52 85.832V90.856H155.056V87.08H153.36V90.856H151.168V92.472H157.664V97.096H159.344V92.472H165.504V90.856H159.216V89.176H163.92V87.592H159.216V85.832H157.52ZM162.848 93.32C161.184 97.224 157.584 99.192 152.048 99.192L152.656 100.792C158.432 100.776 162.336 98.552 164.368 94.12L162.848 93.32ZM154.832 92.888C153.936 94.232 152.816 95.416 151.504 96.424L152.576 97.784C153.936 96.696 155.088 95.4 156.016 93.928L154.832 92.888ZM173.152 92.008C172.48 92.328 171.792 92.632 171.12 92.904V90.232H173.024V88.616H171.12V85.928H169.424V88.616H167.088V90.232H169.424V93.496C168.56 93.752 167.696 93.976 166.832 94.152L167.248 95.752C167.984 95.544 168.704 95.32 169.424 95.096V98.456C169.424 98.808 169.232 99 168.864 99C168.416 99 167.92 98.968 167.408 98.904L167.792 100.52H169.44C170.56 100.52 171.12 99.976 171.12 98.888V94.504C171.808 94.248 172.48 93.96 173.152 93.672V92.008ZM173.36 86.92V88.552H177.44V98.344C177.44 98.76 177.264 98.968 176.944 98.968C176.16 98.968 175.328 98.936 174.464 98.872L174.832 100.488H177.536C178.592 100.488 179.136 99.912 179.136 98.776V88.552H181.552V86.92H173.36ZM183.44 86.584V88.184H184.8C184.448 90.312 183.792 92.232 182.816 93.944L183.696 95.336C183.904 95.016 184.112 94.68 184.304 94.328V100.136H185.808V98.888H187.92C187.808 99.112 187.68 99.368 187.536 99.624L188.736 100.68C189.952 98.664 190.624 96.264 190.752 93.496H191.024C191.344 94.936 191.952 96.232 192.864 97.4C192.016 98.264 190.944 98.984 189.664 99.528L190.688 100.808C191.936 100.216 193.024 99.464 193.92 98.552C194.752 99.352 195.76 100.072 196.944 100.712L197.84 99.256C196.688 98.712 195.712 98.072 194.912 97.368C195.696 96.248 196.256 94.904 196.576 93.368V91.992H194.176V89.224H195.792C195.632 89.832 195.44 90.392 195.216 90.872L196.672 91.288C197.024 90.36 197.264 89.416 197.408 88.488V87.688H194.176V85.864H192.56V87.688H189.248V92.44C189.216 94.504 188.896 96.328 188.32 97.912V91.336H185.6C185.92 90.344 186.16 89.304 186.352 88.184H188.576V86.584H183.44ZM192.464 93.496H195.008C194.752 94.488 194.352 95.4 193.824 96.216C193.184 95.384 192.72 94.488 192.464 93.496ZM190.784 91.992V89.224H192.56V91.992H190.784ZM185.808 97.416V92.808H186.848V97.416H185.808ZM203.472 94.12V98.488H209.504V94.12H203.472ZM208.016 97.096H204.976V95.496H208.016V97.096ZM210.624 87.88V89.16H202.4V87.88H210.624ZM202.4 90.664H212.24V86.328H200.768V92.824C200.752 95.528 200.128 97.736 198.88 99.432L200.192 100.616C201.6 98.536 202.336 96.04 202.4 93.144H211.408C211.376 96.168 211.328 97.928 211.248 98.424C211.136 98.92 210.784 99.176 210.176 99.176C209.632 99.176 208.96 99.144 208.192 99.112L208.56 100.504C209.44 100.552 210.064 100.584 210.448 100.584C211.824 100.584 212.608 100.104 212.768 99.144C212.928 98.184 213.008 95.688 213.008 91.64H202.4V90.664ZM215.456 86.36V100.68H217.088V87.928H219.088C218.688 89.192 218.128 90.616 217.424 92.2C218.496 93.528 219.04 94.728 219.04 95.8C219.04 96.056 218.976 96.232 218.848 96.328C218.72 96.424 218.464 96.472 218.08 96.504C217.84 96.504 217.536 96.472 217.184 96.408L217.728 98.104C218.912 98.088 219.76 97.864 220.24 97.448C220.56 97.128 220.72 96.568 220.72 95.8C220.64 94.712 220.112 93.432 219.12 91.944C219.744 90.44 220.288 89.016 220.768 87.672V86.36H215.456ZM222.864 90.76H226.912V92.088H222.864V90.76ZM226.912 89.256H222.864V87.912H226.912V89.256ZM228.416 94.024C227.808 94.76 227.168 95.32 226.512 95.72C226.256 95.272 226.016 94.776 225.808 94.232L224.544 94.936C225.44 97.464 226.896 99.336 228.88 100.52L229.856 99.08C228.864 98.536 228.016 97.816 227.296 96.904C228.096 96.456 228.832 95.864 229.472 95.096L228.416 94.024ZM222.864 93.608H228.544V86.344H221.216V98.504C221.216 98.728 221.072 98.872 220.816 98.968L221.216 100.44C223.008 99.992 224.496 99.512 225.68 99.016L225.28 97.464C224.48 97.848 223.68 98.152 222.864 98.408V93.608ZM237.52 88.664L236.224 89.08C236.528 90.488 236.784 91.96 236.992 93.496L238.272 93.16C238.048 91.464 237.808 89.976 237.52 88.664ZM238.416 85.992V91.736C238.384 95.352 237.712 97.976 236.384 99.608L237.616 100.696C238.448 99.672 239.056 98.312 239.44 96.632C239.776 97.224 240.16 97.976 240.608 98.888L241.536 97.48C240.928 96.552 240.336 95.72 239.744 94.968C239.872 93.992 239.936 92.92 239.952 91.736V91.48C240.736 90.76 241.376 90.024 241.872 89.288L240.96 88.136C240.672 88.632 240.336 89.128 239.952 89.624V85.992H238.416ZM242.272 86.248V90.696H243.792V91.368H241.776V92.552H243.792V93.272H241.136V94.52H243.392C242.848 94.984 242.08 95.384 241.12 95.704L241.92 97.032C242.304 96.84 242.672 96.616 243.024 96.392C243.472 96.744 243.84 97.096 244.112 97.416L245.008 96.52C244.72 96.216 244.4 95.912 244.016 95.624C244.368 95.288 244.688 94.92 244.944 94.52H247.424C247.616 94.856 247.872 95.192 248.16 95.528C247.872 95.816 247.52 96.104 247.136 96.36L247.872 97.32C248.32 97.032 248.72 96.728 249.072 96.392C249.424 96.68 249.808 96.952 250.256 97.24L251.184 96.072C250.16 95.608 249.392 95.096 248.848 94.52H250.928V93.272H248.656V92.552H250.624V91.368H248.656V90.696H250.144V86.248H242.272ZM245.264 93.272V92.552H247.2V93.272H245.264ZM247.2 91.368H245.264V90.696H247.2V91.368ZM248.704 89.608H243.712V89.016H248.704V89.608ZM243.712 88.008V87.384H248.704V88.008H243.712ZM245.552 100.648C246.48 100.648 246.944 100.2 246.944 99.32V94.968H245.376V98.936C245.376 99.192 245.264 99.32 245.056 99.32C244.736 99.32 244.4 99.288 244.032 99.224L244.368 100.648H245.552ZM244.688 97.32C243.744 97.816 242.608 98.232 241.296 98.568L241.92 99.992C243.168 99.56 244.208 99.064 245.04 98.52L244.688 97.32ZM247.776 97.512L247.024 98.6C248.032 99.016 249.008 99.592 249.968 100.328L250.816 99C249.904 98.424 248.896 97.928 247.776 97.512ZM253.216 91.08H257.104C256.016 94.36 254.4 96.952 252.24 98.872L253.12 100.424C254.832 99.032 256.256 97.176 257.392 94.872C257.904 95.752 258.64 96.584 259.616 97.384C258.528 98.04 257.2 98.648 255.648 99.208L256.528 100.776C258.32 100.072 259.84 99.288 261.088 98.424C262.384 99.24 263.984 99.992 265.888 100.696L266.752 99.112C265.104 98.568 263.68 97.976 262.48 97.32C263.616 96.264 264.384 95.112 264.768 93.864V92.456H258.432C258.576 92.008 258.72 91.56 258.88 91.08H266.576V89.496H259.296C259.568 88.408 259.792 87.256 259.984 86.024L258.272 85.816C258.096 87.096 257.856 88.328 257.568 89.496H255.36L256.16 86.6L254.496 86.328L253.216 91.08ZM258.608 93.96H263.072C262.64 94.824 261.952 95.656 261.008 96.424C259.936 95.656 259.136 94.84 258.608 93.96ZM262.672 85.8L261.536 86.888C262.72 87.784 263.616 88.648 264.24 89.464L265.424 88.264C264.688 87.432 263.76 86.616 262.672 85.8ZM271.072 86.36V92.072H280.272V86.36H271.072ZM278.592 90.504H272.752V87.928H278.592V90.504ZM274.944 93.128H268.912V100.424H270.544V99.672H273.328V100.424H274.944V93.128ZM270.544 98.12V94.696H273.328V98.12H270.544ZM282.416 93.128H276.192V100.424H277.824V99.672H280.752V100.424H282.416V93.128ZM277.824 98.12V94.696H280.752V98.12H277.824ZM288.016 86.056V90.168H286.768V86.344H285.184V93.688C285.168 96.36 284.832 98.312 284.192 99.528L285.376 100.568C286.128 99.352 286.576 97.56 286.72 95.192H288.112V100.568H289.68V93.656H286.768V91.656H289.568V86.056H288.016ZM293.776 88.616V90.024H292.192V88.616H293.776ZM293.744 91.416C293.696 91.928 293.616 92.424 293.504 92.872H292.192V91.416H293.744ZM292.8 94.296C292.416 94.712 291.888 95.08 291.216 95.4L291.712 96.184H290.08V97.768H294.816V100.616H296.416V97.768H299.024V96.184H296.416V94.744H294.816V96.184H292.672C293.44 95.768 294.016 95.24 294.416 94.568C294.464 94.472 294.512 94.392 294.56 94.296H298.336V87.176H294.88C295.056 86.792 295.2 86.408 295.296 85.992L293.648 85.768C293.552 86.248 293.392 86.712 293.2 87.176H290.688V94.296H292.8ZM295.04 92.872C295.136 92.424 295.2 91.944 295.248 91.416H296.816V92.872H295.04ZM295.28 90.024V88.616H296.816V90.024H295.28ZM302.176 92.232V100.664H303.84V89.8C304.432 88.776 304.912 87.688 305.28 86.568L303.76 85.848C302.992 88.296 301.792 90.424 300.192 92.232L300.704 93.88C301.216 93.336 301.712 92.792 302.176 92.232ZM304.656 89.592V91.192H307.696C307.344 94.92 306.144 97.704 304.128 99.56L305.376 100.648C307.616 98.536 308.928 95.384 309.312 91.192H314.592V89.592H309.408C309.408 89.368 309.424 89.128 309.424 88.872V85.912H307.808V88.872C307.808 89.112 307.792 89.352 307.792 89.592H304.656ZM313.36 100.408C313.824 100.376 314.192 100.216 314.48 99.912C314.704 99.624 314.88 98.616 315.024 96.872L313.536 96.392C313.488 97.704 313.408 98.456 313.312 98.632C313.184 98.792 313.072 98.888 312.96 98.888H311.76C311.536 98.888 311.424 98.776 311.424 98.552V91.912H309.84V98.84C309.84 99.88 310.32 100.408 311.312 100.408H313.36ZM311.456 86.056L310.384 87.096C311.456 87.864 312.288 88.6 312.864 89.288L314 88.136C313.312 87.432 312.464 86.744 311.456 86.056ZM316.752 87.272V88.84H318.832V90.152C318.064 90.248 317.296 90.328 316.528 90.392L316.912 91.944C317.552 91.848 318.192 91.768 318.832 91.672V92.584C318.832 92.872 318.672 93.032 318.384 93.032C317.968 93.032 317.536 93 317.088 92.936L317.44 94.488H318.944C319.952 94.488 320.464 93.976 320.464 92.984V91.416C321.04 91.32 321.6 91.208 322.16 91.112V89.576C321.6 89.688 321.04 89.8 320.464 89.896V88.84H322.208V87.272H320.464V85.88H318.832V87.272H316.752ZM323.184 89.56L322.352 90.776C322.8 90.952 323.248 91.16 323.696 91.4C323.264 92.072 322.672 92.648 321.936 93.096L323.056 94.104H322.528C322.48 94.424 322.416 94.728 322.32 95.048H316.752V96.648H321.504C321.328 96.872 321.12 97.08 320.896 97.288C320 98.024 318.544 98.6 316.528 99L317.184 100.568C319.6 100.008 321.296 99.256 322.272 98.328C322.752 97.848 323.152 97.288 323.472 96.648H328.032C328.032 97.224 328 97.768 327.936 98.264C327.872 98.744 327.584 99 327.072 99.032C326.368 99.032 325.6 98.984 324.752 98.888L325.2 100.472C325.728 100.52 326.384 100.552 327.168 100.552C328.128 100.552 328.8 100.216 329.184 99.576C329.536 98.92 329.728 97.416 329.728 95.048H324.032C324.096 94.744 324.16 94.424 324.208 94.104H323.328C324.064 93.592 324.656 92.952 325.12 92.2C325.568 92.488 326.032 92.808 326.496 93.16L327.328 91.848C326.832 91.496 326.304 91.144 325.744 90.824C325.936 90.232 326.064 89.576 326.128 88.84H327.568V90.696C327.568 92.136 327.728 93.112 328.08 93.624C328.448 94.12 328.88 94.376 329.392 94.376C329.84 94.376 330.224 94.168 330.56 93.768C330.848 93.336 331.072 92.6 331.2 91.576L329.872 90.92C329.712 92.088 329.568 92.68 329.424 92.68C329.2 92.68 329.072 92.008 329.056 90.696V87.272H326.16V85.864H324.544V87.272H322.8V88.84H324.496C324.464 89.256 324.384 89.656 324.288 90.056C323.936 89.88 323.568 89.72 323.184 89.56Z" fill="#EECEA9"/>
<defs>
<filter id="filter0_d_164_2783" x="23.5039" y="7.41064" width="403.205" height="137.589" filterUnits="userSpaceOnUse" color-interpolation-filters="sRGB">
<feFlood flood-opacity="0" result="BackgroundImageFix"/>
<feColorMatrix in="SourceAlpha" type="matrix" values="0 0 0 0 0 0 0 0 0 0 0 0 0 0 0 0 0 0 127 0" result="hardAlpha"/>
<feOffset dy="4"/>
<feGaussianBlur stdDeviation="2"/>
<feComposite in2="hardAlpha" operator="out"/>
<feColorMatrix type="matrix" values="0 0 0 0 0 0 0 0 0 0 0 0 0 0 0 0 0 0 0.25 0"/>
<feBlend mode="normal" in2="BackgroundImageFix" result="effect1_dropShadow_164_2783"/>
<feBlend mode="normal" in="SourceGraphic" in2="effect1_dropShadow_164_2783" result="shape"/>
</filter>
<linearGradient id="paint0_linear_164_2783" x1="225" y1="27" x2="225" y2="137" gradientUnits="userSpaceOnUse">
<stop stop-color="#373D4E"/>
<stop offset="1" stop-color="#20222E"/>
</linearGradient>
<linearGradient id="paint1_linear_164_2783" x1="225" y1="32.5" x2="221.5" y2="114.5" gradientUnits="userSpaceOnUse">
<stop stop-color="#545766"/>
<stop offset="1" stop-color="#20222E" stop-opacity="0.88"/>
</linearGradient>
</defs>
</svg>
