<svg width="235" height="28" viewBox="0 0 235 28" fill="none" xmlns="http://www.w3.org/2000/svg">
<path d="M7.352 1.296C6.488 2.196 5.408 3.024 4.112 3.816C2.816 4.536 1.592 5.04 0.44 5.328V9.504C2.816 8.82 4.76 7.776 6.308 6.372V27H10.52V1.296H7.352ZM24.5656 0.791998C21.7936 0.791998 19.5976 1.512 17.9776 2.988C16.5016 4.284 15.7816 5.904 15.7816 7.848C15.7816 9.144 16.0696 10.26 16.6456 11.16C17.2576 12.096 18.1936 12.852 19.4896 13.356V13.428C18.2656 13.752 17.2576 14.472 16.3936 15.588C15.3856 16.812 14.9176 18.216 14.9176 19.8C14.9176 22.104 15.7456 23.94 17.4376 25.38C19.0936 26.784 21.4696 27.504 24.5656 27.504C27.6256 27.504 30.0016 26.784 31.6936 25.38C33.3496 23.94 34.2136 22.104 34.2136 19.8C34.2136 18.216 33.7096 16.812 32.7376 15.588C31.8736 14.472 30.8296 13.752 29.6416 13.428V13.356C30.9016 12.852 31.8376 12.096 32.4856 11.16C33.0616 10.26 33.3496 9.144 33.3496 7.848C33.3496 5.904 32.5936 4.284 31.1536 2.988C29.4976 1.512 27.3016 0.791998 24.5656 0.791998ZM24.5656 4.14C26.0776 4.14 27.2656 4.536 28.2016 5.364C28.9936 6.084 29.3896 6.948 29.3896 7.992C29.3896 9.18 29.0656 10.116 28.4176 10.8C27.6256 11.628 26.3296 12.06 24.5656 12.06C22.7656 12.06 21.5056 11.628 20.7136 10.8C20.0656 10.116 19.7416 9.18 19.7416 7.992C19.7416 6.948 20.1376 6.084 20.9296 5.364C21.8296 4.536 23.0536 4.14 24.5656 4.14ZM24.5656 15.192C26.3656 15.192 27.7336 15.624 28.7056 16.524C29.5696 17.316 30.0376 18.432 30.0376 19.8C30.0376 21.096 29.5696 22.104 28.6696 22.896C27.6616 23.688 26.2936 24.12 24.5656 24.12C22.8016 24.12 21.4696 23.724 20.5336 22.932C19.5616 22.14 19.0936 21.096 19.0936 19.8C19.0936 18.432 19.5256 17.316 20.4616 16.488C21.3976 15.624 22.7656 15.192 24.5656 15.192ZM46.1516 0.791998C43.3796 0.791998 41.1836 1.512 39.5636 2.988C38.0876 4.284 37.3676 5.904 37.3676 7.848C37.3676 9.144 37.6556 10.26 38.2316 11.16C38.8436 12.096 39.7796 12.852 41.0756 13.356V13.428C39.8516 13.752 38.8436 14.472 37.9796 15.588C36.9716 16.812 36.5036 18.216 36.5036 19.8C36.5036 22.104 37.3316 23.94 39.0236 25.38C40.6796 26.784 43.0556 27.504 46.1516 27.504C49.2116 27.504 51.5876 26.784 53.2796 25.38C54.9356 23.94 55.7996 22.104 55.7996 19.8C55.7996 18.216 55.2956 16.812 54.3236 15.588C53.4596 14.472 52.4156 13.752 51.2276 13.428V13.356C52.4876 12.852 53.4236 12.096 54.0716 11.16C54.6476 10.26 54.9356 9.144 54.9356 7.848C54.9356 5.904 54.1796 4.284 52.7396 2.988C51.0836 1.512 48.8876 0.791998 46.1516 0.791998ZM46.1516 4.14C47.6636 4.14 48.8516 4.536 49.7876 5.364C50.5796 6.084 50.9756 6.948 50.9756 7.992C50.9756 9.18 50.6516 10.116 50.0036 10.8C49.2116 11.628 47.9156 12.06 46.1516 12.06C44.3516 12.06 43.0916 11.628 42.2996 10.8C41.6516 10.116 41.3276 9.18 41.3276 7.992C41.3276 6.948 41.7236 6.084 42.5156 5.364C43.4156 4.536 44.6396 4.14 46.1516 4.14ZM46.1516 15.192C47.9516 15.192 49.3196 15.624 50.2916 16.524C51.1556 17.316 51.6236 18.432 51.6236 19.8C51.6236 21.096 51.1556 22.104 50.2556 22.896C49.2476 23.688 47.8796 24.12 46.1516 24.12C44.3876 24.12 43.0556 23.724 42.1196 22.932C41.1476 22.14 40.6796 21.096 40.6796 19.8C40.6796 18.432 41.1116 17.316 42.0476 16.488C42.9836 15.624 44.3516 15.192 46.1516 15.192ZM67.7375 0.791998C64.7135 0.791998 62.3735 2.016 60.7175 4.536C59.1335 6.912 58.3415 10.116 58.3415 14.148C58.3415 18.18 59.1335 21.384 60.7175 23.76C62.3735 26.244 64.7135 27.504 67.7375 27.504C70.7255 27.504 73.0655 26.244 74.7575 23.76C76.3415 21.384 77.1335 18.18 77.1335 14.148C77.1335 10.116 76.3415 6.912 74.7575 4.536C73.0655 2.016 70.7255 0.791998 67.7375 0.791998ZM67.7375 4.356C69.7535 4.356 71.1935 5.472 72.0575 7.776C72.6335 9.324 72.9215 11.448 72.9215 14.148C72.9215 16.812 72.6335 18.936 72.0575 20.52C71.1935 22.788 69.7535 23.94 67.7375 23.94C65.6855 23.94 64.2455 22.788 63.4175 20.52C62.8415 18.936 62.5535 16.812 62.5535 14.148C62.5535 11.448 62.8415 9.324 63.4175 7.776C64.2455 5.472 65.6855 4.356 67.7375 4.356ZM89.3234 0.791998C86.2994 0.791998 83.9594 2.016 82.3034 4.536C80.7194 6.912 79.9274 10.116 79.9274 14.148C79.9274 18.18 80.7194 21.384 82.3034 23.76C83.9594 26.244 86.2994 27.504 89.3234 27.504C92.3114 27.504 94.6514 26.244 96.3434 23.76C97.9274 21.384 98.7194 18.18 98.7194 14.148C98.7194 10.116 97.9274 6.912 96.3434 4.536C94.6514 2.016 92.3114 0.791998 89.3234 0.791998ZM89.3234 4.356C91.3394 4.356 92.7794 5.472 93.6434 7.776C94.2194 9.324 94.5074 11.448 94.5074 14.148C94.5074 16.812 94.2194 18.936 93.6434 20.52C92.7794 22.788 91.3394 23.94 89.3234 23.94C87.2714 23.94 85.8314 22.788 85.0034 20.52C84.4274 18.936 84.1394 16.812 84.1394 14.148C84.1394 11.448 84.4274 9.324 85.0034 7.776C85.8314 5.472 87.2714 4.356 89.3234 4.356ZM110.909 0.791998C107.885 0.791998 105.545 2.016 103.889 4.536C102.305 6.912 101.513 10.116 101.513 14.148C101.513 18.18 102.305 21.384 103.889 23.76C105.545 26.244 107.885 27.504 110.909 27.504C113.897 27.504 116.237 26.244 117.929 23.76C119.513 21.384 120.305 18.18 120.305 14.148C120.305 10.116 119.513 6.912 117.929 4.536C116.237 2.016 113.897 0.791998 110.909 0.791998ZM110.909 4.356C112.925 4.356 114.365 5.472 115.229 7.776C115.805 9.324 116.093 11.448 116.093 14.148C116.093 16.812 115.805 18.936 115.229 20.52C114.365 22.788 112.925 23.94 110.909 23.94C108.857 23.94 107.417 22.788 106.589 20.52C106.013 18.936 105.725 16.812 105.725 14.148C105.725 11.448 106.013 9.324 106.589 7.776C107.417 5.472 108.857 4.356 110.909 4.356ZM136.204 1.296V27H140.416V16.524H147.076C148.516 16.524 149.632 16.812 150.388 17.46C151.108 18.072 151.54 19.08 151.684 20.484L152.008 23.652C152.152 25.092 152.512 26.208 153.124 27H157.696C156.832 26.064 156.292 24.804 156.148 23.22L155.716 19.08C155.428 16.56 154.168 15.084 151.936 14.58V14.508C153.304 14.148 154.42 13.392 155.212 12.24C155.932 11.196 156.292 10.008 156.292 8.676C156.292 6.228 155.464 4.356 153.88 3.06C152.368 1.872 150.28 1.296 147.652 1.296H136.204ZM140.416 4.896H147.076C148.804 4.896 150.064 5.184 150.856 5.832C151.648 6.444 152.044 7.452 152.044 8.856C152.044 10.152 151.648 11.16 150.856 11.88C149.992 12.564 148.732 12.924 147.076 12.924H140.416V4.896ZM161.305 1.296V27H165.517V9.288H165.661L173.221 27H176.857L184.417 9.288H184.561V27H188.773V1.296H183.841L175.129 21.456H174.985L166.237 1.296H161.305ZM193.825 1.296V27H205.633C208.369 27 210.529 26.496 212.041 25.488C213.805 24.264 214.705 22.356 214.705 19.764C214.705 18.036 214.273 16.632 213.445 15.624C212.581 14.58 211.321 13.896 209.629 13.572C210.925 13.068 211.897 12.384 212.581 11.448C213.265 10.44 213.625 9.216 213.625 7.776C213.625 5.832 212.941 4.284 211.609 3.132C210.169 1.908 208.153 1.296 205.597 1.296H193.825ZM198.037 4.752H204.553C206.281 4.752 207.505 5.04 208.297 5.616C209.017 6.156 209.413 7.056 209.413 8.28C209.413 9.612 209.017 10.584 208.297 11.196C207.541 11.772 206.281 12.096 204.481 12.096H198.037V4.752ZM198.037 15.552H205.129C207.001 15.552 208.369 15.876 209.233 16.524C210.061 17.172 210.493 18.216 210.493 19.692C210.493 21.132 209.917 22.14 208.765 22.788C207.865 23.292 206.605 23.544 205.021 23.544H198.037V15.552Z" fill="url(#paint0_linear_0_1)"/>
<path d="M233.642 13.318H228.574V21.732C228.574 22.516 229.022 22.908 229.918 22.908H232.648C233.306 22.88 233.726 22.558 233.922 21.956C234.034 21.592 234.146 20.99 234.23 20.136L232.872 19.702C232.802 20.542 232.732 21.032 232.662 21.186C232.578 21.41 232.41 21.522 232.172 21.55H230.534C230.17 21.55 230.002 21.41 230.002 21.158V18.19H233.642V13.318ZM230.002 16.888V14.62H232.256V16.888H230.002ZM224.318 12.436V14.228H222.162V15.544H224.318V17.196H221.924V18.54H224.654V23.02C224.262 22.726 223.898 22.32 223.562 21.802C223.674 21.018 223.744 20.22 223.772 19.38L222.47 19.226C222.386 21.158 222.05 22.908 221.434 24.49L222.554 25.484C222.834 24.812 223.058 24.084 223.254 23.328C223.716 23.944 224.248 24.378 224.836 24.644C225.662 25.008 227.72 25.204 230.996 25.204H234.258L234.51 23.804C233.67 23.86 232.396 23.888 230.688 23.902C228.476 23.902 226.936 23.804 226.068 23.636V21.424H227.888V20.108H226.068V18.54H227.958V17.196H225.774V15.544H227.776V14.228H225.774V12.436H224.318Z" fill="#DA7B6C"/>
<defs>
<linearGradient id="paint0_linear_0_1" x1="8.5" y1="14" x2="217" y2="14" gradientUnits="userSpaceOnUse">
<stop stop-color="#9A3321"/>
<stop offset="1" stop-color="#E18374"/>
</linearGradient>
</defs>
</svg>
