<svg width="164" height="48" viewBox="0 0 164 48" fill="none" xmlns="http://www.w3.org/2000/svg">
<path d="M41.1337 25.3463C41.1337 35.3735 29.4817 41.6543 25.6177 43.4614C25.2329 43.6414 24.8135 43.7355 24.3887 43.7371C23.9639 43.7388 23.5439 43.648 23.1577 43.4711C19.2913 41.6951 7.64648 35.5031 7.64648 25.3487V8.56785C13.5793 4.43025 31.3753 3.80625 41.1313 8.56785C41.1337 12.3887 41.1337 21.2879 41.1337 25.3463Z" fill="#FFEEE4"/>
<path d="M38.4075 7.43994V23.9999C38.4075 29.0279 35.6883 35.3711 24.3915 41.3471C19.1619 39.8759 16.4907 38.7887 10.6562 33.9551C13.7907 37.4015 21.0771 43.8287 24.5307 43.7351C27.9843 43.6415 41.0115 34.1831 41.0115 27.1007V8.56314L38.4075 7.43994Z" fill="#D27162"/>
<path d="M24.3799 44.6977C23.8279 44.6977 23.2735 44.5801 22.7599 44.3425C18.9895 42.6097 6.68945 36.1225 6.68945 25.3465V8.56571C6.68945 8.25131 6.84305 7.95851 7.09985 7.77851C13.1887 3.53291 31.3399 2.71691 41.5543 7.70411C41.8831 7.86491 42.0943 8.20091 42.0943 8.56571V25.3465C42.0943 35.9905 29.7943 42.5665 26.0263 44.3305C25.511 44.5721 24.9489 44.6975 24.3799 44.6977ZM8.60945 9.08411V25.3465C8.60945 34.9801 20.0527 40.9849 23.5615 42.5977C24.0871 42.8401 24.6895 42.8377 25.2127 42.5929C28.7239 40.9513 40.1743 34.8577 40.1743 25.3489V9.17291C30.7783 4.91291 14.4679 5.50811 8.60945 9.08411Z" fill="#A74230"/>
<path d="M36.4648 25.1042C36.4648 32.3354 28.0624 36.8642 25.276 38.1674C24.9987 38.2977 24.6963 38.3659 24.39 38.3671C24.0836 38.3684 23.7807 38.3027 23.5024 38.1746C20.7136 36.893 12.3184 32.429 12.3184 25.1066V13.0058C16.5952 10.0226 29.4304 9.57136 36.4648 13.0058V25.1042Z" fill="#EDC0AD"/>
<path d="M33.4107 12.3311V23.3615C33.4107 26.3039 34.0035 30.163 24.3939 35.4935C19.6251 34.0222 15.5811 32.1287 13.0059 27.1007C14.8899 31.8287 18.9915 37.2527 24.3939 38.3638C29.9811 36.9622 36.4683 30.3383 36.4683 25.1039V12.8399L33.4107 12.3311Z" fill="#DA7B6C"/>
<path d="M24.3842 39.3264C23.9474 39.3264 23.5106 39.2328 23.1026 39.0456C20.3474 37.7808 11.3594 33.0336 11.3594 25.104V13.0032C11.3594 12.6888 11.513 12.396 11.7698 12.216C16.217 9.11525 29.4482 8.51045 36.8858 12.1416C37.2146 12.3024 37.4258 12.6384 37.4258 13.0032V25.104C37.4258 32.9376 28.4378 37.7472 25.685 39.036C25.278 39.2273 24.8339 39.3265 24.3842 39.3264ZM13.2794 13.5288V25.104C13.2794 31.8912 21.413 36.1536 23.9042 37.3008C24.2114 37.4424 24.5642 37.44 24.869 37.2984C27.365 36.132 35.5034 31.8048 35.5034 25.1064V13.6152C28.8386 10.6776 17.5106 11.0664 13.2794 13.5288Z" fill="#A74230"/>
<path d="M18.5378 13.1927C18.2522 13.1927 18.0002 12.9887 17.9474 12.7007C17.8874 12.3743 18.1058 12.0623 18.4298 12.0023C18.8906 11.9183 19.373 11.8439 19.8602 11.7815C20.1866 11.7407 20.489 11.9711 20.5322 12.2999C20.5423 12.3781 20.5369 12.4575 20.5164 12.5336C20.4958 12.6097 20.4604 12.6809 20.4123 12.7433C20.3641 12.8057 20.3041 12.858 20.2358 12.8973C20.1674 12.9365 20.092 12.9619 20.0138 12.9719C19.5482 13.0319 19.0874 13.1015 18.6458 13.1831C18.6074 13.1903 18.5714 13.1927 18.5378 13.1927Z" fill="white"/>
<path d="M14.0727 25.1328C13.9135 25.1328 13.7609 25.0696 13.6484 24.9571C13.5359 24.8446 13.4727 24.692 13.4727 24.5328V13.9104C13.4727 13.6704 13.6167 13.452 13.8375 13.3584C14.4135 13.1136 14.9799 12.9024 15.5655 12.7128C15.8799 12.612 16.2183 12.7848 16.3215 13.0992C16.4223 13.4136 16.2495 13.752 15.9351 13.8552C15.5079 13.992 15.0903 14.1432 14.6727 14.3112V24.5352C14.6727 24.8664 14.4039 25.1328 14.0727 25.1328Z" fill="white"/>
<path d="M23.2193 28.0634C22.9769 28.0634 22.7417 27.9722 22.5617 27.8042L18.1913 23.705C18.0117 23.5295 17.908 23.2906 17.9026 23.0396C17.8971 22.7885 17.9903 22.5453 18.1621 22.3622C18.3339 22.1791 18.5707 22.0706 18.8216 22.0601C19.0725 22.0495 19.3175 22.1378 19.5041 22.3058L23.1521 25.7258L29.9537 18.0002C30.1236 17.8146 30.3595 17.703 30.6108 17.6894C30.8621 17.6758 31.1087 17.7613 31.2976 17.9276C31.4865 18.0939 31.6026 18.3276 31.621 18.5786C31.6395 18.8296 31.5587 19.0778 31.3961 19.2698L23.9417 27.7394C23.8566 27.8357 23.7531 27.914 23.6373 27.9697C23.5214 28.0253 23.3956 28.0572 23.2673 28.0634H23.2193Z" fill="#A74230"/>
<path d="M72.632 7.444C68.456 12.052 63.236 15.904 56.936 19L58.952 22.672C65.216 19.324 70.22 15.364 74 10.828C78.104 15.688 83.072 19.612 88.904 22.636L90.956 18.964C85.052 16.156 79.868 12.34 75.368 7.444H72.632ZM73.136 17.2V35.848H67.448V22.384H63.74V35.848H58.628V39.52H88.94V35.848H76.916V28.36H86.312V24.724H76.916V17.2H73.136ZM104.204 7.66V35.848H93.908V39.52H126.092V35.848H115.724V7.66H111.944V35.848H107.984V7.66H104.204ZM122.096 14.464C120.584 20.872 118.856 26.2 116.84 30.376L120.224 31.564C122.312 26.956 124.04 21.556 125.408 15.4L122.096 14.464ZM97.76 14.356L94.556 15.436C96.428 20.656 97.94 26.056 99.164 31.672L102.584 30.844C101.18 24.652 99.56 19.144 97.76 14.356ZM138.188 7.876V17.02H135.164V8.524H131.456V24.616C131.42 30.628 130.664 34.984 129.224 37.72L132.068 40.204C133.724 37.468 134.696 33.472 135.056 28.18H138.296V40.6H141.968V38.26L144.416 40.852C146.684 36.568 147.908 30.808 148.052 23.608V21.124H149.096C149.564 25.084 150.824 28.756 152.84 32.176C151.112 34.3 148.952 36.1 146.36 37.54L148.124 40.924C150.788 39.484 153.092 37.612 155.036 35.38C156.548 37.324 158.348 39.196 160.472 40.96L162.956 38.116C160.652 36.46 158.708 34.588 157.124 32.536C159.14 29.296 160.544 25.372 161.3 20.8V17.596H148.052V12.988C153.2 12.772 157.88 12.052 162.092 10.828L160.292 7.48C155.612 9.028 150.356 9.856 144.452 10V23.608C144.308 29.404 143.48 34.012 141.968 37.432V24.616H135.164V20.584H141.86V7.876H138.188ZM152.408 21.124H157.7C157.16 24.076 156.224 26.74 154.928 29.116C153.632 26.668 152.768 24.004 152.408 21.124Z" fill="url(#paint0_linear_99_2702)"/>
<defs>
<linearGradient id="paint0_linear_99_2702" x1="60.7064" y1="24" x2="164" y2="24" gradientUnits="userSpaceOnUse">
<stop stop-color="#9A3321"/>
<stop offset="1" stop-color="#E18374"/>
</linearGradient>
</defs>
</svg>
