<svg width="70" height="40" viewBox="0 0 70 40" fill="none" xmlns="http://www.w3.org/2000/svg">
<path d="M0 0H46C59.2548 0 70 10.7452 70 24V40H24C10.7452 40 0 29.2548 0 16V0Z" fill="url(#paint0_linear_90_1774)"/>
<path d="M21.644 17.594V18.994H25.158C24.864 19.946 24.556 20.884 24.22 21.78H30.954C30.296 22.494 29.386 23.208 28.238 23.908C27.37 23.628 26.46 23.376 25.508 23.138L24.738 24.286C26.922 24.832 29.036 25.588 31.108 26.554L31.92 25.294C31.248 25 30.562 24.72 29.834 24.468C31.136 23.53 32.102 22.606 32.718 21.696V20.436H26.306C26.46 19.988 26.614 19.498 26.768 18.994H34.356V17.594H27.146C27.244 17.174 27.342 16.754 27.44 16.306H33.516V14.948H27.734C27.818 14.472 27.916 13.996 28 13.492L26.502 13.366C26.39 13.898 26.292 14.416 26.18 14.948H22.61V16.306H25.872C25.76 16.726 25.662 17.16 25.55 17.594H21.644ZM39.102 18.84V21.514H42.378V22.032H38.43V26.456H39.774V23.18H42.378V24.09C41.706 24.146 41.02 24.188 40.334 24.23L40.628 25.42C42.224 25.266 43.736 25.084 45.164 24.86C45.192 24.958 45.22 25.07 45.276 25.21L44.954 25.196L45.276 26.414H46.704C47.586 26.414 48.034 25.952 48.034 25.028V22.032H43.75V21.514H47.082V18.84H43.75V18.336C45.206 18.266 46.48 18.168 47.572 18.056L46.97 17.034C44.646 17.258 41.832 17.37 38.5 17.37L38.85 18.42C40.096 18.42 41.272 18.406 42.378 18.378V18.84H39.102ZM43.666 23.18H44.506C44.604 23.39 44.702 23.614 44.8 23.852L43.666 23.978V23.18ZM45.78 20.492H43.75V19.876H45.78V20.492ZM42.378 20.492H40.418V19.876H42.378V20.492ZM45.612 25.224L46.312 24.916C46.102 24.328 45.864 23.74 45.612 23.18H46.718V24.748C46.718 25.084 46.578 25.252 46.312 25.252L45.612 25.224ZM46.368 15.074V15.76H38.206V15.074H46.368ZM38.206 16.824H47.754V13.94H36.792V18.196C36.778 21.08 36.344 23.418 35.504 25.238L36.596 26.232C37.66 23.992 38.192 21.318 38.206 18.196V16.824Z" fill="#EECEA9"/>
<defs>
<linearGradient id="paint0_linear_90_1774" x1="0" y1="0" x2="70" y2="40" gradientUnits="userSpaceOnUse">
<stop stop-color="#656A78"/>
<stop offset="1" stop-color="#20222E"/>
</linearGradient>
</defs>
</svg>
