<svg width="580" height="180" viewBox="0 0 580 180" fill="none" xmlns="http://www.w3.org/2000/svg">
<path d="M0 16L286.666 56.2096C288.878 56.5198 291.122 56.5198 293.334 56.2096L580 16V156C580 169.255 569.255 180 556 180H24C10.7452 180 0 169.255 0 156V16Z" fill="url(#paint0_linear_164_2784)"/>
<g filter="url(#filter0_d_164_2784)">
<path d="M99.2444 107.343L266.5 13.2241C281.094 5.01164 298.913 4.99879 313.519 13.1902L481.4 107.343L546.397 149.965C556.365 156.502 551.737 172 539.817 172H40.4026C28.464 172 23.8492 156.462 33.8523 149.946L99.2444 107.343Z" fill="url(#paint1_linear_164_2784)" shape-rendering="crispEdges"/>
</g>
<path d="M149.006 75.04V83.944H142.986V86.744H149.006V100.912H151.89V86.744H158.274V83.944H151.89V75.04H149.006ZM135.986 75.068C135.23 78.26 133.942 81.284 132.122 84.112L134.502 85.624C134.838 85.12 135.146 84.588 135.454 84.056V85.96H136.91V88.788H133.354V91.476H136.91V96.936C136.91 97.356 136.658 97.664 136.154 97.888L137.246 100.268C139.542 99.652 141.586 98.896 143.35 97.972L142.846 95.368C141.81 95.984 140.774 96.516 139.766 96.936V91.476H143.406V88.788H139.766V85.96H142.286V83.328H135.846C136.294 82.432 136.742 81.508 137.162 80.556H143.07V77.84H138.142C138.366 77.14 138.59 76.412 138.786 75.656L135.986 75.068ZM172.638 80.164V82.992H180.394V96.74C180.394 97.692 179.862 98.168 178.798 98.168C177.594 98.168 176.334 98.084 174.99 97.972L175.634 100.828H179.806C182.158 100.828 183.334 99.708 183.334 97.468V82.992H186.134V80.164H183.334V74.956H180.394V80.164H172.638ZM163.09 82.208L161.102 84.084C163.006 86.212 164.714 88.256 166.226 90.272C164.826 92.68 162.866 94.836 160.374 96.712L162.054 99.232C164.434 97.216 166.394 95.032 167.906 92.652C168.746 93.856 169.474 95.032 170.146 96.208L172.33 94.024C171.434 92.624 170.482 91.252 169.418 89.852C170.818 86.744 171.546 83.356 171.574 79.66V77.532H161.634V80.36H169.026C168.886 82.88 168.41 85.26 167.57 87.444C166.17 85.708 164.686 83.944 163.09 82.208ZM174.682 85.624L172.442 87.248C174.178 89.404 175.522 91.392 176.53 93.184L178.826 91.56C177.874 89.852 176.474 87.864 174.682 85.624ZM200.274 75.012C197.026 78.596 192.966 81.592 188.066 84L189.634 86.856C194.506 84.252 198.398 81.172 201.338 77.644C204.53 81.424 208.394 84.476 212.93 86.828L214.526 83.972C209.934 81.788 205.902 78.82 202.402 75.012H200.274ZM200.666 82.6V97.104H196.242V86.632H193.358V97.104H189.382V99.96H212.958V97.104H203.606V91.28H210.914V88.452H203.606V82.6H200.666ZM224.83 75.18V97.104H216.822V99.96H241.854V97.104H233.79V75.18H230.85V97.104H227.77V75.18H224.83ZM238.746 80.472C237.57 85.456 236.226 89.6 234.658 92.848L237.29 93.772C238.914 90.188 240.258 85.988 241.322 81.2L238.746 80.472ZM219.818 80.388L217.326 81.228C218.782 85.288 219.958 89.488 220.91 93.856L223.57 93.212C222.478 88.396 221.218 84.112 219.818 80.388ZM255.014 79.548H250.758C251.262 78.26 251.682 76.832 251.99 75.32L249.05 74.928C248.826 76.524 248.462 78.064 247.958 79.548H245.27V99.988H248.07V97.776H252.214V99.176H255.014V79.548ZM248.07 95.088V89.796H252.214V95.088H248.07ZM248.07 87.192V82.292H252.214V87.192H248.07ZM260.11 86.352L257.73 87.836C259.466 90.076 260.866 92.12 261.902 93.968L264.254 92.344C263.274 90.608 261.902 88.62 260.11 86.352ZM269.434 79.548H260.922C261.342 78.204 261.706 76.776 261.986 75.264L259.102 74.9C258.43 78.736 257.198 81.984 255.35 84.616L257.114 86.94C258.15 85.596 259.046 84.084 259.802 82.404H266.578C266.522 90.328 266.438 94.948 266.27 96.292C266.102 97.384 265.514 97.944 264.506 97.944C263.582 97.944 262.49 97.888 261.258 97.804L261.958 100.464C263.414 100.576 264.422 100.632 264.982 100.632C267.39 100.632 268.734 99.652 269.014 97.692C269.294 95.396 269.434 89.348 269.434 79.548ZM272.626 83.188V85.988H279.654C279.066 87.892 278.45 89.768 277.778 91.56H291.246C289.93 92.988 288.11 94.416 285.814 95.816C284.078 95.256 282.258 94.752 280.354 94.276L278.814 96.572C283.182 97.664 287.41 99.176 291.554 101.108L293.178 98.588C291.834 98 290.462 97.44 289.006 96.936C291.61 95.06 293.542 93.212 294.774 91.392V88.872H281.95C282.258 87.976 282.566 86.996 282.874 85.988H298.05V83.188H283.63C283.826 82.348 284.022 81.508 284.218 80.612H296.37V77.896H284.806C284.974 76.944 285.17 75.992 285.338 74.984L282.342 74.732C282.118 75.796 281.922 76.832 281.698 77.896H274.558V80.612H281.082C280.858 81.452 280.662 82.32 280.438 83.188H272.626ZM307.542 85.68V91.028H314.094V92.064H306.198V100.912H308.886V94.36H314.094V96.18C312.75 96.292 311.378 96.376 310.006 96.46L310.594 98.84C313.786 98.532 316.81 98.168 319.666 97.72C319.722 97.916 319.778 98.14 319.89 98.42L319.246 98.392L319.89 100.828H322.746C324.51 100.828 325.406 99.904 325.406 98.056V92.064H316.838V91.028H323.502V85.68H316.838V84.672C319.75 84.532 322.298 84.336 324.482 84.112L323.278 82.068C318.63 82.516 313.002 82.74 306.338 82.74L307.038 84.84C309.53 84.84 311.882 84.812 314.094 84.756V85.68H307.542ZM316.67 94.36H318.35C318.546 94.78 318.742 95.228 318.938 95.704L316.67 95.956V94.36ZM320.898 88.984H316.838V87.752H320.898V88.984ZM314.094 88.984H310.174V87.752H314.094V88.984ZM320.562 98.448L321.962 97.832C321.542 96.656 321.066 95.48 320.562 94.36H322.774V97.496C322.774 98.168 322.494 98.504 321.962 98.504L320.562 98.448ZM322.074 78.148V79.52H305.75V78.148H322.074ZM305.75 81.648H324.846V75.88H302.922V84.392C302.894 90.16 302.026 94.836 300.346 98.476L302.53 100.464C304.658 95.984 305.722 90.636 305.75 84.392V81.648ZM344.166 90.552H347.05V93.156H341.114V95.816H347.05V100.996H349.906V95.816H354.218V93.156H349.906V90.552H353.63V87.948H349.906V85.624H347.05V87.948H345.202C345.37 87.388 345.51 86.8 345.65 86.128L343.27 85.708C342.878 87.78 342.066 89.46 340.89 90.72L342.57 92.792C343.186 92.148 343.718 91.392 344.166 90.552ZM344.642 78.988C344.418 79.744 344.138 80.416 343.774 80.976C343.186 81.872 342.318 82.628 341.17 83.244L342.878 85.428C344.334 84.448 345.426 83.356 346.182 82.152C346.686 81.2 347.078 80.164 347.358 78.988H350.69C350.634 80.612 350.55 81.592 350.41 81.956C350.242 82.32 349.822 82.516 349.178 82.544C348.534 82.488 347.722 82.432 346.742 82.348L347.414 84.756C348.338 84.84 349.122 84.896 349.794 84.896C351.138 84.896 352.062 84.476 352.622 83.692C353.182 82.88 353.462 80.444 353.49 76.412H341.282V78.988H344.642ZM332.322 89.068H334.058V92.008H332.322V89.068ZM336.354 89.068H338.118V92.008H336.354V89.068ZM338.118 86.66H336.354V83.916H338.118V86.66ZM334.058 86.66H332.322V83.916H334.058V86.66ZM332.182 94.444H338.118V97.58C338.118 98.14 337.838 98.42 337.334 98.42C336.83 98.42 336.27 98.364 335.682 98.28L336.298 100.688H338.118C339.742 100.688 340.582 99.932 340.582 98.42V81.424H337.726C338.23 80.696 338.706 79.828 339.21 78.848V76.86H334.562C334.73 76.412 334.926 75.964 335.094 75.516L332.434 74.9C331.286 77.812 329.97 80.08 328.458 81.676L329.858 83.356V91.896C329.83 94.92 329.326 97.384 328.346 99.344L330.306 101.136C331.286 99.316 331.902 97.076 332.182 94.444ZM334.758 81.424H332.098C332.546 80.752 332.994 80.024 333.414 79.24H336.102C335.654 80.052 335.206 80.78 334.758 81.424ZM365.25 78.96V81.732H370.57V83.412C370.57 84.7 370.458 85.932 370.29 87.108H364.074V89.88H369.646C368.414 93.8 365.922 96.628 362.17 98.42L364.046 100.912C368.386 98.588 371.214 94.92 372.558 89.88H381.994V87.108H379.698V78.96H373.398V75.012H370.57V78.96H365.25ZM373.398 81.732H376.87V87.108H373.118C373.286 85.736 373.398 84.28 373.398 82.74V81.732ZM359.006 75.712L356.626 77.224C358.306 79.688 359.65 81.956 360.63 83.972L363.066 82.32C362.114 80.416 360.77 78.232 359.006 75.712ZM360.686 87.388C359.51 91.308 358.138 95.172 356.514 98.952L359.37 100.184C360.854 96.544 362.198 92.624 363.402 88.48L360.686 87.388ZM380.23 100.744L382.33 98.644C379.39 95.284 376.87 92.792 374.742 91.14L372.866 92.96C375.61 95.424 378.046 98.028 380.23 100.744ZM384.878 78.848V81.676H392.494C392.466 82.544 392.41 83.664 392.354 85.064C392.214 87.696 391.682 90.076 390.758 92.176C389.806 94.276 387.846 96.572 384.878 99.036L387.006 101.108C389.498 99.092 391.43 96.852 392.802 94.416C393.782 92.652 394.454 90.72 394.846 88.592H403.75C403.694 92.456 403.61 94.808 403.442 95.676C403.106 97.244 402.406 98.056 401.314 98.112C400.278 98.112 399.018 98.056 397.534 97.972L398.402 100.632C399.634 100.716 400.698 100.772 401.622 100.772C403.806 100.716 405.234 99.624 405.878 97.44C406.326 95.928 406.606 92.036 406.718 85.82H395.182C395.294 84.112 395.35 82.74 395.406 81.676H409.91V78.848H399.578C398.962 77.308 398.262 75.964 397.534 74.844L394.762 75.88C395.462 76.832 396.05 77.812 396.554 78.848H384.878ZM423.266 79.548C422.734 80.22 422.174 80.948 421.586 81.676H414.138V83.972H419.626C418.982 84.7 418.31 85.428 417.61 86.156C419.262 86.464 420.942 86.828 422.622 87.22C420.438 87.696 417.47 87.948 413.718 87.948L415.286 90.356C419.934 90.272 423.714 89.572 426.654 88.256C429.37 88.984 432.086 89.824 434.774 90.776L436.426 88.536C434.074 87.808 431.75 87.136 429.482 86.576C430.378 85.876 431.218 85.008 432.058 83.972H436.594V81.676H424.834C425.17 81.256 425.506 80.808 425.898 80.36L423.266 79.548ZM426.234 85.82C424.75 85.484 423.294 85.204 421.866 84.98C422.146 84.672 422.482 84.336 422.818 83.972H428.782C428.082 84.644 427.242 85.26 426.234 85.82ZM436.818 76.972H426.71C426.402 76.188 426.094 75.46 425.786 74.816L422.762 75.32C423.126 75.824 423.462 76.384 423.798 76.972H413.858V81.284H416.602V79.38H434.074V81.284H436.818V76.972ZM413.242 91.42V93.94H421.446C419.682 95.396 416.77 96.712 412.738 97.916L414.306 100.492C418.786 98.756 422.006 96.712 423.91 94.36V100.828H426.878V94.416C428.978 96.824 432.226 98.784 436.65 100.324L437.938 97.748C434.158 96.796 431.302 95.508 429.342 93.94H437.462V91.42H426.878V89.488H423.91V91.42H413.242ZM107.258 119.236L105.242 121.14C107.258 122.764 108.798 124.276 109.862 125.676L111.962 123.604C110.674 122.148 109.106 120.692 107.258 119.236ZM123.19 144.464H129.602L130.302 141.58C129.546 141.636 128.454 141.692 127.026 141.748C125.57 141.748 124.17 141.776 122.77 141.776C120.642 141.776 118.766 141.748 117.17 141.72C115.546 141.664 114.342 141.44 113.53 141.02C112.886 140.656 112.242 140.096 111.626 139.368L111.346 139.088V128.42H104.934V131.108H108.63V138.78C107.51 139.396 106.278 140.824 104.878 143.064L107.034 145.052C108.434 142.532 109.386 141.3 109.918 141.3C110.254 141.3 110.59 141.524 110.954 142C111.766 142.952 112.718 143.596 113.838 143.932C115.014 144.212 116.47 144.38 118.262 144.408C120.026 144.436 121.678 144.464 123.19 144.464ZM113.502 123.128V125.844H116.47V127.748C116.47 128.756 116.414 129.68 116.302 130.576H112.522V133.32H115.742C115.126 135.42 114.09 136.988 112.634 138.052L114.398 140.376C116.442 138.836 117.842 136.484 118.626 133.32H122.826V140.768H125.682V133.32H129.798V130.576H125.682V125.844H128.902V123.128H125.682V119.012H122.826V123.128H119.298V118.956H116.47V123.128H113.502ZM119.298 125.844H122.826V130.576H119.102C119.214 129.484 119.298 128.308 119.298 127.076V125.844ZM132.598 130.268V133.18H158.05V130.268H132.598ZM171.91 118.956V127.748H167.598V121.14H164.63V127.748H160.794V130.576H172.162V138.668H175.102V130.576H185.882V127.748H174.878V124.808H183.11V122.036H174.878V118.956H171.91ZM181.234 132.06C178.322 138.892 172.022 142.336 162.334 142.336L163.398 145.136C173.506 145.108 180.338 141.216 183.894 133.46L181.234 132.06ZM167.206 131.304C165.638 133.656 163.678 135.728 161.382 137.492L163.258 139.872C165.638 137.968 167.654 135.7 169.278 133.124L167.206 131.304ZM199.266 129.764C198.09 130.324 196.886 130.856 195.71 131.332V126.656H199.042V123.828H195.71V119.124H192.742V123.828H188.654V126.656H192.742V132.368C191.23 132.816 189.718 133.208 188.206 133.516L188.934 136.316C190.222 135.952 191.482 135.56 192.742 135.168V141.048C192.742 141.664 192.406 142 191.762 142C190.978 142 190.11 141.944 189.214 141.832L189.886 144.66H192.77C194.73 144.66 195.71 143.708 195.71 141.804V134.132C196.914 133.684 198.09 133.18 199.266 132.676V129.764ZM199.63 120.86V123.716H206.77V140.852C206.77 141.58 206.462 141.944 205.902 141.944C204.53 141.944 203.074 141.888 201.562 141.776L202.206 144.604H206.938C208.786 144.604 209.738 143.596 209.738 141.608V123.716H213.966V120.86H199.63ZM217.27 120.272V123.072H219.65C219.034 126.796 217.886 130.156 216.178 133.152L217.718 135.588C218.082 135.028 218.446 134.44 218.782 133.824V143.988H221.414V141.804H225.11C224.914 142.196 224.69 142.644 224.438 143.092L226.538 144.94C228.666 141.412 229.842 137.212 230.066 132.368H230.542C231.102 134.888 232.166 137.156 233.762 139.2C232.278 140.712 230.402 141.972 228.162 142.924L229.954 145.164C232.138 144.128 234.042 142.812 235.61 141.216C237.066 142.616 238.83 143.876 240.902 144.996L242.47 142.448C240.454 141.496 238.746 140.376 237.346 139.144C238.718 137.184 239.698 134.832 240.258 132.144V129.736H236.058V124.892H238.886C238.606 125.956 238.27 126.936 237.878 127.776L240.426 128.504C241.042 126.88 241.462 125.228 241.714 123.604V122.204H236.058V119.012H233.23V122.204H227.434V130.52C227.378 134.132 226.818 137.324 225.81 140.096V128.588H221.05C221.61 126.852 222.03 125.032 222.366 123.072H226.258V120.272H217.27ZM233.062 132.368H237.514C237.066 134.104 236.366 135.7 235.442 137.128C234.322 135.672 233.51 134.104 233.062 132.368ZM230.122 129.736V124.892H233.23V129.736H230.122ZM221.414 139.228V131.164H223.234V139.228H221.414ZM252.326 133.46V141.104H262.882V133.46H252.326ZM260.278 138.668H254.958V135.868H260.278V138.668ZM264.842 122.54V124.78H250.45V122.54H264.842ZM250.45 127.412H267.67V119.824H247.594V131.192C247.566 135.924 246.474 139.788 244.29 142.756L246.586 144.828C249.05 141.188 250.338 136.82 250.45 131.752H266.214C266.158 137.044 266.074 140.124 265.934 140.992C265.738 141.86 265.122 142.308 264.058 142.308C263.106 142.308 261.93 142.252 260.586 142.196L261.23 144.632C262.77 144.716 263.862 144.772 264.534 144.772C266.942 144.772 268.314 143.932 268.594 142.252C268.874 140.572 269.014 136.204 269.014 129.12H250.45V127.412ZM273.298 119.88V144.94H276.154V122.624H279.654C278.954 124.836 277.974 127.328 276.742 130.1C278.618 132.424 279.57 134.524 279.57 136.4C279.57 136.848 279.458 137.156 279.234 137.324C279.01 137.492 278.562 137.576 277.89 137.632C277.47 137.632 276.938 137.576 276.322 137.464L277.274 140.432C279.346 140.404 280.83 140.012 281.67 139.284C282.23 138.724 282.51 137.744 282.51 136.4C282.37 134.496 281.446 132.256 279.71 129.652C280.802 127.02 281.754 124.528 282.594 122.176V119.88H273.298ZM286.262 127.58H293.346V129.904H286.262V127.58ZM293.346 124.948H286.262V122.596H293.346V124.948ZM295.978 133.292C294.914 134.58 293.794 135.56 292.646 136.26C292.198 135.476 291.778 134.608 291.414 133.656L289.202 134.888C290.77 139.312 293.318 142.588 296.79 144.66L298.498 142.14C296.762 141.188 295.278 139.928 294.018 138.332C295.418 137.548 296.706 136.512 297.826 135.168L295.978 133.292ZM286.262 132.564H296.202V119.852H283.378V141.132C283.378 141.524 283.126 141.776 282.678 141.944L283.378 144.52C286.514 143.736 289.118 142.896 291.19 142.028L290.49 139.312C289.09 139.984 287.69 140.516 286.262 140.964V132.564ZM311.91 123.912L309.642 124.64C310.174 127.104 310.622 129.68 310.986 132.368L313.226 131.78C312.834 128.812 312.414 126.208 311.91 123.912ZM313.478 119.236V129.288C313.422 135.616 312.246 140.208 309.922 143.064L312.078 144.968C313.534 143.176 314.598 140.796 315.27 137.856C315.858 138.892 316.53 140.208 317.314 141.804L318.938 139.34C317.874 137.716 316.838 136.26 315.802 134.944C316.026 133.236 316.138 131.36 316.166 129.288V128.84C317.538 127.58 318.658 126.292 319.526 125.004L317.93 122.988C317.426 123.856 316.838 124.724 316.166 125.592V119.236H313.478ZM320.226 119.684V127.468H322.886V128.644H319.358V130.716H322.886V131.976H318.238V134.16H322.186C321.234 134.972 319.89 135.672 318.21 136.232L319.61 138.556C320.282 138.22 320.926 137.828 321.542 137.436C322.326 138.052 322.97 138.668 323.446 139.228L325.014 137.66C324.51 137.128 323.95 136.596 323.278 136.092C323.894 135.504 324.454 134.86 324.902 134.16H329.242C329.578 134.748 330.026 135.336 330.53 135.924C330.026 136.428 329.41 136.932 328.738 137.38L330.026 139.06C330.81 138.556 331.51 138.024 332.126 137.436C332.742 137.94 333.414 138.416 334.198 138.92L335.822 136.876C334.03 136.064 332.686 135.168 331.734 134.16H335.374V131.976H331.398V130.716H334.842V128.644H331.398V127.468H334.002V119.684H320.226ZM325.462 131.976V130.716H328.85V131.976H325.462ZM328.85 128.644H325.462V127.468H328.85V128.644ZM331.482 125.564H322.746V124.528H331.482V125.564ZM322.746 122.764V121.672H331.482V122.764H322.746ZM325.966 144.884C327.59 144.884 328.402 144.1 328.402 142.56V134.944H325.658V141.888C325.658 142.336 325.462 142.56 325.098 142.56C324.538 142.56 323.95 142.504 323.306 142.392L323.894 144.884H325.966ZM324.454 139.06C322.802 139.928 320.814 140.656 318.518 141.244L319.61 143.736C321.794 142.98 323.614 142.112 325.07 141.16L324.454 139.06ZM329.858 139.396L328.542 141.3C330.306 142.028 332.014 143.036 333.694 144.324L335.178 142C333.582 140.992 331.818 140.124 329.858 139.396ZM339.378 128.14H346.182C344.278 133.88 341.45 138.416 337.67 141.776L339.21 144.492C342.206 142.056 344.698 138.808 346.686 134.776C347.582 136.316 348.87 137.772 350.578 139.172C348.674 140.32 346.35 141.384 343.634 142.364L345.174 145.108C348.31 143.876 350.97 142.504 353.154 140.992C355.422 142.42 358.222 143.736 361.554 144.968L363.066 142.196C360.182 141.244 357.69 140.208 355.59 139.06C357.578 137.212 358.922 135.196 359.594 133.012V130.548H348.506C348.758 129.764 349.01 128.98 349.29 128.14H362.758V125.368H350.018C350.494 123.464 350.886 121.448 351.222 119.292L348.226 118.928C347.918 121.168 347.498 123.324 346.994 125.368H343.13L344.53 120.3L341.618 119.824L339.378 128.14ZM348.814 133.18H356.626C355.87 134.692 354.666 136.148 353.014 137.492C351.138 136.148 349.738 134.72 348.814 133.18ZM355.926 118.9L353.938 120.804C356.01 122.372 357.578 123.884 358.67 125.312L360.742 123.212C359.454 121.756 357.83 120.328 355.926 118.9ZM370.626 119.88V129.876H386.726V119.88H370.626ZM383.786 127.132H373.566V122.624H383.786V127.132ZM377.402 131.724H366.846V144.492H369.702V143.176H374.574V144.492H377.402V131.724ZM369.702 140.46V134.468H374.574V140.46H369.702ZM390.478 131.724H379.586V144.492H382.442V143.176H387.566V144.492H390.478V131.724ZM382.442 140.46V134.468H387.566V140.46H382.442ZM400.278 119.348V126.544H398.094V119.852H395.322V132.704C395.294 137.38 394.706 140.796 393.586 142.924L395.658 144.744C396.974 142.616 397.758 139.48 398.01 135.336H400.446V144.744H403.19V132.648H398.094V129.148H402.994V119.348H400.278ZM410.358 123.828V126.292H407.586V123.828H410.358ZM410.302 128.728C410.218 129.624 410.078 130.492 409.882 131.276H407.586V128.728H410.302ZM408.65 133.768C407.978 134.496 407.054 135.14 405.878 135.7L406.746 137.072H403.89V139.844H412.178V144.828H414.978V139.844H419.542V137.072H414.978V134.552H412.178V137.072H408.426C409.77 136.344 410.778 135.42 411.478 134.244C411.562 134.076 411.646 133.936 411.73 133.768H418.338V121.308H412.29C412.598 120.636 412.85 119.964 413.018 119.236L410.134 118.844C409.966 119.684 409.686 120.496 409.35 121.308H404.954V133.768H408.65ZM412.57 131.276C412.738 130.492 412.85 129.652 412.934 128.728H415.678V131.276H412.57ZM412.99 126.292V123.828H415.678V126.292H412.99ZM425.058 130.156V144.912H427.97V125.9C429.006 124.108 429.846 122.204 430.49 120.244L427.83 118.984C426.486 123.268 424.386 126.992 421.586 130.156L422.482 133.04C423.378 132.088 424.246 131.136 425.058 130.156ZM429.398 125.536V128.336H434.718C434.102 134.86 432.002 139.732 428.474 142.98L430.658 144.884C434.578 141.188 436.874 135.672 437.546 128.336H446.786V125.536H437.714C437.714 125.144 437.742 124.724 437.742 124.276V119.096H434.914V124.276C434.914 124.696 434.886 125.116 434.886 125.536H429.398ZM444.63 144.464C445.442 144.408 446.086 144.128 446.59 143.596C446.982 143.092 447.29 141.328 447.542 138.276L444.938 137.436C444.854 139.732 444.714 141.048 444.546 141.356C444.322 141.636 444.126 141.804 443.93 141.804H441.83C441.438 141.804 441.242 141.608 441.242 141.216V129.596H438.47V141.72C438.47 143.54 439.31 144.464 441.046 144.464H444.63ZM441.298 119.348L439.422 121.168C441.298 122.512 442.754 123.8 443.762 125.004L445.75 122.988C444.546 121.756 443.062 120.552 441.298 119.348ZM450.566 121.476V124.22H454.206V126.516C452.862 126.684 451.518 126.824 450.174 126.936L450.846 129.652C451.966 129.484 453.086 129.344 454.206 129.176V130.772C454.206 131.276 453.926 131.556 453.422 131.556C452.694 131.556 451.938 131.5 451.154 131.388L451.77 134.104H454.402C456.166 134.104 457.062 133.208 457.062 131.472V128.728C458.07 128.56 459.05 128.364 460.03 128.196V125.508C459.05 125.704 458.07 125.9 457.062 126.068V124.22H460.114V121.476H457.062V119.04H454.206V121.476H450.566ZM461.822 125.48L460.366 127.608C461.15 127.916 461.934 128.28 462.718 128.7C461.962 129.876 460.926 130.884 459.638 131.668L461.598 133.432H460.674C460.59 133.992 460.478 134.524 460.31 135.084H450.566V137.884H458.882C458.574 138.276 458.21 138.64 457.818 139.004C456.25 140.292 453.702 141.3 450.174 142L451.322 144.744C455.55 143.764 458.518 142.448 460.226 140.824C461.066 139.984 461.766 139.004 462.326 137.884H470.306C470.306 138.892 470.25 139.844 470.138 140.712C470.026 141.552 469.522 142 468.626 142.056C467.394 142.056 466.05 141.972 464.566 141.804L465.35 144.576C466.274 144.66 467.422 144.716 468.794 144.716C470.474 144.716 471.65 144.128 472.322 143.008C472.938 141.86 473.274 139.228 473.274 135.084H463.306C463.418 134.552 463.53 133.992 463.614 133.432H462.074C463.362 132.536 464.398 131.416 465.21 130.1C465.994 130.604 466.806 131.164 467.618 131.78L469.074 129.484C468.206 128.868 467.282 128.252 466.302 127.692C466.638 126.656 466.862 125.508 466.974 124.22H469.494V127.468C469.494 129.988 469.774 131.696 470.39 132.592C471.034 133.46 471.79 133.908 472.686 133.908C473.47 133.908 474.142 133.544 474.73 132.844C475.234 132.088 475.626 130.8 475.85 129.008L473.526 127.86C473.246 129.904 472.994 130.94 472.742 130.94C472.35 130.94 472.126 129.764 472.098 127.468V121.476H467.03V119.012H464.202V121.476H461.15V124.22H464.118C464.062 124.948 463.922 125.648 463.754 126.348C463.138 126.04 462.494 125.76 461.822 125.48Z" fill="#EECEA9"/>
<defs>
<filter id="filter0_d_164_2784" x="24.3809" y="7.05566" width="531.459" height="172.944" filterUnits="userSpaceOnUse" color-interpolation-filters="sRGB">
<feFlood flood-opacity="0" result="BackgroundImageFix"/>
<feColorMatrix in="SourceAlpha" type="matrix" values="0 0 0 0 0 0 0 0 0 0 0 0 0 0 0 0 0 0 127 0" result="hardAlpha"/>
<feOffset dy="4"/>
<feGaussianBlur stdDeviation="2"/>
<feComposite in2="hardAlpha" operator="out"/>
<feColorMatrix type="matrix" values="0 0 0 0 0 0 0 0 0 0 0 0 0 0 0 0 0 0 0.25 0"/>
<feBlend mode="normal" in2="BackgroundImageFix" result="effect1_dropShadow_164_2784"/>
<feBlend mode="normal" in="SourceGraphic" in2="effect1_dropShadow_164_2784" result="shape"/>
</filter>
<linearGradient id="paint0_linear_164_2784" x1="290" y1="37.9528" x2="290" y2="180" gradientUnits="userSpaceOnUse">
<stop stop-color="#373D4E"/>
<stop offset="1" stop-color="#20222E"/>
</linearGradient>
<linearGradient id="paint1_linear_164_2784" x1="290" y1="40.8029" x2="285.72" y2="143.761" gradientUnits="userSpaceOnUse">
<stop stop-color="#545766"/>
<stop offset="1" stop-color="#20222E" stop-opacity="0.88"/>
</linearGradient>
</defs>
</svg>
