<svg width="164" height="50" viewBox="0 0 164 50" fill="none" xmlns="http://www.w3.org/2000/svg">
<path d="M33.9629 25.5327L24.7637 31.6839L15.5669 25.5327L8.91406 39.7983L15.1781 40.6335L19.5749 44.7351L24.7637 34.0191L29.9549 44.7351L34.3517 40.6335L40.6157 39.7983L33.9629 25.5327Z" fill="#A5A3FE"/>
<path d="M34.8663 33.7985L36.6543 37.4993C36.7839 37.7705 36.6015 38.0825 36.2919 38.1185L33.9975 38.3753C33.6303 38.4161 33.3015 38.6129 33.1023 38.9081L29.9487 43.5689L34.8663 40.7849L40.3599 39.2513L36.3807 32.4785L34.8663 33.7985ZM20.3223 36.2801L18.6903 39.8969C18.5703 40.1633 18.2175 40.2449 17.9847 40.0625L16.6047 38.9825C16.3447 38.781 16.0213 38.6789 15.6927 38.6945L10.2207 38.9633L10.4247 39.7457L15.1791 40.6361L19.4751 44.2409L22.7751 36.7169L20.3223 36.2801Z" fill="#3F3CDB"/>
<path d="M29.9554 45.695C29.775 45.6944 29.5985 45.6433 29.4458 45.5474C29.293 45.4515 29.1702 45.3147 29.0914 45.1526L24.7666 36.2198L20.4418 45.1526C20.3762 45.2879 20.2798 45.4059 20.1603 45.4972C20.0408 45.5884 19.9015 45.6503 19.7537 45.6779C19.6059 45.7054 19.4536 45.6979 19.3093 45.6558C19.1649 45.6138 19.0324 45.5384 18.9226 45.4358L14.749 41.5406L8.78975 40.7462C8.6406 40.726 8.49824 40.6713 8.37405 40.5863C8.24986 40.5012 8.14729 40.3883 8.07455 40.2566C8.00262 40.1244 7.96256 39.9772 7.95756 39.8268C7.95256 39.6764 7.98276 39.5269 8.04575 39.3902L14.6986 25.1246C14.7566 24.9988 14.8415 24.8872 14.9472 24.7977C15.0529 24.7081 15.1769 24.6428 15.3106 24.6062C15.5794 24.5318 15.8698 24.5774 16.1026 24.7334L24.7666 30.527L33.4306 24.7334C33.6634 24.5774 33.9538 24.5318 34.2226 24.6062C34.3562 24.6428 34.4802 24.7081 34.5859 24.7977C34.6916 24.8872 34.7765 24.9988 34.8346 25.1246L41.4874 39.3902C41.617 39.6662 41.6073 39.9902 41.4585 40.2566C41.3866 40.389 41.2842 40.5024 41.1599 40.5875C41.0356 40.6726 40.8928 40.727 40.7434 40.7462L34.7842 41.5406L30.6106 45.4358C30.4334 45.6029 30.1989 45.6957 29.9554 45.695ZM24.7642 33.059C25.1314 33.059 25.4674 33.2702 25.6282 33.6014L30.2506 43.1462L33.697 39.9302C33.8434 39.7934 34.0282 39.707 34.225 39.6806L39.193 39.0182L33.565 26.9534L25.297 32.4806C24.973 32.6966 24.553 32.6966 24.229 32.4806L15.961 26.9534L10.333 39.0182L15.301 39.6806C15.4978 39.707 15.6826 39.7934 15.829 39.9302L19.2754 43.1462L23.8978 33.6014C23.9772 33.4392 24.1005 33.3024 24.2536 33.2066C24.4067 33.1107 24.5835 33.0596 24.7642 33.059Z" fill="#2825CA"/>
<path d="M9.2168 21.0902C9.2168 23.1319 9.61894 25.1535 10.4003 27.0398C11.1816 28.9261 12.3268 30.64 13.7705 32.0837C15.2142 33.5274 16.9281 34.6726 18.8143 35.4539C20.7006 36.2352 22.7223 36.6374 24.764 36.6374C26.8057 36.6374 28.8274 36.2352 30.7136 35.4539C32.5999 34.6726 34.3138 33.5274 35.7575 32.0837C37.2012 30.64 38.3464 28.9261 39.1277 27.0398C39.9091 25.1535 40.3112 23.1319 40.3112 21.0902C40.3112 16.9668 38.6732 13.0123 35.7575 10.0966C32.8419 7.18097 28.8874 5.54297 24.764 5.54297C20.6406 5.54297 16.6861 7.18097 13.7705 10.0966C10.8548 13.0123 9.2168 16.9668 9.2168 21.0902Z" fill="white"/>
<path d="M28.3904 35.6514C35.1824 34.3266 40.3112 28.3482 40.3112 21.1674C40.3112 13.6482 34.6856 7.44659 27.416 6.52979C28.7912 7.12019 37.1216 11.1162 37.5296 21.4674C37.5992 24.9642 35.3024 32.1426 28.3904 35.6514Z" fill="#6360FB"/>
<path d="M24.7631 37.5974C15.6623 37.5974 8.25586 30.1934 8.25586 21.0902C8.25586 11.987 15.6599 4.58301 24.7631 4.58301C33.8663 4.58301 41.2703 11.987 41.2703 21.0902C41.2703 30.1934 33.8663 37.5974 24.7631 37.5974ZM24.7631 6.50541C16.7207 6.50541 10.1759 13.0478 10.1759 21.0926C10.1759 29.1374 16.7183 35.6798 24.7631 35.6798C32.8079 35.6798 39.3503 29.1374 39.3503 21.0926C39.3503 13.0478 32.8079 6.50541 24.7631 6.50541Z" fill="#2825CA"/>
<path d="M13.8145 21.0904C13.8145 22.5282 14.0977 23.952 14.6479 25.2803C15.1981 26.6087 16.0046 27.8157 17.0213 28.8324C18.038 29.8491 19.245 30.6555 20.5733 31.2058C21.9017 31.756 23.3254 32.0392 24.7633 32.0392C26.2011 32.0392 27.6248 31.756 28.9532 31.2058C30.2815 30.6555 31.4885 29.8491 32.5052 28.8324C33.5219 27.8157 34.3284 26.6087 34.8786 25.2803C35.4289 23.952 35.7121 22.5282 35.7121 21.0904C35.7121 19.6526 35.4289 18.2288 34.8786 16.9005C34.3284 15.5721 33.5219 14.3651 32.5052 13.3484C31.4885 12.3317 30.2815 11.5253 28.9532 10.975C27.6248 10.4248 26.2011 10.1416 24.7633 10.1416C23.3254 10.1416 21.9017 10.4248 20.5733 10.975C19.245 11.5253 18.038 12.3317 17.0213 13.3484C16.0046 14.3651 15.1981 15.5721 14.6479 16.9005C14.0977 18.2288 13.8145 19.6526 13.8145 21.0904Z" fill="#A5A3FE"/>
<path d="M26.5106 31.3624C31.3034 30.4288 34.9202 26.2096 34.9202 21.1456C34.9202 15.8416 30.953 11.4664 25.8242 10.8184C26.7938 11.2336 32.6714 14.0536 32.9594 21.3544C33.0074 23.8216 31.385 28.888 26.5106 31.3624Z" fill="#3F3CDB"/>
<path d="M24.7623 32.9993C18.1959 32.9993 12.8535 27.6569 12.8535 21.0905C12.8535 14.5241 18.1959 9.18408 24.7623 9.18408C31.3287 9.18408 36.6711 14.5265 36.6711 21.0929C36.6711 27.6593 31.3287 32.9993 24.7623 32.9993ZM24.7623 11.1041C19.2543 11.1041 14.7735 15.5849 14.7735 21.0929C14.7735 26.6009 19.2543 31.0817 24.7623 31.0817C30.2703 31.0817 34.7511 26.6009 34.7511 21.0929C34.7511 15.5849 30.2703 11.1041 24.7623 11.1041Z" fill="#2825CA"/>
<path d="M25.54 15.1938L26.7472 17.6418C26.8744 17.8986 27.1168 18.0738 27.4 18.1146L30.1 18.5082C30.8104 18.6114 31.0936 19.485 30.58 19.9866L28.6264 21.8922C28.4224 22.0914 28.3288 22.377 28.3768 22.6578L28.8376 25.3482C28.96 26.0562 28.216 26.5962 27.58 26.2626L25.1632 24.993C25.0388 24.928 24.9005 24.894 24.76 24.894C24.6196 24.894 24.4813 24.928 24.3568 24.993L21.94 26.2626C21.304 26.5962 20.5624 26.0562 20.6824 25.3482L21.1432 22.6578C21.1912 22.377 21.0976 22.089 20.8936 21.8922L18.94 19.9866C18.4264 19.485 18.7096 18.6114 19.42 18.5082L22.12 18.1146C22.4032 18.0738 22.6456 17.8962 22.7728 17.6418L23.98 15.1938C24.304 14.5506 25.2232 14.5506 25.54 15.1938Z" fill="white"/>
<path d="M24.0723 16.151L25.8219 19.6118L28.2099 19.919L26.3715 21.7574L26.8299 23.903H24.7635L28.0563 26.1374L28.4787 25.9238L27.8715 21.8798L30.6603 19.4582L27.4155 17.9894L24.4707 15.1382L24.0723 16.151Z" fill="#6360FB"/>
<path d="M21.5403 27.3206C21.1635 27.3206 20.7891 27.203 20.4699 26.9702C20.1933 26.7708 19.9784 26.4976 19.8498 26.1818C19.7212 25.8661 19.6841 25.5205 19.7427 25.1846L20.1963 22.5422L18.2763 20.6726C18.0312 20.4355 17.8578 20.1342 17.7758 19.8031C17.6939 19.4721 17.7068 19.1246 17.8131 18.8006C18.0291 18.1358 18.5931 17.6582 19.2867 17.5574L21.9387 17.171L23.1243 14.7686C23.2739 14.4623 23.5068 14.2043 23.7963 14.0243C24.0859 13.8444 24.4202 13.7496 24.7611 13.751C25.4619 13.751 26.0883 14.1422 26.3979 14.7686L27.5835 17.171L30.2403 17.5574C30.9339 17.6582 31.4979 18.1334 31.7139 18.8006C31.9299 19.4654 31.7523 20.183 31.2507 20.6726L29.3307 22.5422L29.7843 25.1846C29.8432 25.5205 29.8061 25.8662 29.6775 26.182C29.5489 26.4978 29.3339 26.771 29.0571 26.9702C28.4907 27.3806 27.7539 27.4358 27.1347 27.1094L24.7635 25.8614L22.3923 27.1094C22.1235 27.251 21.8307 27.3206 21.5403 27.3206ZM24.7635 23.9294C25.0563 23.9294 25.3467 23.999 25.6131 24.1382L27.8619 25.319L27.4323 22.8158C27.3315 22.223 27.5259 21.6206 27.9579 21.2006L29.7771 19.427L27.2643 19.0622C26.9713 19.0199 26.6929 18.907 26.4533 18.733C26.2137 18.5591 26.02 18.3294 25.8891 18.0638L24.7659 15.7862L23.6427 18.0638C23.5118 18.3294 23.3182 18.5591 23.0786 18.733C22.8389 18.907 22.5606 19.0199 22.2675 19.0622L19.7523 19.4294L21.5715 21.203C21.7833 21.4101 21.9417 21.6654 22.0333 21.9471C22.1248 22.2289 22.1467 22.5286 22.0971 22.8206L21.6675 25.3238L23.9163 24.143C24.1803 24.0014 24.4731 23.9294 24.7635 23.9294Z" fill="#2825CA"/>
<path d="M15.5486 23.7183C15.41 23.7182 15.2756 23.6701 15.1684 23.5822C15.0612 23.4942 14.9878 23.3719 14.9606 23.2359C14.831 22.5855 14.7662 21.9159 14.7662 21.2463C14.7662 17.7183 16.5518 14.4879 19.5446 12.6087C19.8254 12.4335 20.195 12.5175 20.3726 12.7983C20.5478 13.0791 20.4638 13.4487 20.183 13.6263C17.543 15.2847 15.9662 18.1335 15.9662 21.2463C15.9662 21.8391 16.0238 22.4295 16.1366 23.0031C16.2014 23.3271 15.9902 23.6439 15.6638 23.7087C15.6278 23.7159 15.587 23.7183 15.5486 23.7183ZM21.923 12.7431C21.671 12.7431 21.4382 12.5847 21.3542 12.3327C21.2486 12.0183 21.419 11.6775 21.7334 11.5743C22.055 11.4663 22.3862 11.3751 22.7174 11.3007C23.039 11.2287 23.3606 11.4303 23.435 11.7543C23.507 12.0783 23.3054 12.3975 22.9814 12.4719C22.6886 12.5367 22.3982 12.6183 22.1126 12.7143C22.0478 12.7335 21.9854 12.7431 21.923 12.7431ZM11.8502 38.0751C11.7662 38.0751 11.6798 38.0559 11.5982 38.0199C11.4542 37.9526 11.3427 37.8309 11.2882 37.6816C11.2338 37.5322 11.2408 37.3673 11.3078 37.2231L12.2918 35.1087C12.3591 34.9646 12.4808 34.8531 12.6302 34.7987C12.7796 34.7443 12.9445 34.7513 13.0886 34.8183C13.3886 34.9575 13.5182 35.3151 13.379 35.6151L12.395 37.7295C12.2942 37.9479 12.0758 38.0751 11.8502 38.0751ZM29.8958 41.2239C29.6726 41.2239 29.4566 41.0991 29.3534 40.8831L28.3454 38.7807C28.3112 38.7098 28.2913 38.6329 28.2869 38.5543C28.2825 38.4757 28.2937 38.397 28.3198 38.3228C28.3459 38.2485 28.3864 38.1801 28.439 38.1216C28.4916 38.063 28.5552 38.0154 28.6262 37.9815C28.9238 37.8375 29.2838 37.9647 29.4254 38.2623L30.4334 40.3647C30.5774 40.6647 30.4502 41.0223 30.1526 41.1639C30.071 41.2047 29.9822 41.2239 29.8958 41.2239Z" fill="white"/>
<path d="M73.856 15.896V17.948H71.264V21.044H73.856V32.312H70.4V35.624H76.556C74.864 36.92 72.812 38.108 70.4 39.116L72.668 42.032C75.332 40.736 77.564 39.224 79.4 37.496L77.312 35.624H83.828L82.136 37.712C84.656 39.008 86.744 40.448 88.364 42.032L90.632 39.332C89.048 37.964 87.104 36.74 84.836 35.624H90.344V32.312H87.068V21.044H89.696V17.948H87.068V15.752H83.648V17.948H77.312V15.896H73.856ZM77.312 32.312V30.368H83.648V32.312H77.312ZM83.648 21.044V23.06H77.312V21.044H83.648ZM77.312 27.704V25.76H83.648V27.704H77.312ZM57.8 13.124V16.724H60.176V19.892C60.14 28.892 59.096 35.444 57.044 39.548L59.816 41.996C61.976 38.036 63.236 32.06 63.596 24.104H65.936C65.864 31.304 65.792 35.48 65.648 36.704C65.468 37.892 64.82 38.504 63.668 38.504C63.164 38.504 62.552 38.432 61.868 38.324L62.696 41.384C63.416 41.492 63.92 41.564 64.244 41.564C67.052 41.564 68.6 40.448 68.924 38.252C69.212 36.02 69.392 30.188 69.392 20.72H63.704V16.724H69.68V15.536L71.552 17.768C72.452 16.796 73.28 15.716 74.072 14.492H89.624V11.036H75.908C76.232 10.352 76.556 9.632 76.844 8.876L73.532 8.12C72.452 10.856 71.192 13.016 69.68 14.672V13.124H66.116C65.756 11.648 65.252 9.992 64.532 8.192L60.932 9.2C61.544 10.46 62.084 11.756 62.552 13.124H57.8ZM93.692 23.744V27.2H95.744C95.564 31.988 94.7 35.984 93.116 39.188L95.96 41.78C97.832 38 98.876 33.14 99.092 27.2H104.204V36.776C104.204 37.784 103.88 38.324 103.304 38.324C102.476 38.324 101.612 38.252 100.676 38.18L101.612 41.528H104.384C106.112 41.528 107.12 40.736 107.48 39.152L109.136 41.744C112.304 40.124 114.608 37.856 116.048 34.904C116.264 34.4 116.48 33.824 116.696 33.248V37.82C116.696 40.016 117.74 41.132 119.864 41.132H123.248C124.364 41.132 125.192 40.844 125.768 40.304C126.308 39.728 126.704 37.856 126.92 34.76L123.644 33.68C123.572 35.696 123.464 36.92 123.284 37.316C123.14 37.676 122.924 37.892 122.636 37.892H120.944C120.44 37.892 120.188 37.604 120.188 37.1V29.9H117.632C118.1 27.668 118.388 25.04 118.46 22.088V15.356H115.04V22.088C114.896 26.3 114.32 29.756 113.276 32.42C112.268 34.724 110.36 36.704 107.588 38.288C107.588 38.216 107.624 38.108 107.624 37.964V11.828H103.412C103.772 10.856 104.096 9.812 104.348 8.696L100.496 8.156C100.316 9.416 100.064 10.64 99.704 11.828H95.78V23.744H93.692ZM104.204 23.744H99.128V15.212H104.204V23.744ZM101.828 16.436L99.344 17.228C100.136 18.884 100.82 20.612 101.36 22.412L103.916 21.728C103.304 19.712 102.62 17.948 101.828 16.436ZM101.792 28.532L99.128 29.396C99.92 31.484 100.604 33.644 101.18 35.912L103.952 35.192C103.34 32.672 102.62 30.476 101.792 28.532ZM124.22 9.632H109.424V29.936H112.88V13.088H120.728V29.936H124.22V9.632ZM138.188 8.876V18.02H135.164V9.524H131.456V25.616C131.42 31.628 130.664 35.984 129.224 38.72L132.068 41.204C133.724 38.468 134.696 34.472 135.056 29.18H138.296V41.6H141.968V39.26L144.416 41.852C146.684 37.568 147.908 31.808 148.052 24.608V22.124H149.096C149.564 26.084 150.824 29.756 152.84 33.176C151.112 35.3 148.952 37.1 146.36 38.54L148.124 41.924C150.788 40.484 153.092 38.612 155.036 36.38C156.548 38.324 158.348 40.196 160.472 41.96L162.956 39.116C160.652 37.46 158.708 35.588 157.124 33.536C159.14 30.296 160.544 26.372 161.3 21.8V18.596H148.052V13.988C153.2 13.772 157.88 13.052 162.092 11.828L160.292 8.48C155.612 10.028 150.356 10.856 144.452 11V24.608C144.308 30.404 143.48 35.012 141.968 38.432V25.616H135.164V21.584H141.86V8.876H138.188ZM152.408 22.124H157.7C157.16 25.076 156.224 27.74 154.928 30.116C153.632 27.668 152.768 25.004 152.408 22.124Z" fill="#4643CC"/>
</svg>
