<svg width="200" height="28" viewBox="0 0 200 28" fill="none" xmlns="http://www.w3.org/2000/svg">
<path d="M10.052 0.791998C7.532 0.791998 5.444 1.476 3.824 2.916C2.096 4.356 1.16 6.372 0.944 8.964H5.084C5.228 7.416 5.732 6.264 6.596 5.508C7.424 4.752 8.576 4.392 10.088 4.392C11.564 4.392 12.68 4.716 13.436 5.364C14.12 6.012 14.48 6.948 14.48 8.208C14.48 9.468 14.084 10.44 13.328 11.088C12.536 11.736 11.384 12.06 9.872 12.06H8.072V15.228H9.872C11.528 15.228 12.788 15.552 13.652 16.272C14.516 16.956 14.984 18.036 14.984 19.512C14.984 20.736 14.552 21.744 13.724 22.572C12.788 23.472 11.492 23.94 9.872 23.94C8.396 23.94 7.208 23.508 6.308 22.68C5.3 21.78 4.796 20.484 4.724 18.828H0.44C0.656 21.708 1.664 23.94 3.464 25.452C5.084 26.82 7.244 27.504 9.908 27.504C12.716 27.504 14.984 26.712 16.712 25.164C18.368 23.652 19.196 21.708 19.196 19.332C19.196 17.82 18.764 16.56 17.9 15.588C17.108 14.652 15.92 13.968 14.408 13.5C17.252 12.564 18.692 10.692 18.692 7.884C18.692 5.652 17.9 3.924 16.352 2.664C14.768 1.404 12.644 0.791998 10.052 0.791998ZM31.0979 0.791998C28.5059 0.791998 26.3459 1.62 24.6179 3.312C22.8899 4.968 22.0259 7.092 22.0259 9.684C22.0259 12.204 22.7459 14.256 24.2579 15.84C25.7699 17.496 27.8219 18.324 30.3419 18.324C31.6379 18.324 32.7899 18.072 33.7979 17.604C34.8419 17.1 35.7419 16.308 36.4979 15.264H36.6779V15.588C36.6779 17.964 36.1739 19.944 35.2019 21.528C34.1579 23.184 32.7899 24.048 31.0979 24.048C28.6139 24.048 27.1379 22.86 26.6339 20.484H22.5299C23.1419 25.164 25.9859 27.504 31.0619 27.504C34.0139 27.504 36.3899 26.208 38.1539 23.616C39.8819 21.024 40.7819 17.604 40.7819 13.428C40.7819 9.468 39.9539 6.408 38.2979 4.176C36.6419 1.908 34.2299 0.791998 31.0979 0.791998ZM31.2419 4.284C32.6819 4.284 33.9059 4.752 34.8419 5.688C35.7779 6.624 36.2459 7.884 36.2459 9.54C36.2459 11.196 35.7779 12.492 34.9139 13.464C34.0139 14.4 32.7899 14.904 31.2419 14.904C29.6579 14.904 28.4339 14.4 27.5699 13.464C26.6339 12.528 26.2019 11.268 26.2019 9.684C26.2019 8.1 26.6339 6.804 27.5699 5.796C28.5059 4.788 29.7299 4.284 31.2419 4.284ZM52.9719 0.791998C50.1999 0.791998 48.0039 1.512 46.3839 2.988C44.9079 4.284 44.1879 5.904 44.1879 7.848C44.1879 9.144 44.4759 10.26 45.0519 11.16C45.6639 12.096 46.5999 12.852 47.8959 13.356V13.428C46.6719 13.752 45.6639 14.472 44.7999 15.588C43.7919 16.812 43.3239 18.216 43.3239 19.8C43.3239 22.104 44.1519 23.94 45.8439 25.38C47.4999 26.784 49.8759 27.504 52.9719 27.504C56.0319 27.504 58.4079 26.784 60.0999 25.38C61.7559 23.94 62.6199 22.104 62.6199 19.8C62.6199 18.216 62.1159 16.812 61.1439 15.588C60.2799 14.472 59.2359 13.752 58.0479 13.428V13.356C59.3079 12.852 60.2439 12.096 60.8919 11.16C61.4679 10.26 61.7559 9.144 61.7559 7.848C61.7559 5.904 60.9999 4.284 59.5599 2.988C57.9039 1.512 55.7079 0.791998 52.9719 0.791998ZM52.9719 4.14C54.4839 4.14 55.6719 4.536 56.6079 5.364C57.3999 6.084 57.7959 6.948 57.7959 7.992C57.7959 9.18 57.4719 10.116 56.8239 10.8C56.0319 11.628 54.7359 12.06 52.9719 12.06C51.1719 12.06 49.9119 11.628 49.1199 10.8C48.4719 10.116 48.1479 9.18 48.1479 7.992C48.1479 6.948 48.5439 6.084 49.3359 5.364C50.2359 4.536 51.4599 4.14 52.9719 4.14ZM52.9719 15.192C54.7719 15.192 56.1399 15.624 57.1119 16.524C57.9759 17.316 58.4439 18.432 58.4439 19.8C58.4439 21.096 57.9759 22.104 57.0759 22.896C56.0679 23.688 54.6999 24.12 52.9719 24.12C51.2079 24.12 49.8759 23.724 48.9399 22.932C47.9679 22.14 47.4999 21.096 47.4999 19.8C47.4999 18.432 47.9319 17.316 48.8679 16.488C49.8039 15.624 51.1719 15.192 52.9719 15.192ZM74.5578 0.791998C71.5338 0.791998 69.1938 2.016 67.5378 4.536C65.9538 6.912 65.1618 10.116 65.1618 14.148C65.1618 18.18 65.9538 21.384 67.5378 23.76C69.1938 26.244 71.5338 27.504 74.5578 27.504C77.5458 27.504 79.8858 26.244 81.5778 23.76C83.1618 21.384 83.9538 18.18 83.9538 14.148C83.9538 10.116 83.1618 6.912 81.5778 4.536C79.8858 2.016 77.5458 0.791998 74.5578 0.791998ZM74.5578 4.356C76.5738 4.356 78.0138 5.472 78.8778 7.776C79.4538 9.324 79.7418 11.448 79.7418 14.148C79.7418 16.812 79.4538 18.936 78.8778 20.52C78.0138 22.788 76.5738 23.94 74.5578 23.94C72.5058 23.94 71.0658 22.788 70.2378 20.52C69.6618 18.936 69.3738 16.812 69.3738 14.148C69.3738 11.448 69.6618 9.324 70.2378 7.776C71.0658 5.472 72.5058 4.356 74.5578 4.356ZM96.1438 0.791998C93.1198 0.791998 90.7798 2.016 89.1238 4.536C87.5398 6.912 86.7478 10.116 86.7478 14.148C86.7478 18.18 87.5398 21.384 89.1238 23.76C90.7798 26.244 93.1198 27.504 96.1438 27.504C99.1318 27.504 101.472 26.244 103.164 23.76C104.748 21.384 105.54 18.18 105.54 14.148C105.54 10.116 104.748 6.912 103.164 4.536C101.472 2.016 99.1318 0.791998 96.1438 0.791998ZM96.1438 4.356C98.1598 4.356 99.5998 5.472 100.464 7.776C101.04 9.324 101.328 11.448 101.328 14.148C101.328 16.812 101.04 18.936 100.464 20.52C99.5998 22.788 98.1598 23.94 96.1438 23.94C94.0918 23.94 92.6518 22.788 91.8238 20.52C91.2478 18.936 90.9598 16.812 90.9598 14.148C90.9598 11.448 91.2478 9.324 91.8238 7.776C92.6518 5.472 94.0918 4.356 96.1438 4.356ZM121.438 1.296V27H125.65V16.524H132.31C133.75 16.524 134.866 16.812 135.622 17.46C136.342 18.072 136.774 19.08 136.918 20.484L137.242 23.652C137.386 25.092 137.746 26.208 138.358 27H142.93C142.066 26.064 141.526 24.804 141.382 23.22L140.95 19.08C140.662 16.56 139.402 15.084 137.17 14.58V14.508C138.538 14.148 139.654 13.392 140.446 12.24C141.166 11.196 141.526 10.008 141.526 8.676C141.526 6.228 140.698 4.356 139.114 3.06C137.602 1.872 135.514 1.296 132.886 1.296H121.438ZM125.65 4.896H132.31C134.038 4.896 135.298 5.184 136.09 5.832C136.882 6.444 137.278 7.452 137.278 8.856C137.278 10.152 136.882 11.16 136.09 11.88C135.226 12.564 133.966 12.924 132.31 12.924H125.65V4.896ZM146.54 1.296V27H150.752V9.288H150.896L158.456 27H162.092L169.652 9.288H169.796V27H174.008V1.296H169.076L160.364 21.456H160.22L151.472 1.296H146.54ZM179.059 1.296V27H190.867C193.603 27 195.763 26.496 197.275 25.488C199.039 24.264 199.939 22.356 199.939 19.764C199.939 18.036 199.507 16.632 198.679 15.624C197.815 14.58 196.555 13.896 194.863 13.572C196.159 13.068 197.131 12.384 197.815 11.448C198.499 10.44 198.859 9.216 198.859 7.776C198.859 5.832 198.175 4.284 196.843 3.132C195.403 1.908 193.387 1.296 190.831 1.296H179.059ZM183.271 4.752H189.787C191.515 4.752 192.739 5.04 193.531 5.616C194.251 6.156 194.647 7.056 194.647 8.28C194.647 9.612 194.251 10.584 193.531 11.196C192.775 11.772 191.515 12.096 189.715 12.096H183.271V4.752ZM183.271 15.552H190.363C192.235 15.552 193.603 15.876 194.467 16.524C195.295 17.172 195.727 18.216 195.727 19.692C195.727 21.132 195.151 22.14 193.999 22.788C193.099 23.292 191.839 23.544 190.255 23.544H183.271V15.552Z" fill="#4643CC"/>
</svg>
