<svg width="238" height="242" viewBox="0 0 238 242" fill="none" xmlns="http://www.w3.org/2000/svg">
<path d="M158.525 86.5549C167.043 84.2726 172.096 75.5089 169.81 66.9806C167.525 58.4523 158.768 53.3889 150.25 55.6712C141.732 57.9535 136.68 66.7173 138.965 75.2456C141.25 83.7739 150.008 88.8372 158.525 86.5549Z" fill="#FF793A"/>
<path fill-rule="evenodd" clip-rule="evenodd" d="M-19.1518 141.727L112.221 177.329L106.152 197.307L-25.2205 161.705L-19.1518 141.727Z" fill="#FF793A"/>
<path d="M143.928 167.248C154.999 159.496 157.702 144.252 149.963 133.201C142.225 122.15 126.977 119.475 115.905 127.228C104.833 134.98 102.131 150.224 109.869 161.275C117.608 172.326 132.856 175.001 143.928 167.248Z" fill="#004ED1"/>
<path fill-rule="evenodd" clip-rule="evenodd" d="M186.778 156.409L178.458 82.9347L199.222 81.6248L207.542 155.099L186.778 156.409Z" fill="#C9E6FF"/>
</svg>
