<svg width="97" height="83" viewBox="0 0 97 83" fill="none" xmlns="http://www.w3.org/2000/svg">
<path d="M40.1134 49.7503L25.3113 49.7519L21.1893 55.8452C20.5653 56.7227 19.9866 57.6142 18.5043 57.6142C16.9072 57.6142 15.6124 56.3547 15.6124 54.8011V49.7519H12.3794C10.5932 49.7519 9.14648 48.3446 9.14648 46.607V18.3026C9.14648 16.5651 10.5932 15.1577 12.3794 15.1577H44.709C46.4936 15.1577 47.942 16.5651 47.942 18.3026V36.7036" stroke="#004ED1" stroke-width="3"/>
<path d="M18.335 8.08203H21.3978" stroke="#004ED1" stroke-width="3"/>
<path d="M2 21.2233V17.9392C2 12.4964 6.45778 8.08203 11.9541 8.08203H15.2722" stroke="#004ED1" stroke-width="3"/>
<path fill-rule="evenodd" clip-rule="evenodd" d="M63.7665 46.2089C65.315 44.6903 67.2997 43.4624 69.6476 43.4624C74.011 43.4624 77.5491 46.8872 77.5491 51.1111C77.5491 53.3779 76.5308 55.4143 74.9126 56.8154L65.2891 65.1408C64.8837 65.4887 64.3502 65.7015 63.7665 65.7015C63.1828 65.7015 62.6493 65.4887 62.2439 65.1408L52.6204 56.8154C51.0022 55.4143 49.9839 53.3779 49.9839 51.1111C49.9839 46.8872 53.522 43.4624 57.8854 43.4624C60.2333 43.4624 62.218 44.6903 63.7665 46.2089Z" stroke="#FF793A" stroke-width="3"/>
<path d="M93.8842 58.6255C91.8994 66.3854 86.6435 72.9202 79.5911 76.8211" stroke="#004ED1" stroke-width="3"/>
<path d="M95 52.5601C95 53.5829 94.9367 54.5938 94.8101 55.5927" stroke="#004ED1" stroke-width="3"/>
<path d="M58.1514 12.1255H72.4445" stroke="#004ED1" stroke-width="3"/>
<path d="M51.0049 18.1904H78.5701" stroke="#004ED1" stroke-width="3"/>
<path d="M54.0676 24.2559H75.5073" stroke="#004ED1" stroke-width="3"/>
<path d="M79.5911 69.7449C80.3125 69.1166 80.9936 68.4399 81.6329 67.7231" stroke="#004ED1" stroke-width="3"/>
<path d="M85.5373 63.4341C87.6002 60.1945 88.7795 56.4384 88.7795 52.4343C88.7795 40.2213 77.8088 30.3208 64.2771 30.3208C50.7438 30.3208 39.7747 40.2213 39.7747 52.4343C39.7747 58.138 42.1664 63.3378 46.0979 67.2598V77.8411C46.0979 79.5122 46.8329 80.8643 48.428 80.8643C49.8791 80.8643 50.464 80.2167 51.1153 79.3969L56.0806 73.2809C58.8044 74.2239 61.185 74.5477 64.2771 74.5477C68.4552 74.5477 72.3898 73.6047 75.8312 71.9399" stroke="#004ED1" stroke-width="3"/>
<path d="M13.2302 30.7549H17.8561C18.9644 30.7549 19.8363 30.4006 20.4265 29.3934L24.531 21.8205C24.6735 21.5282 25.1901 21.2231 25.7536 21.2231C26.6193 21.2231 27.3191 21.9348 27.3191 22.8118V29.1663H33.4164C35.0695 29.1663 36.5535 30.3847 36.6991 32.0576C36.7398 32.5198 36.6803 32.9647 36.5441 33.3729L33.4963 42.39C33.2865 43.0143 32.701 43.4623 32.0154 43.4623H17.9265" stroke="#FF793A" stroke-width="3"/>
<path d="M44.8792 15.5672C47.1538 7.7701 55.0575 2.0166 64.4587 2.0166C75.6343 2.0166 84.6956 10.1486 84.6956 20.1789C84.6956 25.9182 81.7297 31.0352 77.0979 34.3644" stroke="#004ED1" stroke-width="3"/>
</svg>
