<svg width="92" height="100" viewBox="0 0 92 100" fill="none" xmlns="http://www.w3.org/2000/svg">
<path d="M18 59.1502C18 59.1502 19.9317 49.8852 24.6667 39.3214C25.7783 36.8428 27.6833 36.0166 28.8333 36.0166C31.135 36.0166 33 37.8656 33 40.1476C33 40.6665 32.7233 42.1487 32.61 42.6262C30.5383 51.2699 29.6667 53.6758 29.6667 59.1502C29.6667 65.7499 29.6667 69.947 23.7917 75.0166" stroke="#004ED1" stroke-width="3"/>
<path d="M17.1586 34.0166C17.1586 34.0166 14.0679 36.2309 12.2509 37.9243C9.32655 40.6528 8.44033 41.8038 7.72723 43.7502C6.21363 47.8811 5 51.7705 5 57.2177C5 65.4862 10.715 76.0945 21 86.0166" stroke="#004ED1" stroke-width="3"/>
<path d="M44 84.043L39.8152 76.9419C39.5383 76.3989 38.9963 76.0166 38.3508 76.0166C38.1456 76.0166 37.9522 76.0657 37.7703 76.135L16.0658 89.6725C15.4437 89.9195 15 90.5233 15 91.2405C15 91.5078 15.0667 91.77 15.1768 91.995L18.9413 99.0166" stroke="#004ED1" stroke-width="3"/>
<path d="M28 70.0166C28.762 76.0805 33 79.0166 33 79.0166" stroke="#004ED1" stroke-width="3"/>
<path d="M26 37.0166L22 20.0166" stroke="#004ED1" stroke-width="3"/>
<path d="M29 19.0166L19.0829 21.1176C16.753 21.583 15 23.5784 15 25.9682C15 26.361 15.0597 26.739 15.1485 27.1037L20.7147 50.0166" stroke="#004ED1" stroke-width="3"/>
<path d="M30 66.0166L86.0238 54.1774C88.2928 53.7046 90 51.6794 90 49.2519C90 48.8529 89.9418 48.469 89.8554 48.0985L81.5357 12.8658C81.0071 10.6595 79.0506 9.0166 76.7018 9.0166C76.356 9.0166 76.0186 9.05181 75.6911 9.12054L54.8926 13.4022" stroke="#004ED1" stroke-width="3"/>
<path d="M48 11.0166L40.3295 19.0166L36 14.4994" stroke="#FF793A" stroke-width="3"/>
<path d="M48 57.0166L44.4963 44.276C44.3181 43.561 43.6705 43.0166 42.8601 43.0166C42.7264 43.0166 42.6082 43.0605 42.4832 43.0881L36 44.5929" stroke="#004ED1" stroke-width="3"/>
<path fill-rule="evenodd" clip-rule="evenodd" d="M57 82.0166H60V79.0166H57V82.0166Z" fill="#004ED1"/>
<path fill-rule="evenodd" clip-rule="evenodd" d="M64 86.0166H67V83.0166H64V86.0166Z" fill="#004ED1"/>
<path fill-rule="evenodd" clip-rule="evenodd" d="M70 87.0166H73V84.0166H70V87.0166Z" fill="#004ED1"/>
<path fill-rule="evenodd" clip-rule="evenodd" d="M84 82.0166H87V79.0166H84V82.0166Z" fill="#004ED1"/>
<path fill-rule="evenodd" clip-rule="evenodd" d="M87 76.0166H90V73.0166H87V76.0166Z" fill="#004ED1"/>
<path fill-rule="evenodd" clip-rule="evenodd" d="M77 86.0166H80V83.0166H77V86.0166Z" fill="#004ED1"/>
<path fill-rule="evenodd" clip-rule="evenodd" d="M89 69.0166H92V66.0166H89V69.0166Z" fill="#004ED1"/>
<path fill-rule="evenodd" clip-rule="evenodd" d="M12 11.0166H15V8.0166H12V11.0166Z" fill="#004ED1"/>
<path fill-rule="evenodd" clip-rule="evenodd" d="M0 22.0166H3V19.0166H0V22.0166Z" fill="#004ED1"/>
<path fill-rule="evenodd" clip-rule="evenodd" d="M4 14.0166H7V11.0166H4V14.0166Z" fill="#004ED1"/>
<path fill-rule="evenodd" clip-rule="evenodd" d="M20 14.0166H23V11.0166H20V14.0166Z" fill="#004ED1"/>
<path fill-rule="evenodd" clip-rule="evenodd" d="M4 31.0166H7V28.0166H4V31.0166Z" fill="#004ED1"/>
<path fill-rule="evenodd" clip-rule="evenodd" d="M87 62.0166H90V59.0166H87V62.0166Z" fill="#004ED1"/>
<path fill-rule="evenodd" clip-rule="evenodd" d="M54 76.0166H57V73.0166H54V76.0166Z" fill="#004ED1"/>
<path fill-rule="evenodd" clip-rule="evenodd" d="M52 69.0166H55V66.0166H52V69.0166Z" fill="#004ED1"/>
<path d="M66 53.4366L61.719 35.2975C61.5477 34.5703 60.9324 34.0166 60.1604 34.0166C60.0331 34.0166 59.9189 34.0612 59.8014 34.0893L53.2355 35.7189C52.5419 35.9107 52 36.5602 52 37.3221C52 37.4296 52.018 37.5667 52.0359 37.6692L56.4442 55.0166" stroke="#004ED1" stroke-width="3"/>
<path d="M84 50.4063L76.9621 22.2943C76.7865 21.5682 76.1558 21.0166 75.3645 21.0166C75.234 21.0166 75.1169 21.0627 74.9965 21.0891L68.2664 22.7142C67.5554 22.9036 67 23.5507 67 24.3097C67 24.4184 67.0184 24.5551 67.0368 24.6555L73.9726 52.0166" stroke="#004ED1" stroke-width="3"/>
<path fill-rule="evenodd" clip-rule="evenodd" d="M58 27.3291H48.4679C46.5966 28.4091 44.4283 29.0166 42.1318 29.0166C34.8765 29.0166 29 22.9754 29 15.5166C29 8.05785 34.8765 2.0166 42.1318 2.0166C49.3872 2.0166 55.2637 8.05785 55.2637 15.5166C55.2637 17.086 55.001 18.5727 54.525 19.9716L58 27.3291Z" stroke="#004ED1" stroke-width="3"/>
</svg>
