<svg width="101" height="103" viewBox="0 0 101 103" fill="none" xmlns="http://www.w3.org/2000/svg">
<path fill-rule="evenodd" clip-rule="evenodd" d="M47 75.5166C47 78.0021 44.9855 80.0166 42.5 80.0166C40.0145 80.0166 38 78.0021 38 75.5166C38 73.0311 40.0145 71.0166 42.5 71.0166C44.9855 71.0166 47 73.0311 47 75.5166Z" stroke="#004ED1" stroke-width="3"/>
<path d="M36.4651 58.0166H72.8372C74.5831 58.0166 76 59.4421 76 61.1984V89.8348C76 91.5911 74.5831 93.0166 72.8372 93.0166H11.1628C9.41693 93.0166 8 91.5911 8 89.8348V61.1984C8 59.4421 9.41693 58.0166 11.1628 58.0166H26.9767" stroke="#004ED1" stroke-width="3"/>
<path d="M37.0031 64.0166H65.2857C65.2857 66.7352 67.2814 68.7309 70 68.7309V81.3023C67.2814 81.3023 65.2857 83.298 65.2857 86.0166H19.7143C19.7143 83.298 17.7201 81.3023 15 81.3023V68.7309C17.7201 68.7309 19.7143 66.7352 19.7143 64.0166H27.5714" stroke="#004ED1" stroke-width="3"/>
<path d="M21 58.0166V47.263C21 45.471 22.374 44.0166 24.0705 44.0166H27" stroke="#004ED1" stroke-width="3"/>
<path d="M32 73.0166V70.0166" stroke="#FF793A" stroke-width="3"/>
<path d="M32 80.0166V77.0166" stroke="#FF793A" stroke-width="3"/>
<path d="M2 88.0166V85.0166" stroke="#004ED1" stroke-width="3"/>
<path d="M2 81.0166V78.0166" stroke="#004ED1" stroke-width="3"/>
<path d="M63 29.0166V32.0166" stroke="#FF793A" stroke-width="3"/>
<path d="M63 36.0166V39.0166" stroke="#FF793A" stroke-width="3"/>
<path d="M81 25.0166V28.0166" stroke="#004ED1" stroke-width="3"/>
<path d="M81 31.0166V39.0166" stroke="#004ED1" stroke-width="3"/>
<path d="M63.7169 25.6708V14.6326H67.7765C69.0056 14.6326 69.9548 13.5981 69.9988 12.3981C70.0193 11.8099 69.7678 11.2485 69.3529 10.8338C68.2873 9.76154 63.7955 5.25163 61.6816 3.12913C60.9696 2.4148 59.8883 2.03635 59.0019 2.01743C57.9945 1.99535 57.031 2.41796 56.3191 3.13229L48.6509 10.8259C48.2344 11.2438 47.9908 11.8115 48.0003 12.4028C48.0191 13.6691 48.9951 14.6326 50.2226 14.6326H54.2869V43.0166" stroke="#FF793A" stroke-width="3"/>
<path d="M37 43.0166H85.8485C87.5771 43.0166 89 44.3593 89 46.1833V77.8499C89 79.6739 87.5771 81.0166 85.8485 81.0166H81.1212" stroke="#004ED1" stroke-width="3"/>
<path d="M36 50.0166H77.2412C77.2412 52.7352 79.2558 54.7309 82 54.7309V72.0166" stroke="#004ED1" stroke-width="3"/>
<path d="M41.7169 38.3291V28.7666H45.7789C47.0057 28.7666 48 27.8677 48 26.513C48 25.9154 47.766 25.3416 47.3497 24.9193L39.6859 17.1434C38.9759 16.423 37.8874 16.0166 37.0046 16.0166C35.9977 16.0166 35.0333 16.423 34.3233 17.1434L26.6595 24.9193C26.2433 25.3416 26.0516 26.0827 26.0092 26.513C25.8867 27.7514 27.0035 28.7666 28.2303 28.7666H32.2923V67.0166" stroke="#FF793A" stroke-width="3"/>
</svg>
