<svg width="87" height="94" viewBox="0 0 87 94" fill="none" xmlns="http://www.w3.org/2000/svg">
<path fill-rule="evenodd" clip-rule="evenodd" d="M54.8718 19.6572H67.902C68.7327 19.6572 69.4063 20.3308 69.4063 21.1599V29.379C69.4063 30.2097 68.7327 30.8832 67.902 30.8832H54.8718C54.0411 30.8832 53.3691 30.2097 53.3691 29.379V21.1599C53.3691 20.3308 54.0411 19.6572 54.8718 19.6572Z" stroke="#FF793A" stroke-width="3"/>
<path d="M66.198 19.6575V14.8463C66.198 12.1889 64.0442 10.0352 61.3868 10.0352C58.7295 10.0352 56.5757 12.1889 56.5757 14.8463V19.6575" stroke="#FF793A" stroke-width="3"/>
<path fill-rule="evenodd" clip-rule="evenodd" d="M74.1852 14.8463C80.3916 14.8463 85.4433 19.866 85.4433 26.0723C85.4433 32.2787 80.4236 37.2984 74.2173 37.2984H48.5578C42.3498 37.2984 37.3318 32.2787 37.3318 26.0723C37.3318 19.866 42.3498 14.8463 48.5578 14.8463C48.5402 14.5737 48.5578 14.3171 48.5578 14.0445C48.5578 7.40509 54.2991 2.0166 61.3875 2.0166C68.4743 2.0166 74.2173 7.40509 74.2173 14.0445C74.2173 14.3171 74.2012 14.5737 74.1852 14.8463Z" stroke="#004ED1" stroke-width="3"/>
<path d="M22.5531 68.4517L19.8155 75.1632C19.7353 75.3557 19.6904 75.5674 19.6904 75.7871C19.6904 76.6739 20.4089 77.3908 21.2941 77.3908C21.3984 77.3908 21.4994 77.3812 21.5956 77.3635L82.5369 66.1375C83.2794 65.9964 83.8391 65.3453 83.8391 64.5611C83.8391 64.0559 83.6049 63.6068 83.2409 63.3118L75.2175 56.8937C74.9433 56.674 74.5953 56.5425 74.2168 56.5425C74.1077 56.5425 74.0051 56.5537 73.9041 56.5746L53.2338 60.3882" stroke="#004ED1" stroke-width="3"/>
<path d="M19.738 76.1778L21.3418 82.5927C21.5166 83.2903 22.1468 83.8067 22.8974 83.8067C23.0016 83.8067 23.1026 83.797 23.1989 83.7778L84.1433 72.5518C84.8842 72.4091 85.4423 71.7579 85.4423 70.9769C85.4423 70.8422 85.4263 70.7123 85.3942 70.5872L83.7905 64.1724" stroke="#004ED1" stroke-width="3"/>
<path d="M1.08301 77.9331C6.48432 82.5117 17.9541 91.8245 32.5207 91.8245C36.7962 91.8245 45.3504 90.9473 45.3504 87.0133C45.3504 83.7273 42.7492 81.8927 40.674 80.5632" stroke="#004ED1" stroke-width="3"/>
<path d="M32.6914 82.0303L36.6526 86.4742" stroke="#004ED1" stroke-width="3"/>
<path d="M1 59.4998C9.87015 55.4841 17.2264 51.7314 27.7083 51.7314C35.4607 51.7314 40.3889 52.7594 43.3958 53.8612C47.0732 55.2099 53.3677 57.4663 53.3677 61.3537C53.3677 63.8603 50.9878 64.5612 48.2567 64.5612C43.2435 64.5612 39.5966 61.3537 35.7269 61.3537C29.3681 69.3739 14.8786 69.3723 14.8786 69.3723" stroke="#004ED1" stroke-width="3"/>
<path d="M44.6299 88.8129C49.2325 88.1474 53.3685 86.4731 53.3685 83.8061C53.3685 81.0237 50.4738 79.359 49.5918 78.918" stroke="#004ED1" stroke-width="3"/>
<path d="M33.8974 63.271L30.1479 75.788" stroke="#004ED1" stroke-width="3"/>
<path fill-rule="evenodd" clip-rule="evenodd" d="M13.2747 27.6762H16.4821V24.4688H13.2747V27.6762Z" fill="#004ED1"/>
<path d="M61.3867 50.1279V53.3354" stroke="#004ED1" stroke-width="3"/>
<path d="M61.3867 37.2983V46.9206" stroke="#004ED1" stroke-width="3"/>
<path d="M51.7646 37.2983V51.7318" stroke="#004ED1" stroke-width="3"/>
<path fill-rule="evenodd" clip-rule="evenodd" d="M69.4048 51.7318H72.6122V48.5244H69.4048V51.7318Z" fill="#004ED1"/>
<path fill-rule="evenodd" clip-rule="evenodd" d="M69.4048 45.3168H72.6122V42.1094H69.4048V45.3168Z" fill="#004ED1"/>
<path fill-rule="evenodd" clip-rule="evenodd" d="M13.2747 21.2611H16.4821V18.0537H13.2747V21.2611Z" fill="#004ED1"/>
<path fill-rule="evenodd" clip-rule="evenodd" d="M13.2747 14.8461H16.4821V11.6387H13.2747V14.8461Z" fill="#004ED1"/>
<path fill-rule="evenodd" clip-rule="evenodd" d="M24.5007 40.5058H27.7082V37.2983H24.5007V40.5058Z" fill="#004ED1"/>
<path fill-rule="evenodd" clip-rule="evenodd" d="M24.5007 34.0907H27.7082V30.8833H24.5007V34.0907Z" fill="#004ED1"/>
<path fill-rule="evenodd" clip-rule="evenodd" d="M24.5007 27.6762H27.7082V24.4688H24.5007V27.6762Z" fill="#004ED1"/>
</svg>
