<svg width="60" height="47" viewBox="0 0 60 47" fill="none" xmlns="http://www.w3.org/2000/svg">
<path d="M6.20508 41.2262L6.20508 34.75" stroke="#FF793A" stroke-width="3"/>
<path d="M6.20508 33.1908L6.20508 29.9526" stroke="#FF793A" stroke-width="3"/>
<path d="M36.4996 6.25847C36.6033 5.83329 36.5443 5.38473 36.3341 5.00084C35.7978 4.07027 35.0831 3.25476 34.2308 2.60109C33.3786 1.94743 32.4057 1.46849 31.3679 1.19175C30.3301 0.915006 29.2479 0.845913 28.1834 0.988434C27.1188 1.13095 26.0929 1.48228 25.1645 2.02226L21.6067 4.07417L13.3329 0.185468C13.0976 0.0636053 12.8366 0 12.5717 0C12.3067 0 12.0457 0.0636053 11.8105 0.185468L6.84617 3.04822C6.60083 3.18973 6.39592 3.39185 6.25106 3.63523C6.10619 3.87861 6.02621 4.15509 6.01879 4.43822C6.01077 4.72345 6.07665 5.00591 6.21003 5.25816C6.3434 5.51042 6.53974 5.7239 6.77998 5.87787L12.2407 9.31979L9.36142 10.9746L1.45163 11.9343C1.13366 11.9737 0.833941 12.1044 0.588869 12.3108C0.343796 12.5172 0.163907 12.7903 0.0710385 13.0969C-0.0218295 13.4036 -0.0236816 13.7306 0.0657071 14.0382C0.155096 14.3459 0.331881 14.621 0.5746 14.8302L6.43248 19.8938C7.20368 20.6298 8.19133 21.098 9.2493 21.2291C10.3073 21.3603 11.3793 21.1473 12.3069 20.6219L35.6722 7.26788C35.8714 7.16451 36.0474 7.02172 36.1896 6.84819C36.3319 6.67466 36.4373 6.47402 36.4996 6.25847ZM10.8011 17.8418C10.4832 18.0167 10.1167 18.0823 9.75786 18.0285C9.39907 17.9747 9.06791 17.8045 8.81534 17.544L5.67128 14.8467L10.1888 14.3006C10.4108 14.2722 10.6247 14.199 10.8176 14.0855L16.3776 10.8918C16.6253 10.7489 16.8318 10.5441 16.9768 10.2976C17.1218 10.0511 17.2004 9.77123 17.205 9.48527C17.2084 9.20125 17.1386 8.92115 17.0024 8.67191C16.8662 8.42267 16.6681 8.21268 16.4273 8.06216L10.9665 4.6037L12.7868 3.5612L21.0606 7.40026C21.2959 7.52212 21.5569 7.58573 21.8218 7.58573C22.0867 7.58573 22.3478 7.52212 22.583 7.40026L26.8192 4.9512C27.6873 4.4647 28.6816 4.25033 29.673 4.3359C30.6645 4.42147 31.6073 4.80304 32.3792 5.43108L10.8011 17.8418Z" fill="#FF793A"/>
<path d="M37.6421 8.6875C45.0685 8.6875 45.8112 12.2522 46.3136 16.6016L48.2794 33.4161C48.9128 38.9313 47.2528 43.4376 39.6079 43.4376H19.9715C12.3048 43.4376 10.6447 38.9313 11.3 33.4161L12.2829 25.0088" stroke="#004ED1" stroke-width="3" stroke-linecap="round" stroke-linejoin="round"/>
<path d="M37.9688 25.0952C37.9688 25.0952 35.7772 31.4133 29.8369 31.4133C23.8967 31.4133 21.5869 25.0952 21.5869 25.0952" stroke="#004ED1" stroke-width="3" stroke-linecap="round" stroke-linejoin="round"/>
<path fill-rule="evenodd" clip-rule="evenodd" d="M57.7177 28.3986L56.742 26.1162L59.0243 25.1405L60 27.4229L57.7177 28.3986Z" fill="#004ED1"/>
<path fill-rule="evenodd" clip-rule="evenodd" d="M50.5302 46.318L49.5545 44.0356L51.8368 43.0599L52.8125 45.3423L50.5302 46.318Z" fill="#004ED1"/>
<path fill-rule="evenodd" clip-rule="evenodd" d="M57.7079 37.8512L56.7322 35.5688L59.0145 34.5931L59.9902 36.8755L57.7079 37.8512Z" fill="#004ED1"/>
<path fill-rule="evenodd" clip-rule="evenodd" d="M50.8798 21.8741L49.9041 19.5918L52.1864 18.6161L53.1621 20.8984L50.8798 21.8741Z" fill="#004ED1"/>
<path fill-rule="evenodd" clip-rule="evenodd" d="M39.4491 45.6569L38.4734 43.3745L40.7557 42.3988L41.7314 44.6812L39.4491 45.6569Z" fill="#004ED1"/>
</svg>
