<svg width="70" height="46" viewBox="0 0 70 46" fill="none" xmlns="http://www.w3.org/2000/svg">
<path d="M3.88867 40.4446L3.88867 36.5557" stroke="#004ED1" stroke-width="3"/>
<path d="M3.88867 34.8704V32.6665" stroke="#004ED1" stroke-width="3"/>
<path d="M67.2549 9.3335V11.5374" stroke="#FF793A" stroke-width="3"/>
<path d="M67.2549 13.7412V19.6182" stroke="#FF793A" stroke-width="3"/>
<rect x="9.27734" y="23.2778" width="4" height="20.3333" stroke="#FF793A" stroke-width="3"/>
<path d="M13.9443 4C13.9443 2.61929 15.0636 1.5 16.4443 1.5H37.9999C39.3806 1.5 40.4999 2.61929 40.4999 4V43.6111H13.9443V4Z" stroke="#004ED1" stroke-width="3"/>
<path d="M41.167 12.3887H59.0003C60.381 12.3887 61.5003 13.508 61.5003 14.8887V43.6109H41.167V12.3887Z" stroke="#004ED1" stroke-width="3"/>
<rect x="21.7227" y="10.3774" width="11" height="4.77778" stroke="#FF793A" stroke-width="3"/>
<line x1="20.2227" y1="23.4961" x2="34.2227" y2="23.4961" stroke="#004ED1" stroke-width="3"/>
<line x1="45.1113" y1="21.8599" x2="57.1801" y2="21.8599" stroke="#004ED1" stroke-width="3"/>
<line x1="20.2227" y1="32.373" x2="34.2227" y2="32.373" stroke="#004ED1" stroke-width="3"/>
<line x1="45.1113" y1="31.5151" x2="57.1801" y2="31.5151" stroke="#004ED1" stroke-width="3"/>
<line x1="-1.31134e-07" y1="43.584" x2="70" y2="43.584" stroke="#004ED1" stroke-width="3"/>
</svg>
