<svg width="57" height="52" viewBox="0 0 57 52" fill="none" xmlns="http://www.w3.org/2000/svg">
<path d="M47.9719 21.0044V29.4099C47.9719 34.853 46.5589 38.1844 43.2803 39.8565" stroke="#004ED1" stroke-width="3" stroke-linecap="round" stroke-linejoin="round"/>
<path d="M35.5413 3.74463H26.7988" stroke="#004ED1" stroke-width="3" stroke-linecap="round" stroke-linejoin="round"/>
<path d="M35.4668 3.74463H41.1765C46.0813 3.74463 47.9533 5.61667 48.6273 10.484L49.1514 15.6321C49.4575 18.7083 47.6616 21.3215 44.9299 22.1728" stroke="#004ED1" stroke-width="3" stroke-linecap="round" stroke-linejoin="round"/>
<path d="M26.7433 3.74463H21.0335C17.7917 3.74463 15.8747 4.56247 14.7529 6.52249" stroke="#004ED1" stroke-width="3" stroke-linecap="round" stroke-linejoin="round"/>
<path d="M5.51758 27.8164V30.6658M38.4626 27.8164V36.0481C38.4626 44.2797 35.1626 47.5797 26.9309 47.5797H17.0492C12.0047 47.5797 8.81221 46.3404 7.09633 43.4862" stroke="#004ED1" stroke-width="3" stroke-linecap="round" stroke-linejoin="round"/>
<path d="M3.07432 40.3795C2.63716 40.3795 2.23123 40.3029 1.85652 40.1496C1.48181 39.9906 1.15252 39.7721 0.868645 39.4939C0.590452 39.21 0.37471 38.8807 0.221419 38.506C0.0738065 38.1313 0 37.7282 0 37.2967C0 36.8652 0.0738065 36.4621 0.221419 36.0874C0.37471 35.7127 0.590452 35.3863 0.868645 35.1081C1.15252 34.8299 1.47897 34.6113 1.848 34.4523C2.22271 34.2934 2.63148 34.2139 3.07432 34.2139C3.55123 34.2139 3.97135 34.2934 4.33471 34.4523C4.69806 34.6056 5.01884 34.8185 5.29703 35.091L4.51355 35.8745C4.3489 35.6928 4.14736 35.5509 3.9089 35.4487C3.67045 35.3465 3.39226 35.2954 3.07432 35.2954C2.79613 35.2954 2.54065 35.3437 2.30787 35.4402C2.08077 35.531 1.88206 35.6673 1.71174 35.849C1.54142 36.025 1.41084 36.2379 1.32 36.4877C1.22916 36.7318 1.18374 37.0015 1.18374 37.2967C1.18374 37.5976 1.22916 37.8701 1.32 38.1143C1.41084 38.3584 1.54142 38.5713 1.71174 38.753C1.88206 38.929 2.08077 39.0652 2.30787 39.1617C2.54065 39.2583 2.79613 39.3065 3.07432 39.3065C3.40929 39.3065 3.696 39.2554 3.93445 39.1532C4.17858 39.051 4.38297 38.9063 4.54761 38.7189L5.3311 39.5024C5.0529 39.7806 4.72929 39.9963 4.36026 40.1496C3.99123 40.3029 3.56258 40.3795 3.07432 40.3795Z" fill="#FF793A"/>
<path d="M6.13627 40.2944V34.3075H7.29446V40.2944H6.13627ZM9.89188 40.2944V34.3075H11.0501V40.2944H9.89188ZM6.86866 37.714V36.6921H10.2155V37.714H6.86866Z" fill="#FF793A"/>
<path d="M12.2739 40.2944V34.3075H13.0829L13.4321 35.4657V40.2944H12.2739ZM16.4127 40.2944L12.8615 35.6957L13.0829 34.3075L16.6341 38.9063L16.4127 40.2944ZM16.4127 40.2944L16.0806 39.1703V34.3075H17.2473V40.2944H16.4127Z" fill="#FF793A"/>
<path d="M22.0002 29.2464C25.3552 29.2464 27.8302 26.5148 27.5002 23.1598L26.2902 10.9131H17.7286L16.5002 23.1598C16.1702 26.5148 18.6452 29.2464 22.0002 29.2464Z" stroke="#004ED1" stroke-width="3" stroke-linecap="round" stroke-linejoin="round"/>
<path d="M33.5694 29.2464C37.2728 29.2464 39.9861 26.2398 39.6194 22.5548L39.1061 17.5131C38.4461 12.7464 36.6128 10.9131 31.8094 10.9131H26.2178L27.5011 23.7648C27.8128 26.7898 30.5444 29.2464 33.5694 29.2464Z" stroke="#004ED1" stroke-width="3" stroke-linecap="round" stroke-linejoin="round"/>
<path d="M10.34 29.2464C13.365 29.2464 16.0967 26.7898 16.39 23.7648L16.7934 19.7131L17.6734 10.9131H12.0817C7.27836 10.9131 5.44503 12.7464 4.78503 17.5131L4.29003 22.5548C3.92336 26.2398 6.6367 29.2464 10.34 29.2464Z" stroke="#004ED1" stroke-width="3" stroke-linecap="round" stroke-linejoin="round"/>
<path d="M55 27.5V30.25" stroke="#FF793A" stroke-width="3"/>
<path d="M55 20.625V23.375" stroke="#FF793A" stroke-width="3"/>
<path d="M55 34.375V41.25" stroke="#FF793A" stroke-width="3"/>
</svg>
