<svg width="57" height="55" viewBox="0 0 57 55" fill="none" xmlns="http://www.w3.org/2000/svg">
<path d="M6.875 50.417L6.875 46.9795" stroke="#FF793A" stroke-width="3"/>
<path d="M50.416 48.1247L50.416 42.3955" stroke="#004ED1" stroke-width="3"/>
<path d="M50.416 41.2497L50.416 38.958" stroke="#004ED1" stroke-width="3"/>
<path d="M6.875 44.0408V42.3955" stroke="#FF793A" stroke-width="3"/>
<path d="M55 26.3545V28.6462" stroke="#FF793A" stroke-width="3"/>
<path d="M55 22.917V25.2087" stroke="#FF793A" stroke-width="3"/>
<path d="M55 29.792L55 32.0837" stroke="#FF793A" stroke-width="3"/>
<rect x="27.0385" y="9.54713" width="25.8483" height="36.982" rx="2.5" transform="rotate(16.681 27.0385 9.54713)" fill="white" stroke="#004ED1" stroke-width="3"/>
<rect x="14.1924" y="9.0127" width="27.4615" height="42.8333" rx="2.5" fill="white" stroke="#004ED1" stroke-width="3"/>
<g clipPath="url(#clip0_39_1150)">
<path d="M30.2698 27.2102C29.4242 28.4469 28.1859 29.0313 26.7368 29.0313C24.9768 29.0313 23.4704 27.6769 23.6866 25.881C23.9273 23.8888 25.4741 23.0317 28.0469 22.7163C28.506 22.6605 28.6962 22.6444 29.687 22.5711L29.7924 22.5635V22.3992C29.7924 21.0273 28.9766 20.0908 27.8827 20.0908C26.785 20.0908 26.0188 20.6614 25.549 22.0203L24.1052 21.5223C24.7828 19.5591 26.1204 18.563 27.8827 18.563C29.8711 18.563 31.3202 20.2267 31.3202 22.3992C31.3202 24.4228 31.4447 26.0323 31.6891 26.6442C31.9611 27.3256 32.0604 27.4974 32.3644 27.8763L31.1727 28.8319C30.7732 28.3339 30.5975 28.0306 30.2706 27.211V27.2102H30.2698ZM34.572 31.7362C34.365 31.889 34.0052 31.7981 34.1679 31.4001C34.3704 30.9051 34.5858 30.3246 34.3681 30.0618C34.2077 29.867 34.0113 29.77 33.5836 29.77C33.2322 29.77 33.0565 29.8158 32.8235 29.8311C32.6677 29.841 32.5997 29.6042 32.754 29.495C32.956 29.3502 33.1806 29.2398 33.4186 29.1681C34.297 28.9053 35.3321 29.0497 35.4582 29.2315C35.737 29.6363 35.3061 31.1939 34.572 31.737V31.7362ZM33.6691 30.9082C33.4708 31.1001 33.2589 31.2775 33.0351 31.4391C31.4141 32.6735 29.315 33.3183 27.4908 33.3183C24.5552 33.3183 21.9297 31.9486 19.9375 29.6554C19.7671 29.4797 19.9084 29.2231 20.1078 29.3621C22.2543 30.9487 24.9111 31.9081 27.6619 31.9081C29.3921 31.9081 31.2583 31.4979 33.0359 30.6149C33.1596 30.5568 33.2986 30.4774 33.4201 30.4208C33.7004 30.2604 33.9472 30.6546 33.6691 30.9082ZM29.8 24.0943C28.8391 24.1661 28.6573 24.1806 28.2325 24.2326C26.2831 24.4717 25.332 24.9988 25.2037 26.0644C25.1075 26.8611 25.8225 27.5035 26.7368 27.5035C28.2944 27.5035 29.4234 26.5655 29.8092 24.0943H29.8Z" fill="#FF793A"/>
</g>
<line x1="22.8457" y1="46.625" x2="32.9995" y2="46.625" stroke="#004ED1" stroke-width="3"/>
<line x1="17.7695" y1="37.3208" x2="21.1541" y2="37.3208" stroke="#004ED1" stroke-width="3"/>
<line x1="23.6924" y1="37.3208" x2="27.077" y2="37.3208" stroke="#004ED1" stroke-width="3"/>
<line x1="29.6152" y1="37.3208" x2="32.9999" y2="37.3208" stroke="#004ED1" stroke-width="3"/>
<line x1="35.5381" y1="37.3208" x2="38.9227" y2="37.3208" stroke="#004ED1" stroke-width="3"/>
<path fill-rule="evenodd" clip-rule="evenodd" d="M12.6035 2.29167H14.8952V0H12.6035V2.29167Z" fill="#004ED1"/>
<path fill-rule="evenodd" clip-rule="evenodd" d="M0 14.8962H2.29167V12.6045H0V14.8962Z" fill="#004ED1"/>
<path fill-rule="evenodd" clip-rule="evenodd" d="M4.58398 5.72917H6.87565V3.4375H4.58398V5.72917Z" fill="#004ED1"/>
<path fill-rule="evenodd" clip-rule="evenodd" d="M20.625 5.72917H22.9167V3.4375H20.625V5.72917Z" fill="#004ED1"/>
<path fill-rule="evenodd" clip-rule="evenodd" d="M4.58398 24.0622H6.87565V21.7705H4.58398V24.0622Z" fill="#004ED1"/>
<defs>
<clipPath id="clip0_39_1150">
<rect width="18.3333" height="18.3333" fill="white" transform="translate(18.334 16.042)"/>
</clipPath>
</defs>
</svg>
