<svg width="56" height="24" viewBox="0 0 56 24" fill="none" xmlns="http://www.w3.org/2000/svg">
<path d="M0 0H48C52.4183 0 56 3.58172 56 8V24H8C3.58172 24 0 20.4183 0 16V0Z" fill="#FF793A"/>
<path d="M11.167 15.5832H22.8337V16.7498H11.167V15.5832ZM11.167 7.4165L14.0837 9.45817L17.0003 5.6665L19.917 9.45817L22.8337 7.4165V14.4165H11.167V7.4165ZM12.3337 9.65709V13.2498H21.667V9.65709L19.672 11.0536L17.0003 7.57984L14.3287 11.0536L12.3337 9.6565V9.65709Z" fill="white"/>
<path d="M28.06 7.432L31.132 16H32.716L35.788 7.432H34.372L31.948 14.536H31.912L29.476 7.432H28.06ZM36.7156 7.432V16H38.0116V7.432H36.7156ZM39.715 7.432V16H41.023V12.664H43.243C45.295 12.664 46.327 11.788 46.327 10.036C46.327 8.296 45.307 7.432 43.267 7.432H39.715ZM41.023 8.548H43.159C43.795 8.548 44.263 8.668 44.563 8.908C44.863 9.124 45.019 9.508 45.019 10.036C45.019 10.564 44.863 10.948 44.575 11.188C44.275 11.428 43.807 11.548 43.159 11.548H41.023V8.548Z" fill="white"/>
</svg>
