<svg width="240" height="46" viewBox="0 0 240 46" fill="none" xmlns="http://www.w3.org/2000/svg">
<path fill-rule="evenodd" clip-rule="evenodd" d="M22.3656 3.47119C32.8434 3.47119 41.3372 12.0078 41.3372 22.5382C41.3372 33.0687 32.8434 41.6053 22.3656 41.6053C11.8879 41.6053 3.39404 33.0687 3.39404 22.5382C3.39404 20.9031 3.59885 19.3159 3.9841 17.8014L20.8487 27.9568C21.0721 28.1166 21.3085 28.2591 21.5561 28.3824L21.5722 28.3912C22.2641 28.7317 23.041 28.9231 23.8625 28.9231C26.7366 28.9231 29.0666 26.58 29.0666 23.6897C29.0666 20.7994 26.7366 18.4564 23.8625 18.4564L23.6425 18.461C20.8703 18.5769 18.6583 20.8735 18.6583 23.6897L18.659 23.7441L4.77499 15.3834C7.59054 8.3982 14.4056 3.47119 22.3656 3.47119Z" fill="#FF793A"/>
<path fill-rule="evenodd" clip-rule="evenodd" d="M0.959837 15.9799L20.8487 27.957C21.072 28.1168 21.3085 28.2593 21.5561 28.3826L21.5722 28.3915C21.6484 28.4282 21.7246 28.4635 21.8018 28.497L38.3776 38.2819C34.3137 42.4385 28.6553 45.0166 22.3975 45.0166C10.0277 45.0166 0 34.943 0 22.5166C0 20.2432 0.335633 18.0485 0.959837 15.9799ZM22.3975 0.0166016C28.5056 0.0166016 34.0427 2.47289 38.0833 6.45585L21.2456 19.1583C19.6982 20.0723 18.6582 21.759 18.6582 23.69L18.659 23.7443L1.82419 13.6079C5.25947 5.61261 13.1779 0.0166016 22.3975 0.0166016Z" fill="white"/>
<path fill-rule="evenodd" clip-rule="evenodd" d="M1.82413 13.6079L18.6589 23.7443L18.6582 23.6892C18.6582 20.8734 20.8699 18.5771 23.6416 18.4612L23.8616 18.4566C26.7353 18.4566 30.036 20.8001 30.036 23.6899C30.036 26.5798 26.7353 28.9217 23.8616 28.9217C23.0406 28.9217 22.2641 28.7305 21.5735 28.39L21.5721 28.3914L21.5413 28.374C21.3022 28.254 21.0737 28.1161 20.8574 27.962L0.959473 15.9809C1.20425 15.1696 1.49341 14.3776 1.82413 13.6079Z" fill="#FF793A"/>
<path d="M23.8798 26.4164C25.387 26.4164 26.6089 25.1884 26.6089 23.6735C26.6089 22.1587 25.387 20.9307 23.8798 20.9307C22.3725 20.9307 21.1506 22.1587 21.1506 23.6735C21.1506 25.1884 22.3725 26.4164 23.8798 26.4164Z" fill="white"/>
<path d="M73.5352 33.3487V16.9139H76.5465C79.0776 16.9139 80.3432 18.6733 80.3432 22.1922V33.3487H86.4466V20.1449C86.2729 17.437 85.5492 15.3638 84.2756 13.9252C83.002 12.4867 81.1478 11.7463 78.7131 11.7042H73.5352V4.72607H67.0327V33.3487H73.5352Z" fill="white"/>
<path d="M54.5426 33.5673C57.7246 33.5673 60.1855 33.0407 61.9252 31.9874C63.6649 30.934 64.5348 29.3804 64.5348 27.3264C64.5348 26.4574 64.4233 25.6938 64.2002 25.0354C63.9772 24.3771 63.5906 23.778 63.0404 23.2382C62.4903 22.6984 61.7394 22.198 60.7877 21.7372C59.8361 21.2764 58.6317 20.809 57.1745 20.335C56.4607 20.098 55.8734 19.8807 55.4124 19.6832C54.9515 19.4857 54.5872 19.3014 54.3195 19.1302C54.0519 18.9591 53.8735 18.7813 53.7842 18.597C53.695 18.4127 53.6504 18.202 53.6504 17.965C53.6504 16.938 54.6913 16.4245 56.773 16.4245C57.5264 16.4245 58.5449 16.4245 59.8286 16.4245H63.5088V11.6846H60.3862C58.6019 11.6846 57.2339 11.6846 56.2823 11.6846C53.4274 11.6846 51.1821 12.2507 49.5465 13.3831C47.9108 14.5154 47.093 16.0559 47.093 18.0045C47.093 19.0052 47.2566 19.861 47.5837 20.572C47.9108 21.283 48.3718 21.8952 48.9666 22.4087C49.5613 22.9222 50.2825 23.3633 51.1301 23.7319C51.9776 24.1006 52.9218 24.4561 53.9627 24.7984C55.3009 25.2461 56.2972 25.6477 56.9514 26.0032C57.6057 26.3587 57.9328 26.7734 57.9328 27.2474C57.9328 27.8531 57.68 28.2612 57.1745 28.4719C56.6689 28.6826 55.8065 28.7879 54.5872 28.7879C53.814 28.7879 52.6393 28.7879 51.0631 28.7879H47.5837V33.5673H49.3457C51.4225 33.5673 53.1548 33.5673 54.5426 33.5673Z" fill="white"/>
<path d="M171.595 33.5673C174.777 33.5673 177.238 33.0407 178.978 31.9874C180.718 30.934 181.588 29.3804 181.588 27.3264C181.588 26.4574 181.476 25.6938 181.253 25.0354C181.03 24.3771 180.643 23.778 180.093 23.2382C179.543 22.6984 178.792 22.198 177.84 21.7372C176.889 21.2764 175.684 20.809 174.227 20.335C173.513 20.098 172.926 19.8807 172.465 19.6832C172.004 19.4857 171.64 19.3014 171.372 19.1302C171.105 18.9591 170.926 18.7813 170.837 18.597C170.748 18.4127 170.703 18.202 170.703 17.965C170.703 16.938 171.744 16.4245 173.826 16.4245C174.579 16.4245 175.598 16.4245 176.881 16.4245H180.562V11.6846H177.439C175.655 11.6846 174.287 11.6846 173.335 11.6846C170.48 11.6846 168.235 12.2507 166.599 13.3831C164.964 14.5154 164.146 16.0559 164.146 18.0045C164.146 19.0052 164.309 19.861 164.636 20.572C164.964 21.283 165.425 21.8952 166.019 22.4087C166.614 22.9222 167.335 23.3633 168.183 23.7319C169.03 24.1006 169.975 24.4561 171.015 24.7984C172.354 25.2461 173.35 25.6477 174.004 26.0032C174.658 26.3587 174.986 26.7734 174.986 27.2474C174.986 27.8531 174.733 28.2612 174.227 28.4719C173.722 28.6826 172.859 28.7879 171.64 28.7879C170.867 28.7879 169.692 28.7879 168.116 28.7879H164.636V33.5673H166.398C168.475 33.5673 170.207 33.5673 171.595 33.5673Z" fill="white"/>
<path d="M208.315 33.5678C208.315 28.304 208.315 24.0761 208.315 20.884C208.315 18.0078 208.561 17.1855 210.747 17.1412C212.76 17.1004 215.33 17.0965 215.77 17.1939V12.1007C215.588 12.0335 212.776 12.018 207.333 12.0541C206.762 12.0579 204.397 11.9062 202.824 14.0279C202.208 14.8583 201.835 16.0663 201.703 17.652V33.5678H208.315Z" fill="white"/>
<path fill-rule="evenodd" clip-rule="evenodd" d="M100.733 11.6846C106.832 11.6846 111.777 16.5832 111.777 22.626C111.777 28.6687 106.832 33.5673 100.733 33.5673C94.6338 33.5673 89.6895 28.6687 89.6895 22.626C89.6895 16.5832 94.6338 11.6846 100.733 11.6846ZM100.793 17.3623C97.8255 17.3623 95.4202 19.7454 95.4202 22.6851C95.4202 25.6248 97.8255 28.0079 100.793 28.0079C103.76 28.0079 106.165 25.6248 106.165 22.6851C106.165 19.7454 103.76 17.3623 100.793 17.3623Z" fill="white"/>
<path d="M125.519 11.1157C131.604 11.1157 136.537 16.1184 136.537 22.2896C136.537 28.4607 131.604 33.4635 125.519 33.4635C123.577 33.4635 121.752 32.9537 120.167 32.0589L120.167 40.3073H114.45V22.3084L114.502 22.3086C114.502 22.3023 114.502 22.2959 114.502 22.2896C114.502 16.1184 119.434 11.1157 125.519 11.1157ZM125.579 16.9141C122.619 16.9141 120.219 19.3478 120.219 22.35C120.219 25.3522 122.619 27.7859 125.579 27.7859C128.539 27.7859 130.939 25.3522 130.939 22.35C130.939 19.3478 128.539 16.9141 125.579 16.9141Z" fill="white"/>
<path fill-rule="evenodd" clip-rule="evenodd" d="M228.084 11.6846C234.183 11.6846 239.128 16.5832 239.128 22.626C239.128 28.6687 234.183 33.5673 228.084 33.5673C221.985 33.5673 217.041 28.6687 217.041 22.626C217.041 16.5832 221.985 11.6846 228.084 11.6846ZM228.144 17.3623C225.177 17.3623 222.771 19.7454 222.771 22.6851C222.771 25.6248 225.177 28.0079 228.144 28.0079C231.111 28.0079 233.517 25.6248 233.517 22.6851C233.517 19.7454 231.111 17.3623 228.144 17.3623Z" fill="white"/>
<path d="M193.866 33.9179C194.815 33.9179 196.016 33.9179 197.469 33.9179H199.205V28.9228H197.136C196.142 28.9228 195.408 28.9228 194.933 28.9228C193.45 28.9228 192.464 28.5527 191.975 27.8127C191.485 27.0727 191.241 26.0816 191.241 24.8394V17.5052H199.205V12.5894H191.241V7.396H184.611V24.9187C184.611 26.2666 184.752 27.4956 185.034 28.6056C185.316 29.7156 185.813 30.6605 186.524 31.4402C187.236 32.2198 188.185 32.8277 189.372 33.2638C190.558 33.6999 192.056 33.9179 193.866 33.9179Z" fill="white"/>
<path d="M150.254 11.6846C156.098 11.6846 160.882 16.1818 161.272 21.8737L161.297 21.8742V33.5673H156.239L156.239 31.8227C154.514 32.9266 152.46 33.5673 150.254 33.5673C144.155 33.5673 139.21 28.6687 139.21 22.626C139.21 16.5832 144.155 11.6846 150.254 11.6846ZM150.315 17.3641C147.348 17.3641 144.943 19.7472 144.943 22.6869C144.943 25.6266 147.348 28.0097 150.315 28.0097C153.282 28.0097 155.688 25.6266 155.688 22.6869C155.688 19.7472 153.282 17.3641 150.315 17.3641Z" fill="white"/>
<path d="M150.341 25.7337C151.963 25.7337 153.278 24.4209 153.278 22.8014C153.278 21.182 151.963 19.8691 150.341 19.8691C148.72 19.8691 147.405 21.182 147.405 22.8014C147.405 24.4209 148.72 25.7337 150.341 25.7337Z" fill="#FF793A"/>
</svg>
