<svg width="56" height="56" viewBox="0 0 56 56" fill="none" xmlns="http://www.w3.org/2000/svg">
<path d="M39.137 19.3379L19.338 39.1369C18.6616 39.8134 17.5396 39.8134 16.8632 39.1369C16.1867 38.4605 16.1867 37.3385 16.8632 36.6621L36.6622 16.8631C37.3386 16.1866 38.4606 16.1866 39.137 16.8631C39.8135 17.5395 39.8135 18.6615 39.137 19.3379Z" fill="#004ED1"/>
<path d="M39.137 39.1369C38.4606 39.8134 37.3386 39.8134 36.6622 39.1369L16.8632 19.3379C16.1867 18.6615 16.1867 17.5395 16.8632 16.8631C17.5396 16.1866 18.6616 16.1866 19.338 16.8631L39.137 36.6621C39.8135 37.3385 39.8135 38.4605 39.137 39.1369Z" fill="#004ED1"/>
</svg>
