<svg width="21" height="20" viewBox="0 0 21 20" fill="none" xmlns="http://www.w3.org/2000/svg">
<path d="M10.3334 18.335C14.9366 18.335 18.6684 14.6033 18.6684 10C18.6684 5.39675 14.9366 1.66504 10.3334 1.66504C5.73006 1.66504 1.99835 5.39675 1.99835 10C1.99835 14.6033 5.73006 18.335 10.3334 18.335Z" fill="#30323F"/>
<path fill-rule="evenodd" clip-rule="evenodd" d="M7.02904 13.8436C4.95663 12.0453 6.29689 8.04081 9.4832 8.54491V8.91565C6.79233 8.79062 5.60776 12.0003 7.02904 13.8436ZM12.8412 6.89725C13.1686 7.15896 13.62 7.35167 14.2425 7.38868V7.75208C13.5537 7.62506 13.1173 7.28266 12.8412 6.89725ZM11.977 4.98486C11.9767 5.11889 11.994 5.26292 12.016 5.39461H10.7458V11.7189C10.7458 12.0103 10.7158 12.27 10.6561 12.4977C10.139 13.6379 8.67437 13.4889 8.26962 12.7064C8.87208 13.0838 9.86294 12.9835 10.2694 12.088C10.3287 11.8606 10.3587 11.6005 10.3587 11.3091V4.98486H11.977Z" fill="#00F7EF"/>
<path fill-rule="evenodd" clip-rule="evenodd" d="M12.3644 5.39429V5.40229C12.3647 5.54865 12.4077 7.66607 14.6298 7.7981C14.6298 9.76783 14.6308 7.7981 14.6308 9.43409C14.4638 9.4441 13.1682 9.35041 12.362 8.63127L12.3597 11.8162C12.3797 13.2585 11.5769 14.6728 10.0739 14.9579C9.65282 15.0375 9.27374 15.0465 8.63728 14.9075C4.97055 13.8106 6.18913 8.37222 9.87086 8.95433C9.87086 10.71 9.87186 8.954 9.87186 10.71C8.35089 10.4863 7.84212 11.7516 8.2462 12.6574C8.61394 13.4822 10.1286 13.6609 10.6567 12.4974C10.7164 12.2697 10.7464 12.0099 10.7464 11.7186V5.39429H12.3644Z" fill="white"/>
<path fill-rule="evenodd" clip-rule="evenodd" d="M9.48339 8.91566C9.60909 8.92099 9.73811 8.93366 9.87014 8.95433C9.87014 10.71 9.87114 8.954 9.87114 10.71C8.35017 10.4863 7.8414 11.7516 8.24548 12.6574C8.25281 12.6737 8.26082 12.6904 8.26948 12.7061C8.08845 12.5931 7.94309 12.4374 7.8584 12.2477C7.45465 11.3418 7.96309 10.0766 9.48373 10.3003C9.48373 8.69161 9.48339 10.0305 9.48339 8.91566ZM14.2423 7.75209C14.3634 7.77443 14.4924 7.79043 14.6294 7.79843C14.6294 9.76816 14.6304 7.79843 14.6304 9.43443C14.4634 9.44443 13.1678 9.35074 12.3616 8.6316L12.3593 11.8166C12.3793 13.2589 11.5765 14.6731 10.0735 14.9582C9.65243 15.0379 9.27335 15.0469 8.63689 14.9079C7.92041 14.6935 7.39131 14.3127 7.02924 13.844C7.35163 14.124 7.75638 14.3507 8.25015 14.4988C8.88594 14.6375 9.26535 14.6285 9.68643 14.5484C11.1894 14.2634 11.9922 12.8491 11.9729 11.4075L11.9749 8.22219C12.7811 8.94133 14.077 9.03535 14.2443 9.02501C14.244 7.50538 14.2423 9.09569 14.2423 7.75209ZM12.3643 5.39429V5.40229C12.3643 5.48831 12.3796 6.25279 12.8411 6.89725C12.285 6.45217 12.0866 5.80937 12.0159 5.39429H12.3643Z" fill="#FF004F"/>
</svg>
