<svg width="28" height="28" viewBox="0 0 28 28" fill="none" xmlns="http://www.w3.org/2000/svg">
<rect opacity="0.01" width="28" height="28" fill="#D8D8D8"/>
<g clip-path="url(#clip0_6_450)">
<path fill-rule="evenodd" clip-rule="evenodd" d="M0 3.5H39.9V5.11875H0V3.5ZM0 6.73312H39.9V8.35187H0V6.73312ZM0 9.96187H39.9V11.5806H0V9.96187ZM0 13.1906H39.9V14.8094H0V13.1906ZM0 16.4281H39.9V18.0381H0V16.4281ZM0 19.6525H39.9V21.2712H0V19.6525ZM0 22.8812H39.9V24.5H0V22.8812Z" fill="#BD3D44"/>
<path fill-rule="evenodd" clip-rule="evenodd" d="M-6.48499e-05 5.11874H39.8999V6.73312H-6.48499e-05V5.11874ZM-6.48499e-05 8.34749H39.8999V9.96187H-6.48499e-05V8.34749ZM-6.48499e-05 11.5762H39.8999V13.195H-6.48499e-05V11.5762ZM-6.48499e-05 14.8094H39.8999V16.4281H-6.48499e-05V14.8094ZM-6.48499e-05 18.0381H39.8999V19.6569H-6.48499e-05V18.0381ZM-6.48499e-05 21.2669H39.8999V22.8856H-6.48499e-05V21.2669Z" fill="white"/>
<path fill-rule="evenodd" clip-rule="evenodd" d="M0 3.5H15.96V14.8094H0V3.5Z" fill="#192F5D"/>
<path fill-rule="evenodd" clip-rule="evenodd" d="M1.32983 3.98128L1.47858 4.4319H1.94233L1.56608 4.70753L1.71046 5.15815L1.32983 4.87815L0.95358 5.15378L1.09358 4.70753L0.712955 4.4319H1.18983L1.32983 3.98128ZM3.98983 3.98128L4.13421 4.4319H4.60671L4.22608 4.70753L4.36608 5.15815L3.98983 4.87815L3.60921 5.15378L3.75358 4.70753L3.37733 4.4319H3.84108L3.98983 3.98128ZM6.64983 3.98128L6.79421 4.4319H7.26233L6.88608 4.70753L7.03046 5.15815L6.64983 4.87815L6.26921 5.15378L6.41358 4.70753L6.03296 4.4319H6.50546L6.64983 3.98128ZM9.30983 3.98128L9.45421 4.4319H9.92671L9.54608 4.70753L9.69046 5.15815L9.30983 4.87815L8.92921 5.15378L9.07796 4.70753L8.69296 4.4319H9.16108L9.30983 3.98128ZM11.9698 3.98128L12.1142 4.4319H12.5823L12.2061 4.70753L12.3505 5.15815L11.9698 4.87815L11.5892 5.15378L11.7336 4.70753L11.3573 4.4319H11.8255L11.9698 3.98128ZM14.6298 3.98128L14.7742 4.4319H15.2467L14.8617 4.70753L15.0105 5.15815L14.6298 4.87815L14.2492 5.15378L14.398 4.70753L14.013 4.4319H14.4855L14.6298 3.98128ZM2.65983 5.11878L2.80421 5.56503H3.28108L2.90046 5.83628L3.04046 6.2869L2.66858 6.01128L2.28796 6.2869L2.42358 5.83628L2.05608 5.56503H2.52421L2.65983 5.11878ZM5.31983 5.11878L5.46858 5.56503H5.93671L5.55171 5.83628L5.70046 6.2869L5.31983 6.01128L4.93921 6.2869L5.08358 5.83628L4.70296 5.56503H5.17546L5.31983 5.11878ZM7.97983 5.11878L8.12421 5.56503H8.59671L8.21608 5.83628L8.36046 6.2869L7.97983 6.01128L7.59921 6.2869L7.74358 5.83628L7.36733 5.56503H7.83108L7.97983 5.11878ZM10.6398 5.11878L10.7886 5.56503H11.2567L10.8717 5.83628L11.0205 6.2869L10.6398 6.01128L10.2636 6.2869L10.4036 5.83628L10.023 5.56503H10.4998L10.6398 5.11878ZM13.2998 5.11878L13.4442 5.56503H13.9167L13.5361 5.83628L13.6805 6.2869L13.2998 6.01128L12.9192 6.2869L13.0636 5.83628L12.6873 5.56503H13.1555L13.2998 5.11878ZM1.32983 6.23878L1.47858 6.69378H1.94233L1.56608 6.9694L1.71046 7.41565L1.32983 7.14003L0.95358 7.41565L1.09358 6.9694L0.712955 6.69378H1.18983L1.32983 6.23878ZM3.98983 6.23878L4.13421 6.69378H4.60671L4.22608 6.9694L4.36608 7.41565L3.98983 7.14003L3.60921 7.41565L3.75358 6.96503L3.37733 6.6894H3.84108L3.98983 6.23878ZM6.64983 6.23878L6.79421 6.6894H7.26233L6.88608 6.96503L7.03046 7.41128L6.64983 7.13565L6.26921 7.41128L6.41358 6.96065L6.03296 6.68503H6.50546L6.64983 6.23878ZM9.30983 6.23878L9.45421 6.6894H9.92671L9.54608 6.96503L9.69046 7.41128L9.30983 7.13565L8.92921 7.41128L9.07796 6.96065L8.69296 6.68503H9.16108L9.30983 6.23878ZM11.9698 6.23878L12.1142 6.6894H12.5823L12.2061 6.96503L12.3505 7.41128L11.9698 7.13565L11.5892 7.41128L11.7336 6.96065L11.3573 6.68503H11.8255L11.9698 6.23878ZM14.6298 6.23878L14.7742 6.6894H15.2467L14.8617 6.96503L15.0105 7.41128L14.6298 7.13565L14.2492 7.41128L14.398 6.96065L14.013 6.68503H14.4855L14.6298 6.23878ZM2.65983 7.37628L2.80421 7.82253H3.28108L2.90046 8.09815L3.04483 8.54878L2.66421 8.26878L2.28358 8.5444L2.42796 8.09815L2.05171 7.82253H2.51983L2.65983 7.37628ZM5.31983 7.37628L5.46858 7.82253H5.93671L5.55171 8.09815L5.70046 8.54878L5.31983 8.26878L4.93921 8.5444L5.08358 8.09815L4.70296 7.82253H5.17546L5.31983 7.37628ZM7.97983 7.37628L8.12421 7.82253H8.59671L8.21608 8.09815L8.36046 8.54878L7.97983 8.26878L7.59921 8.5444L7.74358 8.09815L7.36733 7.82253H7.83108L7.97983 7.37628ZM10.6398 7.37628L10.7886 7.82253H11.2567L10.8761 8.09815L11.0205 8.54878L10.6398 8.26878L10.2636 8.5444L10.4036 8.09815L10.023 7.82253H10.4998L10.6398 7.37628ZM13.2998 7.37628L13.4442 7.82253H13.9167L13.5361 8.09815L13.6805 8.54878L13.2998 8.26878L12.9192 8.5444L13.0636 8.09815L12.6873 7.82253H13.1555L13.2998 7.37628ZM1.32983 8.5094L1.47858 8.95565H1.94233L1.56608 9.23128L1.71046 9.6819L1.32983 9.4019L0.95358 9.67753L1.09358 9.23128L0.712955 8.95565H1.18983L1.32983 8.5094ZM3.98983 8.5094L4.13421 8.95565H4.60671L4.22608 9.23128L4.36608 9.67753L3.98983 9.4019L3.60921 9.67753L3.75358 9.23128L3.37733 8.95565H3.84108L3.98983 8.5094ZM6.64983 8.5094L6.79421 8.95565H7.26233L6.88608 9.23128L7.03046 9.6819L6.64983 9.4019L6.26921 9.67753L6.41358 9.23128L6.03296 8.95565H6.50546L6.64983 8.5094ZM9.30983 8.5094L9.45421 8.95565H9.92671L9.54608 9.23128L9.69046 9.6819L9.30983 9.4019L8.92921 9.67753L9.07796 9.23128L8.69296 8.95565H9.16108L9.30983 8.5094ZM11.9698 8.5094L12.1142 8.95565H12.5823L12.2061 9.23128L12.3505 9.6819L11.9698 9.4019L11.5892 9.67753L11.7336 9.23128L11.3573 8.95565H11.8255L11.9698 8.5094ZM14.6298 8.5094L14.7742 8.95565H15.2467L14.8617 9.23128L15.0105 9.6819L14.6298 9.4019L14.2492 9.67753L14.3936 9.23128L14.0086 8.95565H14.4811L14.6298 8.5094ZM2.65983 9.63815L2.80421 10.0888H3.28108L2.90046 10.36L3.04483 10.8107L2.66421 10.5307L2.28358 10.8107L2.42796 10.36L2.05171 10.0844H2.51983L2.65983 9.63815ZM5.31983 9.63815L5.46858 10.0888H5.93671L5.55171 10.36L5.70046 10.8107L5.31983 10.5307L4.93921 10.8107L5.08358 10.36L4.70296 10.0844H5.17546L5.31983 9.63815ZM7.97983 9.63815L8.12421 10.0888H8.59671L8.21608 10.36L8.36046 10.8107L7.97983 10.5307L7.59921 10.8107L7.74358 10.36L7.36733 10.0844H7.83108L7.97983 9.63815ZM10.6398 9.63815L10.7886 10.0888H11.2567L10.8761 10.36L11.0205 10.8107L10.6398 10.5307L10.2636 10.8107L10.4036 10.36L10.023 10.0844H10.4998L10.6398 9.63815ZM13.2998 9.63815L13.4442 10.0888H13.9167L13.5361 10.36L13.6805 10.8107L13.2998 10.5307L12.9192 10.8107L13.0636 10.36L12.6873 10.0844H13.1555L13.2998 9.63815ZM1.32983 10.7669L1.47858 11.2175H1.94233L1.56608 11.4932L1.71046 11.935L1.32983 11.6638L0.95358 11.935L1.09358 11.4888L0.712955 11.2132H1.18983L1.32983 10.7669ZM3.98983 10.7669L4.13421 11.2175H4.60671L4.22608 11.4932L4.37046 11.935L3.98983 11.6638L3.60921 11.935L3.75796 11.4888L3.37733 11.2132H3.84108L3.98983 10.7669ZM6.64983 10.7669L6.79421 11.2175H7.26233L6.88608 11.4932L7.03046 11.935L6.64983 11.6638L6.26921 11.935L6.41358 11.4888L6.03296 11.2132H6.50546L6.64983 10.7669ZM9.30983 10.7669L9.45421 11.2175H9.92671L9.54608 11.4932L9.69046 11.935L9.30983 11.6638L8.92921 11.935L9.07796 11.4888L8.69296 11.2132H9.16108L9.30983 10.7669ZM11.9698 10.7669L12.1142 11.2175H12.5823L12.2061 11.4932L12.3505 11.935L11.9698 11.6638L11.5892 11.935L11.7336 11.4888L11.3573 11.2132H11.8255L11.9698 10.7669ZM14.6298 10.7669L14.7742 11.2175H15.2467L14.8617 11.4932L15.0105 11.935L14.6298 11.6638L14.2492 11.935L14.398 11.4888L14.013 11.2132H14.4855L14.6298 10.7669ZM2.65983 11.9L2.80421 12.3463H3.28108L2.90046 12.6219L3.04483 13.0725L2.66421 12.7925L2.28358 13.0682L2.42796 12.6219L2.05171 12.3463H2.51983L2.65983 11.9ZM5.31983 11.9L5.46858 12.3463H5.93671L5.55171 12.6219L5.70046 13.0725L5.31983 12.7925L4.93921 13.0682L5.08358 12.6219L4.70296 12.3463H5.17546L5.31983 11.9ZM7.97983 11.9L8.12421 12.3463H8.59671L8.21608 12.6219L8.36046 13.0725L7.97983 12.7925L7.59921 13.0682L7.74358 12.6219L7.36733 12.3463H7.83108L7.97983 11.9ZM10.6398 11.9L10.7886 12.3463H11.2567L10.8761 12.6219L11.0205 13.0725L10.6398 12.7925L10.2636 13.0682L10.4036 12.6219L10.023 12.3463H10.4998L10.6398 11.9ZM13.2998 11.9L13.4442 12.3463H13.9167L13.5361 12.6219L13.6805 13.0725L13.2998 12.7925L12.9192 13.0682L13.0636 12.6219L12.6873 12.3463H13.1555L13.2998 11.9ZM1.32983 13.0332L1.47858 13.4794H1.94233L1.56608 13.755L1.71046 14.2013L1.32983 13.9257L0.95358 14.2013L1.09358 13.7507L0.712955 13.475H1.18983L1.32983 13.0332ZM3.98983 13.0332L4.13421 13.4794H4.60671L4.22608 13.755L4.37046 14.2013L3.98983 13.9257L3.60921 14.2013L3.75796 13.7507L3.37733 13.475H3.84108L3.98983 13.0332ZM6.64983 13.0332L6.79421 13.4794H7.26233L6.89483 13.755L7.03921 14.2013L6.65858 13.9257L6.27796 14.2013L6.42233 13.7507L6.04171 13.475H6.5142L6.64983 13.0332ZM9.30983 13.0332L9.45421 13.4794H9.92671L9.54608 13.755L9.69046 14.2013L9.30983 13.9257L8.92921 14.2013L9.07796 13.7507L8.69296 13.475H9.16108L9.30983 13.0332ZM11.9698 13.0332L12.1142 13.4794H12.5823L12.2061 13.755L12.3505 14.2013L11.9698 13.9257L11.5892 14.2013L11.7336 13.7507L11.3573 13.475H11.8255L11.9698 13.0332ZM14.6298 13.0332L14.7742 13.4794H15.2467L14.8617 13.755L15.0105 14.2013L14.6298 13.9257L14.2492 14.2013L14.398 13.7507L14.013 13.475H14.4855L14.6298 13.0332Z" fill="white"/>
</g>
<defs>
<clipPath id="clip0_6_450">
<rect width="28" height="21" fill="white" transform="translate(0 3.5)"/>
</clipPath>
</defs>
</svg>
