<svg width="386" height="542" viewBox="0 0 386 542" fill="none" xmlns="http://www.w3.org/2000/svg">
<g opacity="0.3">
<path d="M511.868 300.575C495.534 433.603 374.453 528.202 241.425 511.868C108.397 495.534 13.7982 374.453 30.132 241.425C46.4657 108.397 167.547 13.7983 300.575 30.1321C433.602 46.4658 528.202 167.547 511.868 300.575Z" stroke="#7495BE" stroke-opacity="0.5"/>
<path d="M464.218 294.724C451.116 401.436 353.987 477.321 247.276 464.218C140.564 451.116 64.6789 353.987 77.7814 247.276C90.884 140.564 188.012 64.6789 294.724 77.7814C401.436 90.884 477.321 188.012 464.218 294.724Z" stroke="#7495BE"/>
<path d="M464.218 294.724C451.116 401.436 353.987 477.321 247.276 464.218C140.564 451.116 64.6789 353.987 77.7814 247.276C90.884 140.564 188.012 64.6789 294.724 77.7814C401.436 90.884 477.321 188.012 464.218 294.724Z" stroke="#7495BE"/>
<path d="M419.499 289.233C409.429 371.247 334.78 429.569 252.766 419.499C170.753 409.429 112.431 334.78 122.501 252.766C132.571 170.753 207.219 112.431 289.233 122.501C371.247 132.571 429.569 207.219 419.499 289.233Z" stroke="#8FB3E0"/>
<path d="M373.424 283.576C366.479 340.144 314.991 380.37 258.424 373.425C201.856 366.479 161.629 314.991 168.575 258.424C175.521 201.856 227.008 161.629 283.576 168.575C340.144 175.521 380.37 227.008 373.424 283.576Z" stroke="#6EA2E3"/>
</g>
</svg>
