<svg width="468" height="431" viewBox="0 0 468 431" fill="none" xmlns="http://www.w3.org/2000/svg">
<g opacity="0.3">
<path d="M432.674 147.269C413.471 303.662 271.123 414.876 114.731 395.674C-41.6616 376.471 -152.876 234.123 -133.673 77.7307C-114.471 -78.6617 27.8771 -189.876 184.269 -170.673C340.662 -151.471 451.876 -9.12303 432.674 147.269Z" stroke="#7495BE" stroke-opacity="0.5"/>
<path d="M376.672 140.393C361.267 265.857 247.07 355.077 121.607 339.672C-3.85707 324.267 -93.0772 210.071 -77.6722 84.6069C-62.2672 -40.8567 51.9294 -130.077 177.393 -114.672C302.857 -99.2669 392.077 14.9297 376.672 140.393Z" stroke="#7495BE"/>
<path d="M376.672 140.393C361.267 265.857 247.07 355.077 121.607 339.672C-3.85707 324.267 -93.0772 210.071 -77.6722 84.6069C-62.2672 -40.8567 51.9294 -130.077 177.393 -114.672C302.857 -99.2669 392.077 14.9297 376.672 140.393Z" stroke="#7495BE"/>
<path d="M324.114 133.94C312.273 230.377 224.497 298.955 128.06 287.114C31.6231 275.273 -36.9554 187.497 -25.1145 91.06C-13.2735 -5.37682 74.503 -73.9554 170.94 -62.1144C267.377 -50.2735 335.955 37.5031 324.114 133.94Z" stroke="#8FB3E0"/>
<path d="M269.964 127.291C261.795 193.822 201.239 241.133 134.709 232.964C68.1779 224.795 20.8663 164.239 29.0353 97.7086C37.2042 31.178 97.7602 -16.1335 164.291 -7.96461C230.822 0.204328 278.133 60.7603 269.964 127.291Z" stroke="#92B2D9"/>
</g>
</svg>
