<svg width="100" height="100" viewBox="0 0 100 100" fill="none" xmlns="http://www.w3.org/2000/svg">
<path d="M49.9997 8.3335C27.083 8.3335 8.33301 27.0835 8.33301 50.0002C8.33301 72.9168 27.083 91.6668 49.9997 91.6668C72.9163 91.6668 91.6664 72.9168 91.6664 50.0002C91.6664 27.0835 72.9163 8.3335 49.9997 8.3335ZM67.4997 42.9168L47.4997 62.9168C45.833 64.5835 43.333 64.5835 41.6663 62.9168L32.4997 53.7502C30.833 52.0835 30.833 49.5835 32.4997 47.9168C34.1663 46.2502 36.6663 46.2502 38.333 47.9168L44.583 54.1668L61.6663 37.0835C63.333 35.4168 65.833 35.4168 67.4997 37.0835C69.1663 38.7502 69.1663 41.2502 67.4997 42.9168Z" fill="#02983B"/>
</svg>
