<svg width="120" height="121" viewBox="0 0 120 121" fill="none" xmlns="http://www.w3.org/2000/svg">
<path opacity="0.9" d="M120 94.25H0V24.875C0 23.8438 0.84375 23 1.875 23H118.125C119.156 23 120 23.8438 120 24.875V94.25Z" fill="#C9DBFF"/>
<path d="M113.438 88.625H6.5625C6.0375 88.625 5.625 88.2125 5.625 87.6875V29.5625C5.625 29.0375 6.0375 28.625 6.5625 28.625H113.438C113.963 28.625 114.375 29.0375 114.375 29.5625V87.6875C114.375 88.2125 113.963 88.625 113.438 88.625Z" fill="#EBF4FF"/>
<path d="M118.125 103.625H1.875C0.84375 103.625 0 102.781 0 101.75V94.25H120V101.75C120 102.781 119.156 103.625 118.125 103.625Z" fill="#617FE9"/>
<path d="M67.5 99.875H52.5C51.975 99.875 51.5625 99.4625 51.5625 98.9375C51.5625 98.4125 51.975 98 52.5 98H67.5C68.025 98 68.4375 98.4125 68.4375 98.9375C68.4375 99.4625 68.025 99.875 67.5 99.875Z" fill="#B1CDFC"/>
<path d="M93.75 111.125H26.25L20.625 116.75H99.375L93.75 111.125Z" fill="#AFC6F2"/>
<path opacity="0.9" d="M82.5 103.625H37.5V113H82.5V103.625Z" fill="#ADC4EF"/>
<path opacity="0.9" d="M99.375 116.75H20.625V120.5H99.375V116.75Z" fill="#5071E7"/>
<path d="M26.25 0.5V88.625H99.375V17.375C99.375 8.6 92.6625 0.5 78.75 0.5H26.25Z" fill="#AFC6F2"/>
<path d="M20.625 0.5V84.875H93.75V15.5C93.75 7.2125 87.0375 0.5 78.75 0.5H20.625Z" fill="#D8E6FF"/>
<path d="M78.75 0.5C70.4625 0.5 63.75 7.3625 63.75 17.375H11.25C11.25 9.0875 17.9625 0.5 26.25 0.5H78.75Z" fill="#A7C4FA"/>
<path d="M78.75 0.5C70.4625 0.5 61.425 2.9375 58.125 11.75H5.625C5.625 5.54375 12.3375 0.5 20.625 0.5H78.75Z" fill="#93B3EF"/>
<path d="M84.375 76.625H82.9687C82.35 76.625 81.8438 76.1188 81.8438 75.5C81.8438 74.8813 82.35 74.375 82.9687 74.375H83.25V74.0937C83.25 73.475 83.7563 72.9688 84.375 72.9688C84.9938 72.9688 85.5 73.475 85.5 74.0937V75.5C85.5 76.1188 84.9938 76.625 84.375 76.625Z" fill="#1D3285"/>
<path d="M77.568 76.625H74.868C74.2492 76.625 73.743 76.1188 73.743 75.5C73.743 74.8812 74.2492 74.375 74.868 74.375H77.568C78.1867 74.375 78.693 74.8812 78.693 75.5C78.693 76.1188 78.1867 76.625 77.568 76.625ZM69.468 76.625H66.7492C66.1305 76.625 65.6242 76.1188 65.6242 75.5C65.6242 74.8812 66.1305 74.375 66.7492 74.375H69.4492C70.068 74.375 70.5742 74.8812 70.5742 75.5C70.593 76.1188 70.0867 76.625 69.468 76.625ZM61.3492 76.625H58.6492C58.0305 76.625 57.5242 76.1188 57.5242 75.5C57.5242 74.8812 58.0305 74.375 58.6492 74.375H61.3492C61.968 74.375 62.4742 74.8812 62.4742 75.5C62.4742 76.1188 61.968 76.625 61.3492 76.625ZM53.2492 76.625H50.5492C49.9305 76.625 49.4242 76.1188 49.4242 75.5C49.4242 74.8812 49.9305 74.375 50.5492 74.375H53.2492C53.868 74.375 54.3742 74.8812 54.3742 75.5C54.3742 76.1188 53.868 76.625 53.2492 76.625ZM45.1492 76.625H42.4492C41.8305 76.625 41.3242 76.1188 41.3242 75.5C41.3242 74.8812 41.8305 74.375 42.4492 74.375H45.1492C45.768 74.375 46.2742 74.8812 46.2742 75.5C46.2555 76.1188 45.768 76.625 45.1492 76.625Z" fill="#4E6CD9"/>
<path d="M37.0312 76.625H35.625C35.0063 76.625 34.5 76.1188 34.5 75.5V74.0937C34.5 73.475 35.0063 72.9688 35.625 72.9688C36.2438 72.9688 36.75 73.475 36.75 74.0937V74.375H37.0312C37.65 74.375 38.1562 74.8813 38.1562 75.5C38.1562 76.1188 37.65 76.625 37.0312 76.625Z" fill="#1D3285"/>
<path d="M35.625 69.8187C35.0063 69.8187 34.5 69.3124 34.5 68.6937V65.9937C34.5 65.3749 35.0063 64.8687 35.625 64.8687C36.2437 64.8687 36.75 65.3749 36.75 65.9937V68.6937C36.75 69.3124 36.2437 69.8187 35.625 69.8187ZM35.625 61.6999C35.0063 61.6999 34.5 61.1937 34.5 60.5749V57.8749C34.5 57.2562 35.0063 56.7499 35.625 56.7499C36.2437 56.7499 36.75 57.2562 36.75 57.8749V60.5749C36.75 61.2124 36.2437 61.6999 35.625 61.6999ZM35.625 53.5999C35.0063 53.5999 34.5 53.0937 34.5 52.4749V49.7749C34.5 49.1562 35.0063 48.6499 35.625 48.6499C36.2437 48.6499 36.75 49.1562 36.75 49.7749V52.4749C36.75 53.0937 36.2437 53.5999 35.625 53.5999ZM35.625 45.4999C35.0063 45.4999 34.5 44.9937 34.5 44.3749V41.6749C34.5 41.0562 35.0063 40.5499 35.625 40.5499C36.2437 40.5499 36.75 41.0562 36.75 41.6749V44.3749C36.75 44.9937 36.2437 45.4999 35.625 45.4999ZM35.625 37.3812C35.0063 37.3812 34.5 36.8749 34.5 36.2562V33.5561C34.5 32.9374 35.0063 32.4312 35.625 32.4312C36.2437 32.4312 36.75 32.9374 36.75 33.5561V36.2562C36.75 36.8937 36.2437 37.3812 35.625 37.3812Z" fill="#4E6CD9"/>
<path d="M35.625 29.2812C35.0063 29.2812 34.5 28.775 34.5 28.1562V26.75C34.5 26.1313 35.0063 25.625 35.625 25.625H37.0312C37.65 25.625 38.1562 26.1313 38.1562 26.75C38.1562 27.3688 37.65 27.875 37.0312 27.875H36.75V28.1562C36.75 28.775 36.2438 29.2812 35.625 29.2812Z" fill="#1D3285"/>
<path d="M77.568 27.875H74.868C74.2492 27.875 73.743 27.3687 73.743 26.75C73.743 26.1313 74.2492 25.625 74.868 25.625H77.568C78.1867 25.625 78.693 26.1313 78.693 26.75C78.693 27.3687 78.1867 27.875 77.568 27.875ZM69.468 27.875H66.7492C66.1305 27.875 65.6242 27.3687 65.6242 26.75C65.6242 26.1313 66.1305 25.625 66.7492 25.625H69.4492C70.068 25.625 70.5742 26.1313 70.5742 26.75C70.593 27.3687 70.0867 27.875 69.468 27.875ZM61.3492 27.875H58.6492C58.0305 27.875 57.5242 27.3687 57.5242 26.75C57.5242 26.1313 58.0305 25.625 58.6492 25.625H61.3492C61.968 25.625 62.4742 26.1313 62.4742 26.75C62.4742 27.3687 61.968 27.875 61.3492 27.875ZM53.2492 27.875H50.5492C49.9305 27.875 49.4242 27.3687 49.4242 26.75C49.4242 26.1313 49.9305 25.625 50.5492 25.625H53.2492C53.868 25.625 54.3742 26.1313 54.3742 26.75C54.3742 27.3687 53.868 27.875 53.2492 27.875ZM45.1492 27.875H42.4492C41.8305 27.875 41.3242 27.3687 41.3242 26.75C41.3242 26.1313 41.8305 25.625 42.4492 25.625H45.1492C45.768 25.625 46.2742 26.1313 46.2742 26.75C46.2555 27.3687 45.768 27.875 45.1492 27.875Z" fill="#4E6CD9"/>
<path d="M84.375 29.2812C83.7563 29.2812 83.25 28.775 83.25 28.1562V27.875H82.9687C82.35 27.875 81.8438 27.3688 81.8438 26.75C81.8438 26.1313 82.35 25.625 82.9687 25.625H84.375C84.9938 25.625 85.5 26.1313 85.5 26.75V28.1562C85.5 28.775 84.9938 29.2812 84.375 29.2812Z" fill="#1D3285"/>
<path d="M84.375 69.8187C83.7562 69.8187 83.25 69.3124 83.25 68.6937V65.9937C83.25 65.3749 83.7562 64.8687 84.375 64.8687C84.9938 64.8687 85.5 65.3749 85.5 65.9937V68.6937C85.5 69.3124 84.9938 69.8187 84.375 69.8187ZM84.375 61.6999C83.7562 61.6999 83.25 61.1937 83.25 60.5749V57.8749C83.25 57.2562 83.7562 56.7499 84.375 56.7499C84.9938 56.7499 85.5 57.2562 85.5 57.8749V60.5749C85.5 61.2124 84.9938 61.6999 84.375 61.6999ZM84.375 53.5999C83.7562 53.5999 83.25 53.0937 83.25 52.4749V49.7749C83.25 49.1562 83.7562 48.6499 84.375 48.6499C84.9938 48.6499 85.5 49.1562 85.5 49.7749V52.4749C85.5 53.0937 84.9938 53.5999 84.375 53.5999ZM84.375 45.4999C83.7562 45.4999 83.25 44.9937 83.25 44.3749V41.6749C83.25 41.0562 83.7562 40.5499 84.375 40.5499C84.9938 40.5499 85.5 41.0562 85.5 41.6749V44.3749C85.5 44.9937 84.9938 45.4999 84.375 45.4999ZM84.375 37.3812C83.7562 37.3812 83.25 36.8749 83.25 36.2562V33.5561C83.25 32.9374 83.7562 32.4312 84.375 32.4312C84.9938 32.4312 85.5 32.9374 85.5 33.5561V36.2562C85.5 36.8937 84.9938 37.3812 84.375 37.3812Z" fill="#4E6CD9"/>
<path d="M37.9688 30.0312H33.2812C32.7562 30.0312 32.3438 29.6188 32.3438 29.0938V24.4062C32.3438 23.8812 32.7562 23.4688 33.2812 23.4688H37.9688C38.4938 23.4688 38.9062 23.8812 38.9062 24.4062V29.0938C38.9062 29.6188 38.4938 30.0312 37.9688 30.0312Z" fill="#5071E7"/>
<path d="M86.7188 30.0312H82.0312C81.5062 30.0312 81.0938 29.6188 81.0938 29.0938V24.4062C81.0938 23.8812 81.5062 23.4688 82.0312 23.4688H86.7188C87.2438 23.4688 87.6562 23.8812 87.6562 24.4062V29.0938C87.6562 29.6188 87.2438 30.0312 86.7188 30.0312Z" fill="#5071E7"/>
<path d="M37.9688 78.7812H33.2812C32.7562 78.7812 32.3438 78.3688 32.3438 77.8438V73.1562C32.3438 72.6312 32.7562 72.2188 33.2812 72.2188H37.9688C38.4938 72.2188 38.9062 72.6312 38.9062 73.1562V77.8438C38.9062 78.3688 38.4938 78.7812 37.9688 78.7812Z" fill="#5071E7"/>
<path d="M86.7188 78.7812H82.0312C81.5062 78.7812 81.0938 78.3688 81.0938 77.8438V73.1562C81.0938 72.6312 81.5062 72.2188 82.0312 72.2188H86.7188C87.2438 72.2188 87.6562 72.6312 87.6562 73.1562V77.8438C87.6562 78.3688 87.2438 78.7812 86.7188 78.7812Z" fill="#3353B6"/>
<path d="M60 34.25V39.875C66.2062 39.875 71.25 44.9187 71.25 51.125C71.25 57.3312 66.2062 62.375 60 62.375C53.7937 62.375 48.75 57.3312 48.75 51.125H43.125C43.125 60.4438 50.6813 68 60 68C69.3188 68 76.875 60.4438 76.875 51.125C76.875 41.8063 69.3188 34.25 60 34.25Z" fill="#EBF3FD"/>
<path d="M60 57.4625C63.4875 57.4625 66.3375 54.6312 66.3375 51.125C66.3375 47.6375 63.5063 44.7875 60 44.7875V39.875C53.7938 39.875 48.75 44.9187 48.75 51.125H53.6625C53.6813 54.6125 56.5125 57.4625 60 57.4625Z" fill="#5071E7"/>
<path d="M60 62.375C66.2062 62.375 71.25 57.3312 71.25 51.125C71.25 44.9188 66.2062 39.875 60 39.875V44.7875C63.4875 44.7875 66.3375 47.6188 66.3375 51.125C66.3375 54.6125 63.5063 57.4625 60 57.4625C56.5125 57.4625 53.6625 54.6313 53.6625 51.125H48.75C48.75 57.3312 53.7938 62.375 60 62.375Z" fill="#A2C4FD"/>
<path d="M106.875 83C107.911 83 108.75 82.1605 108.75 81.125C108.75 80.0895 107.911 79.25 106.875 79.25C105.839 79.25 105 80.0895 105 81.125C105 82.1605 105.839 83 106.875 83Z" fill="#E39C26"/>
</svg>
