<svg width="375" height="211" viewBox="0 0 375 211" fill="none" xmlns="http://www.w3.org/2000/svg">
<path d="M85.4056 210.965C84.7029 210.43 83.9784 209.923 83.3171 209.346C83.2358 209.24 83.183 209.114 83.1637 208.982C83.1444 208.849 83.1591 208.714 83.2065 208.588C83.625 207.956 83.6586 207.978 82.9617 207.386C82.5314 208.259 81.8819 208.373 81.0804 207.741C80.7812 207.527 80.4562 207.351 80.1131 207.218C79.5801 206.985 79.1261 206.76 79.1972 206.02C79.2228 205.737 78.9169 205.427 78.6642 204.936L79.0017 204.264C78.4371 202.632 77.8962 201.064 77.3238 199.411L78.757 199.18C78.7096 198.687 78.6701 198.26 78.6247 197.773C77.9259 197.741 77.1797 197.794 76.9763 196.799C76.7493 195.678 77.9811 195.812 78.22 195.068C78.3724 195.184 78.5312 195.291 78.6958 195.39C79.3709 195.727 79.5821 195.603 79.6394 194.835C79.6887 194.183 79.4558 193.453 80.0658 193.129C80.1842 191.982 80.2928 190.957 80.4014 189.927L80.1901 189.842C80.048 190.219 79.8131 190.588 79.7835 190.973C79.7045 192.023 79.3531 192.521 78.4786 192.489C78.5359 192.114 78.6089 191.751 78.6504 191.384C78.7708 190.306 79.4735 189.307 79.0452 188.138C78.9524 187.889 79.1182 187.506 79.2426 187.218C79.6255 186.353 79.7874 185.508 79.4222 184.572C79.3057 184.278 79.4222 183.822 79.5663 183.506C80.8475 180.815 81.8661 178.114 81.8049 175.016C81.7733 173.399 81.8543 171.66 82.6814 170.08C83.0032 169.472 82.9815 168.651 82.9973 167.924C83.0427 165.985 82.944 164.057 83.6842 162.179C84.1284 161.054 83.0249 158.765 81.9214 158.033C80.1447 156.86 78.3463 155.705 76.619 154.459C76.2518 154.195 76.1235 153.583 75.9163 153.117C75.709 152.651 75.5214 152.102 75.2984 151.606C75.0093 150.935 74.6851 150.28 74.3271 149.644C73.3401 147.983 72.3175 146.348 71.3167 144.708C70.9219 144.066 70.4777 143.444 70.2191 142.751C70.148 142.535 70.1231 142.306 70.1459 142.08C70.1687 141.853 70.2387 141.634 70.3513 141.436C70.7146 140.929 71.2989 140.575 71.7944 140.165C72.0451 139.955 72.3077 139.77 72.5663 139.572L72.3689 139.274C72.13 139.395 71.8951 139.521 71.6523 139.634C70.8626 140.003 70.5784 139.831 70.5132 138.978C70.4481 138.125 70.5488 137.499 71.3206 136.923C71.9997 136.415 72.8288 135.659 72.9255 134.925C73.0874 133.699 74.3173 133.495 74.6529 132.522C75.1701 131.02 74.791 129.547 74.6173 128.072C74.5443 127.46 73.0677 126.242 72.6077 126.226C72.1478 126.21 71.9188 126.33 71.9188 126.867C71.9188 127.839 71.5358 128.052 70.6494 127.673C70.4833 127.612 70.327 127.527 70.1855 127.42C69.6348 126.938 69.0899 126.727 68.6063 127.359C67.335 126.694 66.8474 125.098 65.2602 124.907C65.0747 124.885 64.899 124.546 64.7726 124.315C64.1686 123.252 63.5882 122.172 62.9821 121.114C62.8652 120.949 62.693 120.83 62.4965 120.78C61.5095 120.508 60.5225 120.095 59.5354 120.052C58.195 119.995 57.206 119.517 56.4045 118.472C56.142 118.131 55.7393 117.896 55.4057 117.608C55.1549 117.373 54.8378 117.221 54.4976 117.173C54.1574 117.125 53.8106 117.183 53.5046 117.339C52.715 117.718 51.9787 117.659 51.1969 117.416C49.9928 117.039 48.7076 116.824 47.5923 116.277C45.5669 115.274 43.3164 114.664 41.6701 112.952C41.0936 112.36 40.8804 111.819 41.0778 110.992C41.1884 110.549 41.0996 109.874 40.8153 109.55C39.5657 108.121 38.2115 106.786 36.8948 105.404C36.7526 105.256 36.5296 105.122 36.4901 104.95C36.1387 103.371 34.7825 102.66 33.7836 101.619C33.1518 100.974 32.6787 100.191 32.4018 99.331C32.0642 98.174 31.4917 97.5422 30.2303 97.554C29.9441 98.4563 30.4534 99.1888 30.943 99.8522C31.6536 100.822 32.4985 101.692 33.2526 102.634C33.6036 103.069 33.9067 103.54 34.1567 104.04C34.5674 104.863 34.897 105.73 35.3037 106.557C35.4329 106.741 35.6267 106.87 35.8465 106.918C36.423 107.072 36.5987 107.475 36.5237 107.989C36.5058 108.11 36.4611 108.227 36.3929 108.329C36.3246 108.432 36.2344 108.518 36.1288 108.581C35.9453 108.644 35.6274 108.52 35.4498 108.383C34.6799 107.767 33.9199 107.138 33.2033 106.462C32.9988 106.236 32.88 105.946 32.8677 105.641C32.8144 104.49 32.6012 104.208 31.5095 103.809C31.074 103.645 30.6669 103.414 30.3034 103.124C30.1059 102.964 30.0309 102.642 29.9085 102.393L30.708 102.018C30.5323 101.769 30.327 101.493 30.1395 101.205C29.1406 99.6646 28.0509 98.174 27.1784 96.5649C26.2841 94.9123 25.1017 93.8008 23.2145 93.4612C22.7683 93.3822 22.2274 93.2164 22.5887 92.5135C22.6148 92.3766 22.5865 92.2349 22.5097 92.1186C21.953 91.1328 21.3871 90.1528 20.812 89.1788C20.7311 89.0445 20.5376 88.9814 20.4468 88.8471C20.052 88.2824 19.6572 87.7158 19.3255 87.1235C19.1084 86.7484 18.9998 86.31 18.8004 85.9231C18.4826 85.309 18.2497 84.7621 18.603 84.0178C18.8004 83.6229 18.5379 83.0148 18.4846 82.5035C18.4412 82.1086 18.3247 81.69 18.374 81.3011C18.4984 80.3554 18.7846 79.4274 18.8498 78.4817C18.9485 77.0858 19.1301 75.6584 18.2477 74.3809C18.0957 74.1618 18.1628 73.7886 18.1273 73.4767C17.7325 73.222 17.2883 72.9199 16.8303 72.6297C16.0249 72.1203 15.1899 71.6425 14.4141 71.0917C14.1456 70.8942 14.0192 70.4993 13.7212 70.0334H15.2017C15.255 69.1686 13.9304 68.7777 14.5582 67.7392C13.6363 67.7826 12.9789 67.4884 12.898 66.4302C12.898 66.3018 12.5663 66.1005 12.3827 66.0945C10.9772 66.0472 10.5666 64.9988 10.383 63.9366C10.2839 63.246 10.0228 62.5886 9.62104 62.0183C9.21927 61.448 8.68823 60.9809 8.07136 60.6552C7.87395 60.5426 7.61732 60.3432 7.59363 60.1557C7.41794 58.8072 6.19204 58.1951 5.56626 57.1724C3.41452 57.6522 1.89251 56.4794 0.473156 55.1625C-0.14473 54.5899 -0.618507 54.2464 -1.60159 54.2405C-2.47611 54.2405 -3.20849 54.6057 -4.03168 54.6057C-5.51618 54.6057 -6.6868 53.816 -7.87125 53.1131C-8.68259 52.6274 -8.79511 52.5208 -9.84532 52.7636C-9.82399 53.0397 -9.78841 53.3145 -9.73872 53.5869C-9.52157 54.5188 -9.73872 54.8644 -10.6349 54.7716C-11.5766 54.6768 -12.3544 54.8466 -13.0611 55.5159C-13.2585 55.7133 -13.9711 55.741 -14.0106 55.6541C-14.208 55.1842 -14.5258 54.5425 -14.3521 54.1674C-14.0402 53.4902 -13.4105 52.9591 -12.842 52.2858C-13.3355 52.5168 -13.8783 52.6393 -14.2376 52.967C-15.0174 53.6778 -15.7063 54.4912 -16.421 55.2711C-16.5098 55.3678 -16.6184 55.5732 -16.5749 55.6442C-15.734 57.05 -17.1474 57.3836 -17.7752 57.9523C-18.6832 58.7736 -19.7927 59.3679 -20.7955 60.0846C-22.6176 61.3877 -24.5068 62.4972 -26.6802 63.1863C-28.3562 63.7174 -29.9137 64.6296 -31.5226 65.3739C-31.7358 65.4726 -31.9312 65.6444 -32.1523 65.6799C-32.3734 65.7155 -32.5748 65.6049 -32.788 65.5595C-32.7448 65.3517 -32.6696 65.1518 -32.5649 64.9672C-32.4168 64.8241 -32.2416 64.712 -32.0497 64.6375C-30.5217 63.8319 -28.9721 63.058 -27.4718 62.2169C-26.7019 61.7825 -25.9952 61.2652 -25.0575 61.2791C-24.9107 61.2648 -24.7724 61.2039 -24.6627 61.1053C-23.9145 60.4972 -23.1762 59.8773 -22.4379 59.2593C-21.9207 58.8269 -21.2831 58.509 -21.516 57.591C-21.5753 57.3521 -21.0877 56.973 -20.7619 56.5366C-22.0293 56.6057 -23.419 57.3264 -24.3607 55.7864C-24.6489 56.1319 -24.8266 56.3511 -25.0121 56.5623C-25.3457 56.9414 -25.7228 57.2257 -26.236 56.896C-26.7493 56.5663 -27.0869 56.2148 -26.8283 55.5139C-26.7098 55.1803 -26.7157 54.5169 -26.8914 54.4241C-27.2073 54.2563 -27.7324 54.2957 -28.0956 54.4399C-29.3274 54.9236 -30.6205 54.5603 -31.2739 53.3717C-30.947 53.2771 -30.6293 53.1536 -30.3243 53.0025C-30.1526 52.9038 -29.9394 52.6472 -29.9651 52.4971C-29.9907 52.347 -30.2553 52.1832 -30.4349 52.0548C-30.4902 52.0134 -30.6165 52.0785 -30.6935 52.0548C-31.0666 51.9186 -31.4357 51.7666 -31.8049 51.6185C-31.5364 51.0756 -31.9095 50.2365 -30.9245 49.9936C-30.5553 49.9028 -30.2217 49.4131 -30.0006 49.0321C-29.6413 48.4161 -29.211 48.1338 -28.4845 48.2581C-27.9318 48.3549 -27.3988 48.4042 -26.9645 47.8514C-26.8026 47.6441 -26.3723 47.5711 -26.0702 47.5572C-25.0082 47.5099 -25.3359 46.7478 -25.3813 46.2009C-25.4425 45.4921 -25.9913 45.4111 -26.4887 45.6717C-28.1943 46.5582 -29.9197 45.8929 -31.5976 45.6717C-32.3576 45.577 -33.0801 44.8326 -33.7178 44.268C-34.1876 43.8514 -34.0573 43.3657 -33.4276 43.111C-32.3103 42.6569 -31.2146 42.1495 -30.0717 41.7684C-29.4498 41.5591 -28.7905 41.6322 -28.4016 42.341C-28.3128 42.5029 -28.1154 42.7358 -27.991 42.7358C-27.004 42.6391 -26.0031 42.5127 -25.1167 42.0389C-25.1167 41.952 -25.1167 41.8652 -25.1167 41.7783C-25.3753 41.6914 -25.6339 41.5256 -25.8886 41.5335C-27.2152 41.571 -28.1154 40.7753 -29.0807 40.0428C-29.817 39.4821 -30.6599 39.0556 -31.4278 38.5383C-31.771 38.2598 -32.0906 37.9534 -32.3833 37.6222C-32.0299 37.3715 -31.7082 37.0457 -31.3173 36.8878C-30.9014 36.7361 -30.461 36.6625 -30.0184 36.6706C-29.0076 36.6588 -28.3937 36.0585 -27.9081 35.2885C-27.4442 34.558 -26.9526 34.025 -25.9676 34.0013C-25.5076 33.9894 -25.0615 33.5116 -24.6094 33.2471C-24.3506 33.059 -24.0711 32.9013 -23.7763 32.7772C-22.8189 32.4909 -21.8536 32.2224 -20.8764 32.0111C-20.4816 31.9262 -19.9802 31.865 -19.6683 32.0407C-18.624 32.633 -17.5659 32.6646 -16.4249 32.485C-15.7912 32.3843 -15.12 32.3862 -14.8871 33.2747C-14.8437 33.4445 -14.1883 33.6498 -13.9415 33.5452C-12.7433 33.0338 -11.6575 33.3833 -10.5343 33.7742C-10.1119 33.8987 -9.67046 33.9455 -9.23138 33.9124C-8.33318 33.8808 -7.51196 33.9657 -6.69272 34.4573C-6.29791 34.6943 -5.60896 34.6548 -5.12926 34.4988C-4.21132 34.2066 -3.48881 34.1039 -2.62022 34.8029C-2.04379 35.2688 -1.07452 35.2194 -0.308578 35.484C0.678459 35.8236 1.71485 36.1257 2.59726 36.6686C3.43624 37.182 4.08768 37.0635 4.749 36.5344C5.53862 35.9026 6.31641 35.411 7.40215 35.8414C7.62917 35.9302 8.00621 35.6913 8.29443 35.5571C8.93403 35.2609 9.53809 34.8621 10.2034 34.6489C10.5982 34.5185 11.0937 34.6489 11.5418 34.6804C12.1893 34.7199 12.8387 34.7989 13.4862 34.791C13.6264 34.791 13.7705 34.4889 13.8988 34.3152C14.1258 34.0092 14.343 33.6952 14.5641 33.3833C14.7753 33.6755 14.9747 33.9756 15.2017 34.254C15.7248 34.8917 16.2618 35.5195 16.9014 36.2817C17.2686 35.6893 17.4699 35.3419 17.691 35.0102C18.0957 34.4179 18.455 34.4396 18.8044 35.0615C19.3966 36.1217 19.7125 36.1474 20.4508 35.1424C20.9542 34.4554 21.6155 34.4415 22.1327 34.9253C23.7455 36.4337 25.8834 36.3251 27.8042 36.8996C28.2543 37.0319 28.7912 36.872 29.2907 36.8345C30.6725 36.7279 30.941 37.2096 31.095 38.4337C31.1305 38.7141 30.5501 39.0714 30.333 39.3084C31.7977 39.3084 33.452 39.5058 35.0313 39.2471C36.4131 39.0201 37.339 39.178 37.941 40.4693C38.0536 40.7102 38.1542 40.9569 38.2608 41.1998C38.3438 41.1129 38.4267 41.026 38.5076 40.9372C38.3378 40.3804 38.1681 39.8256 37.9983 39.2669L38.1227 39.2531C37.9351 39.0043 37.5423 38.6608 37.6035 38.5265C37.7673 38.1612 38.0694 37.7526 38.4207 37.6005C39.1097 37.3024 39.8677 37.1662 40.6337 36.9529C39.9842 36.2283 39.9822 36.2817 39.313 36.6212C38.7146 36.8866 38.0944 37.1 37.4594 37.259C36.8987 37.4268 36.3045 37.5058 35.7597 37.715C34.4904 38.2067 33.2072 38.0981 31.93 37.8493C31.6694 37.798 31.2726 37.4367 31.2726 37.2195C31.2726 36.5423 30.8778 36.4554 30.3803 36.3823C29.6815 36.2817 28.9768 36.1987 28.2938 36.0329C27.7706 35.9085 27.0817 35.8098 27.1942 35.0319C27.3008 34.3073 27.8456 34.0447 28.5543 34.0585C29.6736 34.0802 30.7949 34.0901 31.9102 34.096C32.0375 34.1023 32.1648 34.083 32.2845 34.0393C32.4042 33.9955 32.5139 33.9282 32.6071 33.8413C32.0465 33.7801 31.4858 33.6755 30.9232 33.6636C29.9796 33.6439 29.038 33.6854 28.0944 33.6972C27.8586 33.7055 27.6226 33.6989 27.3876 33.6775C26.0295 33.5096 25.8222 33.0852 26.5368 31.8354C26.1912 31.6937 25.8532 31.5342 25.5241 31.3576C24.8845 30.9746 24.9122 30.096 25.459 29.5807C26.8408 28.3013 28.6767 28.0663 30.3053 27.3595C30.6014 27.2312 31.0278 27.4029 31.395 27.4365C31.3042 27.7485 31.2154 28.0624 31.1246 28.3763C31.095 28.4809 31.0594 28.5737 31.0278 28.6843C31.7049 28.4691 32.3406 28.1591 33.0019 28.092C33.8488 27.9933 34.5062 28.2894 34.1488 29.5372L35.3787 28.7889C35.4794 28.3941 35.5564 28.0742 35.6334 27.7623C35.9156 27.8926 36.194 28.0288 36.4802 28.1571C37.2837 28.4928 37.7022 29.1108 37.9035 29.9341C37.9529 30.1315 38.2391 30.2934 38.5471 30.6014C38.2885 29.6142 38.097 28.8857 37.9095 28.1591C37.7417 27.5076 37.9785 27.2114 38.6655 27.2549C39.0919 27.2845 39.5223 27.2549 40.0336 27.2549C39.934 27.0643 39.8495 26.8663 39.7809 26.6626C39.6762 26.2144 39.7986 25.9715 40.3257 26.088C40.7817 26.1887 41.2772 26.1769 41.7076 26.3506C42.0175 26.4789 42.3807 26.7889 42.4577 27.0851C42.5426 27.4168 42.4577 27.9913 42.2208 28.165C41.443 28.7435 41.449 29.1917 42.0471 29.942C42.4419 30.4336 42.6117 31.1542 42.744 31.8018C43.0006 33.0575 43.4151 33.5156 44.6726 33.7229C45.1918 33.8078 45.7426 33.8571 46.2104 34.0704C46.3617 34.1561 46.4918 34.2748 46.5909 34.4176C46.69 34.5605 46.7556 34.7239 46.7829 34.8956C46.7948 35.0793 46.3427 35.3458 46.0545 35.4761C45.7528 35.5926 45.4408 35.6805 45.1227 35.7387C45.1681 36.4554 45.4228 37.3004 45.1839 37.4742C44.7713 37.7782 44.0508 37.7387 43.4625 37.715C42.9157 37.6953 42.3768 37.5176 41.8339 37.3952C41.7806 37.4821 41.7293 37.5709 41.678 37.6578C42.1698 38.0358 42.6811 38.3877 43.2098 38.7121C44.2265 39.2728 45.2945 39.5729 46.4888 39.2708C46.931 39.1583 47.4304 39.2254 47.8983 39.2708C49.4222 39.4051 49.4203 39.415 50.1369 37.8493C49.6157 37.7348 49.0985 37.6519 48.603 37.5018C48.3524 37.3934 48.1163 37.2541 47.9002 37.0872C48.074 36.8286 48.2023 36.408 48.4313 36.3389C49.2466 36.1 49.9572 35.8019 50.4053 35.0062C50.4784 34.8759 50.9976 34.8384 51.1831 34.9549C52.0083 35.4583 52.788 36.0368 53.6527 36.6351C53.7928 37.798 52.4209 37.4248 52.1228 37.7605C52.255 38.722 52.3518 39.4347 52.4544 40.183C53.0466 40.183 53.5303 40.0547 53.4178 39.2096C53.3329 38.5759 53.6389 38.1395 54.2291 37.8927C54.8194 37.6459 55.1076 37.2669 55.0345 36.5877C54.9615 35.9085 54.6812 35.5492 54.0001 35.3695C53.2675 35.1503 52.5533 34.8737 51.8642 34.5422C51.3687 34.3231 51.2147 33.9598 51.4042 33.3872C51.6826 32.5442 51.878 31.7604 52.8927 31.401C53.6112 31.1483 53.781 30.3842 53.5027 29.6754C53.2766 29.1039 52.978 28.5638 52.6143 28.0683C52.1623 27.4503 52.2195 27.016 52.7644 26.4671C53.6547 25.5747 54.7621 25.3299 55.9229 25.316C56.9487 25.323 57.9719 25.4201 58.9807 25.6063C59.1413 25.649 59.2895 25.729 59.4133 25.8398C59.5371 25.9507 59.6331 26.0891 59.6933 26.244C59.7565 26.5086 59.5709 26.939 59.3499 27.1423C58.7832 27.6553 58.1729 28.1177 57.5258 28.5244C57.2328 28.7106 56.8792 28.7764 56.5388 28.708C56.0512 28.5579 55.7709 28.5895 55.5517 29.0831C55.3168 29.6261 54.7621 30.1216 55.4037 30.7357C55.6366 30.9607 55.8794 31.1759 56.1084 31.405C57.0007 32.2895 57.6028 33.2905 57.4725 34.6173C57.4153 35.1977 57.5396 35.6202 58.2779 35.7308C58.5583 35.7703 58.8465 36.2323 58.9925 36.562C59.1386 36.8917 59.1445 37.3399 59.2512 37.9836C59.6262 37.5571 59.8651 37.3221 60.0605 37.0576C60.5165 36.4396 61.0476 36.3685 61.6615 36.8009C61.8689 36.9658 62.0865 37.1175 62.3129 37.255C62.7986 37.5077 62.8203 37.8473 62.5617 38.2738C62.382 38.5759 62.1214 38.8839 62.0938 39.2077C62.0951 39.366 62.1311 39.5222 62.1993 39.6652C62.2675 39.8081 62.3663 39.9343 62.4886 40.0349C62.6446 40.1514 63.1243 40.0705 63.2783 39.9066C64.1488 38.9668 65.1457 38.0882 64.9404 36.5699C64.8694 36.0507 65.5938 35.4208 64.9128 34.9746C64.2969 34.5798 63.5606 34.3468 62.8696 34.0664C62.1076 33.7584 61.3377 33.4741 60.5698 33.1819L60.6113 32.866L61.8905 32.56L61.9142 32.3862C61.5983 32.3487 61.2805 32.3171 60.9666 32.2697C60.1 32.1434 59.7407 31.709 59.7644 30.8344C59.8059 29.2825 60.6981 28.0703 61.4108 26.8008C61.4627 26.7288 61.5302 26.6694 61.6082 26.627C62.4156 26.088 65.4813 25.8373 66.5138 26.2953C65.9413 26.6744 65.4241 27.0239 64.9009 27.3615C63.9573 27.9676 63.4915 28.5579 64.3956 29.9282C64.6344 30.2895 64.8773 30.6488 65.1753 31.093C65.4734 30.1058 65.9827 29.3003 65.6313 28.2894C65.5405 28.0249 65.7814 27.4227 66.0262 27.3022C66.8809 26.8896 67.8147 26.3289 68.703 26.3585C71.0146 26.4355 73.3164 26.7929 75.6123 27.0476C75.8141 27.0863 76.0123 27.1424 76.2045 27.2154C75.7662 28.0999 75.9755 28.4888 76.85 28.783C77.2191 28.9074 77.5231 29.2746 77.8173 29.5728C78.7787 30.5303 80.0065 31.0002 81.2778 31.1523C82.7643 31.3378 83.7099 32.0427 84.2784 33.3675C84.3584 33.5173 84.4481 33.6618 84.5469 33.7999C85.7906 33.4524 86.7598 34.2204 87.7903 34.7318C87.9107 34.791 87.968 35.3241 87.8515 35.4465C87.4683 35.7936 87.0548 36.1054 86.6157 36.3784C86.2643 36.6252 85.9031 36.8582 85.6682 37.0161C85.9474 37.4208 86.2555 37.8049 86.5901 38.1652C86.796 38.3499 87.0658 38.4469 87.3422 38.4357C88.0844 38.3468 88.7043 38.2619 89.2274 39.0675C89.4722 39.4446 90.2145 39.6795 90.7297 39.6598C91.7167 39.6381 92.4866 39.9816 93.2368 40.5502C93.6818 40.8542 94.1431 41.1336 94.6186 41.3874C94.2672 41.7546 93.9159 42.1179 93.5684 42.4851C92.8439 43.2492 92.1234 44.0152 91.2666 44.9254C90.9133 44.6352 90.477 44.3074 90.0822 43.9382C89.5255 43.417 89.0221 42.8326 88.4536 42.3252C87.8081 41.7506 86.7895 41.9066 86.1538 42.8069C86.9632 43.5592 87.7528 44.3864 88.6471 45.0992C89.7308 45.9521 90.2658 47.0518 90.4948 48.4042C90.4066 48.4694 90.3143 48.5288 90.2184 48.5819C89.7624 48.7971 89.6262 49.6718 88.9412 49.3361C88.2187 48.9808 87.5791 48.4595 86.9039 48.0074C86.8585 47.9758 86.8408 47.9008 86.7934 47.8712C86.5368 47.7152 86.2762 47.5651 86.0156 47.4151C86.142 47.7033 86.213 48.0508 86.4104 48.2739C87.1389 49.0775 87.9226 49.8337 88.6609 50.6313C88.805 50.7853 88.8346 51.0479 88.9175 51.2592L88.7398 51.4566C87.5238 51.0025 86.3038 50.5524 85.0898 50.0904C84.7344 49.9541 84.3574 49.5928 84.0534 49.654C82.6261 49.9344 82.024 48.7853 81.1633 48.1002C80.5711 47.6244 80.0342 47.0715 79.4459 46.5859C79.2757 46.4939 79.0811 46.4573 78.8892 46.4812C77.7423 46.4931 76.5934 46.5385 75.4464 46.5266C75.0955 46.4917 74.7516 46.4052 74.4258 46.27C73.7408 46.0409 73.7448 45.654 74.1672 45.1426C74.7002 44.493 75.2984 44.0764 76.2065 44.2048C76.6745 44.2731 77.1513 44.253 77.612 44.1455C78.0068 44.0468 78.374 43.7704 78.8379 43.5295L77.537 42.3805L77.5192 42.0428C79.209 42.7477 79.5545 41.3953 80.202 40.5561C80.5593 40.0941 80.2612 38.949 79.5841 38.5956C79.1636 38.3745 78.5043 38.4771 77.991 38.5956C77.4777 38.7141 77.2606 39.1228 77.1658 39.6993C77 40.6983 76.2775 40.9945 75.3714 40.5522C75.2696 40.4978 75.1859 40.4147 75.1306 40.3133C74.868 39.8079 75.6695 38.2698 76.238 38.1751C76.6052 38.1119 76.9724 38.0527 77.2902 38.0013C77.1698 36.6943 75.8294 37.3439 75.3161 36.6193L75.8176 35.792L73.1743 34.5205L72.8505 35.4347C72.2208 35.2668 71.6227 35.0911 71.0146 34.9509C70.6672 34.872 70.0276 34.7436 70 34.8206C69.8042 35.2598 69.7227 35.7413 69.7631 36.2204C69.8519 36.7516 70.1579 37.2451 70.3948 37.7802C69.6644 38.2461 69.6348 38.7318 70.1085 39.4031C70.837 40.4357 70.5942 40.7852 69.5913 41.5295C68.8017 42.1218 68.1878 42.1534 67.2817 41.9125C66.5276 41.7151 65.657 41.9441 64.7549 41.9895C64.9523 43.417 63.4796 43.2748 62.9782 44.031C63.677 44.9037 63.5191 45.8613 62.5103 46.3134C61.5785 46.7062 60.6192 47.0302 59.64 47.2828C59.1505 47.421 58.8702 47.6283 59.0478 48.1357C59.3222 48.9511 58.9156 49.3046 58.2306 49.6007C55.9426 50.5879 54.5331 52.2562 54.2824 54.7972C54.2054 55.5771 54.4127 56.2681 55.1905 56.5228C56.1578 56.8387 56.5151 57.5376 56.6533 58.4261C56.7836 59.2632 57.1073 59.6463 57.9937 59.204C59.4367 58.4834 60.6508 59.2632 61.6181 60.1023C63.2467 61.518 65.0036 62.3275 67.1691 62.2268C67.5217 62.2257 67.8733 62.2641 68.2174 62.3413C69.6881 62.6118 69.5992 62.6019 69.3071 64.059C69.1709 64.7105 69.5045 65.441 69.4611 66.1301C69.4117 66.9613 69.8341 67.3443 70.4797 67.6938C70.8745 67.905 71.1548 68.4282 71.5457 68.5052C72.7301 68.7343 73.8178 67.2278 73.3677 66.1143C73.0598 65.3522 72.736 64.592 72.5011 63.8063C72.2109 62.8388 72.3708 62.667 73.3539 62.5802C73.731 62.5466 74.1731 62.5506 74.4594 62.3531C74.8285 62.0984 75.0852 61.668 75.3576 61.2909C75.4292 61.1296 75.4732 60.9574 75.4879 60.7815C75.9617 58.8881 75.7031 58.284 73.9718 57.2612C73.1052 56.7499 73.0025 56.2741 73.731 55.6008C74.8661 54.5504 74.8522 53.3678 74.3232 52.0608C74.1679 51.7129 74.0578 51.3467 73.9955 50.9709C73.881 50.0489 74.6943 49.4546 75.5905 49.658C76.3802 49.8376 77.1955 49.9976 77.9811 49.9324C78.8438 49.8259 79.7151 50.0449 80.425 50.5464C81.5088 51.2868 82.7466 51.8021 83.9152 52.4181C84.4087 52.6807 84.9022 52.813 84.4127 53.6363C84.0929 54.1931 84.1817 55.046 84.9022 55.6107C85.378 55.9838 85.7274 56.5169 86.1518 56.9927C86.6986 56.9118 87.3185 56.9295 87.8318 56.7045C88.2266 56.5327 88.6589 56.0924 88.7497 55.6975C88.9609 54.7775 89.5176 54.3569 90.329 54.1437C90.8896 54.7834 91.4542 55.3994 91.9872 56.0431C92.2164 56.3451 92.4216 56.6646 92.6011 56.9986C92.9446 57.5791 93.1933 58.2425 93.6355 58.7302C94.1764 59.3225 94.2732 59.8161 93.5684 60.5229C94.0521 60.8921 94.5061 61.2198 94.9404 61.5713C95.2444 61.8181 95.5326 62.1004 95.8169 62.361C95.9241 62.4777 96.0537 62.5717 96.1979 62.6374C96.7743 62.8052 97.3823 62.904 97.9351 63.1054C98.3141 63.2396 99.2399 63.0619 98.6082 63.9958L99.7433 64.5526L99.386 64.9139C100.936 64.9139 100.916 64.9139 100.823 66.5052C100.809 66.752 101.048 67.0225 101.192 67.2693C101.518 67.8261 101.419 68.219 100.776 68.4203C100.748 68.4302 100.722 68.4519 100.695 68.4519C98.8866 68.4697 97.5363 69.4964 96.0952 70.4164C95.6669 70.6909 95.0312 70.7442 94.4943 70.7323C92.5518 70.6928 90.6132 70.5586 88.6727 70.5211C88.3205 70.5538 87.9948 70.7223 87.7646 70.991C87.1724 71.6741 86.5802 72.2091 85.6504 72.4678C84.2804 72.8488 83.6092 73.9189 83.5559 75.4037C84.6041 73.603 86.3631 72.9298 88.2009 72.4421C88.8838 72.2933 89.5849 72.2461 90.2816 72.3019C90.9054 72.3256 91.1028 72.7126 90.5974 73.1509C89.8078 73.84 89.0419 74.5902 87.8456 74.5705C86.9908 74.5547 86.6276 75.0818 86.8428 75.9209C87.0402 76.6554 87.2652 77.382 87.512 78.0927C87.8397 79.0404 87.3521 79.7492 86.3611 79.9151C85.5663 80.0785 84.7845 80.2995 84.0218 80.5765C83.2322 80.8332 83.1236 81.4077 83.3664 82.1303C83.4694 82.4068 83.5267 82.6982 83.5362 82.9931C83.5362 83.615 83.3664 84.0751 82.5491 83.9645C81.3371 83.8006 80.3461 84.4482 79.5249 85.1708C78.978 85.6546 78.7609 86.5035 78.37 87.1728C78.1578 87.5585 77.9043 87.92 77.614 88.2508C77.3475 88.4903 77.0579 88.7027 76.7493 88.8846C76.5914 88.6043 76.4295 88.3259 76.2795 88.0416C76.2325 87.9361 76.1935 87.8272 76.163 87.7158H75.9044V89.473C76.3157 90.1105 76.6926 90.7696 77.0336 91.4473C77.1165 91.629 76.8757 92.0515 76.6723 92.2489C76.1639 92.7265 75.6287 93.1748 75.0694 93.5915C73.9817 94.4326 72.8782 95.2559 71.7806 96.0891C70.1441 97.3329 69.8914 98.8334 70.8567 100.703C71.3065 101.622 71.6553 102.586 71.897 103.58C72.002 104.07 71.9566 104.581 71.7668 105.045C71.6148 105.428 71.2397 105.892 70.8843 105.971C70.6336 106.028 70.15 105.564 69.9467 105.224C69.1768 103.947 68.3516 102.705 68.17 101.138C68.0535 100.135 67.1632 99.7436 66.1762 99.9114C65.7565 99.9452 65.3381 99.8329 64.9918 99.5936C64.0995 99.0013 61.3338 98.9085 60.7258 99.6903C59.7289 100.966 58.5089 100.634 57.36 100.283C55.8696 99.8364 54.5963 99.9904 53.4118 101.001C53.1645 101.207 52.8833 101.369 52.5808 101.479C51.2601 101.969 51.0173 102.269 51.2542 103.627C51.3943 104.417 51.3687 105.09 50.9265 105.799C50.6995 106.164 50.6541 106.709 50.6857 107.161C50.7745 108.389 50.7705 109.669 51.1417 110.82C51.4496 111.781 52.0616 112.826 52.8552 113.402C53.6487 113.979 54.7147 114.358 55.8301 113.995C56.3664 113.843 56.9126 113.728 57.4646 113.651C58.3569 113.485 58.7991 112.861 58.8465 112.046C58.9057 111.035 59.3637 110.563 60.3369 110.445C61.1265 110.35 61.8964 110.125 62.6841 110.05C63.6908 109.961 64.0067 110.405 63.6316 111.323C63.3177 112.091 63.1657 112.999 62.8183 113.633C62.2853 114.611 62.1787 115.59 61.9438 116.595C61.8885 116.834 61.6891 117.039 61.4562 117.428C62.153 117.428 62.7216 117.428 63.2881 117.428C64.6838 117.454 66.1446 117.09 67.4021 118.003C67.5306 118.095 67.6389 118.213 67.7203 118.349C67.8018 118.484 67.8547 118.635 67.8759 118.792C67.8799 119.495 67.7936 120.196 67.6192 120.877C67.179 122.469 67.1869 123.809 68.707 124.954C70.1322 126.028 70.0454 126.139 71.7214 125.365C72.6334 124.94 74.562 125.408 75.8294 126.419C76.2439 125.734 76.7612 125.104 77.0257 124.384C77.4343 123.276 78.3661 123.114 79.2821 122.838C79.7429 122.712 80.1915 122.546 80.6224 122.34C81.3667 121.945 82.0813 121.511 83.2499 121.817C81.797 122.844 81.2936 124.001 81.9016 125.424L82.2688 125.495C82.2984 125.221 82.4129 124.923 82.3458 124.676C82.024 123.491 82.7505 122.382 83.9507 122.425C84.6555 122.449 85.3879 122.504 85.9248 123.191C86.1676 123.501 86.7362 123.556 87.1626 123.714C87.2376 123.742 87.3422 123.683 87.4231 123.701C88.2128 123.878 89.0221 124.261 89.792 124.192C90.5086 124.127 91.16 123.529 91.8806 123.28C92.23 123.16 92.6702 123.304 93.146 123.331C93.0808 123.716 93.0374 123.987 92.9722 124.368C93.5171 124.455 94.0639 124.447 94.5258 124.64C95.3155 124.97 94.7489 125.509 94.6167 125.967C96.2788 125.758 97.7554 126.779 97.7258 128.084C98.3654 128.465 98.9635 128.913 99.6347 129.187C100.091 129.363 100.59 129.397 101.066 129.284C102.296 128.968 103.308 129.316 104.258 130.06C104.961 130.613 105.853 131.018 106.349 131.711C106.982 132.597 106.546 134.08 107.835 134.682C107.6 136.009 108.378 136.483 109.499 136.749C109.75 136.808 109.926 137.191 109.973 137.245C110.68 137.369 111.254 137.403 111.779 137.578C112.559 137.843 113.32 138.16 114.057 138.528C114.969 138.98 114.973 139.318 114.217 140.036C114.401 139.928 114.579 139.81 114.75 139.683C115.342 139.191 115.95 139.101 116.724 139.375C117.491 139.653 118.296 139.811 119.111 139.841C120.169 139.871 120.986 140.236 121.638 141.041C121.937 141.444 122.315 141.782 122.748 142.035C123.181 142.288 123.661 142.451 124.159 142.514C125.308 142.656 125.914 143.288 125.935 144.441C125.965 145.322 125.912 146.203 125.775 147.073C125.598 148.076 124.903 148.737 124.064 149.326C123.56 149.679 123.197 150.295 122.893 150.858C122.589 151.421 122.498 152.169 121.64 152.291C121.502 152.311 121.334 152.686 121.316 152.905C121.227 153.989 121.172 155.077 121.119 156.167C121.077 157.172 121.071 158.179 120.408 159.028C120.327 159.116 120.278 159.228 120.27 159.348C120.359 160.501 119.589 161.296 119.131 162.234C118.307 163.918 117.04 164.801 115.161 164.915C114.766 164.939 114.395 165.292 114.026 165.508C113.779 165.658 113.475 166.047 113.331 165.989C112.2 165.539 111.752 166.596 111.009 166.961C109.683 167.602 109.302 168.617 109.586 169.995C109.652 170.403 109.676 170.817 109.659 171.229C109.659 171.784 109.517 172.159 108.895 172.446C108.398 172.675 108.133 173.376 107.697 173.798C107.347 174.136 106.83 174.309 106.501 174.663C105.962 175.243 105.33 175.847 105.067 176.556C104.517 178.053 103.466 179.099 102.278 180.007C101.251 180.797 100.142 180.229 99.0899 179.861C98.8064 179.744 98.5058 179.672 98.1996 179.65C99.0563 179.958 99.3406 180.535 99.1866 181.378C99.1649 181.494 99.2814 181.644 99.3544 181.772C100.219 183.265 99.4433 184.821 97.7752 185.299C96.4288 185.694 95.1121 185.98 93.7105 185.879C93.5427 185.865 93.219 186.09 93.2032 186.233C93.1321 186.88 93.1775 187.542 93.1065 188.191C93.0884 188.319 93.0424 188.44 92.9718 188.548C92.9011 188.655 92.8076 188.746 92.6978 188.813C91.9832 189.105 91.243 189.315 90.5264 188.748C90.4059 188.651 90.2026 188.661 89.9341 188.598C89.9677 189.115 89.9953 189.565 90.025 190.012L91.472 190.345C91.5174 191.411 91.4423 191.469 90.2006 191.305C90.0032 192.094 89.79 192.884 89.5768 193.684C89.3478 194.545 88.5503 194.701 87.8811 194.936C87.3422 195.133 87.1349 195.415 87.0915 195.944C87.0303 196.61 87.2731 196.979 87.9463 197.157C88.3727 197.269 89.1169 197.694 89.0932 197.767C88.878 198.403 88.6668 199.285 88.1752 199.526C87.2455 199.978 87.05 200.711 86.8092 201.518C86.7164 201.832 86.521 202.33 86.3117 202.363C85.0384 202.561 85.0325 203.548 84.8529 204.523C85.6702 204.796 85.8537 205.439 85.9228 206.237C86.0748 207.96 87.1073 208.93 88.9984 209.321C89.2728 209.376 89.5176 209.575 89.7762 209.716C89.5492 209.864 89.3419 210.085 89.0952 210.146C88.3944 210.322 87.6719 210.411 86.9671 210.573C86.6093 210.676 86.2585 210.803 85.9169 210.952L85.4056 210.965ZM66.4822 75.8183C66.1229 75.2773 65.7972 74.5804 65.2819 74.0769C64.8871 73.6919 64.2771 73.4945 63.7303 73.3187C63.0414 73.0996 62.1984 72.529 61.6378 73.2793C61.0772 74.0295 60.4632 74.4994 59.5473 74.7047C58.9412 74.841 58.3727 75.1746 57.891 75.9723C58.3865 75.9723 58.6273 76.0295 58.8267 75.9624C59.7072 75.6623 60.5935 75.3701 61.4463 74.993C62.0287 74.7383 62.3662 74.7462 62.5557 75.4412C62.7295 76.0809 63.2526 76.2309 63.8547 76.15C64.7154 76.0453 65.578 75.9348 66.4822 75.8183ZM69.3347 81.0977C69.7611 80.1204 70.0493 79.2399 70.5191 78.4659C70.837 77.9387 70.7166 77.7077 70.2507 77.5439C69.2459 77.1924 68.2272 76.8805 67.181 76.5409C67.0329 76.9634 66.952 77.1984 66.873 77.4254C68.1522 78.0888 68.2944 78.6811 67.5916 80.2665C68.8234 80.2843 68.8234 80.2843 69.3347 81.0997V81.0977ZM65.7952 77.3227C64.8082 77.1845 63.1381 77.8835 63.0315 78.6772C62.8727 79.9754 62.7791 81.2808 62.7512 82.5884C62.7314 83.0188 62.9703 83.4097 63.4461 83.2261C63.7481 83.1076 64.1153 82.7345 64.1488 82.4363C64.2041 81.9625 63.9336 81.459 63.9415 80.9714C63.9494 80.4837 63.9968 79.8697 64.2456 79.4412C64.6779 78.6772 65.2839 78.0019 65.7952 77.3247V77.3227ZM76.4749 79.8104C75.7406 79.9269 75.1365 80.0316 74.5305 80.1184C72.9808 80.3396 72.9512 80.3771 72.9512 81.7236C73.4783 81.5459 74.0587 81.3287 74.645 81.151C75.3655 80.924 76.2459 80.9161 76.4749 79.8124V79.8104ZM72.3827 82.4679L72.2998 82.1836C70.8113 81.9625 69.7197 82.7463 68.6556 83.6012L68.7563 83.8658L72.3827 82.4679ZM18.8853 72.5527L19.0985 72.3552C19.0862 72.251 19.0547 72.1499 19.0057 72.0571C18.4787 71.4273 17.9615 70.7856 17.3831 70.2071C17.2903 70.1124 16.9014 70.3138 16.5934 70.3908L18.8853 72.5527ZM95.6984 64.9395C95.7616 65.0837 95.8208 65.2258 95.884 65.3699L97.4001 64.5249L97.2599 64.2406L95.6984 64.9395Z" fill="white"/>
<path d="M181.557 144.724C181.332 144.102 181.239 143.539 180.951 143.118C180.226 142.048 179.433 141.022 178.631 140.007C177.761 138.905 177.628 137.803 178.201 136.475C178.596 135.557 178.694 134.5 178.834 133.489C178.927 132.82 178.503 132.467 177.836 132.408C177.603 132.388 177.368 132.354 177.137 132.315C176.661 132.236 173.333 130.796 172.938 130.538C171.83 129.793 170.804 129.632 169.404 130.143C167.045 131.012 164.73 132.242 162.033 131.92C160.402 131.722 158.738 131.817 157.098 131.687C156.575 131.635 156.084 131.415 155.698 131.059C154.316 129.677 152.97 128.295 151.715 126.802C150.943 125.892 150.372 124.812 149.691 123.823C149.498 123.563 149.276 123.325 149.03 123.114C147.314 121.535 146.813 119.343 147.585 117.171C147.759 116.596 147.803 115.989 147.715 115.394C147.583 114.263 147.727 113.041 146.667 112.158C146.469 111.995 146.55 111.26 146.74 110.924C147.924 108.828 149.215 106.778 150.404 104.693C150.996 103.659 151.638 102.887 152.885 102.522C153.793 102.255 154.559 101.483 155.351 100.889C155.467 100.8 155.44 100.415 155.369 100.206C154.861 98.7249 155.854 96.5728 157.27 95.9469C157.76 95.7027 158.187 95.3479 158.517 94.9104C158.896 94.4326 159.07 93.787 159.463 93.3309C159.824 92.9044 160.357 92.6201 160.845 92.2549C160.817 92.1937 160.785 92.1186 160.754 92.0456C160.209 90.7287 159.386 89.8363 157.793 90.0475C157.033 90.1482 156.748 89.7158 156.697 89.0189C156.68 88.6359 156.609 88.2572 156.488 87.8935C156.251 87.2439 156.423 86.7642 156.92 86.3239C157.418 85.8836 157.661 85.3722 157.512 84.6733C157.295 83.6447 157.118 82.6081 156.981 81.5657C156.972 81.419 156.995 81.2719 157.049 81.1353C157.103 80.9987 157.187 80.8759 157.295 80.7759C157.996 80.2843 158.76 80.2369 159.64 80.3593C161.437 80.6193 163.25 80.7466 165.065 80.7404C165.419 80.7404 165.956 79.8579 166.066 79.3129C166.197 78.526 166.172 77.7211 165.993 76.9437C165.938 76.546 165.752 76.1783 165.463 75.8997C165.174 75.6211 164.799 75.4478 164.4 75.4076C163.808 75.3168 163.239 74.993 162.73 74.6633C162.473 74.5082 162.287 74.2578 162.213 73.9666C162.139 73.6753 162.183 73.3666 162.335 73.1075C162.444 72.9199 163.125 73.0522 163.551 73.0542C164.064 73.0542 164.747 73.2891 165.057 73.0443C166.167 72.1697 167.545 72.0828 168.759 71.5497C169.225 71.3523 169.562 71.1371 169.639 70.4895C169.696 70.0097 170.154 69.5181 170.545 69.1489C171.888 67.8774 173.246 66.6178 174.673 65.443C175.107 65.0857 175.773 64.985 176.349 64.831C176.621 64.7579 176.941 64.8626 177.228 64.831C178.262 64.748 178.659 63.8951 178.215 62.9751C177.815 62.0979 177.485 61.1909 177.228 60.2623C177.203 60.1135 177.213 59.961 177.256 59.8166C177.3 59.6722 177.376 59.5396 177.478 59.4291C177.994 58.9981 178.534 58.5979 179.097 58.2307C179.849 57.6956 180.4 57.8931 180.41 58.7874C180.42 59.6818 180.737 60.1695 181.549 60.5466C182.561 61.0204 182.567 61.6601 181.673 62.3393C181.322 62.6059 180.883 62.7776 180.572 63.0698C180.327 63.2963 180.158 63.5928 180.088 63.9188C180.066 64.0393 180.463 64.2604 180.692 64.3927C181.245 64.7086 181.679 64.6256 182.289 64.2841C182.769 64.0096 183.608 64.0866 184.166 64.3058C184.891 64.596 185.588 64.7461 186.17 64.3058C187.325 63.4213 188.592 63.3699 189.937 63.4864C190.374 63.5413 190.817 63.5172 191.245 63.4153C192.102 63.1725 192.647 62.6434 192.669 61.6601C192.706 59.7865 194.021 58.742 195.253 57.6245C195.488 58.5308 195.699 59.3403 195.94 60.2702C197.018 59.283 197.124 58.1221 196.457 57.2376C196.197 56.8867 196 56.4932 195.875 56.0747C195.732 55.6048 195.952 55.2336 196.467 55.2079C198.003 55.1309 199.562 54.5702 200.96 55.3896L202.837 54.1082C203.771 53.4725 203.824 53.2434 203.177 52.2622C203.127 52.2898 203.052 52.3056 203.037 52.3471C202.308 54.1911 201.919 53.8239 200.541 53.1881C200.146 53.0045 199.538 53.1388 199.065 53.2691C197.916 53.587 196.81 54.0983 195.646 54.3234C194.481 54.5485 194.132 54.1043 194.066 52.9177C194.011 51.8318 193.914 50.7459 193.77 49.6698C193.656 48.8149 193.79 48.1693 194.56 47.5987C195.623 46.7769 196.625 45.8803 197.56 44.9156C197.862 44.6135 197.908 44.0547 198.078 43.5967C196.483 43.2137 194.262 44.0705 193.577 45.2334C193.547 45.2828 193.496 45.3401 193.504 45.3874C193.701 46.8702 192.554 47.4052 191.609 48.0489C188.76 49.9897 189.37 50.0114 188.428 52.7558C189.021 53.1803 189.64 53.5119 190.126 53.9799C190.971 54.7894 190.679 55.9542 189.646 56.4735C188.786 56.9039 188.182 57.5831 188.158 58.6453C188.132 59.8161 187.441 60.6197 186.32 61.0145C185.773 61.2021 185.288 61.5693 184.772 61.8477C183.665 62.44 183.284 62.3058 182.858 61.1409C182.463 60.0451 182.082 58.9375 181.634 57.8615C181.294 57.0461 180.856 56.2721 180.536 55.6304C179.251 56.4083 178.193 57.3106 176.969 57.7193C175.563 58.1892 174.464 57.3442 173.889 56.3767C174.006 55.6581 174.156 55.1921 174.138 54.736C174.097 53.6817 173.941 52.6314 173.885 51.5771C173.822 50.4497 174.478 49.6856 175.332 49.0973C176.912 48.0015 178.542 46.9748 180.114 45.8652C180.477 45.6086 180.662 45.1169 180.968 44.7675C181.345 44.3371 181.776 43.9541 182.153 43.5276C182.386 43.2709 182.692 42.9985 182.763 42.6865C183.12 41.107 184.502 40.3883 185.467 39.2235L183.033 38.5443C184.642 37.5808 186.046 36.876 187.635 36.5048C188.42 36.3138 189.144 35.9289 189.741 35.3853C190.442 34.7357 191.259 34.8305 192.037 34.7081C192.73 34.5975 193.3 34.4356 193.814 33.8927C194.355 33.3201 195.038 32.9292 195.944 33.0635C196.289 33.1148 196.72 32.866 197.053 32.6528C198.107 32.0013 198.536 32.0388 199.396 32.8246C199.508 32.8968 199.637 32.9396 199.77 32.949C199.902 32.9583 200.035 32.9338 200.156 32.8779C200.79 32.4198 201.436 32.5422 202.091 32.716C202.802 32.9035 203.5 33.1365 204.205 33.3399C204.76 33.5018 204.902 33.796 204.6 34.3271C204.255 34.951 204.551 35.1425 205.18 35.2037C206.083 35.2925 206.987 35.4011 207.636 36.2007C207.784 36.3824 208.177 36.4712 208.426 36.4376C209.902 36.2521 211.308 36.331 212.559 37.259C212.706 37.3617 212.878 37.4193 213.057 37.4248C214.753 37.4683 215.789 38.6588 216.918 39.6598C217.741 40.3903 217.631 41.1801 216.743 41.8671C214.474 43.6204 213.256 43.1189 210.51 42.0646C209.456 41.6697 208.339 41.4427 207.241 41.1386C207.19 41.2057 207.139 41.2748 207.085 41.336C207.53 41.6855 207.928 42.1258 208.424 42.3647C209.709 42.9748 209.896 43.2216 209.782 44.6372C209.697 45.7014 209.934 46.0192 211.034 46.3568C211.713 46.5642 212.386 46.7873 213.063 47.0025L213.229 46.6905C212.986 46.5294 212.763 46.342 212.561 46.1318C212.303 45.7961 212.011 45.4309 211.92 45.036C211.801 44.5306 212.064 44.2344 212.64 44.4733C213.284 44.7398 213.916 45.0459 214.579 45.2532C215.104 45.4171 215.667 45.4506 216.397 45.5829L215.327 43.0735C216.596 43.2038 217.479 42.8287 218.229 42.0271C218.405 41.8296 218.89 41.879 219.216 41.9106C219.712 41.954 220.203 42.0824 220.795 42.1949C220.795 41.3202 220.817 40.5048 220.778 39.6914C220.778 39.5058 220.543 39.3281 220.406 39.1544C220.209 38.9017 219.923 38.6845 219.814 38.4002C219.706 38.1159 219.814 37.7921 219.814 37.4841C220.113 37.473 220.412 37.4869 220.708 37.5255C221.36 37.6472 222.004 37.808 222.637 38.0073C223.032 38.1376 223.675 38.3666 223.697 38.5996C223.739 39.0359 223.454 39.5354 223.206 39.9481C223.133 40.0725 222.728 39.9994 222.483 40.0152C222.819 41.3262 223.565 41.5513 225.346 40.7891C225.284 40.6115 225.233 40.4219 225.148 40.2462C224.87 39.6282 225.069 39.413 225.74 39.2195C227.195 38.7911 228.601 38.1968 230.04 37.7052C230.958 37.3913 231.897 37.1366 232.827 36.8542L233.005 37.1307L232.322 38.5403C232.796 38.4002 233.173 38.3982 233.386 38.2087C234.736 37.024 236.529 37.2215 238.086 36.6864C238.325 36.6055 238.734 36.9806 239.046 37.1741C239.357 37.3676 239.638 37.5867 239.92 37.796C240.037 37.4722 240.165 37.1524 240.266 36.8227C240.333 36.6015 240.36 36.3705 240.418 36.0882C239.737 35.6696 239.036 35.2886 238.404 34.8226C238.157 34.641 238.053 34.2639 237.885 33.9756C238.244 33.8947 238.655 33.6656 238.959 33.7624C240.157 34.1474 241.312 34.6726 242.512 35.0674C243.216 35.2815 243.936 35.4354 244.666 35.5275C246.057 35.7428 247.363 36.3379 248.438 37.2471C248.902 37.6302 249.467 37.8928 250.006 38.2225C250.527 37.0694 249.666 36.643 249.054 36.1928C248.519 35.798 248.282 35.3853 248.353 34.7121C248.372 34.3311 248.285 33.9523 248.101 33.6183C247.583 32.6311 247.627 31.8176 248.644 31.3497C249.869 30.787 250.402 29.7584 250.983 28.7278C251.291 28.1789 251.642 27.938 252.248 28.0821C253.235 28.3191 254.26 28.5027 255.233 28.8087C255.902 29.02 255.957 29.4997 255.49 30.0407C255.051 30.5481 254.641 31.0812 254.197 31.632C255.117 32.5896 255.282 33.6933 255.267 34.874C255.251 35.946 255.132 37.0221 255.73 38.0487C255.904 38.3449 255.677 39.0063 255.444 39.3834C254.578 40.7931 253.366 41.7526 251.648 41.9382C251.589 41.9382 251.541 42.0508 251.285 42.3331C252.7 42.183 253.879 42.0764 255.047 41.9165C255.178 41.8932 255.302 41.8432 255.412 41.7694C255.522 41.6957 255.616 41.5999 255.687 41.4881C256.236 40.418 257.266 39.5769 257.14 38.179C257.067 37.413 257.464 37.105 258.305 37.2294C259.228 37.3656 260.263 37.1425 260.476 38.5028C261.266 37.6499 261.203 37.5156 260.425 36.9036C259.773 36.3903 259.159 36.2402 258.401 36.5462C258.18 36.6277 257.948 36.6789 257.712 36.6983C256.331 36.8523 255.616 36.0033 256.254 34.7851C256.8 33.7466 256.755 32.8759 256.196 31.8867C255.638 30.8976 255.999 30.1375 257.063 29.7801C257.578 29.6083 257.87 29.3852 257.712 28.7574C257.639 28.4711 257.803 28.1256 257.977 27.8018C258.581 28.3329 258.881 28.9311 258.666 29.711C258.634 29.8216 258.547 29.9203 258.524 30.0328C258.415 30.5679 258.054 31.2806 258.271 31.6123C258.753 32.3329 259.935 32.3724 260.794 31.9341C260.415 31.2944 258.954 31.8966 259.195 30.5698C259.298 29.9993 259.578 29.5333 260.156 29.8058C260.474 29.4267 260.687 28.943 261.005 28.8581C261.278 28.785 261.696 29.1365 262.008 29.3596C263.232 30.2401 264.562 30.8364 266.084 30.8996C266.341 30.9094 266.604 30.7238 266.856 30.4297C266.234 30.2322 265.607 30.0545 264.993 29.8374C263.887 29.4425 263.593 28.6231 264.174 27.6142C265.082 26.0347 266.458 25.4918 268.627 25.8156C269.377 25.9261 270.139 25.9538 270.895 26.013C271.178 24.2716 272.561 23.4582 273.647 22.4789C274.066 22.1038 274.932 22.238 275.588 22.1156C277.311 21.7958 279.024 21.4206 280.756 21.1521C281.666 21.01 282.611 21.0909 283.519 20.9823C284.348 20.8633 285.17 20.6998 285.981 20.4927C286.684 20.3328 287.363 20.0504 288.078 19.9734C288.824 19.8905 289.292 19.776 289.25 18.8401C289.234 18.465 289.564 17.853 289.886 17.7266C291.078 17.2733 292.297 16.8954 293.536 16.5953C294.72 16.2932 295.068 17.1185 294.699 17.9616C295.188 18.4769 295.603 18.9487 296.061 19.3693C296.144 19.4331 296.24 19.479 296.342 19.5042C296.443 19.5293 296.549 19.5331 296.653 19.5154C298.476 19.0541 300.372 18.9541 302.234 19.2212C303.236 19.3752 304.68 20.4868 304.715 21.4917C304.715 21.776 304.657 22.0573 304.544 22.3182C304.431 22.579 304.265 22.8138 304.058 23.008C303.237 23.6159 302.349 24.1279 301.412 24.5342C300.088 25.1522 298.702 25.6379 297.375 26.2539C296.673 26.5816 296.041 27.0614 295.378 27.4721L295.506 27.7564C296.469 27.4425 297.435 27.1404 298.394 26.8107C298.751 26.6882 299.077 26.4414 299.44 26.3605C300.19 26.1986 300.933 26.0762 301.061 25.0357L301.314 25.1956L301.116 26.0031C302.66 26.1769 304.21 26.3743 305.767 26.5184C306.754 26.6093 307.795 26.477 308.748 26.706C309.702 26.935 310.58 27.4405 311.439 27.9202C312.645 28.5896 313.819 28.5698 314.913 27.8057C315.393 27.4701 315.667 26.8501 316.086 26.4039C316.175 26.3083 316.283 26.2314 316.403 26.1778C316.522 26.1243 316.652 26.0951 316.783 26.092C318.293 26.2559 319.799 26.4493 321.301 26.6843C321.963 26.785 322.44 27.1641 322.464 27.9084C322.496 28.3786 322.491 28.8507 322.448 29.3201C322.32 30.3645 322.606 31.2806 323.151 32.1572C323.599 32.8798 324.624 33.1207 325.52 32.6607C325.924 32.4633 326.073 31.326 325.826 30.7238C325.482 29.8847 325.17 29.0298 324.872 28.173C324.776 27.8872 324.794 27.5754 324.922 27.3023C325.316 28.4336 325.711 29.5629 326.146 30.7811C326.935 29.8374 326.99 29.8255 327.597 30.637C328.203 31.4484 328.862 31.7071 329.942 31.5175C331.245 31.2885 332.619 31.4089 333.959 31.4583C334.796 31.4899 335.12 31.2372 335.066 30.3606C334.997 29.1937 335.11 29.0081 336.302 28.9173C337.702 28.8107 339.117 28.8995 340.525 28.9173C341.374 28.9331 342.4 29.6616 342.973 28.3112L342.718 29.2984C343.589 29.3655 344.429 29.4504 345.284 29.4958C346.139 29.5412 346.909 29.7386 347.27 30.6547C347.337 30.8535 347.479 31.0185 347.665 31.1148C349.442 31.7071 351.003 32.8917 353.143 32.4731C356.037 31.9203 358.813 32.2895 360.583 35.1385C361.219 36.1612 361.949 35.4643 362.739 35.3162C362.524 34.9371 362.344 34.6272 362.06 34.1316C362.368 34.2698 362.547 34.2915 362.581 34.3725C363.11 35.6637 364.214 35.3596 365.205 35.3083C366.697 35.2293 368.187 35.0655 369.682 35.0201C370.023 35.0102 370.535 35.2432 370.695 35.5196C371.532 36.9707 371.5 36.9865 373.172 36.2402C372.887 35.9181 372.631 35.5712 372.408 35.2037C372.295 34.9845 372.264 34.5936 372.39 34.4139C372.49 34.3187 372.609 34.2468 372.74 34.2035C372.871 34.1601 373.01 34.1463 373.146 34.1632C375.255 34.4712 377.377 34.7259 379.453 35.1839C380.988 35.5311 382.484 36.0263 383.923 36.6627C385.857 37.5117 387.711 38.5443 389.598 39.4999C390.804 40.11 390.812 40.1356 390.439 41.4111C390.41 41.5118 390.439 41.6361 390.625 41.8059C390.772 41.4961 390.887 41.1719 390.968 40.8385C391.055 40.2304 391.422 40.1652 391.849 40.3726C393.27 41.0636 394.681 41.7783 396.071 42.5266C396.308 42.6549 396.425 43.0044 396.596 43.2512C396.357 43.3736 396.126 43.575 395.876 43.6105C394.435 43.8079 393.229 44.2226 392.828 45.883C392.66 46.574 391.995 46.805 391.341 46.4121C390.613 45.9758 389.959 45.4249 389.235 44.9649C388.74 44.6407 388.21 44.3725 387.656 44.1653C386.759 43.8455 385.761 43.7803 385.115 42.9155C384.991 42.7497 384.614 42.7694 384.231 42.6747C384.446 43.2235 384.588 43.6342 384.764 44.031C385.044 44.6589 384.843 44.9531 384.171 45.0459C383.086 45.194 382 45.3894 380.958 45.5612L382.555 47.1407C383.39 47.9679 383.015 48.8979 382.677 49.7528C382.592 49.9719 381.921 50.1812 381.66 50.0687C380.636 49.6303 379.712 49.8712 378.774 50.2661C376.861 51.0558 375.047 51.9976 373.555 53.4843C372.844 54.1931 372.07 54.4577 371.016 53.9424C370.063 53.4744 368.961 53.2099 367.919 53.9048C367.769 54 367.595 54.0506 367.418 54.0509C364.867 54.0371 363.612 55.7765 362.388 57.6778C362.657 57.7622 362.921 57.8644 363.177 57.9839C363.797 58.3294 364.071 58.7993 363.712 59.512C363.161 60.6039 362.498 61.6463 362.573 62.9731C362.589 63.2298 362.048 63.672 361.693 63.7628C360.769 64.0057 360.196 64.444 360.143 65.4588C360.118 65.7508 360.002 66.0273 359.809 66.2486C358.866 67.2831 357.908 68.3039 356.913 69.2871C356.657 69.5398 356.252 69.6464 355.911 69.8083C355.368 70.063 355.028 69.7965 354.924 69.299C354.343 66.4539 354.134 63.5318 354.793 60.7381C354.989 59.8754 355.408 59.0792 356.007 58.4289C356.607 57.7786 357.367 57.297 358.21 57.0322C359.124 56.7341 359.884 55.9068 360.652 55.2553C361.42 54.6038 362.005 53.7548 362.81 53.1901C363.975 52.3727 364.482 51.2809 364.587 49.9344C363.722 49.737 363.173 49.9344 363.191 50.6926C363.215 51.7429 362.599 52.3727 362.007 53.0618C361.566 53.5593 361.146 54.0707 360.718 54.5781L360.408 54.2977C361.256 53.304 362.107 52.3115 362.958 51.3204C362.875 51.2177 362.796 51.123 362.715 51.0104C361.874 52.3273 360.873 53.1013 359.342 52.1161C359.342 52.1398 359.312 52.0805 359.32 52.0292C359.381 51.6916 359.45 51.354 359.517 51.0163C359.188 51.0282 358.858 51.0163 358.53 51.0578C358.135 51.1012 357.727 51.2177 357.322 51.2375C356.501 51.277 355.743 51.3737 355.399 52.2957C355.274 52.5676 355.067 52.7935 354.807 52.9414C354.033 53.3994 353.473 53.8969 353.554 54.9453C353.575 55.2158 352.932 55.7489 352.547 55.7983C351.591 55.9226 350.606 55.8456 349.633 55.8318C349.46 55.8191 349.292 55.7693 349.14 55.6857C347.44 54.8506 346.749 54.8288 344.935 55.5159C344.678 56.1675 344.447 56.7519 344.216 57.3343L343.936 57.2297C344.114 56.744 344.293 56.2583 344.579 55.4784C342.339 55.7647 340.341 55.9937 338.357 56.3017C337.959 56.4056 337.61 56.646 337.37 56.9809C335.791 59.0441 333.829 60.6769 331.805 62.2544C331.401 62.5728 331.041 62.9432 330.733 63.3561C331.918 63.3798 332.366 65.1054 333.908 64.44C334.5 64.1814 335.378 64.3571 336.055 64.5684C337.315 64.9632 337.816 66.0649 337.498 67.3522C337.166 68.7106 336.837 70.0696 336.511 71.4293C336.484 71.6622 336.426 71.8905 336.34 72.1085C334.51 75.4412 332.964 78.9812 329.693 81.2735C329.014 81.7924 328.178 82.0622 327.324 82.0375C325.832 81.9823 324.671 82.8668 324.166 84.2942C323.929 84.9675 323.538 85.4394 322.762 85.5894C322.272 85.6842 321.826 86.0001 321.351 86.2212C322.061 87.5223 322.782 88.6635 323.325 89.8817C324.42 92.3102 322.663 93.785 320.612 93.8581C319.9 93.8818 319.44 93.4494 319.477 92.6971C319.504 91.8781 319.593 91.0623 319.744 90.2568C319.86 89.6862 319.68 89.4868 319.151 89.4493C318.945 89.4402 318.74 89.4171 318.538 89.3802C317.339 89.1255 317.219 88.9439 317.588 87.779C317.764 87.2242 317.835 86.7464 317.108 86.3752C316.329 87.4137 315.105 88.3713 314.86 89.5342C314.544 91.0406 313.502 91.2401 312.548 91.8146C312.171 92.0331 311.889 92.3854 311.759 92.8018C312.29 94.2707 312.852 95.7278 313.338 97.2105C313.656 98.1721 313.831 99.1849 314.127 100.148C314.38 100.974 314.143 101.598 313.614 102.245C312.553 103.518 311.56 104.846 310.639 106.224C309.982 107.236 309.216 108 308.073 108.395C306.296 108.988 304.549 109.708 302.731 110.123C301.47 110.413 300.108 110.36 298.783 110.32C297.458 110.281 297.143 110.368 296.521 111.505C296.197 112.097 295.928 112.731 295.551 113.282C294.995 114.109 295.354 114.721 295.925 115.296C296.155 115.525 296.417 115.72 296.702 115.876C298.676 116.95 299.243 118.753 299.28 120.826C299.306 121.058 299.259 121.293 299.146 121.497C298.301 122.573 297.451 123.645 296.544 124.668C296.063 125.211 295.419 125.608 294.93 126.145C294.156 126.994 293.66 126.948 293.198 125.882C293.025 125.487 292.898 125.061 292.748 124.648C292.269 123.333 291.53 122.279 290.182 121.687C289.629 121.448 289.195 120.952 288.668 120.64C288.417 120.492 287.945 120.35 287.801 120.472C287.59 120.656 287.507 121.065 287.497 121.393C287.479 122.074 287.708 122.798 287.543 123.428C287.148 124.911 287.868 126.192 288.074 127.574C288.099 127.754 288.427 127.904 288.632 128.04C289.848 128.842 291.068 129.634 292.344 130.465C291.635 131.296 291.89 131.936 292.231 132.575C292.48 132.974 292.698 133.391 292.882 133.823C292.991 134.143 292.936 134.52 292.954 134.87C292.423 134.87 291.674 135.099 291.4 134.836C290.312 133.767 289.304 132.619 288.384 131.403C288.05 130.972 288.052 130.299 287.809 129.78C287.523 129.162 287.252 128.461 286.769 128.022C285.766 127.11 285.507 126.417 285.953 125.158C286.09 124.68 286.195 124.194 286.267 123.703C286.423 122.984 286.123 122.147 286.85 121.566C286.921 121.509 286.822 121.195 286.753 121.019C286.542 120.472 286.198 119.953 286.104 119.391C285.878 118.042 284.809 117.363 284.031 116.384C283.466 116.909 282.988 117.387 282.475 117.821C281.962 118.255 281.63 118.174 281.37 117.495C280.937 116.358 280.631 115.225 280.736 113.991C280.769 113.642 280.666 113.294 280.45 113.019C278.888 111.44 277.121 110.127 274.873 109.819C274.312 109.742 273.576 110.275 273.057 110.697C271.513 111.957 270.009 113.264 268.544 114.618C267.123 115.929 265.757 117.304 264.399 118.69C264.231 118.861 264.201 119.312 264.294 119.572C264.983 121.657 264.399 123.395 262.867 124.848C262.185 125.49 261.449 126.073 260.668 126.589C260.04 127.008 259.602 126.733 259.327 126.028C258.992 125.164 258.557 124.34 258.174 123.493C258.007 123.122 257.849 122.745 257.706 122.362C257.243 121.1 256.81 119.829 256.325 118.573C255.338 116.006 254.27 113.44 255.426 110.401C254.917 110.569 254.589 110.729 254.242 110.778C253.428 110.923 252.603 111.002 251.776 111.015C251.314 111.015 251.101 110.62 251.35 110.111C251.529 109.683 251.686 109.246 251.82 108.802C251.261 108.656 250.635 108.273 250.156 108.407C248.912 108.766 248.677 107.951 248.351 107.153C248.272 106.956 248.233 106.759 248.154 106.561C247.854 105.76 247.167 105.349 246.338 105.574C244.247 106.119 242.174 106.206 240.066 105.633C239.432 105.461 238.72 105.529 238.047 105.566C237.283 105.607 236.835 105.339 236.612 104.579C236.339 103.645 235.952 103.394 235.149 103.852C233.398 104.839 231.939 103.949 230.514 103.203C230.018 102.942 229.799 102.141 229.489 101.566C229.4 101.4 229.505 101.059 229.396 100.986C228.579 100.441 228.099 99.4416 226.885 99.406C225.867 99.3823 225.286 99.8009 224.815 100.733C225.884 100.808 226.173 101.629 226.55 102.427C226.719 102.788 227.12 103.049 227.444 103.323C227.866 103.682 228.334 103.989 228.741 104.366C228.889 104.502 229.035 104.824 228.974 104.974C228.553 105.992 229.134 106.51 229.884 106.976C230.158 107.146 230.413 107.347 230.577 107.465C231.017 107.345 231.384 107.147 231.74 107.169C232.727 107.224 233.441 106.843 234.031 106.093C234.415 105.607 234.828 105.146 235.269 104.711C235.441 104.568 235.66 104.493 235.883 104.502C235.956 104.502 236.1 104.849 236.081 105.017C235.899 106.202 236.59 106.687 237.545 107.102C238.29 107.453 238.999 107.874 239.663 108.36C240.315 108.808 239.965 109.388 239.579 109.698C238.716 110.393 238.455 111.29 238.321 112.316C238.282 112.628 237.966 112.95 237.701 113.181C236.54 114.192 235.362 115.179 234.166 116.143C233.875 116.368 233.548 116.541 233.198 116.654C232.444 116.911 231.73 116.99 230.991 117.584C229.671 118.648 228.03 119.361 226.433 120.014C224.976 120.607 223.407 120.925 221.881 121.337C221.536 121.417 221.182 121.445 220.829 121.42C219.532 121.363 219.052 120.859 219.224 119.572C219.453 117.878 219.289 116.362 218.097 114.984C217.23 113.983 216.776 112.686 215.596 111.858C214.982 111.43 214.693 110.516 214.303 109.797C213.736 108.749 213.211 107.675 212.662 106.614C212.609 106.512 212.492 106.435 212.465 106.328C211.959 104.749 210.966 103.438 210.139 102.034C209.969 101.748 210.163 101.226 210.244 100.826C210.345 100.332 210.603 99.8542 210.613 99.3646C210.637 98.1898 210.499 97.0111 210.542 95.8364C210.59 95.3257 210.773 94.837 211.073 94.4208C211.22 94.2285 211.319 94.0039 211.363 93.7657C211.406 93.5274 211.392 93.2823 211.322 93.0505C211.166 92.3812 211.286 91.6468 211.286 90.784C210.828 90.476 210.167 90.4128 209.389 90.5727C208.455 90.7702 207.486 90.78 206.531 90.863C206.333 90.8807 206.096 90.8077 205.915 90.8748C204.497 91.398 203.279 90.9419 201.99 90.318C201.003 89.8363 200.214 89.2815 199.874 88.2311C199.517 87.0899 199.242 85.9211 198.954 84.8451C198.022 84.9872 196.98 85.0208 196.062 85.3604C195.75 85.4729 195.612 86.3476 195.594 86.8905C195.578 87.3288 195.837 87.7849 196.015 88.2173C196.524 89.4572 195.65 90.1917 194.986 90.9814C194.921 91.0584 194.376 90.9321 194.333 90.8057C193.81 89.2459 192.659 88.16 191.68 86.9103C190.864 85.8718 190.357 84.5015 190.641 83.0484C190.772 82.385 190.316 82.0909 189.838 81.9823C188.426 81.6604 187.493 80.7582 186.571 79.7196C185.917 78.9832 185.047 78.4304 184.239 77.842C183.772 77.5005 183.45 77.8558 183.45 78.2685C183.45 78.8391 183.45 79.5281 183.75 79.9605C184.997 81.7769 186.267 83.6151 188.488 84.4265C189.094 84.6477 189.706 84.855 190.302 85.1018C190.528 85.2365 190.739 85.3961 190.93 85.5776C189.988 86.235 189.171 85.7197 188.363 85.5776C188.241 86.2252 188.166 86.8846 187.986 87.5105C187.807 88.1364 187.659 88.778 186.9 89.0781C186.642 89.1808 186.506 89.6823 186.385 90.0258C186.245 90.4652 186.127 90.9113 186.032 91.3625C185.659 90.9439 185.487 90.6616 185.242 90.4918C184.749 90.1542 184.2 89.8995 183.702 89.5717C183.404 89.3743 182.986 89.1393 182.931 88.859C182.82 88.3042 183.233 87.9962 183.787 87.9942C184.342 87.9922 184.845 88.0574 185.367 88.0732C185.888 88.089 186.407 88.0732 186.93 88.0732C186.831 85.8007 185.313 84.7405 183.643 83.9586C182.309 83.3327 181.18 82.7167 180.702 81.1748C180.347 80.0217 178.556 79.615 177.561 80.3179C177.176 80.5884 176.829 80.9378 176.406 81.1254C175.49 81.5341 174.578 81.8816 173.611 81.0938C172.916 80.5291 171.746 81.1175 171.747 82.0336C171.747 82.9833 171.262 83.4729 170.533 83.9053C169.972 84.2294 169.444 84.6062 168.954 85.0307C168.471 85.4631 168.137 85.9527 168.319 86.7267C168.546 87.7138 168.249 88.5944 167.331 89.1709C166.806 89.4987 166.331 89.9508 165.764 90.1581C165.073 90.4049 164.287 90.628 163.593 90.5332C162.898 90.4385 162.467 90.5431 162.183 91.1788C162.131 91.2844 162.069 91.3849 161.998 91.479C161.192 92.6912 161.305 92.9518 162.73 93.1927C163.281 93.2855 163.831 93.4573 164.382 93.4533C164.866 93.4642 165.344 93.3419 165.764 93.0999C167.525 91.9153 169.304 90.9854 171.54 90.9834C173.83 90.9834 176.118 90.6517 178.41 90.5234C179.744 90.4483 179.812 90.5668 179.81 91.8758C179.807 92.1117 179.828 92.3473 179.875 92.5787C180.072 93.552 180.283 94.5214 180.489 95.4928L180.264 95.5284C180.727 95.8658 181.208 96.1788 181.705 96.4662C181.938 96.5886 182.261 96.5629 182.544 96.561C183.248 96.561 183.957 96.4761 184.658 96.5294C185.54 96.5945 186.221 96.9815 186.448 97.9489C186.508 98.1977 186.77 98.5867 186.942 98.5867C188.219 98.5867 188.959 99.4475 189.757 100.233C189.818 100.283 189.884 100.327 189.954 100.362C190.391 100.01 190.858 99.712 191.214 99.3112C191.314 99.1851 191.388 99.0404 191.431 98.8855C191.475 98.7307 191.488 98.5687 191.468 98.409C191.271 97.2421 191.555 96.8473 192.742 96.7288C193.875 96.6143 194.937 96.6656 195.956 97.3349C196.492 97.6903 197.219 97.7555 197.857 97.9588C198.646 98.2056 199.4 98.5235 200.198 98.6953C200.857 98.8374 201.647 99.0447 202.215 98.8177C203.962 98.1148 205.66 98.332 207.395 98.7229C209.207 99.1316 209.962 100.956 208.669 102.735C208.509 102.954 208.128 103.013 207.948 103.1C208.769 105.177 209.592 107.276 210.433 109.367C210.558 109.697 210.74 110.003 210.97 110.271C212.022 111.4 212.68 112.841 212.844 114.376C212.883 114.703 213.094 115.017 213.258 115.321C213.489 115.756 213.866 116.149 213.973 116.609C214.224 117.689 214.889 118.399 215.696 119.086C216.725 119.961 217.67 120.927 218.657 121.868C218.801 122.015 218.902 122.197 218.951 122.396C219.303 123.797 219.909 124.427 221.344 124.259C223.437 124.014 225.501 123.523 227.578 123.13C227.922 123.065 228.259 122.962 228.782 122.832C228.103 125.329 227.894 127.851 226.431 129.971C224.668 132.526 222.754 134.925 220.154 136.733C219.299 137.326 218.707 138.313 218.024 139.144C217.145 140.212 216.31 141.316 215.43 142.378C215.266 142.557 215.145 142.772 215.076 143.005C215.008 143.239 214.994 143.485 215.035 143.725C215.262 145.622 215.347 147.537 215.566 149.436C215.665 150.297 215.941 151.136 216.158 151.981C216.912 154.969 215.763 157.186 213.394 158.947C212.169 159.857 210.986 160.83 209.81 161.806C209.529 162.039 209.35 162.398 209.111 162.712C210.378 163.897 209.914 165.137 209.618 166.507C209.279 168.068 208.236 168.728 206.88 169.271C207.064 169.597 207.275 169.808 207.293 170.039C207.342 170.529 207.49 171.162 207.255 171.504C206.013 173.316 204.758 175.131 203.335 176.799C201.408 179.06 198.838 180.132 195.881 180.335C194.443 180.434 193 180.56 191.577 180.777C190.059 181.01 188.829 180.306 188.813 178.762C188.774 176.55 187.582 174.904 186.583 173.111C185.323 170.846 184.277 168.501 184.117 165.828C184.062 164.904 183.525 164.009 183.207 163.105C183.135 162.88 183.03 162.668 182.897 162.473C180.953 159.847 180.947 157.024 182.074 154.108C182.346 153.427 182.687 152.775 183.09 152.163C183.485 151.571 183.519 151.032 183.325 150.339C183.035 149.304 182.946 148.216 182.733 147.158C182.61 146.501 182.429 145.856 182.192 145.231C182.084 144.998 181.721 144.848 181.557 144.724Z" fill="white"/>
<path d="M140.974 3.13208L139.44 4.06793L142.044 5.22688L139.487 8.44114L139.72 8.68991C140.972 7.85871 142.204 6.99591 143.487 6.21999C143.88 6.0143 144.331 5.94487 144.768 6.02255C145.526 6.15088 146.209 6.31673 146.693 5.47368C146.793 5.29796 147.137 5.17555 147.37 5.17555C148.925 5.17555 150.485 5.17555 152.036 5.26242C152.356 5.28216 152.842 5.65729 152.903 5.9337C152.964 6.21011 152.672 6.74319 152.388 6.90114C151.367 7.46778 150.283 7.91991 149.229 8.43127C148.981 8.55171 148.613 8.69979 148.558 8.90315C148.215 10.1845 147.117 10.5478 146.106 11.0157C145.858 11.1099 145.599 11.169 145.334 11.1914C144.687 11.3 144.347 11.5014 144.59 12.305C144.687 12.6149 144.393 13.2922 144.077 13.4442C143.039 13.999 142.65 14.9467 142.184 16.0109C142.541 16.0286 142.82 16.0661 143.096 16.0543C143.753 16.0227 144.223 16.1491 144.355 16.9447C144.401 17.2132 144.835 17.4502 145.133 17.6377C145.544 17.8964 146.335 18.0701 146.355 18.3228C146.393 18.8421 146.023 19.3929 145.832 19.9023C145.105 19.4581 144.608 19.0514 144.036 18.846C143.737 18.7374 143.048 18.9112 142.997 19.0869C142.896 19.4482 143.029 19.9398 143.216 20.2992C143.347 20.5479 143.716 20.694 143.994 20.8441C144.884 21.3555 145.068 21.7464 144.742 22.7336C144.413 23.8299 144.017 24.9052 143.558 25.9537C143.37 26.3486 142.837 26.6191 142.425 26.8876C141.921 27.2154 140.915 27.1937 141.59 28.246C141.603 28.3002 141.603 28.3568 141.59 28.4111C141.577 28.4654 141.551 28.5158 141.515 28.5579C140.802 29.2904 140.946 30.1947 140.946 31.093C140.946 31.9321 140.403 32.4099 139.651 32.6626C139.4 32.7475 139.059 32.7001 138.893 32.8601C138.675 33.0914 138.532 33.3832 138.482 33.6972C138.469 33.7683 138.907 34.017 139.144 34.0289C140.026 34.0684 140.909 34.0447 141.791 34.0447C141.815 34.1572 141.84 34.2678 141.864 34.3803C141.609 34.5185 141.363 34.6706 141.1 34.789C140.352 35.1306 139.505 35.3359 138.861 35.8137C136.24 37.7565 133.235 38.4219 130.077 38.643C129.374 38.6923 128.877 38.8404 128.448 39.5532C127.817 40.5937 126.962 41.5078 126.139 42.416C125.205 43.4446 123.817 43.259 122.629 43.6125C121.821 43.8462 121.03 44.1331 120.26 44.4713C119.589 44.7734 119.273 45.3361 119.373 46.1219C119.571 47.6856 118.584 48.655 117.536 49.5434C117.117 49.8969 116.795 50.1476 117.078 50.7695C117.646 52.0173 117.567 52.6136 116.88 53.2552C116.059 54.0114 114.553 54.3115 113.678 53.662C112.656 52.9058 111.523 52.809 110.362 52.6333C110.017 52.5484 109.716 52.3371 109.519 52.041C108.137 49.9324 106.899 47.6974 105.36 45.7112C104.463 44.5562 103.96 43.2511 103.49 41.9836C103.16 41.0892 103.571 39.8789 103.804 38.8444C103.867 38.5601 104.463 38.331 104.856 38.2027C105.294 38.0605 105.78 38.0645 106.372 37.9875C106.321 37.0299 106.274 36.1119 106.216 35.0595C105.436 35.5097 104.844 36.1079 104.228 36.1336C103.573 36.1592 102.896 35.6419 102.227 35.3616L102.104 35.0536L102.541 34.8443C102.377 34.4494 102.071 34.0743 102.156 33.8413C102.319 33.3912 102.677 32.9312 103.303 33.2253C104.449 33.7663 105.322 33.1069 106.264 32.633L104.199 30.7909C103.409 31.1582 102.77 31.6419 102.094 31.7169C100.849 31.8551 100.3 31.1068 100.797 29.9617C101.658 27.9873 101.08 26.4375 99.6446 25.0258C99.2795 24.6816 98.9615 24.2906 98.699 23.8629C97.1947 21.312 94.7943 20.6289 92.0997 20.8816C89.2925 21.1442 86.6611 20.4492 84.0217 19.7464C83.6092 19.6358 83.2617 19.0079 83.0584 18.544C82.9972 18.4038 83.5144 18.003 83.775 17.7305C83.8717 17.6279 83.9882 17.5449 84.2192 17.3514C82.9123 16.7591 81.3844 16.927 80.3618 15.7206C80.8652 15.3573 81.3094 14.8736 81.8582 14.6722C83.6092 14.0286 85.2555 13.0789 87.2099 12.9921C88.0449 12.9545 88.8622 12.4985 89.6656 12.2398C89.3024 10.9762 88.7575 10.2437 87.429 10.5399C87.2217 10.5873 86.9177 10.2062 86.6591 10.0226C86.8763 9.82517 87.0539 9.56456 87.3106 9.45399C89.6459 8.44509 92.0029 7.47963 94.3244 6.44901C94.6857 6.28711 94.887 5.78957 95.2009 5.4875C95.4181 5.27624 95.6826 5.02352 95.959 4.97219C98.4404 4.50821 100.924 4.06003 103.419 3.67898C103.798 3.61975 104.236 3.90801 104.639 4.05806C105.373 4.33447 106.102 4.62865 106.964 4.96626C106.656 4.28906 106.467 3.86654 106.275 3.44403C106.743 3.34334 107.235 3.09457 107.671 3.16762C108.816 3.36506 109.941 3.68293 111.067 3.97711C111.424 4.0699 111.763 4.23378 112.271 4.42529L111.007 3.0077L112.174 2.73128C111.927 2.33641 111.704 1.98695 111.325 1.39069C114.576 1.39069 117.618 1.42623 120.659 1.36305C121.349 1.34923 122.072 1.08269 122.708 0.780614C123.785 0.265305 124.824 -0.064414 126.075 0.0106118C128.395 0.152766 130.726 0.10933 133.052 0.0560222C133.926 0.0362785 134.682 0.105381 135.488 0.541716C136.927 1.33146 138.465 1.92377 139.957 2.59505C140.212 2.72536 140.482 2.87739 140.974 3.13208Z" fill="white"/>
<path d="M63.4423 17.7167C62.9606 17.4403 62.546 17.1995 62.1374 16.9625C62.6428 15.9754 63.7798 16.0208 65.3532 16.5795L65.6651 15.9477C64.8596 15.8312 64.1134 15.7503 63.385 15.6042C62.7671 15.4719 62.7395 15.1086 63.1323 14.6525C63.4363 14.2991 63.7127 13.922 64.0009 13.5548L63.8035 13.3356C63.2488 13.8253 62.6447 14.2695 62.1473 14.8105C61.2392 15.7977 59.2829 16.1274 58.1142 15.4778C57.6062 15.185 57.0592 14.9656 56.4896 14.8263C55.8105 14.6723 55.238 14.4136 55.319 13.6634C55.3624 13.2507 55.7631 12.8736 56.0869 12.3425C55.6111 12.5261 55.1531 12.7374 54.6774 12.8717C54.4189 12.9492 54.1425 12.943 53.8878 12.8539C52.9639 12.4709 52.6757 11.5488 52.2434 10.763C52.2165 10.6821 52.209 10.5961 52.2213 10.5118C52.2337 10.4274 52.2656 10.3472 52.3144 10.2773C53.0883 9.32965 53.7733 8.26547 54.703 7.51323C55.7394 6.66426 57.0285 6.95252 58.1083 7.7857C58.8837 8.39774 59.7318 8.91168 60.6332 9.31583C61.6636 9.75809 62.854 9.84101 63.4541 11.0237C63.5824 11.2764 64.0009 11.383 64.2852 11.5567L64.4569 11.4067C64.3168 11.0473 64.1766 10.688 63.9457 10.0997C64.8281 9.96539 65.6611 9.82521 66.4981 9.7186C66.7621 9.68678 67.0298 9.7035 67.2878 9.76796C68.3755 10.0463 69.3684 9.84496 70.3792 9.1559C68.8512 9.38098 67.418 8.60703 65.9533 9.26844C65.4795 9.48365 64.9406 9.3948 64.5418 8.85975C64.3839 8.64652 63.9496 8.5636 63.6298 8.55965C62.5756 8.5478 61.4998 8.71957 60.5917 7.96734C60.5048 7.89429 60.3114 7.88639 60.2877 7.80939C59.9028 6.64452 58.7933 6.7689 57.9188 6.45892C57.7494 6.36683 57.5945 6.25043 57.4589 6.11341C57.599 5.94362 57.7036 5.71854 57.8813 5.61587C58.8407 5.09859 59.804 4.64646 60.9668 4.72938C62.5006 4.83797 63.9812 4.69779 65.3927 3.87646C65.9592 3.54871 66.8238 3.67902 67.5523 3.69679C68.6086 3.73899 69.6541 3.46986 70.5588 2.92284C71.163 2.55975 71.8338 2.32164 72.5317 2.22261C73.2295 2.12358 73.9401 2.16565 74.6214 2.34632C74.8386 2.40161 75.1544 2.42135 75.3143 2.30486C76.4119 1.51512 77.5214 1.31768 78.7216 2.06991C79.1559 2.34632 79.5448 2.34435 79.9929 1.96922C80.3208 1.72583 80.722 1.60183 81.13 1.61778C82.2374 1.66912 83.3389 1.83299 84.4444 1.92381C85.084 1.97712 85.7295 1.98107 86.3711 1.99686C86.7955 2.00673 87.2219 1.99686 87.8971 1.99686L87.1765 2.76686C87.8181 2.64445 88.4281 2.56943 89.0144 2.40753C90.9332 1.88432 92.3703 3.24466 94.0167 3.71258C94.676 3.90015 94.6346 4.63066 93.9298 4.83402C92.1907 5.33354 90.4219 5.72841 88.6492 6.12328C87.9109 6.28123 87.1351 6.27136 86.3751 6.42733C87.8536 7.03544 89.352 6.4609 91.0556 6.28913C90.8128 6.57541 90.7496 6.71559 90.643 6.76495C89.0638 7.49941 87.4845 8.20821 85.9191 8.9486C85.3722 9.20724 84.8728 9.5725 84.3201 9.81337C83.7673 10.0542 83.1198 10.23 82.4546 10.4531L83.183 10.7314C82.0736 11.5014 81.0609 12.1135 79.7185 11.9161C79.1717 11.843 78.5933 12.0385 78.0287 12.0839C77.5628 12.1234 77.093 12.1352 76.6251 12.1313C75.7703 12.1313 75.3775 12.3544 74.9748 13.1698C75.567 12.9013 76.1316 12.5044 76.7337 12.4176C77.3792 12.3248 78.0662 12.5242 78.7394 12.5952C78.842 13.7799 78.234 14.4255 76.5363 14.8302C76.6567 15.0829 76.7732 15.3218 77.0022 15.7996L74.2227 16.8224C74.5879 17.4857 74.5879 17.4857 73.0955 18.0899L74.6451 18.7928C73.8555 19.8451 72.7638 20.1511 71.6682 20.4039C71.1194 20.5302 70.5233 20.6408 70.0179 20.1176C69.8679 19.9636 69.4652 20.0031 69.1888 20.0327C67.4635 20.2183 65.744 20.4967 64.0167 20.5934C63.2922 20.6329 62.5539 20.2281 61.8117 20.1689C61.1997 20.1235 60.572 20.2893 59.9008 20.3663C60.3963 21.4779 61.1109 21.8827 62.1414 21.7879C62.4829 21.7583 62.8343 21.8609 63.1817 21.8688C64.1075 21.8906 65.0393 21.9636 65.9572 21.8807C66.9216 21.7719 67.8783 21.6031 68.8216 21.3752C69.9903 21.1205 70.9576 21.7287 71.9249 22.165C72.1598 22.2716 72.1894 23.1522 72.0926 23.6181C71.834 24.8896 71.7867 24.856 70.4226 24.9251C69.5461 24.9686 68.6676 25.1759 67.9116 24.4849C67.8129 24.394 67.5167 24.5165 67.3193 24.5362C65.9158 24.6626 64.5122 24.8245 63.1067 24.8916C62.7336 24.9094 62.3506 24.6211 61.9657 24.4967C61.8101 24.4274 61.6366 24.4094 61.4702 24.4454C60.1633 24.9982 58.9986 24.3802 57.7984 24.0347C57.1825 23.859 57.22 23.3674 57.2634 22.8896C57.4016 21.3259 56.2172 20.1808 54.6557 20.3051C54.0136 20.3216 53.3714 20.2799 52.7369 20.1808C51.9216 20.0959 51.7656 19.391 51.5978 18.7987C51.5505 18.6329 51.8466 18.2064 52.042 18.1728C52.4627 18.0642 52.9056 18.0772 53.3192 18.2103C56.0375 19.3574 58.7696 19.1561 61.5235 18.394C62.0624 18.2459 62.6053 18.1136 63.1422 17.9635C63.2192 17.9359 63.2784 17.853 63.4423 17.7167Z" fill="white"/>
<path d="M190.399 12.0463C190.638 12.2438 190.847 12.5202 191.119 12.611C191.869 12.8637 192.643 13.0414 193.409 13.2408C194.061 13.4086 194.507 13.689 194.809 14.4017C195.04 14.9447 195.737 15.2942 196.24 15.7107C196.607 16.0168 197 16.3031 197.381 16.5834C196.972 16.8736 196.591 17.3396 196.149 17.4186C195.225 17.5768 194.285 17.6218 193.35 17.5528C192.699 17.5094 192.708 16.9072 192.91 16.4531C193.318 15.5232 193.123 14.8736 192.191 14.4491C190.274 15.2389 189.599 17.0415 188.741 18.6901C188.458 19.233 188.221 19.7997 187.876 20.546C187.572 20.1057 187.406 19.9359 187.323 19.7325C186.986 18.9211 186.305 18.5696 185.547 18.2675C184.674 17.924 184.619 17.6752 185.118 16.9329C184.145 16.157 183.237 15.2961 181.938 15.0355C181.77 14.9872 181.616 14.901 181.487 14.7836C181.358 14.6661 181.258 14.5206 181.194 14.3583C180.956 13.374 180.787 12.3746 180.686 11.3671C180.673 11.2309 181.113 10.9288 181.361 10.9051C182.004 10.821 182.655 10.831 183.294 10.9348C183.663 11.0078 183.965 11.4066 184.348 11.6988C185.44 11.073 185.44 11.073 186.099 11.304L186.265 12.5024L186.486 12.5143C186.539 12.3425 186.666 12.1589 186.636 12.0049C186.488 11.227 186.919 10.8657 187.554 10.6228C188.638 10.2121 189.7 9.73237 190.809 9.41253C191.402 9.24273 192.063 9.28814 192.685 9.34343C194.067 9.46978 195.46 9.6534 196.844 9.83109C198.297 10.0187 199.746 10.226 201.187 10.4352C201.309 10.453 201.418 10.5754 201.525 10.6445C200.082 11.3217 198.729 12.2418 197.245 12.5676C195.903 12.8637 194.41 12.5814 193.001 12.4116C192.185 12.3148 191.406 11.9338 190.61 11.6811L190.399 12.0463ZM187.005 14.8993C187.017 14.842 187.031 14.7848 187.043 14.7275C186.589 14.6485 186.131 14.5064 185.681 14.5301C185.55 14.5301 185.442 15.0079 185.286 15.3198L187.005 14.8993Z" fill="white"/>
<path d="M237.076 33.1029C236.608 33.2885 236.286 33.5195 235.978 33.5175C235.095 33.5093 234.214 33.4486 233.339 33.3358C232.123 33.1818 232.091 33.1147 232.071 31.7958C231.582 31.7425 231.084 31.6695 230.563 31.632C229.649 31.5668 229.517 31.4069 229.704 30.552C229.866 29.8254 230.077 29.2923 230.899 28.8935C231.574 28.5697 231.939 27.6082 232.504 26.8461C231.682 26.1985 232.306 25.8372 232.898 25.3258C233.595 24.7089 234.217 24.0117 234.75 23.2488C235.141 22.6316 235.736 22.1711 236.432 21.9477C237.714 21.5271 238.967 21.0219 240.183 20.4353C241.266 19.92 242.334 19.4857 243.558 19.6101C244.922 19.7483 246.17 19.3396 247.4 18.8065C247.909 18.576 248.444 18.4089 248.993 18.309C249.67 18.2043 250.302 18.3741 250.556 19.1263C250.801 19.8411 250.359 20.2952 249.804 20.5301C248.507 21.0711 247.204 21.6496 245.856 21.9852C243.945 22.4571 242.178 23.0553 240.424 24.0721C238.756 25.0315 237.232 26.2205 235.895 27.6043C234.442 29.0989 234.069 31.6162 236.657 32.7179C236.808 32.8336 236.948 32.9625 237.076 33.1029Z" fill="white"/>
<path d="M36.8929 21.2429C36.4981 21.0968 36.1368 21.0258 35.8467 20.8481C35.5565 20.6704 35.1636 20.3723 35.1794 20.1491C35.211 19.6496 35.363 19.162 36.1467 19.2133C36.8159 19.2646 37.5049 19.0554 38.3182 18.9408C38.2373 19.3357 38.1761 19.5331 38.1484 19.7582C38.0181 20.8481 38.7031 21.4838 39.7533 21.2745C40.0955 21.1835 40.4501 21.1481 40.8036 21.1699C41.1668 21.2193 41.7906 21.3831 41.8103 21.5411C41.8617 22.0959 42.063 22.8145 41.1885 23.0534C40.8207 23.1615 40.4728 23.3282 40.158 23.547C39.5342 23.9676 38.9736 24.0465 38.1938 23.7938C37.3075 23.5036 36.3619 23.4621 35.4301 24.0821C34.1904 24.9093 32.6664 24.8067 31.2431 24.8856C30.6509 24.9172 30.341 24.0959 30.5186 23.1285C29.9007 23.1837 29.2987 23.243 28.6966 23.2864C28.4338 23.3089 28.1697 23.3089 27.9069 23.2864C26.7442 23.1758 26.5113 22.5302 27.4055 21.2765C27.0107 21.4739 26.8133 21.6122 26.5883 21.6497C26.1097 21.7322 25.6264 21.7843 25.1413 21.8056C24.6319 21.8274 24.1226 21.8056 23.6133 21.7859C23.3646 21.774 22.9461 21.7859 22.8987 21.6635C22.5868 20.8856 22.0104 21.1916 21.4853 21.235C21.0332 21.2726 20.443 21.4601 20.3581 20.777C20.289 20.2281 20.6009 19.8431 21.2267 19.7898C22.4427 19.6753 23.2916 18.8757 24.2194 18.1985C24.6401 17.921 25.119 17.744 25.619 17.6812C26.3178 17.5706 27.0364 17.8095 27.6839 17.2054C28.1261 16.7908 28.9907 17.3811 28.9946 18.0208C28.9946 19.2212 28.5228 19.9497 27.5733 19.9636C27.1331 19.9636 26.6889 19.6595 26.0888 19.4344L25.2992 20.6566L25.4966 20.7948C26.9475 20.4887 28.3886 20.005 29.8514 19.928C31.4899 19.8411 33.1303 20.2222 34.4174 21.393C35.0945 22.0287 36.0816 22.0347 36.8929 21.2429Z" fill="white"/>
<path d="M16.4927 30.1809C17.1481 29.2826 17.7502 28.5224 18.2693 27.7149C18.7688 26.9509 18.9228 26.167 18.2417 25.3615C18.0542 25.1404 18.0443 24.708 18.0877 24.396C18.1055 24.2973 18.603 24.2144 18.8774 24.2341C20.1664 24.319 21.4575 24.4059 22.7367 24.5717C23.242 24.6369 23.7119 24.941 24.2133 25.0752C24.5607 25.166 24.9753 25.2726 25.2891 25.1641C26.8565 24.6349 27.9502 25.5589 29.0241 26.3882C29.5847 26.8245 29.3755 27.2904 28.6865 27.4899C27.8416 27.7367 26.9612 27.9282 26.1814 28.3132C24.9674 28.9153 23.8619 29.6755 23.1473 30.9233C22.9045 31.3497 22.328 31.6005 21.8799 31.8947C20.5178 32.789 19.4913 32.5028 18.6266 31.1049C18.3878 30.7199 17.6909 30.6094 17.1935 30.3981C16.9646 30.3112 16.7306 30.2387 16.4927 30.1809Z" fill="white"/>
<path d="M142.484 43.5098C142.784 43.4506 143.151 43.4901 143.274 43.3361C143.83 42.6253 144.59 42.8642 145.297 42.7655C146.098 42.6787 146.885 42.4868 147.636 42.1949C148.833 41.6836 149.67 41.6026 150.57 43.2078C150.767 43.577 151.162 43.8475 151.47 44.1555C151.778 44.4635 152.1 44.7478 152.498 45.1308C150.165 46.0982 147.958 47.0321 145.729 47.9166C145.309 48.0508 144.865 48.0886 144.428 48.0272C143.151 47.9127 141.876 47.7567 140.605 47.5869C140.314 47.5474 140.042 47.3895 139.552 47.2058L141.823 46.4793C141.823 46.4043 141.823 46.3292 141.823 46.2522L138.913 45.4941L140.624 44.1634C140.603 44.1002 140.583 44.037 140.559 43.9659C140.224 43.9659 139.87 44.0271 139.554 43.9481C139.286 43.879 138.899 43.6836 138.856 43.4782C138.834 43.3205 138.849 43.1599 138.899 43.0087C138.949 42.8575 139.033 42.7197 139.144 42.6056C140.18 41.723 141.88 42.1594 142.484 43.5098Z" fill="white"/>
<path d="M287.813 10.7867C287.72 12.0207 287.641 13.1441 287.545 14.2635C287.501 14.7749 287.217 14.9684 286.698 14.8677C284.69 14.4847 282.079 13.4975 280.483 12.3622C280.146 12.1213 280.049 11.5409 279.8 11.0295C279.571 11.0473 279.208 11.0967 278.829 11.1045C278.474 11.1112 278.129 10.9818 277.866 10.7429C277.603 10.504 277.441 10.1736 277.414 9.81924C277.341 9.0749 277.943 9.00975 278.424 8.81824C279.104 8.54972 279.818 8.33847 280.446 7.97716C281.782 7.20913 283.176 7.38485 284.576 7.61387C285 7.68298 285.257 8.65831 285.01 9.12031C284.913 9.29998 284.761 9.45003 284.667 9.63365C284.363 10.226 284.469 10.5991 285.213 10.6208C285.742 10.6327 286.273 10.6208 286.793 10.6485C287.17 10.6643 287.533 10.7432 287.813 10.7867Z" fill="white"/>
<path d="M43.0616 22.4255L44.0486 21.8707C43.7486 21.4758 43.4998 21.1244 43.2333 20.7967C43.1228 20.6624 42.9076 20.5992 42.8385 20.4452C42.653 20.0128 42.5187 19.5587 42.3647 19.1145C42.7951 19.2507 43.2353 19.3613 43.6499 19.535C44.1927 19.7621 44.704 20.0681 45.2508 20.2794C45.3519 20.2954 45.4552 20.2871 45.5524 20.2551C45.6495 20.2232 45.7377 20.1686 45.8095 20.0958C47.0927 18.5558 48.6048 19.7009 50.0064 19.7621C50.2295 19.7621 50.496 20.2873 50.6203 20.615C50.7447 20.9428 50.6953 21.3021 50.7328 21.7779C51.3981 21.7779 52.0318 21.7779 52.6655 21.7779C53.3722 21.7779 54.0907 21.7147 54.7817 21.8253C55.2258 21.8944 55.8832 22.1471 55.9839 22.463C56.1181 22.8816 55.9148 23.7957 55.6522 23.8806C54.6021 24.2086 53.5139 24.3991 52.4148 24.4473C52.2746 24.4473 52.0792 23.4996 52.0042 22.8875C51.4712 22.6703 50.8473 22.5065 50.2828 23.1304C49.5879 23.9004 48.1211 24.0188 47.2762 23.3929C47.1736 23.3159 47.0453 23.1462 47.065 23.0455C47.298 21.849 46.382 22.236 45.9003 22.2834C45.4186 22.3307 44.9666 22.619 44.5323 22.8579C43.9401 23.1935 43.4919 23.081 43.0616 22.4255Z" fill="white"/>
<path d="M50.6995 27.9736C50.8131 28.0467 50.9311 28.1126 51.0529 28.171C52.3617 28.6488 52.6321 29.2688 52.0892 30.5758C51.8681 31.1049 49.1676 31.869 48.7333 31.5077C48.609 31.403 48.5793 31.1878 48.4609 31.0674C48.2141 30.8167 47.9733 30.5146 47.6713 30.3784C46.8974 30.0368 46.0821 29.786 45.2905 29.48C44.7141 29.2549 44.5009 28.8877 44.6983 28.2283C44.8661 27.636 45.107 27.6616 45.5906 27.8472C46.1423 28.0218 46.7048 28.1603 47.2745 28.2618L47.4521 27.8354L45.7268 26.7495C46.3427 26.4454 46.7928 26.1374 47.2923 25.9992C47.9628 25.8097 48.6531 25.699 49.3492 25.6695C49.9 25.6517 50.5337 25.6853 50.9936 25.9439C51.8662 26.4316 51.8326 26.8265 51.0746 27.4899C50.9349 27.6392 50.8094 27.8011 50.6995 27.9736Z" fill="white"/>
<path d="M156.985 68.4243C155.428 68.3571 155.104 67.8102 155.783 66.6473C156.109 66.0866 156.292 65.591 156.075 64.9138C155.84 64.1814 156.2 63.7608 156.952 63.7885C157.623 63.8161 158.136 63.666 158.553 63.0935C158.92 62.5979 160.203 62.44 160.689 62.7914C160.803 62.8612 160.902 62.9546 160.978 63.0652C161.054 63.1759 161.105 63.3014 161.129 63.4335C161.153 63.5656 161.149 63.7013 161.116 63.8315C161.084 63.9618 161.024 64.0837 160.941 64.1893C160.769 64.403 160.658 64.6595 160.62 64.9315C160.582 65.2034 160.619 65.4805 160.726 65.7332C160.943 66.3611 160.547 66.7401 160.112 67.2614C159.163 68.4006 157.929 68.1933 156.985 68.4243Z" fill="white"/>
<path d="M338.424 23.4127C337.51 23.5687 336.6 23.8076 335.681 23.853C334.761 23.8984 333.776 23.7523 332.826 23.6556C332.68 23.6417 332.417 23.4206 332.431 23.3574C332.629 22.6151 332.826 21.847 333.168 21.1718C333.288 20.9388 333.874 20.8223 334.226 20.8618C334.777 20.9503 335.316 21.1095 335.827 21.3357C336.395 21.5588 336.871 21.6141 337.303 21.0573C337.398 20.9369 337.745 20.9704 337.968 21C338.58 21.083 339.186 21.233 339.802 21.2942C340.197 21.3337 340.622 21.237 341.03 21.2508C341.52 21.2666 342.017 21.3298 341.972 22.0149C341.934 22.6269 341.763 23.0692 341.018 23.1521C340.158 23.2469 339.313 23.47 338.452 23.6378C338.452 23.5647 338.438 23.4976 338.424 23.4127Z" fill="white"/>
<path d="M42.6415 13.7739L40.5786 12.8361C41.234 12.149 41.8618 11.995 42.4895 12.1925C44.3096 12.765 46.1119 13.3929 47.9103 14.0286C48.7671 14.3327 48.8638 15.2132 49.0099 15.9003C49.156 16.5874 48.4729 16.8875 47.8116 16.54C47.2391 16.2419 46.6864 15.8766 46.0804 15.6733C45.5284 15.5249 44.9601 15.446 44.3886 15.4383C43.8891 15.4008 43.3857 15.4284 42.8863 15.4383C42.1816 15.4383 41.8993 14.9112 41.7867 14.3781C41.7571 14.2419 42.3454 13.9733 42.6415 13.7739Z" fill="white"/>
<path d="M36.4962 15.2842H31.6814L31.5985 14.919C31.8847 14.7077 32.1414 14.3899 32.4592 14.3069C33.4758 14.0284 34.509 13.8141 35.5526 13.6653C36.2849 13.5705 36.6936 14.1253 36.8179 14.765C36.9344 15.3573 36.9956 16.0384 36.0717 16.147C35.8197 16.214 35.577 16.3122 35.3492 16.4392L36.0046 16.8953C35.0946 18.1332 32.8974 18.3643 31.865 17.3771C31.4998 17.0256 31.2175 16.5478 30.5463 16.8242C30.3983 16.8855 30.0942 16.5715 29.8633 16.4294C30.0607 16.1786 30.2265 15.7917 30.4851 15.7068C30.654 15.6648 30.8296 15.6571 31.0015 15.6843C31.1735 15.7114 31.3382 15.7728 31.486 15.8647C32.0249 16.2319 32.5085 16.0621 33.0534 15.9575C34.1786 15.7601 35.3176 15.6199 36.4508 15.456C36.4646 15.4027 36.4764 15.3435 36.4962 15.2842Z" fill="white"/>
<path d="M289.46 13.0335C290.084 12.3582 290.905 12.4412 291.829 12.7669C292.709 13.071 293.584 13.2783 294.243 14.0088C294.622 14.4293 294.638 14.7571 294.122 14.9683C293.499 15.2301 292.855 15.4369 292.196 15.5863C290.964 15.8607 289.718 16.0819 288.473 16.2931C288.185 16.3166 287.895 16.2899 287.616 16.2142C286.903 16.074 286.961 15.7008 287.419 15.3158C287.952 14.8558 288.569 14.4886 289.073 13.9989C289.296 13.7679 289.335 13.3513 289.46 13.0335Z" fill="white"/>
<path d="M50.7486 13.7778C51.5954 14.0839 52.7068 14.4531 53.7866 14.9012C53.9564 14.9723 54.1005 15.4284 54.0393 15.6436C53.9781 15.7671 53.8916 15.8765 53.7855 15.9645C53.6794 16.0526 53.5561 16.1175 53.4234 16.155C52.873 16.3381 52.3009 16.4476 51.7218 16.4807C51.3576 16.4672 51.0114 16.3187 50.7505 16.0641C50.3997 15.6685 50.1036 15.2276 49.8701 14.7532C49.5483 14.1549 49.7852 13.7956 50.7486 13.7778Z" fill="white"/>
<path d="M347.207 24.1413C346.22 24.1413 345.213 24.1808 344.222 24.1235C343.749 24.0959 343.129 23.9971 343.235 23.2844C343.342 22.5717 343.804 22.4571 344.479 22.5618C345.371 22.702 346.283 22.7118 347.187 22.775C347.78 22.8165 348.611 22.6092 348.626 23.4897C348.642 24.3703 347.752 24.1215 347.207 24.1413Z" fill="white"/>
<path d="M345.48 143.118C346.437 143.118 347.395 143.093 348.35 143.118C349 143.142 349.404 142.931 349.596 142.277C349.679 141.985 349.846 141.602 350.081 141.497C350.391 141.357 350.808 141.448 351.177 141.442C351.177 141.766 351.252 142.117 351.157 142.412C350.658 143.948 349.775 144.386 348.196 143.981C347.288 143.748 346.364 143.572 345.448 143.371C345.454 143.294 345.468 143.207 345.48 143.118Z" fill="white"/>
<path d="M338.424 27.6951C337.739 27.5865 337.043 27.4977 336.356 27.3536C336.25 27.3279 336.151 27.2811 336.064 27.2159C335.977 27.1508 335.904 27.0686 335.85 26.9745C335.801 26.8639 335.967 26.6013 336.101 26.475C336.91 25.703 339.336 25.7859 340.11 26.5776C340.521 26.9942 340.333 27.3022 339.913 27.4424C339.451 27.5964 338.942 27.6142 338.424 27.6951Z" fill="white"/>
<path d="M56.4145 16.9566C56.0592 17.1244 55.7137 17.4048 55.3485 17.4364C54.4436 17.4953 53.5361 17.5038 52.6302 17.462C52.4505 17.462 52.2729 17.2646 52.0952 17.1619C52.2393 16.9645 52.3755 16.5874 52.5256 16.5815C53.783 16.536 55.0425 16.5558 56.302 16.5558L56.4145 16.9566Z" fill="white"/>
<path d="M49.4617 11.6969C49.3689 11.7719 49.1123 12.0799 49.0333 12.0404C48.4411 11.7383 47.8883 11.3672 47.3218 11.0157C47.6139 10.763 47.8725 10.376 48.2062 10.2892C48.674 10.1707 49.4834 11.0592 49.4617 11.6969Z" fill="white"/>
<path d="M57.9326 17.695C58.0037 16.9823 58.5584 16.8796 59.0105 16.8757C59.4625 16.8717 59.8791 17.0928 60.2877 17.2705C60.3568 17.3002 60.3607 17.6773 60.2699 17.8095C60.209 17.8821 60.1324 17.9399 60.0459 17.9786C59.9593 18.0172 59.8652 18.0357 59.7705 18.0326C59.1625 17.9537 58.5702 17.8174 57.9326 17.695Z" fill="white"/>
<path d="M307.122 177.776C306.026 174.943 304.978 172.268 303.963 169.579C303.849 169.277 303.799 168.831 303.943 168.574C304.455 167.646 304.314 166.684 304.23 165.725C304.072 163.948 304.932 162.657 306.693 162.171C308.815 161.579 310.939 160.986 313.073 160.441C313.804 160.244 314.333 159.968 314.295 159.101C314.295 158.903 314.426 158.706 314.445 158.509C314.609 156.852 315.346 155.916 317.181 156.09C317.505 156.122 317.924 155.634 318.222 155.314C318.407 155.117 318.431 154.773 318.553 154.507C319.021 153.494 319.698 153.243 320.705 153.717C321.414 154.052 322.111 154.412 322.926 154.815C323.017 154.141 323.044 153.59 323.171 153.063C323.457 151.879 323.986 150.917 325.398 150.807C325.749 150.76 326.09 150.65 326.402 150.481C327.285 150.044 328.072 149.888 328.888 150.712C329.127 150.953 329.758 150.791 330.206 150.846C330.779 150.919 331.347 151.026 331.918 151.119C331.778 151.693 331.72 152.303 331.478 152.832C331.189 153.484 330.757 154.072 330.254 154.911C331.932 154.864 332.96 155.665 333.975 156.548C334.438 156.913 334.952 157.208 335.501 157.423C336.662 157.938 337.362 157.525 337.416 156.276C337.485 154.599 337.489 152.919 337.522 151.245C337.522 150.951 337.461 150.615 337.58 150.372C337.747 150.033 338.008 149.638 338.324 149.513C338.501 149.444 339.003 149.809 339.137 150.086C339.532 150.889 339.769 151.76 340.136 152.576C340.364 153.027 340.64 153.452 340.959 153.845C341.249 154.24 341.682 154.558 341.875 154.99C342.319 155.977 342.534 157.085 343.073 158.011C343.563 158.862 344.225 159.601 345.016 160.183C345.863 160.787 346.621 161.367 346.917 162.394C347.095 163.01 347.509 163.273 348.101 163.417C348.417 163.509 348.69 163.709 348.873 163.981C349.629 165.129 350.377 166.284 351.045 167.484C351.459 168.232 351.923 169.046 352.01 169.869C352.292 172.552 351.665 175.137 350.784 177.656C350.622 178.034 350.404 178.386 350.137 178.698C349.035 180.165 348.028 181.648 347.965 183.597C347.928 184.633 347.539 184.76 346.56 184.554C346.111 184.462 345.573 184.667 345.113 184.841C344.828 184.947 344.627 185.259 344.37 185.459C343.527 186.108 343.348 186.077 342.637 185.281C342.338 184.984 342.023 184.703 341.693 184.44C340.963 186.217 339.86 185.822 338.582 185.23C337.114 184.562 335.819 183.786 335.14 182.246C335.057 182.025 334.917 181.83 334.733 181.682C333.864 181.101 333.501 180.337 333.59 179.281C333.612 179.026 333.239 178.665 332.958 178.491C332.854 178.428 332.453 178.728 332.273 178.937C331.823 179.462 331.42 180.033 330.949 180.653C330.735 180.404 330.554 180.286 330.534 180.154C330.39 178.26 329.006 177.427 327.524 176.797C325.65 176.007 323.7 175.624 321.698 176.456C321.237 176.653 320.756 176.798 320.263 176.888C319.679 176.975 319.118 177.177 318.613 177.482C318.107 177.787 317.667 178.189 317.318 178.665C316.832 179.297 316.21 179.441 315.375 179.391C314.13 179.316 312.864 179.514 311.609 179.605C311.461 179.601 311.316 179.646 311.196 179.733C310.239 180.771 309.074 180.744 307.793 180.56C306.924 180.436 306.294 180.104 305.819 179.409C305.343 178.714 305.406 178.489 306.188 178.177C306.446 178.069 306.705 177.952 307.122 177.776Z" fill="white"/>
<path d="M349.082 149.348C348.834 149.399 348.565 149.545 348.338 149.49C346.591 149.115 344.809 148.783 343.6 147.27C343.095 146.637 342.515 146.218 341.678 146.191C340.943 146.165 340.296 146.191 340.006 147.071C339.899 147.407 339.532 147.663 339.281 147.946C338.898 148.38 338.557 148.437 338.114 147.958C337.852 147.675 337.429 147.541 337.076 147.347C336.654 147.116 336.241 146.872 335.803 146.68C335.524 146.559 335.226 146.487 334.922 146.469C334.46 146.443 333.975 146.57 333.54 146.469C332.784 146.307 332.601 145.738 333.045 145.174C333.72 144.315 333.465 143.199 332.421 142.769C331.476 142.374 330.495 141.894 329.507 141.841C328.167 141.77 327.368 140.854 326.282 140.342L327.194 139.341C326.404 139.144 325.676 138.982 324.963 138.749C324.73 138.674 324.371 138.406 324.387 138.254C324.414 137.946 324.624 137.428 324.815 137.399C325.931 137.217 327.061 137.135 328.191 137.154C328.451 137.154 328.761 137.813 328.921 138.218C329.198 138.909 329.375 139.642 329.646 140.516C330.593 139.948 331.389 139.476 332.176 138.996C332.601 138.737 332.988 138.34 333.446 138.236C333.854 138.143 334.37 138.289 334.78 138.465C335.282 138.682 335.696 139.103 336.196 139.33C338.792 140.504 341.403 141.648 344.007 142.801C344.463 143.017 344.844 143.364 345.101 143.799C345.358 144.234 345.479 144.735 345.448 145.239C345.389 146.054 346.554 147.697 347.333 148.013C347.981 148.277 348.585 148.643 349.209 148.964C349.169 149.099 349.124 149.223 349.082 149.348Z" fill="white"/>
<path d="M301.132 135.154C301.315 134.707 301.472 134.251 301.604 133.788C301.766 133.085 302.169 132.682 302.856 132.453C304.614 131.861 306.198 131.051 307.127 129.294C307.364 128.844 307.895 128.477 308.375 128.24C309.165 127.845 309.38 128.062 309.64 128.895C309.753 129.256 310.203 129.503 310.466 129.829C310.728 130.155 310.922 130.477 311.147 130.802C310.837 130.986 310.545 131.241 310.209 131.335C309.55 131.521 309.372 131.819 309.451 132.542C309.532 133.382 309.855 134.181 310.383 134.84C310.752 135.318 310.86 135.768 310.041 136.024C309.637 136.186 309.305 136.489 309.107 136.877C308.713 137.628 308.484 138.457 308.14 139.235C307.773 140.06 307.376 140.876 306.956 141.671C306.677 142.186 306.245 142.208 305.754 141.918C304.305 141.065 302.781 140.402 301.085 140.222C300.418 140.149 300.131 139.796 300.088 139.11C300.055 138.717 299.884 138.348 299.606 138.068C298.497 137.049 298.382 136.686 298.953 135.304C299.01 135.17 299.059 135.031 299.125 134.909C299.786 133.562 299.837 133.56 300.704 134.753C300.837 134.896 300.98 135.03 301.132 135.154Z" fill="white"/>
<path d="M329.063 93.6172L325.837 94.5175C326.882 95.6093 326.232 97.406 324.479 98.095C324.13 97.3053 323.421 96.4543 323.516 95.706C323.59 95.237 323.776 94.7925 324.057 94.4096C324.337 94.0267 324.706 93.7164 325.131 93.5046C326.71 92.7247 328.153 91.5303 330.117 91.8067C330.658 91.8837 331.744 90.7326 331.894 90.1245C332.03 89.5974 332.239 89.088 332.431 88.545C333.341 89.2203 333.971 89.2025 334.8 88.545C334.924 88.4687 335.021 88.3555 335.078 88.2212C335.382 86.9122 335.67 85.5993 335.953 84.2843C335.992 84.1409 335.992 83.9895 335.953 83.846C335.491 82.6121 336.15 81.7453 336.928 80.9516C337.496 80.3771 337.652 79.7176 337.623 78.9417C337.611 78.6199 337.8 78.2902 337.899 77.9545C338.219 78.0403 338.529 78.1567 338.827 78.302C340.065 79.0562 341.283 79.8381 342.633 80.689L342.21 81.9961C341.32 81.8085 340.546 81.925 339.903 82.6318C339.745 82.8036 339.31 82.7858 339.01 82.7443C338.71 82.7029 338.479 82.4817 338.199 82.4186C337.922 82.3889 337.643 82.3889 337.366 82.4186C337.366 82.691 337.299 83.001 337.402 83.232C337.684 83.8658 338.055 84.4601 338.361 85.084C338.811 86.002 338.456 86.8767 338.11 87.7118C337.583 88.9794 336.869 90.1818 336.438 91.4789C336.059 92.628 335.295 93.0229 334.245 93.1749C333.985 93.2298 333.721 93.2615 333.455 93.2697C332.537 93.2302 331.819 93.5145 331.284 94.3141C331.087 94.5925 330.609 94.9064 330.332 94.8472C329.383 94.6498 328.927 95.3487 328.277 95.7337C327.933 95.8976 327.537 95.9182 327.178 95.7909C326.963 95.712 326.765 95.2776 326.769 95.0012C326.769 94.8038 327.103 94.5629 327.338 94.4602C327.914 94.2075 328.522 94.0259 329.114 93.8146C329.105 93.7494 329.083 93.6823 329.063 93.6172Z" fill="white"/>
<path d="M222.923 167.97C221.147 167.912 220.185 167.002 219.913 165.365C219.662 163.863 219.81 162.505 220.872 161.326C221.312 160.836 221.464 160.315 221.123 159.636C220.746 158.87 220.531 158.023 220.25 157.211C219.919 156.258 220.304 155.691 221.322 155.608C221.882 155.589 222.438 155.523 222.987 155.411C223.942 155.162 224.82 154.925 225.12 153.658C225.294 152.921 226.123 152.327 226.71 151.719C226.798 151.628 227.339 151.748 227.397 151.887C227.847 152.968 228.259 154.068 228.605 155.188C228.658 155.367 228.344 155.843 228.145 155.881C227.598 155.981 227.515 156.307 227.46 156.747C227.414 157.125 227.402 157.559 227.205 157.857C225.823 159.936 225.869 162.398 225.332 164.692C225.161 165.492 224.91 166.272 224.582 167.02C224.45 167.34 224.215 167.607 223.915 167.779C223.615 167.951 223.266 168.018 222.923 167.97Z" fill="white"/>
<path d="M170.725 66.8546C169.517 67.2219 169.225 67.6444 169.201 68.8507C169.201 69.0896 168.806 69.443 168.518 69.5279C167.872 69.7076 167.172 69.6879 166.524 69.8616C165.549 70.1222 164.609 70.523 163.632 70.7797C162.803 70.9969 161.942 71.0956 161.095 71.2456L160.898 70.9376C161.105 70.5253 161.344 70.1293 161.611 69.753C162.365 68.831 162.501 67.8833 161.857 66.8586C161.573 66.4045 161.731 66.0689 162.146 65.826C162.319 65.7233 162.54 65.6977 162.714 65.595C163.148 65.3383 163.571 65.056 163.997 64.7855C163.587 64.1932 163.901 63.2258 162.953 62.9178C162.57 62.7934 162.238 62.5091 161.857 62.3689C160.9 62.0175 160.651 61.589 160.76 60.5762C160.793 60.19 160.736 59.8015 160.594 59.4409C160.327 58.7578 160.128 58.1596 161.04 57.8002C161.204 57.737 161.311 57.5041 161.417 57.3343C162.126 56.2089 162.288 56.1694 163.431 56.8723C163.555 56.9493 163.677 57.0322 163.837 57.1388L163.525 58.1122C164.118 58.0826 164.59 58.0292 165.065 58.047C165.338 58.0569 165.79 58.126 165.833 58.2681C165.912 58.5209 165.754 58.8604 165.667 59.1448C165.636 59.2494 165.527 59.3304 165.448 59.4192C164.424 60.59 164.412 60.8013 165.448 61.9681C165.843 62.4025 166.313 62.7578 166.731 63.1725C167.183 63.6187 167.813 63.8951 167.847 64.7164C167.847 65.0027 168.37 65.3087 168.696 65.5338C169.357 65.9899 170.048 66.4124 170.725 66.8546Z" fill="white"/>
<path d="M295.305 139.851C295.028 141.089 294.797 142.204 294.515 143.308C294.476 143.464 294.134 143.703 294.027 143.657C292.902 143.215 291.659 143.028 290.869 141.914C289.383 139.835 287.809 137.815 286.289 135.76C286.056 135.456 285.876 135.114 285.758 134.749C285.395 133.513 284.574 132.696 283.496 132.058C283.008 131.798 282.573 131.451 282.211 131.033C282.041 130.812 282.106 130.289 282.254 129.999C282.323 129.864 282.862 129.9 283.16 129.971C283.723 130.114 284.275 130.293 284.815 130.508C285.082 130.6 285.327 130.747 285.533 130.941C286.108 131.533 286.593 132.21 287.211 132.747C287.803 133.256 288.53 133.592 289.154 134.064C289.921 134.656 290.648 135.286 291.384 135.908C291.854 136.303 292.515 136.633 292.734 137.144C293.23 138.301 293.954 139.103 295.131 139.529C295.249 139.568 295.289 139.819 295.305 139.851Z" fill="white"/>
<path d="M315.423 125.894L316.031 124.976C315.15 124.374 313.843 124.17 314.035 122.749C312.469 122.441 312.158 122.717 311.445 124.084C311.011 124.919 310.26 125.612 309.577 126.287C309.216 126.642 308.76 126.557 308.545 126.014C309.167 125.325 309.844 124.7 310.359 123.963C310.689 123.493 310.742 122.84 310.995 122.303C311.145 121.989 311.379 121.722 311.67 121.531C311.95 121.355 312.329 121.333 312.807 121.213L312.112 120.332C312.704 119.09 312.677 119.106 311.7 118.07C311.038 117.369 311.397 116.583 311.646 115.839C311.729 115.596 311.94 115.4 312.065 115.167C312.951 113.517 313.737 113.369 315.223 114.486C314.876 116.287 313.618 117.922 314.712 119.817C315.012 120.334 315.304 120.838 316.141 120.65C316.672 120.53 317.379 120.453 317.606 121.323C317.665 121.548 318.036 121.697 318.273 121.868C318.895 122.318 318.948 122.855 318.457 123.434C318.103 123.853 317.833 124.354 317.44 124.729C316.889 125.254 316.256 125.695 315.663 126.17L315.423 125.894Z" fill="white"/>
<path d="M374.062 187.49C374.396 187.771 374.698 187.909 374.809 188.14C375.186 188.93 375.796 188.987 376.554 188.912C377.393 188.827 377.626 189.176 377.116 189.885C376.395 190.883 375.597 191.825 374.732 192.701C374.094 193.348 373.472 193.915 373.594 194.949C373.624 195.196 373.373 195.542 373.16 195.739C372.841 195.999 372.502 196.233 372.145 196.438C370.479 197.577 370.47 197.603 368.703 196.93C368.476 196.843 368.207 196.229 368.308 196.031C368.806 195.056 369.361 194.11 369.97 193.2C370.173 192.94 370.447 192.745 370.76 192.639C372.262 192.065 372.979 190.799 373.569 189.451C373.806 188.888 373.875 188.248 374.062 187.49Z" fill="white"/>
<path d="M313.689 143.002C313.559 142.494 313.425 141.989 313.294 141.48C313.197 141.085 313.122 140.69 313.018 140.295C312.968 140.177 312.901 140.067 312.82 139.967L312.584 140.001C312.584 140.281 312.57 140.564 312.584 140.844C312.629 141.6 312.688 142.356 312.739 143.112C312.775 143.636 312.595 144.021 312.007 143.946C311.466 143.877 310.736 143.813 310.878 143.032C311.034 142.175 310.797 141.497 310.4 140.779C309.988 140.029 310.386 138.4 311.046 137.778C311.441 137.395 311.861 137.213 312.345 137.661C312.739 138.028 313.115 138.109 313.529 137.638C314.07 137.045 314.765 137.014 315.464 137.333C315.661 137.424 315.961 137.701 315.93 137.809C315.892 137.943 315.827 138.067 315.741 138.175C315.654 138.284 315.546 138.373 315.424 138.439C315.079 138.573 314.67 138.532 314.295 138.603C314.153 138.631 313.93 138.753 313.922 138.85C313.925 139.038 313.985 139.221 314.094 139.375C314.384 139.851 314.702 140.309 315 140.779C315.249 141.174 315.58 141.553 315.701 141.987C315.815 142.443 315.802 142.921 315.661 143.369C315.62 143.499 315 143.497 314.652 143.468C314.252 143.41 313.857 143.325 313.468 143.213L313.689 143.002Z" fill="white"/>
<path d="M340.252 72.2999C339.068 73.2871 339.376 74.4342 339.79 75.6287C339.934 76.0473 339.905 76.5251 339.822 77.0898C339.02 76.3711 338.31 76.4264 337.473 77.1825C337.538 76.458 337.447 75.9051 337.648 75.4945C338.701 73.3582 338.195 71.1074 338.219 68.8981C338.219 67.8695 338.085 66.831 338.189 65.8161C338.252 65.1883 338.651 64.592 338.898 63.982L339.259 63.9405C339.457 64.3492 339.731 64.7401 339.812 65.1685C340.082 66.598 340.234 68.0511 340.527 69.4746C340.665 70.1479 341.067 70.7619 341.263 71.4273C341.411 71.9347 341.421 72.4816 341.494 73.0068L341.164 73.1272L340.252 72.2999Z" fill="white"/>
<path d="M295.091 143.422C296.384 143.857 297.592 144.264 298.803 144.664C298.99 144.744 299.191 144.789 299.395 144.797C300.944 144.678 302.492 144.547 304.04 144.402C304.916 144.319 305.339 144.656 305.483 145.699L304.119 145.586C304.987 146.421 306.525 145.922 307.265 147.363C306.602 147.32 306.099 147.31 305.603 147.245C305.108 147.18 304.626 146.986 304.135 146.982C301.351 146.959 298.907 145.239 296.069 145.417C295.02 145.472 294.768 144.905 295.091 143.422Z" fill="white"/>
<path d="M341.717 188.031C342.327 188.146 342.829 188.321 343.328 188.31C343.944 188.281 344.555 188.182 345.148 188.015C346.309 187.721 346.394 187.778 346.165 188.941C345.989 189.834 345.811 190.718 345.624 191.617C345.525 192.09 345.292 192.233 344.745 192.341C343.561 192.582 343.026 192.116 342.655 191.091C342.501 190.669 342.14 190.314 341.844 189.95C341.253 189.222 341.247 188.681 341.717 188.031Z" fill="white"/>
<path d="M318.852 124.082C319.091 124.536 319.406 124.966 319.549 125.448C319.691 125.93 319.637 126.435 319.687 126.935C319.75 127.555 319.687 128.038 318.994 128.356C318.654 128.514 318.477 129.029 318.234 129.391C318.062 129.647 317.902 129.918 317.628 130.358C317.233 129.553 316.915 128.915 316.615 128.269C316.418 127.819 316.191 127.633 315.673 127.953C315.199 128.214 314.68 128.383 314.144 128.451C314.584 127.102 315.221 126.184 316.771 126.214C317.606 126.232 318.506 125.067 318.852 124.082Z" fill="white"/>
<path d="M263.565 126.595C263.686 126.273 263.86 125.805 264.031 125.347C264.483 125.635 264.955 125.894 265.38 126.216C266.414 127.006 266.236 128.028 265.871 129.063C265.597 129.839 264.833 129.572 264.292 129.705C264.199 129.726 263.865 129.124 263.798 128.781C263.662 128.127 263.646 127.452 263.565 126.595Z" fill="white"/>
<path d="M311.525 108.666C311.932 107.679 312.301 106.678 312.773 105.726C312.872 105.528 313.417 105.361 313.63 105.457C313.93 105.594 314.271 105.971 314.305 106.277C314.35 106.681 314.145 107.128 313.989 107.534C313.659 108.403 313.305 109.263 312.929 110.113C312.801 110.32 312.645 110.508 312.467 110.674C312.295 110.496 312.039 110.348 311.968 110.137C311.844 109.687 311.749 109.23 311.683 108.768L311.525 108.666Z" fill="white"/>
<path d="M321.372 146.964C320.977 147.178 320.78 147.308 320.583 147.405C319.398 147.942 318.214 148.479 317.012 148.996C316.754 149.083 316.49 149.15 316.222 149.193C316.208 148.921 316.109 148.621 316.194 148.384C316.666 147.057 319.061 145.871 320.381 146.309C320.675 146.406 320.926 146.664 321.372 146.964Z" fill="white"/>
<path d="M307.504 146.674C308.448 146.465 309.311 146.254 310.183 146.1C310.381 146.066 310.732 146.196 310.775 146.327C310.797 146.447 310.795 146.569 310.768 146.688C310.741 146.807 310.691 146.919 310.619 147.018C309.834 148.119 308.616 148.027 307.504 146.674Z" fill="white"/>
<path d="M312.777 148.98L310.932 148.388C310.932 148.246 310.932 148.102 310.932 147.958C311.344 147.857 311.804 147.594 312.154 147.697C312.503 147.8 312.746 148.272 313.048 148.581L312.777 148.98Z" fill="white"/>
</svg>
