<svg width="215" height="225" viewBox="0 0 215 225" fill="none" xmlns="http://www.w3.org/2000/svg">
<g opacity="0.2">
<path d="M197.882 89.5614C188.735 164.054 120.932 217.028 46.4387 207.881C-28.0543 198.735 -81.028 130.932 -71.8814 56.4387C-62.7348 -18.0543 5.06845 -71.028 79.5614 -61.8814C154.054 -52.7348 207.028 15.0684 197.882 89.5614Z" stroke="#7495BE" stroke-opacity="0.5"/>
<path d="M171.155 86.2799C163.821 146.013 109.453 188.49 49.7201 181.156C-10.0125 173.821 -52.4898 119.453 -45.1555 59.7203C-37.8213 -0.0123688 16.5472 -42.4896 76.2798 -35.1554C136.012 -27.8212 178.49 26.5473 171.155 86.2799Z" stroke="#7495BE"/>
<path d="M171.155 86.2799C163.821 146.013 109.453 188.49 49.7201 181.156C-10.0125 173.821 -52.4898 119.453 -45.1555 59.7203C-37.8213 -0.0123688 16.5472 -42.4896 76.2798 -35.1554C136.012 -27.8212 178.49 26.5473 171.155 86.2799Z" stroke="#7495BE"/>
<path d="M146.073 83.2001C140.44 129.08 98.6801 161.706 52.8001 156.073C6.92013 150.44 -25.7062 108.68 -20.0729 62.7999C-14.4395 16.9199 27.3203 -15.7064 73.2003 -10.073C119.08 -4.43968 151.707 37.3201 146.073 83.2001Z" stroke="#8FB3E0"/>
<path d="M120.23 80.027C116.349 111.635 87.5803 134.112 55.9727 130.231C24.3651 126.35 1.88821 97.5805 5.76914 65.9729C9.65007 34.3653 38.4192 11.8884 70.0268 15.7693C101.634 19.6502 124.111 48.4194 120.23 80.027Z" stroke="#92B2D9"/>
</g>
</svg>
