<svg width="196" height="304" viewBox="0 0 196 304" fill="none" xmlns="http://www.w3.org/2000/svg">
<g opacity="0.2">
<path d="M286.882 168.561C277.735 243.054 209.932 296.028 135.439 286.881C60.9457 277.735 7.97202 209.932 17.1186 135.439C26.2652 60.9457 94.0685 7.97198 168.561 17.1186C243.054 26.2652 296.028 94.0684 286.882 168.561Z" stroke="#7495BE" stroke-opacity="0.5"/>
<path d="M260.155 165.28C252.821 225.013 198.453 267.49 138.72 260.156C78.9875 252.821 36.5102 198.453 43.8445 138.72C51.1787 78.9876 105.547 36.5104 165.28 43.8446C225.012 51.1788 267.49 105.547 260.155 165.28Z" stroke="#7495BE"/>
<path d="M260.155 165.28C252.821 225.013 198.453 267.49 138.72 260.156C78.9875 252.821 36.5102 198.453 43.8445 138.72C51.1787 78.9876 105.547 36.5104 165.28 43.8446C225.012 51.1788 267.49 105.547 260.155 165.28Z" stroke="#7495BE"/>
<path d="M235.073 162.2C229.44 208.08 187.68 240.706 141.8 235.073C95.9201 229.44 63.2938 187.68 68.9271 141.8C74.5605 95.9199 116.32 63.2936 162.2 68.927C208.08 74.5603 240.707 116.32 235.073 162.2Z" stroke="#8FB3E0"/>
<path d="M209.23 159.027C205.349 190.635 176.58 213.112 144.973 209.231C113.365 205.35 90.8882 176.581 94.7691 144.973C98.6501 113.365 127.419 90.8884 159.027 94.7693C190.634 98.6502 213.111 127.419 209.23 159.027Z" stroke="#92B2D9"/>
</g>
</svg>
