<svg width="70" height="70" viewBox="0 0 70 70" fill="none" xmlns="http://www.w3.org/2000/svg">
<g clip-path="url(#clip0_85_1482)">
<path d="M36.7709 64C34.8009 64 32.8809 63.63 31.0609 62.9L14.6309 56.33L15.3709 54.47L31.8009 61.05C35.6609 62.6 40.1709 62.22 43.7209 60.05L59.0609 50.69C59.6309 50.35 60.0009 49.67 60.0009 49C60.0009 47.9 59.1009 47 58.0009 47C57.7509 47 57.6409 47 57.3909 47.11L45.1509 52.71L44.3209 50.89L56.5909 45.28C57.2309 45 57.6809 45 58.0009 45C60.2109 45 62.0009 46.79 62.0009 49C62.0009 50.37 61.2609 51.7 60.1109 52.4L44.7709 61.76C42.3609 63.22 39.5909 64 36.7709 64Z" fill="#004ED1"/>
<path d="M13 60H8V58H13C13.55 58 14 57.55 14 57V44C14 43.45 13.55 43 13 43H8V41H13C14.65 41 16 42.35 16 44V57C16 58.65 14.65 60 13 60Z" fill="#004ED1"/>
<path d="M42 57C41.66 57 41.36 56.96 41.07 56.89L28.97 53.72L29.48 51.78L41.58 54.95C41.69 54.98 41.84 55 42 55C43.1 55 44 54.1 44 53C44 52.02 43.28 51.37 42.61 51.09L27.61 44.82C24.9 43.69 21.81 43.72 19.12 44.92L15.39 46.58L14.58 44.75L18.31 43.09C21.49 41.67 25.17 41.63 28.38 42.97L43.38 49.24C44.97 49.91 46 51.38 46 53C46 55.21 44.21 57 42 57Z" fill="#004ED1"/>
<path d="M49.8202 50.5601L48.7402 48.87C54.5402 45.18 58.0002 38.87 58.0002 32C58.0002 30.25 57.7702 28.5 57.3202 26.82L59.2502 26.3C59.7502 28.16 60.0002 30.07 60.0002 32C60.0002 39.56 56.1902 46.4901 49.8202 50.5601Z" fill="#004ED1"/>
<path d="M53.7297 19.64C49.8997 14.79 44.1697 12 37.9997 12C36.4397 12 34.8897 12.18 33.3897 12.53L32.9297 10.58C34.5797 10.2 36.2897 10 37.9997 10C44.7897 10 51.0897 13.06 55.2997 18.4L53.7297 19.64Z" fill="#004ED1"/>
<path d="M19.54 43.9701C17.22 40.4101 16 36.2701 16 32.0001C16 27.8701 17.15 23.8501 19.32 20.3701L21.02 21.4301C19.04 24.5901 18 28.2501 18 32.0001C18 35.8801 19.11 39.6401 21.22 42.8801L19.54 43.9701Z" fill="#004ED1"/>
<path d="M18.1992 40V38C20.9992 38 20.9992 37.25 20.9992 36C20.9992 33.83 22.3692 32 23.9992 32C25.6792 32 26.8192 32.86 27.8192 33.62C28.8092 34.36 29.6592 35 30.9992 35C32.1192 35 33.9992 34.74 33.9992 33C33.9992 31.79 33.6492 31.43 33.1692 30.94C32.6792 30.44 31.9992 29.75 31.9992 28.33C31.9992 26.48 32.8292 25.53 33.5592 24.69C34.3292 23.81 34.9992 23.04 34.9992 21C34.9992 20.74 34.7292 19 33.5392 19V17C36.1292 17 36.9992 19.75 36.9992 21C36.9992 23.79 35.9292 25.02 35.0692 26.01C34.4192 26.75 33.9992 27.24 33.9992 28.33C33.9992 28.93 34.1892 29.12 34.5992 29.54C35.1892 30.14 35.9992 30.97 35.9992 33C35.9992 34.93 34.6892 37 30.9992 37C28.9892 37 27.6692 36.01 26.6192 35.21C25.7192 34.54 25.0092 34 23.9992 34C23.6492 34 22.9992 34.83 22.9992 36C22.9992 38.08 22.4192 40 18.1992 40Z" fill="#004ED1"/>
<path d="M51.72 47.21C51.37 45.57 50.63 44.75 49.12 43.53C48.12 42.73 47.05 42.43 46.11 42.18C44.72 41.8 43 41.33 43 39C43 37.11 44.65 36.47 45.74 36.04C46.61 35.7 47 35.5 47 35.25C47 34.38 46.8 34.18 46.41 33.79C45.67 33.06 45 32.22 45 30C45 28.12 46.74 25.76 49.33 25.25L49.72 27.21C47.93 27.56 47 29.21 47 30C47 31.57 47.36 31.92 47.81 32.37C48.46 33.01 49 33.67 49 35.25C49 36.91 47.48 37.51 46.47 37.9C45.35 38.34 45 38.55 45 39C45 39.72 45.15 39.84 46.64 40.24C47.72 40.54 49.06 40.9 50.38 41.97C52.15 43.4 53.2 44.59 53.68 46.79L51.72 47.21Z" fill="#004ED1"/>
<path d="M26 29.58L18.96 21C17.7 19.37 17 17.32 17 15.24C17 10.14 21.04 6 26 6C30.96 6 35 10.14 35 15.24C35 17.32 34.3 19.37 33.04 20.99L26 29.58ZM20.53 19.76L26 26.42L31.48 19.74C32.47 18.47 33 16.9 33 15.24C33 11.25 29.86 8 26 8C22.14 8 19 11.25 19 15.24C19 16.9 19.53 18.46 20.53 19.76Z" fill="#FF793A"/>
<path d="M26 19C23.79 19 22 17.21 22 15C22 12.79 23.79 11 26 11C28.21 11 30 12.79 30 15C30 17.21 28.21 19 26 19ZM26 13C24.9 13 24 13.9 24 15C24 16.1 24.9 17 26 17C27.1 17 28 16.1 28 15C28 13.9 27.1 13 26 13Z" fill="#FF793A"/>
<path d="M55 23H53V25H55V23Z" fill="#FF793A"/>
<path d="M54 34.2L49.29 27.72C48.46 26.67 48 25.35 48 24C48 20.69 50.69 18 54 18C57.31 18 60 20.69 60 24C60 25.36 59.53 26.69 58.69 27.74L54 34.2ZM54 20C51.79 20 50 21.79 50 24C50 24.92 50.3 25.78 50.87 26.49L50.9 26.53L54 30.8L57.1 26.53C57.7 25.78 58 24.92 58 24C58 21.79 56.21 20 54 20Z" fill="#FF793A"/>
</g>
<defs>
<clipPath id="clip0_85_1482">
<rect width="54" height="58" fill="white" transform="translate(8 6)"/>
</clipPath>
</defs>
</svg>
