<svg width="1197" height="401" viewBox="0 0 1197 401" fill="none" xmlns="http://www.w3.org/2000/svg">
<path fill-rule="evenodd" clip-rule="evenodd" d="M49.5233 179.061C98.1477 241.651 183.616 296.27 300.104 308.492C314.861 310.041 328.027 316.187 340.561 324.471C350.971 331.351 361 339.746 371.154 348.246C373.208 349.965 375.268 351.689 377.337 353.406C401.991 373.862 428.08 393.355 463.504 393.487C496.838 393.611 530.135 387.482 558.674 376.485C587.226 365.483 610.938 349.639 625.196 330.392C670.258 269.562 709.21 241.051 745.439 231.443C781.684 221.831 814.99 231.197 848.582 245.602C859.393 250.238 870.234 255.392 881.221 260.616C938.622 287.905 999.99 317.081 1081.62 284.06C1082.11 283.866 1082.59 283.67 1083.07 283.474C1104.93 274.647 1132.12 263.667 1154.2 226.722C1176.81 188.885 1194.11 123.703 1194.49 5.49678L1196.49 5.50324C1196.11 123.842 1178.8 189.453 1155.91 227.748C1133.49 265.271 1105.78 276.462 1083.85 285.32C1083.35 285.519 1082.86 285.717 1082.37 285.914C999.859 319.291 937.614 289.674 880.196 262.355C869.256 257.149 858.49 252.027 847.794 247.44C814.323 233.087 781.536 223.939 745.952 233.376C710.352 242.817 671.742 270.918 626.804 331.582C612.246 351.234 588.161 367.265 559.393 378.351C530.613 389.441 497.068 395.612 463.496 395.487C427.291 395.352 400.708 375.396 376.06 354.945C373.975 353.215 371.904 351.482 369.843 349.757C359.69 341.258 349.765 332.951 339.458 326.139C327.074 317.955 314.217 311.984 299.896 310.481C182.884 298.204 96.9137 243.323 47.9439 180.288C-0.967461 117.328 -13.1277 45.9457 18.179 0.916077L19.8212 2.05776C-10.7491 46.0281 0.840523 116.396 49.5233 179.061Z" fill="#5071E7"/>
<path d="M1124.29 255.846L1130.38 267.345C1130.63 267.81 1130.3 268.377 1129.78 268.394L1116.85 268.806C1116.3 268.824 1115.95 268.222 1116.22 267.74L1123.06 255.83C1123.34 255.346 1124.03 255.356 1124.29 255.846Z" fill="#5071E7"/>
<path d="M477.661 386.387L478.736 399.355C478.78 399.879 478.258 400.272 477.771 400.082L465.722 395.375C465.208 395.175 465.12 394.483 465.564 394.148L476.537 385.888C476.982 385.553 477.615 385.834 477.661 386.387Z" fill="#5071E7"/>
<path d="M186.236 275.387L179.313 286.404C179.033 286.85 178.379 286.85 178.104 286.406L171.292 275.41C171.002 274.941 171.346 274.334 171.902 274.333L185.636 274.313C186.194 274.312 186.531 274.917 186.236 275.387Z" fill="#5071E7"/>
<path d="M752.236 225.168L753.935 238.068C754.004 238.591 753.502 239.008 753.006 238.842L740.745 234.721C740.222 234.546 740.1 233.859 740.527 233.504L751.089 224.724C751.517 224.368 752.163 224.618 752.236 225.168Z" fill="#5071E7"/>
</svg>