<svg width="120" height="120" viewBox="0 0 120 120" fill="none" xmlns="http://www.w3.org/2000/svg">
<g clip-path="url(#clip0_82_1075)">
<path d="M0 15H97.5V118.125C97.5 119.156 96.6562 120 95.625 120H1.875C0.84375 120 0 119.156 0 118.125V15Z" fill="#D8E6FF"/>
<path d="M95.625 0H1.875C0.84375 0 0 0.84375 0 1.875V15H97.5V1.875C97.5 0.84375 96.6562 0 95.625 0Z" fill="#5071E7"/>
<path d="M67.5 9.375C67.0125 9.375 66.525 9.1875 66.1875 8.83125C65.8312 8.475 65.625 8.00625 65.625 7.5C65.625 6.99375 65.8312 6.50625 66.1875 6.16875C66.8812 5.475 68.1375 5.475 68.8312 6.16875C69.1875 6.50625 69.375 6.99375 69.375 7.5C69.375 7.9875 69.1875 8.475 68.8312 8.8125C68.4937 9.16875 68.0062 9.375 67.5 9.375Z" fill="#EBF3FD"/>
<path d="M75.9375 7.5C75.9375 6.45 76.7812 5.625 77.8125 5.625C78.8625 5.625 79.6875 6.45 79.6875 7.5C79.6875 8.53125 78.8625 9.375 77.8125 9.375C76.7812 9.375 75.9375 8.53125 75.9375 7.5Z" fill="#EBF3FD"/>
<path d="M88.125 9.375C87.6375 9.375 87.15 9.1875 86.8125 8.83125C86.4562 8.49375 86.25 8.00625 86.25 7.5C86.25 6.99375 86.4562 6.50625 86.8125 6.16875C87.5062 5.475 88.7625 5.475 89.4562 6.16875C89.8125 6.50625 90 6.99375 90 7.5C90 7.9875 89.8125 8.475 89.4562 8.8125C89.1 9.16875 88.6312 9.375 88.125 9.375Z" fill="#EBF3FD"/>
<path d="M96.2599 82.5182L93.1973 85.5808L101.391 93.7743L104.453 90.7117L96.2599 82.5182Z" fill="#83A1EC"/>
<path d="M93.1979 85.5571L86.9277 91.8291L95.1224 100.021L101.393 93.7495L93.1979 85.5571Z" fill="#8EAAF1"/>
<path d="M117.807 100.05L106.238 88.5C105.863 88.125 105.282 88.125 104.907 88.5L100.52 92.8875L118.051 110.419C120.732 107.475 120.657 102.9 117.807 100.05Z" fill="#3254CD"/>
<path d="M100.519 92.8875L92.9063 100.5C92.5312 100.875 92.5312 101.475 92.9063 101.831L104.475 113.381C107.419 116.325 112.2 116.325 115.144 113.381L117.806 110.719C117.9 110.625 117.956 110.512 118.05 110.419L100.519 92.8875Z" fill="#5071E7"/>
<path d="M70.0508 99.375C88.6904 99.375 103.801 84.2646 103.801 65.625C103.801 46.9854 88.6904 31.875 70.0508 31.875C51.4112 31.875 36.3008 46.9854 36.3008 65.625C36.3008 84.2646 51.4112 99.375 70.0508 99.375Z" fill="#5071E7"/>
<path d="M45.6758 65.625C45.6758 73.1812 49.107 79.9125 54.4883 84.3937L70.0508 65.625V41.25C56.5883 41.25 45.6758 52.1625 45.6758 65.625Z" fill="#C9D8FF"/>
<path d="M70.0508 41.25V65.625L81.057 43.875C77.7383 42.2062 74.007 41.25 70.0508 41.25Z" fill="#AFC4F9"/>
<path d="M81.0383 43.8938L70.0508 65.625L93.432 58.7063C91.5195 52.2375 86.9633 46.8938 81.0383 43.8938Z" fill="#8EAAF1"/>
<path d="M54.4883 84.3937C58.707 87.9 64.1258 90 70.0508 90C77.157 90 83.532 86.9625 87.9945 82.125L70.0508 65.625L54.4883 84.3937Z" fill="#AFC4F9"/>
<path d="M93.432 58.7251L70.0508 65.6251L87.9945 82.1251C91.9883 77.7751 94.4258 72.0001 94.4258 65.6251C94.4258 63.2251 94.0695 60.9001 93.432 58.7251Z" fill="#83A3F4"/>
<path d="M70.0508 75C75.2285 75 79.4258 70.8027 79.4258 65.625C79.4258 60.4473 75.2285 56.25 70.0508 56.25C64.8731 56.25 60.6758 60.4473 60.6758 65.625C60.6758 70.8027 64.8731 75 70.0508 75Z" fill="#5071E7"/>
<path d="M46.6875 36.75H28.125C27.5063 36.75 27 36.2437 27 35.625C27 35.0063 27.5063 34.5 28.125 34.5H46.6875C47.3062 34.5 47.8125 35.0063 47.8125 35.625C47.8125 36.2437 47.3062 36.75 46.6875 36.75Z" fill="#5071E7"/>
<path d="M65.625 29.25H46.875C46.2563 29.25 45.75 28.7437 45.75 28.125C45.75 27.5063 46.2563 27 46.875 27H65.625C66.2438 27 66.75 27.5063 66.75 28.125C66.75 28.7437 66.2438 29.25 65.625 29.25Z" fill="#5071E7"/>
<path d="M41.25 29.25H28.125C27.5063 29.25 27 28.7437 27 28.125C27 27.5063 27.5063 27 28.125 27H41.25C41.8687 27 42.375 27.5063 42.375 28.125C42.375 28.7437 41.8687 29.25 41.25 29.25Z" fill="#5071E7"/>
<path d="M33.5625 58.3875H28.125C27.5063 58.3875 27 57.8812 27 57.2625C27 56.6437 27.5063 56.1375 28.125 56.1375H33.5625C34.1812 56.1375 34.6875 56.6437 34.6875 57.2625C34.6875 57.8812 34.1812 58.3875 33.5625 58.3875Z" fill="#5071E7"/>
<path d="M35.4375 50.8874H28.125C27.5063 50.8874 27 50.3812 27 49.7625C27 49.1437 27.5063 48.6375 28.125 48.6375H35.4375C36.0562 48.6375 36.5625 49.1437 36.5625 49.7625C36.5625 50.3812 36.0562 50.8874 35.4375 50.8874Z" fill="#5071E7"/>
<path d="M35.4375 81.75H28.125C27.5063 81.75 27 81.2438 27 80.625C27 80.0062 27.5063 79.5 28.125 79.5H35.4375C36.0562 79.5 36.5625 80.0062 36.5625 80.625C36.5625 81.2438 36.0562 81.75 35.4375 81.75Z" fill="#5071E7"/>
<path d="M33.5625 74.25H28.125C27.5063 74.25 27 73.7438 27 73.125C27 72.5062 27.5063 72 28.125 72H33.5625C34.1812 72 34.6875 72.5062 34.6875 73.125C34.6875 73.7438 34.1812 74.25 33.5625 74.25Z" fill="#5071E7"/>
<path d="M54.375 103.387H41.0625C40.4438 103.387 39.9375 102.881 39.9375 102.262C39.9375 101.644 40.4438 101.137 41.0625 101.137H54.375C54.9937 101.137 55.5 101.644 55.5 102.262C55.5 102.881 54.9937 103.387 54.375 103.387Z" fill="#3353B6"/>
<path d="M35.4375 103.387H28.125C27.5063 103.387 27 102.881 27 102.262C27 101.644 27.5063 101.137 28.125 101.137H35.4375C36.0562 101.137 36.5625 101.644 36.5625 102.262C36.5625 102.881 36.0562 103.387 35.4375 103.387Z" fill="#3353B6"/>
<path d="M45 95.8875H28.125C27.5063 95.8875 27 95.3812 27 94.7625C27 94.1437 27.5063 93.6375 28.125 93.6375H45C45.6187 93.6375 46.125 94.1437 46.125 94.7625C46.125 95.3812 45.6187 95.8875 45 95.8875Z" fill="#3353B6"/>
<path d="M15.9375 38.4375H10.3125C8.25 38.4375 6.5625 36.7688 6.5625 34.6875V29.0625C6.5625 27 8.25 25.3125 10.3125 25.3125H15.9375C18 25.3125 19.6875 27 19.6875 29.0625V34.6875C19.6875 36.7688 18.0188 38.4375 15.9375 38.4375Z" fill="#EBF3FD"/>
<path d="M13.4996 36.7499C13.2184 36.7499 12.9184 36.6374 12.7121 36.4124L8.58711 32.2874C8.15586 31.8561 8.15586 31.1437 8.58711 30.6937C9.01836 30.2624 9.73086 30.2624 10.1809 30.6937L13.4996 34.0124L20.0621 27.4499C20.4934 27.0187 21.2059 27.0187 21.6559 27.4499C22.0871 27.8812 22.0871 28.6124 21.6559 29.0437L14.3059 36.3937C14.0621 36.6374 13.7809 36.7499 13.4996 36.7499Z" fill="#5071E7"/>
<path d="M15.9375 60.9375H10.3125C8.25 60.9375 6.5625 59.25 6.5625 57.1875V51.5625C6.5625 49.4812 8.25 47.8125 10.3125 47.8125H15.9375C18 47.8125 19.6875 49.4812 19.6875 51.5625V57.1875C19.6875 59.2688 18.0188 60.9375 15.9375 60.9375Z" fill="#EBF3FD"/>
<path d="M15.9375 83.4375H10.3125C8.25 83.4375 6.5625 81.75 6.5625 79.6875V74.0625C6.5625 72 8.25 70.3125 10.3125 70.3125H15.9375C18 70.3125 19.6875 72 19.6875 74.0625V79.6875C19.6875 81.7688 18.0188 83.4375 15.9375 83.4375Z" fill="#EBF3FD"/>
<path d="M13.4996 81.7499C13.2184 81.7499 12.9184 81.6374 12.7121 81.4124L8.58711 77.2874C8.15586 76.8562 8.15586 76.1249 8.58711 75.6937C9.01836 75.2624 9.73086 75.2624 10.1809 75.6937L13.4996 79.0124L20.0621 72.4499C20.4934 72.0187 21.2059 72.0187 21.6559 72.4499C22.0871 72.8812 22.0871 73.5937 21.6559 74.0437L14.3059 81.3937C14.0621 81.6374 13.7809 81.7499 13.4996 81.7499Z" fill="#5071E7"/>
<path d="M15.9375 105.938H10.3125C8.25 105.938 6.5625 104.269 6.5625 102.188V96.5625C6.5625 94.5 8.25 92.8125 10.3125 92.8125H15.9375C18 92.8125 19.6875 94.5 19.6875 96.5625V102.188C19.6875 104.269 18.0188 105.938 15.9375 105.938Z" fill="#EBF3FD"/>
<path d="M13.4996 104.25C13.2184 104.25 12.9184 104.137 12.7121 103.912L8.58711 99.7874C8.15586 99.3562 8.15586 98.6437 8.58711 98.1937C9.01836 97.7624 9.73086 97.7624 10.1809 98.1937L13.4996 101.512L20.0621 94.9499C20.4934 94.5187 21.2059 94.5187 21.6559 94.9499C22.0871 95.3812 22.0871 96.0937 21.6559 96.5437L14.3059 103.894C14.0621 104.137 13.7809 104.25 13.4996 104.25Z" fill="#3353B6"/>
</g>
<defs>
<clipPath id="clip0_82_1075">
<rect width="120" height="120" fill="white"/>
</clipPath>
</defs>
</svg>
