<svg width="120" height="120" viewBox="0 0 120 120" fill="none" xmlns="http://www.w3.org/2000/svg">
<path opacity="0.9" d="M120 93.75H0V24.375C0 23.3438 0.84375 22.5 1.875 22.5H118.125C119.156 22.5 120 23.3438 120 24.375V93.75Z" fill="#C9DBFF"/>
<path d="M113.438 88.125H6.5625C6.0375 88.125 5.625 87.7125 5.625 87.1875V29.0625C5.625 28.5375 6.0375 28.125 6.5625 28.125H113.438C113.963 28.125 114.375 28.5375 114.375 29.0625V87.1875C114.375 87.7125 113.963 88.125 113.438 88.125Z" fill="#EBF4FF"/>
<path d="M118.125 103.125H1.875C0.84375 103.125 0 102.281 0 101.25V93.75H120V101.25C120 102.281 119.156 103.125 118.125 103.125Z" fill="#617FE9"/>
<path d="M67.5 99.375H52.5C51.975 99.375 51.5625 98.9625 51.5625 98.4375C51.5625 97.9125 51.975 97.5 52.5 97.5H67.5C68.025 97.5 68.4375 97.9125 68.4375 98.4375C68.4375 98.9625 68.025 99.375 67.5 99.375Z" fill="#B1CDFC"/>
<path d="M93.75 110.625H26.25L20.625 116.25H99.375L93.75 110.625Z" fill="#AFC6F2"/>
<path opacity="0.9" d="M82.5 103.125H37.5V112.5H82.5V103.125Z" fill="#ADC4EF"/>
<path opacity="0.9" d="M99.375 116.25H20.625V120H99.375V116.25Z" fill="#5071E7"/>
<path d="M26.25 0V88.125H99.375V16.875C99.375 8.1 92.6625 0 78.75 0H26.25Z" fill="#AFC6F2"/>
<path d="M20.625 0V84.375H93.75V15C93.75 6.7125 87.0375 0 78.75 0H20.625Z" fill="#D8E6FF"/>
<path d="M78.75 0C70.4625 0 63.75 6.8625 63.75 16.875H11.25C11.25 8.5875 17.9625 0 26.25 0H78.75Z" fill="#A7C4FA"/>
<path d="M78.75 0C70.4625 0 61.425 2.4375 58.125 11.25H5.625C5.625 5.04375 12.3375 0 20.625 0H78.75Z" fill="#93B3EF"/>
<path d="M84.375 76.125H82.9687C82.35 76.125 81.8438 75.6188 81.8438 75C81.8438 74.3813 82.35 73.875 82.9687 73.875H83.25V73.5937C83.25 72.975 83.7563 72.4688 84.375 72.4688C84.9938 72.4688 85.5 72.975 85.5 73.5937V75C85.5 75.6188 84.9938 76.125 84.375 76.125Z" fill="#1D3285"/>
<path d="M77.568 76.125H74.868C74.2492 76.125 73.743 75.6188 73.743 75C73.743 74.3812 74.2492 73.875 74.868 73.875H77.568C78.1867 73.875 78.693 74.3812 78.693 75C78.693 75.6188 78.1867 76.125 77.568 76.125ZM69.468 76.125H66.7492C66.1305 76.125 65.6242 75.6188 65.6242 75C65.6242 74.3812 66.1305 73.875 66.7492 73.875H69.4492C70.068 73.875 70.5742 74.3812 70.5742 75C70.593 75.6188 70.0867 76.125 69.468 76.125ZM61.3492 76.125H58.6492C58.0305 76.125 57.5242 75.6188 57.5242 75C57.5242 74.3812 58.0305 73.875 58.6492 73.875H61.3492C61.968 73.875 62.4742 74.3812 62.4742 75C62.4742 75.6188 61.968 76.125 61.3492 76.125ZM53.2492 76.125H50.5492C49.9305 76.125 49.4242 75.6188 49.4242 75C49.4242 74.3812 49.9305 73.875 50.5492 73.875H53.2492C53.868 73.875 54.3742 74.3812 54.3742 75C54.3742 75.6188 53.868 76.125 53.2492 76.125ZM45.1492 76.125H42.4492C41.8305 76.125 41.3242 75.6188 41.3242 75C41.3242 74.3812 41.8305 73.875 42.4492 73.875H45.1492C45.768 73.875 46.2742 74.3812 46.2742 75C46.2555 75.6188 45.768 76.125 45.1492 76.125Z" fill="#4E6CD9"/>
<path d="M37.0312 76.125H35.625C35.0063 76.125 34.5 75.6188 34.5 75V73.5937C34.5 72.975 35.0063 72.4688 35.625 72.4688C36.2438 72.4688 36.75 72.975 36.75 73.5937V73.875H37.0312C37.65 73.875 38.1562 74.3813 38.1562 75C38.1562 75.6188 37.65 76.125 37.0312 76.125Z" fill="#1D3285"/>
<path d="M35.625 69.3187C35.0063 69.3187 34.5 68.8124 34.5 68.1937V65.4937C34.5 64.8749 35.0063 64.3687 35.625 64.3687C36.2437 64.3687 36.75 64.8749 36.75 65.4937V68.1937C36.75 68.8124 36.2437 69.3187 35.625 69.3187ZM35.625 61.1999C35.0063 61.1999 34.5 60.6937 34.5 60.0749V57.3749C34.5 56.7562 35.0063 56.2499 35.625 56.2499C36.2437 56.2499 36.75 56.7562 36.75 57.3749V60.0749C36.75 60.7124 36.2437 61.1999 35.625 61.1999ZM35.625 53.0999C35.0063 53.0999 34.5 52.5937 34.5 51.9749V49.2749C34.5 48.6562 35.0063 48.1499 35.625 48.1499C36.2437 48.1499 36.75 48.6562 36.75 49.2749V51.9749C36.75 52.5937 36.2437 53.0999 35.625 53.0999ZM35.625 44.9999C35.0063 44.9999 34.5 44.4937 34.5 43.8749V41.1749C34.5 40.5562 35.0063 40.0499 35.625 40.0499C36.2437 40.0499 36.75 40.5562 36.75 41.1749V43.8749C36.75 44.4937 36.2437 44.9999 35.625 44.9999ZM35.625 36.8812C35.0063 36.8812 34.5 36.3749 34.5 35.7562V33.0561C34.5 32.4374 35.0063 31.9312 35.625 31.9312C36.2437 31.9312 36.75 32.4374 36.75 33.0561V35.7562C36.75 36.3937 36.2437 36.8812 35.625 36.8812Z" fill="#4E6CD9"/>
<path d="M35.625 28.7812C35.0063 28.7812 34.5 28.275 34.5 27.6562V26.25C34.5 25.6313 35.0063 25.125 35.625 25.125H37.0312C37.65 25.125 38.1562 25.6313 38.1562 26.25C38.1562 26.8688 37.65 27.375 37.0312 27.375H36.75V27.6562C36.75 28.275 36.2438 28.7812 35.625 28.7812Z" fill="#1D3285"/>
<path d="M77.568 27.375H74.868C74.2492 27.375 73.743 26.8687 73.743 26.25C73.743 25.6313 74.2492 25.125 74.868 25.125H77.568C78.1867 25.125 78.693 25.6313 78.693 26.25C78.693 26.8687 78.1867 27.375 77.568 27.375ZM69.468 27.375H66.7492C66.1305 27.375 65.6242 26.8687 65.6242 26.25C65.6242 25.6313 66.1305 25.125 66.7492 25.125H69.4492C70.068 25.125 70.5742 25.6313 70.5742 26.25C70.593 26.8687 70.0867 27.375 69.468 27.375ZM61.3492 27.375H58.6492C58.0305 27.375 57.5242 26.8687 57.5242 26.25C57.5242 25.6313 58.0305 25.125 58.6492 25.125H61.3492C61.968 25.125 62.4742 25.6313 62.4742 26.25C62.4742 26.8687 61.968 27.375 61.3492 27.375ZM53.2492 27.375H50.5492C49.9305 27.375 49.4242 26.8687 49.4242 26.25C49.4242 25.6313 49.9305 25.125 50.5492 25.125H53.2492C53.868 25.125 54.3742 25.6313 54.3742 26.25C54.3742 26.8687 53.868 27.375 53.2492 27.375ZM45.1492 27.375H42.4492C41.8305 27.375 41.3242 26.8687 41.3242 26.25C41.3242 25.6313 41.8305 25.125 42.4492 25.125H45.1492C45.768 25.125 46.2742 25.6313 46.2742 26.25C46.2555 26.8687 45.768 27.375 45.1492 27.375Z" fill="#4E6CD9"/>
<path d="M84.375 28.7812C83.7563 28.7812 83.25 28.275 83.25 27.6562V27.375H82.9687C82.35 27.375 81.8438 26.8688 81.8438 26.25C81.8438 25.6313 82.35 25.125 82.9687 25.125H84.375C84.9938 25.125 85.5 25.6313 85.5 26.25V27.6562C85.5 28.275 84.9938 28.7812 84.375 28.7812Z" fill="#1D3285"/>
<path d="M84.375 69.3187C83.7562 69.3187 83.25 68.8124 83.25 68.1937V65.4937C83.25 64.8749 83.7562 64.3687 84.375 64.3687C84.9938 64.3687 85.5 64.8749 85.5 65.4937V68.1937C85.5 68.8124 84.9938 69.3187 84.375 69.3187ZM84.375 61.1999C83.7562 61.1999 83.25 60.6937 83.25 60.0749V57.3749C83.25 56.7562 83.7562 56.2499 84.375 56.2499C84.9938 56.2499 85.5 56.7562 85.5 57.3749V60.0749C85.5 60.7124 84.9938 61.1999 84.375 61.1999ZM84.375 53.0999C83.7562 53.0999 83.25 52.5937 83.25 51.9749V49.2749C83.25 48.6562 83.7562 48.1499 84.375 48.1499C84.9938 48.1499 85.5 48.6562 85.5 49.2749V51.9749C85.5 52.5937 84.9938 53.0999 84.375 53.0999ZM84.375 44.9999C83.7562 44.9999 83.25 44.4937 83.25 43.8749V41.1749C83.25 40.5562 83.7562 40.0499 84.375 40.0499C84.9938 40.0499 85.5 40.5562 85.5 41.1749V43.8749C85.5 44.4937 84.9938 44.9999 84.375 44.9999ZM84.375 36.8812C83.7562 36.8812 83.25 36.3749 83.25 35.7562V33.0561C83.25 32.4374 83.7562 31.9312 84.375 31.9312C84.9938 31.9312 85.5 32.4374 85.5 33.0561V35.7562C85.5 36.3937 84.9938 36.8812 84.375 36.8812Z" fill="#4E6CD9"/>
<path d="M37.9688 29.5312H33.2812C32.7562 29.5312 32.3438 29.1188 32.3438 28.5938V23.9062C32.3438 23.3812 32.7562 22.9688 33.2812 22.9688H37.9688C38.4938 22.9688 38.9062 23.3812 38.9062 23.9062V28.5938C38.9062 29.1188 38.4938 29.5312 37.9688 29.5312Z" fill="#5071E7"/>
<path d="M86.7188 29.5312H82.0312C81.5062 29.5312 81.0938 29.1188 81.0938 28.5938V23.9062C81.0938 23.3812 81.5062 22.9688 82.0312 22.9688H86.7188C87.2438 22.9688 87.6562 23.3812 87.6562 23.9062V28.5938C87.6562 29.1188 87.2438 29.5312 86.7188 29.5312Z" fill="#5071E7"/>
<path d="M37.9688 78.2812H33.2812C32.7562 78.2812 32.3438 77.8688 32.3438 77.3438V72.6562C32.3438 72.1312 32.7562 71.7188 33.2812 71.7188H37.9688C38.4938 71.7188 38.9062 72.1312 38.9062 72.6562V77.3438C38.9062 77.8688 38.4938 78.2812 37.9688 78.2812Z" fill="#5071E7"/>
<path d="M86.7188 78.2812H82.0312C81.5062 78.2812 81.0938 77.8688 81.0938 77.3438V72.6562C81.0938 72.1312 81.5062 71.7188 82.0312 71.7188H86.7188C87.2438 71.7188 87.6562 72.1312 87.6562 72.6562V77.3438C87.6562 77.8688 87.2438 78.2812 86.7188 78.2812Z" fill="#3353B6"/>
<path d="M60 33.75V39.375C66.2062 39.375 71.25 44.4187 71.25 50.625C71.25 56.8312 66.2062 61.875 60 61.875C53.7937 61.875 48.75 56.8312 48.75 50.625H43.125C43.125 59.9438 50.6813 67.5 60 67.5C69.3188 67.5 76.875 59.9438 76.875 50.625C76.875 41.3063 69.3188 33.75 60 33.75Z" fill="#EBF3FD"/>
<path d="M60 56.9625C63.4875 56.9625 66.3375 54.1312 66.3375 50.625C66.3375 47.1375 63.5063 44.2875 60 44.2875V39.375C53.7938 39.375 48.75 44.4187 48.75 50.625H53.6625C53.6813 54.1125 56.5125 56.9625 60 56.9625Z" fill="#5071E7"/>
<path d="M60 61.875C66.2062 61.875 71.25 56.8312 71.25 50.625C71.25 44.4188 66.2062 39.375 60 39.375V44.2875C63.4875 44.2875 66.3375 47.1188 66.3375 50.625C66.3375 54.1125 63.5063 56.9625 60 56.9625C56.5125 56.9625 53.6625 54.1313 53.6625 50.625H48.75C48.75 56.8312 53.7938 61.875 60 61.875Z" fill="#A2C4FD"/>
<path d="M106.875 82.5C107.911 82.5 108.75 81.6605 108.75 80.625C108.75 79.5895 107.911 78.75 106.875 78.75C105.839 78.75 105 79.5895 105 80.625C105 81.6605 105.839 82.5 106.875 82.5Z" fill="#E39C26"/>
</svg>
