<svg width="120" height="120" viewBox="0 0 120 120" fill="none" xmlns="http://www.w3.org/2000/svg">
<path d="M105 15H15V112.5H105V15Z" fill="#E9F1FF"/>
<path d="M103.125 120H16.875C15.8438 120 15 119.156 15 118.125V112.5H105V118.125C105 119.156 104.156 120 103.125 120Z" fill="#B1CDFC"/>
<path d="M105 15H15V1.875C15 0.84375 15.8438 0 16.875 0H103.125C104.156 0 105 0.84375 105 1.875V15Z" fill="#B1CDFC"/>
<path d="M78.7688 9.3748C78.2625 9.3748 77.7938 9.1873 77.4376 8.83105C77.0813 8.49355 76.8938 8.00606 76.8938 7.51856C76.8938 7.01231 77.0813 6.5248 77.4376 6.1873C78.1313 5.49355 79.3876 5.49355 80.0813 6.1873C80.4376 6.5248 80.6438 7.01231 80.6438 7.51856C80.6438 8.00606 80.4376 8.49355 80.0813 8.83105C79.7438 9.16856 79.2563 9.3748 78.7688 9.3748Z" fill="#1D3285"/>
<path d="M86.2688 7.5C86.2688 6.45 87.0938 5.625 88.1438 5.625C89.175 5.625 90.0188 6.45 90.0188 7.5C90.0188 8.53125 89.175 9.35625 88.1438 9.35625C87.0938 9.375 86.2688 8.53125 86.2688 7.5Z" fill="#1D3285"/>
<path d="M97.5188 9.3748C97.0313 9.3748 96.5438 9.16855 96.1876 8.8123C95.8313 8.49355 95.6438 7.9873 95.6438 7.4998C95.6438 7.0123 95.8313 6.5248 96.1876 6.1873C96.8813 5.49355 98.1376 5.49355 98.8313 6.1873C99.1876 6.5248 99.3938 7.0123 99.3938 7.4998C99.3938 8.00605 99.1876 8.49355 98.8313 8.83105C98.4751 9.16856 98.0063 9.3748 97.5188 9.3748Z" fill="#1D3285"/>
<path d="M73.125 80.625H19.725C17.8875 80.625 16.125 81.3 14.7375 82.5187L0 95.625V26.25C0 25.2188 0.84375 24.375 1.875 24.375H73.125C74.1562 24.375 75 25.2188 75 26.25V78.75C75 79.7812 74.1562 80.625 73.125 80.625Z" fill="#AEC3F8"/>
<path d="M39.375 44.344H11.25C10.575 44.344 10.0312 43.8002 10.0312 43.1252C10.0312 42.4502 10.575 41.9065 11.25 41.9065H39.375C40.05 41.9065 40.5937 42.4502 40.5937 43.1252C40.5937 43.8002 40.05 44.344 39.375 44.344Z" fill="#5071E7"/>
<path d="M61.875 34.969H37.5C36.825 34.969 36.2812 34.4252 36.2812 33.7502C36.2812 33.0752 36.825 32.5315 37.5 32.5315H61.875C62.55 32.5315 63.0938 33.0752 63.0938 33.7502C63.0938 34.4252 62.55 34.969 61.875 34.969Z" fill="#5071E7"/>
<path d="M30 34.969H11.25C10.575 34.969 10.0312 34.4252 10.0312 33.7502C10.0312 33.0752 10.575 32.5315 11.25 32.5315H30C30.675 32.5315 31.2187 33.0752 31.2187 33.7502C31.2187 34.4252 30.675 34.969 30 34.969Z" fill="#5071E7"/>
<path d="M39.375 53.719H30C29.325 53.719 28.7812 53.1752 28.7812 52.5002C28.7812 51.8252 29.325 51.2815 30 51.2815H39.375C40.05 51.2815 40.5937 51.8252 40.5937 52.5002C40.5937 53.1752 40.05 53.719 39.375 53.719Z" fill="#5071E7"/>
<path d="M22.5 53.719H11.25C10.575 53.719 10.0312 53.1752 10.0312 52.5002C10.0312 51.8252 10.575 51.2815 11.25 51.2815H22.5C23.175 51.2815 23.7187 51.8252 23.7187 52.5002C23.7187 53.1752 23.175 53.719 22.5 53.719Z" fill="#5071E7"/>
<path d="M39.375 63.094H11.25C10.575 63.094 10.0312 62.5502 10.0312 61.8752C10.0312 61.2002 10.575 60.6565 11.25 60.6565H39.375C40.05 60.6565 40.5937 61.2002 40.5937 61.8752C40.5937 62.5502 40.05 63.094 39.375 63.094Z" fill="#5071E7"/>
<path d="M28.125 72.469H11.25C10.575 72.469 10.0312 71.9252 10.0312 71.2502C10.0312 70.5752 10.575 70.0315 11.25 70.0315H28.125C28.8 70.0315 29.3437 70.5752 29.3437 71.2502C29.3437 71.9252 28.8 72.469 28.125 72.469Z" fill="#5071E7"/>
<path d="M120 115.182L105.262 102.075C103.894 100.857 102.112 100.182 100.275 100.182H46.875C45.8438 100.182 45 99.3379 45 98.3066V43.9316C45 42.9004 45.8438 42.0566 46.875 42.0566H118.125C119.156 42.0566 120 42.9004 120 43.9316V115.182Z" fill="#5071E7"/>
<path d="M81.8063 90.0002C80.9438 89.5127 60.8438 77.869 60.8438 65.2127C60.8438 58.819 66.3562 53.6252 73.125 53.6252C76.7437 53.6252 80.175 55.1627 82.5 57.7315C84.825 55.1627 88.2562 53.6252 91.875 53.6252C98.6437 53.6252 104.156 58.819 104.156 65.2127C104.156 77.869 84.0562 89.5127 83.1937 90.0002L82.5 90.394L81.8063 90.0002Z" fill="#D8E6FF"/>
<path d="M91.875 52.1997C88.3687 52.1997 85.0125 53.5122 82.5 55.7435C79.9875 53.5122 76.6312 52.1997 73.125 52.1997C65.5687 52.1997 59.4375 58.031 59.4375 65.1935C59.4375 78.431 78.8812 89.9435 81.1125 91.1997L82.5 92.006L83.9062 91.1997C86.1187 89.9247 105.562 78.431 105.562 65.1935C105.562 58.031 99.4125 52.1997 91.875 52.1997ZM82.5 88.7622C82.5 88.7622 62.25 77.1935 62.25 65.1935C62.25 59.5685 67.125 55.0122 73.125 55.0122C77.1187 55.0122 80.6062 57.0372 82.5 60.0372C84.3937 57.0372 87.8812 55.0122 91.875 55.0122C97.875 55.0122 102.75 59.5685 102.75 65.1935C102.75 77.1935 82.5 88.7622 82.5 88.7622Z" fill="white"/>
</svg>
