<svg width="92" height="100" viewBox="0 0 92 100" fill="none" xmlns="http://www.w3.org/2000/svg">
<path d="M18 59.1336C18 59.1336 19.9317 49.8686 24.6667 39.3048C25.7783 36.8262 27.6833 36 28.8333 36C31.135 36 33 37.849 33 40.131C33 40.6499 32.7233 42.1321 32.61 42.6096C30.5383 51.2533 29.6667 53.6592 29.6667 59.1336C29.6667 65.7333 29.6667 69.9304 23.7917 75" stroke="#004ED1" stroke-width="3"/>
<path d="M17.1586 34C17.1586 34 14.0679 36.2143 12.2509 37.9076C9.32655 40.6362 8.44033 41.7872 7.72723 43.7336C6.21363 47.8645 5 51.7539 5 57.2011C5 65.4696 10.715 76.0779 21 86" stroke="#004ED1" stroke-width="3"/>
<path d="M44 84.0264L39.8152 76.9253C39.5383 76.3823 38.9963 76 38.3508 76C38.1456 76 37.9522 76.0491 37.7703 76.1184L16.0658 89.6559C15.4437 89.9028 15 90.5067 15 91.2239C15 91.4912 15.0667 91.7534 15.1768 91.9784L18.9413 99" stroke="#004ED1" stroke-width="3"/>
<path d="M28 70C28.762 76.0639 33 79 33 79" stroke="#004ED1" stroke-width="3"/>
<path d="M26 37L22 20" stroke="#004ED1" stroke-width="3"/>
<path d="M29 19L19.0829 21.101C16.753 21.5664 15 23.5618 15 25.9516C15 26.3444 15.0597 26.7224 15.1485 27.0871L20.7147 50" stroke="#004ED1" stroke-width="3"/>
<path d="M30 66L86.0238 54.1608C88.2928 53.688 90 51.6628 90 49.2353C90 48.8363 89.9418 48.4524 89.8554 48.0819L81.5357 12.8492C81.0071 10.6429 79.0506 9 76.7018 9C76.356 9 76.0186 9.03521 75.6911 9.10394L54.8926 13.3856" stroke="#004ED1" stroke-width="3"/>
<path d="M48 11L40.3295 19L36 14.4828" stroke="#FF793A" stroke-width="3"/>
<path d="M48 57L44.4963 44.2594C44.3181 43.5444 43.6705 43 42.8601 43C42.7264 43 42.6082 43.0439 42.4832 43.0715L36 44.5763" stroke="#004ED1" stroke-width="3"/>
<path fill-rule="evenodd" clip-rule="evenodd" d="M57 82H60V79H57V82Z" fill="#004ED1"/>
<path fill-rule="evenodd" clip-rule="evenodd" d="M64 86H67V83H64V86Z" fill="#004ED1"/>
<path fill-rule="evenodd" clip-rule="evenodd" d="M70 87H73V84H70V87Z" fill="#004ED1"/>
<path fill-rule="evenodd" clip-rule="evenodd" d="M84 82H87V79H84V82Z" fill="#004ED1"/>
<path fill-rule="evenodd" clip-rule="evenodd" d="M87 76H90V73H87V76Z" fill="#004ED1"/>
<path fill-rule="evenodd" clip-rule="evenodd" d="M77 86H80V83H77V86Z" fill="#004ED1"/>
<path fill-rule="evenodd" clip-rule="evenodd" d="M89 69H92V66H89V69Z" fill="#004ED1"/>
<path fill-rule="evenodd" clip-rule="evenodd" d="M12 11H15V8H12V11Z" fill="#004ED1"/>
<path fill-rule="evenodd" clip-rule="evenodd" d="M0 22H3V19H0V22Z" fill="#004ED1"/>
<path fill-rule="evenodd" clip-rule="evenodd" d="M4 14H7V11H4V14Z" fill="#004ED1"/>
<path fill-rule="evenodd" clip-rule="evenodd" d="M20 14H23V11H20V14Z" fill="#004ED1"/>
<path fill-rule="evenodd" clip-rule="evenodd" d="M4 31H7V28H4V31Z" fill="#004ED1"/>
<path fill-rule="evenodd" clip-rule="evenodd" d="M87 62H90V59H87V62Z" fill="#004ED1"/>
<path fill-rule="evenodd" clip-rule="evenodd" d="M54 76H57V73H54V76Z" fill="#004ED1"/>
<path fill-rule="evenodd" clip-rule="evenodd" d="M52 69H55V66H52V69Z" fill="#004ED1"/>
<path d="M66 53.42L61.719 35.2809C61.5477 34.5537 60.9324 34 60.1604 34C60.0331 34 59.9189 34.0446 59.8014 34.0727L53.2355 35.7023C52.5419 35.8941 52 36.5436 52 37.3055C52 37.413 52.018 37.5501 52.0359 37.6526L56.4442 55" stroke="#004ED1" stroke-width="3"/>
<path d="M84 50.3897L76.9621 22.2777C76.7865 21.5516 76.1558 21 75.3645 21C75.234 21 75.1169 21.0461 74.9965 21.0724L68.2664 22.6976C67.5554 22.887 67 23.5341 67 24.2931C67 24.4018 67.0184 24.5385 67.0368 24.6389L73.9726 52" stroke="#004ED1" stroke-width="3"/>
<path fill-rule="evenodd" clip-rule="evenodd" d="M58 27.3125H48.4679C46.5966 28.3925 44.4283 29 42.1318 29C34.8765 29 29 22.9587 29 15.5C29 8.04125 34.8765 2 42.1318 2C49.3872 2 55.2637 8.04125 55.2637 15.5C55.2637 17.0694 55.001 18.5561 54.525 19.955L58 27.3125Z" stroke="#004ED1" stroke-width="3"/>
</svg>
