<svg width="101" height="102" viewBox="0 0 101 102" fill="none" xmlns="http://www.w3.org/2000/svg">
<path fill-rule="evenodd" clip-rule="evenodd" d="M47 75.5C47 77.9855 44.9855 80 42.5 80C40.0145 80 38 77.9855 38 75.5C38 73.0145 40.0145 71 42.5 71C44.9855 71 47 73.0145 47 75.5Z" stroke="#004ED1" stroke-width="3"/>
<path d="M36.4651 58H72.8372C74.5831 58 76 59.4255 76 61.1818V89.8182C76 91.5745 74.5831 93 72.8372 93H11.1628C9.41693 93 8 91.5745 8 89.8182V61.1818C8 59.4255 9.41693 58 11.1628 58H26.9767" stroke="#004ED1" stroke-width="3"/>
<path d="M37.0031 64H65.2857C65.2857 66.7186 67.2814 68.7143 70 68.7143V81.2857C67.2814 81.2857 65.2857 83.2814 65.2857 86H19.7143C19.7143 83.2814 17.7201 81.2857 15 81.2857V68.7143C17.7201 68.7143 19.7143 66.7186 19.7143 64H27.5714" stroke="#004ED1" stroke-width="3"/>
<path d="M21 58V47.2464C21 45.4544 22.374 44 24.0705 44H27" stroke="#004ED1" stroke-width="3"/>
<path d="M32 73V70" stroke="#FF793A" stroke-width="3"/>
<path d="M32 80V77" stroke="#FF793A" stroke-width="3"/>
<path d="M2 88V85" stroke="#004ED1" stroke-width="3"/>
<path d="M2 81V78" stroke="#004ED1" stroke-width="3"/>
<path d="M63 29V32" stroke="#FF793A" stroke-width="3"/>
<path d="M63 36V39" stroke="#FF793A" stroke-width="3"/>
<path d="M81 25V28" stroke="#004ED1" stroke-width="3"/>
<path d="M81 31V39" stroke="#004ED1" stroke-width="3"/>
<path d="M63.7169 25.6542V14.616H67.7765C69.0056 14.616 69.9548 13.5815 69.9988 12.3815C70.0193 11.7933 69.7678 11.2319 69.3529 10.8172C68.2873 9.74494 63.7955 5.23503 61.6816 3.11253C60.9696 2.3982 59.8883 2.01975 59.0019 2.00082C57.9945 1.97875 57.031 2.40135 56.3191 3.11569L48.6509 10.8093C48.2344 11.2272 47.9908 11.7949 48.0003 12.3862C48.0191 13.6525 48.9951 14.616 50.2226 14.616H54.2869V43" stroke="#FF793A" stroke-width="3"/>
<path d="M37 43H85.8485C87.5771 43 89 44.3427 89 46.1667V77.8333C89 79.6573 87.5771 81 85.8485 81H81.1212" stroke="#004ED1" stroke-width="3"/>
<path d="M36 50H77.2412C77.2412 52.7186 79.2558 54.7143 82 54.7143V72" stroke="#004ED1" stroke-width="3"/>
<path d="M41.7169 38.3125V28.75H45.7789C47.0057 28.75 48 27.8511 48 26.4964C48 25.8988 47.766 25.325 47.3497 24.9027L39.6859 17.1268C38.9759 16.4064 37.8874 16 37.0046 16C35.9977 16 35.0333 16.4064 34.3233 17.1268L26.6595 24.9027C26.2433 25.325 26.0516 26.0661 26.0092 26.4964C25.8867 27.7348 27.0035 28.75 28.2303 28.75H32.2923V67" stroke="#FF793A" stroke-width="3"/>
</svg>
