<svg width="30" height="30" viewBox="0 0 30 30" fill="none" xmlns="http://www.w3.org/2000/svg">
<path d="M25.8245 9.54472H27.2727C27.996 9.54472 28.6897 9.83206 29.2012 10.3435C29.7127 10.855 30 11.5487 30 12.272V17.7265C30 18.4499 29.7127 19.1435 29.2012 19.655C28.6897 20.1665 27.996 20.4538 27.2727 20.4538H25.8245C25.4921 23.0901 24.209 25.5145 22.216 27.272C20.223 29.0295 17.6572 29.9992 15 29.9993V27.272C17.17 27.272 19.251 26.41 20.7854 24.8756C22.3198 23.3412 23.1818 21.2601 23.1818 19.0902V10.9084C23.1818 8.7384 22.3198 6.65733 20.7854 5.12294C19.251 3.58855 17.17 2.72654 15 2.72654C12.83 2.72654 10.749 3.58855 9.21458 5.12294C7.68019 6.65733 6.81818 8.7384 6.81818 10.9084V20.4538H2.72727C2.00396 20.4538 1.31026 20.1665 0.7988 19.655C0.287337 19.1435 0 18.4499 0 17.7265V12.272C0 11.5487 0.287337 10.855 0.7988 10.3435C1.31026 9.83206 2.00396 9.54472 2.72727 9.54472H4.17545C4.50822 6.90867 5.79147 4.48464 7.78442 2.72746C9.77736 0.970282 12.343 0.000732422 15 0.000732422C17.657 0.000732422 20.2226 0.970282 22.2156 2.72746C24.2085 4.48464 25.4918 6.90867 25.8245 9.54472ZM2.72727 12.272V17.7265H4.09091V12.272H2.72727ZM25.9091 12.272V17.7265H27.2727V12.272H25.9091ZM9.21818 20.1606L10.6636 17.8479C11.9633 18.662 13.4664 19.0927 15 19.0902C16.5336 19.0927 18.0367 18.662 19.3364 17.8479L20.7818 20.1606C19.049 21.2463 17.0448 21.8206 15 21.8174C12.9552 21.8206 10.951 21.2463 9.21818 20.1606Z" fill="white"/>
</svg>
