<svg width="30" height="30" viewBox="0 0 30 30" fill="none" xmlns="http://www.w3.org/2000/svg">
<path d="M10.61 12.8033C12.1739 15.5508 14.4492 17.8261 17.1967 19.39L18.67 17.3267C18.9069 16.9949 19.2572 16.7615 19.6547 16.6706C20.0521 16.5796 20.4691 16.6376 20.8267 16.8333C23.1839 18.1215 25.787 18.8963 28.465 19.1067C28.883 19.1398 29.2731 19.3292 29.5576 19.6372C29.8421 19.9452 30.0001 20.3491 30 20.7683V28.205C30.0001 28.6177 29.8471 29.0157 29.5706 29.322C29.2941 29.6284 28.9138 29.8212 28.5033 29.8633C27.62 29.955 26.73 30 25.8333 30C11.5667 30 0 18.4333 0 4.16667C0 3.27 0.045 2.38 0.136667 1.49667C0.178758 1.08616 0.37164 0.705868 0.677983 0.42939C0.984325 0.152912 1.38234 -8.89296e-05 1.795 3.87788e-08H9.23167C9.65094 -5.25309e-05 10.0548 0.157919 10.3628 0.442418C10.6708 0.726917 10.8602 1.11704 10.8933 1.535C11.1037 4.21299 11.8785 6.81613 13.1667 9.17333C13.3624 9.53094 13.4204 9.9479 13.3294 10.3453C13.2385 10.7427 13.0051 11.0931 12.6733 11.33L10.61 12.8033V12.8033ZM6.40667 11.7083L9.57333 9.44667C8.67464 7.50682 8.05892 5.44807 7.745 3.33333H3.35C3.34 3.61 3.335 3.88833 3.335 4.16667C3.33333 16.5933 13.4067 26.6667 25.8333 26.6667C26.1117 26.6667 26.39 26.6617 26.6667 26.65V22.255C24.5519 21.9411 22.4932 21.3254 20.5533 20.4267L18.2917 23.5933C17.3811 23.2395 16.4967 22.8218 15.645 22.3433L15.5483 22.2883C12.2793 20.4279 9.57213 17.7207 7.71167 14.4517L7.65667 14.355C7.17818 13.5033 6.76047 12.6189 6.40667 11.7083V11.7083Z" fill="#004ED1"/>
</svg>
