<svg width="38" height="30" viewBox="0 0 38 30" fill="none" xmlns="http://www.w3.org/2000/svg">
<path fill-rule="evenodd" clip-rule="evenodd" d="M13.7929 0.00158377C6.66337 -0.103224 0.739136 5.00826 0.739136 11.0367C0.739136 14.5165 2.41664 17.5354 5.66383 19.7517C5.66383 19.7517 4.47373 23.5836 4.49066 23.6604C4.50758 23.7374 4.76659 23.8884 4.85674 23.8391C4.94688 23.7897 9.1588 21.3391 9.1588 21.3391C12.1773 22.35 14.0186 22.1012 14.3329 22.0588C14.3547 22.0558 14.3692 22.0539 14.3762 22.0534C14.054 21.1331 13.8429 19.7002 14.0833 18.3495C15.3417 11.281 22.7593 9.08224 26.8246 9.45788C25.702 4.35307 20.8258 0.104908 13.7929 0.00158377ZM8.83742 5.80332C7.90216 5.80332 7.14413 6.5431 7.14413 7.45577C7.14413 8.36844 7.90216 9.10822 8.83742 9.10822C9.77269 9.10822 10.5309 8.36844 10.5309 7.45577C10.5309 6.5431 9.77269 5.80332 8.83742 5.80332ZM19.089 5.80332C18.1539 5.80332 17.3957 6.5431 17.3957 7.45577C17.3957 8.36844 18.1539 9.10822 19.089 9.10822C20.0243 9.10822 20.7825 8.36844 20.7825 7.45577C20.7825 6.5431 20.0245 5.80332 19.089 5.80332Z" fill="white"/>
<path fill-rule="evenodd" clip-rule="evenodd" d="M37.2609 19.4251C37.2609 14.2605 32.1418 10.3047 26.2031 10.3047C19.9151 10.3047 14.8999 14.3499 14.8999 19.5141C14.8999 24.6877 19.6702 28.9708 26.2104 29.0058C27.5267 29.0131 29.4874 28.6829 30.8095 28.144C30.8095 28.144 33.97 30.0137 34.147 29.9999C34.3239 29.986 34.4146 29.8493 34.4216 29.7321C34.4286 29.6148 33.4146 26.6965 33.4146 26.6965C36.1284 24.623 37.2609 22.3382 37.2609 19.4251ZM22.0644 14.5898C21.237 14.5898 20.5663 15.2453 20.5663 16.0543C20.5663 16.8629 21.237 17.5187 22.0644 17.5187C22.8919 17.5187 23.5626 16.8631 23.5626 16.0543C23.5626 15.2453 22.8919 14.5898 22.0644 14.5898ZM30.0756 14.5898C29.2482 14.5898 28.5774 15.2453 28.5774 16.0543C28.5774 16.8629 29.2482 17.5187 30.0756 17.5187C30.9032 17.5187 31.574 16.8631 31.574 16.0543C31.574 15.2453 30.9032 14.5898 30.0756 14.5898Z" fill="white"/>
</svg>
