<svg width="30" height="30" viewBox="0 0 30 30" fill="none" xmlns="http://www.w3.org/2000/svg">
<path d="M25.2575 0.142578C26.0777 0.142578 26.7433 0.808188 26.7433 1.62832V7.21023L23.7718 10.1817V3.11405H2.97147V26.8858H23.7718V22.7882L26.7433 19.8167V28.3716C26.7433 29.1917 26.0777 29.8573 25.2575 29.8573H1.48574C0.66561 29.8573 0 29.1917 0 28.3716V1.62832C0 0.808188 0.66561 0.142578 1.48574 0.142578H25.2575ZM27.8992 10.2575L30 12.3583L18.4439 23.9144L16.3401 23.9114L16.3431 21.8135L27.8992 10.2575ZM14.8574 14.9999V17.9714H7.42868V14.9999H14.8574ZM19.3146 9.057V12.0285H7.42868V9.057H19.3146Z" fill="white"/>
</svg>
