<svg width="70" height="40" viewBox="0 0 70 40" fill="none" xmlns="http://www.w3.org/2000/svg">
<path d="M0 0H46C59.2548 0 70 10.7452 70 24V40H24C10.7452 40 0 29.2548 0 16V0Z" fill="url(#paint0_linear_602_5346)"/>
<path d="M33.53 22.9C33.782 22.9 33.978 22.774 34.146 22.536C34.384 22.172 34.538 21.374 34.608 20.142L33.502 19.596C33.502 20.044 33.474 20.464 33.432 20.842C33.376 21.234 33.306 21.444 33.236 21.444C33.18 21.444 33.11 21.318 33.026 21.066C32.83 20.506 32.746 19.498 32.746 18.028V15.172H29.89V13.492H28.462V15.172H27.034V16.6H28.462C28.434 17.202 28.378 17.776 28.28 18.308C28.014 18.14 27.734 17.972 27.454 17.804L26.684 18.952C27.076 19.176 27.468 19.428 27.86 19.722C27.454 20.688 26.852 21.472 26.04 22.074L27.118 23.04C27.93 22.41 28.574 21.612 29.036 20.646C29.484 21.024 29.932 21.458 30.38 21.934L31.206 20.674C30.674 20.142 30.128 19.666 29.554 19.218C29.75 18.434 29.862 17.552 29.89 16.6H31.318V18.028C31.318 20.184 31.626 21.612 32.228 22.284C32.564 22.676 32.998 22.886 33.53 22.9ZM21.812 15.102V16.53H23.632V18.56C22.918 18.714 22.19 18.84 21.448 18.938L21.798 20.296C22.414 20.184 23.016 20.058 23.632 19.932V21.122C23.632 21.444 23.492 21.612 23.24 21.612C22.876 21.612 22.484 21.57 22.078 21.514L22.414 22.914H23.758C24.654 22.914 25.102 22.438 25.102 21.486V19.582C25.578 19.456 26.054 19.33 26.53 19.19V17.79L25.102 18.21V16.53H26.642V15.102H25.102V13.506H23.632V15.102H21.812ZM23.198 23.208C22.722 24.174 22.148 25 21.504 25.686L22.708 26.568C23.352 25.798 23.926 24.874 24.416 23.796L23.198 23.208ZM26.712 23.614L25.34 23.894C25.592 24.65 25.816 25.518 25.984 26.512L27.454 26.162C27.23 25.252 26.992 24.398 26.712 23.614ZM29.61 23.418L28.238 23.712C28.63 24.51 28.952 25.434 29.204 26.484L30.66 26.134C30.352 25.154 30.002 24.258 29.61 23.418ZM32.27 22.97L31.08 23.712C31.878 24.748 32.508 25.686 32.97 26.526L34.188 25.672C33.74 24.902 33.11 24.006 32.27 22.97ZM46.144 26.344C47.25 26.344 47.81 25.784 47.81 24.678V14.08H41.174V15.424H46.382V24.272C46.382 24.762 46.2 25.014 45.85 25.014L44.632 24.972L45.024 26.344H46.144ZM36.162 15.83V26.47H37.59V15.83H36.162ZM38.64 13.352L37.31 13.954C37.926 14.696 38.5 15.55 39.018 16.53L40.334 15.844C39.844 14.934 39.284 14.108 38.64 13.352Z" fill="white"/>
<defs>
<linearGradient id="paint0_linear_602_5346" x1="0" y1="0" x2="70" y2="40" gradientUnits="userSpaceOnUse">
<stop stop-color="#FF793A"/>
<stop offset="1" stop-color="#DD491B"/>
</linearGradient>
</defs>
</svg>
