<svg width="120" height="64" viewBox="0 0 120 64" fill="none" xmlns="http://www.w3.org/2000/svg">
<path d="M0 0H96C109.255 0 120 10.7452 120 24V64H24C10.7452 64 0 53.2548 0 40V0Z" fill="url(#paint0_linear_602_5352)"/>
<path d="M57.48 37.4C57.912 37.4 58.248 37.184 58.536 36.776C58.944 36.152 59.208 34.784 59.328 32.672L57.432 31.736C57.432 32.504 57.384 33.224 57.312 33.872C57.216 34.544 57.096 34.904 56.976 34.904C56.88 34.904 56.76 34.688 56.616 34.256C56.28 33.296 56.136 31.568 56.136 29.048V24.152H51.24V21.272H48.792V24.152H46.344V26.6H48.792C48.744 27.632 48.648 28.616 48.48 29.528C48.024 29.24 47.544 28.952 47.064 28.664L45.744 30.632C46.416 31.016 47.088 31.448 47.76 31.952C47.064 33.608 46.032 34.952 44.64 35.984L46.488 37.64C47.88 36.56 48.984 35.192 49.776 33.536C50.544 34.184 51.312 34.928 52.08 35.744L53.496 33.584C52.584 32.672 51.648 31.856 50.664 31.088C51 29.744 51.192 28.232 51.24 26.6H53.688V29.048C53.688 32.744 54.216 35.192 55.248 36.344C55.824 37.016 56.568 37.376 57.48 37.4ZM37.392 24.032V26.48H40.512V29.96C39.288 30.224 38.04 30.44 36.768 30.608L37.368 32.936C38.424 32.744 39.456 32.528 40.512 32.312V34.352C40.512 34.904 40.272 35.192 39.84 35.192C39.216 35.192 38.544 35.12 37.848 35.024L38.424 37.424H40.728C42.264 37.424 43.032 36.608 43.032 34.976V31.712C43.848 31.496 44.664 31.28 45.48 31.04V28.64L43.032 29.36V26.48H45.672V24.032H43.032V21.296H40.512V24.032H37.392ZM39.768 37.928C38.952 39.584 37.968 41 36.864 42.176L38.928 43.688C40.032 42.368 41.016 40.784 41.856 38.936L39.768 37.928ZM45.792 38.624L43.44 39.104C43.872 40.4 44.256 41.888 44.544 43.592L47.064 42.992C46.68 41.432 46.272 39.968 45.792 38.624ZM50.76 38.288L48.408 38.792C49.08 40.16 49.632 41.744 50.064 43.544L52.56 42.944C52.032 41.264 51.432 39.728 50.76 38.288ZM55.32 37.52L53.28 38.792C54.648 40.568 55.728 42.176 56.52 43.616L58.608 42.152C57.84 40.832 56.76 39.296 55.32 37.52ZM79.104 43.304C81 43.304 81.96 42.344 81.96 40.448V22.28H70.584V24.584H79.512V39.752C79.512 40.592 79.2 41.024 78.6 41.024L76.512 40.952L77.184 43.304H79.104ZM61.992 25.28V43.52H64.44V25.28H61.992ZM66.24 21.032L63.96 22.064C65.016 23.336 66 24.8 66.888 26.48L69.144 25.304C68.304 23.744 67.344 22.328 66.24 21.032Z" fill="white"/>
<defs>
<linearGradient id="paint0_linear_602_5352" x1="0" y1="0" x2="115.783" y2="70.8876" gradientUnits="userSpaceOnUse">
<stop stop-color="#FF793A"/>
<stop offset="1" stop-color="#DD491B"/>
</linearGradient>
</defs>
</svg>
