<svg width="56" height="56" viewBox="0 0 56 56" fill="none" xmlns="http://www.w3.org/2000/svg">
<path d="M39.1368 19.3379L19.3378 39.1369C18.6613 39.8133 17.5394 39.8133 16.8629 39.1369C16.1865 38.4604 16.1865 37.3384 16.8629 36.662L36.6619 16.863C37.3384 16.1865 38.4603 16.1865 39.1368 16.863C39.8133 17.5395 39.8133 18.6614 39.1368 19.3379Z" fill="#004ED1"/>
<path d="M39.1368 39.137C38.4603 39.8135 37.3384 39.8135 36.6619 39.137L16.8629 19.338C16.1865 18.6616 16.1865 17.5396 16.8629 16.8631C17.5394 16.1867 18.6613 16.1867 19.3378 16.8631L39.1368 36.6621C39.8133 37.3386 39.8133 38.4605 39.1368 39.137Z" fill="#004ED1"/>
</svg>
