<svg width="198" height="35" viewBox="0 0 198 35" fill="none" xmlns="http://www.w3.org/2000/svg">
<path d="M60.8697 26.2352V12.8671H63.3785C65.4874 12.8671 66.5418 14.2983 66.5418 17.1605V26.2352H71.6268V15.5889C71.6268 11.8044 68.5588 8.73638 64.7743 8.73638H63.956H60.8697V2.95361H55.4521V26.2352H60.8697Z" fill="#004ED1"/>
<path d="M44.9672 26.5125C47.5845 26.5125 49.6087 26.079 51.0396 25.2118C52.4706 24.3446 53.186 23.0655 53.186 21.3746C53.186 20.6591 53.0943 20.0304 52.9109 19.4885C52.7274 18.9465 52.4094 18.4533 51.9569 18.0089C51.5044 17.5644 50.8867 17.1525 50.104 16.7731C49.3212 16.3937 48.3306 16.0089 47.132 15.6187C46.545 15.4236 46.0619 15.2447 45.6827 15.0821C45.3036 14.9196 45.0039 14.7678 44.7838 14.6269C44.5636 14.486 44.4169 14.3396 44.3435 14.1879C44.2701 14.0361 44.2334 13.8627 44.2334 13.6676C44.2334 12.8221 45.0895 12.3993 46.8018 12.3993C47.4215 12.3993 48.2592 12.3993 49.3151 12.3993H52.3421V8.49707H49.7738C48.3061 8.49707 47.1809 8.49707 46.3982 8.49707C44.05 8.49707 42.2032 8.96317 40.8579 9.89538C39.5125 10.8276 38.8398 12.0958 38.8398 13.7001C38.8398 14.5239 38.9744 15.2285 39.2434 15.8138C39.5125 16.3992 39.8917 16.9032 40.3809 17.326C40.8701 17.7487 41.4633 18.1118 42.1604 18.4153C42.8575 18.7188 43.6341 19.0115 44.4903 19.2933C45.591 19.6619 46.4104 19.9925 46.9486 20.2852C47.4867 20.5778 47.7558 20.9193 47.7558 21.3095C47.7558 21.8081 47.5478 22.1442 47.132 22.3176C46.7162 22.491 46.0068 22.5778 45.0039 22.5778C44.368 22.5778 43.4018 22.5778 42.1053 22.5778H39.2434V26.5125H40.6927C42.4009 26.5125 43.8257 26.5125 44.9672 26.5125Z" fill="#004ED1"/>
<path d="M141.954 26.5125C144.571 26.5125 146.595 26.079 148.026 25.2118C149.457 24.3446 150.172 23.0655 150.172 21.3746C150.172 20.6591 150.081 20.0304 149.897 19.4885C149.714 18.9465 149.396 18.4533 148.943 18.0089C148.491 17.5644 147.873 17.1525 147.09 16.7731C146.308 16.3937 145.317 16.0089 144.118 15.6187C143.531 15.4236 143.048 15.2447 142.669 15.0821C142.29 14.9196 141.99 14.7678 141.77 14.6269C141.55 14.486 141.403 14.3396 141.33 14.1879C141.256 14.0361 141.22 13.8627 141.22 13.6676C141.22 12.8221 142.076 12.3993 143.788 12.3993C144.408 12.3993 145.246 12.3993 146.301 12.3993H149.328V8.49707H146.76C145.292 8.49707 144.167 8.49707 143.385 8.49707C141.036 8.49707 139.19 8.96317 137.844 9.89538C136.499 10.8276 135.826 12.0958 135.826 13.7001C135.826 14.5239 135.961 15.2285 136.23 15.8138C136.499 16.3992 136.878 16.9032 137.367 17.326C137.856 17.7487 138.45 18.1118 139.147 18.4153C139.844 18.7188 140.62 19.0115 141.477 19.2933C142.577 19.6619 143.397 19.9925 143.935 20.2852C144.473 20.5778 144.742 20.9193 144.742 21.3095C144.742 21.8081 144.534 22.1442 144.118 22.3176C143.703 22.491 142.993 22.5778 141.99 22.5778C141.354 22.5778 140.388 22.5778 139.092 22.5778H136.23V26.5125H137.679C139.387 26.5125 140.812 26.5125 141.954 26.5125Z" fill="#004ED1"/>
<path d="M172.221 26.6508C172.221 22.2807 172.221 18.7706 172.221 16.1205C172.221 13.7325 172.423 13.0499 174.215 13.0131C175.865 12.9792 177.972 12.9759 178.333 13.0569V8.82835C178.188 8.77406 176 8.76039 171.768 8.78733C169.019 8.80483 166.8 11.0382 166.8 13.7872V26.6508H172.221Z" fill="#004ED1"/>
<path fill-rule="evenodd" clip-rule="evenodd" d="M83.0348 8.49707C88.0838 8.49707 92.1769 12.561 92.1769 17.5741C92.1769 22.5872 88.0838 26.6511 83.0348 26.6511C77.9857 26.6511 73.8926 22.5872 73.8926 17.5741C73.8926 12.561 77.9857 8.49707 83.0348 8.49707ZM83.0842 13.2073C80.6279 13.2073 78.6366 15.1844 78.6366 17.6232C78.6366 20.062 80.6279 22.039 83.0842 22.039C85.5405 22.039 87.5317 20.062 87.5317 17.6232C87.5317 15.1844 85.5405 13.2073 83.0842 13.2073Z" fill="#004ED1"/>
<path d="M103.677 8.49707C108.753 8.49707 112.868 12.5582 112.868 17.5678C112.868 22.5775 108.753 26.6386 103.677 26.6386C102.057 26.6386 100.535 26.2248 99.2129 25.4985L99.2127 32.1944H94.4434V17.5831L94.4864 17.5829C94.4864 17.5779 94.4864 17.5728 94.4864 17.5678C94.4864 12.5582 98.6013 8.49707 103.677 8.49707ZM103.727 13.2041C101.258 13.2041 99.2558 15.1797 99.2558 17.6169C99.2558 20.054 101.258 22.0297 103.727 22.0297C106.196 22.0297 108.198 20.054 108.198 17.6169C108.198 15.1797 106.196 13.2041 103.727 13.2041Z" fill="#004ED1"/>
<path fill-rule="evenodd" clip-rule="evenodd" d="M188.6 8.49707C193.649 8.49707 197.742 12.561 197.742 17.5741C197.742 22.5872 193.649 26.6511 188.6 26.6511C183.551 26.6511 179.458 22.5872 179.458 17.5741C179.458 12.561 183.551 8.49707 188.6 8.49707ZM188.65 13.2073C186.193 13.2073 184.202 15.1844 184.202 17.6232C184.202 20.062 186.193 22.039 188.65 22.039C191.106 22.039 193.097 20.062 193.097 17.6232C193.097 15.1844 191.106 13.2073 188.65 13.2073Z" fill="#004ED1"/>
<path d="M160.109 26.7893C160.896 26.7893 161.891 26.7893 163.096 26.7893H164.534V22.6654H162.819C161.996 22.6654 161.387 22.6654 160.994 22.6654C159.765 22.6654 158.947 22.36 158.542 21.749C158.136 21.1381 157.933 20.3198 157.933 19.2943V13.2395H164.534V9.18106H157.933V4.89355H152.438V19.3598C152.438 20.4726 152.555 21.4872 152.789 22.4036C153.022 23.32 153.434 24.1001 154.024 24.7437C154.614 25.3874 155.401 25.8892 156.384 26.2493C157.368 26.6093 158.609 26.7893 160.109 26.7893Z" fill="#004ED1"/>
<path d="M124.347 8.49707C129.223 8.49707 133.213 12.2284 133.538 16.9508L133.56 16.9505V26.6511H129.34L129.341 25.2032C127.902 26.1193 126.188 26.6511 124.347 26.6511C119.259 26.6511 115.135 22.5872 115.135 17.5741C115.135 12.561 119.259 8.49707 124.347 8.49707ZM124.399 13.2088C121.923 13.2088 119.917 15.1859 119.917 17.6247C119.917 20.0635 121.923 22.0405 124.399 22.0405C126.874 22.0405 128.88 20.0635 128.88 17.6247C128.88 15.1859 126.874 13.2088 124.399 13.2088Z" fill="#004ED1"/>
<path d="M124.347 19.8603C125.629 19.8603 126.668 18.8365 126.668 17.5737C126.668 16.3108 125.629 15.2871 124.347 15.2871C123.065 15.2871 122.026 16.3108 122.026 17.5737C122.026 18.8365 123.065 19.8603 124.347 19.8603Z" fill="#FF793A"/>
<path d="M20.5121 23.4716C22.1713 23.4716 23.5164 22.1464 23.5164 20.5117C23.5164 18.877 22.1713 17.5518 20.5121 17.5518C18.8529 17.5518 17.5078 18.877 17.5078 20.5117C17.5078 22.1464 18.8529 23.4716 20.5121 23.4716Z" fill="white"/>
<path fill-rule="evenodd" clip-rule="evenodd" d="M22.212 31.7806C29.3874 31.7806 34.7045 24.3149 34.7045 17.179C34.7045 10.0431 29.3874 4.2583 22.212 4.2583C15.0366 4.2583 9.21973 10.0431 9.21973 17.179C9.21973 24.3149 15.0366 31.7806 22.212 31.7806Z" fill="#FF793A"/>
<path fill-rule="evenodd" clip-rule="evenodd" d="M17.9359 0C22.5798 0 26.8017 1.80431 29.9372 4.7493L17.9495 16.7972L18.5758 22.0114L30.8709 29.3051C27.667 32.8048 23.0582 35 17.9359 35C8.25888 35 0.414062 27.165 0.414062 17.5C0.414062 7.83502 8.25888 0 17.9359 0Z" fill="#FF793A"/>
<path fill-rule="evenodd" clip-rule="evenodd" d="M1.28187 11.753L17.937 21.7771L18.0731 21.8502L18.0765 21.852L31.0784 29.1211C27.8536 32.7278 23.1514 35 17.9154 35C8.19251 35 0.310547 27.165 0.310547 17.5C0.310547 15.4868 0.652519 13.5531 1.28187 11.753ZM17.9154 0C22.8938 0 27.3896 2.05416 30.5918 5.35634L17.8104 15.2582C16.7917 15.9703 16.1273 17.1388 16.1273 18.4596L16.13 18.5891L1.97228 10.0683C4.78362 4.11911 10.8656 0 17.9154 0Z" fill="#004ED1"/>
<path fill-rule="evenodd" clip-rule="evenodd" d="M0.0997382 9.92389C0.354232 9.50112 1.01617 9.43167 1.57822 9.76875L16.065 18.4562L16.0627 18.3285C16.0627 16.2434 17.7374 14.5408 19.8433 14.4364L20.0484 14.4314C22.2497 14.4314 24.0342 16.1762 24.0342 18.3285C24.0342 20.4808 22.2497 22.2257 20.0484 22.2257C19.3548 22.2257 18.7025 22.0524 18.1344 21.7477C18.0432 21.7158 17.9527 21.6729 17.8646 21.6201L0.656615 11.2997C0.0945672 10.9626 -0.154755 10.3466 0.0997382 9.92389Z" fill="white"/>
<path d="M20.1492 20.4598C21.3793 20.4598 22.3765 19.5066 22.3765 18.3307C22.3765 17.1549 21.3793 16.2017 20.1492 16.2017C18.9191 16.2017 17.9219 17.1549 17.9219 18.3307C17.9219 19.5066 18.9191 20.4598 20.1492 20.4598Z" fill="#004ED1"/>
</svg>
